<svg viewBox="0 0 209 40" fill="none" xmlns="http://www.w3.org/2000/svg"><path d="M0 5a5 5 0 015-5h199a5 5 0 015 5v30a5 5 0 01-5 5H5a5 5 0 01-5-5V5z" fill="#000"/><path fill-rule="evenodd" clip-rule="evenodd" d="M20 13l8 14H12l8-14z" fill="#fff"/><path stroke="#333" d="M40.5 0v40"/><path d="M53.278 26h1.756v-4.09h2.386c2.7 0 4.035-1.632 4.035-3.78 0-2.141-1.324-3.766-4.029-3.766h-4.148V26zm1.756-5.58v-4.55h2.205c1.738 0 2.449.943 2.449 2.26 0 1.319-.71 2.29-2.427 2.29h-2.227zm11.91 5.756c2.46 0 4.067-1.801 4.067-4.5 0-2.716-1.608-4.517-4.068-4.517-2.46 0-4.068 1.801-4.068 4.517 0 2.699 1.608 4.5 4.068 4.5zm.005-1.426c-1.608 0-2.358-1.403-2.358-3.08 0-1.67.75-3.09 2.358-3.09 1.597 0 2.347 1.42 2.347 3.09 0 1.677-.75 3.08-2.347 3.08zM74.534 26h1.727l1.773-6.301h.13L79.938 26h1.734l2.562-8.727h-1.756l-1.699 6.38h-.085l-1.704-6.38h-1.756l-1.716 6.409h-.085l-1.71-6.41h-1.756L74.534 26zm14.807.176c1.903 0 3.25-.937 3.636-2.358l-1.608-.29c-.306.824-1.045 1.245-2.011 1.245-1.455 0-2.432-.944-2.477-2.625h6.204v-.602c0-3.154-1.886-4.387-3.863-4.387-2.432 0-4.034 1.852-4.034 4.534 0 2.71 1.579 4.483 4.153 4.483zm-2.455-5.301c.069-1.239.966-2.313 2.347-2.313 1.318 0 2.182.978 2.188 2.313h-4.535zM94.97 26h1.699v-5.33c0-1.142.88-1.966 2.085-1.966.352 0 .75.063.887.103v-1.625a6.907 6.907 0 00-.722-.04c-1.023 0-1.898.58-2.216 1.517h-.09v-1.386H94.97V26zm9.59.176c1.903 0 3.25-.937 3.636-2.358l-1.608-.29c-.307.824-1.045 1.245-2.011 1.245-1.455 0-2.432-.944-2.478-2.625h6.205v-.602c0-3.154-1.886-4.387-3.864-4.387-2.431 0-4.034 1.852-4.034 4.534 0 2.71 1.58 4.483 4.154 4.483zm-2.455-5.301c.068-1.239.966-2.313 2.347-2.313 1.318 0 2.182.978 2.187 2.313h-4.534zm11.351 5.296c1.591 0 2.216-.972 2.523-1.529h.142V26h1.659V14.364h-1.699v4.323h-.102c-.307-.54-.887-1.528-2.512-1.528-2.108 0-3.659 1.665-3.659 4.494 0 2.824 1.529 4.518 3.648 4.518zm.375-1.45c-1.517 0-2.307-1.335-2.307-3.085 0-1.733.773-3.034 2.307-3.034 1.483 0 2.278 1.21 2.278 3.034 0 1.836-.812 3.086-2.278 3.086zM124.575 26h1.659v-1.358h.142c.307.557.932 1.529 2.523 1.529 2.114 0 3.648-1.694 3.648-4.518 0-2.83-1.557-4.494-3.665-4.494-1.619 0-2.204.989-2.506 1.529h-.102v-4.324h-1.699V26zm1.665-4.364c0-1.823.796-3.034 2.278-3.034 1.54 0 2.313 1.301 2.313 3.034 0 1.75-.795 3.086-2.313 3.086-1.46 0-2.278-1.25-2.278-3.086zm8.976 7.614c1.403 0 2.295-.733 2.795-2.085l3.608-9.875-1.835-.017-2.21 6.773h-.091l-2.21-6.773h-1.818l3.193 8.84-.21.58c-.432 1.13-1.04 1.233-1.972.977l-.409 1.392c.204.097.648.188 1.159.188zm14.21-14.886h-2.733L150.71 26h3.171l4.011-11.636h-2.727l-2.818 8.84h-.108l-2.813-8.84zm12.798 11.806c2.16 0 3.614-1.05 3.955-2.67l-2.239-.148c-.244.665-.869 1.012-1.676 1.012-1.21 0-1.977-.802-1.977-2.103v-.005h5.943v-.665c0-2.966-1.795-4.432-4.102-4.432-2.568 0-4.233 1.824-4.233 4.517 0 2.767 1.642 4.495 4.329 4.495zm-1.937-5.414c.051-.995.807-1.79 1.881-1.79 1.051 0 1.778.75 1.784 1.79h-3.665zM167.81 26h2.42v-4.938c0-1.073.784-1.812 1.852-1.812.336 0 .796.057 1.023.13v-2.147a3.628 3.628 0 00-.761-.085c-.978 0-1.779.568-2.097 1.648h-.091v-1.523h-2.346V26zm10.083.17c2.324 0 3.785-1.363 3.898-3.369h-2.284c-.142.932-.756 1.455-1.585 1.455-1.131 0-1.864-.95-1.864-2.62 0-1.647.739-2.59 1.864-2.59.886 0 1.454.585 1.585 1.454h2.284c-.102-2.017-1.63-3.34-3.909-3.34-2.648 0-4.284 1.834-4.284 4.51 0 2.654 1.608 4.5 4.295 4.5zm9.425 0c2.159 0 3.614-1.05 3.955-2.67l-2.239-.148c-.244.665-.869 1.012-1.676 1.012-1.21 0-1.977-.802-1.977-2.103v-.005h5.943v-.665c0-2.966-1.796-4.432-4.102-4.432-2.569 0-4.233 1.824-4.233 4.517 0 2.767 1.642 4.495 4.329 4.495zm-1.937-5.414c.051-.995.807-1.79 1.88-1.79 1.051 0 1.779.75 1.784 1.79h-3.664zm9.943-6.392h-2.421V26h2.421V14.364z" fill="#fff"/></svg>
