<?xml version="1.0" encoding="UTF-8" standalone="no"?>
<!DOCTYPE svg PUBLIC "-//W3C//DTD SVG 1.1//EN" "http://www.w3.org/Graphics/SVG/1.1/DTD/svg11.dtd">
<svg width="100%" height="100%" viewBox="0 0 2964 630" version="1.1" xmlns="http://www.w3.org/2000/svg" xmlns:xlink="http://www.w3.org/1999/xlink" xml:space="preserve" xmlns:serif="http://www.serif.com/" style="fill-rule:evenodd;clip-rule:evenodd;stroke-linejoin:round;stroke-miterlimit:2;">
    <g id="Simonyi" transform="matrix(4.16667,0,0,4.16667,-235,-163)">
        <g transform="matrix(1,0,0,1,286.107,65.368)">
            <path d="M0,45.908C-6.547,51.454 -15.328,51.531 -17.793,51.531C-21.028,51.531 -31.427,51.377 -38.975,43.443C-39.899,42.441 -40.901,41.133 -41.594,39.9L-33.044,33.969C-30.656,37.512 -26.189,42.134 -16.175,42.134C-15.713,42.134 -13.788,42.134 -12.17,41.749C-11.015,41.517 -5.7,40.054 -5.7,34.97C-5.7,34.431 -5.777,32.968 -6.701,31.735C-8.55,29.27 -13.479,28.577 -16.175,27.961L-22.646,26.497C-25.418,25.881 -28.423,25.265 -30.888,23.955C-33.429,22.646 -38.667,19.179 -38.667,11.323C-38.667,10.091 -38.513,6.548 -36.587,3.312C-34.123,-0.847 -28.191,-5.623 -17.177,-5.623C-12.324,-5.623 -2.773,-4.853 4.776,5.392L-3.62,11.631C-5.314,8.935 -9.166,3.543 -17.716,3.543C-18.255,3.543 -25.11,3.467 -27.344,7.703C-27.807,8.55 -27.96,9.32 -27.96,10.168C-27.96,11.092 -27.729,11.862 -27.267,12.633C-25.958,14.866 -22.954,15.559 -17.947,16.638L-12.324,17.87C-7.163,19.026 -1.463,20.566 2.157,24.803C3.697,26.497 5.315,28.962 5.315,33.969C5.315,38.898 3.774,42.673 0,45.908" style="fill:rgb(51,49,50);fill-rule:nonzero;"/>
        </g>
        <g transform="matrix(1,0,0,1,0,-52.618)">
            <path d="M299.123,129.617L308.289,129.617L308.289,168.13L299.123,168.13L299.123,129.617ZM299.123,114.289L308.289,114.289L308.289,123.609L299.123,123.609L299.123,114.289Z" style="fill:rgb(51,49,50);fill-rule:nonzero;"/>
        </g>
        <g transform="matrix(1,0,0,1,366.828,75.8443)">
            <path d="M0,39.668L0,16.098C0,14.634 -0.308,8.626 -6.47,8.626C-7.934,8.626 -11.246,9.166 -13.325,12.555C-15.097,15.328 -15.174,18.486 -15.174,21.567L-15.174,39.668L-24.34,39.668L-24.34,18.101C-24.34,17.253 -24.417,16.406 -24.417,15.559C-24.417,14.789 -24.417,12.093 -26.497,10.167C-28.037,8.78 -29.963,8.703 -30.656,8.703C-31.581,8.703 -33.583,8.935 -35.509,10.552C-39.283,13.787 -39.36,19.179 -39.36,23.492L-39.36,39.668L-48.604,39.668L-48.604,1.155L-39.36,1.155L-39.283,5.468C-38.667,4.621 -38.436,4.39 -38.051,4.082C-36.741,2.85 -32.582,0 -27.19,0C-22.8,0 -18.64,2.002 -16.483,5.854C-15.79,5.006 -15.02,3.928 -12.94,2.541C-11.323,1.463 -8.627,0 -4.082,0C1.772,0 7.01,2.541 8.627,8.549C9.089,10.321 9.167,11.861 9.167,15.328L9.167,39.668L0,39.668Z" style="fill:rgb(51,49,50);fill-rule:nonzero;"/>
        </g>
        <g transform="matrix(1,0,0,1,403.029,108.349)">
            <path d="M0,-24.186C-0.848,-24.186 -3.158,-24.032 -5.238,-22.723C-7.241,-21.413 -9.937,-18.255 -9.937,-12.478C-9.937,-10.629 -9.782,-9.012 -9.166,-7.241C-8.55,-5.392 -5.854,-0.154 0.462,-0.154C7.472,-0.154 10.629,-6.316 10.398,-12.401C10.244,-18.409 6.778,-24.186 0,-24.186M18.486,-3.62C16.946,0.308 11.939,8.319 0.462,8.319C-1.155,8.319 -4.468,8.242 -8.242,6.547C-12.247,4.776 -19.565,-0.616 -19.565,-12.247C-19.565,-16.407 -18.409,-19.488 -17.87,-20.874C-16.253,-24.725 -11.323,-32.505 0.154,-32.505C1.617,-32.505 5.007,-32.351 8.627,-30.733C12.786,-28.962 19.95,-23.801 20.027,-12.247C20.027,-10.861 19.95,-7.241 18.486,-3.62" style="fill:rgb(51,49,50);fill-rule:nonzero;"/>
        </g>
        <g transform="matrix(1,0,0,1,455.096,75.8443)">
            <path d="M0,39.668L0,20.026C0,17.022 0,15.559 -0.385,14.095C-1.463,9.628 -4.93,9.012 -6.778,9.012C-7.779,9.012 -9.705,9.166 -11.631,10.783C-14.403,13.094 -15.251,16.329 -15.251,22.953L-15.251,39.668L-24.571,39.668L-24.571,1.155L-15.251,1.155L-15.251,5.699C-15.097,5.468 -14.327,4.467 -13.557,3.697C-9.937,0.308 -4.698,0 -3.389,0C2.312,0 5.623,2.926 6.855,4.698C9.32,8.241 9.089,13.094 9.089,17.022L9.089,39.668L0,39.668Z" style="fill:rgb(51,49,50);fill-rule:nonzero;"/>
        </g>
        <g transform="matrix(1,0,0,1,495.379,95.1777)">
            <path d="M0,15.405C-1.387,20.18 -3.389,28.345 -7.009,31.272C-9.397,33.198 -11.862,33.583 -14.866,33.583C-17.793,33.583 -18.871,33.352 -20.335,33.044L-20.335,25.033C-16.638,25.496 -14.558,25.033 -13.171,23.878C-12.016,22.8 -11.708,21.644 -11.554,21.105L-25.495,-18.178L-15.56,-18.178L-6.933,10.552L0.309,-18.178L9.782,-18.178L0,15.405Z" style="fill:rgb(51,49,50);fill-rule:nonzero;"/>
        </g>
        <g transform="matrix(1,0,0,1,0,-52.618)">
            <path d="M510.86,129.617L520.026,129.617L520.026,168.13L510.86,168.13L510.86,129.617ZM510.86,114.289L520.026,114.289L520.026,123.609L510.86,123.609L510.86,114.289Z" style="fill:rgb(51,49,50);fill-rule:nonzero;"/>
        </g>
        <g transform="matrix(1,0,0,1,586.884,61.1313)">
            <path d="M0,54.381L-14.481,28.808L-23.339,38.976L-23.339,54.381L-33.43,54.381L-33.43,0L-23.339,0L-23.339,24.957L-1.541,0L10.398,0L-7.395,20.489L11.631,54.381L0,54.381Z" style="fill:rgb(51,49,50);fill-rule:nonzero;"/>
        </g>
        <g transform="matrix(1,0,0,1,622.467,106.191)">
            <path d="M0,-34.815L-6.932,-34.815L-3.081,-45.06L8.319,-45.06L0,-34.815ZM3.774,-9.858C2.234,-9.088 0.231,-8.318 -3.543,-7.702C-5.622,-7.316 -7.856,-7.239 -9.782,-6.084C-11.092,-5.236 -12.016,-3.927 -12.016,-2.232C-12.016,0.078 -10.321,2.311 -5.699,2.311C-0.616,2.311 2.388,-0.307 3.235,-2.079C3.852,-3.312 3.774,-4.39 3.774,-5.622L3.774,-9.858ZM3.774,9.321L3.544,6.317C2.08,7.55 0.771,8.166 0,8.474C-2.542,9.63 -4.93,10.245 -7.779,10.245C-9.628,10.245 -16.561,10.015 -20.104,4.314C-20.72,3.313 -21.875,1.233 -21.798,-1.848C-21.798,-4.004 -21.259,-8.318 -16.561,-11.476C-13.402,-13.633 -10.398,-14.095 -6.854,-14.788C-1.155,-15.943 0.925,-16.405 3.774,-17.407C3.774,-18.408 3.697,-19.641 3.235,-20.565C2.465,-22.028 0.54,-23.184 -2.85,-23.184C-6.393,-23.184 -8.627,-22.106 -9.628,-20.796C-10.706,-19.486 -10.629,-17.946 -10.629,-17.407L-20.026,-17.946C-19.949,-19.641 -19.642,-23.723 -15.867,-26.804C-13.479,-28.807 -9.859,-30.347 -3.157,-30.347C3.158,-30.347 6.855,-29.038 9.243,-27.343C10.861,-26.188 11.708,-24.878 12.017,-24.262C13.018,-22.26 13.018,-19.564 13.018,-17.407L13.018,3.082C13.018,6.009 13.172,6.856 14.712,9.321L3.774,9.321Z" style="fill:rgb(51,49,50);fill-rule:nonzero;"/>
        </g>
        <g transform="matrix(1,0,0,1,654.971,98.9515)">
            <path d="M0,-6.239C-0.692,-4.082 -0.692,-2.156 -0.692,0.077L-0.692,16.561L-9.628,16.561L-9.628,-21.952L-0.692,-21.952L-0.692,-16.484C-0.077,-17.639 0.693,-18.794 1.618,-19.641C4.699,-22.646 9.706,-22.8 10.784,-22.8L11.555,-22.8L11.555,-13.325C9.629,-13.325 2.234,-13.325 0,-6.239" style="fill:rgb(51,49,50);fill-rule:nonzero;"/>
        </g>
        <g transform="matrix(1,0,0,1,689.939,108.349)">
            <path d="M0,-24.186C-0.848,-24.186 -3.158,-24.032 -5.238,-22.723C-7.24,-21.413 -9.937,-18.255 -9.937,-12.478C-9.937,-10.629 -9.782,-9.012 -9.166,-7.241C-8.55,-5.392 -5.854,-0.154 0.462,-0.154C7.472,-0.154 10.63,-6.316 10.398,-12.401C10.244,-18.409 6.778,-24.186 0,-24.186M18.486,-3.62C16.945,0.308 11.938,8.319 0.462,8.319C-1.155,8.319 -4.468,8.242 -8.242,6.547C-12.247,4.776 -19.564,-0.616 -19.564,-12.247C-19.564,-16.407 -18.409,-19.488 -17.87,-20.874C-16.253,-24.725 -11.323,-32.505 0.154,-32.505C1.617,-32.505 5.007,-32.351 8.627,-30.733C12.786,-28.962 19.95,-23.801 20.026,-12.247C20.026,-10.861 19.95,-7.241 18.486,-3.62" style="fill:rgb(51,49,50);fill-rule:nonzero;"/>
        </g>
        <g transform="matrix(1,0,0,1,0,-53.158)">
            <rect x="717.59" y="114.289" width="9.397" height="54.381" style="fill:rgb(51,49,50);"/>
        </g>
        <g transform="matrix(1,0,0,1,758.259,95.1777)">
            <path d="M0,15.405C-1.387,20.18 -3.389,28.345 -7.01,31.272C-9.397,33.198 -11.862,33.583 -14.866,33.583C-17.793,33.583 -18.871,33.352 -20.335,33.044L-20.335,25.033C-16.638,25.496 -14.558,25.033 -13.172,23.878C-12.016,22.8 -11.708,21.644 -11.554,21.105L-25.496,-18.178L-15.56,-18.178L-6.933,10.552L0.309,-18.178L9.782,-18.178L0,15.405Z" style="fill:rgb(51,49,50);fill-rule:nonzero;"/>
        </g>
        <g transform="matrix(1,0,0,1,266.587,143.211)">
            <path d="M0,23C-3.28,25.778 -7.68,25.816 -8.915,25.816C-10.535,25.816 -15.745,25.739 -19.526,21.765C-19.99,21.263 -20.491,20.607 -20.838,19.989L-16.555,17.019C-15.359,18.793 -13.121,21.108 -8.104,21.108C-7.873,21.108 -6.908,21.108 -6.097,20.916C-5.519,20.8 -2.856,20.066 -2.856,17.52C-2.856,17.25 -2.895,16.517 -3.357,15.899C-4.284,14.664 -6.753,14.317 -8.104,14.009L-11.346,13.275C-12.735,12.967 -14.24,12.657 -15.475,12.002C-16.748,11.346 -19.372,9.609 -19.372,5.673C-19.372,5.056 -19.295,3.28 -18.33,1.659C-17.095,-0.424 -14.124,-2.816 -8.605,-2.816C-6.174,-2.816 -1.39,-2.431 2.393,2.701L-1.814,5.827C-2.663,4.477 -4.592,1.775 -8.876,1.775C-9.146,1.775 -12.581,1.737 -13.699,3.859C-13.931,4.284 -14.008,4.67 -14.008,5.094C-14.008,5.558 -13.893,5.943 -13.661,6.329C-13.005,7.448 -11.5,7.795 -8.992,8.336L-6.174,8.953C-3.589,9.532 -0.733,10.304 1.08,12.426C1.852,13.275 2.663,14.51 2.663,17.019C2.663,19.488 1.891,21.379 0,23" style="fill:rgb(51,49,50);fill-rule:nonzero;"/>
        </g>
        <g transform="matrix(1,0,0,1,288.544,141.089)">
            <path d="M0,27.244L0,23.076L14.896,4.554L1.273,4.554L1.273,0L21.263,0L21.263,4.322L6.946,22.652L21.263,22.652L21.263,27.244L0,27.244Z" style="fill:rgb(51,49,50);fill-rule:nonzero;"/>
        </g>
        <g transform="matrix(1,0,0,1,340.37,163.433)">
            <path d="M0,-17.444L-3.782,-4.902L3.743,-4.902L0,-17.444ZM6.676,4.9L5.094,-0.425L-5.132,-0.425L-6.714,4.9L-12.194,4.9L-2.971,-22.344L2.817,-22.344L12.117,4.9L6.676,4.9Z" style="fill:rgb(51,49,50);fill-rule:nonzero;"/>
        </g>
        <g transform="matrix(1,0,0,1,389.726,141.089)">
            <path d="M0,27.244L-7.255,14.432L-11.692,19.526L-11.692,27.244L-16.748,27.244L-16.748,0L-11.692,0L-11.692,12.503L-0.772,0L5.209,0L-3.705,10.265L5.827,27.244L0,27.244Z" style="fill:rgb(51,49,50);fill-rule:nonzero;"/>
        </g>
        <g transform="matrix(1,0,0,1,432.482,141.089)">
            <path d="M0,27.244L-7.255,14.432L-11.692,19.526L-11.692,27.244L-16.748,27.244L-16.748,0L-11.692,0L-11.692,12.503L-0.772,0L5.209,0L-3.705,10.265L5.826,27.244L0,27.244Z" style="fill:rgb(51,49,50);fill-rule:nonzero;"/>
        </g>
        <g transform="matrix(1,0,0,1,476.629,160.769)">
            <path d="M0,-12.117C-1.428,-14.432 -3.589,-15.706 -6.329,-15.706C-8.027,-15.706 -9.262,-15.166 -9.802,-14.895C-11.731,-13.853 -14.124,-11.306 -14.124,-6.213C-14.124,-5.171 -14.086,-0.154 -10.266,2.354C-8.605,3.435 -6.946,3.512 -6.252,3.512C-5.712,3.512 -4.477,3.473 -3.126,2.856C-1.119,1.93 1.505,-0.386 1.62,-5.518C1.659,-7.757 1.234,-10.149 0,-12.117M2.971,4.361C2.354,5.017 0.771,6.599 -1.66,7.487C-2.509,7.795 -4.091,8.258 -6.406,8.258C-10.266,8.258 -13.198,6.985 -15.745,4.052C-18.292,1.157 -19.372,-2.238 -19.372,-6.02C-19.372,-6.907 -19.334,-8.991 -18.562,-11.306C-16.787,-16.748 -12.117,-20.375 -6.29,-20.375C-1.042,-20.375 2.083,-17.519 3.356,-16.054C4.785,-14.432 6.791,-11.268 6.753,-6.058C6.753,-4.36 6.56,0.463 2.971,4.361" style="fill:rgb(51,49,50);fill-rule:nonzero;"/>
        </g>
        <g transform="matrix(1,0,0,1,505.339,141.089)">
            <path d="M0,27.244L0,0L5.133,0L5.133,22.613L15.938,22.613L15.938,27.244L0,27.244Z" style="fill:rgb(51,49,50);fill-rule:nonzero;"/>
        </g>
        <g transform="matrix(1,0,0,1,542.462,141.089)">
            <path d="M0,27.244L0,0L5.133,0L5.133,22.613L15.938,22.613L15.938,27.244L0,27.244Z" style="fill:rgb(51,49,50);fill-rule:nonzero;"/>
        </g>
        <g transform="matrix(1,0,0,1,589.772,163.702)">
            <path d="M0,-25.277L-3.434,-25.277L-1.389,-29.907L4.168,-29.907L0,-25.277ZM-10.342,4.63L-10.342,-22.614L9.03,-22.614L9.03,-18.06L-5.325,-18.06L-5.325,-11.655L7.834,-11.655L7.834,-7.256L-5.325,-7.256L-5.325,0.038L9.995,0.038L9.995,4.63L-10.342,4.63Z" style="fill:rgb(51,49,50);fill-rule:nonzero;"/>
        </g>
        <g transform="matrix(1,0,0,1,639.63,141.089)">
            <path d="M0,27.244L-0.039,24.929C-2.238,26.973 -4.477,27.938 -7.525,27.938C-9.185,27.938 -12.966,27.707 -16.246,24.504C-17.828,22.922 -20.298,19.526 -20.298,13.892C-20.298,10.419 -19.256,6.792 -17.095,4.052C-15.86,2.508 -12.619,-0.694 -7.101,-0.694C-6.329,-0.694 -4.592,-0.617 -2.624,0.116C-0.849,0.81 2.585,2.624 4.36,7.332L-0.502,9.262C-0.965,7.949 -2.393,3.897 -7.139,3.897C-8.065,3.897 -10.227,4.052 -12.04,5.865C-13.352,7.216 -14.741,9.531 -14.741,13.738C-14.741,14.856 -14.741,18.947 -11.615,21.571C-10.265,22.69 -8.76,23.115 -7.023,23.115C-4.322,23.115 -1.93,21.803 -0.888,19.256C-0.656,18.716 -0.463,18.059 -0.309,16.825L-7.101,16.825L-7.101,12.348L4.36,12.348L4.36,27.244L0,27.244Z" style="fill:rgb(51,49,50);fill-rule:nonzero;"/>
        </g>
        <g transform="matrix(1,0,0,1,0,79.621)">
            <rect x="666.604" y="61.468" width="5.017" height="27.244" style="fill:rgb(51,49,50);"/>
        </g>
        <g transform="matrix(1,0,0,1,716.384,147.34)">
            <path d="M0,15.436C-0.887,18.175 -4.013,21.687 -10.688,21.687C-13.892,21.687 -17.095,20.915 -19.333,18.446C-19.681,18.098 -20.606,16.979 -21.069,15.513C-21.494,14.124 -21.494,12.85 -21.494,9.957L-21.494,-6.251L-16.361,-6.251L-16.361,10.497C-16.361,12.117 -16.361,12.696 -16.092,13.506C-15.59,15.127 -14.123,16.748 -10.496,16.748C-9.84,16.748 -6.097,16.748 -4.978,13.661C-4.669,12.773 -4.63,12.04 -4.63,10.226L-4.63,-6.251L0.464,-6.251L0.464,9.455C0.464,12.581 0.502,13.892 0,15.436" style="fill:rgb(51,49,50);fill-rule:nonzero;"/>
        </g>
        <g transform="matrix(1,0,0,1,760.26,141.089)">
            <path d="M0,27.244L0.502,4.862L-5.402,27.244L-9.994,27.244L-15.898,4.862L-15.396,27.244L-20.375,27.244L-20.375,0L-12.966,0L-7.641,20.221L-2.393,0L4.979,0L4.979,27.244L0,27.244Z" style="fill:rgb(51,49,50);fill-rule:nonzero;"/>
        </g>
        <g transform="matrix(1,0,0,1,132.22,190.536)">
            <path d="M0,-151.271C-41.705,-151.271 -75.635,-117.341 -75.635,-75.636C-75.635,-33.93 -41.705,0 0,0C41.706,0 75.636,-33.93 75.636,-75.636C75.636,-117.341 41.706,-151.271 0,-151.271M0,-143.167C37.297,-143.167 67.532,-112.932 67.532,-75.636C67.532,-38.339 37.297,-8.104 0,-8.104C-37.296,-8.104 -67.531,-38.339 -67.531,-75.636C-67.531,-112.932 -37.296,-143.167 0,-143.167" style="fill:rgb(98,188,71);fill-rule:nonzero;"/>
        </g>
        <g transform="matrix(1,0,0,1,110.314,109.764)">
            <path d="M0,-33.28C9.175,-33.28 16.64,-25.815 16.64,-16.64C16.64,-7.465 9.175,0 0,0C-9.175,0 -16.64,-7.465 -16.64,-16.64C-16.64,-25.815 -9.175,-33.28 0,-33.28M0,-25.176C-4.714,-25.176 -8.536,-21.354 -8.536,-16.64C-8.536,-11.926 -4.714,-8.104 0,-8.104C4.714,-8.104 8.536,-11.926 8.536,-16.64C8.536,-21.354 4.714,-25.176 0,-25.176M87.554,-12.743L12.723,-12.743C10.57,-12.743 8.826,-14.487 8.826,-16.639C8.826,-18.792 10.57,-20.536 12.723,-20.536L87.554,-20.536C89.706,-20.536 91.451,-18.792 91.451,-16.639C91.451,-14.487 89.706,-12.743 87.554,-12.743" style="fill:rgb(98,188,71);fill-rule:nonzero;"/>
        </g>
        <g transform="matrix(1,0,0,1,139.385,135.17)">
            <path d="M0,6.895L-70.422,6.895C-72.326,6.895 -73.87,5.352 -73.87,3.448C-73.87,1.543 -72.326,0 -70.422,0L0,0C1.904,0 3.447,1.543 3.447,3.448C3.447,5.352 1.904,6.895 0,6.895" style="fill:rgb(98,188,71);fill-rule:nonzero;"/>
        </g>
        <g transform="matrix(1,0,0,1,152.015,154.925)">
            <path d="M0,-33.279C-9.175,-33.279 -16.64,-25.815 -16.64,-16.639C-16.64,-7.465 -9.175,0 0,0C9.175,0 16.64,-7.465 16.64,-16.639C16.64,-25.815 9.175,-33.279 0,-33.279M0,-25.175C4.714,-25.175 8.536,-21.354 8.536,-16.639C8.536,-11.925 4.714,-8.103 0,-8.103C-4.714,-8.103 -8.536,-11.925 -8.536,-16.639C-8.536,-21.354 -4.714,-25.175 0,-25.175" style="fill:rgb(98,188,71);fill-rule:nonzero;"/>
        </g>
    </g>
</svg>
