<?xml version="1.0" encoding="UTF-8" standalone="no"?>
<!DOCTYPE svg PUBLIC "-//W3C//DTD SVG 1.1//EN" "http://www.w3.org/Graphics/SVG/1.1/DTD/svg11.dtd">
<svg width="100%" height="100%" viewBox="0 0 774 665" version="1.1" xmlns="http://www.w3.org/2000/svg" xmlns:xlink="http://www.w3.org/1999/xlink" xml:space="preserve" xmlns:serif="http://www.serif.com/" style="fill-rule:evenodd;clip-rule:evenodd;stroke-linejoin:round;stroke-miterlimit:2;">
    <g id="SZORReszort" transform="matrix(1,0,0,1,-635,-217)">
        <g transform="matrix(1,0,0,1,665.677,487.43)">
            <path d="M0,379.637C8.229,379.629 14.967,372.905 14.886,364.782C14.806,356.735 8.213,350.164 0.139,350.086C-8.099,350.005 -14.879,356.634 -14.93,364.816C-14.979,372.991 -8.276,379.646 0,379.637M605.667,53.373C605.296,56.202 603.624,58.129 601.402,59.752C597.179,62.838 592.513,65.026 587.496,66.355C585.229,66.955 583.729,68.132 582.329,69.944C563.077,94.849 543.863,119.784 524.393,144.518C519.395,150.866 512.436,155.238 505.926,159.934C492.47,169.641 477.95,177.339 462.519,183.567C450.6,188.376 439.81,195.536 428.898,202.335C417.747,209.284 408.195,217.702 401.012,228.963C391.703,243.556 377.3,250.291 360.75,253.508C350.903,255.421 340.834,255.216 331.033,257.263C317.181,260.155 303.854,264.777 290.658,269.764C246.926,286.293 204.744,306.207 163.463,328.101C139.789,340.657 114.376,348.473 88.503,354.967C86.269,355.528 85.688,354.865 85.513,352.779C85.283,350.05 85.656,346.387 84.09,344.914C82.637,343.548 79.237,345.773 76.664,346.279C61.526,349.252 46.274,351.205 30.828,351.241C28.266,351.247 27.569,351.967 27.599,354.544C27.74,367.187 27.588,379.832 27.728,392.475C27.755,394.96 27.022,395.452 24.675,395.439C7.434,395.335 -9.809,395.309 -27.05,395.459C-29.768,395.483 -30.209,394.664 -30.206,392.191C-30.14,328.51 -30.133,264.83 -30.22,201.151C-30.224,198.241 -29.392,197.575 -26.592,197.597C-9.581,197.726 7.432,197.717 24.443,197.601C26.969,197.583 27.97,198.11 27.717,200.79C27.47,203.41 27.744,206.076 27.634,208.715C27.562,210.455 28.052,211.179 29.94,211.136C41.659,210.869 53.381,210.701 65.102,210.494C66.306,210.473 67.613,210.413 67.083,208.637C66.45,206.518 67.626,206.167 69.324,205.818C80.799,203.455 92.1,200.48 102.964,196.003C104.396,195.413 105.566,194.888 105.942,193.097C108.949,178.783 116.461,166.755 125.473,155.59C143.801,132.881 167.078,116.219 192.024,101.655C212.584,89.652 234.387,80.249 256.239,70.931C283.036,59.504 308.779,46.199 331.458,27.598C336.795,23.22 342.942,20.488 349.576,18.758C351.747,18.39 353.918,18.022 355.615,17.734C353.932,17.344 351.733,17.146 349.511,17.56C343.881,17.496 338.252,17.376 332.623,17.375C235.504,17.364 138.385,17.377 41.266,17.35C30.914,17.347 20.628,16.522 10.416,14.66C4.224,13.531 -0.311,10.431 -3.405,4.955C-6.688,-0.854 -9.259,-6.959 -11.607,-13.184C-12.412,-15.318 -11.683,-15.846 -9.685,-15.633C-8.889,-15.548 -8.076,-15.619 -7.272,-15.619C134.557,-15.619 276.385,-15.608 418.213,-15.624C505.562,-15.634 592.91,-15.694 680.259,-15.714C700.716,-15.719 721.172,-15.597 741.628,-15.682C744.547,-15.694 745.105,-15.069 744.111,-12.317C742.241,-7.144 740.368,-1.996 737.969,2.971C734.928,9.264 730.071,12.73 723.206,13.991C711.072,16.22 698.837,17.249 686.54,17.323C660.451,17.48 634.361,17.398 608.271,17.414C589.903,17.426 571.535,17.422 553.167,17.477C551.234,17.483 549.276,17.026 547.357,17.636C531.57,17.206 515.783,17.25 499.995,17.547C485.703,17.54 471.411,17.534 457.119,17.527C456.777,17.491 456.436,17.421 456.093,17.421C428.926,17.416 401.758,17.416 373.716,17.416C375.104,17.995 375.686,18.259 376.282,18.485C388.745,23.215 392.612,31.128 388.678,43.99C384.503,57.634 376.579,68.508 364.854,76.724C351.418,86.137 338.118,95.745 324.799,105.325C319.166,109.374 315.168,114.822 312.39,121.097C310.274,125.874 310.875,127.723 314.663,131.247C315.324,131.863 315.797,132.68 316.356,133.405C316.174,134.054 316.566,134.488 316.937,134.923C325.48,144.971 336.899,149.663 349.406,152.288C350.139,152.442 350.994,152.177 351.759,151.98C378.871,144.976 405.976,137.945 432.587,129.162C434.51,128.528 436.073,127.464 437.55,126.172C446.635,118.222 456.064,110.692 465.868,103.66C475.473,96.772 485.094,89.82 496.671,86.425C497.517,86.177 498.01,85.615 498.536,84.999C506.915,75.205 516.002,66.121 525.625,57.541C541.59,43.306 559.198,32.685 581.229,31.424C596.317,30.56 607.932,36.189 605.667,53.373" style="fill:rgb(253,253,253);fill-rule:nonzero;"/>
        </g>
        <g transform="matrix(1,0,0,1,1164.82,337.839)">
            <path d="M0,-4.356C-0.175,-13.435 -0.604,-22.5 -2.011,-31.485C-4.397,-46.72 -9.089,-61.052 -17.935,-73.923C-38.319,-103.584 -81.654,-103.035 -101.643,-74.731C-107.808,-66.002 -112.301,-56.546 -115.053,-46.277C-121.034,-23.962 -121.336,-1.309 -118.259,21.408C-116.145,37.022 -111.224,51.689 -102.025,64.783C-82.907,91.996 -48.794,91.265 -30.427,77.591C-21.239,70.751 -14.932,61.707 -10.266,51.428C-2.217,33.697 -0.285,14.82 0,-4.356M26.881,-4.347C26.64,18.451 23.877,40.787 13.916,61.641C4.687,80.963 -8.418,96.794 -28.812,104.957C-60.483,117.635 -104.577,112.88 -129.389,70.459C-139.193,53.696 -144.122,35.431 -145.953,16.298C-147.943,-4.504 -147.437,-25.251 -142.683,-45.715C-137.524,-67.92 -127.842,-87.65 -110.186,-102.684C-92.868,-117.43 -72.394,-121.991 -50.307,-119.568C-16.908,-115.904 3.327,-95.386 15.937,-65.958C23.587,-48.105 26.912,-27.604 26.881,-4.347" style="fill:rgb(252,252,252);fill-rule:nonzero;"/>
        </g>
        <g transform="matrix(1,0,0,1,1255.66,380.24)">
            <path d="M0,-95.046L0.164,-95.046C0.164,-82.751 0.162,-70.455 0.165,-58.159C0.166,-56.823 -0.21,-55.421 2.086,-55.487C14.598,-55.848 27.136,-54.906 39.629,-56.158C53.402,-57.538 63.574,-66.179 67.116,-79.52C69.022,-86.697 69.245,-94.003 68.686,-101.391C67.131,-121.934 54.873,-133.758 34.36,-134.103C23.792,-134.28 13.216,-134.053 2.647,-134.221C0.142,-134.26 -0.049,-133.263 -0.036,-131.242C0.037,-119.177 0,-107.111 0,-95.046M64.146,-41.294C79.197,-32.665 86.132,-18.177 92.58,-3.591C102.117,17.986 111.037,39.836 120.212,61.573C120.428,62.081 120.554,62.628 120.881,63.662C112.139,63.662 103.694,63.646 95.25,63.675C93.276,63.682 93.264,62.011 92.774,60.858C84.899,42.302 77.092,23.717 69.217,5.161C66.034,-2.338 62.448,-9.622 57.869,-16.41C51.656,-25.62 42.824,-30.108 32.021,-30.54C22.149,-30.934 12.251,-30.57 2.369,-30.748C-0.419,-30.797 0.221,-29.117 0.222,-27.641C0.243,1.671 0.238,30.983 0.38,60.294C0.393,63.075 -0.133,64.017 -3.109,63.896C-9.421,63.638 -15.755,63.694 -22.07,63.9C-24.619,63.983 -25.288,63.361 -25.28,60.742C-25.2,33.615 -25.254,6.487 -25.307,-20.641C-25.395,-65.471 -25.472,-110.3 -25.687,-155.129C-25.702,-158.301 -24.888,-159.063 -21.767,-159.039C-3.031,-158.898 15.706,-158.999 34.442,-158.994C42.758,-158.992 50.935,-157.915 58.894,-155.469C75.716,-150.298 86.917,-139.355 92.089,-122.51C96.771,-107.262 97.326,-91.697 93.865,-76.199C90.17,-59.649 80.885,-47.371 64.146,-41.294" style="fill:rgb(252,252,252);fill-rule:nonzero;"/>
        </g>
        <g transform="matrix(1,0,0,1,871.08,247.612)">
            <path d="M0,171.427L116.317,171.427C117.352,171.427 118.392,171.494 119.419,171.406C120.86,171.281 121.432,171.745 121.418,173.301C121.353,180.542 121.366,187.784 121.434,195.025C121.447,196.539 120.927,197.119 119.445,196.962C118.763,196.89 118.067,196.954 117.377,196.955C68.87,197.025 20.362,197.057 -28.145,197.25C-31.287,197.262 -31.907,196.399 -31.794,193.484C-31.545,187.058 -33.065,180.192 -31.262,174.302C-29.463,168.426 -24.508,163.51 -20.903,158.195C13.939,106.803 48.79,55.417 83.637,4.029C84.465,2.807 85.278,1.577 86.495,-0.24C84.888,-0.24 83.717,-0.242 82.546,-0.24C46.453,-0.196 10.359,-0.184 -25.733,-0.042C-28.489,-0.031 -29.503,-0.519 -29.386,-3.521C-29.145,-9.718 -29.176,-15.939 -29.438,-22.136C-29.562,-25.041 -28.737,-25.704 -25.873,-25.702C19.416,-25.667 64.704,-25.758 109.993,-25.823C118.247,-25.835 117.643,-25.781 118.422,-17.77C119.438,-7.325 116.023,0.931 110.139,9.478C73.949,62.034 38.269,114.94 2.422,167.732C1.663,168.849 0.94,169.99 0,171.427" style="fill:rgb(252,252,252);fill-rule:nonzero;"/>
        </g>
        <g transform="matrix(1,0,0,1,683.447,264.058)">
            <path d="M0,140.13C7.13,144.732 13.856,148.81 21.02,152.112C36.1,159.065 51.769,162.814 68.466,160.719C83.844,158.79 96.913,152.928 102.216,137.112C106.911,123.106 106.437,109.098 96.811,96.927C90.322,88.722 80.7,85.451 70.974,82.825C59.806,79.811 48.274,78.16 37.442,73.895C34.674,72.805 31.929,71.643 29.238,70.375C10.551,61.565 1.111,46.432 -0.566,26.196C-1.454,15.486 -1.079,4.787 2.387,-5.505C9.792,-27.496 25.519,-40.027 47.979,-44.082C71.117,-48.26 93.406,-43.807 115.319,-36.395C118.591,-35.288 119.973,-33.892 119.791,-30.181C119.433,-22.843 119.651,-15.471 119.794,-8.117C119.843,-5.595 119.446,-5.131 117.075,-6.471C105.639,-12.93 93.679,-18.177 80.631,-20.332C67.858,-22.443 55.183,-22.277 43.186,-16.585C31.802,-11.185 25.934,-1.875 24.854,10.532C24.455,15.114 24.571,19.692 25.437,24.259C27.045,32.741 31.61,38.885 39.308,42.809C47.576,47.025 56.557,48.907 65.465,51.061C76.152,53.643 86.928,55.88 96.97,60.66C117.637,70.498 128.187,87.141 130.456,109.564C131.59,120.769 131.116,131.873 128.108,142.72C121.898,165.119 106.463,177.705 84.363,182.778C59.915,188.39 36.23,184.828 13.042,176.322C8.751,174.749 3.306,173.875 0.736,170.752C-1.757,167.721 0.111,162.172 0.026,157.733C-0.083,152.104 0,146.472 0,140.13" style="fill:rgb(252,252,252);fill-rule:nonzero;"/>
        </g>
        <g transform="matrix(1,0,0,1,1271.34,603.524)">
            <path d="M0,-62.72C2.265,-79.904 -9.35,-85.533 -24.438,-84.67C-46.469,-83.408 -64.077,-72.787 -80.042,-58.552C-89.665,-49.972 -98.752,-40.888 -107.131,-31.094C-107.657,-30.479 -108.15,-29.916 -108.996,-29.668C-120.573,-26.274 -130.194,-19.322 -139.799,-12.433C-149.603,-5.402 -159.032,2.129 -168.117,10.079C-169.594,11.371 -171.157,12.434 -173.08,13.069C-199.691,21.851 -226.796,28.883 -253.908,35.886C-254.673,36.084 -255.528,36.348 -256.261,36.195C-268.768,33.57 -280.187,28.878 -288.73,18.83C-289.101,18.394 -289.493,17.961 -289.311,17.311C-285.33,17.079 -281.341,17.403 -277.36,16.717C-268.842,15.248 -260.94,11.928 -252.903,8.97C-243.692,5.581 -234.417,2.365 -225.17,-0.927C-219.117,-2.562 -212.927,-3.657 -207.396,-6.977C-190.678,-17.01 -173.773,-26.718 -156.497,-35.773C-146.646,-40.935 -136.54,-45.543 -126.417,-50.126C-123.184,-53.383 -119.992,-56.682 -116.711,-59.889C-100.236,-75.989 -82.621,-90.361 -59.982,-97.053C-59.195,-97.285 -58.425,-97.461 -58.31,-98.458C-56.391,-99.068 -54.433,-98.611 -52.5,-98.616C-34.132,-98.672 -15.764,-98.667 2.604,-98.679C1.868,-96.807 3.433,-95.985 4.402,-95C9.872,-89.444 10.807,-82.257 9.085,-75.551C7.845,-70.716 4.406,-66.032 0,-62.72" style="fill:rgb(128,128,128);fill-rule:nonzero;"/>
        </g>
        <g transform="matrix(1,0,0,1,1015.19,505.773)">
            <path d="M0,-0.782C2.223,-1.197 4.421,-0.998 6.104,-0.608C4.407,-0.32 2.236,0.048 0.065,0.415C0.043,0.016 0.021,-0.383 0,-0.782" style="fill:rgb(64,64,64);fill-rule:nonzero;"/>
        </g>
        <g transform="matrix(1,0,0,1,1046.17,504.958)">
            <path d="M0,97.639C0.646,95.668 2.378,94.59 3.735,93.243C19.517,77.575 34.524,61.239 47.971,43.481C54.24,35.201 58.901,26.058 63.578,16.889C66.313,11.527 69.882,6.846 74.493,2.954C75.423,2.17 76.618,1.49 76.622,0C90.914,0.007 105.206,0.013 119.498,0.02C120.649,8.94 117.209,16.52 111.327,22.58C104.166,29.958 101.328,39.042 98.753,48.44C88.63,53.023 78.524,57.631 68.673,62.793C51.396,71.848 34.492,81.556 17.774,91.589C12.243,94.91 6.053,96.004 0,97.639" style="fill:rgb(64,64,64);fill-rule:nonzero;"/>
        </g>
    </g>
</svg>
