<?xml version="1.0" encoding="UTF-8" standalone="no"?>
<!DOCTYPE svg PUBLIC "-//W3C//DTD SVG 1.1//EN" "http://www.w3.org/Graphics/SVG/1.1/DTD/svg11.dtd">
<svg width="100%" height="100%" viewBox="0 0 3670 4500" version="1.1" xmlns="http://www.w3.org/2000/svg" xmlns:xlink="http://www.w3.org/1999/xlink" xml:space="preserve" style="fill-rule:evenodd;clip-rule:evenodd;">
    <g id="KSZKReszort" transform="matrix(4.16667,0,0,4.16667,-2244,0)">
        <rect x="835" y="0" width="288" height="1080" style="fill:rgb(56,85,162);"/>
        <g transform="matrix(1,0,0,1,1159,1080)">
            <path d="M0,-1044L0,0L198,0L198,-180L90,-252L90,-1044L0,-1044Z" style="fill:rgb(56,85,162);fill-rule:nonzero;"/>
        </g>
        <g transform="matrix(1,0,0,1,709,1080)">
            <path d="M0,-1044L0,-252L-108,-180L-108,0L90,0L90,-1044L0,-1044Z" style="fill:rgb(56,85,162);fill-rule:nonzero;"/>
        </g>
        <g transform="matrix(1,0,0,1,889.645,491.36)">
            <path d="M0,139.206C1.631,139.301 2.71,145.115 5.102,157.562C6.603,165.371 7.599,174.557 7.319,177.975L6.812,184.19L-2.068,177.144C-6.951,173.269 -11.548,170.098 -12.285,170.098C-14.571,170.098 -13.84,167.604 -6.886,151.685C-3.308,143.491 -1.439,139.122 0,139.206M219.417,6.094C192.567,5.888 127.282,17.855 114.895,26.372C99.236,37.138 102.281,60.024 119.841,63.548C123.932,64.368 133.866,63.481 148.062,61.029C160.111,58.948 170.249,57.545 170.591,57.907C170.934,58.27 155.557,73.805 136.422,92.429C67.437,159.572 54.412,177.793 59.911,199.469C62.266,208.753 68.861,216.454 77.108,219.549L77.108,219.547C85.622,222.743 94.819,222.737 117.907,219.525C156.536,214.15 180.3,206.73 190.011,197.01C194.816,192.198 195.636,190.23 195.636,183.494C195.636,176.871 194.855,174.912 190.749,171.244C183.802,165.04 170.289,162.498 150.868,163.741L134.712,164.773L145.146,155.016C150.887,149.648 169.257,130.737 185.97,112.993C219.214,77.695 244.058,46.112 245.646,37.128C247.773,25.086 239.138,10.069 228.303,6.973C226.302,6.401 223.252,6.123 219.417,6.094M-78.719,-126.283C-83.589,-126.349 -88.556,-125.504 -92.705,-123.525L-99.035,-120.506L-114.486,-70.211C-130.728,-17.342 -170.514,120.348 -181.912,163.135C-192.297,202.12 -193.366,215.094 -186.726,221.472C-175.279,232.467 -157.396,212.881 -141.754,172.218L-135.721,156.529L-129.672,166.349C-118.397,184.656 -101.121,200.354 -84.894,207.036C-73.175,211.86 -56.184,211.751 -45.628,206.783L-37.58,202.995L-33.368,207.115C-22.495,217.747 -7.457,226.361 5.023,229.107C14.648,231.225 25.363,229.478 33.504,224.469C54.151,211.762 59.111,176.725 46.02,136.058C38.249,111.92 35.487,97.627 35.448,81.435C35.415,65.757 37.932,57.3 50.889,29.54C59.268,11.588 60.13,8.723 59.467,1.009C58.267,-12.95 48.644,-19.018 27.681,-19.039C18.852,-19.047 16.824,-18.409 12.513,-14.275C8.062,-10.007 6.598,-5.659 -1.356,26.937C-13.983,78.685 -36.36,140.125 -46.121,149.848C-48.479,152.196 -54.761,157.323 -60.08,161.24C-72.855,170.647 -79.379,170.872 -87.561,162.187C-97.231,151.923 -106.812,128.786 -106.812,115.697C-106.812,114.504 -96.202,103.575 -83.235,91.411C-45.009,55.553 -31.824,39.251 -33.911,30.428C-35.101,25.396 -39.854,24.11 -49.836,26.12C-63.237,28.817 -71.927,34.561 -101.028,59.964C-111.402,69.019 -119.887,75.836 -119.885,75.109C-119.875,71.743 -110.899,38.444 -104.093,16.526C-93.321,-18.165 -83.829,-44.982 -69.917,-80.026C-63.234,-96.862 -57.766,-112.603 -57.766,-115.009C-57.766,-121.586 -68.005,-126.139 -78.719,-126.283M89.409,-383.704C-82.771,-383.736 -242.503,-280.207 -310.089,-115.956C-388.556,74.739 -321.265,294.827 -149.585,408.903C22.039,522.942 250.018,499.657 395.09,353.279L351.241,309.821C226.56,435.626 32.076,455.484 -115.414,357.482C-262.849,259.517 -320.398,71.343 -252.996,-92.462C-185.593,-256.268 -12.373,-349.274 161.216,-314.894C334.803,-280.514 459.6,-128.471 459.6,48.69C459.6,102.691 441.784,129.174 416.498,146.993C391.431,164.658 355.463,172.099 321.651,172.227C317.544,166.772 305.477,145.671 302.291,133.885C300.794,128.346 303.146,122.864 303.609,121.584C304.072,120.304 316.975,107.44 332.281,92.998C362.797,64.205 378.74,42.425 378.74,34.289C378.74,30.308 377.653,28.881 373.071,26.849C366.681,24.015 356.314,23.565 350.646,25.878C348.564,26.727 332.536,39.178 315.028,53.548C297.521,67.918 282.997,79.462 282.751,79.201C281.709,78.095 294.346,27.311 301.296,4.676C305.448,-8.849 316.112,-39.145 324.993,-62.648C333.873,-86.151 341.139,-106.629 341.139,-108.158C341.139,-115.912 316.863,-121.014 305.002,-115.753C299.326,-113.236 298.817,-112.239 290.551,-87.354C277.009,-46.586 213.535,155.733 204.029,188.43C195.492,217.79 195.441,218.098 198.028,224.959C204.102,241.068 221.944,242.127 233.125,227.04C237.978,220.491 248.693,196.213 254.975,177.531L263.136,160.656L271.252,185.227C285.395,221.311 297.979,231.536 318.5,233.926C319.679,234.063 321.144,234.039 322.701,233.959C364.62,233.717 412.226,225.537 452.067,197.46C492.521,168.952 521.336,118.227 521.336,48.69C521.336,-157.541 375.361,-335.412 173.206,-375.451C147.937,-380.456 122.66,-383.139 97.618,-383.622C94.879,-383.675 92.142,-383.703 89.409,-383.704" style="fill:rgb(53,164,221);fill-rule:nonzero;"/>
        </g>
        <g transform="matrix(1,0,0,1,889.648,491.456)">
            <path d="M0,139.203C1.631,139.298 2.71,145.11 5.102,157.557C6.603,165.365 7.599,174.551 7.319,177.97L6.812,184.185L-2.067,177.139C-6.95,173.264 -11.548,170.093 -12.285,170.093C-14.57,170.093 -13.84,167.601 -6.886,151.682C-3.307,143.488 -1.438,139.119 0,139.203M219.417,6.088C192.568,5.883 127.283,17.85 114.895,26.367C99.237,37.132 102.282,60.018 119.841,63.543C123.932,64.363 133.867,63.478 148.063,61.026C160.112,58.945 170.25,57.539 170.591,57.902C170.933,58.265 155.556,73.8 136.421,92.424C67.437,159.567 54.412,177.79 59.911,199.465C62.266,208.75 68.861,216.449 77.109,219.544L77.109,219.542C85.623,222.738 94.82,222.734 117.908,219.521C156.537,214.147 180.3,206.725 190.011,197.004C194.817,192.193 195.636,190.224 195.636,183.489C195.636,176.866 194.856,174.909 190.75,171.241C183.802,165.037 170.29,162.493 150.869,163.735L134.712,164.768L145.147,155.011C150.887,149.643 169.257,130.734 185.97,112.99C219.214,77.692 244.058,46.107 245.646,37.122C247.774,25.081 239.137,10.064 228.302,6.967C226.302,6.395 223.252,6.118 219.417,6.088M-78.719,-126.288C-83.589,-126.354 -88.555,-125.509 -92.705,-123.53L-99.035,-120.511L-114.486,-70.216C-130.728,-17.347 -170.514,120.345 -181.912,163.132C-192.296,202.117 -193.368,215.088 -186.728,221.467C-175.281,232.462 -157.396,212.876 -141.754,172.213L-135.721,156.524L-129.671,166.344C-118.397,184.651 -101.121,200.349 -84.894,207.03C-73.175,211.855 -56.184,211.745 -45.628,206.777L-37.58,202.989L-33.368,207.109C-22.495,217.741 -7.456,226.356 5.023,229.101C14.648,231.22 25.363,229.475 33.504,224.466C54.151,211.759 59.111,176.72 46.02,136.053C38.25,111.915 35.487,97.622 35.449,81.431C35.415,65.752 37.932,57.294 50.889,29.536C59.269,11.582 60.13,8.72 59.467,1.006C58.267,-12.953 48.644,-19.021 27.681,-19.042C18.852,-19.05 16.825,-18.414 12.514,-14.28C8.062,-10.012 6.598,-5.665 -1.355,26.932C-13.983,78.68 -36.36,140.12 -46.121,149.843C-48.479,152.191 -54.76,157.318 -60.08,161.235C-72.854,170.641 -79.378,170.867 -87.561,162.182C-97.231,151.918 -106.811,128.781 -106.811,115.692C-106.811,114.499 -96.202,103.57 -83.234,91.406C-45.009,55.548 -31.824,39.246 -33.91,30.423C-35.1,25.391 -39.854,24.105 -49.836,26.114C-63.237,28.812 -71.927,34.556 -101.028,59.959C-111.402,69.014 -119.886,75.83 -119.885,75.104C-119.874,71.738 -110.899,38.439 -104.093,16.521C-93.321,-18.17 -83.828,-44.985 -69.917,-80.029C-63.233,-96.865 -57.766,-112.608 -57.766,-115.014C-57.766,-121.592 -68.005,-126.144 -78.719,-126.288M89.407,-383.7C-82.773,-383.733 -242.505,-280.214 -310.091,-115.963C-388.558,74.731 -321.26,294.822 -149.581,408.897C22.044,522.936 250.023,499.652 395.095,353.273L351.24,309.814C226.558,435.618 32.074,455.477 -115.416,357.474C-262.851,259.509 -320.399,71.335 -252.998,-92.47C-185.595,-256.275 -12.374,-349.273 161.213,-314.893C334.801,-280.512 459.598,-128.476 459.598,48.684C459.598,102.685 441.783,129.167 416.497,146.986C391.429,164.65 355.462,172.091 321.651,172.22C317.543,166.764 305.477,145.667 302.292,133.882C300.794,128.343 303.147,122.859 303.61,121.579C304.073,120.299 316.975,107.435 332.282,92.992C362.797,64.2 378.741,42.419 378.741,34.284C378.741,30.302 377.654,28.876 373.072,26.844C366.681,24.01 356.315,23.56 350.646,25.872C348.565,26.722 332.537,39.175 315.029,53.545C297.521,67.915 282.998,79.457 282.75,79.196C281.709,78.09 294.346,27.307 301.295,4.671C305.449,-8.854 316.113,-39.151 324.994,-62.653C333.874,-86.156 341.139,-106.635 341.139,-108.163C341.139,-115.917 316.864,-121.019 305.002,-115.759C299.327,-113.242 298.818,-112.245 290.551,-87.359C277.009,-46.591 213.536,155.727 204.03,188.424C195.493,217.785 195.442,218.092 198.029,224.953C204.102,241.063 221.945,242.122 233.125,227.034C237.978,220.486 248.694,196.207 254.975,177.525L263.136,160.65L271.252,185.223C285.395,221.307 297.98,231.531 318.5,233.921C319.679,234.057 321.144,234.034 322.702,233.953C364.621,233.712 412.224,225.529 452.066,197.452C492.519,168.945 521.334,118.221 521.334,48.684C521.334,-157.546 375.36,-335.42 173.204,-375.458C147.935,-380.463 122.658,-383.138 97.616,-383.621C94.877,-383.674 92.14,-383.699 89.407,-383.7" style="fill:rgb(86,169,222);fill-rule:nonzero;"/>
        </g>
        <g transform="matrix(1,0,0,1,889.648,491.456)">
            <path d="M0,139.203C1.631,139.298 2.71,145.11 5.102,157.557C6.603,165.365 7.599,174.551 7.319,177.97L6.812,184.185L-2.067,177.139C-6.95,173.264 -11.548,170.093 -12.285,170.093C-14.57,170.093 -13.84,167.601 -6.886,151.682C-3.307,143.488 -1.438,139.119 0,139.203ZM219.417,6.088C192.568,5.883 127.283,17.85 114.895,26.367C99.237,37.132 102.282,60.018 119.841,63.543C123.932,64.363 133.867,63.478 148.063,61.026C160.112,58.945 170.25,57.539 170.591,57.902C170.933,58.265 155.556,73.8 136.421,92.424C67.437,159.567 54.412,177.79 59.911,199.465C62.266,208.75 68.861,216.449 77.109,219.544L77.109,219.542C85.623,222.738 94.82,222.734 117.908,219.521C156.537,214.147 180.3,206.725 190.011,197.004C194.817,192.193 195.636,190.224 195.636,183.489C195.636,176.866 194.856,174.909 190.75,171.241C183.802,165.037 170.29,162.493 150.869,163.735L134.712,164.768L145.147,155.011C150.887,149.643 169.257,130.734 185.97,112.99C219.214,77.692 244.058,46.107 245.646,37.122C247.774,25.081 239.137,10.064 228.302,6.967C226.302,6.395 223.252,6.118 219.417,6.088ZM-78.719,-126.288C-83.589,-126.354 -88.555,-125.509 -92.705,-123.53L-99.035,-120.511L-114.486,-70.216C-130.728,-17.347 -170.514,120.345 -181.912,163.132C-192.296,202.117 -193.368,215.088 -186.728,221.467C-175.281,232.462 -157.396,212.876 -141.754,172.213L-135.721,156.524L-129.671,166.344C-118.397,184.651 -101.121,200.349 -84.894,207.03C-73.175,211.855 -56.184,211.745 -45.628,206.777L-37.58,202.989L-33.368,207.109C-22.495,217.741 -7.456,226.356 5.023,229.101C14.648,231.22 25.363,229.475 33.504,224.466C54.151,211.759 59.111,176.72 46.02,136.053C38.25,111.915 35.487,97.622 35.449,81.431C35.415,65.752 37.932,57.294 50.889,29.536C59.269,11.582 60.13,8.72 59.467,1.006C58.267,-12.953 48.644,-19.021 27.681,-19.042C18.852,-19.05 16.825,-18.414 12.514,-14.28C8.062,-10.012 6.598,-5.665 -1.355,26.932C-13.983,78.68 -36.36,140.12 -46.121,149.843C-48.479,152.191 -54.76,157.318 -60.08,161.235C-72.854,170.641 -79.378,170.867 -87.561,162.182C-97.231,151.918 -106.811,128.781 -106.811,115.692C-106.811,114.499 -96.202,103.57 -83.234,91.406C-45.009,55.548 -31.824,39.246 -33.91,30.423C-35.1,25.391 -39.854,24.105 -49.836,26.114C-63.237,28.812 -71.927,34.556 -101.028,59.959C-111.402,69.014 -119.886,75.83 -119.885,75.104C-119.874,71.738 -110.899,38.439 -104.093,16.521C-93.321,-18.17 -83.828,-44.985 -69.917,-80.029C-63.233,-96.865 -57.766,-112.608 -57.766,-115.014C-57.766,-121.592 -68.005,-126.144 -78.719,-126.288ZM89.407,-383.7C-82.773,-383.733 -242.505,-280.214 -310.091,-115.963C-388.558,74.731 -321.26,294.822 -149.581,408.897C22.044,522.936 250.023,499.652 395.095,353.273L351.24,309.814C226.558,435.618 32.074,455.477 -115.416,357.474C-262.851,259.509 -320.399,71.335 -252.998,-92.47C-185.595,-256.275 -12.374,-349.273 161.213,-314.893C334.801,-280.512 459.598,-128.476 459.598,48.684C459.598,102.685 441.783,129.167 416.497,146.986C391.429,164.65 355.462,172.091 321.651,172.22C317.543,166.764 305.477,145.667 302.292,133.882C300.794,128.343 303.147,122.859 303.61,121.579C304.073,120.299 316.975,107.435 332.282,92.992C362.797,64.2 378.741,42.419 378.741,34.284C378.741,30.302 377.654,28.876 373.072,26.844C366.681,24.01 356.315,23.56 350.646,25.872C348.565,26.722 332.537,39.175 315.029,53.545C297.521,67.915 282.998,79.457 282.75,79.196C281.709,78.09 294.346,27.307 301.295,4.671C305.449,-8.854 316.113,-39.151 324.994,-62.653C333.874,-86.156 341.139,-106.635 341.139,-108.163C341.139,-115.917 316.864,-121.019 305.002,-115.759C299.327,-113.242 298.818,-112.245 290.551,-87.359C277.009,-46.591 213.536,155.727 204.03,188.424C195.493,217.785 195.442,218.092 198.029,224.953C204.102,241.063 221.945,242.122 233.125,227.034C237.978,220.486 248.694,196.207 254.975,177.525L263.136,160.65L271.252,185.223C285.395,221.307 297.98,231.531 318.5,233.921C319.679,234.057 321.144,234.034 322.702,233.953C364.621,233.712 412.224,225.529 452.066,197.452C492.519,168.945 521.334,118.221 521.334,48.684C521.334,-157.546 375.36,-335.42 173.204,-375.458C147.935,-380.463 122.658,-383.138 97.616,-383.621C94.877,-383.674 92.14,-383.699 89.407,-383.7Z" style="fill:none;fill-rule:nonzero;stroke:white;stroke-width:4.1px;"/>
        </g>
    </g>
</svg>
