<?xml version="1.0" encoding="utf-8"?>
<!-- Generator: Adobe Illustrator 23.0.4, SVG Export Plug-In . SVG Version: 6.00 Build 0)  -->
<svg version="1.1" id="Réteg_1" xmlns:serif="http://www.serif.com/"
	 xmlns="http://www.w3.org/2000/svg" xmlns:xlink="http://www.w3.org/1999/xlink" x="0px" y="0px" viewBox="0 0 229.9 229.7"
	 style="enable-background:new 0 0 229.9 229.7;" xml:space="preserve">
<style type="text/css">
	.st0{fill:#62BC47;}
</style>
<g id="Simonyi" transform="matrix(4.16667,0,0,4.16667,-235,-163)">
	<g transform="matrix(1,0,0,1,132.22,190.536)">
		<path class="st0" d="M-48.2-151.4c-15.2,0-27.6,12.4-27.6,27.6c0,15.2,12.4,27.6,27.6,27.6c15.2,0,27.6-12.4,27.6-27.6
			C-20.6-139.1-33-151.4-48.2-151.4 M-48.2-148.5c13.6,0,24.6,11,24.6,24.6c0,13.6-11,24.6-24.6,24.6c-13.6,0-24.6-11-24.6-24.6
			C-72.8-137.4-61.8-148.5-48.2-148.5"/>
	</g>
	<g transform="matrix(1,0,0,1,110.314,109.764)">
		<path class="st0" d="M-34.3-57.1c3.3,0,6.1,2.7,6.1,6.1s-2.7,6.1-6.1,6.1s-6.1-2.7-6.1-6.1S-37.6-57.1-34.3-57.1 M-34.3-54.1
			c-1.7,0-3.1,1.4-3.1,3.1s1.4,3.1,3.1,3.1s3.1-1.4,3.1-3.1S-32.6-54.1-34.3-54.1 M-2.4-49.6h-27.3c-0.8,0-1.4-0.6-1.4-1.4
			c0-0.8,0.6-1.4,1.4-1.4h27.3c0.8,0,1.4,0.6,1.4,1.4C-0.9-50.2-1.6-49.6-2.4-49.6"/>
	</g>
	<g transform="matrix(1,0,0,1,139.385,135.17)">
		<path class="st0" d="M-52.7-58.6h-25.7c-0.7,0-1.3-0.6-1.3-1.3c0-0.7,0.6-1.3,1.3-1.3h25.7c0.7,0,1.3,0.6,1.3,1.3
			C-51.5-59.2-52.1-58.6-52.7-58.6"/>
	</g>
	<g transform="matrix(1,0,0,1,152.015,154.925)">
		<path class="st0" d="M-60.8-85.8c-3.3,0-6.1,2.7-6.1,6.1c0,3.3,2.7,6.1,6.1,6.1c3.3,0,6.1-2.7,6.1-6.1
			C-54.7-83.1-57.4-85.8-60.8-85.8 M-60.8-82.8c1.7,0,3.1,1.4,3.1,3.1c0,1.7-1.4,3.1-3.1,3.1c-1.7,0-3.1-1.4-3.1-3.1
			C-63.9-81.4-62.5-82.8-60.8-82.8"/>
	</g>
</g>
</svg>
