<?xml version="1.0" encoding="UTF-8" standalone="no"?>
<!DOCTYPE svg PUBLIC "-//W3C//DTD SVG 1.1//EN" "http://www.w3.org/Graphics/SVG/1.1/DTD/svg11.dtd">
<svg width="100%" height="100%" viewBox="0 0 1024 1024" version="1.1" xmlns="http://www.w3.org/2000/svg" xmlns:xlink="http://www.w3.org/1999/xlink" xml:space="preserve" xmlns:serif="http://www.serif.com/" style="fill-rule:evenodd;clip-rule:evenodd;stroke-linejoin:round;stroke-miterlimit:2;">
    <g id="HallgatóiTudásbázis">
        <g transform="matrix(1,0,0,1,511.402,-3.1529)">
            <path d="M0,1027.19C-40.37,1027.19 -80.544,1022.39 -119.981,1012.83C-177.874,998.796 -232.564,974.862 -282.533,941.691C-332.501,908.521 -375.813,867.349 -411.266,819.32C-445.759,772.59 -471.888,720.668 -488.93,664.994C-505.971,609.32 -513.38,551.667 -510.952,493.636C-508.456,433.992 -495.61,375.631 -472.769,320.174C-449.928,264.717 -417.946,214.237 -377.713,170.137C-338.567,127.229 -292.705,91.517 -241.396,63.994C-190.089,36.47 -134.971,18.011 -77.574,9.128C-18.58,0 41.164,1.272 100.001,12.916C158.836,24.557 214.564,46.132 265.636,77.04C315.326,107.112 359.26,145.17 396.219,190.16C433.179,235.149 461.986,285.636 481.84,340.218C502.247,396.318 512.594,455.173 512.594,515.149C512.594,566.7 500.385,619.696 478.216,664.374C454.337,712.496 420.339,747.633 382.483,763.313C352.834,775.596 293.694,786.799 230.75,723.854L175.897,669.001L227.613,617.285L282.466,672.138C320.256,709.925 346.026,699.25 354.493,695.742C401.342,676.337 439.456,595.324 439.456,515.149C439.456,306.256 290.724,125.21 85.804,84.663C-119.119,44.115 -325.588,154.876 -405.142,348.027C-484.694,541.18 -416.118,765.225 -242.082,880.756C-68.398,996.056 164.223,972.322 311.04,824.322L362.963,875.832C320.723,918.412 271.996,952.899 218.128,978.335C165.692,1003.1 109.808,1018.64 52.029,1024.54C34.681,1026.31 17.321,1027.19 0,1027.19" style="fill:rgb(48,81,191);fill-rule:nonzero;"/>
        </g>
        <g transform="matrix(24.8527,-59.7583,59.7583,24.8527,209.313,482.959)">
            <path d="M0.634,-0.37C0.352,-0.416 0.09,-0.199 -0.134,-0.004C0.089,0.179 0.335,0.332 0.634,0.285C0.841,0.252 1.057,0.168 1.35,-0.098C0.993,-0.232 0.822,-0.34 0.634,-0.37Z" style="fill:url(#_Linear1);fill-rule:nonzero;"/>
        </g>
        <g transform="matrix(1,0,0,1,793.261,698.993)">
            <path d="M0,-221.153L-41.241,-184.985C-27.672,-168.021 -22.607,-143.132 -27.991,-123.233C-31.571,-109.284 -40.009,-96.217 -50.811,-87.484C-61.551,-78.684 -75.627,-73.32 -88.988,-72.707L-81.047,0C-52.087,-4.19 -25.549,-17.412 -5.052,-37.393C15.386,-57.44 28.704,-83.253 33.325,-110.86C39.874,-151.389 27.079,-192.181 0,-221.153" style="fill:rgb(48,81,191);fill-rule:nonzero;"/>
        </g>
        <g transform="matrix(1,0,0,1,492.348,722.326)">
            <path d="M0,-80.533L-33.133,-36.816C4.903,-6.444 52.574,11.467 102.045,13.418C159.242,15.543 216.628,-3.793 261.476,-41.139L213.193,-96.076C184.644,-68.47 143.927,-51.113 102.861,-49.918C67.214,-48.775 30.131,-59.608 0,-80.533" style="fill:rgb(48,81,191);fill-rule:nonzero;"/>
        </g>
        <g transform="matrix(1,0,0,1,229.078,653.968)">
            <path d="M0,-113.634L-18.165,-111.545C-15.578,-76.61 4.14,-43.075 34.997,-23.549C66.255,-3.983 106.769,0 142.411,-14.281L127.392,-47.624C104.348,-35.393 73.319,-34.822 48.631,-47.295C24.093,-59.494 4.787,-85.087 0,-113.634" style="fill:rgb(48,81,191);fill-rule:nonzero;"/>
        </g>
        <g transform="matrix(1,0,0,1,578.437,519.329)">
            <path d="M0,-256.196L6.085,-220.136C44.953,-225.68 85.98,-216.211 117.951,-194.812C149.976,-173.5 173.836,-139.713 183.217,-103.222C191.275,-72.202 189.305,-38.449 178.013,-9.058L229.771,9.109C243.148,-31.91 243.343,-76.293 230.686,-116.918C215.669,-164.807 183.161,-205.819 140.835,-231.202C98.455,-256.5 47.66,-265.305 0,-256.196" style="fill:rgb(48,81,191);fill-rule:nonzero;"/>
        </g>
        <g transform="matrix(1,0,0,1,353.329,701.946)">
            <path d="M0,-93.642L-28.211,-70.372C-5.129,-39.784 28.558,-17.123 66.841,-7.369C95.924,0 126.98,-0.179 156.581,-8.238L139.938,-60.506C120.295,-52.821 98.001,-50.193 76.43,-53.33C48.156,-57.379 20.27,-71.801 0,-93.642" style="fill:rgb(48,81,191);fill-rule:nonzero;"/>
        </g>
        <g transform="matrix(1,0,0,1,512.35,272.329)">
            <path d="M0,51.591L15.319,59.779C19.312,54.027 23.987,48.86 29.146,44.431C41.952,33.425 58.058,26.955 73.614,25.842L66.623,-8.188C44.576,-1.477 25.709,12.007 12.676,29.333C7.47,36.268 3.22,43.769 0,51.591" style="fill:rgb(48,81,191);fill-rule:nonzero;"/>
        </g>
        <g transform="matrix(1,0,0,1,698.138,530.822)">
            <path d="M0,-73.403L-14.358,-62.082C-4.047,-46.316 9.382,-32.266 25.242,-20.986C37.712,-12.121 51.621,-5 66.486,0L75.206,-35.515C63.177,-37.053 51.144,-40.421 39.718,-45.56C25.194,-52.086 11.573,-61.542 0,-73.403" style="fill:rgb(48,81,191);fill-rule:nonzero;"/>
        </g>
        <g transform="matrix(1,0,0,1,575.973,647.767)">
            <path d="M0,-33.323L-0.091,-51.607C-21.737,-53.134 -44.184,-47.793 -63.552,-35.854C-79.178,-26.199 -92.504,-12.472 -101.87,4.115L-68.84,19.811C-64.632,7.683 -57.036,-3.822 -46.926,-12.836C-34.462,-23.988 -17.728,-31.521 0,-33.323" style="fill:rgb(48,81,191);fill-rule:nonzero;"/>
        </g>
        <g transform="matrix(1,0,0,1,341.648,247.38)">
            <path d="M0,47.79L10.898,60.12C45.97,31.003 91.351,14.978 135.897,15.306C174.94,15.555 213.672,28.204 244.814,50.426L263.032,23.015C224.689,-0.871 179.54,-12.33 135.259,-9.915C84.683,-7.115 36.142,13.869 0,47.79" style="fill:rgb(48,81,191);fill-rule:nonzero;"/>
        </g>
        <g transform="matrix(1,0,0,1,388.936,616.134)">
            <path d="M0,-51.242L-14.52,-62.356C-21.805,-54.805 -28.265,-46.277 -33.673,-36.955C-41.724,-23.069 -47.398,-7.496 -50.154,8.962L-13.648,11.114C-14.794,-1.186 -13.692,-14.092 -10.21,-26.634C-7.871,-35.064 -4.452,-43.365 0,-51.242" style="fill:rgb(48,81,191);fill-rule:nonzero;"/>
        </g>
        <g transform="matrix(15.9759,-90.0978,90.0978,15.9759,281.732,409.804)">
            <path d="M0.48,-0.201C0.333,-0.178 0.18,-0.119 -0.027,0.069C0.225,0.164 0.346,0.24 0.48,0.262C0.678,0.294 0.864,0.141 1.022,0.003C0.865,-0.126 0.691,-0.235 0.48,-0.201Z" style="fill:url(#_Linear2);fill-rule:nonzero;"/>
        </g>
        <g transform="matrix(1,0,0,1,288.609,288.177)">
            <path d="M0,95.934C-0.1,86.301 0.771,76.716 2.573,67.371C4.809,55.904 8.506,44.669 15.038,35.819C15.313,35.446 15.593,35.077 15.878,34.713C21.816,27.033 29.943,21.222 38.753,18.126C47.559,15.021 57.184,14.569 65.902,16.668L67.179,9.003L68.455,1.337C56.529,0 44.53,2.17 34.111,7.335C23.696,12.51 15.049,20.595 9.286,30.267C9.015,30.728 8.75,31.191 8.492,31.656C2.372,42.699 -0.074,54.965 -0.885,66.921C-1.564,76.647 -1.26,86.383 0,95.934" style="fill:rgb(48,81,191);fill-rule:nonzero;"/>
        </g>
        <g transform="matrix(82.5046,27.462,-27.462,82.5046,394.547,312.808)">
            <path d="M0.076,0.238C0.256,0.279 0.442,0.295 0.6,0.182C0.709,0.103 0.818,-0.085 0.909,-0.322C0.656,-0.235 0.528,-0.23 0.411,-0.194C0.409,-0.193 0.407,-0.193 0.406,-0.192C0.235,-0.135 0.148,0.063 0.076,0.238Z" style="fill:url(#_Linear3);fill-rule:nonzero;"/>
        </g>
        <g transform="matrix(1,0,0,1,436.607,306.701)">
            <path d="M0,19.578C-7.228,24.294 -15.654,26.843 -23.942,27.004C-31.437,27.152 -38.844,25.352 -45.237,21.987C-45.913,21.631 -46.578,21.258 -47.23,20.868C-54.371,16.657 -60.115,10.316 -65.452,3.512C-69.36,-1.542 -72.921,-6.827 -76.111,-12.294L-81.766,-8.417L-87.421,-4.539C-83.137,0.895 -78.518,6.026 -73.608,10.817C-66.984,17.368 -59.344,23.505 -50.449,27.309C-49.628,27.655 -48.8,27.977 -47.965,28.277C-40.074,31.109 -31.622,31.872 -23.611,30.589C-14.753,29.167 -6.504,25.251 0,19.578" style="fill:rgb(48,81,191);fill-rule:nonzero;"/>
        </g>
        <g transform="matrix(-57.8878,-40.7052,40.7052,-57.8878,344.051,490.923)">
            <path d="M0.548,-0.238C0.318,-0.274 0.128,-0.156 -0.044,-0.015C0.129,0.136 0.331,0.303 0.548,0.268C0.694,0.244 0.826,0.161 1.101,0.058C0.875,-0.147 0.708,-0.212 0.548,-0.238Z" style="fill:url(#_Linear4);fill-rule:nonzero;"/>
        </g>
        <g transform="matrix(1,0,0,1,311.198,572.638)">
            <path d="M0,-107.864C17.15,-94.837 30.922,-77.984 40.177,-59.32C41.716,-56.215 43.13,-53.061 44.415,-49.865C50.858,-33.845 54.091,-16.777 54.04,0L63.158,-0.666L72.276,-1.331C69.618,-20.28 63.318,-38.421 53.989,-54.561C52.126,-57.782 50.143,-60.921 48.048,-63.969C35.454,-82.297 18.817,-97.387 0,-107.864Z" style="fill:rgb(48,81,191);fill-rule:nonzero;"/>
        </g>
        <g transform="matrix(1,0,0,1,226.958,550.936)">
            <path d="M0,-118.242C-11.958,-102.242 -19.917,-82.784 -22.576,-62.194C-22.84,-60.149 -23.052,-58.092 -23.211,-56.027C-24.641,-37.307 -21.694,-17.982 -14.375,0L-6.172,-4.038L2.03,-8.075C-6.497,-22.28 -11.844,-38.838 -13.16,-55.995C-13.306,-57.887 -13.402,-59.786 -13.449,-61.692C-13.92,-80.872 -9.385,-100.609 0,-118.242" style="fill:rgb(48,81,191);fill-rule:nonzero;"/>
        </g>
        <g transform="matrix(42.569,22.4115,-22.4115,42.569,454.269,398.301)">
            <path d="M0.211,0.168C0.324,0.323 0.498,0.428 0.78,0.688C0.886,0.305 0.864,0.072 0.8,-0.129L0.8,-0.129C0.707,-0.419 0.458,-0.571 0.193,-0.688C0.119,-0.398 0.042,-0.064 0.211,0.168Z" style="fill:url(#_Linear5);fill-rule:nonzero;"/>
        </g>
        <g transform="matrix(1,0,0,1,475.115,305.613)">
            <path d="M0,113.337C-1.155,100.229 0.318,87.036 4.201,74.759C6.543,67.366 9.748,60.302 13.925,54C14.045,53.818 14.166,53.637 14.288,53.458C18.277,47.523 23.216,42.185 28.372,36.863C37.573,27.403 47.232,18.438 57.294,10.011L52.607,5.006L47.922,0C38.511,9.802 29.625,20.057 21.306,30.709C16.623,36.681 12.004,42.977 8.333,49.913C8.221,50.124 8.111,50.336 8.002,50.547C4.211,57.917 1.643,65.758 0.056,73.697C-2.585,86.878 -2.567,100.431 0,113.337Z" style="fill:rgb(48,81,191);fill-rule:nonzero;"/>
        </g>
        <g transform="matrix(-23.4744,-70.1025,70.1025,-23.4744,554.207,491.324)">
            <path d="M0.535,-0.353C0.317,-0.319 0.089,-0.23 -0.218,0.049C0.157,0.19 0.337,0.304 0.535,0.336C0.831,0.384 1.107,0.156 1.342,-0.049C1.109,-0.242 0.849,-0.403 0.535,-0.353Z" style="fill:url(#_Linear6);fill-rule:nonzero;"/>
        </g>
        <g transform="matrix(1,0,0,1,545.296,320.15)">
            <path d="M0,143.971C-8.805,125.083 -14.821,105.101 -17.904,84.864C-18.455,81.251 -18.912,77.631 -19.274,74.007C-21.674,50.079 -20.013,25.988 -14.518,3.109L-23.526,1.554L-32.536,0C-35.376,25.431 -33.867,51.051 -28.295,75.493C-27.451,79.195 -26.514,82.87 -25.484,86.514C-19.718,106.923 -11.076,126.319 0,143.971" style="fill:rgb(48,81,191);fill-rule:nonzero;"/>
        </g>
        <g transform="matrix(-1.17912,-53.3234,53.3234,-1.17912,691.586,428.443)">
            <path d="M0.572,-0.379C0.239,-0.432 -0.036,-0.261 -0.283,-0.057C-0.034,0.161 0.258,0.402 0.572,0.351C0.782,0.317 0.972,0.197 1.37,0.047C1.044,-0.249 0.803,-0.342 0.572,-0.379Z" style="fill:url(#_Linear7);fill-rule:nonzero;"/>
        </g>
        <g transform="matrix(1,0,0,1,686.525,498.767)">
            <path d="M0,-100.134C-3.697,-84.631 -3.741,-67.979 0.124,-51.941C0.517,-50.312 0.95,-48.69 1.423,-47.077C6.555,-29.584 16.354,-13.153 29.961,0L34.965,-5.946L39.97,-11.891C26.784,-21.288 15.79,-34.468 8.705,-49.788C8.052,-51.2 7.433,-52.631 6.847,-54.078C1.078,-68.335 -1.375,-84.255 0,-100.134" style="fill:rgb(48,81,191);fill-rule:nonzero;"/>
        </g>
        <g transform="matrix(-34.599,-59.4845,59.4845,-34.599,616.974,411.068)">
            <path d="M0.513,-0.34C0.214,-0.388 -0.064,-0.158 -0.302,0.05C-0.066,0.245 0.196,0.407 0.513,0.357C0.734,0.322 0.964,0.233 1.275,-0.05C0.896,-0.192 0.714,-0.307 0.513,-0.34Z" style="fill:url(#_Linear8);fill-rule:nonzero;"/>
        </g>
        <g transform="matrix(1,0,0,1,595.028,477.565)">
            <path d="M0,-99.764C7.972,-82.545 18.44,-66.292 31.083,-51.681C33.989,-48.322 37.012,-45.051 40.143,-41.874C56.89,-24.88 76.741,-10.595 98.714,0L105.61,-16.934C84.447,-23.905 64.227,-34.671 46.23,-48.694C42.866,-51.315 39.58,-54.05 36.38,-56.896C22.459,-69.274 10.147,-83.731 0,-99.764Z" style="fill:rgb(48,81,191);fill-rule:nonzero;"/>
        </g>
        <g transform="matrix(98.0011,41.0352,-41.0352,98.0011,409.975,494.605)">
            <path d="M0.354,-0.174C0.189,-0.061 0.161,0.175 0.142,0.382C0.343,0.367 0.542,0.326 0.67,0.158C0.759,0.041 0.828,-0.106 0.848,-0.382C0.763,-0.346 0.69,-0.318 0.627,-0.295C0.569,-0.274 0.519,-0.256 0.475,-0.238C0.43,-0.219 0.39,-0.199 0.354,-0.174Z" style="fill:url(#_Linear9);fill-rule:nonzero;"/>
        </g>
        <g transform="matrix(1,0,0,1,478.531,571.705)">
            <path d="M0,-64.218C-11.436,-58.854 -23.191,-54.334 -35.141,-50.688C-41.809,-48.655 -48.633,-46.858 -55.488,-44.635C-58.757,-43.574 -62.034,-42.418 -65.304,-41.093C-81.173,-34.619 -95.769,-24.387 -107.555,-11.155L-100.311,-5.577L-93.066,0C-85.004,-12.55 -73.814,-23.505 -60.542,-31.506C-57.809,-33.162 -54.955,-34.701 -52.025,-36.18C-45.882,-39.28 -39.404,-42.116 -32.993,-45.226C-21.502,-50.795 -10.471,-57.153 0,-64.218" style="fill:rgb(48,81,191);fill-rule:nonzero;"/>
        </g>
        <g transform="matrix(86.6871,36.616,-36.616,86.6871,648.408,546.345)">
            <path d="M0.354,-0.15C0.211,-0.039 0.199,0.176 0.193,0.365C0.374,0.341 0.551,0.292 0.658,0.133L0.658,0.133C0.733,0.023 0.787,-0.114 0.79,-0.365C0.574,-0.257 0.45,-0.224 0.354,-0.15Z" style="fill:url(#_Linear10);fill-rule:nonzero;"/>
        </g>
        <g transform="matrix(1,0,0,1,703.144,614.386)">
            <path d="M0,-57.557C-15.206,-49.157 -31.012,-42.035 -47.199,-36.257C-52.538,-34.352 -57.92,-32.591 -63.336,-30.973C-70.638,-28.789 -78.001,-26.864 -85.405,-25.18C-100.145,-21.83 -115.037,-19.452 -129.955,-18.047L-128.484,-9.024L-127.014,0C-111.645,-3.534 -96.57,-8.048 -81.91,-13.492C-74.544,-16.226 -67.278,-19.198 -60.138,-22.409C-54.841,-24.789 -49.612,-27.303 -44.462,-29.951C-28.848,-37.978 -13.968,-47.228 -0.001,-57.557L0,-57.557Z" style="fill:rgb(48,81,191);fill-rule:nonzero;"/>
        </g>
        <g transform="matrix(35.3661,-66.9193,66.9193,35.3661,589.819,564.353)">
            <path d="M0.593,-0.364C0.316,-0.409 0.059,-0.196 -0.161,-0.004C0.057,0.176 0.299,0.326 0.593,0.28C0.796,0.247 1.009,0.165 1.296,-0.096C0.946,-0.228 0.778,-0.334 0.593,-0.364Z" style="fill:url(#_Linear11);fill-rule:nonzero;"/>
        </g>
        <g transform="matrix(1,0,0,1,610.818,617.887)">
            <path d="M0,-95.319C-7.243,-79.562 -16.848,-65.123 -28.254,-52.621C-29.625,-51.118 -31.023,-49.642 -32.446,-48.195C-45.7,-34.717 -61.124,-23.723 -77.683,-15.765L-73.052,-7.882L-68.422,0C-51.58,-11.662 -37.023,-26.09 -25.433,-42.331C-24.187,-44.075 -22.978,-45.84 -21.803,-47.623C-12.032,-62.457 -4.689,-78.623 0,-95.319" style="fill:rgb(48,81,191);fill-rule:nonzero;"/>
        </g>
        <g transform="matrix(64.4663,17.0454,-17.0454,64.4663,594.599,630.062)">
            <path d="M0.343,-0.162C0.257,-0.079 0.208,0.038 0.072,0.233C0.317,0.265 0.458,0.231 0.576,0.174L0.576,0.175C0.746,0.092 0.818,-0.074 0.867,-0.247C0.744,-0.261 0.608,-0.273 0.493,-0.243C0.437,-0.228 0.385,-0.203 0.343,-0.162Z" style="fill:url(#_Linear12);fill-rule:nonzero;"/>
        </g>
        <g transform="matrix(1,0,0,1,616.502,623.637)">
            <path d="M0,17.129C15.898,11.959 32.432,9.318 48.797,9.221C50.088,9.212 51.378,9.221 52.667,9.246C67.713,9.525 82.576,11.954 96.655,16.353L98.228,9.679L99.8,3.005C83.971,0.358 67.926,-0.002 52.286,1.858C50.946,2.018 49.61,2.193 48.277,2.385C31.382,4.816 15.045,9.84 0,17.131L0,17.129Z" style="fill:rgb(48,81,191);fill-rule:nonzero;"/>
        </g>
        <g transform="matrix(70.0483,22.5434,-22.5434,70.0483,240.459,509.6)">
            <path d="M0.387,-0.202C0.209,-0.113 0.135,0.063 0.085,0.245C0.28,0.265 0.503,0.281 0.636,0.15C0.726,0.061 0.776,-0.062 0.917,-0.269C0.726,-0.292 0.595,-0.278 0.49,-0.244C0.453,-0.232 0.419,-0.218 0.387,-0.202Z" style="fill:url(#_Linear13);fill-rule:nonzero;"/>
        </g>
        <g transform="matrix(1,0,0,1,285.935,550.012)">
            <path d="M0,-34.603C-12.006,-35.871 -24.583,-34.043 -36.15,-29.104C-36.265,-29.055 -36.38,-29.005 -36.495,-28.957C-48.153,-23.903 -58.691,-15.717 -66.68,-5.179L-61.688,-1.956L-56.696,1.268C-51.499,-8.612 -43.536,-17.386 -33.714,-23.705C-33.618,-23.766 -33.521,-23.829 -33.424,-23.89C-23.664,-30.101 -12.053,-33.91 0,-34.603Z" style="fill:rgb(48,81,191);fill-rule:nonzero;"/>
        </g>
        <g transform="matrix(-32.7385,-48.5636,48.5636,-32.7385,449.482,628.411)">
            <path d="M0.543,-0.321C0.313,-0.373 0.12,-0.174 -0.074,-0.024C0.1,0.138 0.297,0.243 0.543,0.202C0.758,0.166 0.929,0.093 1.151,0.062C0.907,-0.15 0.697,-0.287 0.543,-0.321Z" style="fill:url(#_Linear14);fill-rule:nonzero;"/>
        </g>
        <g transform="matrix(1,0,0,1,424.79,655.743)">
            <path d="M0,-61.568C0.687,-54.093 3.432,-46.694 7.819,-40.281C11.449,-35.002 16.092,-30.513 20.872,-26.396C21.894,-25.516 22.921,-24.653 23.947,-23.803C33.436,-15.869 42.925,-7.934 52.414,0L55.886,-4.823L59.358,-9.645C48.823,-16.128 38.289,-22.609 27.754,-29.091C26.64,-29.782 25.531,-30.473 24.434,-31.173C19.296,-34.449 14.401,-37.91 10.374,-42.303C5.469,-47.63 1.759,-54.271 0,-61.568Z" style="fill:rgb(48,81,191);fill-rule:nonzero;"/>
        </g>
        <g transform="matrix(48.5803,-55.1916,55.1916,48.5803,378.55,469.129)">
            <path d="M0.499,-0.266C0.238,-0.309 -0.005,-0.108 -0.212,0.073C-0.006,0.243 0.222,0.385 0.499,0.341C0.691,0.311 0.891,0.232 1.162,-0.014C0.832,-0.138 0.674,-0.238 0.499,-0.266Z" style="fill:url(#_Linear15);fill-rule:nonzero;"/>
        </g>
        <g transform="matrix(1,0,0,1,414.463,526.038)">
            <path d="M0,-93.384C-7.229,-84.774 -14.819,-76.493 -22.739,-68.571C-27.792,-63.521 -33.036,-58.548 -37.727,-52.892C-38.027,-52.53 -38.326,-52.164 -38.622,-51.796C-50.172,-37.376 -56.995,-18.967 -57.495,0L-48.353,-0.12C-49.325,-17.023 -44.589,-34.561 -34.851,-49.015C-34.602,-49.386 -34.349,-49.755 -34.093,-50.123C-30.104,-55.853 -25.331,-61.188 -20.685,-66.681C-13.395,-75.293 -6.493,-84.205 0,-93.384" style="fill:rgb(48,81,191);fill-rule:nonzero;"/>
        </g>
        <g transform="matrix(-1.22909,-43.6315,43.6315,-1.22909,368.458,401.404)">
            <path d="M0.508,-0.376C0.275,-0.333 0.065,-0.199 -0.374,-0.028C-0.014,0.273 0.253,0.364 0.508,0.395C0.876,0.439 1.18,0.25 1.453,0.026C1.178,-0.195 0.854,-0.441 0.508,-0.376Z" style="fill:url(#_Linear16);fill-rule:nonzero;"/>
        </g>
        <g transform="matrix(1,0,0,1,369.165,301.226)">
            <path d="M0,86.993C-1.34,72.649 -1.301,58.248 0.088,44.054C0.101,43.935 0.114,43.817 0.123,43.699C0.869,36.441 1.889,28.841 0.541,20.885C-0.851,13.113 -4.68,5.732 -10.451,0L-13.517,3.391L-16.582,6.783C-11.723,10.66 -7.967,16.22 -6.171,22.417C-4.251,28.778 -4.516,36.069 -4.446,43.488C-4.445,43.609 -4.444,43.73 -4.442,43.851C-4.335,58.402 -2.837,72.868 -0.001,86.993L0,86.993Z" style="fill:rgb(48,81,191);fill-rule:nonzero;"/>
        </g>
        <g transform="matrix(5.96574,-40.0203,40.0203,5.96574,315.875,592.895)">
            <path d="M0.577,-0.322C0.297,-0.367 0.066,-0.223 -0.142,-0.052C0.068,0.131 0.314,0.334 0.577,0.291C0.754,0.263 0.914,0.162 1.248,0.036C0.974,-0.213 0.771,-0.292 0.577,-0.322Z" style="fill:url(#_Linear17);fill-rule:nonzero;"/>
        </g>
        <g transform="matrix(1,0,0,1,315.548,624.509)">
            <path d="M0,-54.841C-2.891,-49.303 -4.36,-42.859 -4.067,-36.315C-3.851,-31.504 -2.685,-26.667 -0.612,-22.151C0.134,-20.524 0.998,-18.938 1.978,-17.409C7.441,-8.916 16.384,-2.447 26.875,0L28.647,-11.752C21.05,-12.031 13.079,-15.548 7.415,-21.575C6.391,-22.663 5.436,-23.834 4.561,-25.075C2.131,-28.521 0.316,-32.509 -0.672,-36.765C-2.019,-42.555 -1.835,-48.869 0,-54.841" style="fill:rgb(48,81,191);fill-rule:nonzero;"/>
        </g>
        <g transform="matrix(8.76235,-31.3248,31.3248,8.76235,522.283,576.554)">
            <path d="M0.529,-0.492C0.129,-0.556 -0.202,-0.35 -0.5,-0.105C-0.2,0.157 0.152,0.448 0.529,0.387C0.782,0.345 1.011,0.201 1.489,0.021C1.097,-0.335 0.807,-0.448 0.529,-0.492Z" style="fill:url(#_Linear18);fill-rule:nonzero;"/>
        </g>
        <g transform="matrix(1,0,0,1,522.834,635.718)">
            <path d="M0,-77.499C-4.101,-69.143 -6.923,-60.017 -8.253,-50.544C-8.75,-47.005 -9.038,-43.543 -9.637,-40.328C-9.68,-40.094 -9.724,-39.861 -9.771,-39.629C-12.15,-27.651 -18.877,-16.897 -27.826,-9.866L-23.063,-4.933L-18.301,0C-8.561,-11.013 -3.239,-25.062 -2.95,-38.924C-2.946,-39.193 -2.941,-39.463 -2.938,-39.731C-2.92,-43.419 -3.241,-46.898 -3.363,-50.279C-3.69,-59.324 -2.576,-68.555 0.002,-77.499L0,-77.499Z" style="fill:rgb(48,81,191);fill-rule:nonzero;"/>
        </g>
    </g>
    <defs>
        <linearGradient id="_Linear1" x1="0" y1="0" x2="1" y2="0" gradientUnits="userSpaceOnUse" gradientTransform="matrix(-0.177003,0.98421,0.98421,0.177003,0.704913,-0.589448)"><stop offset="0" style="stop-color:rgb(255,182,35);stop-opacity:1"/><stop offset="1" style="stop-color:rgb(242,162,0);stop-opacity:1"/></linearGradient>
        <linearGradient id="_Linear2" x1="0" y1="0" x2="1" y2="0" gradientUnits="userSpaceOnUse" gradientTransform="matrix(-0.215153,0.97658,0.97658,0.215153,0.614461,-0.493823)"><stop offset="0" style="stop-color:rgb(255,182,35);stop-opacity:1"/><stop offset="1" style="stop-color:rgb(242,162,0);stop-opacity:1"/></linearGradient>
        <linearGradient id="_Linear3" x1="0" y1="0" x2="1" y2="0" gradientUnits="userSpaceOnUse" gradientTransform="matrix(1,0,0,-1,0,-0.0266574)"><stop offset="0" style="stop-color:rgb(255,182,35);stop-opacity:1"/><stop offset="1" style="stop-color:rgb(242,162,0);stop-opacity:1"/></linearGradient>
        <linearGradient id="_Linear4" x1="0" y1="0" x2="1" y2="0" gradientUnits="userSpaceOnUse" gradientTransform="matrix(-0.965808,0.259259,0.259259,0.965808,1.02252,-0.134854)"><stop offset="0" style="stop-color:rgb(255,182,35);stop-opacity:1"/><stop offset="1" style="stop-color:rgb(242,162,0);stop-opacity:1"/></linearGradient>
        <linearGradient id="_Linear5" x1="0" y1="0" x2="1" y2="0" gradientUnits="userSpaceOnUse" gradientTransform="matrix(1,-5.55112e-17,-5.55112e-17,-1,0,-1.05386e-05)"><stop offset="0" style="stop-color:rgb(255,182,35);stop-opacity:1"/><stop offset="1" style="stop-color:rgb(242,162,0);stop-opacity:1"/></linearGradient>
        <linearGradient id="_Linear6" x1="0" y1="0" x2="1" y2="0" gradientUnits="userSpaceOnUse" gradientTransform="matrix(-0.681746,0.731589,0.731589,0.681746,0.945105,-0.411138)"><stop offset="0" style="stop-color:rgb(255,182,35);stop-opacity:1"/><stop offset="1" style="stop-color:rgb(242,162,0);stop-opacity:1"/></linearGradient>
        <linearGradient id="_Linear7" x1="0" y1="0" x2="1" y2="0" gradientUnits="userSpaceOnUse" gradientTransform="matrix(-0.568715,0.822535,0.822535,0.568715,0.846941,-0.444082)"><stop offset="0" style="stop-color:rgb(255,182,35);stop-opacity:1"/><stop offset="1" style="stop-color:rgb(242,162,0);stop-opacity:1"/></linearGradient>
        <linearGradient id="_Linear8" x1="0" y1="0" x2="1" y2="0" gradientUnits="userSpaceOnUse" gradientTransform="matrix(-0.737646,0.675188,0.675188,0.737646,0.844793,-0.328257)"><stop offset="0" style="stop-color:rgb(255,182,35);stop-opacity:1"/><stop offset="1" style="stop-color:rgb(242,162,0);stop-opacity:1"/></linearGradient>
        <linearGradient id="_Linear9" x1="0" y1="0" x2="1" y2="0" gradientUnits="userSpaceOnUse" gradientTransform="matrix(1,0,0,-1,0,1.68101e-06)"><stop offset="0" style="stop-color:rgb(255,182,35);stop-opacity:1"/><stop offset="1" style="stop-color:rgb(242,162,0);stop-opacity:1"/></linearGradient>
        <linearGradient id="_Linear10" x1="0" y1="0" x2="1" y2="0" gradientUnits="userSpaceOnUse" gradientTransform="matrix(1,5.55112e-17,5.55112e-17,-1,0,8.67324e-06)"><stop offset="0" style="stop-color:rgb(255,182,35);stop-opacity:1"/><stop offset="1" style="stop-color:rgb(242,162,0);stop-opacity:1"/></linearGradient>
        <linearGradient id="_Linear11" x1="0" y1="0" x2="1" y2="0" gradientUnits="userSpaceOnUse" gradientTransform="matrix(-0.220347,0.975422,0.975422,0.220347,0.678683,-0.54247)"><stop offset="0" style="stop-color:rgb(255,182,35);stop-opacity:1"/><stop offset="1" style="stop-color:rgb(242,162,0);stop-opacity:1"/></linearGradient>
        <linearGradient id="_Linear12" x1="0" y1="0" x2="1" y2="0" gradientUnits="userSpaceOnUse" gradientTransform="matrix(1,0,0,-1,0,-0.00805474)"><stop offset="0" style="stop-color:rgb(255,182,35);stop-opacity:1"/><stop offset="1" style="stop-color:rgb(242,162,0);stop-opacity:1"/></linearGradient>
        <linearGradient id="_Linear13" x1="0" y1="0" x2="1" y2="0" gradientUnits="userSpaceOnUse" gradientTransform="matrix(1,0,0,-1,0,-0.0109911)"><stop offset="0" style="stop-color:rgb(255,182,35);stop-opacity:1"/><stop offset="1" style="stop-color:rgb(242,162,0);stop-opacity:1"/></linearGradient>
        <linearGradient id="_Linear14" x1="0" y1="0" x2="1" y2="0" gradientUnits="userSpaceOnUse" gradientTransform="matrix(-0.873804,0.486278,0.486278,0.873804,0.970817,-0.251941)"><stop offset="0" style="stop-color:rgb(255,182,35);stop-opacity:1"/><stop offset="1" style="stop-color:rgb(242,162,0);stop-opacity:1"/></linearGradient>
        <linearGradient id="_Linear15" x1="0" y1="0" x2="1" y2="0" gradientUnits="userSpaceOnUse" gradientTransform="matrix(0.169696,0.985496,0.985496,-0.169696,0.390244,-0.463185)"><stop offset="0" style="stop-color:rgb(255,182,35);stop-opacity:1"/><stop offset="1" style="stop-color:rgb(242,162,0);stop-opacity:1"/></linearGradient>
        <linearGradient id="_Linear16" x1="0" y1="0" x2="1" y2="0" gradientUnits="userSpaceOnUse" gradientTransform="matrix(-0.636662,0.771143,0.771143,0.636662,0.881409,-0.415292)"><stop offset="0" style="stop-color:rgb(255,182,35);stop-opacity:1"/><stop offset="1" style="stop-color:rgb(242,162,0);stop-opacity:1"/></linearGradient>
        <linearGradient id="_Linear17" x1="0" y1="0" x2="1" y2="0" gradientUnits="userSpaceOnUse" gradientTransform="matrix(-0.53673,0.843754,0.843754,0.53673,0.842449,-0.462554)"><stop offset="0" style="stop-color:rgb(255,182,35);stop-opacity:1"/><stop offset="1" style="stop-color:rgb(242,162,0);stop-opacity:1"/></linearGradient>
        <linearGradient id="_Linear18" x1="0" y1="0" x2="1" y2="0" gradientUnits="userSpaceOnUse" gradientTransform="matrix(-0.340822,0.940128,0.940128,0.340822,0.642972,-0.450825)"><stop offset="0" style="stop-color:rgb(255,182,35);stop-opacity:1"/><stop offset="1" style="stop-color:rgb(242,162,0);stop-opacity:1"/></linearGradient>
    </defs>
</svg>
