<svg width="251" height="55" viewBox="0 0 251 55" fill="none" xmlns="http://www.w3.org/2000/svg">
  <rect x="0.5" y="0.5" width="250" height="54" rx="27" fill="#1F1F1F"/>
  <path d="M57 23.791H21V18.1456C21 15.0809 23.6422 12.5001 26.7798 12.5001H51.2202C54.3578 12.5001 57 15.0809 57 18.1456V23.791Z" fill="#34A853"/>
  <path d="M57 29H21V23C21 19.7429 23.6422 17 26.7798 17H51.2202C54.3578 17 57 19.7429 57 23V29Z" fill="#FBBC04"/>
  <path d="M57 34H21V28C21 24.7429 23.6422 22 26.7798 22H51.2202C54.3578 22 57 24.7429 57 28V34Z" fill="#EA4335"/>
  <path d="M21 25.2409L43.8493 30.4025C46.4795 31.0477 49.4384 30.4025 51.5753 28.7895L57 24.9183V37.0157C57 40.0804 54.3699 42.4999 51.2466 42.4999H26.7534C23.6301 42.4999 21 40.0804 21 37.0157V25.2409Z" fill="url(#paint0_linear_1819_24377)"/>
  <path d="M70.053 21.5V12.192H71.483V16.066H75.838V12.192H77.255V21.5H75.838V17.418H71.483V21.5H70.053ZM82.1177 21.708C81.433 21.708 80.8307 21.552 80.3107 21.24C79.7907 20.928 79.3834 20.5077 79.0887 19.979C78.794 19.4503 78.6467 18.8523 78.6467 18.185C78.6467 17.5263 78.794 16.9327 79.0887 16.404C79.3834 15.8667 79.7907 15.442 80.3107 15.13C80.8307 14.818 81.433 14.662 82.1177 14.662C82.7937 14.662 83.3917 14.818 83.9117 15.13C84.4317 15.442 84.839 15.8667 85.1337 16.404C85.4284 16.9327 85.5757 17.5263 85.5757 18.185C85.5757 18.8523 85.4284 19.4503 85.1337 19.979C84.839 20.5077 84.4317 20.928 83.9117 21.24C83.3917 21.552 82.7937 21.708 82.1177 21.708ZM82.1177 20.421C82.4817 20.421 82.8197 20.3343 83.1317 20.161C83.4437 19.979 83.695 19.7233 83.8857 19.394C84.085 19.056 84.1847 18.653 84.1847 18.185C84.1847 17.717 84.085 17.3183 83.8857 16.989C83.695 16.651 83.4437 16.3953 83.1317 16.222C82.8197 16.04 82.4817 15.949 82.1177 15.949C81.7537 15.949 81.4114 16.04 81.0907 16.222C80.7787 16.3953 80.523 16.651 80.3237 16.989C80.133 17.3183 80.0377 17.717 80.0377 18.185C80.0377 18.653 80.133 19.056 80.3237 19.394C80.523 19.7233 80.7787 19.979 81.0907 20.161C81.4114 20.3343 81.7537 20.421 82.1177 20.421ZM86.4039 21.5V20.33L90.0959 16.092H86.5209V14.87H91.8119V16.04L88.1329 20.278H91.9159V21.5H86.4039ZM92.8912 21.5V20.33L96.5832 16.092H93.0082V14.87H98.2992V16.04L94.6202 20.278H98.4032V21.5H92.8912ZM101.67 21.708C101.193 21.708 100.768 21.617 100.396 21.435C100.023 21.2443 99.7325 20.98 99.5245 20.642C99.3165 20.304 99.2125 19.9183 99.2125 19.485C99.2125 19.017 99.3338 18.6183 99.5765 18.289C99.8278 17.951 100.162 17.6953 100.578 17.522C100.994 17.3487 101.453 17.262 101.956 17.262C102.372 17.262 102.736 17.301 103.048 17.379C103.368 17.457 103.611 17.5393 103.776 17.626V17.275C103.776 16.8417 103.62 16.495 103.308 16.235C102.996 15.975 102.593 15.845 102.099 15.845C101.761 15.845 101.44 15.923 101.137 16.079C100.833 16.2263 100.591 16.43 100.409 16.69L99.4465 15.949C99.7325 15.5503 100.11 15.2383 100.578 15.013C101.054 14.779 101.574 14.662 102.138 14.662C103.1 14.662 103.841 14.9003 104.361 15.377C104.881 15.845 105.141 16.5037 105.141 17.353V21.5H103.776V20.681H103.698C103.524 20.9497 103.264 21.188 102.918 21.396C102.571 21.604 102.155 21.708 101.67 21.708ZM101.917 20.564C102.281 20.564 102.601 20.4773 102.879 20.304C103.156 20.1307 103.373 19.9053 103.529 19.628C103.693 19.342 103.776 19.0343 103.776 18.705C103.576 18.5923 103.342 18.5013 103.074 18.432C102.805 18.354 102.519 18.315 102.216 18.315C101.644 18.315 101.236 18.432 100.994 18.666C100.751 18.8913 100.63 19.1687 100.63 19.498C100.63 19.81 100.747 20.0657 100.981 20.265C101.215 20.4643 101.527 20.564 101.917 20.564ZM101.618 13.596L102.229 11.932H103.815L102.775 13.596H101.618ZM108.703 21.708C108.226 21.708 107.801 21.617 107.429 21.435C107.056 21.2443 106.766 20.98 106.558 20.642C106.35 20.304 106.246 19.9183 106.246 19.485C106.246 19.017 106.367 18.6183 106.61 18.289C106.861 17.951 107.195 17.6953 107.611 17.522C108.027 17.3487 108.486 17.262 108.989 17.262C109.405 17.262 109.769 17.301 110.081 17.379C110.401 17.457 110.644 17.5393 110.809 17.626V17.275C110.809 16.8417 110.653 16.495 110.341 16.235C110.029 15.975 109.626 15.845 109.132 15.845C108.794 15.845 108.473 15.923 108.17 16.079C107.866 16.2263 107.624 16.43 107.442 16.69L106.48 15.949C106.766 15.5503 107.143 15.2383 107.611 15.013C108.087 14.779 108.607 14.662 109.171 14.662C110.133 14.662 110.874 14.9003 111.394 15.377C111.914 15.845 112.174 16.5037 112.174 17.353V21.5H110.809V20.681H110.731C110.557 20.9497 110.297 21.188 109.951 21.396C109.604 21.604 109.188 21.708 108.703 21.708ZM108.95 20.564C109.314 20.564 109.634 20.4773 109.912 20.304C110.189 20.1307 110.406 19.9053 110.562 19.628C110.726 19.342 110.809 19.0343 110.809 18.705C110.609 18.5923 110.375 18.5013 110.107 18.432C109.838 18.354 109.552 18.315 109.249 18.315C108.677 18.315 108.269 18.432 108.027 18.666C107.784 18.8913 107.663 19.1687 107.663 19.498C107.663 19.81 107.78 20.0657 108.014 20.265C108.248 20.4643 108.56 20.564 108.95 20.564ZM116.49 21.708C115.892 21.708 115.35 21.5607 114.865 21.266C114.388 20.9627 114.007 20.5467 113.721 20.018C113.444 19.4807 113.305 18.8697 113.305 18.185C113.305 17.5003 113.444 16.8937 113.721 16.365C114.007 15.8363 114.388 15.4203 114.865 15.117C115.35 14.8137 115.892 14.662 116.49 14.662C117.001 14.662 117.439 14.7747 117.803 15C118.176 15.2253 118.449 15.481 118.622 15.767H118.7L118.622 14.844V12.192H120.013V21.5H118.7V20.616H118.622C118.449 20.902 118.176 21.1577 117.803 21.383C117.439 21.5997 117.001 21.708 116.49 21.708ZM116.698 20.421C117.045 20.421 117.37 20.33 117.673 20.148C117.985 19.966 118.232 19.7103 118.414 19.381C118.605 19.043 118.7 18.6443 118.7 18.185C118.7 17.7257 118.605 17.3313 118.414 17.002C118.232 16.664 117.985 16.404 117.673 16.222C117.37 16.04 117.045 15.949 116.698 15.949C116.351 15.949 116.026 16.04 115.723 16.222C115.42 16.404 115.173 16.664 114.982 17.002C114.791 17.3313 114.696 17.7257 114.696 18.185C114.696 18.6443 114.791 19.043 114.982 19.381C115.173 19.7103 115.42 19.966 115.723 20.148C116.026 20.33 116.351 20.421 116.698 20.421ZM123.683 21.708C123.207 21.708 122.782 21.617 122.409 21.435C122.037 21.2443 121.746 20.98 121.538 20.642C121.33 20.304 121.226 19.9183 121.226 19.485C121.226 19.017 121.348 18.6183 121.59 18.289C121.842 17.951 122.175 17.6953 122.591 17.522C123.007 17.3487 123.467 17.262 123.969 17.262C124.385 17.262 124.749 17.301 125.061 17.379C125.382 17.457 125.625 17.5393 125.789 17.626V17.275C125.789 16.8417 125.633 16.495 125.321 16.235C125.009 15.975 124.606 15.845 124.112 15.845C123.774 15.845 123.454 15.923 123.15 16.079C122.847 16.2263 122.604 16.43 122.422 16.69L121.46 15.949C121.746 15.5503 122.123 15.2383 122.591 15.013C123.068 14.779 123.588 14.662 124.151 14.662C125.113 14.662 125.854 14.9003 126.374 15.377C126.894 15.845 127.154 16.5037 127.154 17.353V21.5H125.789V20.681H125.711C125.538 20.9497 125.278 21.188 124.931 21.396C124.585 21.604 124.169 21.708 123.683 21.708ZM123.93 20.564C124.294 20.564 124.615 20.4773 124.892 20.304C125.17 20.1307 125.386 19.9053 125.542 19.628C125.707 19.342 125.789 19.0343 125.789 18.705C125.59 18.5923 125.356 18.5013 125.087 18.432C124.819 18.354 124.533 18.315 124.229 18.315C123.657 18.315 123.25 18.432 123.007 18.666C122.765 18.8913 122.643 19.1687 122.643 19.498C122.643 19.81 122.76 20.0657 122.994 20.265C123.228 20.4643 123.54 20.564 123.93 20.564ZM123.631 13.596L124.242 11.932H125.828L124.788 13.596H123.631ZM131.054 21.708C130.257 21.708 129.62 21.5347 129.143 21.188C128.667 20.8327 128.337 20.4123 128.155 19.927L129.416 19.381C129.572 19.7363 129.798 20.0093 130.092 20.2C130.387 20.382 130.721 20.473 131.093 20.473C131.44 20.473 131.739 20.4123 131.99 20.291C132.242 20.161 132.367 19.953 132.367 19.667C132.367 19.3897 132.242 19.186 131.99 19.056C131.739 18.926 131.427 18.8133 131.054 18.718L130.261 18.536C129.941 18.458 129.642 18.3367 129.364 18.172C129.087 18.0073 128.862 17.795 128.688 17.535C128.515 17.2663 128.428 16.9543 128.428 16.599C128.428 16.209 128.545 15.871 128.779 15.585C129.013 15.2903 129.321 15.065 129.702 14.909C130.092 14.7443 130.513 14.662 130.963 14.662C131.579 14.662 132.116 14.7833 132.575 15.026C133.043 15.26 133.386 15.6153 133.602 16.092L132.393 16.638C132.237 16.3433 132.034 16.1397 131.782 16.027C131.54 15.9057 131.271 15.845 130.976 15.845C130.647 15.845 130.37 15.9143 130.144 16.053C129.928 16.1917 129.819 16.365 129.819 16.573C129.819 16.7983 129.915 16.976 130.105 17.106C130.305 17.236 130.547 17.34 130.833 17.418L131.795 17.652C132.454 17.8167 132.948 18.068 133.277 18.406C133.607 18.7353 133.771 19.1383 133.771 19.615C133.771 20.0397 133.65 20.4123 133.407 20.733C133.165 21.045 132.835 21.2877 132.419 21.461C132.012 21.6257 131.557 21.708 131.054 21.708ZM140.111 21.708C139.634 21.708 139.21 21.617 138.837 21.435C138.464 21.2443 138.174 20.98 137.966 20.642C137.758 20.304 137.654 19.9183 137.654 19.485C137.654 19.017 137.775 18.6183 138.018 18.289C138.269 17.951 138.603 17.6953 139.019 17.522C139.435 17.3487 139.894 17.262 140.397 17.262C140.813 17.262 141.177 17.301 141.489 17.379C141.81 17.457 142.052 17.5393 142.217 17.626V17.275C142.217 16.8417 142.061 16.495 141.749 16.235C141.437 15.975 141.034 15.845 140.54 15.845C140.202 15.845 139.881 15.923 139.578 16.079C139.275 16.2263 139.032 16.43 138.85 16.69L137.888 15.949C138.174 15.5503 138.551 15.2383 139.019 15.013C139.496 14.779 140.016 14.662 140.579 14.662C141.541 14.662 142.282 14.9003 142.802 15.377C143.322 15.845 143.582 16.5037 143.582 17.353V21.5H142.217V20.681H142.139C141.966 20.9497 141.706 21.188 141.359 21.396C141.012 21.604 140.596 21.708 140.111 21.708ZM140.358 20.564C140.722 20.564 141.043 20.4773 141.32 20.304C141.597 20.1307 141.814 19.9053 141.97 19.628C142.135 19.342 142.217 19.0343 142.217 18.705C142.018 18.5923 141.784 18.5013 141.515 18.432C141.246 18.354 140.96 18.315 140.657 18.315C140.085 18.315 139.678 18.432 139.435 18.666C139.192 18.8913 139.071 19.1687 139.071 19.498C139.071 19.81 139.188 20.0657 139.422 20.265C139.656 20.4643 139.968 20.564 140.358 20.564ZM148.162 21.5V12.192H149.566V17.678L152.374 14.87H154.116V14.948L151.555 17.483L154.207 21.422V21.5H152.543L150.567 18.458L149.566 19.446V21.5H148.162ZM158.01 21.708C157.326 21.708 156.723 21.552 156.203 21.24C155.683 20.928 155.276 20.5077 154.981 19.979C154.687 19.4503 154.539 18.8523 154.539 18.185C154.539 17.5263 154.687 16.9327 154.981 16.404C155.276 15.8667 155.683 15.442 156.203 15.13C156.723 14.818 157.326 14.662 158.01 14.662C158.686 14.662 159.284 14.818 159.804 15.13C160.324 15.442 160.732 15.8667 161.026 16.404C161.321 16.9327 161.468 17.5263 161.468 18.185C161.468 18.8523 161.321 19.4503 161.026 19.979C160.732 20.5077 160.324 20.928 159.804 21.24C159.284 21.552 158.686 21.708 158.01 21.708ZM158.01 20.421C158.374 20.421 158.712 20.3343 159.024 20.161C159.336 19.979 159.588 19.7233 159.778 19.394C159.978 19.056 160.077 18.653 160.077 18.185C160.077 17.717 159.978 17.3183 159.778 16.989C159.588 16.651 159.336 16.3953 159.024 16.222C158.712 16.04 158.374 15.949 158.01 15.949C157.646 15.949 157.304 16.04 156.983 16.222C156.671 16.3953 156.416 16.651 156.216 16.989C156.026 17.3183 155.93 17.717 155.93 18.185C155.93 18.653 156.026 19.056 156.216 19.394C156.416 19.7233 156.671 19.979 156.983 20.161C157.304 20.3343 157.646 20.421 158.01 20.421ZM159.154 13.518C158.938 13.518 158.747 13.44 158.582 13.284C158.426 13.1193 158.348 12.9243 158.348 12.699C158.348 12.4737 158.426 12.2873 158.582 12.14C158.747 11.984 158.938 11.906 159.154 11.906C159.388 11.906 159.583 11.984 159.739 12.14C159.895 12.2873 159.973 12.4737 159.973 12.699C159.973 12.9243 159.895 13.1193 159.739 13.284C159.583 13.44 159.388 13.518 159.154 13.518ZM156.853 13.518C156.637 13.518 156.446 13.44 156.281 13.284C156.125 13.1193 156.047 12.9243 156.047 12.699C156.047 12.4737 156.125 12.2873 156.281 12.14C156.446 11.984 156.637 11.906 156.853 11.906C157.087 11.906 157.278 11.984 157.425 12.14C157.581 12.2873 157.659 12.4737 157.659 12.699C157.659 12.9243 157.581 13.1193 157.425 13.284C157.278 13.44 157.087 13.518 156.853 13.518ZM164.586 21.5L161.843 14.87H163.403L165.262 19.693H165.327L167.225 14.87H168.759L165.99 21.5H164.586ZM172.506 21.708C171.856 21.708 171.276 21.5563 170.764 21.253C170.253 20.9497 169.85 20.5337 169.555 20.005C169.269 19.4763 169.126 18.874 169.126 18.198C169.126 17.5653 169.265 16.9803 169.542 16.443C169.82 15.9057 170.205 15.4767 170.699 15.156C171.202 14.8267 171.778 14.662 172.428 14.662C173.113 14.662 173.694 14.8093 174.17 15.104C174.656 15.3987 175.024 15.8017 175.275 16.313C175.527 16.8243 175.652 17.4007 175.652 18.042C175.652 18.1373 175.648 18.224 175.639 18.302C175.639 18.38 175.635 18.4407 175.626 18.484H170.504C170.574 19.1427 170.803 19.6367 171.193 19.966C171.592 20.2953 172.043 20.46 172.545 20.46C172.996 20.46 173.369 20.3603 173.663 20.161C173.958 19.953 174.192 19.6973 174.365 19.394L175.522 19.953C175.236 20.473 174.846 20.8977 174.352 21.227C173.858 21.5477 173.243 21.708 172.506 21.708ZM172.441 15.858C171.973 15.858 171.575 16.001 171.245 16.287C170.916 16.573 170.695 16.9543 170.582 17.431H174.261C174.244 17.2057 174.17 16.9717 174.04 16.729C173.91 16.4863 173.711 16.2827 173.442 16.118C173.182 15.9447 172.849 15.858 172.441 15.858ZM177.466 19.576V16.092H176.309V14.87H177.466V12.998H178.87V14.87H180.495V16.092H178.87V19.277C178.87 19.6063 178.935 19.8577 179.065 20.031C179.204 20.2043 179.434 20.291 179.754 20.291C179.919 20.291 180.058 20.2693 180.17 20.226C180.292 20.1827 180.413 20.122 180.534 20.044V21.409C180.387 21.4697 180.231 21.5173 180.066 21.552C179.902 21.5867 179.707 21.604 179.481 21.604C178.866 21.604 178.376 21.4263 178.012 21.071C177.648 20.707 177.466 20.2087 177.466 19.576ZM181.906 21.5V12.192H183.31V17.678L186.118 14.87H187.86V14.948L185.299 17.483L187.951 21.422V21.5H186.287L184.311 18.458L183.31 19.446V21.5H181.906ZM191.663 21.708C191.013 21.708 190.433 21.5563 189.921 21.253C189.41 20.9497 189.007 20.5337 188.712 20.005C188.426 19.4763 188.283 18.874 188.283 18.198C188.283 17.5653 188.422 16.9803 188.699 16.443C188.977 15.9057 189.362 15.4767 189.856 15.156C190.359 14.8267 190.935 14.662 191.585 14.662C192.27 14.662 192.851 14.8093 193.327 15.104C193.813 15.3987 194.181 15.8017 194.432 16.313C194.684 16.8243 194.809 17.4007 194.809 18.042C194.809 18.1373 194.805 18.224 194.796 18.302C194.796 18.38 194.792 18.4407 194.783 18.484H189.661C189.731 19.1427 189.96 19.6367 190.35 19.966C190.749 20.2953 191.2 20.46 191.702 20.46C192.153 20.46 192.526 20.3603 192.82 20.161C193.115 19.953 193.349 19.6973 193.522 19.394L194.679 19.953C194.393 20.473 194.003 20.8977 193.509 21.227C193.015 21.5477 192.4 21.708 191.663 21.708ZM191.598 15.858C191.13 15.858 190.732 16.001 190.402 16.287C190.073 16.573 189.852 16.9543 189.739 17.431H193.418C193.401 17.2057 193.327 16.9717 193.197 16.729C193.067 16.4863 192.868 16.2827 192.599 16.118C192.339 15.9447 192.006 15.858 191.598 15.858ZM195.71 21.5V20.33L199.402 16.092H195.827V14.87H201.118V16.04L197.439 20.278H201.222V21.5H195.71ZM205.529 21.708C204.844 21.708 204.242 21.552 203.722 21.24C203.202 20.928 202.795 20.5077 202.5 19.979C202.205 19.4503 202.058 18.8523 202.058 18.185C202.058 17.5263 202.205 16.9327 202.5 16.404C202.795 15.8667 203.202 15.442 203.722 15.13C204.242 14.818 204.844 14.662 205.529 14.662C206.205 14.662 206.803 14.818 207.323 15.13C207.843 15.442 208.25 15.8667 208.545 16.404C208.84 16.9327 208.987 17.5263 208.987 18.185C208.987 18.8523 208.84 19.4503 208.545 19.979C208.25 20.5077 207.843 20.928 207.323 21.24C206.803 21.552 206.205 21.708 205.529 21.708ZM205.529 20.421C205.893 20.421 206.231 20.3343 206.543 20.161C206.855 19.979 207.106 19.7233 207.297 19.394C207.496 19.056 207.596 18.653 207.596 18.185C207.596 17.717 207.496 17.3183 207.297 16.989C207.106 16.651 206.855 16.3953 206.543 16.222C206.231 16.04 205.893 15.949 205.529 15.949C205.165 15.949 204.823 16.04 204.502 16.222C204.19 16.3953 203.934 16.651 203.735 16.989C203.544 17.3183 203.449 17.717 203.449 18.185C203.449 18.653 203.544 19.056 203.735 19.394C203.934 19.7233 204.19 19.979 204.502 20.161C204.823 20.3343 205.165 20.421 205.529 20.421ZM203.8 13.596L204.411 11.932H205.997L204.957 13.596H203.8ZM206.114 13.596L206.725 11.932H208.311L207.271 13.596H206.114ZM210.216 21.5V12.192H211.62V14.74L211.542 15.78H211.62C211.802 15.4593 212.08 15.195 212.452 14.987C212.834 14.7703 213.254 14.662 213.713 14.662C214.537 14.662 215.156 14.909 215.572 15.403C215.988 15.8883 216.196 16.5253 216.196 17.314V21.5H214.805V17.496C214.805 16.9587 214.662 16.5687 214.376 16.326C214.099 16.0747 213.757 15.949 213.349 15.949C213.011 15.949 212.712 16.0443 212.452 16.235C212.192 16.4257 211.989 16.677 211.841 16.989C211.694 17.2923 211.62 17.6173 211.62 17.964V21.5H210.216ZM220.916 21.708C220.231 21.708 219.629 21.552 219.109 21.24C218.589 20.928 218.181 20.5077 217.887 19.979C217.592 19.4503 217.445 18.8523 217.445 18.185C217.445 17.5263 217.592 16.9327 217.887 16.404C218.181 15.8667 218.589 15.442 219.109 15.13C219.629 14.818 220.231 14.662 220.916 14.662C221.592 14.662 222.19 14.818 222.71 15.13C223.23 15.442 223.637 15.8667 223.932 16.404C224.226 16.9327 224.374 17.5263 224.374 18.185C224.374 18.8523 224.226 19.4503 223.932 19.979C223.637 20.5077 223.23 20.928 222.71 21.24C222.19 21.552 221.592 21.708 220.916 21.708ZM220.916 20.421C221.28 20.421 221.618 20.3343 221.93 20.161C222.242 19.979 222.493 19.7233 222.684 19.394C222.883 19.056 222.983 18.653 222.983 18.185C222.983 17.717 222.883 17.3183 222.684 16.989C222.493 16.651 222.242 16.3953 221.93 16.222C221.618 16.04 221.28 15.949 220.916 15.949C220.552 15.949 220.209 16.04 219.889 16.222C219.577 16.3953 219.321 16.651 219.122 16.989C218.931 17.3183 218.836 17.717 218.836 18.185C218.836 18.653 218.931 19.056 219.122 19.394C219.321 19.7233 219.577 19.979 219.889 20.161C220.209 20.3343 220.552 20.421 220.916 20.421ZM222.06 13.518C221.843 13.518 221.652 13.44 221.488 13.284C221.332 13.1193 221.254 12.9243 221.254 12.699C221.254 12.4737 221.332 12.2873 221.488 12.14C221.652 11.984 221.843 11.906 222.06 11.906C222.294 11.906 222.489 11.984 222.645 12.14C222.801 12.2873 222.879 12.4737 222.879 12.699C222.879 12.9243 222.801 13.1193 222.645 13.284C222.489 13.44 222.294 13.518 222.06 13.518ZM219.759 13.518C219.542 13.518 219.351 13.44 219.187 13.284C219.031 13.1193 218.953 12.9243 218.953 12.699C218.953 12.4737 219.031 12.2873 219.187 12.14C219.351 11.984 219.542 11.906 219.759 11.906C219.993 11.906 220.183 11.984 220.331 12.14C220.487 12.2873 220.565 12.4737 220.565 12.699C220.565 12.9243 220.487 13.1193 220.331 13.284C220.183 13.44 219.993 13.518 219.759 13.518ZM225.202 21.5V20.33L228.894 16.092H225.319V14.87H230.61V16.04L226.931 20.278H230.714V21.5H225.202Z" fill="white"/>
  <path d="M76.14 41.772C75.2673 41.772 74.4457 41.6133 73.675 41.296C72.9157 40.9787 72.2413 40.5367 71.652 39.97C71.0627 39.392 70.598 38.7177 70.258 37.947C69.9293 37.165 69.765 36.3207 69.765 35.414C69.765 34.5073 69.9293 33.6687 70.258 32.898C70.598 32.116 71.057 31.4417 71.635 30.875C72.2243 30.297 72.9043 29.8493 73.675 29.532C74.4457 29.2147 75.2673 29.056 76.14 29.056C77.0693 29.056 77.925 29.2203 78.707 29.549C79.5003 29.8777 80.1633 30.3367 80.696 30.926L79.404 32.201C79.0073 31.759 78.5313 31.419 77.976 31.181C77.432 30.943 76.82 30.824 76.14 30.824C75.3353 30.824 74.593 31.0167 73.913 31.402C73.233 31.776 72.6833 32.3087 72.264 33C71.856 33.68 71.652 34.4847 71.652 35.414C71.652 36.3433 71.8617 37.1537 72.281 37.845C72.7003 38.525 73.25 39.0577 73.93 39.443C74.61 39.817 75.3523 40.004 76.157 40.004C76.8937 40.004 77.5623 39.868 78.163 39.596C78.7637 39.3127 79.2453 38.916 79.608 38.406C79.982 37.896 80.2087 37.284 80.288 36.57H76.123V34.921H82.039C82.107 35.227 82.141 35.55 82.141 35.89V35.907C82.141 37.0857 81.8803 38.117 81.359 39.001C80.849 39.8737 80.1407 40.5537 79.234 41.041C78.3273 41.5283 77.296 41.772 76.14 41.772ZM87.6149 41.772C86.7195 41.772 85.9319 41.568 85.2519 41.16C84.5719 40.752 84.0392 40.2023 83.6539 39.511C83.2685 38.8197 83.0759 38.0377 83.0759 37.165C83.0759 36.3037 83.2685 35.5273 83.6539 34.836C84.0392 34.1333 84.5719 33.578 85.2519 33.17C85.9319 32.762 86.7195 32.558 87.6149 32.558C88.4989 32.558 89.2809 32.762 89.9609 33.17C90.6409 33.578 91.1735 34.1333 91.5589 34.836C91.9442 35.5273 92.1369 36.3037 92.1369 37.165C92.1369 38.0377 91.9442 38.8197 91.5589 39.511C91.1735 40.2023 90.6409 40.752 89.9609 41.16C89.2809 41.568 88.4989 41.772 87.6149 41.772ZM87.6149 40.089C88.0909 40.089 88.5329 39.9757 88.9409 39.749C89.3489 39.511 89.6775 39.1767 89.9269 38.746C90.1875 38.304 90.3179 37.777 90.3179 37.165C90.3179 36.553 90.1875 36.0317 89.9269 35.601C89.6775 35.159 89.3489 34.8247 88.9409 34.598C88.5329 34.36 88.0909 34.241 87.6149 34.241C87.1389 34.241 86.6912 34.36 86.2719 34.598C85.8639 34.8247 85.5295 35.159 85.2689 35.601C85.0195 36.0317 84.8949 36.553 84.8949 37.165C84.8949 37.777 85.0195 38.304 85.2689 38.746C85.5295 39.1767 85.8639 39.511 86.2719 39.749C86.6912 39.9757 87.1389 40.089 87.6149 40.089ZM97.9078 41.772C97.0125 41.772 96.2248 41.568 95.5448 41.16C94.8648 40.752 94.3322 40.2023 93.9468 39.511C93.5615 38.8197 93.3688 38.0377 93.3688 37.165C93.3688 36.3037 93.5615 35.5273 93.9468 34.836C94.3322 34.1333 94.8648 33.578 95.5448 33.17C96.2248 32.762 97.0125 32.558 97.9078 32.558C98.7918 32.558 99.5738 32.762 100.254 33.17C100.934 33.578 101.467 34.1333 101.852 34.836C102.237 35.5273 102.43 36.3037 102.43 37.165C102.43 38.0377 102.237 38.8197 101.852 39.511C101.467 40.2023 100.934 40.752 100.254 41.16C99.5738 41.568 98.7918 41.772 97.9078 41.772ZM97.9078 40.089C98.3838 40.089 98.8258 39.9757 99.2338 39.749C99.6418 39.511 99.9705 39.1767 100.22 38.746C100.481 38.304 100.611 37.777 100.611 37.165C100.611 36.553 100.481 36.0317 100.22 35.601C99.9705 35.159 99.6418 34.8247 99.2338 34.598C98.8258 34.36 98.3838 34.241 97.9078 34.241C97.4318 34.241 96.9842 34.36 96.5648 34.598C96.1568 34.8247 95.8225 35.159 95.5618 35.601C95.3125 36.0317 95.1878 36.553 95.1878 37.165C95.1878 37.777 95.3125 38.304 95.5618 38.746C95.8225 39.1767 96.1568 39.511 96.5648 39.749C96.9842 39.9757 97.4318 40.089 97.9078 40.089ZM108.031 45.444C107.271 45.444 106.614 45.3193 106.059 45.07C105.515 44.832 105.073 44.5203 104.733 44.135C104.393 43.761 104.149 43.3757 104.002 42.979L105.702 42.265C105.883 42.7183 106.172 43.0867 106.569 43.37C106.977 43.6647 107.464 43.812 108.031 43.812C108.824 43.812 109.447 43.574 109.901 43.098C110.365 42.622 110.598 41.9477 110.598 41.075V40.242H110.496C110.224 40.65 109.844 40.9787 109.357 41.228C108.881 41.466 108.337 41.585 107.725 41.585C106.988 41.585 106.314 41.398 105.702 41.024C105.09 40.65 104.597 40.1287 104.223 39.46C103.849 38.78 103.662 37.9867 103.662 37.08C103.662 36.162 103.849 35.3687 104.223 34.7C104.597 34.02 105.09 33.493 105.702 33.119C106.314 32.745 106.988 32.558 107.725 32.558C108.337 32.558 108.881 32.6827 109.357 32.932C109.844 33.1813 110.224 33.51 110.496 33.918H110.598V32.83H112.349V41.041C112.349 41.9817 112.162 42.7807 111.788 43.438C111.425 44.0953 110.921 44.594 110.275 44.934C109.629 45.274 108.881 45.444 108.031 45.444ZM108.048 39.919C108.501 39.919 108.92 39.8113 109.306 39.596C109.691 39.3693 110.003 39.0463 110.241 38.627C110.479 38.1963 110.598 37.6807 110.598 37.08C110.598 36.4567 110.479 35.9353 110.241 35.516C110.003 35.0853 109.691 34.7623 109.306 34.547C108.92 34.3317 108.501 34.224 108.048 34.224C107.594 34.224 107.169 34.3373 106.773 34.564C106.387 34.7793 106.076 35.0967 105.838 35.516C105.6 35.9353 105.481 36.4567 105.481 37.08C105.481 37.692 105.6 38.2133 105.838 38.644C106.076 39.0633 106.387 39.3807 106.773 39.596C107.169 39.8113 107.594 39.919 108.048 39.919ZM114.514 41.5V29.328H116.35V41.5H114.514ZM122.392 41.772C121.542 41.772 120.783 41.5737 120.114 41.177C119.446 40.7803 118.919 40.2363 118.533 39.545C118.159 38.8537 117.972 38.066 117.972 37.182C117.972 36.3547 118.154 35.5897 118.516 34.887C118.879 34.1843 119.383 33.6233 120.029 33.204C120.687 32.7733 121.44 32.558 122.29 32.558C123.186 32.558 123.945 32.7507 124.568 33.136C125.203 33.5213 125.685 34.0483 126.013 34.717C126.342 35.3857 126.506 36.1393 126.506 36.978C126.506 37.1027 126.501 37.216 126.489 37.318C126.489 37.42 126.484 37.4993 126.472 37.556H119.774C119.865 38.4173 120.165 39.0633 120.675 39.494C121.197 39.9247 121.786 40.14 122.443 40.14C123.033 40.14 123.52 40.0097 123.905 39.749C124.291 39.477 124.597 39.1427 124.823 38.746L126.336 39.477C125.962 40.157 125.452 40.7123 124.806 41.143C124.16 41.5623 123.356 41.772 122.392 41.772ZM122.307 34.122C121.695 34.122 121.174 34.309 120.743 34.683C120.313 35.057 120.024 35.5557 119.876 36.179H124.687C124.665 35.8843 124.568 35.5783 124.398 35.261C124.228 34.9437 123.968 34.6773 123.616 34.462C123.276 34.2353 122.84 34.122 122.307 34.122ZM133.979 41.5L130.715 29.328H132.789L134.727 37.233L134.931 38.287H135.033L135.288 37.233L137.736 29.328H139.606L141.952 37.233L142.207 38.27H142.309L142.513 37.233L144.451 29.328H146.508L143.295 41.5H141.323L138.994 33.425L138.722 32.286H138.62L138.331 33.425L135.9 41.5H133.979ZM149.922 41.772C149.299 41.772 148.743 41.653 148.256 41.415C147.769 41.1657 147.389 40.82 147.117 40.378C146.845 39.936 146.709 39.4317 146.709 38.865C146.709 38.253 146.868 37.7317 147.185 37.301C147.514 36.859 147.95 36.5247 148.494 36.298C149.038 36.0713 149.639 35.958 150.296 35.958C150.84 35.958 151.316 36.009 151.724 36.111C152.143 36.213 152.461 36.3207 152.676 36.434V35.975C152.676 35.4083 152.472 34.955 152.064 34.615C151.656 34.275 151.129 34.105 150.483 34.105C150.041 34.105 149.622 34.207 149.225 34.411C148.828 34.6037 148.511 34.87 148.273 35.21L147.015 34.241C147.389 33.7197 147.882 33.3117 148.494 33.017C149.117 32.711 149.797 32.558 150.534 32.558C151.792 32.558 152.761 32.8697 153.441 33.493C154.121 34.105 154.461 34.9663 154.461 36.077V41.5H152.676V40.429H152.574C152.347 40.7803 152.007 41.092 151.554 41.364C151.101 41.636 150.557 41.772 149.922 41.772ZM150.245 40.276C150.721 40.276 151.14 40.1627 151.503 39.936C151.866 39.7093 152.149 39.4147 152.353 39.052C152.568 38.678 152.676 38.2757 152.676 37.845C152.415 37.6977 152.109 37.5787 151.758 37.488C151.407 37.386 151.033 37.335 150.636 37.335C149.888 37.335 149.355 37.488 149.038 37.794C148.721 38.0887 148.562 38.4513 148.562 38.882C148.562 39.29 148.715 39.6243 149.021 39.885C149.327 40.1457 149.735 40.276 150.245 40.276ZM156.499 41.5V29.328H158.335V41.5H156.499ZM160.517 41.5V29.328H162.353V41.5H160.517ZM168.395 41.772C167.545 41.772 166.786 41.5737 166.117 41.177C165.449 40.7803 164.922 40.2363 164.536 39.545C164.162 38.8537 163.975 38.066 163.975 37.182C163.975 36.3547 164.157 35.5897 164.519 34.887C164.882 34.1843 165.386 33.6233 166.032 33.204C166.69 32.7733 167.443 32.558 168.293 32.558C169.189 32.558 169.948 32.7507 170.571 33.136C171.206 33.5213 171.688 34.0483 172.016 34.717C172.345 35.3857 172.509 36.1393 172.509 36.978C172.509 37.1027 172.504 37.216 172.492 37.318C172.492 37.42 172.487 37.4993 172.475 37.556H165.777C165.868 38.4173 166.168 39.0633 166.678 39.494C167.2 39.9247 167.789 40.14 168.446 40.14C169.036 40.14 169.523 40.0097 169.908 39.749C170.294 39.477 170.6 39.1427 170.826 38.746L172.339 39.477C171.965 40.157 171.455 40.7123 170.809 41.143C170.163 41.5623 169.359 41.772 168.395 41.772ZM168.31 34.122C167.698 34.122 167.177 34.309 166.746 34.683C166.316 35.057 166.027 35.5557 165.879 36.179H170.69C170.668 35.8843 170.571 35.5783 170.401 35.261C170.231 34.9437 169.971 34.6773 169.619 34.462C169.279 34.2353 168.843 34.122 168.31 34.122ZM174.882 38.984V34.428H173.369V32.83H174.882V30.382H176.718V32.83H178.843V34.428H176.718V38.593C176.718 39.0237 176.803 39.3523 176.973 39.579C177.154 39.8057 177.454 39.919 177.874 39.919C178.089 39.919 178.27 39.8907 178.418 39.834C178.576 39.7773 178.735 39.698 178.894 39.596V41.381C178.701 41.4603 178.497 41.5227 178.282 41.568C178.066 41.6133 177.811 41.636 177.517 41.636C176.712 41.636 176.072 41.4037 175.596 40.939C175.12 40.463 174.882 39.8113 174.882 38.984Z" fill="white"/>
  <rect x="0.5" y="0.5" width="250" height="54" rx="27" stroke="#747775"/>
  <defs>
    <linearGradient id="paint0_linear_1819_24377" x1="37.2843" y1="34.0448" x2="18.7823" y2="55.7227" gradientUnits="userSpaceOnUse">
      <stop stop-color="#4285F4"/>
      <stop offset="1" stop-color="#1B74E8"/>
    </linearGradient>
  </defs>
</svg>
