<?xml version="1.0" encoding="UTF-8" standalone="no"?>
<!DOCTYPE svg PUBLIC "-//W3C//DTD SVG 1.1//EN" "http://www.w3.org/Graphics/SVG/1.1/DTD/svg11.dtd">
<svg width="100%" height="100%" viewBox="0 0 2916 779" version="1.1" xmlns="http://www.w3.org/2000/svg" xmlns:xlink="http://www.w3.org/1999/xlink" xml:space="preserve" xmlns:serif="http://www.serif.com/" style="fill-rule:evenodd;clip-rule:evenodd;stroke-miterlimit:2.613;">
    <g id="BMEKicsi" transform="matrix(4.16667,0,0,4.16667,0,-1068)">
        <g transform="matrix(1,0,0,1,428.355,286.572)">
            <path d="M0,-18.412L0,-20.133L0.792,-20.133L0.792,-25.036L1.136,-26.915L2.031,-30.065L2.926,-26.915L3.271,-25.036L3.271,-20.133L4.062,-20.133L4.062,-18.412L12.774,8.331C12.299,9.221 11.942,10.477 11.852,11.653L-7.81,11.653C-7.871,10.925 -8.047,9.619 -8.721,8.352L0,-18.412Z" style="fill:rgb(35,31,32);"/>
        </g>
        <g transform="matrix(1,0,0,1,294.598,322.797)">
            <path d="M0,4.889L-4.582,4.889L-5.147,0.758L-5.147,0L0.565,0L0.565,0.758L0,4.889Z" style="fill:rgb(35,31,32);stroke:rgb(35,31,32);stroke-width:0.28px;"/>
        </g>
        <g transform="matrix(1,0,0,1,309.401,360.421)">
            <path d="M0,-24.43C-0.451,-24.898 -0.977,-25.288 -1.557,-25.582C-4.084,-26.81 -7.036,-26.81 -9.563,-25.582C-10.143,-25.288 -10.669,-24.898 -11.12,-24.43C-11.775,-23.772 -12.156,-22.888 -12.184,-21.959L-12.184,2.38L1.063,2.38L1.063,-21.959C1.036,-22.888 0.656,-23.772 0,-24.43Z" style="fill:rgb(35,31,32);"/>
        </g>
        <g transform="matrix(1,0,0,1,317.675,322.797)">
            <path d="M0,4.889L-4.583,4.889L-5.147,0.758L-5.147,0L0.565,0L0.565,0.758L0,4.889Z" style="fill:rgb(35,31,32);stroke:rgb(35,31,32);stroke-width:0.28px;"/>
        </g>
        <g transform="matrix(1,0,0,1,332.479,360.421)">
            <path d="M0,-24.43C-0.451,-24.898 -0.978,-25.288 -1.557,-25.582C-4.084,-26.81 -7.036,-26.81 -9.563,-25.582C-10.143,-25.288 -10.669,-24.898 -11.12,-24.43C-11.776,-23.772 -12.156,-22.888 -12.184,-21.959L-12.184,2.38L1.063,2.38L1.063,-21.959C1.036,-22.888 0.656,-23.772 0,-24.43Z" style="fill:rgb(35,31,32);"/>
        </g>
        <g transform="matrix(1,0,0,1,355.556,360.421)">
            <path d="M0,-24.43C-0.45,-24.898 -0.977,-25.288 -1.557,-25.582C-4.083,-26.81 -7.035,-26.81 -9.562,-25.582L-9.563,-25.582C-10.142,-25.288 -10.668,-24.898 -11.119,-24.43C-11.775,-23.772 -12.155,-22.888 -12.183,-21.959L-12.183,2.38L1.063,2.38L1.063,-21.959C1.036,-22.888 0.656,-23.772 0,-24.43Z" style="fill:rgb(35,31,32);"/>
        </g>
        <g transform="matrix(1,0,0,1,340.752,322.797)">
            <path d="M0,4.889L-4.582,4.889L-5.147,0.758L-5.147,0L0.565,0L0.565,0.758L0,4.889Z" style="fill:rgb(35,31,32);stroke:rgb(35,31,32);stroke-width:0.28px;"/>
        </g>
        <g transform="matrix(1,0,0,1,378.634,360.421)">
            <path d="M0,-24.43C-0.451,-24.898 -0.978,-25.288 -1.558,-25.582C-4.084,-26.81 -7.036,-26.81 -9.563,-25.582C-10.143,-25.288 -10.67,-24.898 -11.12,-24.43C-11.775,-23.772 -12.156,-22.888 -12.184,-21.959L-12.184,2.38L1.063,2.38L1.063,-21.959C1.036,-22.888 0.655,-23.772 0,-24.43Z" style="fill:rgb(35,31,32);"/>
        </g>
        <g transform="matrix(1,0,0,1,363.83,322.797)">
            <path d="M0,4.889L-4.583,4.889L-5.147,0.758L-5.147,0L0.564,0L0.564,0.758L0,4.889Z" style="fill:rgb(35,31,32);stroke:rgb(35,31,32);stroke-width:0.28px;"/>
        </g>
        <g transform="matrix(1,0,0,1,401.711,360.421)">
            <path d="M0,-24.43C-0.451,-24.898 -0.978,-25.288 -1.557,-25.582C-4.084,-26.81 -7.036,-26.81 -9.563,-25.582C-10.143,-25.288 -10.669,-24.898 -11.119,-24.43C-11.775,-23.772 -12.156,-22.888 -12.184,-21.959L-12.184,2.38L1.063,2.38L1.063,-21.959C1.036,-22.888 0.656,-23.772 0,-24.43Z" style="fill:rgb(35,31,32);"/>
        </g>
        <g transform="matrix(1,0,0,1,386.907,322.797)">
            <path d="M0,4.889L-4.582,4.889L-5.147,0.758L-5.147,0L0.564,0L0.564,0.758L0,4.889Z" style="fill:rgb(35,31,32);stroke:rgb(35,31,32);stroke-width:0.28px;"/>
        </g>
        <g transform="matrix(1,0,0,1,409.984,322.797)">
            <path d="M0,4.889L-4.582,4.889L-5.147,0.758L-5.147,0L0.565,0L0.565,0.758L0,4.889Z" style="fill:rgb(35,31,32);stroke:rgb(35,31,32);stroke-width:0.28px;"/>
        </g>
        <g transform="matrix(-1,0,0,1,792.744,72.2)">
            <rect x="392.723" y="310.708" width="7.298" height="6.384" style="fill:rgb(35,31,32);stroke:rgb(35,31,32);stroke-width:0.28px;"/>
        </g>
        <g transform="matrix(-1,0,0,1,792.747,49.934)">
            <rect x="391.571" y="322.881" width="9.605" height="4.304" style="fill:rgb(35,31,32);stroke:rgb(35,31,32);stroke-width:0.28px;"/>
        </g>
        <g transform="matrix(1,0,0,1,333.435,385.513)">
            <path d="M0,4.33L0,-6.514L0,-6.512C0.004,-10.109 -2.914,-13.028 -6.511,-13.026C-10.107,-13.03 -13.026,-10.112 -13.024,-6.515L-13.024,4.296L-12.947,4.402L-12.956,8.771L-0.069,8.771L-0.069,4.399L0,4.33Z" style="fill:rgb(35,31,32);"/>
        </g>
        <g transform="matrix(1,0,0,1,356.513,385.514)">
            <path d="M0,4.329L0,-6.136L-0.001,-6.136C0.002,-9.733 -2.916,-12.651 -6.513,-12.649C-10.109,-12.651 -13.028,-9.733 -13.025,-6.136L-13.025,4.295L-12.947,4.401L-12.956,8.77L-0.069,8.77L-0.069,4.398L0,4.329Z" style="fill:rgb(35,31,32);"/>
        </g>
        <g transform="matrix(1,0,0,1,379.59,385.513)">
            <path d="M0,4.33L0,-6.261L0,-6.259C0.004,-9.856 -2.914,-12.776 -6.511,-12.774C-10.107,-12.778 -13.026,-9.86 -13.024,-6.263L-13.024,4.296L-12.947,4.402L-12.956,8.771L-0.069,8.771L-0.069,4.399L0,4.33Z" style="fill:rgb(35,31,32);"/>
        </g>
        <g transform="matrix(1,0,0,1,400.803,263.305)">
            <path d="M0,41.427C0,35.903 -9.296,36.015 -9.296,41.427L-23.078,41.427C-23.078,36.123 -32.373,36.153 -32.373,41.427L-46.155,41.427C-46.155,36.152 -55.45,36.07 -55.45,41.4L-69.232,41.427C-69.232,36.18 -78.527,36.152 -78.527,41.427L-92.31,41.427C-92.31,36.22 -101.605,36.14 -101.605,41.4L-115.194,41.389L-115.189,36.643L-111.959,36.643L-89.975,11.296L-87.618,8.124L-87.591,8.096L-87.608,8.123L-87.824,8.077L-87.639,8.092L-87.837,8.092L-87.837,2.613C-87.843,2.074 -87.723,1.541 -87.488,1.055C-87.28,0.57 -86.868,0.201 -86.363,0.047L-86.09,0.006L-85.817,0.047C-85.312,0.201 -84.9,0.57 -84.692,1.056L-84.691,1.056C-84.456,1.542 -84.337,2.075 -84.343,2.615L-84.343,2.614L-84.343,7.3L-17.263,7.3L-17.263,2.613C-17.269,2.074 -17.148,1.541 -16.913,1.055C-16.705,0.57 -16.293,0.201 -15.788,0.047L-15.516,0L-15.242,0.047C-14.737,0.201 -14.325,0.57 -14.117,1.056C-13.882,1.542 -13.762,2.075 -13.768,2.615L-13.768,2.614L-13.768,8.092L-13.966,8.092L-13.97,8.132L-13.971,8.151L-13.96,8.096L-13.986,8.097L-11.549,11.268L10.354,36.643L13.628,36.643L13.604,41.427L0,41.427Z" style="fill:rgb(35,31,32);"/>
        </g>
        <g transform="matrix(-1,0,0,1,607.255,72.397)">
            <rect x="299.978" y="310.708" width="7.299" height="6.187" style="fill:rgb(35,31,32);stroke:rgb(35,31,32);stroke-width:0.28px;"/>
        </g>
        <g transform="matrix(-1,0,0,1,607.255,49.934)">
            <rect x="298.825" y="322.881" width="9.605" height="4.304" style="fill:rgb(35,31,32);stroke:rgb(35,31,32);stroke-width:0.28px;"/>
        </g>
        <g transform="matrix(1,0,0,1,271.644,286.572)">
            <path d="M0,-18.412L0,-20.133L-0.792,-20.133L-0.792,-25.036L-1.136,-26.915L-2.031,-30.065L-2.926,-26.915L-3.271,-25.036L-3.271,-20.133L-4.062,-20.133L-4.062,-18.412L-12.789,8.37C-12.11,9.661 -12.001,10.469 -11.848,11.653L7.819,11.653C7.921,10.392 8.325,9.177 8.734,8.401L0,-18.412Z" style="fill:rgb(35,31,32);"/>
        </g>
        <g transform="matrix(-0.897576,-0.440859,-0.440859,0.897576,257.963,340)">
            <path d="M-2.636,-7.323C-0.679,-8.723 1.438,-7.172 1.257,-5.411L-2.636,2.514L-6.528,0.602L-2.636,-7.323Z" style="fill:rgb(35,31,32);"/>
        </g>
        <g transform="matrix(-0.897576,-0.440859,-0.440859,0.897576,418.824,340)">
            <path d="M-2.636,-7.323C-0.679,-8.723 1.439,-7.172 1.257,-5.411L-2.636,2.514L-6.528,0.602L-2.636,-7.323Z" style="fill:rgb(35,31,32);"/>
        </g>
        <g transform="matrix(-0.897576,-0.440859,-0.440859,0.897576,266.174,340.061)">
            <path d="M-2.621,-7.385C-0.988,-8.871 1.744,-7.53 1.272,-5.473L-2.621,2.453L-6.514,0.541L-2.621,-7.385Z" style="fill:rgb(35,31,32);"/>
        </g>
        <g transform="matrix(1,0,0,1,432.643,341.364)">
            <path d="M0,-6.776C-0.81,-8.83 -3.854,-8.83 -4.337,-6.776L-4.337,2.054L0.001,2.054L0.001,-6.776L0,-6.776Z" style="fill:rgb(35,31,32);"/>
        </g>
        <g transform="matrix(1,0,0,1,279.458,341.364)">
            <path d="M0,-6.776C-0.745,-8.568 -3.33,-8.83 -4.337,-6.776L-4.338,-6.776L-4.338,2.054L0,2.054L0,-6.776Z" style="fill:rgb(35,31,32);"/>
        </g>
        <g transform="matrix(-0.897536,-0.440941,-0.440941,0.897536,434.71,340.061)">
            <path d="M-2.622,-7.385C-1.163,-8.665 1.273,-7.76 1.272,-5.472L-2.622,2.453L-6.515,0.54L-2.622,-7.385Z" style="fill:rgb(35,31,32);"/>
        </g>
        <g transform="matrix(1,0,0,1,0,12.4)">
            <rect x="259.22" y="339.012" width="4.338" height="9.576" style="fill:rgb(35,31,32);"/>
        </g>
        <g transform="matrix(1,0,0,1,0,12.4)">
            <rect x="420.081" y="339.012" width="4.337" height="9.576" style="fill:rgb(35,31,32);"/>
        </g>
        <g transform="matrix(1,0,0,1,0,12.4)">
            <rect x="267.445" y="339.012" width="4.337" height="9.576" style="fill:rgb(35,31,32);"/>
        </g>
        <g transform="matrix(1,0,0,1,0,12.4)">
            <rect x="428.306" y="339.012" width="4.338" height="9.576" style="fill:rgb(35,31,32);"/>
        </g>
        <g transform="matrix(1,0,0,1,0,12.4)">
            <rect x="275.12" y="339.012" width="4.338" height="9.576" style="fill:rgb(35,31,32);"/>
        </g>
        <g transform="matrix(1,0,0,1,0,12.4)">
            <rect x="435.981" y="339.012" width="4.338" height="9.576" style="fill:rgb(35,31,32);"/>
        </g>
        <g transform="matrix(1,0,0,1,0,55.098)">
            <rect x="259.237" y="317.498" width="4.338" height="9.906" style="fill:rgb(35,31,32);"/>
        </g>
        <g transform="matrix(1,0,0,1,0,55.098)">
            <rect x="420.098" y="317.498" width="4.338" height="9.906" style="fill:rgb(35,31,32);"/>
        </g>
        <g transform="matrix(1,0,0,1,0,55.098)">
            <rect x="267.445" y="317.498" width="4.337" height="9.906" style="fill:rgb(35,31,32);"/>
        </g>
        <g transform="matrix(1,0,0,1,0,55.098)">
            <rect x="428.306" y="317.498" width="4.338" height="9.906" style="fill:rgb(35,31,32);"/>
        </g>
        <g transform="matrix(1,0,0,1,0,55.098)">
            <rect x="275.258" y="317.498" width="4.338" height="9.906" style="fill:rgb(35,31,32);"/>
        </g>
        <g transform="matrix(1,0,0,1,0,55.098)">
            <rect x="436.119" y="317.498" width="4.338" height="9.906" style="fill:rgb(35,31,32);"/>
        </g>
        <g transform="matrix(1,0,0,1,0,86.39)">
            <rect x="259.185" y="304.895" width="4.407" height="3.82" style="fill:rgb(35,31,32);"/>
        </g>
        <g transform="matrix(1,0,0,1,0,86.39)">
            <rect x="420.046" y="304.895" width="4.407" height="3.82" style="fill:rgb(35,31,32);"/>
        </g>
        <g transform="matrix(1,0,0,1,0,86.39)">
            <rect x="267.41" y="304.895" width="4.407" height="3.82" style="fill:rgb(35,31,32);"/>
        </g>
        <g transform="matrix(1,0,0,1,0,86.39)">
            <rect x="428.271" y="304.895" width="4.406" height="3.82" style="fill:rgb(35,31,32);"/>
        </g>
        <g transform="matrix(1,0,0,1,0,86.39)">
            <rect x="275.241" y="304.895" width="4.407" height="3.82" style="fill:rgb(35,31,32);"/>
        </g>
        <g transform="matrix(1,0,0,1,0,86.39)">
            <rect x="436.102" y="304.895" width="4.406" height="3.82" style="fill:rgb(35,31,32);"/>
        </g>
        <g transform="matrix(-1,0,0,1,115.33,86.904)">
            <rect x="54.861" y="304.777" width="5.608" height="3.542" style="fill:rgb(35,31,32);stroke:rgb(35,31,32);stroke-width:0.28px;"/>
        </g>
        <g transform="matrix(-1,0,0,1,1359.34,86.904)">
            <rect x="676.865" y="304.777" width="5.608" height="3.542" style="fill:rgb(35,31,32);stroke:rgb(35,31,32);stroke-width:0.28px;"/>
        </g>
        <g transform="matrix(-1,0,0,1,78.73,86.904)">
            <rect x="36.561" y="304.777" width="5.608" height="3.542" style="fill:rgb(35,31,32);stroke:rgb(35,31,32);stroke-width:0.28px;"/>
        </g>
        <g transform="matrix(-1,0,0,1,1322.74,86.904)">
            <rect x="658.565" y="304.777" width="5.607" height="3.542" style="fill:rgb(35,31,32);stroke:rgb(35,31,32);stroke-width:0.28px;"/>
        </g>
        <g transform="matrix(-1,0,0,1,40.95,86.904)">
            <rect x="17.671" y="304.777" width="5.608" height="3.542" style="fill:rgb(35,31,32);stroke:rgb(35,31,32);stroke-width:0.28px;"/>
        </g>
        <g transform="matrix(-1,0,0,1,1284.96,86.904)">
            <rect x="639.675" y="304.777" width="5.607" height="3.542" style="fill:rgb(35,31,32);stroke:rgb(35,31,32);stroke-width:0.28px;"/>
        </g>
        <g transform="matrix(1,0,0,1,69.5225,299.972)">
            <path d="M0,15.01L0.007,7.445L-0.765,7.118L-0.762,3.156C-0.749,2.572 -1.003,0.388 -2.454,-0.024L184.128,-0.025L184.146,11.352L180.287,12.213L180.281,15.01L174.377,15.01C174.024,15.009 173.713,14.776 173.613,14.437L173.612,14.438C172.682,12.989 170.562,12.989 169.634,14.439L169.633,14.439C169.532,14.777 169.222,15.01 168.869,15.01L168.87,15.01L160.417,15.01C160.063,15.009 159.752,14.776 159.652,14.437L159.651,14.438C158.721,12.989 156.601,12.989 155.673,14.439L155.672,14.439C155.571,14.777 155.261,15.01 154.908,15.01L145.392,15.01C145.038,15.009 144.727,14.776 144.627,14.437L144.626,14.438C143.696,12.989 141.577,12.989 140.648,14.439L140.647,14.439C140.546,14.777 140.236,15.01 139.883,15.01L130.687,15.01C130.333,15.009 130.022,14.776 129.922,14.437L129.921,14.438C128.991,12.989 126.871,12.989 125.942,14.439C125.841,14.777 125.531,15.01 125.178,15.01L125.179,15.01L116.141,15.01C115.788,15.009 115.477,14.776 115.376,14.437L115.376,14.438C114.446,12.989 112.326,12.989 111.397,14.439C111.296,14.777 110.986,15.01 110.633,15.01L101.596,15.035C101.242,15.034 100.932,14.802 100.831,14.463C99.9,13.014 97.781,13.014 96.852,14.465C96.751,14.803 96.44,15.006 96.088,15.006L86.506,15.01C86.152,15.009 85.842,14.776 85.741,14.437L85.741,14.438C84.811,12.989 82.691,12.989 81.763,14.439L81.762,14.439C81.661,14.777 81.351,15.01 80.998,15.01L71.847,15.01C71.493,15.009 71.183,14.776 71.082,14.437L71.082,14.438C70.152,12.989 68.032,12.989 67.104,14.439L67.103,14.439C67.002,14.777 66.691,15.01 66.338,15.01L66.339,15.01L56.757,15.01C56.404,15.009 56.093,14.776 55.993,14.437L55.992,14.438C55.062,12.989 52.942,12.989 52.013,14.439C51.912,14.777 51.602,15.01 51.249,15.01L41.955,15.01C41.601,15.009 41.29,14.776 41.189,14.437L41.189,14.438C40.259,12.989 38.139,12.989 37.211,14.439L37.21,14.439C37.109,14.777 36.799,15.01 36.446,15.01L27.583,15.01C27.229,15.009 26.918,14.776 26.818,14.437L26.817,14.438C25.887,12.989 23.767,12.989 22.839,14.439L22.838,14.439C22.737,14.777 22.427,15.01 22.074,15.01L13.067,15.01C12.713,15.009 12.402,14.776 12.302,14.437L12.302,14.438C11.372,12.989 9.251,12.989 8.323,14.439L8.322,14.439C8.222,14.777 7.911,15.01 7.559,15.01L0,15.01Z" style="fill:rgb(35,31,32);"/>
        </g>
        <g transform="matrix(1,0,0,1,630.488,299.972)">
            <path d="M0,15.01L-0.008,7.445L0.765,7.118L0.762,3.156C0.736,2.439 1.071,0.362 2.454,-0.024L-184.128,-0.025L-184.146,11.352L-180.287,12.213L-180.294,15.01L-174.378,15.01C-174.024,15.009 -173.714,14.776 -173.613,14.437L-173.612,14.438C-172.683,12.989 -170.562,12.989 -169.634,14.439L-169.633,14.439C-169.532,14.777 -169.222,15.01 -168.869,15.01L-168.87,15.01L-160.417,15.01C-160.063,15.009 -159.752,14.776 -159.652,14.437L-159.651,14.438C-158.722,12.989 -156.602,12.989 -155.673,14.439L-155.672,14.439C-155.571,14.777 -155.261,15.01 -154.908,15.01L-145.392,15.01C-145.038,15.009 -144.728,14.776 -144.627,14.437L-144.627,14.438C-143.696,12.989 -141.576,12.989 -140.648,14.439L-140.647,14.439C-140.547,14.777 -140.236,15.01 -139.884,15.01L-130.687,15.01C-130.333,15.009 -130.022,14.776 -129.922,14.437L-129.922,14.438C-128.991,12.989 -126.871,12.989 -125.942,14.439C-125.842,14.777 -125.531,15.01 -125.179,15.01L-116.142,15.01C-115.788,15.009 -115.477,14.776 -115.377,14.437L-115.376,14.438C-114.446,12.989 -112.326,12.989 -111.397,14.439L-111.396,14.439C-111.297,14.777 -110.985,15.01 -110.633,15.01L-101.597,15.035L-101.596,15.035C-101.242,15.034 -100.932,14.802 -100.831,14.463C-99.9,13.014 -97.781,13.014 -96.853,14.465L-96.852,14.465C-96.751,14.803 -96.44,15.006 -96.088,15.006L-86.507,15.01C-86.152,15.009 -85.842,14.776 -85.741,14.437L-85.741,14.438C-84.812,12.989 -82.691,12.989 -81.763,14.439L-81.762,14.439C-81.661,14.777 -81.351,15.01 -80.998,15.01L-71.847,15.01C-71.493,15.009 -71.183,14.776 -71.082,14.437L-71.082,14.438C-70.152,12.989 -68.032,12.989 -67.104,14.439L-67.103,14.439C-67.002,14.777 -66.691,15.01 -66.339,15.01L-56.758,15.01C-56.404,15.009 -56.093,14.776 -55.993,14.437L-55.992,14.438C-55.062,12.989 -52.941,12.989 -52.014,14.439L-52.013,14.439C-51.912,14.777 -51.602,15.01 -51.249,15.01L-41.955,15.01C-41.602,15.009 -41.29,14.776 -41.189,14.437L-41.189,14.438C-40.26,12.989 -38.14,12.989 -37.211,14.439L-37.21,14.439C-37.109,14.777 -36.799,15.01 -36.446,15.01L-27.583,15.01C-27.229,15.009 -26.918,14.776 -26.818,14.437L-26.817,14.438C-25.888,12.989 -23.768,12.989 -22.839,14.439L-22.838,14.439C-22.737,14.777 -22.427,15.01 -22.074,15.01L-13.067,15.01C-12.714,15.009 -12.402,14.776 -12.303,14.437L-12.302,14.438C-11.372,12.989 -9.252,12.989 -8.323,14.439L-8.322,14.439C-8.222,14.777 -7.911,15.01 -7.559,15.01L-7.56,15.01L0,15.01Z" style="fill:rgb(35,31,32);"/>
        </g>
        <g transform="matrix(1,0,0,1,38.9199,315.843)">
            <path d="M0,71.694L-30.433,71.694M0,3.58L-24.622,3.58M-30.192,12.359L0,12.359M90.284,12.359L105.948,12.359M105.948,71.694L90.284,71.694M311.08,6.954L374.925,6.954M391.467,51.09L311.08,51.09M311.08,0L374.752,0" style="fill:none;fill-rule:nonzero;stroke:rgb(35,31,32);stroke-width:1.98px;stroke-linecap:round;stroke-linejoin:round;"/>
        </g>
        <g transform="matrix(1,0,0,1,50.7109,339.355)">
            <path d="M0,48.182L0,-11.153M19.916,59.335L19.916,49.111" style="fill:none;fill-rule:nonzero;stroke:rgb(35,31,32);stroke-width:1.94px;stroke-linecap:round;stroke-linejoin:round;"/>
        </g>
        <g transform="matrix(0,-1,-1,0,78.8804,378.556)">
            <path d="M-8.981,8.981L8.981,8.981" style="fill:none;fill-rule:nonzero;stroke:rgb(35,31,32);stroke-width:3.05px;"/>
        </g>
        <g transform="matrix(0,-1,-1,0,91.3031,345.238)">
            <path d="M-21.663,21.663L21.663,21.663" style="fill:none;fill-rule:nonzero;stroke:rgb(35,31,32);stroke-width:3.09px;"/>
        </g>
        <g transform="matrix(1,0,0,1,113.54,378.758)">
            <path d="M0,-50.556L15.665,-50.556M15.665,8.779L0,8.779M-31.328,-50.556L-15.664,-50.556M-15.664,8.779L-31.328,8.779M-15.664,-50.556L0,-50.556M0,8.779L-15.664,8.779M-44.411,-50.556L-44.411,-47.702M-31.328,8.779L-43.911,8.779M-31.328,8.779L-46.992,8.779M-44.411,-50.556L-31.328,-50.556M-44.341,-50.556L-74.62,-50.556M-74.62,-59.335L-50.001,-59.335M-74.62,8.779L-43.911,8.779M-67.993,8.779L-67.993,-50.556M-49.574,8.779L-49.574,-50.556" style="fill:none;fill-rule:nonzero;stroke:rgb(35,31,32);stroke-width:1.94px;stroke-linecap:round;stroke-linejoin:round;"/>
        </g>
        <g transform="matrix(1,0,0,1,350,380.583)">
            <path d="M0,-57.786L-63.844,-57.786M-54.837,-57.768L-54.837,-57.786M-343.201,-13.651L0,-13.651M0,-64.74L-63.672,-64.74M-126.811,-52.381L-111.147,-52.381M-111.147,6.954L-126.811,6.954M-158.139,-52.381L-142.475,-52.381M-142.475,6.954L-158.139,6.954M-142.475,-52.381L-126.811,-52.381M-126.811,6.954L-142.475,6.954M-189.468,-52.381L-173.804,-52.381M-173.804,6.954L-189.468,6.954M-205.132,-52.381L-189.468,-52.381M-189.468,6.954L-205.132,6.954M-173.804,-52.381L-158.139,-52.381M-158.139,6.954L-173.804,6.954M-97.916,6.954L-111.147,6.954M-111.147,-52.381L-96.929,-52.381" style="fill:none;fill-rule:nonzero;stroke:rgb(35,31,32);stroke-width:1.98px;stroke-linecap:round;stroke-linejoin:round;"/>
        </g>
        <g transform="matrix(1,0,0,1,252.968,386.813)">
            <path d="M0,-70.97L16.645,-70.97M16.645,-58.955L0.172,-58.955M33.583,0L-0.361,0" style="fill:none;fill-rule:nonzero;stroke:rgb(35,31,32);stroke-width:1.94px;stroke-linecap:round;stroke-linejoin:round;"/>
        </g>
        <g transform="matrix(1,0,0,1,253.69,311.325)">
            <path d="M0,0L32.225,0" style="fill:none;fill-rule:nonzero;stroke:rgb(35,31,32);stroke-width:1.98px;stroke-linecap:round;stroke-linejoin:round;"/>
        </g>
        <g transform="matrix(1,0,0,1,430.387,386.676)">
            <path d="M0,-58.818L16.556,-58.818M0,-19.743L18.591,-19.743M0,0.138L17.007,0.138M0,0.138L-17.007,0.138M-42.328,7.608L-118.445,7.608M-118.445,12.015L-118.445,7.608M-109.907,7.6L-109.907,7.608M-140.936,-63.862L-140.936,-63.879M-174.974,-66.375L-174.32,-66.375M-174.974,-66.375L-174.32,-66.375M-160.773,-66.375L-144.264,-66.375M-144.128,-70.833L-160.773,-70.833M-160.773,-58.818L-144.258,-58.818M-160.773,-66.375L-177.291,-66.375" style="fill:none;fill-rule:nonzero;stroke:rgb(35,31,32);stroke-width:1.94px;stroke-linecap:round;stroke-linejoin:round;"/>
        </g>
        <g transform="matrix(-1,0,0,1,430.386,315.843)">
            <path d="M-16.475,0L0,0" style="fill:none;fill-rule:nonzero;stroke:rgb(35,31,32);stroke-width:1.94px;stroke-linecap:round;stroke-linejoin:round;"/>
        </g>
        <g transform="matrix(-1,0,0,1,414.084,311.325)">
            <path d="M-32.603,0L0,0" style="fill:none;fill-rule:nonzero;stroke:rgb(35,31,32);stroke-width:1.94px;stroke-linecap:round;stroke-linejoin:round;"/>
        </g>
        <g transform="matrix(1,0,0,1,413.845,320.301)">
            <path d="M0,0L33.081,0" style="fill:none;fill-rule:nonzero;stroke:rgb(35,31,32);stroke-width:1.94px;stroke-linecap:round;stroke-linejoin:round;"/>
        </g>
        <g transform="matrix(1,0,0,1,413.741,398.69)">
            <path d="M0,-82.847L16.646,-82.847M16.646,-70.832L0.172,-70.832M-25.683,0L-25.683,-3.889M-25.683,-2.341L-25.683,-4.406" style="fill:none;fill-rule:nonzero;stroke:rgb(35,31,32);stroke-width:1.94px;stroke-linecap:round;stroke-linejoin:round;"/>
        </g>
        <g transform="matrix(1,0,0,1,0,100.626)">
            <rect x="0" y="298.065" width="700" height="3.244" style="fill:rgb(35,31,32);"/>
        </g>
        <g transform="matrix(1,0,0,1,661.08,378.242)">
            <path d="M0,-58.819L-24.603,-58.819M-30.278,-50.04L0,-50.04M-30.209,-50.04L-43.291,-50.04M-43.291,9.295L-27.627,9.295M-43.291,9.295L-30.708,9.295M-25.045,9.295L-25.045,-50.04M-11.791,9.295L-11.791,-50.04M-6.627,9.295L-6.627,-50.04M6.628,9.295L6.628,-50.04M11.791,9.295L11.791,-50.04M0,9.295L-30.708,9.295M25.046,9.295L25.046,-50.04M30.278,-50.04L0,-50.04M0,-58.819L30.898,-58.819M0,9.295L30.479,9.295M-105.948,9.295L-90.284,9.295M-90.284,-50.04L-105.948,-50.04M32.121,-11.31L-311.08,-11.31M-647.206,9.295L-647.206,-50.04M-628.788,9.295L-628.788,-50.04M-633.952,9.295L-633.952,-50.04M-640.604,-68.114L-640.604,-58.819M-622.16,-68.114L-622.16,-58.819M-603.717,-68.114L-603.717,-58.819" style="fill:none;fill-rule:nonzero;stroke:rgb(35,31,32);stroke-width:1.94px;stroke-linecap:round;stroke-linejoin:round;"/>
        </g>
        <g transform="matrix(0,-1,-1,0,651.852,345.187)">
            <path d="M-21.618,21.618L21.618,21.618" style="fill:none;fill-rule:nonzero;stroke:rgb(35,31,32);stroke-width:3.03px;stroke-linecap:round;"/>
        </g>
        <g transform="matrix(0,-1,-1,0,638.951,378.561)">
            <path d="M-8.974,8.974L8.974,8.974" style="fill:none;fill-rule:nonzero;stroke:rgb(35,31,32);stroke-width:3.06px;stroke-linecap:round;"/>
        </g>
        <g transform="matrix(1,0,0,1,523.804,328.202)">
            <path d="M0,59.335L15.664,59.335M15.664,59.335L31.328,59.335M-15.664,59.335L0,59.335M0,0L-15.664,0M-62.656,0L-76.834,0M-75.908,59.335L-62.656,59.335M93.985,0L78.321,0M78.321,0L62.656,0M46.992,59.335L62.656,59.335M78.321,59.335L93.985,59.335M62.656,59.335L78.321,59.335" style="fill:none;fill-rule:nonzero;stroke:rgb(35,31,32);stroke-width:1.94px;stroke-linecap:round;stroke-linejoin:round;"/>
        </g>
        <g transform="matrix(-1,0,0,1,523.804,328.202)">
            <path d="M-63.438,0L0,0" style="fill:none;fill-rule:nonzero;stroke:rgb(35,31,32);stroke-width:1.94px;stroke-linecap:round;stroke-linejoin:round;"/>
        </g>
        <g transform="matrix(1,0,0,1,508.14,387.537)">
            <path d="M0,-59.335L-15.665,-59.335M-15.665,-59.335L-47.147,-59.335M-46.992,0L-31.329,0M-15.665,0L0,0M-31.329,0L-15.665,0" style="fill:none;fill-rule:nonzero;stroke:rgb(35,31,32);stroke-width:1.94px;stroke-linecap:round;stroke-linejoin:round;"/>
        </g>
        <g transform="matrix(1,0,0,1,296.733,311.332)">
            <path d="M0,-6.6L0,0M14.223,-6.6L14.223,0M37.301,-6.6L37.301,0M23.078,-6.6L23.078,0M60.378,-6.6L60.378,0M46.155,-6.6L46.155,0M83.456,-6.6L83.456,0M69.232,-6.6L69.232,0M106.533,-6.6L106.533,0M92.31,-6.6L92.31,0" style="fill:none;fill-rule:nonzero;stroke:rgb(35,31,32);stroke-width:1.15px;stroke-linecap:round;stroke-linejoin:round;"/>
        </g>
        <g transform="matrix(1,0,0,1,0,-91.223)">
            <rect x="263.411" y="393.105" width="2.183" height="5.013" style="fill:rgb(35,31,32);"/>
        </g>
        <g transform="matrix(1,0,0,1,0,-91.223)">
            <rect x="273.593" y="393.105" width="2.183" height="5.013" style="fill:rgb(35,31,32);"/>
        </g>
        <g transform="matrix(1,0,0,1,0,-91.223)">
            <rect x="268.67" y="393.105" width="2.183" height="5.013" style="fill:rgb(35,31,32);"/>
        </g>
        <g transform="matrix(1,0,0,1,0,-91.223)">
            <rect x="424.253" y="393.105" width="2.183" height="5.013" style="fill:rgb(35,31,32);"/>
        </g>
        <g transform="matrix(1,0,0,1,0,-91.223)">
            <rect x="434.435" y="393.105" width="2.183" height="5.013" style="fill:rgb(35,31,32);"/>
        </g>
        <g transform="matrix(1,0,0,1,0,-91.223)">
            <rect x="429.512" y="393.105" width="2.183" height="5.013" style="fill:rgb(35,31,32);"/>
        </g>
        <g transform="matrix(1,0,0,1,79.6948,343.418)">
            <path d="M0,-11.099C2.206,-11.099 4.005,-9.3 4.005,-7.094L4.005,0L-4.005,0L-4.005,-7.094C-4.005,-9.3 -2.206,-11.099 0,-11.099" style="fill:rgb(35,31,32);"/>
        </g>
        <g transform="matrix(1,0,0,1,79.6948,360.964)">
            <path d="M0,-11.1C2.206,-11.1 4.005,-9.301 4.005,-7.095L4.005,0L-4.005,0L-4.005,-7.095C-4.005,-9.301 -2.206,-11.1 0,-11.1" style="fill:rgb(35,31,32);"/>
        </g>
        <g transform="matrix(1,0,0,1,457.521,343.418)">
            <path d="M0,-11.099C2.206,-11.099 4.005,-9.3 4.005,-7.094L4.005,0L-4.005,0L-4.005,-7.094C-4.005,-9.3 -2.206,-11.099 0,-11.099" style="fill:rgb(35,31,32);"/>
        </g>
        <g transform="matrix(1,0,0,1,457.521,360.989)">
            <path d="M0,-11.1C2.206,-11.1 4.005,-9.301 4.005,-7.095L4.005,0L-4.005,0L-4.005,-7.095C-4.005,-9.301 -2.206,-11.1 0,-11.1" style="fill:rgb(35,31,32);"/>
        </g>
        <g transform="matrix(1,0,0,1,168.242,343.418)">
            <path d="M0,-11.099C2.206,-11.099 4.005,-9.3 4.005,-7.094L4.005,0L-4.005,0L-4.005,-7.094C-4.005,-9.3 -2.206,-11.099 0,-11.099" style="fill:rgb(35,31,32);"/>
        </g>
        <g transform="matrix(1,0,0,1,168.242,360.964)">
            <path d="M0,-11.1C2.206,-11.1 4.005,-9.301 4.005,-7.095L4.005,0L-4.005,0L-4.005,-7.095C-4.005,-9.301 -2.206,-11.1 0,-11.1" style="fill:rgb(35,31,32);"/>
        </g>
        <g transform="matrix(1,0,0,1,546.069,343.418)">
            <path d="M0,-11.099C2.206,-11.099 4.005,-9.3 4.005,-7.094L4.005,0L-4.006,0L-4.006,-7.094C-4.006,-9.3 -2.206,-11.099 0,-11.099" style="fill:rgb(35,31,32);"/>
        </g>
        <g transform="matrix(1,0,0,1,546.069,360.989)">
            <path d="M0,-11.1C2.206,-11.1 4.005,-9.301 4.005,-7.095L4.005,0L-4.006,0L-4.006,-7.095C-4.006,-9.301 -2.206,-11.1 0,-11.1" style="fill:rgb(35,31,32);"/>
        </g>
        <g transform="matrix(1,0,0,1,57.29,342.656)">
            <path d="M0,-11.1C0.922,-11.1 2.534,-10.304 2.534,-8.098L2.534,0L-2.534,0L-2.534,-8.098C-2.534,-10.304 -0.922,-11.1 0,-11.1" style="fill:rgb(35,31,32);"/>
        </g>
        <g transform="matrix(1,0,0,1,642.335,342.656)">
            <path d="M0,-11.1C0.923,-11.1 2.534,-10.304 2.534,-8.098L2.534,0L-2.534,0L-2.534,-8.098C-2.534,-10.304 -0.922,-11.1 0,-11.1" style="fill:rgb(35,31,32);"/>
        </g>
        <g transform="matrix(1,0,0,1,660.834,342.656)">
            <path d="M0,-11.1C0.922,-11.1 2.533,-10.304 2.533,-8.098L2.533,0L-2.534,0L-2.534,-8.098C-2.534,-10.304 -0.922,-11.1 0,-11.1" style="fill:rgb(35,31,32);"/>
        </g>
        <g transform="matrix(1,0,0,1,679.333,342.656)">
            <path d="M0,-11.1C0.922,-11.1 2.533,-10.304 2.533,-8.098L2.533,0L-2.534,0L-2.534,-8.098C-2.534,-10.304 -0.922,-11.1 0,-11.1" style="fill:rgb(35,31,32);"/>
        </g>
        <g transform="matrix(1,0,0,1,642.335,360.987)">
            <path d="M0,-11.099C0.923,-11.099 2.534,-10.304 2.534,-8.098L2.534,0L-2.534,0L-2.534,-8.098C-2.534,-10.304 -0.922,-11.099 0,-11.099" style="fill:rgb(35,31,32);"/>
        </g>
        <g transform="matrix(1,0,0,1,660.834,360.987)">
            <path d="M0,-11.099C0.922,-11.099 2.533,-10.304 2.533,-8.098L2.533,0L-2.534,0L-2.534,-8.098C-2.534,-10.304 -0.922,-11.099 0,-11.099" style="fill:rgb(35,31,32);"/>
        </g>
        <g transform="matrix(1,0,0,1,679.333,360.987)">
            <path d="M0,-11.099C0.922,-11.099 2.533,-10.304 2.533,-8.098L2.533,0L-2.534,0L-2.534,-8.098C-2.534,-10.304 -0.922,-11.099 0,-11.099" style="fill:rgb(35,31,32);"/>
        </g>
        <g transform="matrix(1,0,0,1,39.2334,342.656)">
            <path d="M0,-11.1C0.922,-11.1 2.534,-10.304 2.534,-8.098L2.534,0L-2.534,0L-2.534,-8.098C-2.534,-10.304 -0.922,-11.1 0,-11.1" style="fill:rgb(35,31,32);"/>
        </g>
        <g transform="matrix(1,0,0,1,20.3169,342.656)">
            <path d="M0,-11.1C0.922,-11.1 2.534,-10.304 2.534,-8.098L2.534,0L-2.534,0L-2.534,-8.098C-2.534,-10.304 -0.922,-11.1 0,-11.1" style="fill:rgb(35,31,32);"/>
        </g>
        <g transform="matrix(1,0,0,1,57.29,360.964)">
            <path d="M0,-11.1C0.922,-11.1 2.534,-10.304 2.534,-8.098L2.534,0L-2.534,0L-2.534,-8.098C-2.534,-10.304 -0.922,-11.1 0,-11.1" style="fill:rgb(35,31,32);"/>
        </g>
        <g transform="matrix(1,0,0,1,39.2334,360.964)">
            <path d="M0,-11.1C0.922,-11.1 2.534,-10.304 2.534,-8.098L2.534,0L-2.534,0L-2.534,-8.098C-2.534,-10.304 -0.922,-11.1 0,-11.1" style="fill:rgb(35,31,32);"/>
        </g>
        <g transform="matrix(1,0,0,1,20.3169,360.964)">
            <path d="M0,-11.1C0.922,-11.1 2.534,-10.304 2.534,-8.098L2.534,0L-2.534,0L-2.534,-8.098C-2.534,-10.304 -0.922,-11.1 0,-11.1" style="fill:rgb(35,31,32);"/>
        </g>
        <g transform="matrix(1,0,0,1,94.4526,343.418)">
            <path d="M0,-11.099C2.206,-11.099 4.005,-9.3 4.005,-7.094L4.005,0L-4.005,0L-4.005,-7.094C-4.005,-9.3 -2.206,-11.099 0,-11.099" style="fill:rgb(35,31,32);"/>
        </g>
        <g transform="matrix(1,0,0,1,94.4526,360.964)">
            <path d="M0,-11.1C2.206,-11.1 4.005,-9.301 4.005,-7.095L4.005,0L-4.005,0L-4.005,-7.095C-4.005,-9.301 -2.206,-11.1 0,-11.1" style="fill:rgb(35,31,32);"/>
        </g>
        <g transform="matrix(1,0,0,1,472.279,343.418)">
            <path d="M0,-11.099C2.206,-11.099 4.006,-9.3 4.006,-7.094L4.006,0L-4.005,0L-4.005,-7.094C-4.005,-9.3 -2.206,-11.099 0,-11.099" style="fill:rgb(35,31,32);"/>
        </g>
        <g transform="matrix(1,0,0,1,472.279,360.989)">
            <path d="M0,-11.1C2.206,-11.1 4.006,-9.301 4.006,-7.095L4.006,0L-4.005,0L-4.005,-7.095C-4.005,-9.301 -2.206,-11.1 0,-11.1" style="fill:rgb(35,31,32);"/>
        </g>
        <g transform="matrix(1,0,0,1,183,343.418)">
            <path d="M0,-11.099C2.206,-11.099 4.005,-9.3 4.005,-7.094L4.005,0L-4.005,0L-4.005,-7.094C-4.005,-9.3 -2.206,-11.099 0,-11.099" style="fill:rgb(35,31,32);"/>
        </g>
        <g transform="matrix(1,0,0,1,183,360.964)">
            <path d="M0,-11.1C2.206,-11.1 4.005,-9.301 4.005,-7.095L4.005,0L-4.005,0L-4.005,-7.095C-4.005,-9.301 -2.206,-11.1 0,-11.1" style="fill:rgb(35,31,32);"/>
        </g>
        <g transform="matrix(1,0,0,1,560.827,343.418)">
            <path d="M0,-11.099C2.206,-11.099 4.005,-9.3 4.005,-7.094L4.005,0L-4.006,0L-4.006,-7.094C-4.006,-9.3 -2.206,-11.099 0,-11.099" style="fill:rgb(35,31,32);"/>
        </g>
        <g transform="matrix(1,0,0,1,560.827,360.989)">
            <path d="M0,-11.1C2.206,-11.1 4.005,-9.301 4.005,-7.095L4.005,0L-4.006,0L-4.006,-7.095C-4.006,-9.301 -2.206,-11.1 0,-11.1" style="fill:rgb(35,31,32);"/>
        </g>
        <g transform="matrix(1,0,0,1,109.21,343.418)">
            <path d="M0,-11.099C2.206,-11.099 4.005,-9.3 4.005,-7.094L4.005,0L-4.005,0L-4.005,-7.094C-4.005,-9.3 -2.206,-11.099 0,-11.099" style="fill:rgb(35,31,32);"/>
        </g>
        <g transform="matrix(1,0,0,1,109.21,360.964)">
            <path d="M0,-11.1C2.206,-11.1 4.005,-9.301 4.005,-7.095L4.005,0L-4.005,0L-4.005,-7.095C-4.005,-9.301 -2.206,-11.1 0,-11.1" style="fill:rgb(35,31,32);"/>
        </g>
        <g transform="matrix(1,0,0,1,487.037,343.418)">
            <path d="M0,-11.099C2.207,-11.099 4.006,-9.3 4.006,-7.094L4.006,0L-4.005,0L-4.005,-7.094C-4.005,-9.3 -2.206,-11.099 0,-11.099" style="fill:rgb(35,31,32);"/>
        </g>
        <g transform="matrix(1,0,0,1,487.037,360.989)">
            <path d="M0,-11.1C2.207,-11.1 4.006,-9.301 4.006,-7.095L4.006,0L-4.005,0L-4.005,-7.095C-4.005,-9.301 -2.206,-11.1 0,-11.1" style="fill:rgb(35,31,32);"/>
        </g>
        <g transform="matrix(1,0,0,1,197.758,343.418)">
            <path d="M0,-11.099C2.206,-11.099 4.005,-9.3 4.005,-7.094L4.005,0L-4.005,0L-4.005,-7.094C-4.005,-9.3 -2.206,-11.099 0,-11.099" style="fill:rgb(35,31,32);"/>
        </g>
        <g transform="matrix(1,0,0,1,197.758,360.964)">
            <path d="M0,-11.1C2.206,-11.1 4.005,-9.301 4.005,-7.095L4.005,0L-4.005,0L-4.005,-7.095C-4.005,-9.301 -2.206,-11.1 0,-11.1" style="fill:rgb(35,31,32);"/>
        </g>
        <g transform="matrix(1,0,0,1,575.585,343.418)">
            <path d="M0,-11.099C2.206,-11.099 4.005,-9.3 4.005,-7.094L4.005,0L-4.006,0L-4.006,-7.094C-4.006,-9.3 -2.206,-11.099 0,-11.099" style="fill:rgb(35,31,32);"/>
        </g>
        <g transform="matrix(1,0,0,1,575.585,360.989)">
            <path d="M0,-11.1C2.206,-11.1 4.005,-9.301 4.005,-7.095L4.005,0L-4.006,0L-4.006,-7.095C-4.006,-9.301 -2.206,-11.1 0,-11.1" style="fill:rgb(35,31,32);"/>
        </g>
        <g transform="matrix(1,0,0,1,123.968,343.418)">
            <path d="M0,-11.099C2.206,-11.099 4.005,-9.3 4.005,-7.094L4.005,0L-4.005,0L-4.005,-7.094C-4.005,-9.3 -2.206,-11.099 0,-11.099" style="fill:rgb(35,31,32);"/>
        </g>
        <g transform="matrix(1,0,0,1,123.968,360.964)">
            <path d="M0,-11.1C2.206,-11.1 4.005,-9.301 4.005,-7.095L4.005,0L-4.005,0L-4.005,-7.095C-4.005,-9.301 -2.206,-11.1 0,-11.1" style="fill:rgb(35,31,32);"/>
        </g>
        <g transform="matrix(1,0,0,1,501.795,343.418)">
            <path d="M0,-11.099C2.207,-11.099 4.006,-9.3 4.006,-7.094L4.006,0L-4.005,0L-4.005,-7.094C-4.005,-9.3 -2.206,-11.099 0,-11.099" style="fill:rgb(35,31,32);"/>
        </g>
        <g transform="matrix(1,0,0,1,501.795,360.989)">
            <path d="M0,-11.1C2.207,-11.1 4.006,-9.301 4.006,-7.095L4.006,0L-4.005,0L-4.005,-7.095C-4.005,-9.301 -2.206,-11.1 0,-11.1" style="fill:rgb(35,31,32);"/>
        </g>
        <g transform="matrix(1,0,0,1,212.516,343.418)">
            <path d="M0,-11.099C2.206,-11.099 4.005,-9.3 4.005,-7.094L4.005,0L-4.005,0L-4.005,-7.094C-4.005,-9.3 -2.206,-11.099 0,-11.099" style="fill:rgb(35,31,32);"/>
        </g>
        <g transform="matrix(1,0,0,1,212.516,360.964)">
            <path d="M0,-11.1C2.206,-11.1 4.005,-9.301 4.005,-7.095L4.005,0L-4.005,0L-4.005,-7.095C-4.005,-9.301 -2.206,-11.1 0,-11.1" style="fill:rgb(35,31,32);"/>
        </g>
        <g transform="matrix(1,0,0,1,590.343,343.418)">
            <path d="M0,-11.099C2.206,-11.099 4.005,-9.3 4.005,-7.094L4.005,0L-4.006,0L-4.006,-7.094C-4.006,-9.3 -2.206,-11.099 0,-11.099" style="fill:rgb(35,31,32);"/>
        </g>
        <g transform="matrix(1,0,0,1,590.343,360.989)">
            <path d="M0,-11.1C2.206,-11.1 4.005,-9.301 4.005,-7.095L4.005,0L-4.006,0L-4.006,-7.095C-4.006,-9.301 -2.206,-11.1 0,-11.1" style="fill:rgb(35,31,32);"/>
        </g>
        <g transform="matrix(1,0,0,1,138.726,343.418)">
            <path d="M0,-11.099C2.207,-11.099 4.005,-9.3 4.005,-7.094L4.005,0L-4.005,0L-4.005,-7.094C-4.005,-9.3 -2.206,-11.099 0,-11.099" style="fill:rgb(35,31,32);"/>
        </g>
        <g transform="matrix(1,0,0,1,138.726,360.964)">
            <path d="M0,-11.1C2.207,-11.1 4.005,-9.301 4.005,-7.095L4.005,0L-4.005,0L-4.005,-7.095C-4.005,-9.301 -2.206,-11.1 0,-11.1" style="fill:rgb(35,31,32);"/>
        </g>
        <g transform="matrix(1,0,0,1,516.553,343.418)">
            <path d="M0,-11.099C2.206,-11.099 4.006,-9.3 4.006,-7.094L4.006,0L-4.005,0L-4.005,-7.094C-4.005,-9.3 -2.206,-11.099 0,-11.099" style="fill:rgb(35,31,32);"/>
        </g>
        <g transform="matrix(1,0,0,1,516.553,360.989)">
            <path d="M0,-11.1C2.206,-11.1 4.006,-9.301 4.006,-7.095L4.006,0L-4.005,0L-4.005,-7.095C-4.005,-9.301 -2.206,-11.1 0,-11.1" style="fill:rgb(35,31,32);"/>
        </g>
        <g transform="matrix(1,0,0,1,227.273,343.418)">
            <path d="M0,-11.099C2.206,-11.099 4.005,-9.3 4.005,-7.094L4.005,0L-4.005,0L-4.005,-7.094C-4.005,-9.3 -2.206,-11.099 0,-11.099" style="fill:rgb(35,31,32);"/>
        </g>
        <g transform="matrix(1,0,0,1,227.273,360.964)">
            <path d="M0,-11.1C2.206,-11.1 4.005,-9.301 4.005,-7.095L4.005,0L-4.005,0L-4.005,-7.095C-4.005,-9.301 -2.206,-11.1 0,-11.1" style="fill:rgb(35,31,32);"/>
        </g>
        <g transform="matrix(1,0,0,1,605.101,343.418)">
            <path d="M0,-11.099C2.206,-11.099 4.005,-9.3 4.005,-7.094L4.005,0L-4.005,0L-4.005,-7.094C-4.005,-9.3 -2.206,-11.099 0,-11.099" style="fill:rgb(35,31,32);"/>
        </g>
        <g transform="matrix(1,0,0,1,605.101,360.989)">
            <path d="M0,-11.1C2.206,-11.1 4.005,-9.301 4.005,-7.095L4.005,0L-4.005,0L-4.005,-7.095C-4.005,-9.301 -2.206,-11.1 0,-11.1" style="fill:rgb(35,31,32);"/>
        </g>
        <g transform="matrix(1,0,0,1,241.146,343.418)">
            <path d="M0,-11.099C2.206,-11.099 4.005,-9.3 4.005,-7.094L4.005,0L-4.005,0L-4.005,-7.094C-4.005,-9.3 -2.206,-11.099 0,-11.099" style="fill:rgb(35,31,32);"/>
        </g>
        <g transform="matrix(1,0,0,1,241.146,360.964)">
            <path d="M0,-11.1C2.206,-11.1 4.005,-9.301 4.005,-7.095L4.005,0L-4.005,0L-4.005,-7.095C-4.005,-9.301 -2.206,-11.1 0,-11.1" style="fill:rgb(35,31,32);"/>
        </g>
        <g transform="matrix(1,0,0,1,618.973,343.418)">
            <path d="M0,-11.099C2.206,-11.099 4.006,-9.3 4.006,-7.094L4.006,0L-4.005,0L-4.005,-7.094C-4.005,-9.3 -2.206,-11.099 0,-11.099" style="fill:rgb(35,31,32);"/>
        </g>
        <g transform="matrix(1,0,0,1,618.973,360.989)">
            <path d="M0,-11.1C2.206,-11.1 4.006,-9.301 4.006,-7.095L4.006,0L-4.005,0L-4.005,-7.095C-4.005,-9.301 -2.206,-11.1 0,-11.1" style="fill:rgb(35,31,32);"/>
        </g>
        <g transform="matrix(1,0,0,1,153.484,343.418)">
            <path d="M0,-11.099C2.207,-11.099 4.005,-9.3 4.005,-7.094L4.005,0L-4.005,0L-4.005,-7.094C-4.005,-9.3 -2.206,-11.099 0,-11.099" style="fill:rgb(35,31,32);"/>
        </g>
        <g transform="matrix(1,0,0,1,153.484,360.964)">
            <path d="M0,-11.1C2.207,-11.1 4.005,-9.301 4.005,-7.095L4.005,0L-4.005,0L-4.005,-7.095C-4.005,-9.301 -2.206,-11.1 0,-11.1" style="fill:rgb(35,31,32);"/>
        </g>
        <g transform="matrix(1,0,0,1,531.311,343.418)">
            <path d="M0,-11.099C2.205,-11.099 4.005,-9.3 4.005,-7.094L4.005,0L-4.006,0L-4.006,-7.094C-4.006,-9.3 -2.206,-11.099 0,-11.099" style="fill:rgb(35,31,32);"/>
        </g>
        <g transform="matrix(1,0,0,1,531.311,360.989)">
            <path d="M0,-11.1C2.205,-11.1 4.005,-9.301 4.005,-7.095L4.005,0L-4.006,0L-4.006,-7.095C-4.006,-9.301 -2.206,-11.1 0,-11.1" style="fill:rgb(35,31,32);"/>
        </g>
        <g transform="matrix(1,0,0,1,79.6948,383.224)">
            <path d="M0,-10.878C2.206,-10.878 3.228,-9.224 3.228,-6.512L3.228,0L-3.293,0L-3.293,-6.512C-3.293,-9.224 -2.206,-10.878 0,-10.878" style="fill:rgb(35,31,32);"/>
        </g>
        <g transform="matrix(1,0,0,1,457.521,383.224)">
            <path d="M0,-10.878C2.206,-10.878 3.229,-9.224 3.229,-6.512L3.229,0L-3.292,0L-3.292,-6.512C-3.292,-9.224 -2.206,-10.878 0,-10.878" style="fill:rgb(35,31,32);"/>
        </g>
        <g transform="matrix(1,0,0,1,168.242,383.224)">
            <path d="M0,-10.878C2.206,-10.878 3.229,-9.224 3.229,-6.512L3.229,0L-3.292,0L-3.292,-6.512C-3.292,-9.224 -2.206,-10.878 0,-10.878" style="fill:rgb(35,31,32);"/>
        </g>
        <g transform="matrix(1,0,0,1,546.069,383.224)">
            <path d="M0,-10.878C2.206,-10.878 3.228,-9.224 3.228,-6.512L3.228,0L-3.293,0L-3.293,-6.512C-3.293,-9.224 -2.206,-10.878 0,-10.878" style="fill:rgb(35,31,32);"/>
        </g>
        <g transform="matrix(1,0,0,1,57.3062,382.928)">
            <path d="M0,-11.443C1.231,-11.443 2.518,-11.25 2.518,-8.649L2.518,0L-2.268,0L-2.268,-8.649C-2.268,-11.25 -1.231,-11.443 0,-11.443" style="fill:rgb(35,31,32);"/>
        </g>
        <g transform="matrix(1,0,0,1,642.352,381.194)">
            <path d="M0,-9.709C1.23,-9.709 2.518,-9.223 2.518,-7.017L2.518,0L-2.268,0L-2.268,-7.017C-2.268,-9.223 -1.231,-9.709 0,-9.709" style="fill:rgb(35,31,32);"/>
        </g>
        <g transform="matrix(1,0,0,1,660.85,381.194)">
            <path d="M0,-9.709C1.231,-9.709 2.519,-9.223 2.519,-7.017L2.519,0L-2.268,0L-2.268,-7.017C-2.268,-9.223 -1.23,-9.709 0,-9.709" style="fill:rgb(35,31,32);"/>
        </g>
        <g transform="matrix(1,0,0,1,679.349,381.194)">
            <path d="M0,-9.709C1.231,-9.709 2.518,-9.223 2.518,-7.017L2.518,0L-2.268,0L-2.268,-7.017C-2.268,-9.223 -1.23,-9.709 0,-9.709" style="fill:rgb(35,31,32);"/>
        </g>
        <g transform="matrix(1,0,0,1,39.2495,382.928)">
            <path d="M0,-11.443C1.231,-11.443 2.518,-11.25 2.518,-8.649L2.518,0L-2.268,0L-2.268,-8.649C-2.268,-11.25 -1.231,-11.443 0,-11.443" style="fill:rgb(35,31,32);"/>
        </g>
        <g transform="matrix(1,0,0,1,20.3325,382.928)">
            <path d="M0,-11.443C1.231,-11.443 2.518,-11.154 2.518,-8.554L2.518,0L-2.267,0L-2.267,-8.554C-2.267,-11.154 -1.231,-11.443 0,-11.443" style="fill:rgb(35,31,32);"/>
        </g>
        <g transform="matrix(1,0,0,1,94.4526,383.224)">
            <path d="M0,-10.878C2.206,-10.878 3.228,-9.224 3.228,-6.512L3.228,0L-3.293,0L-3.293,-6.512C-3.293,-9.224 -2.206,-10.878 0,-10.878" style="fill:rgb(35,31,32);"/>
        </g>
        <g transform="matrix(1,0,0,1,472.279,383.224)">
            <path d="M0,-10.878C2.206,-10.878 3.229,-9.224 3.229,-6.512L3.229,0L-3.293,0L-3.293,-6.512C-3.293,-9.224 -2.206,-10.878 0,-10.878" style="fill:rgb(35,31,32);"/>
        </g>
        <g transform="matrix(1,0,0,1,183,383.224)">
            <path d="M0,-10.878C2.206,-10.878 3.228,-9.224 3.228,-6.512L3.228,0L-3.293,0L-3.293,-6.512C-3.293,-9.224 -2.206,-10.878 0,-10.878" style="fill:rgb(35,31,32);"/>
        </g>
        <g transform="matrix(1,0,0,1,560.827,383.224)">
            <path d="M0,-10.878C2.206,-10.878 3.228,-9.224 3.228,-6.512L3.228,0L-3.293,0L-3.293,-6.512C-3.293,-9.224 -2.206,-10.878 0,-10.878" style="fill:rgb(35,31,32);"/>
        </g>
        <g transform="matrix(1,0,0,1,109.21,383.224)">
            <path d="M0,-10.878C2.206,-10.878 3.228,-9.224 3.228,-6.512L3.228,0L-3.293,0L-3.293,-6.512C-3.293,-9.224 -2.206,-10.878 0,-10.878" style="fill:rgb(35,31,32);"/>
        </g>
        <g transform="matrix(1,0,0,1,487.037,383.224)">
            <path d="M0,-10.878C2.207,-10.878 3.229,-9.224 3.229,-6.512L3.229,0L-3.292,0L-3.292,-6.512C-3.292,-9.224 -2.206,-10.878 0,-10.878" style="fill:rgb(35,31,32);"/>
        </g>
        <g transform="matrix(1,0,0,1,197.758,383.224)">
            <path d="M0,-10.878C2.206,-10.878 3.228,-9.224 3.228,-6.512L3.228,0L-3.293,0L-3.293,-6.512C-3.293,-9.224 -2.206,-10.878 0,-10.878" style="fill:rgb(35,31,32);"/>
        </g>
        <g transform="matrix(1,0,0,1,575.585,383.224)">
            <path d="M0,-10.878C2.206,-10.878 3.228,-9.224 3.228,-6.512L3.228,0L-3.293,0L-3.293,-6.512C-3.293,-9.224 -2.206,-10.878 0,-10.878" style="fill:rgb(35,31,32);"/>
        </g>
        <g transform="matrix(1,0,0,1,123.968,383.224)">
            <path d="M0,-10.878C2.206,-10.878 3.228,-9.224 3.228,-6.512L3.228,0L-3.293,0L-3.293,-6.512C-3.293,-9.224 -2.206,-10.878 0,-10.878" style="fill:rgb(35,31,32);"/>
        </g>
        <g transform="matrix(1,0,0,1,501.795,383.224)">
            <path d="M0,-10.878C2.207,-10.878 3.229,-9.224 3.229,-6.512L3.229,0L-3.292,0L-3.292,-6.512C-3.292,-9.224 -2.206,-10.878 0,-10.878" style="fill:rgb(35,31,32);"/>
        </g>
        <g transform="matrix(1,0,0,1,212.516,383.224)">
            <path d="M0,-10.878C2.206,-10.878 3.228,-9.224 3.228,-6.512L3.228,0L-3.293,0L-3.293,-6.512C-3.293,-9.224 -2.206,-10.878 0,-10.878" style="fill:rgb(35,31,32);"/>
        </g>
        <g transform="matrix(1,0,0,1,590.343,383.224)">
            <path d="M0,-10.878C2.206,-10.878 3.228,-9.224 3.228,-6.512L3.228,0L-3.293,0L-3.293,-6.512C-3.293,-9.224 -2.206,-10.878 0,-10.878" style="fill:rgb(35,31,32);"/>
        </g>
        <g transform="matrix(1,0,0,1,138.726,383.224)">
            <path d="M0,-10.878C2.207,-10.878 3.228,-9.224 3.228,-6.512L3.228,0L-3.292,0L-3.292,-6.512C-3.292,-9.224 -2.206,-10.878 0,-10.878" style="fill:rgb(35,31,32);"/>
        </g>
        <g transform="matrix(1,0,0,1,516.553,383.224)">
            <path d="M0,-10.878C2.206,-10.878 3.229,-9.224 3.229,-6.512L3.229,0L-3.292,0L-3.292,-6.512C-3.292,-9.224 -2.206,-10.878 0,-10.878" style="fill:rgb(35,31,32);"/>
        </g>
        <g transform="matrix(1,0,0,1,227.273,383.224)">
            <path d="M0,-10.878C2.206,-10.878 3.228,-9.224 3.228,-6.512L3.228,0L-3.293,0L-3.293,-6.512C-3.293,-9.224 -2.206,-10.878 0,-10.878" style="fill:rgb(35,31,32);"/>
        </g>
        <g transform="matrix(1,0,0,1,605.101,383.224)">
            <path d="M0,-10.878C2.206,-10.878 3.228,-9.224 3.228,-6.512L3.228,0L-3.293,0L-3.293,-6.512C-3.293,-9.224 -2.206,-10.878 0,-10.878" style="fill:rgb(35,31,32);"/>
        </g>
        <g transform="matrix(1,0,0,1,241.146,383.224)">
            <path d="M0,-10.878C2.206,-10.878 3.228,-9.224 3.228,-6.512L3.228,0L-3.293,0L-3.293,-6.512C-3.293,-9.224 -2.206,-10.878 0,-10.878" style="fill:rgb(35,31,32);"/>
        </g>
        <g transform="matrix(1,0,0,1,618.973,383.224)">
            <path d="M0,-10.878C2.206,-10.878 3.229,-9.224 3.229,-6.512L3.229,0L-3.292,0L-3.292,-6.512C-3.292,-9.224 -2.206,-10.878 0,-10.878" style="fill:rgb(35,31,32);"/>
        </g>
        <g transform="matrix(1,0,0,1,153.484,383.224)">
            <path d="M0,-10.878C2.207,-10.878 3.228,-9.224 3.228,-6.512L3.228,0L-3.292,0L-3.292,-6.512C-3.292,-9.224 -2.206,-10.878 0,-10.878" style="fill:rgb(35,31,32);"/>
        </g>
        <g transform="matrix(1,0,0,1,531.311,383.224)">
            <path d="M0,-10.878C2.205,-10.878 3.228,-9.224 3.228,-6.512L3.228,0L-3.293,0L-3.293,-6.512C-3.293,-9.224 -2.206,-10.878 0,-10.878" style="fill:rgb(35,31,32);"/>
        </g>
        <g transform="matrix(1,0,0,1,69.834,323.317)">
            <path d="M0,0L183.212,0" style="fill:none;fill-rule:nonzero;stroke:rgb(35,31,32);stroke-width:1.94px;"/>
        </g>
        <g transform="matrix(1,0,0,1,446.926,323.349)">
            <path d="M0,0L183.244,0" style="fill:none;fill-rule:nonzero;stroke:rgb(35,31,32);stroke-width:1.94px;"/>
        </g>
        <g transform="matrix(1,0,0,1,285.985,311.319)">
            <path d="M0,0L128.179,0" style="fill:none;fill-rule:nonzero;stroke:rgb(35,31,32);stroke-width:1.94px;stroke-linecap:round;stroke-linejoin:round;"/>
        </g>
        <g transform="matrix(1,0,0,1,14.2871,299.873)">
            <path d="M0,19.542L0,7.544L-0.772,7.217L-0.806,3.255C-0.805,2.03 -1.312,0 -2.979,0C-4.694,0 -5.175,1.889 -5.185,3.268L-5.185,7.246L-5.973,7.48L-5.973,19.542L0,19.542Z" style="fill:none;stroke:rgb(35,31,32);stroke-width:1.94px;"/>
        </g>
        <g transform="matrix(1,0,0,1,685.724,299.873)">
            <path d="M0,19.542L0,7.544L0.772,7.217L0.806,3.255C0.805,2.03 1.312,0 2.979,0C4.694,0 5.175,1.889 5.186,3.268L5.186,7.246L5.973,7.48L5.973,19.542L0,19.542Z" style="fill:none;stroke:rgb(35,31,32);stroke-width:1.94px;"/>
        </g>
        <g transform="matrix(1,0,0,1,32.6729,299.873)">
            <path d="M0,19.542L0,7.544L-0.773,7.217L-0.806,3.255C-0.805,2.03 -1.313,0 -2.979,0C-4.694,0 -5.175,1.889 -5.185,3.268L-5.185,7.246L-5.973,7.48L-5.973,19.542L0,19.542Z" style="fill:none;stroke:rgb(35,31,32);stroke-width:1.94px;"/>
        </g>
        <g transform="matrix(1,0,0,1,667.339,299.873)">
            <path d="M0,19.542L0,7.544L0.772,7.217L0.806,3.255C0.805,2.03 1.312,0 2.979,0C4.694,0 5.175,1.889 5.185,3.268L5.185,7.246L5.973,7.48L5.973,19.542L0,19.542Z" style="fill:none;stroke:rgb(35,31,32);stroke-width:1.94px;"/>
        </g>
        <g transform="matrix(1,0,0,1,51.1011,299.873)">
            <path d="M0,19.542L0,7.544L-0.772,7.217L-0.766,3.255C-0.765,2.03 -1.312,0 -2.979,0C-4.694,0 -5.175,1.889 -5.185,3.268L-5.185,7.246L-5.973,7.48L-5.973,19.542L0,19.542Z" style="fill:none;stroke:rgb(35,31,32);stroke-width:1.94px;"/>
        </g>
        <g transform="matrix(1,0,0,1,648.91,299.873)">
            <path d="M0,19.542L0,7.544L0.772,7.217L0.766,3.255C0.765,2.03 1.312,0 2.979,0C4.694,0 5.175,1.889 5.185,3.268L5.185,7.246L5.973,7.48L5.973,19.542L0,19.542Z" style="fill:none;stroke:rgb(35,31,32);stroke-width:1.94px;"/>
        </g>
        <g transform="matrix(1,0,0,1,69.5298,299.873)">
            <path d="M0,19.542L0,7.544L-0.772,7.217L-0.769,3.255C-0.768,2.03 -1.312,0 -2.979,0C-4.694,0 -5.175,1.889 -5.185,3.268L-5.185,7.246L-5.973,7.48L-5.973,19.542L0,19.542Z" style="fill:none;stroke:rgb(35,31,32);stroke-width:1.94px;"/>
        </g>
        <g transform="matrix(1,0,0,1,630.481,299.873)">
            <path d="M0,19.542L0,7.544L0.772,7.217L0.769,3.255C0.768,2.03 1.312,0 2.979,0C4.694,0 5.175,1.889 5.185,3.268L5.185,7.246L5.973,7.48L5.973,19.542L0,19.542Z" style="fill:none;stroke:rgb(35,31,32);stroke-width:1.94px;"/>
        </g>
        <g transform="matrix(1,0,0,1,8.3184,398.696)">
            <path d="M0,-79.278L-0.305,-79.278L-0.305,-75.121L0.4,-75.121L0.4,-31.766L-1.523,-31.766L-1.523,-29.116L0.144,-29.116L0.144,-11.155L-1.116,-10.225L-1.116,0" style="fill:none;fill-rule:nonzero;stroke:rgb(35,31,32);stroke-width:1.94px;stroke-linejoin:round;"/>
        </g>
        <g transform="matrix(1,0,0,1,691.693,398.696)">
            <path d="M0,-79.278L0.305,-79.278L0.305,-75.121L-0.401,-75.121L-0.4,-31.766L1.522,-31.766L1.522,-29.116L-0.145,-29.116L-0.145,-11.155L1.115,-10.225L1.115,0" style="fill:none;fill-rule:nonzero;stroke:rgb(35,31,32);stroke-width:1.94px;stroke-linejoin:round;"/>
        </g>
        <g transform="matrix(1,0,0,1,14.2798,328.255)">
            <path d="M0,-8.837L0.305,-8.837L0.305,-4.68L-0.4,-4.68L-0.4,0" style="fill:none;fill-rule:nonzero;stroke:rgb(35,31,32);stroke-width:1.94px;stroke-linejoin:round;"/>
        </g>
        <g transform="matrix(-1,0,0,1,685.825,328.255)">
            <path d="M0.094,-8.837L0.4,-8.837L0.4,-4.68L-0.306,-4.68L-0.306,0" style="fill:none;fill-rule:nonzero;stroke:rgb(35,31,32);stroke-width:1.94px;stroke-linejoin:round;"/>
        </g>
        <g transform="matrix(1,0,0,1,32.6763,328.255)">
            <path d="M0,-8.837L0.305,-8.837L0.305,-4.68L-0.401,-4.68L-0.401,0" style="fill:none;fill-rule:nonzero;stroke:rgb(35,31,32);stroke-width:1.94px;stroke-linejoin:round;"/>
        </g>
        <g transform="matrix(-1,0,0,1,667.43,328.255)">
            <path d="M0.095,-8.837L0.4,-8.837L0.4,-4.68L-0.305,-4.68L-0.305,0" style="fill:none;fill-rule:nonzero;stroke:rgb(35,31,32);stroke-width:1.94px;stroke-linejoin:round;"/>
        </g>
        <g transform="matrix(1,0,0,1,51.1074,328.255)">
            <path d="M0,-8.837L0.305,-8.837L0.305,-4.68L-0.401,-4.68L-0.401,0" style="fill:none;fill-rule:nonzero;stroke:rgb(35,31,32);stroke-width:1.94px;stroke-linejoin:round;"/>
        </g>
        <g transform="matrix(1,0,0,1,26.7471,328.255)">
            <path d="M0,-8.837L-0.305,-8.837L-0.305,-4.68L0.401,-4.68L0.401,0M622.157,-8.837L621.852,-8.837L621.852,-4.68L622.558,-4.68L622.558,0" style="fill:none;fill-rule:nonzero;stroke:rgb(35,31,32);stroke-width:1.94px;stroke-linejoin:round;"/>
        </g>
        <g transform="matrix(1,0,0,1,673.264,328.255)">
            <path d="M0,-8.837L0.306,-8.837L0.306,-4.68L-0.4,-4.68L-0.4,0" style="fill:none;fill-rule:nonzero;stroke:rgb(35,31,32);stroke-width:1.94px;stroke-linejoin:round;"/>
        </g>
        <g transform="matrix(-1,0,0,1,45.2386,328.255)">
            <path d="M0.095,-8.837L0.4,-8.837L0.4,-4.68L-0.305,-4.68L-0.305,0" style="fill:none;fill-rule:nonzero;stroke:rgb(35,31,32);stroke-width:1.94px;stroke-linejoin:round;"/>
        </g>
        <g transform="matrix(1,0,0,1,654.867,328.255)">
            <path d="M0,-8.837L0.306,-8.837L0.306,-4.68L-0.4,-4.68L-0.4,0" style="fill:none;fill-rule:nonzero;stroke:rgb(35,31,32);stroke-width:1.94px;stroke-linejoin:round;"/>
        </g>
        <g transform="matrix(-1,0,0,1,63.6619,328.255)">
            <path d="M0.096,-8.837L0.401,-8.837L0.401,-4.68L-0.305,-4.68L-0.305,0" style="fill:none;fill-rule:nonzero;stroke:rgb(35,31,32);stroke-width:1.94px;stroke-linejoin:round;"/>
        </g>
        <g transform="matrix(1,0,0,1,636.445,328.255)">
            <path d="M0,-8.837L0.305,-8.837L0.305,-4.68L-0.4,-4.68L-0.4,0" style="fill:none;fill-rule:nonzero;stroke:rgb(35,31,32);stroke-width:1.94px;stroke-linejoin:round;"/>
        </g>
        <g transform="matrix(1,0,0,1,69.5239,398.696)">
            <path d="M0,-79.278L0.305,-79.278L0.305,-75.121L-0.401,-75.121L-0.4,-31.766L1.523,-31.766L1.523,-29.116L-0.144,-29.116L-0.144,-11.155L1.116,-10.225L1.116,0" style="fill:none;fill-rule:nonzero;stroke:rgb(35,31,32);stroke-width:1.94px;stroke-linejoin:round;"/>
        </g>
        <g transform="matrix(1,0,0,1,630.487,398.696)">
            <path d="M0,-79.278L-0.305,-79.278L-0.305,-75.121L0.4,-75.121L0.4,-31.766L-1.523,-31.766L-1.523,-29.116L0.144,-29.116L0.144,-11.155L-1.116,-10.225L-1.116,0" style="fill:none;fill-rule:nonzero;stroke:rgb(35,31,32);stroke-width:1.94px;stroke-linejoin:round;"/>
        </g>
        <g transform="matrix(1,0,0,1,642.784,319.421)">
            <path d="M0,-9.315L0,0M36.722,-9.315L36.722,0M18.291,-9.315L18.291,0" style="fill:none;fill-rule:nonzero;stroke:rgb(35,31,32);stroke-width:1.94px;"/>
        </g>
        <g transform="matrix(1,0,0,1,420.623,379.778)">
            <path d="M0,-68.462L0,-80.634C-0.118,-82.947 -0.551,-85.261 -3.144,-87.575C-5.472,-85.261 -6.23,-82.947 -6.222,-80.634L-6.222,-68.462L-10.063,-67.677L-10.063,-63.913L-6.766,-63.913L-6.766,-18.556L-8.088,-18.556L-8.088,-10.36L-7.229,-10.36L-7.229,6.959L-8.416,8.546L-8.416,19.113M-160.75,-68.47L-160.75,-80.567C-160.869,-82.881 -161.302,-85.195 -163.895,-87.509C-166.222,-85.195 -166.981,-82.881 -166.973,-80.567L-166.973,-68.47L-170.814,-67.61L-170.814,-63.959L-167.517,-63.959L-167.517,-18.489L-168.839,-18.489L-168.839,-10.294L-167.98,-10.294L-167.98,7.025L-169.167,8.612L-169.167,18.926" style="fill:none;fill-rule:nonzero;stroke:rgb(35,31,32);stroke-width:1.94px;stroke-linejoin:round;"/>
        </g>
        <g transform="matrix(1,0,0,1,440.134,379.852)">
            <path d="M0,-68.61L0,-80.708C0.119,-83.021 0.552,-85.335 3.145,-87.649C5.472,-85.335 6.23,-83.021 6.223,-80.708L6.209,-68.527L10.067,-67.667L10.063,-64.082L6.767,-64.082L6.767,-18.63L8.089,-18.63L8.089,-10.434L7.23,-10.434L7.23,6.885L8.416,8.472L8.416,19.039M-160.75,-68.544L-160.75,-80.641C-160.632,-82.955 -160.199,-85.269 -157.606,-87.583C-155.279,-85.269 -154.52,-82.955 -154.528,-80.641L-154.528,-68.544L-150.687,-67.684L-150.687,-64.016L-153.984,-64.016L-153.984,-18.563L-152.662,-18.563L-152.662,-10.368L-153.521,-10.368L-153.521,6.952L-152.334,8.538L-152.334,18.852" style="fill:none;fill-rule:nonzero;stroke:rgb(35,31,32);stroke-width:1.94px;stroke-linejoin:round;"/>
        </g>
        <g transform="matrix(1,0,0,1,289.162,333.98)">
            <path d="M0,28.645L0,32.955L6.322,32.955L6.322,28.645L5.38,26.291L5.179,-4.31L1.211,-4.31L1.009,26.359L0,28.645Z" style="fill:rgb(35,31,32);"/>
        </g>
        <g transform="matrix(1,0,0,1,312.23,333.98)">
            <path d="M0,28.645L0,32.955L6.322,32.955L6.322,28.645L5.38,26.291L5.179,-4.31L1.21,-4.31L1.009,26.359L0,28.645Z" style="fill:rgb(35,31,32);"/>
        </g>
        <g transform="matrix(1,0,0,1,335.299,333.98)">
            <path d="M0,28.645L0,32.955L6.323,32.955L6.323,28.645L5.381,26.291L5.179,-4.31L1.211,-4.31L1.009,26.359L0,28.645Z" style="fill:rgb(35,31,32);"/>
        </g>
        <g transform="matrix(1,0,0,1,358.435,333.98)">
            <path d="M0,28.645L0,32.955L6.322,32.955L6.322,28.645L5.381,26.291L5.179,-4.31L1.211,-4.31L1.009,26.359L0,28.645Z" style="fill:rgb(35,31,32);"/>
        </g>
        <g transform="matrix(1,0,0,1,381.504,333.98)">
            <path d="M0,28.645L0,32.955L6.322,32.955L6.322,28.645L5.38,26.291L5.179,-4.31L1.21,-4.31L1.009,26.359L0,28.645Z" style="fill:rgb(35,31,32);"/>
        </g>
        <g transform="matrix(1,0,0,1,404.572,333.98)">
            <path d="M0,28.645L0,32.955L6.322,32.955L6.322,28.645L5.381,26.291L5.179,-4.31L1.211,-4.31L1.009,26.359L0,28.645Z" style="fill:rgb(35,31,32);"/>
        </g>
        <g transform="matrix(1,0,0,1,65.9609,285.109)">
            <path d="M0,14.846L-5.072,14.846L-17.567,-2.178L-17.567,-7.686L-17.928,-9.008L-18.91,-9.962L-19.013,-10.061L-19.185,-10.177L-19.357,-10.061L-19.46,-9.962L-20.374,-9.117L-20.791,-7.944L-33.292,-7.944L-33.708,-9.117L-34.622,-9.962L-34.726,-10.061L-34.897,-10.177L-35.07,-10.061L-35.173,-9.962L-36.155,-9.008L-36.516,-7.686L-36.516,-2.178L-36.573,-2.178L-52.465,19.673L-52.446,21.981L-51.674,22.308L-51.673,25.013L-39.26,25.016L-39.261,22.245L-38.473,22.011L-38.473,18.032C-38.406,14.981 -36.792,14.763 -36.267,14.764C-35.768,14.737 -34.197,15.058 -34.094,18.019L-34.061,21.982L-33.288,22.308L-33.286,25.017L-20.837,25.019L-20.833,22.245L-20.044,22.011L-20.045,18.033C-19.974,15.06 -18.412,14.73 -17.838,14.765C-17.348,14.702 -15.714,15.121 -15.626,18.019L-15.632,21.981L-14.86,22.308L-14.862,25.021L-2.401,25.023L-2.404,22.245L-1.616,22.011L-1.617,20.062L-1.616,20.062L-1.616,18.032C-1.613,17.146 -1.388,15.305 0,14.846" style="fill:rgb(35,31,32);"/>
        </g>
        <g transform="matrix(1,0,0,1,634.05,285.109)">
            <path d="M0,14.846L5.072,14.846L17.566,-2.178L17.566,-7.686L17.928,-9.008L18.909,-9.962L19.013,-10.061L19.185,-10.177L19.357,-10.061L19.46,-9.962L20.374,-9.117L20.79,-7.944L33.292,-7.944L33.708,-9.117L34.622,-9.962L34.726,-10.061L34.897,-10.177L35.069,-10.061L35.173,-9.962L36.155,-9.008L36.516,-7.686L36.516,-2.178L36.573,-2.178L52.465,19.673L52.446,21.981L51.674,22.308L51.673,25.013L39.26,25.016L39.261,22.245L38.473,22.011L38.473,18.032C38.405,14.981 36.793,14.763 36.268,14.764C35.768,14.737 34.197,15.058 34.094,18.019L34.061,21.982L33.288,22.308L33.286,25.017L20.837,25.019L20.832,22.245L20.044,22.011L20.045,18.033C19.974,15.06 18.412,14.73 17.838,14.765C17.348,14.702 15.714,15.121 15.626,18.019L15.632,21.981L14.859,22.308L14.862,25.021L2.401,25.023L2.404,22.245L1.616,22.011L1.616,18.032C1.612,17.146 1.388,15.305 0,14.846" style="fill:rgb(35,31,32);"/>
        </g>
        <g transform="matrix(1,0,0,1,386.51,369.019)">
            <path d="M0,9.156L-3.154,9.153C-3.721,3.974 -8.168,-0.029 -13.424,-0.029C-18.68,-0.029 -23.127,3.974 -23.693,9.153L-26.253,9.153C-26.819,3.974 -31.267,-0.029 -36.522,-0.029C-41.778,-0.029 -46.225,3.974 -46.792,9.154L-49.351,9.149C-49.917,3.974 -54.365,-0.029 -59.621,-0.029C-64.876,-0.029 -69.324,4.014 -69.89,9.185L-73.132,9.18" style="fill:none;fill-rule:nonzero;stroke:rgb(35,31,32);stroke-width:1.92px;"/>
        </g>
        <g transform="matrix(1,0,0,1,448.224,367.017)">
            <path d="M0,31.623L0,-0.042M-35.677,31.665L-35.677,0" style="fill:none;fill-rule:nonzero;stroke:rgb(35,31,32);stroke-width:1.43px;"/>
        </g>
        <g transform="matrix(0,-1,-1,0,434.585,344.856)">
            <path d="M-22.047,22.047L22.047,22.047" style="fill:none;fill-rule:nonzero;stroke:rgb(35,31,32);stroke-width:2.27px;"/>
        </g>
        <g transform="matrix(0,-1,-1,0,473.826,341.322)">
            <path d="M-25.606,25.606L25.606,25.606" style="fill:none;fill-rule:nonzero;stroke:rgb(35,31,32);stroke-width:2.27px;"/>
        </g>
        <g transform="matrix(1,0,0,1,251.767,367.017)">
            <path d="M0,31.623L0,-0.042M35.677,31.665L35.677,0" style="fill:none;fill-rule:nonzero;stroke:rgb(35,31,32);stroke-width:1.43px;"/>
        </g>
        <g transform="matrix(0,-1,-1,0,309.5,344.856)">
            <path d="M-22.047,22.047L22.047,22.047" style="fill:none;fill-rule:nonzero;stroke:rgb(35,31,32);stroke-width:2.27px;"/>
        </g>
        <g transform="matrix(0,-1,-1,0,277.375,341.322)">
            <path d="M-25.606,25.606L25.606,25.606" style="fill:none;fill-rule:nonzero;stroke:rgb(35,31,32);stroke-width:2.27px;"/>
        </g>
        <g transform="matrix(1,0,0,1,513.676,323.345)">
            <path d="M0,-8.363L0,0M-14.432,-8.363L-14.432,0" style="fill:none;fill-rule:nonzero;stroke:rgb(35,31,32);stroke-width:1.94px;stroke-linecap:round;stroke-linejoin:round;"/>
        </g>
        <g transform="matrix(0,1,1,0,532.549,319.177)">
            <path d="M-4.169,-4.169L4.169,-4.169" style="fill:none;fill-rule:nonzero;stroke:rgb(35,31,32);stroke-width:1.94px;stroke-linecap:round;stroke-linejoin:round;"/>
        </g>
        <g transform="matrix(1,0,0,1,520.281,323.345)">
            <path d="M0,-8.363L0,0M-14.433,-8.363L-14.433,0M-64.768,-8.363L-64.768,0M-50.729,-8.363L-50.729,0M-35.845,-8.363L-35.845,0M96.62,-8.363L96.62,0M82.108,-8.363L82.108,0M67.69,-8.363L67.69,0M52.78,-8.363L52.78,0M37.789,-8.363L37.789,0M23.244,-8.363L23.244,0" style="fill:none;fill-rule:nonzero;stroke:rgb(35,31,32);stroke-width:1.94px;stroke-linecap:round;stroke-linejoin:round;"/>
        </g>
        <g transform="matrix(0,1,1,0,539.154,319.177)">
            <path d="M-4.169,-4.169L4.169,-4.169" style="fill:none;fill-rule:nonzero;stroke:rgb(35,31,32);stroke-width:1.94px;stroke-linecap:round;stroke-linejoin:round;"/>
        </g>
        <g transform="matrix(1,0,0,1,462.119,323.345)">
            <path d="M0,-8.363L0,0M14.038,-8.363L14.038,0M28.923,-8.363L28.923,0M161.387,-8.363L161.387,0M146.875,-8.363L146.875,0M132.458,-8.363L132.458,0M117.547,-8.363L117.547,0M102.557,-8.363L102.557,0M88.011,-8.363L88.011,0" style="fill:none;fill-rule:nonzero;stroke:rgb(35,31,32);stroke-width:1.94px;stroke-linecap:round;stroke-linejoin:round;"/>
        </g>
        <g transform="matrix(0,1,1,0,124.313,319.16)">
            <path d="M-4.178,-4.178L4.178,-4.178" style="fill:none;fill-rule:nonzero;stroke:rgb(35,31,32);stroke-width:1.94px;stroke-linecap:round;stroke-linejoin:round;"/>
        </g>
        <g transform="matrix(1,0,0,1,150,323.337)">
            <path d="M0,-8.355L0,0M-14.502,-8.355L-14.502,0" style="fill:none;fill-rule:nonzero;stroke:rgb(35,31,32);stroke-width:1.94px;stroke-linecap:round;stroke-linejoin:round;"/>
        </g>
        <g transform="matrix(1,0,0,1,179.731,323.338)">
            <path d="M0,-8.356L0,0M-14.545,-8.356L-14.545,0" style="fill:none;fill-rule:nonzero;stroke:rgb(35,31,32);stroke-width:1.94px;stroke-linecap:round;stroke-linejoin:round;"/>
        </g>
        <g transform="matrix(1,0,0,1,208.822,323.339)">
            <path d="M0,-8.313L0,0M-14.545,-8.313L-14.545,0" style="fill:none;fill-rule:nonzero;stroke:rgb(35,31,32);stroke-width:1.94px;stroke-linecap:round;stroke-linejoin:round;"/>
        </g>
        <g transform="matrix(1,0,0,1,237.914,323.338)">
            <path d="M0,-8.356L0,0M-14.066,-8.356L-14.066,0" style="fill:none;fill-rule:nonzero;stroke:rgb(35,31,32);stroke-width:1.94px;stroke-linecap:round;stroke-linejoin:round;"/>
        </g>
        <g transform="matrix(0,1,1,0,109.668,319.16)">
            <path d="M-4.178,-4.178L4.178,-4.178" style="fill:none;fill-rule:nonzero;stroke:rgb(35,31,32);stroke-width:1.94px;stroke-linecap:round;stroke-linejoin:round;"/>
        </g>
        <g transform="matrix(1,0,0,1,76.4858,323.337)">
            <path d="M0,-8.355L0,0M14.646,-8.355L14.646,0" style="fill:none;fill-rule:nonzero;stroke:rgb(35,31,32);stroke-width:1.94px;stroke-linecap:round;stroke-linejoin:round;"/>
        </g>
        <g transform="matrix(1,0,0,1,142.103,323.337)">
            <path d="M0,-8.355L0,0M-15.363,-8.355L-15.363,0" style="fill:none;fill-rule:nonzero;stroke:rgb(35,31,32);stroke-width:1.94px;stroke-linecap:round;stroke-linejoin:round;"/>
        </g>
        <g transform="matrix(1,0,0,1,171.79,323.338)">
            <path d="M0,-8.356L0,0M-15.185,-8.356L-15.185,0" style="fill:none;fill-rule:nonzero;stroke:rgb(35,31,32);stroke-width:1.94px;stroke-linecap:round;stroke-linejoin:round;"/>
        </g>
        <g transform="matrix(1,0,0,1,200.881,323.339)">
            <path d="M0,-8.313L0,0M-14.545,-8.313L-14.545,0" style="fill:none;fill-rule:nonzero;stroke:rgb(35,31,32);stroke-width:1.94px;stroke-linecap:round;stroke-linejoin:round;"/>
        </g>
        <g transform="matrix(1,0,0,1,230.452,323.338)">
            <path d="M0,-8.356L0,0M-15.025,-8.356L-15.025,0" style="fill:none;fill-rule:nonzero;stroke:rgb(35,31,32);stroke-width:1.94px;stroke-linecap:round;stroke-linejoin:round;"/>
        </g>
        <g transform="matrix(0,1,1,0,248.686,319.149)">
            <path d="M-4.168,-4.168L4.168,-4.168" style="fill:none;fill-rule:nonzero;stroke:rgb(35,31,32);stroke-width:1.94px;stroke-linecap:round;stroke-linejoin:round;"/>
        </g>
        <g transform="matrix(0,1,1,0,116.272,319.16)">
            <path d="M-4.178,-4.178L4.178,-4.178" style="fill:none;fill-rule:nonzero;stroke:rgb(35,31,32);stroke-width:1.94px;stroke-linecap:round;stroke-linejoin:round;"/>
        </g>
        <g transform="matrix(0,1,1,0,101.893,319.182)">
            <path d="M-4.157,-4.157L4.157,-4.157" style="fill:none;fill-rule:nonzero;stroke:rgb(35,31,32);stroke-width:1.94px;stroke-linecap:round;stroke-linejoin:round;"/>
        </g>
        <g transform="matrix(0,1,1,0,87.2683,319.16)">
            <path d="M-4.178,-4.178L4.178,-4.178" style="fill:none;fill-rule:nonzero;stroke:rgb(35,31,32);stroke-width:1.94px;stroke-linecap:round;stroke-linejoin:round;"/>
        </g>
        <g transform="matrix(1,0,0,1,27.7544,416.196)">
            <path d="M0,26.421C1.237,25.305 1.859,23.794 1.859,21.884L1.859,7.235C1.859,5.706 1.967,4.246 2.176,2.843C1.726,4.455 1.269,5.953 0.799,7.343L-5.097,24.562C-5.198,24.848 -5.249,25.191 -5.249,25.583C-5.249,25.996 -5.224,26.275 -5.173,26.421L-9.444,26.421C-9.4,26.199 -9.375,25.92 -9.375,25.583C-9.375,25.191 -9.425,24.848 -9.521,24.562L-15.455,7.343C-15.962,5.871 -16.419,4.366 -16.826,2.843C-16.552,4.011 -16.419,5.471 -16.419,7.235L-16.419,21.884C-16.419,23.781 -15.791,25.292 -14.541,26.421L-21.439,26.421C-20.202,25.305 -19.58,23.794 -19.58,21.884L-19.58,4.481C-19.58,2.609 -20.202,1.117 -21.439,0L-13.925,0C-14.115,0.273 -14.204,0.539 -14.204,0.8C-14.204,0.901 -14.198,0.99 -14.179,1.06L-8.403,17.809C-7.927,19.199 -7.528,20.836 -7.191,22.721C-6.816,20.691 -6.417,19.053 -5.992,17.816L-0.299,1.06C-0.299,1.047 -0.292,1.028 -0.28,1.003C-0.242,0.895 -0.222,0.8 -0.222,0.724C-0.222,0.686 -0.299,0.444 -0.445,0L7.121,0C5.909,1.092 5.299,2.583 5.299,4.481L5.299,21.884C5.299,23.819 5.909,25.33 7.121,26.421L0,26.421Z" style="fill:rgb(35,31,32);"/>
        </g>
        <g transform="matrix(1,0,0,1,75.0596,436.463)">
            <path d="M0,-22.945L2.475,-28.041C2.996,-29.107 3.586,-29.64 4.258,-29.64C4.608,-29.64 4.912,-29.501 5.185,-29.221C5.458,-28.942 5.598,-28.632 5.598,-28.282C5.598,-27.825 5.261,-27.248 4.595,-26.555L1.136,-22.945L0,-22.945ZM4.557,-22.945L7.793,-28.218C8.371,-29.165 8.987,-29.64 9.634,-29.64C10.51,-29.64 10.954,-29.183 10.954,-28.276C10.954,-27.736 10.561,-27.133 9.78,-26.461L5.674,-22.945L4.557,-22.945ZM-5.916,-15.786C-5.916,-17.658 -6.537,-19.149 -7.775,-20.266L-0.54,-20.266C-1.777,-19.149 -2.399,-17.658 -2.399,-15.786L-2.399,-2.991C-2.399,-0.674 -2.05,0.963 -1.358,1.915C-0.54,3.045 0.965,3.61 3.154,3.61C5.363,3.61 6.867,3.045 7.673,1.915C8.339,0.976 8.676,-0.662 8.676,-2.991L8.676,-15.786C8.676,-17.645 8.054,-19.136 6.804,-20.266L13.779,-20.266C12.56,-19.174 11.951,-17.683 11.951,-15.786L11.951,-3.251C11.951,0.132 11.519,2.429 10.649,3.648C9.196,5.679 6.645,6.695 2.989,6.695C-0.679,6.695 -3.211,5.679 -4.614,3.648C-5.483,2.391 -5.916,0.094 -5.916,-3.251L-5.916,-15.786Z" style="fill:rgb(35,31,32);"/>
        </g>
        <g transform="matrix(1,0,0,1,137.47,442.579)">
            <path d="M0,-26.383C0.869,-26.383 1.732,-26.688 2.589,-27.297L2.589,-18.627C1.745,-20.575 0.469,-21.941 -1.244,-22.721C-2.627,-23.362 -4.5,-23.686 -6.854,-23.686C-8.143,-23.686 -9.076,-23.54 -9.647,-23.241C-10.479,-22.803 -10.891,-22.023 -10.891,-20.9L-10.891,-15.264L-6.169,-15.264C-4.037,-15.264 -2.386,-16.051 -1.225,-17.624L-1.225,-10.136C-2.386,-11.703 -4.037,-12.49 -6.169,-12.49L-10.891,-12.49L-10.891,-5.667C-10.891,-4.43 -10.44,-3.592 -9.533,-3.142C-8.924,-2.843 -7.908,-2.697 -6.486,-2.697C-3.884,-2.697 -1.904,-3.028 -0.552,-3.681C1.072,-4.461 2.386,-5.928 3.389,-8.067L3.389,0.914C2.583,0.33 1.65,0.038 0.597,0.038L-16.267,0.038C-15.029,-1.078 -14.407,-2.589 -14.407,-4.499L-14.407,-21.903C-14.407,-23.775 -15.029,-25.266 -16.267,-26.383L0,-26.383Z" style="fill:rgb(35,31,32);"/>
        </g>
        <g transform="matrix(1,0,0,1,193.699,415.472)">
            <path d="M0,28.021C-0.717,27.101 -1.581,26.644 -2.583,26.644C-3.307,26.644 -4.379,26.815 -5.82,27.165C-7.261,27.513 -8.346,27.685 -9.095,27.685C-16.432,27.685 -20.1,23.319 -20.1,14.579C-20.1,10.41 -19.3,7.096 -17.701,4.627C-15.778,1.664 -12.846,0.184 -8.904,0.184C-8.264,0.184 -7.305,0.324 -6.042,0.604C-4.779,0.883 -3.833,1.022 -3.199,1.022C-2.431,1.022 -1.656,0.679 -0.876,0L-0.876,10.167C-2.012,7.959 -3.078,6.367 -4.075,5.389C-5.509,3.974 -7.223,3.269 -9.203,3.269C-11.805,3.269 -13.734,4.513 -14.985,7.007C-15.943,8.917 -16.419,11.317 -16.419,14.205C-16.419,17.003 -15.943,19.339 -14.985,21.199C-13.76,23.591 -11.875,24.785 -9.336,24.785C-7.787,24.785 -6.474,24.422 -5.395,23.706C-4.157,22.875 -3.535,21.725 -3.535,20.247L-3.535,17.809C-3.535,15.906 -4.284,14.395 -5.782,13.291L1.022,13.291C0.343,14.172 0,15.677 0,17.809L0,28.021Z" style="fill:rgb(35,31,32);"/>
        </g>
        <g transform="matrix(1,0,0,1,240.973,438.511)">
            <path d="M0,-18.208C0.514,-19.211 0.768,-19.998 0.768,-20.569C0.768,-21.115 0.469,-21.692 -0.127,-22.314L6.657,-22.314C5.579,-21.235 4.684,-20.023 3.966,-18.672L-3.154,-5.268L-3.154,-0.431C-3.154,1.505 -2.545,3.016 -1.333,4.106L-8.568,4.106C-7.331,2.99 -6.708,1.479 -6.708,-0.431L-6.708,-5.077L-13.868,-18.672C-14.598,-20.062 -15.486,-21.273 -16.527,-22.314L-9.292,-22.314C-9.85,-21.73 -10.129,-21.153 -10.129,-20.569C-10.129,-19.973 -9.888,-19.186 -9.406,-18.208L-4.76,-8.803L0,-18.208Z" style="fill:rgb(35,31,32);"/>
        </g>
        <g transform="matrix(1,0,0,1,293.895,442.579)">
            <path d="M0,-26.383C0.87,-26.383 1.733,-26.688 2.59,-27.297L2.59,-18.627C1.746,-20.575 0.47,-21.941 -1.244,-22.721C-2.627,-23.362 -4.5,-23.686 -6.854,-23.686C-8.143,-23.686 -9.076,-23.54 -9.646,-23.241C-10.478,-22.803 -10.891,-22.023 -10.891,-20.9L-10.891,-15.264L-6.168,-15.264C-4.036,-15.264 -2.386,-16.051 -1.225,-17.624L-1.225,-10.136C-2.386,-11.703 -4.036,-12.49 -6.168,-12.49L-10.891,-12.49L-10.891,-5.667C-10.891,-4.43 -10.44,-3.592 -9.532,-3.142C-8.923,-2.843 -7.908,-2.697 -6.486,-2.697C-3.884,-2.697 -1.904,-3.028 -0.552,-3.681C1.073,-4.461 2.387,-5.928 3.39,-8.067L3.39,0.914C2.583,0.33 1.65,0.038 0.597,0.038L-16.267,0.038C-15.029,-1.078 -14.407,-2.589 -14.407,-4.499L-14.407,-21.903C-14.407,-23.775 -15.029,-25.266 -16.267,-26.383L0,-26.383Z" style="fill:rgb(35,31,32);"/>
        </g>
        <g transform="matrix(1,0,0,1,340.966,419.819)">
            <path d="M0,18.261C0,20.197 0.609,21.707 1.822,22.798L-5.375,22.798C-4.163,21.707 -3.554,20.197 -3.554,18.261L-3.554,1.474C-3.554,-0.176 -4.252,-1.002 -5.655,-1.002C-8.492,-1.002 -10.51,1.017 -11.697,5.06L-11.697,-4.537C-11.018,-3.927 -10.357,-3.623 -9.723,-3.623L6.157,-3.623C6.823,-3.623 7.483,-3.927 8.143,-4.537L8.143,5.06C6.988,1.017 4.982,-1.002 2.12,-1.002C0.705,-1.002 0,-0.176 0,1.474L0,18.261Z" style="fill:rgb(35,31,32);"/>
        </g>
        <g transform="matrix(1,0,0,1,397.049,442.579)">
            <path d="M0,-26.383C0.869,-26.383 1.732,-26.688 2.59,-27.297L2.59,-18.627C1.745,-20.575 0.47,-21.941 -1.244,-22.721C-2.627,-23.362 -4.499,-23.686 -6.854,-23.686C-8.143,-23.686 -9.075,-23.54 -9.646,-23.241C-10.479,-22.803 -10.891,-22.023 -10.891,-20.9L-10.891,-15.264L-6.169,-15.264C-4.036,-15.264 -2.386,-16.051 -1.225,-17.624L-1.225,-10.136C-2.386,-11.703 -4.036,-12.49 -6.169,-12.49L-10.891,-12.49L-10.891,-5.667C-10.891,-4.43 -10.44,-3.592 -9.532,-3.142C-8.923,-2.843 -7.907,-2.697 -6.486,-2.697C-3.884,-2.697 -1.903,-3.028 -0.552,-3.681C1.072,-4.461 2.387,-5.928 3.39,-8.067L3.39,0.914C2.583,0.33 1.65,0.038 0.597,0.038L-16.267,0.038C-15.028,-1.078 -14.407,-2.589 -14.407,-4.499L-14.407,-21.903C-14.407,-23.775 -15.028,-25.266 -16.267,-26.383L0,-26.383Z" style="fill:rgb(35,31,32);"/>
        </g>
        <g transform="matrix(1,0,0,1,454.84,416.196)">
            <path d="M0,26.421C1.237,25.305 1.859,23.794 1.859,21.884L1.859,7.235C1.859,5.706 1.967,4.246 2.177,2.843C1.726,4.455 1.269,5.953 0.799,7.343L-5.097,24.562C-5.198,24.848 -5.249,25.191 -5.249,25.583C-5.249,25.996 -5.224,26.275 -5.173,26.421L-9.444,26.421C-9.4,26.199 -9.374,25.92 -9.374,25.583C-9.374,25.191 -9.426,24.848 -9.521,24.562L-15.455,7.343C-15.962,5.871 -16.42,4.366 -16.825,2.843C-16.553,4.011 -16.42,5.471 -16.42,7.235L-16.42,21.884C-16.42,23.781 -15.791,25.292 -14.541,26.421L-21.439,26.421C-20.202,25.305 -19.58,23.794 -19.58,21.884L-19.58,4.481C-19.58,2.609 -20.202,1.117 -21.439,0L-13.925,0C-14.115,0.273 -14.204,0.539 -14.204,0.8C-14.204,0.901 -14.198,0.99 -14.179,1.06L-8.403,17.809C-7.928,19.199 -7.527,20.836 -7.191,22.721C-6.816,20.691 -6.417,19.053 -5.991,17.816L-0.299,1.06C-0.299,1.047 -0.293,1.028 -0.28,1.003C-0.242,0.895 -0.223,0.8 -0.223,0.724C-0.223,0.686 -0.299,0.444 -0.445,0L7.12,0C5.908,1.092 5.299,2.583 5.299,4.481L5.299,21.884C5.299,23.819 5.908,25.33 7.12,26.421L0,26.421Z" style="fill:rgb(35,31,32);"/>
        </g>
        <g transform="matrix(1,0,0,1,529.482,434.359)">
            <path d="M0,-10.445L-2.399,-10.445C-3.192,-10.445 -3.84,-10.242 -4.348,-9.836L-4.348,-13.72C-3.631,-13.383 -2.964,-13.218 -2.361,-13.218C-0.203,-13.218 0.876,-14.424 0.876,-16.842C0.876,-17.515 0.755,-18.131 0.508,-18.703L3.853,-18.703C3.592,-17.896 3.459,-16.919 3.459,-15.763L3.459,3.721C3.459,5.644 4.074,7.155 5.306,8.258L-1.821,8.258C-0.609,7.167 0,5.657 0,3.721L0,-10.445Z" style="fill:rgb(35,31,32);"/>
        </g>
        <g transform="matrix(1,0,0,1,576.616,415.32)">
            <path d="M0,27.297C1.721,25.61 3.142,23.197 4.271,20.063L9.076,6.735C9.298,6.112 9.406,5.605 9.406,5.211C9.406,3.897 8.34,3.237 6.207,3.237C1.86,3.237 -1.39,5.3 -3.535,9.432L-3.535,0C-2.64,0.584 -1.7,0.876 -0.711,0.876L16.121,0.876C14.757,2.266 13.665,4.094 12.846,6.36L7.324,21.623C6.918,22.753 6.709,23.693 6.709,24.435C6.709,25.45 7.159,26.402 8.048,27.297L0,27.297Z" style="fill:rgb(35,31,32);"/>
        </g>
        <g transform="matrix(1,0,0,1,633.29,428.915)">
            <path d="M0,0.983C-1.873,0.983 -3.364,1.377 -4.462,2.158C-5.75,3.059 -6.397,4.411 -6.397,6.213C-6.397,8.009 -5.757,9.361 -4.48,10.262C-3.37,11.055 -1.873,11.456 0,11.456C1.865,11.456 3.363,11.055 4.474,10.262C5.75,9.361 6.391,8.009 6.391,6.213C6.391,4.423 5.743,3.078 4.455,2.176C3.344,1.383 1.853,0.983 0,0.983M0,-10.472C-1.543,-10.472 -2.78,-10.142 -3.72,-9.489C-4.798,-8.734 -5.338,-7.617 -5.338,-6.138C-5.338,-4.64 -4.805,-3.503 -3.738,-2.736C-2.8,-2.057 -1.549,-1.714 0,-1.714C1.561,-1.714 2.812,-2.057 3.751,-2.736C4.829,-3.503 5.369,-4.64 5.369,-6.138C5.369,-7.617 4.823,-8.734 3.731,-9.489C2.792,-10.142 1.548,-10.472 0,-10.472M5.483,-0.616C8.447,0.602 9.926,2.843 9.926,6.118C9.926,8.904 8.936,11.004 6.949,12.421C5.217,13.632 2.9,14.242 0,14.242C-2.9,14.242 -5.218,13.626 -6.937,12.401C-8.924,10.999 -9.914,8.904 -9.914,6.118C-9.914,2.843 -8.441,0.602 -5.49,-0.616C-7.743,-1.657 -8.873,-3.51 -8.873,-6.176C-8.873,-8.607 -7.966,-10.441 -6.156,-11.678C-4.596,-12.732 -2.545,-13.259 0,-13.259C2.551,-13.259 4.607,-12.732 6.169,-11.678C7.99,-10.454 8.904,-8.62 8.904,-6.176C8.904,-3.523 7.762,-1.669 5.483,-0.616" style="fill:rgb(35,31,32);"/>
        </g>
        <g transform="matrix(1,0,0,1,675.175,415.732)">
            <path d="M0,27.501C0,27.45 -0.006,27.405 -0.019,27.367C-0.057,26.752 -0.076,26.289 -0.076,25.978C-0.076,21.573 1.752,17.98 5.408,15.188C6.582,14.363 8.657,12.808 11.614,10.542C13.214,9.254 14.014,7.908 14.014,6.506C14.014,5.294 13.607,4.361 12.789,3.72C12.046,3.123 11.05,2.825 9.813,2.825C6.169,2.825 3.154,5.078 0.762,9.59L0.762,-0.26C1.518,0.444 2.405,0.801 3.421,0.801C4.164,0.801 5.293,0.648 6.811,0.344C8.334,0.039 9.476,-0.113 10.244,-0.113C12.401,-0.113 14.135,0.432 15.448,1.523C16.851,2.698 17.549,4.348 17.549,6.468C17.549,7.896 17.168,9.229 16.413,10.466C16.178,10.866 15.563,11.463 14.554,12.269C13.747,12.916 12.554,13.881 10.967,15.169L10.859,15.265C9.78,16.121 8.004,17.568 5.541,19.618C4.634,20.621 4.183,21.541 4.183,22.386C4.183,23.318 4.761,23.902 5.909,24.156C6.372,24.251 7.306,24.302 8.721,24.302C11.717,24.302 13.823,23.769 15.042,22.703C16.083,21.782 17.2,19.885 18.387,16.99L18.387,27.761C17.657,27.177 16.883,26.885 16.063,26.885L2.044,26.885C1.238,26.885 0.559,27.088 0,27.501" style="fill:rgb(35,31,32);"/>
        </g>
    </g>
</svg>
