<?xml version="1.0" encoding="UTF-8" standalone="no"?>
<!DOCTYPE svg PUBLIC "-//W3C//DTD SVG 1.1//EN" "http://www.w3.org/Graphics/SVG/1.1/DTD/svg11.dtd">
<svg width="100%" height="100%" viewBox="0 0 995 1002" version="1.1" xmlns="http://www.w3.org/2000/svg" xmlns:xlink="http://www.w3.org/1999/xlink" xml:space="preserve" xmlns:serif="http://www.serif.com/" style="fill-rule:evenodd;clip-rule:evenodd;stroke-linejoin:round;stroke-miterlimit:2;">
    <g id="VIK" transform="matrix(1,0,0,1,-2,3)">
        <g transform="matrix(1,0,0,1,494.421,675.204)">
            <path d="M0,-393.84C12.663,-413.219 24.941,-431.104 36.25,-446.594C24.573,-448.104 12.692,-448.966 0.603,-448.966C-151.581,-448.966 -274.949,-325.597 -274.949,-173.415C-274.949,-78.268 -226.724,5.614 -153.385,55.126C-147.093,36.193 -140.564,18.137 -133.99,1.112C-186.187,-39.202 -219.838,-102.361 -219.838,-173.415C-219.838,-294.959 -121.467,-393.513 0,-393.84" style="fill:rgb(0,43,92);fill-rule:nonzero;"/>
        </g>
        <g transform="matrix(1,0,0,1,495.024,365.259)">
            <path d="M0,356.972C-13.07,356.972 -25.852,355.769 -38.297,353.588C-51.363,373.615 -62.059,390.723 -69.686,403.174C-47.426,408.976 -24.078,412.082 0,412.082C152.183,412.082 275.552,288.714 275.552,136.531C275.552,62.032 245.936,-5.513 197.9,-55.11C184.077,-41.645 171.178,-28.535 159.138,-15.923C197.082,23.674 220.441,77.358 220.441,136.531C220.441,258.277 121.747,356.972 0,356.972" style="fill:rgb(0,43,92);fill-rule:nonzero;"/>
        </g>
        <g transform="matrix(1,0,0,1,616.97,561.59)">
            <path d="M0,-71.526C0,-71.526 -24.623,-87.942 -75.043,-103.185C-75.043,-103.185 17.589,-229.821 159.469,-344.732C159.469,-344.732 32.421,-374.047 -32.831,-374.047C-66.836,-348.25 -175.884,-179.401 -226.303,-66.836C-226.303,-66.836 -184.091,-46.902 -171.193,-34.004C-171.193,-34.004 -230.994,66.836 -272.033,202.853L-308.383,177.057L-283.759,302.521L-170.607,233.34L-216.923,221.614C-216.923,221.614 -111.979,40.453 0,-71.526" style="fill:rgb(0,43,92);fill-rule:nonzero;"/>
        </g>
        <g transform="matrix(1,0,0,1,407.484,963.147)">
            <path d="M0,-9.743L-9.244,-11.866C-13.146,-12.759 -15.987,-14.305 -17.774,-16.511C-19.56,-18.716 -20.11,-21.319 -19.423,-24.315C-18.705,-27.448 -17.032,-29.667 -14.404,-30.966C-11.779,-32.271 -8.516,-32.477 -4.617,-31.584L4.524,-29.488L0,-9.743ZM-6.942,20.549L-13.263,19.107C-21.48,17.217 -24.96,13.528 -23.7,8.025C-23.023,5.063 -21.487,2.968 -19.096,1.737C-16.709,0.508 -13.772,0.295 -10.292,1.092L-2.872,2.789L-6.942,20.549ZM-26.029,-43.229C-31.862,-40.33 -35.562,-35.452 -37.135,-28.589C-38.213,-23.889 -37.533,-19.54 -35.098,-15.535C-32.659,-11.529 -28.853,-8.589 -23.679,-6.706L-23.727,-6.493C-28.244,-6.287 -32.219,-4.974 -35.647,-2.577C-39.076,-0.173 -41.253,3.05 -42.178,7.09C-43.456,12.662 -42.198,17.491 -38.409,21.586C-34.62,25.682 -28.543,28.684 -20.189,30.601L7.08,36.853L24.246,-38.056L-4.534,-44.651C-13.03,-46.596 -20.196,-46.122 -26.029,-43.229" style="fill:rgb(0,43,92);fill-rule:nonzero;"/>
        </g>
        <g transform="matrix(1,0,0,1,351.74,950.367)">
            <path d="M0,-46.54L-17.626,-7.873C-19.996,-2.672 -22.539,3.47 -25.259,10.561L-25.699,10.355C-24.321,4.666 -23.569,1.079 -23.449,-0.397L-18.674,-55.053L-31.549,-60.92L-69.604,-20.845C-71.112,-19.258 -73.253,-16.502 -76.021,-12.579L-76.413,-12.758C-73.531,-18.041 -71.061,-22.947 -69.003,-27.461L-49.931,-69.302L-65.486,-76.393L-97.361,-6.465L-74.881,3.779L-41.745,-31.054C-39.467,-33.473 -37.004,-36.413 -34.366,-39.883L-34.07,-39.752C-35.077,-36.166 -35.768,-32.455 -36.142,-28.622L-40.749,19.341L-17.685,29.853L14.191,-40.075L0,-46.54Z" style="fill:rgb(0,43,92);fill-rule:nonzero;"/>
        </g>
        <g transform="matrix(1,0,0,1,237.271,927.743)">
            <path d="M0,-89.357L-8.093,-77.883L15.421,-61.297L5.287,-46.931L-15.249,-61.421L-23.342,-49.948L-2.807,-35.458L-12.659,-21.49L-34.73,-37.066L-42.854,-25.544L-6.64,0L37.657,-62.789L0,-89.357Z" style="fill:rgb(0,43,92);fill-rule:nonzero;"/>
        </g>
        <g transform="matrix(1,0,0,1,100.68,831.811)">
            <path d="M0,-24.294L11.858,-10.601L62.542,-33.445C65.266,-34.675 67.612,-35.974 69.584,-37.348L69.794,-37.107C68.238,-35.52 66.647,-33.459 65.019,-30.917L35.087,16.215L47.296,30.306L88.258,-39.773L75.417,-54.6L0,-24.294Z" style="fill:rgb(0,43,92);fill-rule:nonzero;"/>
        </g>
        <g transform="matrix(1,0,0,1,103.445,744.082)">
            <path d="M0,42.302L41.528,14.36L45.118,19.698L56.235,12.216L39.392,-12.813L28.275,-5.339L31.865,-0L-9.66,27.943L-13.253,22.604L-24.366,30.086L-7.523,55.115L3.593,47.64L0,42.302Z" style="fill:rgb(0,43,92);fill-rule:nonzero;"/>
        </g>
        <g transform="matrix(1,0,0,1,116.629,760.028)">
            <path d="M0,-76.533L-12.391,-69.928L0.993,-44.816L-54.435,-15.273L-46.293,0L21.525,-36.145L0,-76.533Z" style="fill:rgb(0,43,92);fill-rule:nonzero;"/>
        </g>
        <g transform="matrix(1,0,0,1,34.4106,653.265)">
            <path d="M0,-41.999C-2.315,-42.232 -4.593,-42.205 -6.829,-41.91L-6.922,-42.329C-4.353,-43.133 -2.188,-44.033 -0.429,-45.029L23.109,-58.499L27.217,-39.265L0,-41.999ZM63.318,-19.532L62.563,-19.246L58.835,-36.702L40.986,-38.423L35.276,-65.152L50.852,-74.067L46.912,-92.515L-22.532,-49.735L-18.245,-29.663L60.907,-18.618L50.189,-14.555L60.282,12.051L1.556,34.325L7.695,50.516L79.55,23.257L63.318,-19.532Z" style="fill:rgb(0,43,92);fill-rule:nonzero;"/>
        </g>
        <g transform="matrix(1,0,0,1,80.3984,484.506)">
            <path d="M0,55.121L-42.491,55.811C-48.207,55.904 -54.847,56.244 -62.412,56.828L-62.422,56.348C-56.688,55.148 -53.129,54.286 -51.745,53.765L-0.333,34.6L-0.563,20.453L-53.099,3.297C-55.18,2.617 -58.588,1.868 -63.318,1.051L-63.325,0.621C-57.317,0.954 -51.828,1.078 -46.864,0.999L-0.89,0.254L-1.168,-16.84L-78.004,-15.593L-77.605,9.106L-31.914,24.07C-28.75,25.091 -25.036,26.049 -20.77,26.945L-20.766,27.265C-24.435,27.897 -28.083,28.869 -31.708,30.178L-76.998,46.615L-76.585,71.961L0.254,70.714L0,55.121Z" style="fill:rgb(0,43,92);fill-rule:nonzero;"/>
        </g>
        <g transform="matrix(1,0,0,1,27.2207,419.803)">
            <path d="M0,-11.089C1.22,-16.857 4.346,-20.942 9.382,-23.349C14.418,-25.754 20.832,-26.132 28.626,-24.486C36.108,-22.906 41.594,-19.959 45.081,-15.644C48.571,-11.33 49.698,-6.252 48.464,-0.416C47.269,5.245 44.136,9.368 39.062,11.948C33.992,14.531 27.729,15.033 20.285,13.459C12.944,11.91 7.413,8.918 3.696,4.479C-0.024,0.044 -1.254,-5.146 0,-11.089M17.413,31.477C28.667,33.854 38.516,32.39 46.957,27.09C55.396,21.789 60.756,13.755 63.026,2.989C65.359,-8.059 63.634,-17.781 57.85,-26.176C52.064,-34.572 43.263,-40.017 31.446,-42.515C19.949,-44.943 9.986,-43.587 1.56,-38.447C-6.863,-33.305 -12.208,-25.369 -14.476,-14.638C-16.874,-3.277 -15.132,6.619 -9.244,15.057C-3.359,23.494 5.527,28.966 17.413,31.477" style="fill:rgb(0,43,92);fill-rule:nonzero;"/>
        </g>
        <g transform="matrix(1,0,0,1,39.103,331.696)">
            <path d="M0,22.391C2.092,24.94 5.002,26.942 8.726,28.399C13.483,30.265 18.08,30.481 22.515,29.052C26.95,27.622 31.426,24.572 35.943,19.893C37.699,18.052 39.382,16.351 40.989,14.792C42.597,13.236 44.14,11.951 45.61,10.934C47.083,9.917 48.523,9.227 49.935,8.856C51.343,8.489 52.748,8.578 54.146,9.124C55.177,9.529 56.036,10.155 56.723,10.996C57.406,11.841 57.877,12.899 58.128,14.167C58.378,15.434 58.393,16.898 58.166,18.554C57.939,20.213 57.427,22.054 56.63,24.084C55.276,27.544 53.329,30.731 50.783,33.652C48.241,36.568 45.188,38.997 41.625,40.941L57.595,47.197C59.941,45.122 62.14,42.442 64.194,39.162C66.245,35.877 68.042,32.277 69.581,28.351C71.079,24.524 72.133,20.745 72.751,17.018C73.37,13.287 73.346,9.797 72.683,6.544C72.02,3.291 70.628,0.378 68.509,-2.198C66.39,-4.775 63.335,-6.843 59.344,-8.406C56.448,-9.54 53.745,-10.1 51.227,-10.089C48.708,-10.079 46.283,-9.591 43.947,-8.626C41.611,-7.657 39.323,-6.3 37.083,-4.548C34.844,-2.8 32.566,-0.728 30.248,1.666C28.561,3.421 26.987,4.971 25.521,6.317C24.054,7.661 22.666,8.749 21.364,9.581C20.059,10.412 18.808,10.958 17.613,11.22C16.417,11.48 15.222,11.377 14.023,10.907C12.927,10.477 12.047,9.808 11.388,8.897C10.729,7.987 10.282,6.891 10.055,5.61C9.825,4.332 9.832,2.875 10.069,1.244C10.306,-0.392 10.78,-2.123 11.498,-3.954C12.02,-5.283 12.669,-6.651 13.449,-8.052C14.229,-9.454 15.119,-10.821 16.122,-12.157C17.125,-13.49 18.217,-14.741 19.402,-15.905C20.587,-17.073 21.834,-18.093 23.133,-18.963L8.214,-24.806C6.332,-22.745 4.6,-20.36 3.027,-17.661C1.45,-14.957 -0.068,-11.745 -1.528,-8.018C-3.013,-4.225 -4.012,-0.474 -4.527,3.239C-5.039,6.95 -4.936,10.436 -4.218,13.689C-3.497,16.946 -2.092,19.845 0,22.391" style="fill:rgb(0,43,92);fill-rule:nonzero;"/>
        </g>
        <g transform="matrix(1,0,0,1,129.608,220.371)">
            <path d="M0,88.704L-35.929,66.011C-40.763,62.957 -46.506,59.608 -53.157,55.953L-52.899,55.547C-47.444,57.681 -43.995,58.911 -42.549,59.23L10.962,71.35L18.516,59.388L-16.046,16.262C-17.417,14.551 -19.855,12.06 -23.366,8.787L-23.136,8.423C-18.292,11.992 -13.769,15.101 -9.57,17.753L29.306,42.308L38.434,27.852L-26.541,-13.185L-39.732,7.705L-9.694,45.245C-7.609,47.832 -5.026,50.666 -1.948,53.754L-2.12,54.025C-5.534,52.545 -9.117,51.36 -12.868,50.47L-59.763,39.422L-73.301,60.851L-8.327,101.889L0,88.704Z" style="fill:rgb(0,43,92);fill-rule:nonzero;"/>
        </g>
        <g transform="matrix(-0.0533167,-0.998578,-0.998578,0.0533167,134.692,149.875)">
            <path d="M-13.613,2.202L10.488,2.202L0.009,13.017L-22.116,10.974L-13.613,2.202Z" style="fill:rgb(0,43,92);fill-rule:nonzero;"/>
        </g>
        <g transform="matrix(1,0,0,1,178.138,153.896)">
            <path d="M0,84.75L31.339,50.961L21.044,41.411L1.474,62.51L-11.412,50.559L5.678,32.129L-4.617,22.583L-21.708,41.013L-34.243,29.388L-15.875,9.584L-26.208,0L-56.345,32.494L0,84.75Z" style="fill:rgb(0,43,92);fill-rule:nonzero;"/>
        </g>
        <g transform="matrix(1,0,0,1,208.979,157.91)">
            <path d="M0,-8.158L-5.85,-3.462L-19.237,-20.133L-13.136,-25.032C-6.871,-30.064 -1.632,-29.961 2.573,-24.726C4.586,-22.218 5.383,-19.398 4.964,-16.268C4.552,-13.187 2.896,-10.484 0,-8.158M20.756,29.678L2.336,6.734L5.97,3.818C6.809,3.144 7.719,2.697 8.708,2.478C9.701,2.255 10.787,2.21 11.965,2.337C13.146,2.467 14.424,2.732 15.806,3.137C17.183,3.543 18.691,4.051 20.326,4.662L42.027,12.598L57.526,0.152L31.979,-8.474C30.656,-8.924 29.251,-9.343 27.771,-9.735C26.29,-10.126 24.819,-10.425 23.37,-10.635C21.92,-10.844 20.525,-10.927 19.186,-10.882C17.846,-10.837 16.62,-10.597 15.503,-10.16L15.369,-10.329C16.932,-12.545 18.131,-14.836 18.962,-17.196C19.791,-19.559 20.22,-21.919 20.25,-24.28C20.278,-26.639 19.904,-28.962 19.124,-31.246C18.344,-33.527 17.114,-35.715 15.438,-37.804C6.716,-48.67 -4.919,-48.264 -19.46,-36.588L-40.855,-19.408L7.259,40.512L20.756,29.678Z" style="fill:rgb(0,43,92);fill-rule:nonzero;"/>
        </g>
        <g transform="matrix(1,0,0,1,284.056,63.5214)">
            <path d="M0,84.922L-20.141,47.808C-22.8,42.909 -24.902,39.337 -26.451,37.087L-26.263,36.983C-24.954,37.897 -22.807,39.154 -19.828,40.748L31.041,68.076L46.393,59.742L9.735,-7.798L-4.627,0L15.644,37.347C18.148,41.964 19.952,44.991 21.055,46.423L20.869,46.523C18.842,45.266 16.716,44.043 14.486,42.854L-34.631,16.282L-51.02,25.176L-14.363,92.72L0,84.922Z" style="fill:rgb(0,43,92);fill-rule:nonzero;"/>
        </g>
        <g transform="matrix(1,0,0,1,344.272,84.4146)">
            <path d="M0,-25.813C2.047,-31.227 5.97,-34.841 11.766,-36.658C17.393,-38.42 22.487,-37.692 27.049,-34.48C31.611,-31.265 35.084,-25.857 37.464,-18.255C39.749,-10.959 39.866,-4.734 37.812,0.422C35.754,5.575 31.882,9.044 26.187,10.827C20.663,12.555 15.534,11.841 10.804,8.68C6.07,5.523 2.566,0.312 0.292,-6.95C-1.951,-14.112 -2.047,-20.399 0,-25.813M1.467,22.978C10.22,27.742 19.849,28.481 30.35,25.19C41.123,21.816 48.752,15.554 53.243,6.399C57.732,-2.759 58.172,-13.096 54.565,-24.621C51.051,-35.837 44.991,-43.862 36.386,-48.691C27.777,-53.521 18.241,-54.294 7.774,-51.017C-3.305,-47.548 -11.082,-41.182 -15.559,-31.921C-20.031,-22.656 -20.454,-12.227 -16.823,-0.636C-13.387,10.343 -7.29,18.213 1.467,22.978" style="fill:rgb(0,43,92);fill-rule:nonzero;"/>
        </g>
        <g transform="matrix(1,0,0,1,331.359,18.0076)">
            <path d="M0,13.528C1.889,14.414 3.992,14.497 6.311,13.768C8.629,13.044 10.309,11.807 11.354,10.058C12.397,8.306 12.593,6.393 11.941,4.315C11.302,2.267 10.051,0.818 8.189,-0.045C6.331,-0.9 4.239,-0.969 1.923,-0.244C-0.327,0.464 -1.996,1.707 -3.085,3.486C-4.177,5.27 -4.401,7.183 -3.758,9.23C-3.14,11.209 -1.886,12.641 0,13.528" style="fill:rgb(0,43,92);fill-rule:nonzero;"/>
        </g>
        <g transform="matrix(1,0,0,1,354.842,10.667)">
            <path d="M0,13.541C1.883,14.414 3.964,14.493 6.249,13.775C8.568,13.05 10.254,11.799 11.309,10.03C12.364,8.258 12.573,6.348 11.931,4.304C11.292,2.256 10.024,0.81 8.128,-0.039C6.235,-0.887 4.146,-0.952 1.862,-0.238C-0.422,0.477 -2.095,1.713 -3.153,3.469C-4.215,5.225 -4.421,7.141 -3.768,9.22C-3.14,11.232 -1.882,12.672 0,13.541" style="fill:rgb(0,43,92);fill-rule:nonzero;"/>
        </g>
        <g transform="matrix(1,0,0,1,436.831,14.0911)">
            <path d="M0,79.653L-4.785,42.34L-4.521,42.305C-3.322,44.349 -2.47,45.661 -1.961,46.245L24.507,76.51L44.506,73.944L44.528,75.263L74.696,74.772L74.476,61.378L68.045,61.481L67.234,11.436L73.665,11.33L73.452,-2.064L43.281,-1.576L43.5,11.821L49.931,11.718L50.742,61.762L44.311,61.865L44.473,71.896L12.216,37.565L34.126,-2.202L13.662,0.423L-3.308,34.909C-4.064,36.881 -4.589,38.389 -4.888,39.437L-5.156,39.467L-9.78,3.432L-26.946,5.634L-17.166,81.855L0,79.653Z" style="fill:rgb(0,43,92);fill-rule:nonzero;"/>
        </g>
        <g transform="matrix(1,0,0,1,614.611,32.3113)">
            <path d="M0,57.156L-28.169,51.275L-24.575,34.068L0.027,39.203L2.893,25.459L-21.711,20.323L-18.214,3.591L8.224,9.107L11.103,-4.689L-32.284,-13.744L-47.983,61.484L-2.865,70.9L0,57.156Z" style="fill:rgb(0,43,92);fill-rule:nonzero;"/>
        </g>
        <g transform="matrix(-0.978877,-0.20445,-0.20445,0.978877,595.07,10.1454)">
            <path d="M-30.51,-13.592L-15.455,-13.592L-1.523,3.72L-13.743,3.719L-30.51,-13.592Z" style="fill:rgb(0,43,92);fill-rule:nonzero;"/>
        </g>
        <g transform="matrix(1,0,0,1,619.091,53.2288)">
            <path d="M0,49.007C2.144,51.292 4.885,53.415 8.224,55.369C11.563,57.324 15.218,59.014 19.189,60.436C23.058,61.82 26.863,62.769 30.608,63.277C34.359,63.785 37.843,63.658 41.079,62.899C44.308,62.14 47.18,60.666 49.694,58.471C52.209,56.279 54.188,53.167 55.63,49.131C56.682,46.204 57.162,43.483 57.08,40.965C56.99,38.451 56.435,36.039 55.396,33.734C54.366,31.425 52.944,29.179 51.123,26.994C49.31,24.806 47.173,22.587 44.713,20.34C42.906,18.708 41.313,17.176 39.925,15.751C38.536,14.325 37.41,12.971 36.544,11.69C35.672,10.412 35.088,9.179 34.792,7.99C34.497,6.805 34.565,5.607 34.998,4.394C35.396,3.284 36.043,2.387 36.936,1.7C37.822,1.013 38.907,0.536 40.179,0.272C41.449,0.007 42.906,-0.031 44.548,0.158C46.184,0.347 47.929,0.773 49.783,1.436C51.123,1.917 52.511,2.528 53.934,3.267C55.355,4.002 56.75,4.854 58.117,5.816C59.478,6.781 60.763,7.836 61.958,8.986C63.16,10.137 64.219,11.354 65.125,12.625L70.532,-2.459C68.409,-4.28 65.978,-5.939 63.236,-7.434C60.487,-8.931 57.231,-10.354 53.466,-11.704C49.633,-13.078 45.847,-13.968 42.123,-14.373C38.399,-14.778 34.916,-14.572 31.687,-13.758C28.451,-12.944 25.593,-11.453 23.112,-9.289C20.625,-7.121 18.708,-4.157 17.362,-0.391C15.638,4.421 15.555,9.021 17.114,13.411C18.667,17.801 21.849,22.188 26.657,26.565C28.554,28.269 30.299,29.901 31.906,31.464C33.508,33.027 34.84,34.528 35.898,35.967C36.956,37.41 37.691,38.829 38.097,40.23C38.509,41.628 38.461,43.033 37.952,44.445C37.582,45.489 36.983,46.365 36.159,47.076C35.335,47.788 34.291,48.286 33.033,48.574C31.77,48.863 30.306,48.918 28.644,48.739C26.98,48.561 25.125,48.104 23.078,47.368C19.574,46.115 16.331,44.259 13.343,41.803C10.354,39.347 7.832,36.369 5.785,32.865L0,49.007Z" style="fill:rgb(0,43,92);fill-rule:nonzero;"/>
        </g>
        <g transform="matrix(1,0,0,1,743.344,91.3745)">
            <path d="M0,58.436L-5.448,55.018L21.153,12.62L26.603,16.035L33.72,4.688L8.162,-11.347L1.044,0.003L6.492,3.421L-20.11,45.818L-25.559,42.4L-32.677,53.75L-7.118,69.783L0,58.436Z" style="fill:rgb(0,43,92);fill-rule:nonzero;"/>
        </g>
        <g transform="matrix(1,0,0,1,755.902,139.65)">
            <path d="M0,35.557L27.098,3.166C30.67,-1.107 33.219,-4.378 34.744,-6.641L34.909,-6.504C34.538,-4.951 34.16,-2.495 33.775,0.861L27.084,58.216L40.481,69.429L89.797,10.487L77.259,-0.001L49.99,32.593C46.623,36.622 44.473,39.411 43.545,40.964L43.381,40.827C43.807,38.484 44.157,36.056 44.445,33.544L51.075,-21.904L36.771,-33.872L-12.538,25.069L0,35.557Z" style="fill:rgb(0,43,92);fill-rule:nonzero;"/>
        </g>
        <g transform="matrix(1,0,0,1,816.761,169.391)">
            <path d="M0,63.363L22.577,43.837L38.881,62.683L49.495,53.5L33.198,34.651L47.462,22.312L65.201,42.82L75.864,33.6L46.802,0L-11.322,50.271L0,63.363Z" style="fill:rgb(0,43,92);fill-rule:nonzero;"/>
        </g>
        <g transform="matrix(1,0,0,1,880.038,284.465)">
            <path d="M0,-33.071C6.376,-37.029 12.442,-38.691 18.193,-38.056C23.95,-37.424 28.43,-34.528 31.632,-29.364C34.737,-24.356 35.308,-19.241 33.336,-14.023C31.356,-8.801 26.987,-4.092 20.22,0.11C13.721,4.139 7.723,5.805 2.22,5.097C-3.291,4.393 -7.612,1.508 -10.759,-3.563C-13.81,-8.478 -14.394,-13.624 -12.518,-18.997C-10.636,-24.366 -6.465,-29.059 0,-33.071M-28.691,-24.473C-31.123,-14.809 -29.433,-5.301 -23.635,4.05C-17.678,13.641 -9.708,19.471 0.275,21.535C10.265,23.6 20.385,21.45 30.643,15.08C40.632,8.883 46.891,1.013 49.419,-8.523C51.955,-18.063 50.326,-27.492 44.541,-36.812C38.42,-46.678 30.319,-52.621 20.233,-54.644C10.147,-56.671 -0.062,-54.48 -10.381,-48.073C-20.151,-42.006 -26.259,-34.139 -28.691,-24.473" style="fill:rgb(0,43,92);fill-rule:nonzero;"/>
        </g>
        <g transform="matrix(1,0,0,1,946.503,367.402)">
            <path d="M0,-46.613L2.906,-39.347C5.888,-31.883 4.26,-26.902 -1.972,-24.411C-4.96,-23.216 -7.887,-23.278 -10.759,-24.593C-13.59,-25.888 -15.692,-28.259 -17.066,-31.708L-19.855,-38.674L0,-46.613ZM-59.313,-22.903L-31.995,-33.823L-30.265,-29.495C-29.866,-28.499 -29.708,-27.496 -29.783,-26.483C-29.858,-25.473 -30.134,-24.422 -30.601,-23.329C-31.068,-22.237 -31.693,-21.092 -32.483,-19.89C-33.273,-18.692 -34.201,-17.396 -35.266,-16.012L-49.192,2.425L-41.813,20.886L-26.101,-1.031C-25.283,-2.165 -24.473,-3.384 -23.669,-4.69C-22.864,-5.991 -22.15,-7.307 -21.525,-8.633C-20.899,-9.959 -20.412,-11.271 -20.062,-12.563C-19.718,-13.858 -19.588,-15.102 -19.677,-16.294L-19.478,-16.376C-17.815,-14.233 -15.974,-12.419 -13.961,-10.935C-11.94,-9.451 -9.811,-8.351 -7.564,-7.634C-5.311,-6.916 -2.981,-6.599 -0.57,-6.678C1.842,-6.758 4.287,-7.293 6.781,-8.286C19.719,-13.456 22.728,-24.703 15.803,-42.02L5.62,-67.499L-65.736,-38.977L-59.313,-22.903Z" style="fill:rgb(0,43,92);fill-rule:nonzero;"/>
        </g>
        <g transform="matrix(1,0,0,1,908.949,448.363)">
            <path d="M0,-41.813L41.82,-49.371C47.447,-50.384 53.94,-51.796 61.312,-53.6L61.401,-53.126C55.933,-51.013 52.565,-49.587 51.281,-48.845L3.648,-21.614L6.163,-7.694L60.783,0.736C62.947,1.072 66.431,1.258 71.233,1.299L71.309,1.722C65.324,2.367 59.89,3.13 55.005,4.013L9.756,12.188L12.793,29.011L88.416,15.349L84.025,-8.962L36.517,-16.334C33.232,-16.832 29.412,-17.176 25.057,-17.368L25.002,-17.684C28.52,-18.904 31.961,-20.449 35.321,-22.329L77.354,-45.877L72.848,-70.824L-2.775,-57.158L0,-41.813Z" style="fill:rgb(0,43,92);fill-rule:nonzero;"/>
        </g>
        <g transform="matrix(1,0,0,1,983.631,518.638)">
            <path d="M0,3.404C-2.687,3.587 -5.001,3.954 -6.945,4.513L-32.978,12.098L-32.47,-7.561L-6.65,1.467C-4.452,2.236 -2.232,2.741 0.014,2.978L0,3.404ZM-62.129,-36.2L-62.61,-17.451L-45.661,-11.601L-46.361,15.723L-63.593,20.745L-64.081,39.604L13.445,14.259L13.975,-6.259L-62.129,-36.2Z" style="fill:rgb(0,43,92);fill-rule:nonzero;"/>
        </g>
        <g transform="matrix(1,0,0,1,976.788,609.84)">
            <path d="M0,-19.756L-61.689,-31.275L-64.878,-14.208L-3.188,-2.69L-7.214,18.856L6.644,21.442L17.856,-38.612L3.999,-41.198L0,-19.756Z" style="fill:rgb(0,43,92);fill-rule:nonzero;"/>
        </g>
        <g transform="matrix(1,0,0,1,965.624,644.536)">
            <path d="M0,-1.951L-47.874,-16.558L-45.998,-22.707L-58.812,-26.616L-67.619,2.239L-54.806,6.149L-52.924,-0L-5.05,14.607L-6.926,20.755L5.888,24.665L14.688,-4.191L1.875,-8.1L0,-1.951Z" style="fill:rgb(0,43,92);fill-rule:nonzero;"/>
        </g>
        <g transform="matrix(1,0,0,1,899.427,676.198)">
            <path d="M0,94.177C1.456,95.998 3.071,97.599 4.851,98.987L4.617,99.344C2.239,98.079 0.082,97.166 -1.862,96.61L-27.963,89.265L-17.128,72.851L0,94.177ZM-10.615,-5.658L23.792,9.55L23.689,9.794C21.319,9.763 19.753,9.815 18.99,9.946L-20.598,16.936L-28.663,35.181L-37.458,48.502L-26.177,62.443L-41.236,85.245L-58.516,80.388L-68.911,96.128L10.278,115.668L21.587,98.547L-24.825,35.953L19.086,26.569L41.779,65.892L50.12,47.026L29.385,14.658C28.093,12.992 27.076,11.763 26.334,10.965L26.444,10.722L59.677,25.41L66.671,9.577L-3.614,-21.491L-10.615,-5.658Z" style="fill:rgb(0,43,92);fill-rule:nonzero;"/>
        </g>
        <g transform="matrix(1,0,0,1,873.134,798.441)">
            <path d="M0,19.471L-37.98,-13.13L-33.789,-18.008L-43.958,-26.74L-63.607,-3.841L-53.438,4.885L-49.255,-0L-11.274,32.607L-15.459,37.486L-5.298,46.211L14.358,23.319L4.19,14.593L0,19.471Z" style="fill:rgb(0,43,92);fill-rule:nonzero;"/>
        </g>
        <g transform="matrix(1,0,0,1,706.352,855.597)">
            <path d="M0,91.356C-1.367,89.034 -2.734,87.137 -4.108,85.647L-22.59,65.804L-4.802,57.416L-1.257,84.541C-0.955,86.849 -0.405,89.061 0.392,91.17L0,91.356ZM42.501,-6.967L64.074,23.854L63.854,24.011C61.842,22.754 60.474,21.992 59.76,21.71L22.261,7.2L5.363,19.029L-9.522,26.052L-7.124,43.819L-31.845,55.478L-44.081,42.349L-61.14,50.394L-3.648,108.244L14.916,99.491L7.703,20.9L51.233,35.98L50.299,81.374L67.207,69.543L66.218,31.123C65.971,29.027 65.737,27.447 65.51,26.382L65.73,26.224L86.568,55.994L100.749,46.066L56.682,-16.888L42.501,-6.967Z" style="fill:rgb(0,43,92);fill-rule:nonzero;"/>
        </g>
        <g transform="matrix(1,0,0,1,631.431,925.545)">
            <path d="M0,50.182C-7.75,52.326 -12.519,50.161 -14.312,43.683C-15.163,40.584 -14.778,37.678 -13.157,34.971C-11.563,32.305 -8.974,30.478 -5.387,29.489L1.841,27.489L7.536,48.1L0,50.182ZM-9.481,-13.473L-1.643,14.888L-6.136,16.125C-7.173,16.413 -8.183,16.462 -9.18,16.277C-10.183,16.084 -11.192,15.7 -12.229,15.116C-13.261,14.532 -14.332,13.776 -15.438,12.862C-16.544,11.941 -17.727,10.883 -18.983,9.674L-35.774,-6.204L-54.937,-0.907L-34.882,17.128C-33.845,18.063 -32.725,19.004 -31.522,19.945C-30.312,20.893 -29.083,21.752 -27.833,22.515C-26.582,23.285 -25.339,23.91 -24.088,24.397C-22.845,24.892 -21.622,25.153 -20.419,25.194L-20.364,25.401C-22.68,26.816 -24.686,28.444 -26.383,30.286C-28.08,32.126 -29.406,34.125 -30.368,36.284C-31.33,38.441 -31.9,40.721 -32.093,43.126C-32.277,45.531 -32.01,48.025 -31.302,50.608C-27.585,64.033 -16.744,68.265 1.229,63.298L27.681,55.988L7.2,-18.083L-9.481,-13.473Z" style="fill:rgb(0,43,92);fill-rule:nonzero;"/>
        </g>
        <g transform="matrix(-1,0,0,1,505.137,990.498)">
            <path d="M-0.001,-41.333C11.413,-41.333 20.666,-32.08 20.666,-20.666C20.666,-9.253 11.413,0 -0.001,0C-11.414,0 -20.667,-9.253 -20.667,-20.666C-20.667,-32.08 -11.414,-41.333 -0.001,-41.333" style="fill:rgb(0,43,92);fill-rule:nonzero;"/>
        </g>
    </g>
</svg>
