<svg id="Layer_1" data-name="Layer 1" xmlns="http://www.w3.org/2000/svg" viewBox="0 0 261.82 258.22"><defs><style>.cls-1{fill:#1a1b1d;}.cls-2{fill:#fefefe;}.cls-3{fill:#ed2025;}</style></defs><title>dezsomatrica</title><path class="cls-1" d="M153.67,321.32l-1.74.12c-.13,0-.25,0-.37,0l-4.88.24-1.56.09-.37,0-4.88.24-1.56.1-.46,0-5,.25-1.38.09-.46,0-4.88.24-1.57.1-.36,0-4.88.24-1.57.1-.46,0-4.87.24-1.48.09-.46,0-4.87.24-1.57.09c-.12,0-.24,0-.37,0l-4.78.25-1.75.1-.64,0-3.41.19-3.13.17-4.88.24-1.56.09c-.12,0-.24,0-.37,0l-4.78.24-1.75.11-.37,0-4.88.25-1.47.08-.46,0-4.88.24-1.47.09-.46,0-5,.24-1.47.1-.46,0-4.88.24-1.47.09L49,327l-4.88.24-1.56.09-.37,0-4.88.25-1.56.09-2.58.11a.29.29,0,0,1-.3-.28c0-.25,0-.49,0-.74-.05-1-.11-2-.16-2.94-.08-1.66-.16-3.32-.25-5s-.19-3.38-.29-5.06c0-.13,0-.25,0-.37-.08-1.69-.16-3.38-.25-5.06s-.19-3.26-.28-4.88l0-.37c-.08-1.72-.16-3.44-.25-5.15s-.18-3.19-.28-4.79c0-.12,0-.24,0-.37-.08-1.71-.16-3.43-.26-5.15s-.18-3.19-.27-4.78c0-.22,0-.43,0-.65-.11-2.12-.23-4.23-.34-6.35-.09-1.66-.16-3.31-.25-5s-.19-3.31-.28-5c-.05-.92-.09-1.84-.13-2.76a.27.27,0,0,1,.27-.3l.46,0,1.11,0,1.56-.14c.07,0,.14-.13.1-.2l-.56-1.06a131.2,131.2,0,0,1-8.23-18.88A127.53,127.53,0,0,1,20.45,230q-.91-3.9-1.58-7.85-.48-2.82-.83-5.65c-.19-1.5-.31-3-.46-4.5-.28-2.75-.39-5.51-.48-8.27-.06-2.25-.06-4.49,0-6.73s.17-4.36.36-6.53.39-4.1.64-6.14c.29-2.23.62-4.45,1-6.65A132.78,132.78,0,0,1,38.6,128.64a130.73,130.73,0,0,1,15.6-19.57,128,128,0,0,1,33.33-24.8,131,131,0,0,1,19.14-8q5.76-1.89,11.68-3.26,2.91-.67,5.85-1.2c1.49-.26,3-.52,4.45-.74s2.74-.37,4.11-.55,3-.31,4.49-.46c1.25-.12,2.51-.17,3.77-.24,1.07-.06,2.15-.13,3.22-.15,2.71-.07,5.41-.06,8.11,0,.86,0,1.72.11,2.58.13,1.39,0,2.76.17,4.14.25,1,.06,1.9.18,2.84.28l2.38.25c.58.07,1.16.13,1.74.22,1.91.29,3.83.56,5.73.91,2.74.5,5.47,1.08,8.18,1.76q4.32,1.08,8.57,2.44a126,126,0,0,1,17.11,6.93,127.93,127.93,0,0,1,13.88,8,130.59,130.59,0,0,1,14.08,10.68q3.76,3.27,7.26,6.82a133.39,133.39,0,0,1,24.36,34,130.62,130.62,0,0,1,9.46,25c.78,3,1.45,6,2,9,.31,1.63.59,3.26.81,4.9.15,1.13.33,2.25.47,3.38.1.79.17,1.59.25,2.38.1,1,.19,2,.29,3l0,.37c.07,1.69.22,3.37.26,5.06,0,2,.12,3.93.08,5.9s-.07,4.17-.24,6.26c-.09,1.16-.15,2.33-.25,3.49-.08,1-.19,2-.3,2.93-.06.62-.14,1.22-.21,1.83-.24,2.05-.56,4.08-.91,6.11s-.72,3.8-1.13,5.69c-.88,4-2,8-3.23,11.9q-1.59,4.9-3.58,9.66l-.21.51c-.07.18,0,.33.18.32l1.57,0H271c.05,0,.17.12.18.18.05.83.11,1.66.16,2.48l.33,6,0,.56c.08,1.72.16,3.43.25,5.15q.18,3.45.38,6.9l.36,6.81c.12,2.27.25,4.54.37,6.81s.25,4.61.37,6.91l.36,6.71c.13,2.3.25,4.61.38,6.91l.36,6.71c0,.71.09,1.41.13,2.12,0,.15,0,.31,0,.46a.19.19,0,0,1-.17.19,3.31,3.31,0,0,1-.55.05l-6.16.34-1.2.05-1.84.1c-.12,0-.24,0-.37,0l-4.88.24-1.47.09-.46,0-4.88.24-1.56.1-.37,0-4.88.24-1.56.09-.46,0-4.88.24-1.47.09-.46,0-4.88.25-1.56.09-.37,0-4.88.25-1.56.09-.46,0-4.88.25-1.56.09-.37,0-4.88.24-1.56.1-.37,0-4.88.24-1.66.1-.64.05-3.5.19-3,.16-4.88.24-1.57.1-.36,0-4.79.24-1.75.1-.36,0-4.88.24-1.48.09-.45,0-5,.25-1.38.08-.55.05-4.88.24-1.47.09c-.15,0-.3,0-.46,0l-5,.25-1.84.12c-.43,0-.86,0-1.29.06ZM113.92,122.1c.18.07.33.18.49.26l3.07,1.47c1.47.69,2.93,1.39,4.34,2.21l1.1.67a1,1,0,0,1,.46.76,1.8,1.8,0,0,1-.07.73.3.3,0,0,1-.24.24l-1.73.24c-.67.09-1.33.23-2,.28-.46,0-.9.16-1.36.23l-.09,0a.23.23,0,0,0-.11.21,11,11,0,0,0,.76,1.58,15.28,15.28,0,0,1,1.15,2.5,10.34,10.34,0,0,1,.33,6,12.44,12.44,0,0,0-.37,2,16.23,16.23,0,0,0,.22,4.77,27,27,0,0,0,1,3.55c.86,2.46,1.68,4.93,2.37,7.45.74,2.69,1.4,5.4,2,8.14.3,1.51.58,3,.83,4.53.16,1,.29,1.94.41,2.92s.16,1.71.27,2.56c.15,1.22.21,2.45.26,3.68.07,1.75.06,3.5.07,5.25,0,1.42-.11,2.83-.16,4.24-.11,2.48-.14,5-.2,7.46,0,1.41,0,2.83-.1,4.24-.07,1.78-.18,3.56-.28,5.34l-.24,3.86c0,.12,0,.25,0,.37-.1,1.13-.19,2.26-.29,3.39-.08.95-.15,1.9-.24,2.85s-.2,2-.29,2.94-.16,1.89-.24,2.84l-.21,2.2c-.1.92-.2,1.84-.29,2.75-.15,1.44-.29,2.88-.43,4.31-.07.64-.15,1.28-.22,1.92-.09.83-.19,1.65-.28,2.48s-.16,1.59-.24,2.38-.15,1.28-.22,1.92c-.1.92-.2,1.83-.28,2.75s-.17,2-.25,2.94c-.15,1.62-.27,3.25-.32,4.87q-.09,3.47-.16,6.91a2.34,2.34,0,0,0,0,.46.23.23,0,0,0,.11.14,2.36,2.36,0,0,0,.46,0l5.06-.26,2-.11,1.65-.1,1.38-.07,4.88-.25.37,0,1.84-.11,1.29-.06,6.17-.33.73-.05a.21.21,0,0,0,.16-.33l-.19-.32c-.33-.62-.68-1.24-1-1.87a25.84,25.84,0,0,1-2.27-7.55,27,27,0,0,1-.26-3.12,32.11,32.11,0,0,1,.29-5.88,34.69,34.69,0,0,1,.93-4.51,51.77,51.77,0,0,1,5.67-13.33,15.7,15.7,0,0,0,.8-1.45,9.18,9.18,0,0,0,.73-5.84,24.21,24.21,0,0,1-.39-2.82,19.53,19.53,0,0,1,.39-5.5,23.15,23.15,0,0,1,1.91-5.46,40.06,40.06,0,0,1,2.34-4.07c1.26-2,2.55-3.9,3.83-5.86.67-1,1.34-2.05,2-3.09a7.56,7.56,0,0,0,.47-.89.77.77,0,0,0,0-.63,1,1,0,0,0-.58-.56,7.08,7.08,0,0,0-.78-.25c-1-.31-2-.5-3.05-.71-1.59-.34-3.18-.64-4.77-1a10,10,0,0,1-1.33-.36,2.19,2.19,0,0,1-1.57-2.15c0-.25,0-.49,0-.74l.18-3.87c.08-1.38.16-2.76.25-4.14,0-.7.09-1.41.16-2.11a8,8,0,0,1,.3-1.81,1.9,1.9,0,0,1,1.16-1.22,4.92,4.92,0,0,1,1.34-.31c.89-.11,1.78-.16,2.66-.23l.74-.07,1.1-.1c1-.07,2-.13,2.94-.24,1.22-.13,2.44-.24,3.67-.31a3.32,3.32,0,0,0,2.21-1,4.39,4.39,0,0,0,.69-1c.24-.46.49-.93.75-1.37a15.08,15.08,0,0,1,6.26-5.95,17.69,17.69,0,0,1,3.07-1.22l1.76-.52a5.55,5.55,0,0,0,2.58-1.69,6.22,6.22,0,0,0,1-1.55,17.78,17.78,0,0,0,1.62-6.2,9,9,0,0,0,0-1.47,13.67,13.67,0,0,0-.27-2,16.14,16.14,0,0,1-.32-2.18,4.59,4.59,0,0,1,0-.74,2,2,0,0,1,.28-1,2,2,0,0,1,2.14-.94,7,7,0,0,1,2.06.76c.37.22.74.44,1.09.69a21.84,21.84,0,0,1,4.13,3.79,30.46,30.46,0,0,1,4.63,7.6c.55,1.3,1.08,2.6,1.6,3.92a36.07,36.07,0,0,1,1.63,5.07c.16.72.3,1.45.43,2.17a4.67,4.67,0,0,0,1.17,2.36,6.18,6.18,0,0,0,1.28,1.05l1.4.88a35.65,35.65,0,0,1,8.53,7.39,34.76,34.76,0,0,1,6.82,13,41.2,41.2,0,0,1,1.17,5.4,27.45,27.45,0,0,1,.34,3.94v1.57a20.22,20.22,0,0,1-.6,4.83,16.72,16.72,0,0,1-1.55,4,10.57,10.57,0,0,0-.5,1.08,1.42,1.42,0,0,0,.19,1.48c.13.17.27.34.41.49l.67.64c.78.74,1.57,1.47,2.33,2.23A52.51,52.51,0,0,1,234,221.66a61.33,61.33,0,0,1,6.41,18.53c.26,1.45.51,2.9.76,4.35,0,.2.14.28.32.24.75-.16,1.5-.3,2.24-.52a16.27,16.27,0,0,0,5.09-2.48,2,2,0,0,0,.35-.3.32.32,0,0,0,.07-.25.71.71,0,0,0-.34-.53l-.57-.29a7.47,7.47,0,0,1-1.43-.82,11.47,11.47,0,0,1-4-5.61,4.09,4.09,0,0,1,.24-3.4,5.86,5.86,0,0,1,2.48-2.52,4.19,4.19,0,0,1,2.4-.5,6.91,6.91,0,0,1,1.79.39,17.39,17.39,0,0,1,2.84,1.31c.9.51,1.8,1.05,2.7,1.57a2.48,2.48,0,0,1,.64.52c.6.66,1.21,1.31,1.82,2a3.4,3.4,0,0,1,.68,1.08c.09.23.15.47.24.7s.21.57.32.86l.13.24a.23.23,0,0,0,.24.09,5.65,5.65,0,0,0,2.34-2,.68.68,0,0,0-.35-1,5.79,5.79,0,0,0-.71-.21,15,15,0,0,1-2.17-.73,5.8,5.8,0,0,1-1.87-1.31,1.57,1.57,0,0,1-.5-1.24c0-.3,0-.61,0-.92a4.22,4.22,0,0,1,.16-1.27,2.78,2.78,0,0,1,2.59-2.25,11.71,11.71,0,0,1,2.58,0,4.46,4.46,0,0,1,3.08,1.66c.16.19.28.4.43.59a2.5,2.5,0,0,0,.33.32.35.35,0,0,0,.49,0,3.36,3.36,0,0,0,.86-.82,6.22,6.22,0,0,0,.67-1.1c.21-.41.39-.83.6-1.24a5.1,5.1,0,0,1,1-1.44,3.26,3.26,0,0,1,.36-.29.29.29,0,0,1,.44.16,2.07,2.07,0,0,1,.12,1.18c0,.2-.06.42-.11.63a39.4,39.4,0,0,1-1.27,4.13,24.19,24.19,0,0,1-4.12,7.15,15.61,15.61,0,0,1-4.28,3.6,20.42,20.42,0,0,0-5.49,4.43,15.21,15.21,0,0,1-5.15,3.8,21.36,21.36,0,0,1-4.81,1.52l-1.81.36a2.82,2.82,0,0,0-.84.35,1.9,1.9,0,0,0-.83,1c0,.06.06.2.13.2a1.09,1.09,0,0,0,.18,0l5.89-.28.28,0,1.56-.09,4.88-.24.37,0,1.56-.1,4.88-.24.28,0,1.93-.11,1.93-.12.37,0a.48.48,0,0,0,.47-.36c.07-.14.13-.28.19-.42a127.23,127.23,0,0,0,6-17.31c.73-2.73,1.37-5.48,1.9-8.25.33-1.69.63-3.38.88-5.08.14-1,.3-2,.42-3,.17-1.34.33-2.68.46-4,.11-1.07.16-2.14.25-3.21.16-1.69.21-3.38.26-5.06.06-1.85.07-3.69,0-5.54s-.13-3.8-.21-5.71a1.09,1.09,0,0,0,0-.18c-.15-1.77-.27-3.55-.46-5.32s-.39-3.42-.64-5.12c-.3-2-.64-3.94-1-5.9q-.94-4.89-2.3-9.67a128,128,0,0,0-11.71-28.15,130.7,130.7,0,0,0-23-29.81A128.19,128.19,0,0,0,218,93a124.73,124.73,0,0,0-28.85-14.06c-2.94-1-5.9-1.88-8.9-2.64-2.62-.66-5.25-1.25-7.91-1.74-2.23-.42-4.46-.81-6.72-1.09l-1.73-.22c-.8-.1-1.59-.21-2.38-.28-1-.1-2-.15-3-.26-1.44-.15-2.88-.2-4.32-.28s-3-.09-4.43-.12c-2.42,0-4.85,0-7.28.12-.33,0-.67,0-1,.06l-1.19.08-3.5.24c-.7,0-1.4.13-2.11.21l-2.37.29c-.67.08-1.35.15-2,.24-1,.15-2,.32-3,.48-1.22.2-2.43.39-3.63.63-2.14.43-4.26.88-6.38,1.4q-5.08,1.26-10.06,2.9a127.77,127.77,0,0,0-18.53,7.82A124.32,124.32,0,0,0,71,97.83a126.3,126.3,0,0,0-19.27,17.92,130.24,130.24,0,0,0-26.31,47.4c-1,3.26-1.87,6.56-2.61,9.88q-.6,2.75-1.09,5.51c-.25,1.33-.44,2.67-.63,4-.16,1.06-.29,2.13-.43,3.19-.1.86-.2,1.71-.28,2.57s-.18,2-.25,3c-.11,1.59-.22,3.18-.28,4.78-.08,2.24-.08,4.49-.06,6.73s.14,4.3.25,6.44c.05.89.13,1.78.21,2.67s.19,1.77.29,2.66c.14,1.22.26,2.44.44,3.66.25,1.7.53,3.39.83,5.09.54,3,1.19,5.89,1.95,8.81a125,125,0,0,0,5.3,16,128.29,128.29,0,0,0,6.54,13.7l.27.48a.38.38,0,0,0,.38.2h.18l5.53-.27.36,0c.49,0,1-.07,1.48-.09l4.87-.24.37,0,1.75-.1,4.79-.25.36,0,1.66-.1,4.79-.24.27,0,2-.12,2.94-.18a.15.15,0,0,0,.09,0c.08,0,.16-.08.18-.19.2-1,.4-2,.59-3.07.24-1.24.47-2.47.69-3.71.14-.85.29-1.7.39-2.55.15-1.22.26-2.44.38-3.67a24.7,24.7,0,0,1,.5-3.08c.33-1.5.62-3,.83-4.53.14-1,.28-2,.41-3l.48-3.66c.07-.51.14-1,.18-1.55a27.43,27.43,0,0,0,0-4.88c-.06-.55-.14-1.09-.23-1.64a.37.37,0,0,0-.52-.34c-.85.25-1.74.36-2.59.63a1.7,1.7,0,0,1-1.09,0L66.6,225a2.67,2.67,0,0,0-.26-.09.12.12,0,0,0-.08,0c-.08,0-.08.06-.05.14a1.89,1.89,0,0,0,.5.65l1.14.93.28.25a.18.18,0,0,1,0,.24c-.51.62-1,1.24-1.53,1.84a70.85,70.85,0,0,1-8.55,8.51,42.92,42.92,0,0,1-7,4.83,28.08,28.08,0,0,1-6.47,2.6,19.2,19.2,0,0,1-5.65.64,16.21,16.21,0,0,1-2.19-.29,12.37,12.37,0,0,1-2.83-1.06.11.11,0,0,1-.07-.06c0-.05-.06-.13,0-.16a4.7,4.7,0,0,1,.35-.43L51.27,224l4-4.57a3.2,3.2,0,0,1,.57-.59,1.12,1.12,0,0,0,.41-.34l2-3.4a.57.57,0,0,0,.06-.52,25.53,25.53,0,0,1-1.15-4.45,6.93,6.93,0,0,1-.11-1,62.31,62.31,0,0,1,.19-7.73c.08-.7.17-1.41.29-2.1.22-1.24.46-2.48.62-3.72a38.47,38.47,0,0,1,.79-4.26c.3-1.22.56-2.45.75-3.69a27.25,27.25,0,0,0,.31-4.69c0-1.93,0-3.87,0-5.8,0-1.48.11-2.95.19-4.42.07-1.26.16-2.52.24-3.77.06-.77.12-1.53.19-2.3.09-1,.2-1.95.29-2.93s.16-1.84.25-2.76l.21-2.2c.1-1,.21-2.08.28-3.12.11-1.71.23-3.43.24-5.15,0-.16,0-.31,0-.46.11-1.9.23-3.81.35-5.71,0-.3.09-.6.14-.91a2.15,2.15,0,0,1,.35-.84,2.79,2.79,0,0,1,1.17-1,7.91,7.91,0,0,1,.84-.37c1.7-.68,3.45-1.27,5.19-1.85.23-.07.47-.14.7-.23a.46.46,0,0,0,.27-.6,3.16,3.16,0,0,0-.16-.43,24.3,24.3,0,0,0-1.24-2.57,17.19,17.19,0,0,1-1.91-6.4,19.38,19.38,0,0,1,.12-4.87,19.65,19.65,0,0,1,6-11.54,47.5,47.5,0,0,1,12-8.49,40.29,40.29,0,0,1,11.59-3.73,18.25,18.25,0,0,1,2.1-.26,8.48,8.48,0,0,0,1.73-.24,5.2,5.2,0,0,1,1.18-.13h7.93a4,4,0,0,1,1.09.12,3.27,3.27,0,0,0,.82.09,15.73,15.73,0,0,1,2.38.24c.91.12,1.82.31,2.72.5a26.71,26.71,0,0,1,5.76,1.86,17.39,17.39,0,0,1,3.19,1.82,9,9,0,0,1,1.83,1.81,7.29,7.29,0,0,1,1.27,5.77,8.84,8.84,0,0,1-3.07,5.32,14,14,0,0,1-3.27,2,22.19,22.19,0,0,1-3.73,1.28c-1.58.39-3.16.75-4.74,1.12A1.08,1.08,0,0,0,113.92,122.1Zm36.59,137v0l-1.48.06-1.56.08-1.66.1-4.78.24-.37,0-1.56.09-4.88.25-.37,0-1.75.11-4.79.24-.36,0-1.66.1-4.79.24-.36,0-1.57.09-4.88.24-.36,0-1.75.1-4.79.25-.37,0-1.56.09-4.88.24-.37,0-1.56.1-4.88.24-.37,0-1.65.1-4.88.24-.37,0-1.56.1-4.88.24-.28,0-1.93.11-1.75.1-1.38.08-4.88.24-.36,0-1.66.1-4.88.24c-.12,0-.24,0-.37,0l-1.56.1-4.88.24-.37,0-1.65.1-4.88.24-.28,0-1.65.09-4.88.25-.28,0-1.93.11-1.2.05-5.7.32a2.08,2.08,0,0,0-.36.05.16.16,0,0,0-.11.12c0,.4,0,.8,0,1.2.09,1.57.19,3.13.28,4.69.09,1.72.17,3.44.25,5.16l0,.46c.09,1.59.19,3.19.28,4.78s.16,3.38.25,5.07c0,.12,0,.24,0,.36.09,1.57.19,3.13.27,4.7.1,1.75.18,3.49.26,5.24,0,.13,0,.25,0,.37.1,1.57.2,3.13.28,4.69s.17,3.38.25,5.07c0,.15,0,.3,0,.46.1,1.53.19,3.06.27,4.6.1,1.75.18,3.5.26,5.25,0,.12,0,.24,0,.36.12,2,.23,4.05.34,6.08,0,.21,0,.43,0,.64s.12.17.19.17h.55l3-.17.92-.06,1.65-.09,2-.11,1.28-.07,4.88-.25c.13,0,.25,0,.37,0l1.56-.09,4.88-.24.46,0,1.47-.09,5-.25.36,0,1.57-.09,4.88-.24.36,0,1.57-.1,4.88-.24.36,0,1.75-.1,4.79-.24c.12,0,.24,0,.37,0l1.65-.1L91,322l.37,0,1.56-.09,4.88-.25c.15,0,.3,0,.46,0l1.47-.08,4.88-.24.37,0,1.74-.11,4.79-.24.37,0,1.56-.1,4.88-.24.37,0,1.75-.1,4.78-.25c.13,0,.25,0,.37,0l1.56-.09,4.88-.24.37,0,1.56-.1,5-.25.27,0,1.75-.1,4.79-.24.36,0,1.57-.1,4.88-.24.46,0,1.38-.08,4.87-.24.28,0,5-.29h.27l4.88-.24.37,0,1.47-.09,5-.25.37,0c.52,0,1-.07,1.57-.09l4.87-.25c.13,0,.25,0,.37,0l1.66-.09,4.88-.25.36,0,1.66-.1,2-.11,1.29-.07,4.88-.24.46,0,1.47-.08,4.88-.25.46,0,1.47-.09,5-.25.37,0c.52,0,1-.07,1.57-.09l4.87-.25.46,0,1.48-.08,4.87-.24.37,0,1.75-.1,4.79-.25.36,0,1.66-.09,4.79-.24.36,0,1.57-.1,4.88-.24.36,0,1.75-.1,4.79-.24c.12,0,.24,0,.37,0L257,313l4.88-.24.55-.05,1.29-.08,5-.24.27,0,2.21-.13.46,0a.26.26,0,0,0,.16-.2,1.1,1.1,0,0,0,0-.18l-.33-6.26c0-.09,0-.18,0-.27-.1-1.63-.2-3.25-.28-4.88s-.17-3.37-.26-5.06c0-.13,0-.25,0-.37l-.3-5.34-.24-4.78c-.09-1.57-.19-3.13-.28-4.7s-.17-3.43-.25-5.15c0-.19,0-.37,0-.55-.09-1.63-.19-3.25-.28-4.88l-.24-5,0-.37c-.09-1.63-.19-3.25-.28-4.88s-.16-3.37-.25-5.06c0-.49-.08-1-.13-1.47a.18.18,0,0,0-.12-.12l-1.2.05-1.65.1-4.88.24-.19,0-5,.29h-.19l-5,.25-.37,0-1.56.09-4.88.25-.37,0c-.55,0-1.1.07-1.65.09l-4.88.25-.37,0-1.56.09-4.88.25-.28,0-1.84.11-1.93.1-1.29.07-4.88.25-.46,0-1.56.08-4.88.25-.37,0-1.56.09-4.88.25-.37,0-1.65.09-4.88.25-.37,0-1.38.09-5,.24-.37,0-1.75.1-2,.11-1.29.07-4.88.25-.37,0-1.56.09-4.88.24-.37,0-1.74.1-4.79.25-.37,0-1.56.09-4.88.24-.37,0-1.65.1-4.88.25c-.13,0-.25,0-.37,0l-1.47.08Zm-55.46.26v0l1.93-.11c.55,0,1.1-.07,1.66-.09l4.87-.25.37,0,1.57-.09,4.87-.25.46,0,1.38-.08,3.13-.17c.22,0,.29-.07.3-.27,0-.45.09-.91.12-1.37.06-1.11.12-2.21.17-3.32.07-1.69.2-3.37.38-5,.15-1.44.28-2.87.44-4.31s.36-3.11.54-4.66c.07-.61.15-1.22.22-1.83.1-.8.2-1.59.29-2.38.11-1,.22-2,.32-2.93s.17-1.71.24-2.57l.24-2.76q.09-1,.21-2c.09-.89.19-1.77.28-2.66s.16-1.71.25-2.57c.06-.67.13-1.34.2-2,.1-.92.2-1.83.29-2.75l.24-2.76c.12-1.28.24-2.56.35-3.85.08-.82.15-1.65.22-2.48.1-1.1.21-2.2.3-3.3s.16-2.27.24-3.4c.1-1.32.21-2.64.29-3.95.1-1.69.17-3.38.25-5.07,0-.15,0-.3,0-.46.18-2.69.17-5.4.23-8.1,0-1.6-.06-3.19-.07-4.79,0-1.82-.17-3.62-.25-5.43,0-.8-.12-1.6-.18-2.39s-.13-1.47-.21-2.2-.19-1.65-.3-2.47c-.13-1.1-.25-2.2-.43-3.29a44,44,0,0,0-1.16-5.21c-1-3.51-2-7-3-10.51a10.67,10.67,0,0,1-.42-3.46c0-1.26.21-2.51.35-3.76,0-.24.05-.49.05-.73a7.52,7.52,0,0,0-.88-3.54,14.2,14.2,0,0,0-1.94-2.79,2.18,2.18,0,0,0-2.07-.74l-1.82.29c-1.06.15-2.13.28-3.19.42-.49.07-1,.13-1.46.22a32.65,32.65,0,0,1-4.3.45h-.55c-1-.08-2.08-.13-3.12-.29a22.05,22.05,0,0,1-4.08-1.06,23.68,23.68,0,0,1-3.51-1.61c-1.72-.94-3.42-1.92-5.13-2.88l-.24-.14a1.25,1.25,0,0,1-.59-.9v-.09c0-.07.08-.16.18-.15a3.83,3.83,0,0,1,1,.3c2.52,1,5,1.89,7.56,2.86a21.05,21.05,0,0,0,5.36,1.22c.73.07,1.47.08,2.21.08a40.74,40.74,0,0,0,4.42-.2c1.13-.12,2.25-.28,3.37-.47s2.22-.43,3.33-.7,2.3-.61,3.46-.92l.09,0a.2.2,0,0,0,.09-.35,9.72,9.72,0,0,0-2.55-1.63,22.54,22.54,0,0,0-3.11-1.11c-1.09-.32-2.18-.62-3.26-1a12.17,12.17,0,0,1-1.46-.55,4.16,4.16,0,0,1-1.48-1.08c-.17-.2-.15-.33.08-.38.47-.12,1-.25,1.43-.34,1.69-.31,3.38-.63,5.07-.92s3.19-.57,4.78-.91a40.78,40.78,0,0,0,4.87-1.34,18.72,18.72,0,0,0,3.28-1.43,9.37,9.37,0,0,0,2.16-1.7,5.29,5.29,0,0,0,1-1.45,3.9,3.9,0,0,0-.56-4.31,5.73,5.73,0,0,0-1.49-1.23,10.56,10.56,0,0,0-3.9-1.29,19.37,19.37,0,0,0-2.75-.23c-.37,0-.74,0-1.1-.07-.52,0-1-.06-1.57-.07l-4.7,0a25.78,25.78,0,0,0-3,.14c-.21,0-.43,0-.64,0a17.09,17.09,0,0,0-2.47.25c-1.34.18-2.67.43-4,.74-2.71.64-5.41,1.35-8.07,2.16a35.45,35.45,0,0,0-14.76,8.87A19,19,0,0,0,73.45,121a13.35,13.35,0,0,0-1.75,5.1,15,15,0,0,0,.22,5,19.5,19.5,0,0,0,1.15,3.59c.35.82.71,1.64,1.06,2.45a23.32,23.32,0,0,1,.93,2.4,1.58,1.58,0,0,1,.09.36.64.64,0,0,1-.26.65,3.76,3.76,0,0,1-.55.32l-3.13,1.54c-1,.48-1.93.95-2.88,1.44a3.79,3.79,0,0,0-2,2.59,5.28,5.28,0,0,0-.16.81c-.09.7-.16,1.4-.23,2.1-.12,1.26-.23,2.51-.34,3.77-.08,1-.15,2.08-.22,3.12-.11,1.87-.21,3.74-.31,5.61,0,.43,0,.86,0,1.29-.18,2.42-.19,4.85-.27,7.28-.12,3.65-.09,7.31-.06,11a11.7,11.7,0,0,0,.12,1.56,9.93,9.93,0,0,1,0,3c-.14.78-.29,1.57-.42,2.35-.27,1.54-.53,3.09-.81,4.63-.42,2.35-.85,4.71-1.28,7.06-.1.55-.21,1.09-.32,1.63a1.56,1.56,0,0,1-.51.86l-.21.17a.64.64,0,0,0-.24.38,3.45,3.45,0,0,0-.11.54c-.08.73-.16,1.47-.2,2.2a22.51,22.51,0,0,0,.39,5,29.06,29.06,0,0,0,3,8.17,6.08,6.08,0,0,0,2.85,2.66,10,10,0,0,0,2.46.73,5.62,5.62,0,0,0,.92,0,.34.34,0,0,0,.31-.16c.11-.19.22-.37.32-.56a.34.34,0,0,0,0-.35l-.37-.53a3.33,3.33,0,0,1-.65-2.34,1.47,1.47,0,0,1,1.22-1.42l.18,0,1.46-.25.26-.07a.3.3,0,0,0,.14-.31.9.9,0,0,0-.36-.52c-.45-.32-.9-.63-1.34-1a6.22,6.22,0,0,1-1.51-1.6,4.37,4.37,0,0,1-.29-.57,1.4,1.4,0,0,1,.37-1.6,3.26,3.26,0,0,1,.6-.43c.31-.19.64-.35,1-.52l.31-.2a.38.38,0,0,0,.15-.32,8.24,8.24,0,0,0-.19-1,.81.81,0,0,0-.47-.55,2,2,0,0,0-.34-.12l-1.42-.38a8.71,8.71,0,0,1-1.64-.6,1.87,1.87,0,0,1-1.06-1.62c0-.36,0-.73,0-1.1a3.48,3.48,0,0,1,.76-2.22,11.69,11.69,0,0,0,1.6-2.89c.21-.51.39-1,.59-1.55a7.88,7.88,0,0,1,1-1.94,7,7,0,0,1,.68-.75.86.86,0,0,1,.4-.21,2,2,0,0,1,1,0,2.7,2.7,0,0,1,1.75,1.53,3.08,3.08,0,0,1,.23,1.16c0,.59,0,1.17,0,1.75,0,2.46,0,4.92.23,7.37a19.14,19.14,0,0,0,.39,2.92,9.35,9.35,0,0,1,.19,1.18,22.19,22.19,0,0,1,.15,2.58,16.42,16.42,0,0,0,.29,3.2,1.57,1.57,0,0,1-.06.91l-.24.59a4.87,4.87,0,0,0-.35,1.24,13.71,13.71,0,0,0-.14,2.48l0,1.48c0,.7,0,1.41,0,2.11,0,1.11.07,2.21.13,3.32.08,1.41.2,2.82.26,4.23.08,2,.2,4.05.16,6.08,0,.83-.06,1.66-.07,2.49,0,2.15-.18,4.29-.27,6.44,0,.16,0,.31,0,.46-.1,1.23-.19,2.45-.29,3.68-.08,1-.14,2.08-.24,3.12-.14,1.44-.31,2.87-.47,4.3,0,.25,0,.49-.05.74s.07.24.2.24l1,0,3.4-.19.64,0,1.75-.1,4.79-.25.37,0,1.56-.09,4.88-.24.46,0ZM219.33,193.2c-.11-1.12-.13-2.34-.28-3.57a36.75,36.75,0,0,0-1-4.87,29.15,29.15,0,0,0-6.92-12.52,34.34,34.34,0,0,0-8.25-6.43l-1.44-.82a6,6,0,0,1-1.05-.74,4.5,4.5,0,0,1-1.56-2.94c-.06-.55-.09-1.1-.14-1.65,0-.28,0-.56-.06-.83a25.62,25.62,0,0,0-1.31-5.45,36.76,36.76,0,0,0-4.06-7.82,3,3,0,0,0-.33-.44,8.2,8.2,0,0,0-.78-.78,3.19,3.19,0,0,0-.78-.49,1,1,0,0,0-1.47.48,3.07,3.07,0,0,0-.27.77c-.1.42-.15.85-.24,1.27a33.4,33.4,0,0,1-1.75,5.52,7.91,7.91,0,0,1-4.75,4.6c-.54.2-1.1.37-1.65.54a20.23,20.23,0,0,0-3,1.11,11.85,11.85,0,0,0-4.36,3.46,11.24,11.24,0,0,0-1.18,1.86c-.26.52-.5,1-.77,1.57a5.46,5.46,0,0,1-3.5,2.92,7.62,7.62,0,0,1-1.9.31c-.65,0-1.29.07-1.93.12-1,.09-2,.11-2.94.24h-.27l-2.85.24c-.34,0-.67.08-1,.14a4.38,4.38,0,0,0-.71.19,1.41,1.41,0,0,0-.9,1,4.24,4.24,0,0,0-.2,1c-.06,1.17-.1,2.33-.15,3.5a7.15,7.15,0,0,0,.13,1.46,1.75,1.75,0,0,0,1.06,1.41,3.94,3.94,0,0,0,.95.32c1.53.31,3.06.62,4.6.91s3,.53,4.44.8c.48.09,1,.21,1.43.34a5,5,0,0,1,1.42.62,1.79,1.79,0,0,1,.73,2.17,5.63,5.63,0,0,1-.84,1.52c-.53.68-1.07,1.35-1.61,2-.77,1-1.56,1.9-2.31,2.87A54,54,0,0,0,161,196a33.79,33.79,0,0,0-2.74,6.22,26.4,26.4,0,0,0-1.16,5.76,19.54,19.54,0,0,0,.37,6,6.32,6.32,0,0,1-.42,4.13c-.19.42-.41.83-.64,1.23-.92,1.59-1.8,3.21-2.6,4.87a55.11,55.11,0,0,0-3.69,9.8,34.73,34.73,0,0,0-1,5.06,32.89,32.89,0,0,0-.21,4.32,25.45,25.45,0,0,0,.53,4.85,20.8,20.8,0,0,0,3.39,7.59.76.76,0,0,0,.77.37c.49,0,1-.05,1.47-.08l1.75-.1,4.78-.24.28,0,1.84-.11,1.93-.11,1.2-.07,5-.24.46,0,1.56-.09,4.88-.25.37,0,1.56-.1,4.88-.24.36,0,1.57-.1,4.88-.24.36,0,1.75-.1,4.79-.24.27,0,1.84-.11,1.93-.11,1.29-.07,4.88-.24.46,0,1.38-.08,5-.25.46,0,1.38-.08,5-.25h.28l2.2-.13,1.11,0,4.87-.29,4.42-.22c.31,0,.34-.1.39-.29a20.65,20.65,0,0,0,.53-3.83,29.42,29.42,0,0,0-.15-4.69q-.18-1.51-.48-3a43,43,0,0,0-1.22-4.62,60,60,0,0,0-11.83-21.25,29.82,29.82,0,0,0-2.84-2.89,17.23,17.23,0,0,0-3.81-2.57,5.16,5.16,0,0,1-1.16-.73,1.84,1.84,0,0,1-.66-1.73,2.12,2.12,0,0,1,.42-1c.16-.23.35-.43.53-.65a15.53,15.53,0,0,0,2.61-4.62A20.82,20.82,0,0,0,219.33,193.2ZM40,242.83a17.1,17.1,0,0,0,4.44-.72,26.51,26.51,0,0,0,6-2.57,43.17,43.17,0,0,0,6.72-4.83,73.38,73.38,0,0,0,8.34-8.57l.11-.15a.18.18,0,0,0,0-.24l-.44-.33-4-2.78c-.75-.53-1.5-1.07-2.27-1.58-.27-.18-.49-.48-.86-.48-.81.92-1.64,1.83-2.45,2.75l-15.8,18c-.36.42-.72.84-1.09,1.25,0,0,0,.07,0,.08s.07.11.11.11Zm209.1-11.13a2.8,2.8,0,0,0-1.73.58,1.37,1.37,0,0,0-.3,2,3.15,3.15,0,0,0,.22.29,10.41,10.41,0,0,0,1.73,1.78,9.87,9.87,0,0,0,2.27,1.37,1.22,1.22,0,0,0,1.67-.66,2.76,2.76,0,0,0,0-2.56l0-.08a5.28,5.28,0,0,0-2.48-2.37A2.75,2.75,0,0,0,249.07,231.7Zm11.23-3.89-.26,0a1.14,1.14,0,0,0-.7.4,1.22,1.22,0,0,0,0,1.45,2.73,2.73,0,0,0,.47.43,3.84,3.84,0,0,0,2.08.62.6.6,0,0,0,.55-.28,1.13,1.13,0,0,0,.18-1A2.29,2.29,0,0,0,260.3,227.81ZM72.06,202.92h0v-1.47a5.21,5.21,0,0,0,0-.55s0,0-.06,0h-.08c-.43.74-.86,1.48-1.27,2.23a7.27,7.27,0,0,0-.35.75,1.48,1.48,0,0,0-.11.62.34.34,0,0,0,.25.34c.47.13,1,.24,1.42.36.11,0,.22-.08.22-.21C72.06,204.26,72.06,203.59,72.06,202.92Z" transform="translate(-17.06 -69.59)"/><path class="cls-2" d="M113.92,122.1a1.08,1.08,0,0,1,.6-.29c1.58-.37,3.16-.73,4.74-1.12a22.19,22.19,0,0,0,3.73-1.28,14,14,0,0,0,3.27-2,8.84,8.84,0,0,0,3.07-5.32,7.29,7.29,0,0,0-1.27-5.77,9,9,0,0,0-1.83-1.81,17.39,17.39,0,0,0-3.19-1.82,26.71,26.71,0,0,0-5.76-1.86c-.9-.19-1.81-.38-2.72-.5a15.73,15.73,0,0,0-2.38-.24,3.27,3.27,0,0,1-.82-.09,4,4,0,0,0-1.09-.12h-7.93a5.2,5.2,0,0,0-1.18.13,8.48,8.48,0,0,1-1.73.24,18.25,18.25,0,0,0-2.1.26,40.29,40.29,0,0,0-11.59,3.73,47.5,47.5,0,0,0-12,8.49,19.65,19.65,0,0,0-6,11.54,19.38,19.38,0,0,0-.12,4.87,17.19,17.19,0,0,0,1.91,6.4,24.3,24.3,0,0,1,1.24,2.57,3.16,3.16,0,0,1,.16.43.46.46,0,0,1-.27.6c-.23.09-.47.16-.7.23-1.74.58-3.49,1.17-5.19,1.85a7.91,7.91,0,0,0-.84.37,2.79,2.79,0,0,0-1.17,1,2.15,2.15,0,0,0-.35.84c0,.31-.12.61-.14.91-.12,1.9-.24,3.81-.35,5.71,0,.15,0,.3,0,.46,0,1.72-.13,3.44-.24,5.15-.07,1-.18,2.08-.28,3.12l-.21,2.2c-.09.92-.16,1.84-.25,2.76s-.2,1.95-.29,2.93c-.07.77-.13,1.53-.19,2.3-.08,1.25-.17,2.51-.24,3.77-.08,1.47-.17,2.94-.19,4.42,0,1.93,0,3.87,0,5.8a27.25,27.25,0,0,1-.31,4.69c-.19,1.24-.45,2.47-.75,3.69a38.47,38.47,0,0,0-.79,4.26c-.16,1.24-.4,2.48-.62,3.72-.12.69-.21,1.4-.29,2.1a62.31,62.31,0,0,0-.19,7.73,6.93,6.93,0,0,0,.11,1,25.53,25.53,0,0,0,1.15,4.45.57.57,0,0,1-.06.52l-2,3.4a1.12,1.12,0,0,1-.41.34,3.2,3.2,0,0,0-.57.59l-4,4.57L34.12,243.53a4.7,4.7,0,0,0-.35.43s0,.11,0,.16a.11.11,0,0,0,.07.06,12.37,12.37,0,0,0,2.83,1.06,16.21,16.21,0,0,0,2.19.29,19.2,19.2,0,0,0,5.65-.64,28.08,28.08,0,0,0,6.47-2.6,42.92,42.92,0,0,0,7-4.83A70.85,70.85,0,0,0,66.62,229c.52-.6,1-1.22,1.53-1.84a.18.18,0,0,0,0-.24l-.28-.25-1.14-.93a1.89,1.89,0,0,1-.5-.65c0-.08,0-.12.05-.14a.12.12,0,0,1,.08,0,2.67,2.67,0,0,1,.26.09l1.36.55a1.7,1.7,0,0,0,1.09,0c.85-.27,1.74-.38,2.59-.63a.37.37,0,0,1,.52.34c.09.55.17,1.09.23,1.64a27.43,27.43,0,0,1,0,4.88c0,.52-.11,1-.18,1.55L71.72,237c-.13,1-.27,2-.41,3-.21,1.52-.5,3-.83,4.53a24.7,24.7,0,0,0-.5,3.08c-.12,1.23-.23,2.45-.38,3.67-.1.85-.25,1.7-.39,2.55-.22,1.24-.45,2.47-.69,3.71-.19,1-.39,2.05-.59,3.07,0,.11-.1.15-.18.19a.15.15,0,0,1-.09,0l-2.94.18-2,.12-.27,0-4.79.24-1.66.1-.36,0-4.79.25-1.75.1-.37,0-4.87.24c-.5,0-1,.06-1.48.09l-.36,0-5.53.27h-.18a.38.38,0,0,1-.38-.2l-.27-.48a128.29,128.29,0,0,1-6.54-13.7,125,125,0,0,1-5.3-16c-.76-2.92-1.41-5.85-1.95-8.81-.3-1.7-.58-3.39-.83-5.09-.18-1.22-.3-2.44-.44-3.66-.1-.89-.2-1.77-.29-2.66s-.16-1.78-.21-2.67c-.11-2.14-.23-4.29-.25-6.44s0-4.49.06-6.73c.06-1.6.17-3.19.28-4.78.07-1,.15-2,.25-3s.18-1.71.28-2.57c.14-1.06.27-2.13.43-3.19.19-1.34.38-2.68.63-4q.49-2.76,1.09-5.51c.74-3.32,1.6-6.62,2.61-9.88a130.24,130.24,0,0,1,26.31-47.4A126.3,126.3,0,0,1,71,97.83,124.32,124.32,0,0,1,88.62,86.77,127.77,127.77,0,0,1,107.15,79q5-1.65,10.06-2.9c2.12-.52,4.24-1,6.38-1.4,1.2-.24,2.41-.43,3.63-.63,1-.16,2-.33,3-.48.66-.09,1.34-.16,2-.24L134.6,73c.71-.08,1.41-.16,2.11-.21l3.5-.24,1.19-.08c.34,0,.68-.06,1-.06,2.43-.07,4.86-.15,7.28-.12,1.48,0,2.95,0,4.43.12s2.88.13,4.32.28c1,.11,2,.16,3,.26.79.07,1.58.18,2.38.28l1.73.22c2.26.28,4.49.67,6.72,1.09,2.66.49,5.29,1.08,7.91,1.74,3,.76,6,1.65,8.9,2.64A124.73,124.73,0,0,1,218,93a128.19,128.19,0,0,1,18.82,15.07,130.7,130.7,0,0,1,23,29.81A128,128,0,0,1,271.49,166q1.35,4.78,2.3,9.67c.39,2,.73,3.92,1,5.9.25,1.7.46,3.4.64,5.12s.31,3.55.46,5.32a1.09,1.09,0,0,1,0,.18c.08,1.91.18,3.81.21,5.71s0,3.69,0,5.54c-.05,1.68-.1,3.37-.26,5.06-.09,1.07-.14,2.14-.25,3.21-.13,1.35-.29,2.69-.46,4-.12,1-.28,2-.42,3-.25,1.7-.55,3.39-.88,5.08-.53,2.77-1.17,5.52-1.9,8.25a127.23,127.23,0,0,1-6,17.31c-.06.14-.12.28-.19.42a.48.48,0,0,1-.47.36l-.37,0-1.93.12-1.93.11-.28,0-4.88.24-1.56.1-.37,0-4.88.24-1.56.09-.28,0-5.89.28a1.09,1.09,0,0,1-.18,0c-.07,0-.15-.14-.13-.2a1.9,1.9,0,0,1,.83-1,2.82,2.82,0,0,1,.84-.35l1.81-.36a21.36,21.36,0,0,0,4.81-1.52,15.21,15.21,0,0,0,5.15-3.8,20.42,20.42,0,0,1,5.49-4.43,15.61,15.61,0,0,0,4.28-3.6,24.19,24.19,0,0,0,4.12-7.15,39.4,39.4,0,0,0,1.27-4.13c.05-.21.06-.43.11-.63a2.07,2.07,0,0,0-.12-1.18.29.29,0,0,0-.44-.16,3.26,3.26,0,0,0-.36.29,5.1,5.1,0,0,0-1,1.44c-.21.41-.39.83-.6,1.24a6.22,6.22,0,0,1-.67,1.1,3.36,3.36,0,0,1-.86.82.35.35,0,0,1-.49,0,2.5,2.5,0,0,1-.33-.32c-.15-.19-.27-.4-.43-.59a4.46,4.46,0,0,0-3.08-1.66,11.71,11.71,0,0,0-2.58,0,2.78,2.78,0,0,0-2.59,2.25,4.22,4.22,0,0,0-.16,1.27c0,.31,0,.62,0,.92a1.57,1.57,0,0,0,.5,1.24,5.8,5.8,0,0,0,1.87,1.31,15,15,0,0,0,2.17.73,5.79,5.79,0,0,1,.71.21.68.68,0,0,1,.35,1,5.65,5.65,0,0,1-2.34,2,.23.23,0,0,1-.24-.09L259,236c-.11-.29-.22-.57-.32-.86s-.15-.47-.24-.7a3.4,3.4,0,0,0-.68-1.08c-.61-.65-1.22-1.3-1.82-2a2.48,2.48,0,0,0-.64-.52c-.9-.52-1.8-1.06-2.7-1.57a17.39,17.39,0,0,0-2.84-1.31,6.91,6.91,0,0,0-1.79-.39,4.19,4.19,0,0,0-2.4.5,5.86,5.86,0,0,0-2.48,2.52,4.09,4.09,0,0,0-.24,3.4,11.47,11.47,0,0,0,4,5.61,7.47,7.47,0,0,0,1.43.82l.57.29a.71.71,0,0,1,.34.53.32.32,0,0,1-.07.25,2,2,0,0,1-.35.3,16.27,16.27,0,0,1-5.09,2.48c-.74.22-1.49.36-2.24.52-.18,0-.28,0-.32-.24-.25-1.45-.5-2.9-.76-4.35A61.33,61.33,0,0,0,234,221.66a52.51,52.51,0,0,0-9.19-12.27c-.76-.76-1.55-1.49-2.33-2.23l-.67-.64c-.14-.15-.28-.32-.41-.49a1.42,1.42,0,0,1-.19-1.48,10.57,10.57,0,0,1,.5-1.08,16.72,16.72,0,0,0,1.55-4,20.22,20.22,0,0,0,.6-4.83V193a27.45,27.45,0,0,0-.34-3.94,41.2,41.2,0,0,0-1.17-5.4,34.76,34.76,0,0,0-6.82-13,35.65,35.65,0,0,0-8.53-7.39l-1.4-.88a6.18,6.18,0,0,1-1.28-1.05,4.67,4.67,0,0,1-1.17-2.36c-.13-.72-.27-1.45-.43-2.17a36.07,36.07,0,0,0-1.63-5.07c-.52-1.32-1.05-2.62-1.6-3.92a30.46,30.46,0,0,0-4.63-7.6,21.84,21.84,0,0,0-4.13-3.79c-.35-.25-.72-.47-1.09-.69a7,7,0,0,0-2.06-.76,2,2,0,0,0-2.14.94,2,2,0,0,0-.28,1,4.59,4.59,0,0,0,0,.74,16.14,16.14,0,0,0,.32,2.18,13.67,13.67,0,0,1,.27,2,9,9,0,0,1,0,1.47,17.78,17.78,0,0,1-1.62,6.2,6.22,6.22,0,0,1-1,1.55,5.55,5.55,0,0,1-2.58,1.69l-1.76.52a17.69,17.69,0,0,0-3.07,1.22,15.08,15.08,0,0,0-6.26,5.95c-.26.44-.51.91-.75,1.37a4.39,4.39,0,0,1-.69,1,3.32,3.32,0,0,1-2.21,1c-1.23.07-2.45.18-3.67.31-1,.11-2,.17-2.94.24l-1.1.1-.74.07c-.88.07-1.77.12-2.66.23a4.92,4.92,0,0,0-1.34.31,1.9,1.9,0,0,0-1.16,1.22,8,8,0,0,0-.3,1.81c-.07.7-.12,1.41-.16,2.11-.09,1.38-.17,2.76-.25,4.14l-.18,3.87c0,.25,0,.49,0,.74a2.19,2.19,0,0,0,1.57,2.15,10,10,0,0,0,1.33.36c1.59.33,3.18.63,4.77,1,1,.21,2.05.4,3.05.71a7.08,7.08,0,0,1,.78.25,1,1,0,0,1,.58.56.77.77,0,0,1,0,.63,7.56,7.56,0,0,1-.47.89c-.66,1-1.33,2.07-2,3.09-1.28,2-2.57,3.9-3.83,5.86a40.06,40.06,0,0,0-2.34,4.07,23.15,23.15,0,0,0-1.91,5.46,19.53,19.53,0,0,0-.39,5.5,24.21,24.21,0,0,0,.39,2.82,9.18,9.18,0,0,1-.73,5.84,15.7,15.7,0,0,1-.8,1.45A51.77,51.77,0,0,0,145.67,233a34.69,34.69,0,0,0-.93,4.51,32.11,32.11,0,0,0-.29,5.88,27,27,0,0,0,.26,3.12A25.84,25.84,0,0,0,147,254c.31.63.66,1.25,1,1.87l.19.32a.21.21,0,0,1-.16.33l-.73.05-6.17.33-1.29.06-1.84.11-.37,0-4.88.25-1.38.07-1.65.1-2,.11-5.06.26a2.36,2.36,0,0,1-.46,0,.23.23,0,0,1-.11-.14,2.34,2.34,0,0,1,0-.46q.08-3.45.16-6.91c0-1.62.17-3.25.32-4.87.08-1,.15-2,.25-2.94s.18-1.83.28-2.75c.07-.64.15-1.28.22-1.92s.15-1.59.24-2.38.19-1.65.28-2.48c.07-.64.15-1.28.22-1.92.14-1.43.28-2.87.43-4.31.09-.91.19-1.83.29-2.75l.21-2.2c.08-.95.15-1.9.24-2.84s.2-2,.29-2.94.16-1.9.24-2.85c.1-1.13.19-2.26.29-3.39,0-.12,0-.25,0-.37l.24-3.86c.1-1.78.21-3.56.28-5.34.06-1.41.07-2.83.1-4.24.06-2.49.09-5,.2-7.46,0-1.41.16-2.82.16-4.24,0-1.75,0-3.5-.07-5.25-.05-1.23-.11-2.46-.26-3.68-.11-.85-.16-1.71-.27-2.56s-.25-2-.41-2.92c-.25-1.52-.53-3-.83-4.53-.55-2.74-1.21-5.45-2-8.14-.69-2.52-1.51-5-2.37-7.45a27,27,0,0,1-1-3.55,16.23,16.23,0,0,1-.22-4.77,12.44,12.44,0,0,1,.37-2,10.34,10.34,0,0,0-.33-6,15.28,15.28,0,0,0-1.15-2.5,11,11,0,0,1-.76-1.58.23.23,0,0,1,.11-.21l.09,0c.46-.07.9-.18,1.36-.23.68-.05,1.34-.19,2-.28l1.73-.24a.3.3,0,0,0,.24-.24,1.8,1.8,0,0,0,.07-.73,1,1,0,0,0-.46-.76l-1.1-.67c-1.41-.82-2.87-1.52-4.34-2.21l-3.07-1.47C114.25,122.28,114.1,122.17,113.92,122.1Z" transform="translate(-17.06 -69.59)"/><path class="cls-2" d="M150.51,259.1l2.3-.11,1.47-.08c.12,0,.24,0,.37,0l4.88-.25,1.65-.1.37,0,4.88-.24,1.56-.09.37,0,4.79-.25,1.74-.1.37,0,4.88-.24,1.56-.09.37,0,4.88-.25,1.29-.07,2-.11,1.75-.1.37,0,5-.24,1.38-.09.37,0,4.88-.25,1.65-.09.37,0,4.88-.25,1.56-.09.37,0,4.88-.25,1.56-.08.46,0,4.88-.25,1.29-.07,1.93-.1,1.84-.11.28,0,4.88-.25,1.56-.09.37,0,4.88-.25c.55,0,1.1-.06,1.65-.09l.37,0,4.88-.25,1.56-.09.37,0,5-.25h.19l5-.29.19,0,4.88-.24,1.65-.1,1.2-.05a.18.18,0,0,1,.12.12c.05.49.1,1,.13,1.47.09,1.69.16,3.38.25,5.06s.19,3.25.28,4.88l0,.37.24,5c.09,1.63.19,3.25.28,4.88,0,.18,0,.36,0,.55.08,1.72.16,3.44.25,5.15s.19,3.13.28,4.7l.24,4.78.3,5.34c0,.12,0,.24,0,.37.09,1.69.17,3.37.26,5.06s.18,3.25.28,4.88c0,.09,0,.18,0,.27l.33,6.26a1.1,1.1,0,0,1,0,.18.26.26,0,0,1-.16.2l-.46,0-2.21.13-.27,0-5,.24-1.29.08-.55.05L257,313l-1.47.09c-.13,0-.25,0-.37,0l-4.79.24-1.75.1-.36,0-4.88.24-1.57.1-.36,0-4.79.24-1.66.09-.36,0-4.79.25-1.75.1-.37,0-4.87.24-1.48.08-.46,0-4.87.25c-.53,0-1,.06-1.57.09l-.37,0-5,.25-1.47.09-.46,0-4.88.25-1.47.08-.46,0-4.88.24-1.29.07-2,.11-1.66.1-.36,0-4.88.25-1.66.09c-.12,0-.24,0-.37,0l-4.87.25c-.53,0-1.05.06-1.57.09l-.37,0-5,.25-1.47.09-.37,0-4.88.24h-.27l-5,.29-.28,0-4.87.24-1.38.08-.46,0-4.88.24-1.57.1-.36,0-4.79.24-1.75.1-.27,0-5,.25-1.56.1-.37,0-4.88.24-1.56.09c-.12,0-.24,0-.37,0l-4.78.25-1.75.1-.37,0-4.88.24-1.56.1-.37,0-4.79.24-1.74.11-.37,0-4.88.24-1.47.08c-.16,0-.31,0-.46,0l-4.88.25-1.56.09L91,322l-4.79.24-1.65.1c-.13,0-.25,0-.37,0l-4.79.24-1.75.1-.36,0-4.88.24-1.57.1-.36,0-4.88.24-1.57.09-.36,0-5,.25-1.47.09-.46,0-4.88.24-1.56.09c-.12,0-.24,0-.37,0l-4.88.25-1.28.07-2,.11-1.65.09-.92.06-3,.17H35.6c-.07,0-.19-.1-.19-.17s0-.43,0-.64c-.11-2-.22-4.05-.34-6.08,0-.12,0-.24,0-.36-.08-1.75-.16-3.5-.26-5.25-.08-1.54-.17-3.07-.27-4.6,0-.16,0-.31,0-.46-.08-1.69-.16-3.38-.25-5.07s-.18-3.12-.28-4.69c0-.12,0-.24,0-.37-.08-1.75-.16-3.49-.26-5.24-.08-1.57-.18-3.13-.27-4.7,0-.12,0-.24,0-.36-.09-1.69-.16-3.38-.25-5.07s-.19-3.19-.28-4.78l0-.46c-.08-1.72-.16-3.44-.25-5.16-.09-1.56-.19-3.12-.28-4.69,0-.4,0-.8,0-1.2a.16.16,0,0,1,.11-.12,2.08,2.08,0,0,1,.36-.05l5.7-.32,1.2-.05,1.93-.11.28,0,4.88-.25,1.65-.09.28,0,4.88-.24,1.65-.1.37,0,4.88-.24,1.56-.1c.13,0,.25,0,.37,0l4.88-.24,1.66-.1.36,0,4.88-.24,1.38-.08,1.75-.1,1.93-.11.28,0,4.88-.24,1.56-.1.37,0,4.88-.24,1.65-.1.37,0,4.88-.24,1.56-.1.37,0,4.88-.24,1.56-.09.37,0,4.79-.25,1.75-.1.36,0,4.88-.24,1.57-.09.36,0,4.79-.24,1.66-.1.36,0,4.79-.24,1.75-.11.37,0,4.88-.25,1.56-.09.37,0,4.78-.24,1.66-.1,1.56-.08,1.48-.06ZM184.17,310a19.92,19.92,0,0,0,3.65-.44,17.08,17.08,0,0,0,7.27-3.4,11.31,11.31,0,0,0,2-2,8,8,0,0,0,.63-8.37,15.85,15.85,0,0,0-1.35-2.09l-.4-.5c-.14-.17-.13-.27,0-.39s.55-.39.81-.61a13.52,13.52,0,0,0,3-3.23,7.21,7.21,0,0,0,1.21-3.72,9.53,9.53,0,0,0-.24-2.66,7.78,7.78,0,0,0-2.88-4.48,11.26,11.26,0,0,0-1.55-1,14.21,14.21,0,0,0-6.08-1.63,17.62,17.62,0,0,0-4.58.42,29.26,29.26,0,0,0-5.33,1.7,7.64,7.64,0,0,0-1,.48,2.8,2.8,0,0,0-1.24,1.43c-.13.35-.27.69-.38,1a30.24,30.24,0,0,0-.73,2.95,9.54,9.54,0,0,0-.26,1.92,6,6,0,0,0,0,.73.7.7,0,0,0,.74.55,2.71,2.71,0,0,0,.63-.13l1.8-.68a.68.68,0,0,1,.26-.07c.05,0,.14.07.13.1,0,.21-.08.42-.13.63-.4,1.61-.83,3.21-1.2,4.82-.61,2.69-1.2,5.39-1.79,8.09-.27,1.26-.5,2.53-.74,3.8a6,6,0,0,0-.07.73,1.3,1.3,0,0,0,.22.88c.22.33.44.67.69,1,.55.66,1.1,1.32,1.67,2,.39.44.79.86,1.2,1.28a2.91,2.91,0,0,0,1.88.86A16.69,16.69,0,0,0,184.17,310ZM67.08,296.53a18.54,18.54,0,0,0-.18-2.5,14.65,14.65,0,0,0-.8-3.21A11.77,11.77,0,0,0,58,283.3a19.34,19.34,0,0,0-4.27-.64,20.87,20.87,0,0,0-4.32.27,21.2,21.2,0,0,0-3.4.79,7.64,7.64,0,0,0-1.75.79,2.08,2.08,0,0,0-1.07,1.43c0,.12-.07.23-.1.35l-1,4.58a5.42,5.42,0,0,0-.09,1.56.52.52,0,0,0,.41.44.87.87,0,0,0,.36,0,4,4,0,0,0,.69-.24c.37-.15.73-.31,1.1-.48l.58-.27a.15.15,0,0,1,.16,0,.16.16,0,0,1,0,.16c-.12.6-.24,1.2-.37,1.8-.71,3.18-1.42,6.35-2.11,9.53-.33,1.5-.65,3-.93,4.51a11.23,11.23,0,0,0-.24,2.65,3.56,3.56,0,0,0,.8,2.21c.18.22.35.43.54.63a32,32,0,0,0,2.7,2.64,6.47,6.47,0,0,0,.57.47,2,2,0,0,0,.92.38,6.91,6.91,0,0,0,1.11.08,17,17,0,0,0,4.52-.74,17.74,17.74,0,0,0,6.33-3.47,24,24,0,0,0,5.2-6.17A18.9,18.9,0,0,0,67.08,296.53Zm68.45,2.34c.06.91.09,2.08.26,3.23a18.66,18.66,0,0,0,.78,3.22,10.65,10.65,0,0,0,5.93,6.33,6.77,6.77,0,0,0,2.38.63A10.17,10.17,0,0,0,148,312a11.62,11.62,0,0,0,4.28-2.05,15,15,0,0,0,1.77-1.61,18.79,18.79,0,0,0,4.32-6.89,39.94,39.94,0,0,0,2.25-9.84,29,29,0,0,0,0-5.51,32.11,32.11,0,0,0-1.14-5.58,8.94,8.94,0,0,0-.6-1.54,3.74,3.74,0,0,0-.68-1,2,2,0,0,0-.92-.59,2.07,2.07,0,0,0-1.91.35,8.29,8.29,0,0,0-.84.73l-2.38,2.3c-.15.15-.32.28-.48.42a.15.15,0,0,1-.09,0s-.05,0,0-.06c0-.33,0-.67.1-1a8.1,8.1,0,0,0,.06-1.84.89.89,0,0,0-.8-.87,4.6,4.6,0,0,0-.64-.05,9,9,0,0,0-2.36.34,10.77,10.77,0,0,0-3.44,1.71,15.68,15.68,0,0,0-3,2.95,27.79,27.79,0,0,0-3.72,6.22A25,25,0,0,0,135.53,298.87Zm77.62,9.29,1.16-.08a8.05,8.05,0,0,0,2.85-.69,10.77,10.77,0,0,0,5.93-6.22,48.79,48.79,0,0,0,1.63-5.28c.79-3.16,1.39-6.36,2-9.55.35-1.78.7-3.56,1-5.34.27-1.41.53-2.84.77-4.26a4.86,4.86,0,0,0,.06-1,1.71,1.71,0,0,0-.1-.54,1.54,1.54,0,0,0-.91-1,5.31,5.31,0,0,0-1.87-.47c-.73,0-1.47,0-2.21,0a4.56,4.56,0,0,0-.64,0,2.15,2.15,0,0,0-2,1.5,11.75,11.75,0,0,0-.38,1.32q-.67,3.29-1.33,6.59c-.48,2.38-1,4.75-1.45,7.13-.3,1.47-.6,2.95-.91,4.42a15.55,15.55,0,0,1-.7,2.39,3.89,3.89,0,0,1-.87,1.39,2.33,2.33,0,0,1-1,.61,1.89,1.89,0,0,1-2.42-1.61,9.53,9.53,0,0,1,.12-2.2q.51-2.62,1-5.26c.4-2.17.79-4.35,1.19-6.52s.8-4.29,1.19-6.43a5.61,5.61,0,0,0,.06-.92,1.08,1.08,0,0,0-.44-.87,2.31,2.31,0,0,0-.9-.45,10.1,10.1,0,0,0-1.9-.35,13.59,13.59,0,0,0-2.3,0,10.44,10.44,0,0,0-1.36.23,1.44,1.44,0,0,0-1.07.93,7.18,7.18,0,0,0-.35,1.14c-.19,1-.37,1.93-.55,2.89q-.5,2.78-1,5.53l-1,5.62c-.27,1.45-.51,2.9-.79,4.35a14.39,14.39,0,0,0-.17,4.49,10.07,10.07,0,0,0,2.58,5.69,7.92,7.92,0,0,0,3.7,2.32A13.62,13.62,0,0,0,213.15,308.16ZM85.23,281.53v0c-1.41,0-2.82.11-4.23.11-1.79,0-3.56.21-5.34.3-.31,0-.61.08-.92.1a3.75,3.75,0,0,0-.8.2,1.61,1.61,0,0,0-1,.91,6.4,6.4,0,0,0-.33,1c-.27,1-.54,2.08-.78,3.12-.13.57-.2,1.15-.3,1.73a1.41,1.41,0,0,0,.1.81.71.71,0,0,0,.35.41,1.56,1.56,0,0,0,.7.19l1.2,0a.2.2,0,0,1,.16.19,2.2,2.2,0,0,1,0,.36c-.28,1.26-.55,2.52-.83,3.78a2.19,2.19,0,0,1-.2.7c-.17.26-.51.11-.77.19s-.3.07-.45.11a1.88,1.88,0,0,0-1.24,1,7.27,7.27,0,0,0-.33.76,13.84,13.84,0,0,0-.72,3.23,15.26,15.26,0,0,0,0,1.66,1.13,1.13,0,0,0,1,1.29,1.42,1.42,0,0,1,.35.11.18.18,0,0,1,.1.14,1.78,1.78,0,0,1,0,.46c-.2,1.24-.43,2.48-.63,3.72a19.51,19.51,0,0,0-.31,2.28,2.77,2.77,0,0,0,.34,1.5,10.73,10.73,0,0,0,2,2.62,3.44,3.44,0,0,0,2.33,1c.74,0,1.47,0,2.21,0,1.07,0,2.15-.15,3.22-.16,1.72,0,3.44-.15,5.16-.22a2.22,2.22,0,0,0,1.73-.91,4.31,4.31,0,0,0,.54-1,8.1,8.1,0,0,0,.49-1.68,10.92,10.92,0,0,0,.26-2.28,3.71,3.71,0,0,0-.18-1.09,1.06,1.06,0,0,0-.68-.69,2.8,2.8,0,0,0-1.18-.17c-.76,0-1.53,0-2.3.09-1.62.16-3.25.1-4.88.17-.25,0-.34-.11-.29-.33l.72-3.33c0-.15.09-.3.13-.45a.22.22,0,0,1,.2-.16,5.06,5.06,0,0,1,.55,0l4.06-.09c1,0,2-.09,2.94-.05a5.23,5.23,0,0,0,.56,0,1.11,1.11,0,0,0,.9-.55,7.77,7.77,0,0,0,.48-.9,18.1,18.1,0,0,0,1-3.15,9.75,9.75,0,0,0,.21-2.47.89.89,0,0,0-.72-.94,2.5,2.5,0,0,0-.72-.15,24.61,24.61,0,0,0-2.85-.05c-1.38.07-2.76.1-4.14.14a2.23,2.23,0,0,1-.37,0,.23.23,0,0,1-.18-.26c.1-.36.2-.71.32-1.06a4.26,4.26,0,0,0,.18-1.55,1,1,0,0,0-.5-.83,3.85,3.85,0,0,0-.5-.24l-1.77-.76a.15.15,0,0,1-.05-.07c0-.05.05-.11.09-.12.36,0,.73-.09,1.1-.09,2,0,4,0,6-.06l3.23,0a6.78,6.78,0,0,0,1.27-.15,1.57,1.57,0,0,0,1-.71,5.4,5.4,0,0,0,.56-1.16,16.39,16.39,0,0,0,.73-2.75,9.3,9.3,0,0,0,.2-2.29,2,2,0,0,0-.2-.8.78.78,0,0,0-.46-.43,1.93,1.93,0,0,0-.52-.15,8.26,8.26,0,0,0-1.11-.06Zm32.21,31.93a38,38,0,0,0,3.89-.22,15.51,15.51,0,0,0,3.73-1,11.28,11.28,0,0,0,3.14-1.89,8.62,8.62,0,0,0,2.65-3.81,9.45,9.45,0,0,0,.52-2.33,13.16,13.16,0,0,0-.82-6.24,20.61,20.61,0,0,0-1.11-2.32l-2.57-4.48-1.09-1.82a1,1,0,0,1-.13-.52,1.25,1.25,0,0,1,.62-1.07,4.26,4.26,0,0,1,1.72-.63s0,0,.08,0a.12.12,0,0,1,.13.11c0,.25,0,.49.05.73a.72.72,0,0,0,.68.75,5.82,5.82,0,0,0,.73.08,20,20,0,0,0,3.85-.32,2.29,2.29,0,0,0,1.74-1.35,6.54,6.54,0,0,0,.41-1.12,14.9,14.9,0,0,0,.51-4.65c0-.28-.08-.55-.11-.82a1.62,1.62,0,0,0-.59-1,2.59,2.59,0,0,0-1.21-.64,7.89,7.89,0,0,0-1.28-.18,26.36,26.36,0,0,0-5.32.31A15.28,15.28,0,0,0,120.9,282a11.77,11.77,0,0,0-2.62,2.7,8.79,8.79,0,0,0-1.33,2.82,7,7,0,0,0-.15,3,9.38,9.38,0,0,0,.46,1.59,16.68,16.68,0,0,0,1.18,2.4c.48.82,1,1.61,1.55,2.39a26.74,26.74,0,0,1,2.25,3.69,11.37,11.37,0,0,1,.58,1.46,3.77,3.77,0,0,1,.14,1,1.43,1.43,0,0,1-.79,1.35,3.54,3.54,0,0,1-1.76.47.36.36,0,0,1-.18,0,.54.54,0,0,1-.18-.19,1.08,1.08,0,0,1,0-.36c0-.37.06-.74.07-1.11a4.59,4.59,0,0,0-.06-.73.68.68,0,0,0-.52-.58l-.34-.12a5.87,5.87,0,0,0-1.56-.12c-.58,0-1.17.09-1.75.11a5.14,5.14,0,0,0-1.17.22,1.86,1.86,0,0,0-1.17,1,4.83,4.83,0,0,0-.39,1c-.19.74-.32,1.5-.46,2.25a33.69,33.69,0,0,0-.4,3.48,5.48,5.48,0,0,0,.08,1.28,2.57,2.57,0,0,0,1.65,2.06,3.88,3.88,0,0,0,1.42.33Zm-13.12-33.1-2.31.11-1.84.1c-.43,0-.86,0-1.29.06s-.79.08-1.19.13a1.1,1.1,0,0,0-.92.67c-.1.23-.2.45-.29.68-.41,1.06-.77,2.13-1.08,3.23a7.68,7.68,0,0,0-.24,1.73,2.79,2.79,0,0,0,0,.64c.07.43.26.65.8.76a2.3,2.3,0,0,0,.37,0l3.49-.21.18,0,2.38-.29,3.11-.34c.09,0,.13,0,.12.07a.11.11,0,0,1,0,.08c-.14.13-.27.26-.41.37a7.44,7.44,0,0,0-1.75,2c-.11.19-.24.36-.36.54L92.46,306.61l-.4.62a2.36,2.36,0,0,0-.35,1.49,6.83,6.83,0,0,0,.55,2.23,21.69,21.69,0,0,0,1.27,2.44,1.57,1.57,0,0,0,1.19.77,7.79,7.79,0,0,0,1.93.09l1.56-.1,5-.25.55,0c.46,0,.92-.08,1.38-.08a17.56,17.56,0,0,0,2.29-.21,2.29,2.29,0,0,0,1.19-.47,5,5,0,0,0,1.63-2.29,8.17,8.17,0,0,0,.28-1.54,7.59,7.59,0,0,0-.15-2.47.65.65,0,0,0-.84-.5,3.23,3.23,0,0,1-.81.16l-1.84.11-2.11.12-2.49.11a2.22,2.22,0,0,1-.81-.13c-.26-.09-.3-.19-.14-.39s.31-.38.47-.56a20.57,20.57,0,0,0,1.41-1.82q5.07-7.36,10.13-14.72c.14-.2.28-.4.41-.61a2.57,2.57,0,0,0,.46-2.44c0-.06,0-.12,0-.18a16.76,16.76,0,0,0-1-3.24,8.86,8.86,0,0,0-.53-1.07,6.31,6.31,0,0,0-.66-.88,2,2,0,0,0-1.63-.72c-.37,0-.74,0-1.1,0C107.62,280.16,106.06,280.26,104.32,280.36ZM242.48,298v0l-4,.14h-.09a.29.29,0,0,1-.17-.19c0-.16,0-.31.05-.46.27-1.35.53-2.71.81-4.06s.65-2.94,1-4.41c.72-3.2,1.43-6.4,2.16-9.61.22-1,.46-2,.7-2.95a6.88,6.88,0,0,0,.15-1.28,1.12,1.12,0,0,0-.55-1,3.77,3.77,0,0,0-1-.46,13.82,13.82,0,0,0-3.25-.61,9.09,9.09,0,0,0-2,.06,5.29,5.29,0,0,0-.54.13,1.1,1.1,0,0,0-.72.66,11.24,11.24,0,0,0-.45,1.5c-.15.66-.3,1.31-.46,2-.46,2-.94,3.94-1.39,5.92q-.9,4-1.77,8c-.47,2.09-1,4.19-1.32,6.3a19.4,19.4,0,0,0-.27,2,4,4,0,0,0,.55,2.29,5.35,5.35,0,0,0,.29.47c.67.93,1.32,1.85,2,2.76a7.83,7.83,0,0,0,.88.94,2.39,2.39,0,0,0,1.4.64,7.73,7.73,0,0,0,1.92.07c.34-.05.68-.05,1-.07l5.06-.25q.87,0,1.74-.15a2.45,2.45,0,0,0,2.18-1.59,9,9,0,0,0,.33-.86,25.5,25.5,0,0,0,.76-3.13,10.09,10.09,0,0,0,.21-1.73,4.71,4.71,0,0,0,0-.65.57.57,0,0,0-.44-.52,3.37,3.37,0,0,0-1.1-.1c-.61.06-1.22.08-1.84.11Zm16.72-26a11.35,11.35,0,0,0-1.93.1,3.75,3.75,0,0,0-.8.2,1.44,1.44,0,0,0-.71.56,3.16,3.16,0,0,0-.43.91c-.13.44-.25.89-.37,1.33-.78,3-1.57,6.07-2.33,9.1-.5,2-1,4-1.42,6-.18.94-.35,1.87-.55,2.8-.32,1.54-.66,3.06-1,4.6-.29,1.38-.55,2.77-.74,4.17a8.43,8.43,0,0,0-.06,1,1.92,1.92,0,0,0,.76,1.6,3.33,3.33,0,0,0,1.13.6,10.84,10.84,0,0,0,5.54.46,2.63,2.63,0,0,0,.53-.15,1.12,1.12,0,0,0,.73-.65,4.11,4.11,0,0,0,.35-1c.36-1.81.73-3.61,1.08-5.42q.74-3.75,1.56-7.48,1-4.45,1.95-8.91c.45-2,.84-4.08,1.39-6.1a6.55,6.55,0,0,0,.2-1.09,1.77,1.77,0,0,0-1-1.83,6,6,0,0,0-1.38-.5A15.66,15.66,0,0,0,259.2,272Zm-108.83,1h0c0,.12,0,.24,0,.36a.6.6,0,0,0,.54.54h.55a.76.76,0,0,0,.57-.25,8.14,8.14,0,0,0,.54-.63,10.67,10.67,0,0,0,1.14-1.77c.7-1.33,1.4-2.65,2.09-4,.21-.41.37-.84.55-1.26a1.6,1.6,0,0,0,.11-.81.42.42,0,0,0-.18-.3,1.28,1.28,0,0,0-.6-.22,12.38,12.38,0,0,0-2-.1,6,6,0,0,0-.73.08.94.94,0,0,0-.72.5,2.22,2.22,0,0,0-.2.41c-.12.32-.25.63-.34,1-.46,1.68-.83,3.38-1.13,5.1C150.5,272.14,150.44,272.59,150.37,273Zm10.47-8.41a7.36,7.36,0,0,0-1.55.07,1,1,0,0,0-.78.57,8.25,8.25,0,0,0-.38.93,20.67,20.67,0,0,0-.61,2.31c-.3,1.28-.57,2.57-.77,3.87a6.77,6.77,0,0,0-.06,1,.64.64,0,0,0,.53.56,1.32,1.32,0,0,0,1.44-.55c.08-.13.19-.24.28-.37a13.19,13.19,0,0,0,1.27-2c.58-1.11,1.17-2.22,1.74-3.33.24-.47.45-.94.65-1.42a3.38,3.38,0,0,0,.18-.62c.09-.58-.08-.74-.65-.9l-.19,0Z" transform="translate(-17.06 -69.59)"/><path class="cls-2" d="M95.05,259.36l-1.38.1-.46,0-4.88.24-1.56.09-.37,0-4.79.25-1.75.1-.64,0-3.4.19-1,0c-.13,0-.21-.09-.2-.24s0-.49.05-.74c.16-1.43.33-2.86.47-4.3.1-1,.16-2.08.24-3.12.1-1.23.19-2.45.29-3.68,0-.15,0-.3,0-.46.09-2.15.25-4.29.27-6.44,0-.83,0-1.66.07-2.49,0-2-.08-4.05-.16-6.08-.06-1.41-.18-2.82-.26-4.23-.06-1.11-.09-2.21-.13-3.32,0-.7,0-1.41,0-2.11l0-1.48a13.71,13.71,0,0,1,.14-2.48,4.87,4.87,0,0,1,.35-1.24l.24-.59a1.57,1.57,0,0,0,.06-.91,16.42,16.42,0,0,1-.29-3.2,22.19,22.19,0,0,0-.15-2.58,9.35,9.35,0,0,0-.19-1.18,19.14,19.14,0,0,1-.39-2.92c-.21-2.45-.23-4.91-.23-7.37,0-.58,0-1.16,0-1.75a3.08,3.08,0,0,0-.23-1.16,2.7,2.7,0,0,0-1.75-1.53,2,2,0,0,0-1,0,.86.86,0,0,0-.4.21,7,7,0,0,0-.68.75,7.88,7.88,0,0,0-1,1.94c-.2.51-.38,1-.59,1.55a11.69,11.69,0,0,1-1.6,2.89,3.48,3.48,0,0,0-.76,2.22c0,.37,0,.74,0,1.1a1.87,1.87,0,0,0,1.06,1.62,8.71,8.71,0,0,0,1.64.6l1.42.38a2,2,0,0,1,.34.12.81.81,0,0,1,.47.55,8.24,8.24,0,0,1,.19,1,.38.38,0,0,1-.15.32l-.31.2c-.33.17-.66.33-1,.52a3.26,3.26,0,0,0-.6.43,1.4,1.4,0,0,0-.37,1.6,4.37,4.37,0,0,0,.29.57,6.22,6.22,0,0,0,1.51,1.6c.44.34.89.65,1.34,1a.9.9,0,0,1,.36.52.3.3,0,0,1-.14.31l-.26.07-1.46.25-.18,0a1.47,1.47,0,0,0-1.22,1.42,3.33,3.33,0,0,0,.65,2.34l.37.53a.34.34,0,0,1,0,.35c-.1.19-.21.37-.32.56a.34.34,0,0,1-.31.16,5.62,5.62,0,0,1-.92,0,10,10,0,0,1-2.46-.73A6.08,6.08,0,0,1,64,219.08a29.06,29.06,0,0,1-3-8.17,22.51,22.51,0,0,1-.39-5c0-.73.12-1.47.2-2.2a3.45,3.45,0,0,1,.11-.54.64.64,0,0,1,.24-.38l.21-.17a1.56,1.56,0,0,0,.51-.86c.11-.54.22-1.08.32-1.63.43-2.35.86-4.71,1.28-7.06.28-1.54.54-3.09.81-4.63.13-.78.28-1.57.42-2.35a9.93,9.93,0,0,0,0-3,11.7,11.7,0,0,1-.12-1.56c0-3.66-.06-7.32.06-11,.08-2.43.09-4.86.27-7.28,0-.43,0-.86,0-1.29.1-1.87.2-3.74.31-5.61.07-1,.14-2.08.22-3.12.11-1.26.22-2.51.34-3.77.07-.7.14-1.4.23-2.1a5.28,5.28,0,0,1,.16-.81,3.79,3.79,0,0,1,2-2.59c1-.49,1.91-1,2.88-1.44l3.13-1.54a3.76,3.76,0,0,0,.55-.32.64.64,0,0,0,.26-.65,1.58,1.58,0,0,0-.09-.36,23.32,23.32,0,0,0-.93-2.4c-.35-.81-.71-1.63-1.06-2.45a19.5,19.5,0,0,1-1.15-3.59,15,15,0,0,1-.22-5,13.35,13.35,0,0,1,1.75-5.1,19,19,0,0,1,2.81-3.63A35.45,35.45,0,0,1,91,108.52c2.66-.81,5.36-1.52,8.07-2.16,1.31-.31,2.64-.56,4-.74a17.09,17.09,0,0,1,2.47-.25c.21,0,.43,0,.64,0a25.78,25.78,0,0,1,3-.14l4.7,0c.52,0,1,0,1.57.07.36,0,.73.07,1.1.07a19.37,19.37,0,0,1,2.75.23,10.56,10.56,0,0,1,3.9,1.29,5.73,5.73,0,0,1,1.49,1.23,3.9,3.9,0,0,1,.56,4.31,5.29,5.29,0,0,1-1,1.45,9.37,9.37,0,0,1-2.16,1.7,18.72,18.72,0,0,1-3.28,1.43,40.78,40.78,0,0,1-4.87,1.34c-1.59.34-3.18.63-4.78.91s-3.38.61-5.07.92c-.48.09-1,.22-1.43.34-.23,0-.25.18-.08.38a4.16,4.16,0,0,0,1.48,1.08,12.17,12.17,0,0,0,1.46.55c1.08.33,2.17.63,3.26,1a22.54,22.54,0,0,1,3.11,1.11,9.72,9.72,0,0,1,2.55,1.63.2.2,0,0,1-.09.35l-.09,0c-1.16.31-2.3.64-3.46.92s-2.21.51-3.33.7-2.24.35-3.37.47a40.74,40.74,0,0,1-4.42.2c-.74,0-1.48,0-2.21-.08a21.05,21.05,0,0,1-5.36-1.22c-2.51-1-5-1.9-7.56-2.86a3.83,3.83,0,0,0-1-.3c-.1,0-.2.08-.18.15v.09a1.25,1.25,0,0,0,.59.9l.24.14c1.71,1,3.41,1.94,5.13,2.88a23.68,23.68,0,0,0,3.51,1.61,22.05,22.05,0,0,0,4.08,1.06c1,.16,2.08.21,3.12.29h.55a32.65,32.65,0,0,0,4.3-.45c.48-.09,1-.15,1.46-.22,1.06-.14,2.13-.27,3.19-.42l1.82-.29a2.18,2.18,0,0,1,2.07.74,14.2,14.2,0,0,1,1.94,2.79,7.52,7.52,0,0,1,.88,3.54c0,.24,0,.49-.05.73-.14,1.25-.31,2.5-.35,3.76a10.67,10.67,0,0,0,.42,3.46c1,3.5,2,7,3,10.51a44,44,0,0,1,1.16,5.21c.18,1.09.3,2.19.43,3.29.11.82.21,1.64.3,2.47s.14,1.46.21,2.2.14,1.59.18,2.39c.08,1.81.24,3.61.25,5.43,0,1.6.11,3.19.07,4.79-.06,2.7,0,5.41-.23,8.1,0,.16,0,.31,0,.46-.08,1.69-.15,3.38-.25,5.07-.08,1.31-.19,2.63-.29,3.95-.08,1.13-.15,2.27-.24,3.4s-.2,2.2-.3,3.3c-.07.83-.14,1.66-.22,2.48-.11,1.29-.23,2.57-.35,3.85l-.24,2.76c-.09.92-.19,1.83-.29,2.75-.07.67-.14,1.34-.2,2-.09.86-.16,1.72-.25,2.57s-.19,1.77-.28,2.66q-.12,1-.21,2l-.24,2.76c-.07.86-.15,1.71-.24,2.57s-.21,2-.32,2.93c-.09.79-.19,1.58-.29,2.38-.07.61-.15,1.22-.22,1.83-.18,1.55-.37,3.11-.54,4.66s-.29,2.87-.44,4.31c-.18,1.68-.31,3.36-.38,5,0,1.11-.11,2.21-.17,3.32,0,.46-.08.92-.12,1.37,0,.2-.08.25-.3.27l-3.13.17-1.38.08-.46,0-4.87.25-1.57.09-.37,0-4.87.25c-.56,0-1.11.06-1.66.09l-1.93.11Z" transform="translate(-17.06 -69.59)"/><path class="cls-2" d="M219.33,193.2a20.82,20.82,0,0,1-1,6.72,15.53,15.53,0,0,1-2.61,4.62c-.18.22-.37.42-.53.65a2.12,2.12,0,0,0-.42,1,1.84,1.84,0,0,0,.66,1.73,5.16,5.16,0,0,0,1.16.73,17.23,17.23,0,0,1,3.81,2.57,29.82,29.82,0,0,1,2.84,2.89A60,60,0,0,1,235,235.36a43,43,0,0,1,1.22,4.62q.3,1.49.48,3a29.42,29.42,0,0,1,.15,4.69,20.65,20.65,0,0,1-.53,3.83c-.05.19-.08.28-.39.29l-4.42.22-4.87.29-1.11,0-2.2.13h-.28l-5,.25-1.38.08-.46,0-5,.25-1.38.08-.46,0-4.88.24-1.29.07-1.93.11-1.84.11-.27,0-4.79.24-1.75.1-.36,0-4.88.24-1.57.1-.36,0-4.88.24-1.56.1-.37,0-4.88.25-1.56.09-.46,0-5,.24-1.2.07-1.93.11-1.84.11-.28,0-4.78.24-1.75.1c-.49,0-1,0-1.47.08a.76.76,0,0,1-.77-.37,20.8,20.8,0,0,1-3.39-7.59,25.45,25.45,0,0,1-.53-4.85,32.89,32.89,0,0,1,.21-4.32,34.73,34.73,0,0,1,1-5.06,55.11,55.11,0,0,1,3.69-9.8c.8-1.66,1.68-3.28,2.6-4.87.23-.4.45-.81.64-1.23a6.32,6.32,0,0,0,.42-4.13,19.54,19.54,0,0,1-.37-6,26.4,26.4,0,0,1,1.16-5.76A33.79,33.79,0,0,1,161,196a54,54,0,0,1,4.63-6.87c.75-1,1.54-1.91,2.31-2.87.54-.67,1.08-1.34,1.61-2a5.63,5.63,0,0,0,.84-1.52,1.79,1.79,0,0,0-.73-2.17,5,5,0,0,0-1.42-.62c-.48-.13-.95-.25-1.43-.34-1.48-.27-3-.52-4.44-.8s-3.07-.6-4.6-.91a3.94,3.94,0,0,1-.95-.32,1.75,1.75,0,0,1-1.06-1.41,7.15,7.15,0,0,1-.13-1.46c0-1.17.09-2.33.15-3.5a4.24,4.24,0,0,1,.2-1,1.41,1.41,0,0,1,.9-1,4.38,4.38,0,0,1,.71-.19c.33-.06.66-.11,1-.14l2.85-.24h.27c1-.13,2-.15,2.94-.24.64,0,1.28-.1,1.93-.12a7.62,7.62,0,0,0,1.9-.31A5.46,5.46,0,0,0,172,165c.27-.52.51-1.05.77-1.57a11.24,11.24,0,0,1,1.18-1.86,11.85,11.85,0,0,1,4.36-3.46,20.23,20.23,0,0,1,3-1.11c.55-.17,1.11-.34,1.65-.54a7.91,7.91,0,0,0,4.75-4.6,33.4,33.4,0,0,0,1.75-5.52c.09-.42.14-.85.24-1.27a3.07,3.07,0,0,1,.27-.77,1,1,0,0,1,1.47-.48,3.19,3.19,0,0,1,.78.49,8.2,8.2,0,0,1,.78.78,3,3,0,0,1,.33.44,36.76,36.76,0,0,1,4.06,7.82,25.62,25.62,0,0,1,1.31,5.45c0,.27,0,.55.06.83,0,.55.08,1.1.14,1.65a4.5,4.5,0,0,0,1.56,2.94,6,6,0,0,0,1.05.74l1.44.82a34.34,34.34,0,0,1,8.25,6.43,29.15,29.15,0,0,1,6.92,12.52,36.75,36.75,0,0,1,1,4.87C219.2,190.86,219.22,192.08,219.33,193.2Z" transform="translate(-17.06 -69.59)"/><path class="cls-2" d="M40,242.83l-1.29-.07s-.08-.07-.11-.11,0-.06,0-.08c.37-.41.73-.83,1.09-1.25l15.8-18c.81-.92,1.64-1.83,2.45-2.75.37,0,.59.3.86.48.77.51,1.52,1.05,2.27,1.58l4,2.78.44.33a.18.18,0,0,1,0,.24l-.11.15a73.38,73.38,0,0,1-8.34,8.57,43.17,43.17,0,0,1-6.72,4.83,26.51,26.51,0,0,1-6,2.57A17.1,17.1,0,0,1,40,242.83Z" transform="translate(-17.06 -69.59)"/><path class="cls-2" d="M249.07,231.7a2.75,2.75,0,0,1,1.31.31,5.28,5.28,0,0,1,2.48,2.37l0,.08a2.76,2.76,0,0,1,0,2.56,1.22,1.22,0,0,1-1.67.66,9.87,9.87,0,0,1-2.27-1.37,10.41,10.41,0,0,1-1.73-1.78,3.15,3.15,0,0,1-.22-.29,1.37,1.37,0,0,1,.3-2A2.8,2.8,0,0,1,249.07,231.7Z" transform="translate(-17.06 -69.59)"/><path class="cls-2" d="M260.3,227.81a2.29,2.29,0,0,1,2.34,1.68,1.13,1.13,0,0,1-.18,1,.6.6,0,0,1-.55.28,3.84,3.84,0,0,1-2.08-.62,2.73,2.73,0,0,1-.47-.43,1.22,1.22,0,0,1,0-1.45,1.14,1.14,0,0,1,.7-.4Z" transform="translate(-17.06 -69.59)"/><path class="cls-2" d="M72.06,202.92c0,.67,0,1.34,0,2,0,.13-.11.24-.22.21-.47-.12-1-.23-1.42-.36a.34.34,0,0,1-.25-.34,1.48,1.48,0,0,1,.11-.62,7.27,7.27,0,0,1,.35-.75c.41-.75.84-1.49,1.27-2.23H72s.06,0,.06,0a5.21,5.21,0,0,1,0,.55v1.47Z" transform="translate(-17.06 -69.59)"/><path class="cls-3" d="M184.17,310a16.69,16.69,0,0,1-2.12-.07,2.91,2.91,0,0,1-1.88-.86c-.41-.42-.81-.84-1.2-1.28-.57-.64-1.12-1.3-1.67-2-.25-.31-.47-.65-.69-1a1.3,1.3,0,0,1-.22-.88,6,6,0,0,1,.07-.73c.24-1.27.47-2.54.74-3.8.59-2.7,1.18-5.4,1.79-8.09.37-1.61.8-3.21,1.2-4.82.05-.21.1-.42.13-.63,0,0-.08-.1-.13-.1a.68.68,0,0,0-.26.07l-1.8.68a2.71,2.71,0,0,1-.63.13.7.7,0,0,1-.74-.55,6,6,0,0,1,0-.73,9.54,9.54,0,0,1,.26-1.92,30.24,30.24,0,0,1,.73-2.95c.11-.35.25-.69.38-1a2.8,2.8,0,0,1,1.24-1.43,7.64,7.64,0,0,1,1-.48,29.26,29.26,0,0,1,5.33-1.7,17.62,17.62,0,0,1,4.58-.42,14.21,14.21,0,0,1,6.08,1.63,11.26,11.26,0,0,1,1.55,1,7.78,7.78,0,0,1,2.88,4.48,9.53,9.53,0,0,1,.24,2.66,7.21,7.21,0,0,1-1.21,3.72,13.52,13.52,0,0,1-3,3.23c-.26.22-.54.41-.81.61s-.16.22,0,.39l.4.5a15.85,15.85,0,0,1,1.35,2.09,8,8,0,0,1-.63,8.37,11.31,11.31,0,0,1-2,2,17.08,17.08,0,0,1-7.27,3.4A19.92,19.92,0,0,1,184.17,310Zm4.33-26.63a8.52,8.52,0,0,0-1.84.19,12.13,12.13,0,0,0-2.65.74.22.22,0,0,0-.06.07s0,.09.09.1c.88.12,1.77.19,2.64.38a3.73,3.73,0,0,1,1.28.47,1,1,0,0,1,.49.93,6.87,6.87,0,0,1-.14,1c-.19.83-.4,1.67-.59,2.5,0,.18.07.3.26.25a6.22,6.22,0,0,0,.71-.19,7.08,7.08,0,0,0,2.32-1.26,3.3,3.3,0,0,0,1.27-3.09,1.81,1.81,0,0,0-.88-1.43,5,5,0,0,0-.66-.31A6.06,6.06,0,0,0,188.5,283.35Zm-2.75,19a4.39,4.39,0,0,0,1.44-.23,5.26,5.26,0,0,0,2-1.07,2.63,2.63,0,0,0,.82-2.91,1.38,1.38,0,0,0-.89-1c-.14-.05-.29-.12-.43-.16a1.12,1.12,0,0,1-.67-.59,3.47,3.47,0,0,1-.36-1c-.16-.71-.29-1.44-.44-2.16a.56.56,0,0,0-.07-.16s-.07,0-.08,0a.74.74,0,0,0-.14.22c-.55,2.57-1.09,5.14-1.64,7.72-.08.38-.15.78-.21,1.17a.19.19,0,0,0,.1.12Z" transform="translate(-17.06 -69.59)"/><path class="cls-3" d="M67.08,296.53a18.9,18.9,0,0,1-2.76,10.06,24,24,0,0,1-5.2,6.17,17.74,17.74,0,0,1-6.33,3.47,17,17,0,0,1-4.52.74,6.91,6.91,0,0,1-1.11-.08,2,2,0,0,1-.92-.38,6.47,6.47,0,0,1-.57-.47A32,32,0,0,1,43,313.4c-.19-.2-.36-.41-.54-.63a3.56,3.56,0,0,1-.8-2.21,11.23,11.23,0,0,1,.24-2.65c.28-1.51.6-3,.93-4.51.69-3.18,1.4-6.35,2.11-9.53.13-.6.25-1.2.37-1.8a.16.16,0,0,0,0-.16.15.15,0,0,0-.16,0l-.58.27c-.37.17-.73.33-1.1.48a4,4,0,0,1-.69.24.87.87,0,0,1-.36,0,.52.52,0,0,1-.41-.44,5.42,5.42,0,0,1,.09-1.56l1-4.58c0-.12.07-.23.1-.35a2.08,2.08,0,0,1,1.07-1.43,7.64,7.64,0,0,1,1.75-.79,21.2,21.2,0,0,1,3.4-.79,20.87,20.87,0,0,1,4.32-.27,19.34,19.34,0,0,1,4.27.64,11.77,11.77,0,0,1,8.11,7.52,14.65,14.65,0,0,1,.8,3.21A18.54,18.54,0,0,1,67.08,296.53Zm-18.32-5.91a.82.82,0,0,0,.17.1l.9.18a10.27,10.27,0,0,1,2,.56,3.6,3.6,0,0,1,1.09.67,1.36,1.36,0,0,1,.49,1.05,7.15,7.15,0,0,1-.14,1.46c-.28,1.35-.55,2.71-.82,4.06q-.62,3-1.22,6c-.19.94-.37,1.87-.56,2.8,0,.07.11.17.19.16a3.1,3.1,0,0,0,.53-.1,7.75,7.75,0,0,0,2.13-1.07,13.67,13.67,0,0,0,2.15-1.87,9.37,9.37,0,0,0,2.5-5,16.83,16.83,0,0,0,.18-3.4,6.8,6.8,0,0,0-.17-1.27,5.41,5.41,0,0,0-2.1-3.25,7,7,0,0,0-2.57-1.18,9.6,9.6,0,0,0-2.38-.26A6.65,6.65,0,0,0,48.76,290.62Z" transform="translate(-17.06 -69.59)"/><path class="cls-3" d="M135.53,298.87a25,25,0,0,1,2.16-10.26,27.79,27.79,0,0,1,3.72-6.22,15.68,15.68,0,0,1,3-2.95,10.77,10.77,0,0,1,3.44-1.71,9,9,0,0,1,2.36-.34,4.6,4.6,0,0,1,.64.05.89.89,0,0,1,.8.87,8.1,8.1,0,0,1-.06,1.84c-.05.33-.07.67-.1,1,0,0,0,.05,0,.06a.15.15,0,0,0,.09,0c.16-.14.33-.27.48-.42l2.38-2.3a8.29,8.29,0,0,1,.84-.73,2.07,2.07,0,0,1,1.91-.35,2,2,0,0,1,.92.59,3.74,3.74,0,0,1,.68,1,8.94,8.94,0,0,1,.6,1.54,32.11,32.11,0,0,1,1.14,5.58,29,29,0,0,1,0,5.51,39.94,39.94,0,0,1-2.25,9.84,18.79,18.79,0,0,1-4.32,6.89,15,15,0,0,1-1.77,1.61A11.62,11.62,0,0,1,148,312a10.17,10.17,0,0,1-3.11.27,6.77,6.77,0,0,1-2.38-.63,10.65,10.65,0,0,1-5.93-6.33,18.66,18.66,0,0,1-.78-3.22C135.62,301,135.59,299.78,135.53,298.87Zm15.52-14.81a2.16,2.16,0,0,0-.24.77,2,2,0,0,1-.87,1.35c-.4.29-.78.6-1.18.89a6.22,6.22,0,0,0-1.41,1.44,12.07,12.07,0,0,0-1,1.74A20.7,20.7,0,0,0,144.4,296a13.28,13.28,0,0,0-.22,3.21,7,7,0,0,0,.66,2.65,4.15,4.15,0,0,0,.38.64,1.7,1.7,0,0,0,1.87.65,2.28,2.28,0,0,0,1.1-.62,8.21,8.21,0,0,0,.7-.86,12.59,12.59,0,0,0,1.52-3.13,31.43,31.43,0,0,0,1.42-6.83,23.6,23.6,0,0,0-.19-5.51c-.08-.55-.22-1.08-.35-1.62A1,1,0,0,0,151.05,284.06Z" transform="translate(-17.06 -69.59)"/><path class="cls-3" d="M213.15,308.16a13.62,13.62,0,0,1-3.4-.46,7.92,7.92,0,0,1-3.7-2.32,10.07,10.07,0,0,1-2.58-5.69,14.39,14.39,0,0,1,.17-4.49c.28-1.45.52-2.9.79-4.35l1-5.62q.51-2.76,1-5.53c.18-1,.36-1.93.55-2.89a7.18,7.18,0,0,1,.35-1.14,1.44,1.44,0,0,1,1.07-.93,10.44,10.44,0,0,1,1.36-.23,13.59,13.59,0,0,1,2.3,0,10.1,10.1,0,0,1,1.9.35,2.31,2.31,0,0,1,.9.45,1.08,1.08,0,0,1,.44.87,5.61,5.61,0,0,1-.06.92c-.39,2.14-.8,4.29-1.19,6.43s-.79,4.35-1.19,6.52q-.48,2.64-1,5.26a9.53,9.53,0,0,0-.12,2.2,1.89,1.89,0,0,0,2.42,1.61,2.33,2.33,0,0,0,1-.61,3.89,3.89,0,0,0,.87-1.39,15.55,15.55,0,0,0,.7-2.39c.31-1.47.61-3,.91-4.42.48-2.38,1-4.75,1.45-7.13q.66-3.3,1.33-6.59a11.75,11.75,0,0,1,.38-1.32,2.15,2.15,0,0,1,2-1.5,4.56,4.56,0,0,1,.64,0c.74,0,1.48,0,2.21,0a5.31,5.31,0,0,1,1.87.47,1.54,1.54,0,0,1,.91,1,1.71,1.71,0,0,1,.1.54,4.86,4.86,0,0,1-.06,1c-.24,1.42-.5,2.85-.77,4.26-.33,1.78-.68,3.56-1,5.34-.63,3.19-1.23,6.39-2,9.55a48.79,48.79,0,0,1-1.63,5.28,10.77,10.77,0,0,1-5.93,6.22,8.05,8.05,0,0,1-2.85.69Z" transform="translate(-17.06 -69.59)"/><path class="cls-3" d="M85.23,281.53l5.9-.08a8.26,8.26,0,0,1,1.11.06,1.93,1.93,0,0,1,.52.15.78.78,0,0,1,.46.43,2,2,0,0,1,.2.8,9.3,9.3,0,0,1-.2,2.29,16.39,16.39,0,0,1-.73,2.75,5.4,5.4,0,0,1-.56,1.16,1.57,1.57,0,0,1-1,.71,6.78,6.78,0,0,1-1.27.15l-3.23,0c-2,0-4,0-6,.06-.37,0-.74.06-1.1.09,0,0-.07.07-.09.12a.15.15,0,0,0,.05.07l1.77.76a3.85,3.85,0,0,1,.5.24,1,1,0,0,1,.5.83,4.26,4.26,0,0,1-.18,1.55c-.12.35-.22.7-.32,1.06a.23.23,0,0,0,.18.26,2.23,2.23,0,0,0,.37,0c1.38,0,2.76-.07,4.14-.14a24.61,24.61,0,0,1,2.85.05,2.5,2.5,0,0,1,.72.15.89.89,0,0,1,.72.94,9.75,9.75,0,0,1-.21,2.47,18.1,18.1,0,0,1-1,3.15,7.77,7.77,0,0,1-.48.9,1.11,1.11,0,0,1-.9.55,5.23,5.23,0,0,1-.56,0c-1,0-2,0-2.94.05l-4.06.09a5.06,5.06,0,0,0-.55,0,.22.22,0,0,0-.2.16c0,.15-.09.3-.13.45l-.72,3.33c0,.22,0,.34.29.33,1.63-.07,3.26,0,4.88-.17.77-.07,1.54-.07,2.3-.09a2.8,2.8,0,0,1,1.18.17,1.06,1.06,0,0,1,.68.69,3.71,3.71,0,0,1,.18,1.09,10.92,10.92,0,0,1-.26,2.28,8.1,8.1,0,0,1-.49,1.68,4.31,4.31,0,0,1-.54,1,2.22,2.22,0,0,1-1.73.91c-1.72.07-3.44.19-5.16.22-1.07,0-2.15.12-3.22.16-.74,0-1.47,0-2.21,0a3.44,3.44,0,0,1-2.33-1,10.73,10.73,0,0,1-2-2.62,2.77,2.77,0,0,1-.34-1.5,19.51,19.51,0,0,1,.31-2.28c.2-1.24.43-2.48.63-3.72a1.78,1.78,0,0,0,0-.46.18.18,0,0,0-.1-.14,1.42,1.42,0,0,0-.35-.11,1.13,1.13,0,0,1-1-1.29,15.26,15.26,0,0,1,0-1.66,13.84,13.84,0,0,1,.72-3.23,7.27,7.27,0,0,1,.33-.76,1.88,1.88,0,0,1,1.24-1c.15,0,.31-.06.45-.11s.6.07.77-.19a2.19,2.19,0,0,0,.2-.7c.28-1.26.55-2.52.83-3.78a2.2,2.2,0,0,0,0-.36.2.2,0,0,0-.16-.19l-1.2,0a1.56,1.56,0,0,1-.7-.19.71.71,0,0,1-.35-.41,1.41,1.41,0,0,1-.1-.81c.1-.58.17-1.16.3-1.73.24-1,.51-2.08.78-3.12a6.4,6.4,0,0,1,.33-1,1.61,1.61,0,0,1,1-.91,3.75,3.75,0,0,1,.8-.2c.31,0,.61-.08.92-.1,1.78-.09,3.55-.3,5.34-.3,1.41,0,2.82-.07,4.23-.11Z" transform="translate(-17.06 -69.59)"/><path class="cls-3" d="M117.44,313.46l-2-.06a3.88,3.88,0,0,1-1.42-.33,2.57,2.57,0,0,1-1.65-2.06,5.48,5.48,0,0,1-.08-1.28,33.69,33.69,0,0,1,.4-3.48c.14-.75.27-1.51.46-2.25a4.83,4.83,0,0,1,.39-1,1.86,1.86,0,0,1,1.17-1,5.14,5.14,0,0,1,1.17-.22c.58,0,1.17-.07,1.75-.11a5.87,5.87,0,0,1,1.56.12l.34.12a.68.68,0,0,1,.52.58,4.59,4.59,0,0,1,.06.73c0,.37,0,.74-.07,1.11a1.08,1.08,0,0,0,0,.36.54.54,0,0,0,.18.19.36.36,0,0,0,.18,0,3.54,3.54,0,0,0,1.76-.47,1.43,1.43,0,0,0,.79-1.35,3.77,3.77,0,0,0-.14-1,11.37,11.37,0,0,0-.58-1.46,26.74,26.74,0,0,0-2.25-3.69c-.54-.78-1.07-1.57-1.55-2.39a16.68,16.68,0,0,1-1.18-2.4,9.38,9.38,0,0,1-.46-1.59,7,7,0,0,1,.15-3,8.79,8.79,0,0,1,1.33-2.82,11.77,11.77,0,0,1,2.62-2.7,15.28,15.28,0,0,1,6.76-2.95,26.36,26.36,0,0,1,5.32-.31,7.89,7.89,0,0,1,1.28.18,2.59,2.59,0,0,1,1.21.64,1.62,1.62,0,0,1,.59,1c0,.27.1.54.11.82a14.9,14.9,0,0,1-.51,4.65,6.54,6.54,0,0,1-.41,1.12,2.29,2.29,0,0,1-1.74,1.35,20,20,0,0,1-3.85.32,5.82,5.82,0,0,1-.73-.08.72.72,0,0,1-.68-.75c0-.24,0-.48-.05-.73a.12.12,0,0,0-.13-.11s-.06,0-.08,0a4.26,4.26,0,0,0-1.72.63,1.25,1.25,0,0,0-.62,1.07,1,1,0,0,0,.13.52l1.09,1.82,2.57,4.48a20.61,20.61,0,0,1,1.11,2.32,13.16,13.16,0,0,1,.82,6.24,9.45,9.45,0,0,1-.52,2.33,8.62,8.62,0,0,1-2.65,3.81,11.28,11.28,0,0,1-3.14,1.89,15.51,15.51,0,0,1-3.73,1A38,38,0,0,1,117.44,313.46Z" transform="translate(-17.06 -69.59)"/><path class="cls-3" d="M104.32,280.36c1.74-.1,3.3-.2,4.87-.28.36,0,.73,0,1.1,0a2,2,0,0,1,1.63.72,6.31,6.31,0,0,1,.66.88,8.86,8.86,0,0,1,.53,1.07,16.76,16.76,0,0,1,1,3.24c0,.06,0,.12,0,.18a2.57,2.57,0,0,1-.46,2.44c-.13.21-.27.41-.41.61q-5.05,7.36-10.13,14.72a20.57,20.57,0,0,1-1.41,1.82c-.16.18-.32.37-.47.56s-.12.3.14.39a2.22,2.22,0,0,0,.81.13l2.49-.11,2.11-.12,1.84-.11a3.23,3.23,0,0,0,.81-.16.65.65,0,0,1,.84.5,7.59,7.59,0,0,1,.15,2.47,8.17,8.17,0,0,1-.28,1.54,5,5,0,0,1-1.63,2.29,2.29,2.29,0,0,1-1.19.47,17.56,17.56,0,0,1-2.29.21c-.46,0-.92.05-1.38.08l-.55,0-5,.25-1.56.1a7.79,7.79,0,0,1-1.93-.09,1.57,1.57,0,0,1-1.19-.77A21.69,21.69,0,0,1,92.26,311a6.83,6.83,0,0,1-.55-2.23,2.36,2.36,0,0,1,.35-1.49l.4-.62,10.65-15.92c.12-.18.25-.35.36-.54a7.44,7.44,0,0,1,1.75-2c.14-.11.27-.24.41-.37a.11.11,0,0,0,0-.08c0-.06,0-.08-.12-.07l-3.11.34-2.38.29-.18,0-3.49.21a2.3,2.3,0,0,1-.37,0c-.54-.11-.73-.33-.8-.76a2.79,2.79,0,0,1,0-.64,7.68,7.68,0,0,1,.24-1.73c.31-1.1.67-2.17,1.08-3.23.09-.23.19-.45.29-.68a1.1,1.1,0,0,1,.92-.67c.4-.05.8-.1,1.19-.13s.86,0,1.29-.06l1.84-.1Z" transform="translate(-17.06 -69.59)"/><path class="cls-3" d="M242.48,298l1.75-.08c.62,0,1.23-.05,1.84-.11a3.37,3.37,0,0,1,1.1.1.57.57,0,0,1,.44.52,4.71,4.71,0,0,1,0,.65,10.09,10.09,0,0,1-.21,1.73,25.5,25.5,0,0,1-.76,3.13,9,9,0,0,1-.33.86,2.45,2.45,0,0,1-2.18,1.59q-.87.11-1.74.15l-5.06.25c-.34,0-.68,0-1,.07a7.73,7.73,0,0,1-1.92-.07,2.39,2.39,0,0,1-1.4-.64,7.83,7.83,0,0,1-.88-.94c-.69-.91-1.34-1.83-2-2.76a5.35,5.35,0,0,1-.29-.47,4,4,0,0,1-.55-2.29,19.4,19.4,0,0,1,.27-2c.36-2.11.85-4.21,1.32-6.3q.87-4,1.77-8c.45-2,.93-3.95,1.39-5.92.16-.66.31-1.31.46-2a11.24,11.24,0,0,1,.45-1.5,1.1,1.1,0,0,1,.72-.66,5.29,5.29,0,0,1,.54-.13,9.09,9.09,0,0,1,2-.06,13.82,13.82,0,0,1,3.25.61,3.77,3.77,0,0,1,1,.46,1.12,1.12,0,0,1,.55,1,6.88,6.88,0,0,1-.15,1.28c-.24,1-.48,2-.7,2.95-.73,3.21-1.44,6.41-2.16,9.61-.33,1.47-.66,2.94-1,4.41s-.54,2.71-.81,4.06c0,.15,0,.3-.05.46a.29.29,0,0,0,.17.19h.09l4-.14Z" transform="translate(-17.06 -69.59)"/><path class="cls-3" d="M259.2,272a15.66,15.66,0,0,1,2.56.27,6,6,0,0,1,1.38.5,1.77,1.77,0,0,1,1,1.83,6.55,6.55,0,0,1-.2,1.09c-.55,2-.94,4.07-1.39,6.1q-1,4.45-1.95,8.91-.82,3.74-1.56,7.48c-.35,1.81-.72,3.61-1.08,5.42a4.11,4.11,0,0,1-.35,1,1.12,1.12,0,0,1-.73.65,2.63,2.63,0,0,1-.53.15,10.84,10.84,0,0,1-5.54-.46,3.33,3.33,0,0,1-1.13-.6,1.92,1.92,0,0,1-.76-1.6,8.43,8.43,0,0,1,.06-1c.19-1.4.45-2.79.74-4.17.31-1.54.65-3.06,1-4.6.2-.93.37-1.86.55-2.8.4-2,.92-4,1.42-6,.76-3,1.55-6.06,2.33-9.1.12-.44.24-.89.37-1.33a3.16,3.16,0,0,1,.43-.91,1.44,1.44,0,0,1,.71-.56,3.75,3.75,0,0,1,.8-.2A11.35,11.35,0,0,1,259.2,272Z" transform="translate(-17.06 -69.59)"/><path class="cls-3" d="M150.37,273c.07-.45.13-.9.21-1.36.3-1.72.67-3.42,1.13-5.1.09-.33.22-.64.34-1a2.22,2.22,0,0,1,.2-.41.94.94,0,0,1,.72-.5,6,6,0,0,1,.73-.08,12.38,12.38,0,0,1,2,.1,1.28,1.28,0,0,1,.6.22.42.42,0,0,1,.18.3,1.6,1.6,0,0,1-.11.81c-.18.42-.34.85-.55,1.26-.69,1.34-1.39,2.66-2.09,4a10.67,10.67,0,0,1-1.14,1.77,8.14,8.14,0,0,1-.54.63.76.76,0,0,1-.57.25H151a.6.6,0,0,1-.54-.54c0-.12,0-.24,0-.36Z" transform="translate(-17.06 -69.59)"/><path class="cls-3" d="M160.84,264.63l1.1.09.19,0c.57.16.74.32.65.9a3.38,3.38,0,0,1-.18.62c-.2.48-.41.95-.65,1.42-.57,1.11-1.16,2.22-1.74,3.33a13.19,13.19,0,0,1-1.27,2c-.09.13-.2.24-.28.37a1.32,1.32,0,0,1-1.44.55.64.64,0,0,1-.53-.56,6.77,6.77,0,0,1,.06-1c.2-1.3.47-2.59.77-3.87a20.67,20.67,0,0,1,.61-2.31,8.25,8.25,0,0,1,.38-.93,1,1,0,0,1,.78-.57A7.36,7.36,0,0,1,160.84,264.63Z" transform="translate(-17.06 -69.59)"/><path class="cls-2" d="M188.5,283.35a6.06,6.06,0,0,1,2.24.35,5,5,0,0,1,.66.31,1.81,1.81,0,0,1,.88,1.43,3.3,3.3,0,0,1-1.27,3.09,7.08,7.08,0,0,1-2.32,1.26,6.22,6.22,0,0,1-.71.19c-.19,0-.3-.07-.26-.25.19-.83.4-1.67.59-2.5a6.87,6.87,0,0,0,.14-1,1,1,0,0,0-.49-.93,3.73,3.73,0,0,0-1.28-.47c-.87-.19-1.76-.26-2.64-.38-.09,0-.11-.05-.09-.1a.22.22,0,0,1,.06-.07,12.13,12.13,0,0,1,2.65-.74A8.52,8.52,0,0,1,188.5,283.35Z" transform="translate(-17.06 -69.59)"/><path class="cls-2" d="M185.75,302.36l-.55-.05a.19.19,0,0,1-.1-.12c.06-.39.13-.79.21-1.17.55-2.58,1.09-5.15,1.64-7.72a.74.74,0,0,1,.14-.22s.08,0,.08,0a.56.56,0,0,1,.07.16c.15.72.28,1.45.44,2.16a3.47,3.47,0,0,0,.36,1,1.12,1.12,0,0,0,.67.59c.14,0,.29.11.43.16a1.38,1.38,0,0,1,.89,1,2.63,2.63,0,0,1-.82,2.91,5.26,5.26,0,0,1-2,1.07A4.39,4.39,0,0,1,185.75,302.36Z" transform="translate(-17.06 -69.59)"/><path class="cls-2" d="M48.76,290.62a6.65,6.65,0,0,1,2.41-.35,9.6,9.6,0,0,1,2.38.26,7,7,0,0,1,2.57,1.18,5.41,5.41,0,0,1,2.1,3.25,6.8,6.8,0,0,1,.17,1.27,16.83,16.83,0,0,1-.18,3.4,9.37,9.37,0,0,1-2.5,5,13.67,13.67,0,0,1-2.15,1.87,7.75,7.75,0,0,1-2.13,1.07,3.1,3.1,0,0,1-.53.1c-.08,0-.2-.09-.19-.16.19-.93.37-1.86.56-2.8q.6-3,1.22-6c.27-1.35.54-2.71.82-4.06a7.15,7.15,0,0,0,.14-1.46,1.36,1.36,0,0,0-.49-1.05,3.6,3.6,0,0,0-1.09-.67,10.27,10.27,0,0,0-2-.56l-.9-.18A.82.82,0,0,1,48.76,290.62Z" transform="translate(-17.06 -69.59)"/><path class="cls-2" d="M151.05,284.06a1,1,0,0,1,.24.5c.13.54.27,1.07.35,1.62a23.6,23.6,0,0,1,.19,5.51,31.43,31.43,0,0,1-1.42,6.83,12.59,12.59,0,0,1-1.52,3.13,8.21,8.21,0,0,1-.7.86,2.28,2.28,0,0,1-1.1.62,1.7,1.7,0,0,1-1.87-.65,4.15,4.15,0,0,1-.38-.64,7,7,0,0,1-.66-2.65,13.28,13.28,0,0,1,.22-3.21,20.7,20.7,0,0,1,1.92-5.73,12.07,12.07,0,0,1,1-1.74,6.22,6.22,0,0,1,1.41-1.44c.4-.29.78-.6,1.18-.89a2,2,0,0,0,.87-1.35A2.16,2.16,0,0,1,151.05,284.06Z" transform="translate(-17.06 -69.59)"/></svg>