<svg id="Layer_1" data-name="Layer 1" xmlns="http://www.w3.org/2000/svg" viewBox="0 0 2000 2000"><title>dzsajrosz</title><path d="M1922.67,1232.66c2.36,8.43,4.4,17,7.16,25.26,7.27,21.86,14.23,43.95,12.94,67.21-3.83,69.11-35.91,120.2-99.41,149.5-33.37,15.41-55.27,40.86-70.67,73.2-7.34,15.44-10.36,31.5-11.25,48.6-3.44,66.25-33.58,116.38-93.19,146.85-22.09,11.29-46.54,15.26-71.38,17-55.51,3.93-95.79,31.39-120.17,81.21-23.88,48.79-60,81.32-113.79,94.77-36.06,9-70,4.18-103.59-8.27-13-4.8-26.08-6.34-39.5-6.48-30.08-.31-58.24,7-83.7,23.28-5.84,3.73-11.1,8.5-16.15,13.29-35.71,33.83-78.53,49.48-127.14,46.33-38.35-2.49-73.18-16.27-101.44-43.37-30.12-28.88-66.32-40.25-107.24-39a121,121,0,0,0-40.08,7.8c-40.94,15.59-82.31,15.33-123-.85-39.37-15.67-68.93-43.12-86.54-81.52-19.8-43.19-52.38-70.28-97.1-83.65-8.18-2.44-17.06-3.06-25.67-3.53-40.27-2.2-77-13.59-107.91-40.55s-49.23-61.16-55.14-101.81c-1.4-9.68-2.32-19.44-3-29.2-2.13-31.62-16.51-57.63-36.51-81.18-12.78-15-29-25.1-46.59-33.65-48.28-23.52-79.58-60.37-92.71-113.48-9.31-37.66-2.21-72.59,9.75-107.73,2.22-6.51,3.35-13.4,5.13-20.71-6.26-.64-11.49-1-16.67-1.74-29.15-4.15-37.79-22-38.81-47.13-.61-14.81-.12-29.67-.12-44.51,0-105-.18-210,.3-315a71.8,71.8,0,0,1,6.8-29.75c7.48-15.66,23.12-18.87,38.88-20.4,2.71-.26,5.44-.29,9.75-.5-2.39-9.24-4.12-17.65-6.76-25.76-8-24.59-15.42-49.33-12.71-75.59,6.83-66.07,39.54-114,100.37-142.13,28.66-13.26,49.88-34.62,64.35-62.62,10.55-20.4,15.29-41.92,17-65.1,4.59-63.48,35.51-111,92.58-140.18a149.92,149.92,0,0,1,64.72-16.22c44.79-1.06,80.1-20.69,108.77-53.38,8.12-9.26,14-20.77,19.55-32,18.94-38.48,47.19-67.37,87-83.59,41.36-16.87,83.54-17.14,125.32-1a109.23,109.23,0,0,0,37.54,7.8C823.33,84.1,859.8,74,890.25,45,925.15,11.79,967.84-2.81,1015.47.44c39,2.66,74,17,102.63,44.69C1148,74,1184.15,84.72,1224.77,83.3a119.93,119.93,0,0,0,38.36-7.94c49.16-18.44,97.34-15.4,143.36,10,30.51,16.84,53.81,41.56,67.68,73.52,16,37,43.61,60.74,79.44,76.72,13.81,6.15,28.11,8.67,43.14,9.33,38.41,1.7,73.85,12.16,103.83,37.46,26.34,22.23,45.39,49,54,83a281.11,281.11,0,0,1,8,57.23A61.16,61.16,0,0,0,1765.7,439c9.62,29,25.08,54.41,49.08,73.77a120.61,120.61,0,0,0,25.55,15.86c56.35,25.51,89.82,68.24,100.48,129.37,5.4,31-1.39,60-10.94,88.93-2.68,8.13-4.85,16.44-7.34,25,9.72,1.71,18,2.69,26,4.67,13.89,3.43,23.1,12.31,26.4,26.28a101.76,101.76,0,0,1,2.94,23.15q.27,178.11-.17,356.2a69.46,69.46,0,0,1-6.79,28.85c-7.37,15.38-22.75,18.49-38.18,20.12-2.49.27-5,.29-7.52.47-.21,0-.4.36-.6.54ZM311.36,806.47c82.2-292.63,350.35-516.21,676.35-522.89,147.47-3,283.8,34.85,407.26,115.62,150.31,98.35,249.76,235.07,301.21,407.06h124c-78.36-351.45-418.23-667.63-864.71-642.54C535,187.35,250.76,505.82,187.72,806.47Zm1384.78,391.66c-46.33,156-133.21,284.18-263.85,381.29-131,97.33-278.77,144.26-441.91,141.56-141.75-2.35-271.9-43.2-389.06-123C457,1499.79,361.23,1365.66,311.25,1198.29h-124c82.68,366.76,437.59,675.6,882.16,641.32,214.17-16.52,395.84-104.88,544.34-259.73,103.47-107.9,171.44-235.79,207.32-381.75Zm-1569.44-.38a10.56,10.56,0,0,0-.51,2.71c2.7,27.6-2.76,53.88-11.83,79.84-22,63,5.38,127.34,66.08,155.82,25.21,11.83,47.2,27.66,64.91,49.37,27.32,33.49,41.21,71.64,43.27,114.9,2.81,59.3,44.51,105.75,102.88,116.08,10.14,1.79,20.69,1.19,30.91,2.65,68.56,9.77,118.92,45,148.39,108.17a125,125,0,0,0,156.69,64.79c13.52-5,27.84-9.1,42.09-10.49,56.45-5.51,107.26,8.52,149.19,48.14,47.16,44.56,122.82,45.17,170,.17,19.67-18.79,42-32.24,68-40.09,41.93-12.68,83.33-14.5,125,2,12.46,4.94,26.62,7.28,40.09,7.69,51,1.57,96-28.15,116.72-75.54,25.85-59.28,92.5-103.89,157.08-105.59a142.52,142.52,0,0,0,29.9-3.82c55.81-13.66,91.42-61.32,94.83-120.85,4.11-72,39.85-125.34,104.89-156.12,62.79-29.73,91.83-97,66.9-161.93a149.1,149.1,0,0,1-8.85-33.1c-2-14.59-1.82-29.46-2.61-44.59H1836c-46,186.48-141.36,341.65-289,463.42-147.88,122-318.53,186.86-510.07,194.48-170.68,6.79-330.22-33.49-475.85-123C358.36,1608.26,229.94,1428.4,171,1197.75Zm45-391.28c30.84-128.85,88-244.86,172.38-347.17s187.11-181.11,308-235.86,247.94-79.69,380.43-75c171.63,6,328.24,58.34,467.67,158.76,173.16,124.72,284,292.15,335.85,499.05h45.25c0-3.94.11-7.25,0-10.56-.87-23.21,2.43-45.64,11-67.42,25-63.75-4.4-131.43-66.3-160.63-65.43-30.86-100.44-84.24-105.82-156.5-1.19-16-2.69-31.9-9.22-46.68-22.41-50.71-61.9-74.87-117-78.48-71.56-4.69-124.52-40.43-155-105.24-29.32-62.28-97.06-91.58-161.24-66.55-4.94,1.93-9.91,4-15.06,5.18C1198,133.57,1139.48,121.8,1090.29,76c-48.46-45.08-122.82-46.69-170.55-1.37a175.59,175.59,0,0,1-88.91,45.94c-33.82,6.68-67.18,6.83-99.93-6.1-64.76-25.57-133.49,2.78-161.43,66.6a155,155,0,0,1-38,52.71c-35,32-75.24,50.92-123.65,53.11C339.91,290,292,339.43,288.19,407.38c-.51,9.19-.93,18.52-2.9,27.46-13.65,61.79-47.91,107.68-106,134.36-59.43,27.3-87.22,95.54-64.61,157.43,5.5,15.08,8.47,31.27,10.94,47.2,1.64,10.52.31,21.51.31,32.64Zm1300.45,9c-55.27-129.55-145.2-223.91-274.49-277.74s-259.92-53.61-389,.42S589.87,686.77,535.08,815.83H71.66v373.44H535.31c55.07,129.24,145,223.65,274.25,277.53s259.92,53.73,389-.26,219-148.54,273.66-277.45h463.36V815.46Zm74.61,382.73c-73.13,204.19-263.56,361.27-498.07,379.27-106.22,8.16-207.62-10.78-302.74-59C609.06,1449,514.69,1341,460.32,1198.38H441.63c3.71,10.29,7.13,19.74,11,30.33l-31.73-8-16.8,28.21c-5.84-15.87-10.85-29.47-15.63-42.44,1.54-3.2,2.67-5.52,4-8.24H368.13c63.94,231,304.06,477.28,650.12,469.72,344.06-7.53,564.51-260,620.78-469.64h-17.28c-4.18,11.75-8.18,23-12.09,34l-32.5,8.44-16.36-28.18c1.54-4.82,3-9.27,4.61-14.39Zm39.08-414.14L1603,754.93l15.79,42.62-4.79,8.82h25.56c-72.79-254.85-336.22-494.22-687.26-467.88-171.69,12.88-317,84.24-435.31,209.35-70,74.08-119.59,160.4-150,258.49h18.66c4.21-11.83,8.23-23.14,12.32-34.65l31.34-8.23,16.84,29.08c-1.63,5-3,9.17-4.55,13.89,3.12.18,5.32.39,7.53.43,3.6.07,7.21,0,11.11,0C502.8,692.46,573,599.52,672.67,529.64c99.93-70.08,211.4-104.76,333.46-104.37,107.52.35,207.48,28.51,299,85,114.54,70.76,194.5,170.2,241.8,296.19h18.82c-3.65-10.16-7.06-19.67-10.9-30.35Zm-57.53,22.42c-62.18-182.22-264.83-378.66-554.51-364-137.3,6.93-256.26,59.19-356.36,153.4-62.7,59-108.73,129.29-139.43,210.6h37.47c40.39-97.85,103.38-177.36,190.35-237.26s183.62-90.63,289.25-92.42c94.46-1.6,183.25,20.37,265.51,66.87,107.42,60.72,184,149.06,231.47,262.83Zm-1049,391.7c59,175.86,253.45,367,529.2,364.82,269.67-2.1,461.07-190.11,519.65-364.82h-36.3C1465,1264,1426.91,1322.12,1377,1372.43a523.47,523.47,0,0,1-377.94,155.46c-95.69-1-184.78-25.7-266.58-75.3-100.24-60.77-172.05-146.17-217-254.42Zm-150.68,0c70.49,264.48,336.81,519.84,700.63,507.17,346.07-12,586.27-265,649.32-506.94h-18.67C1589.53,1446,1359,1664.84,1048.94,1685.06c-136.55,8.9-265.18-19.82-383.86-88.28-157.86-91.08-262.67-225.24-317.78-398.64ZM1678.9,806.52c-74.85-277.83-358.4-535.29-733.27-505.21-177.87,14.28-328.77,88.16-452.27,216.82-78.81,82.1-133.46,178.48-165.68,288.35h19.9c43.28-139.73,121.56-255.32,237-344.88s246.73-137.16,392.71-143c123-4.9,239.45,21,347.75,79.62,167,90.41,277.55,228,335.24,408.27Z"/><path d="M740,245.58h31.43c3.45-10.44,6.82-20.68,10.82-32.84l10.55,32.38h31.57l.72,1.69-25.69,18.7c3.31,10.05,6.58,20,9.85,30L808,296.7,782.36,278l-26,18.66-1.2-1c3.27-10,6.54-19.92,9.94-30.25L739.6,247.19Z"/><path d="M1242.6,265.36c3.32,10.25,6.54,20.23,9.76,30.2l-1.3,1.13-25.67-18.84-25.7,18.88-1.41-.74c3.29-10.06,6.57-20.12,10-30.59L1181,245.94h33.47l10.28-31.18,1.42.14c3.22,10,6.43,20,9.75,30.35h31.23l1,1.8Z"/><path d="M1398,364.38c2.15-6.8,4.31-13.6,6.59-20.8l-18.86-13.75h23.32c2.51-7.53,4.77-14.29,7-21.05h1.46l7,20.47h20.92c.24.52.49,1,.74,1.56l-17,13c2.16,6.8,4.23,13.35,6.31,19.9L1434,364.9l-17.13-12.4-17.78,12.75Z"/><path d="M608.26,365.08,590.8,352.5,573.45,365,572,364.3l6.6-20.54-18.72-14H583c2.53-7.51,4.84-14.31,7.79-23.05l7.78,22.68h21.06l.68,1.33-17.21,13c2.2,6.84,4.38,13.62,6.57,20.4Z"/><path d="M1578.39,1519.92l31.15,3.17c.19.56.38,1.11.58,1.67l-27.43,15.8c2.27,10.61,4.48,20.91,6.68,31.21l-1.07.91-24.06-21.48-27.13,15.8-1.45-.82,12.87-29.23L1525.08,1516l.48-1.61,31.68,3.19c4.4-9.9,8.57-19.3,12.74-28.7l1.64-.11C1573.82,1498.9,1576,1509,1578.39,1519.92Z"/><path d="M459,1537.19l13.15,29.06-1.21,1-27.71-16-23.43,21.37-1.46-.87c2.17-10.2,4.35-20.41,6.63-31.11L397.61,1525c.15-.57.31-1.14.46-1.71l31.19-3.22,6.56-30.91,1.46-.51,13.18,29.13,31.45-3.25,1,1.21Z"/><path d="M1700.78,1358.86l23.37,2.78-20.29,12.17,4.44,20.94-1.23,1-16.32-14.51L1672.17,1392l-1.2-.9,8.48-19.92L1664,1357c.07-.5.13-1,.2-1.5l21.55,1.79,8.71-19.3,1.69.1Z"/><path d="M328.08,1371.35c3,6.82,5.61,12.87,8.24,18.93l-1.21,1.37-18.32-10.27-16.36,14.67-1.15-.83c1.48-7,3-14,4.5-21.35l-18.29-10.71c0-.54,0-1.08,0-1.62l21.38-2.5c1.48-6.87,3-13.89,4.52-20.91l1.31-.53,9.23,19.79,21.13-1.93.83,1.27Z"/><path d="M548.87,1169.8H91.32V835H548.41c50.74-128.36,137.14-222.93,263.91-277.33,127-54.48,255.72-54.5,382.69,0,126.78,54.36,213.23,148.91,263.92,277.26h457.49v334.43H1458.79c-36.1,94.62-94.67,171.81-177.49,229.82-83.18,58.27-176,87.4-277.42,87.44-101.14,0-193.73-28.85-276.78-86.77S585.25,1264.92,548.87,1169.8Zm9.38-11c80.15,188.7,217.5,297.44,422.61,312.51,88.29,6.48,172-14.27,249.47-57.45,103.75-57.83,175.31-143.51,217.06-255.4H1903V845.55H1448.86c-78.95-186.75-214.8-295.49-418-312.18C943,526.15,859.29,545.79,781.6,588,675.31,645.72,602.14,732.43,559.74,846.12H104.54v312.65Z"/><path d="M1511.62,1405.09,1478,1403.2c-2.45-11.09-4.78-21.63-7.1-32.09l23.81-32.1,10.51,30.54,33.66-1.77Z"/><path d="M1207.86,1617.73c-9.41-6.83-18-13.06-27.33-19.87,3.85-10.24,7.66-20.36,11.57-30.74l37.57-13.88c-2.74,10.86-5.17,20.45-7.87,31.15l29,17.11Z"/><path d="M1055.49,1621.35l17.76-27.81,39.66-5.93-14.21,28.84,24.94,23-45.58,6.68Z"/><path d="M548.92,1427.09c-1.55,10.54-3,20.33-4.73,32.2l-31.13-33.46c2.42-10.26,4.82-20.49,7.45-31.68h34.94l26.15,28.24Z"/><path d="M1516.7,1352.74c-3.57-10.68-6.91-20.71-10.43-31.25,6.55-11.07,13.18-22.26,20.38-34.41,4.71,10.21,8.91,19.3,13.41,29l33.4-4.72-23.16,39.31Z"/><path d="M1143.88,1635.4l-25.22-22.59c5-9.94,9.69-19.39,14.7-29.44l38.66-9.95c-3.91,10.81-7.33,20.29-11,30.34l25.43,18.63-.3,1.91Z"/><path d="M538.77,1377.45H508.05c-2.69,10.57-5.19,20.41-8.24,32.37l-27.59-36.42L483,1342.7l33.65,2.2,23,30.54Z"/><path d="M1001.17,1649.06H956.31c-5.95-9.72-11.46-18.71-17.25-28.15l22.23-23.64h41.31c-7.4,10-13.62,18.35-20.15,27.13Z"/><path d="M867.7,1636.18l-42.1-10.51c-3.72-10.26-7.23-20-11.16-30.82l27.62-19.45,39.21,9.59-25.1,21.91c4.52,9.54,8.79,18.53,13.05,27.53C868.71,1635,868.2,1635.59,867.7,1636.18Z"/><path d="M773.84,1551.68l-27.67,16.5c2.67,10.4,5.25,20.51,8.35,32.62l-41.82-19.26c-1.78-11.25-3.46-21.93-5.23-33.06L737.3,1535Z"/><path d="M637.13,1536.88l-35-25.92v-34.15l32.53-7.27,32.21,23.76-29.7,10.34Z"/><path d="M504.81,1327.62l-32.8-2.07c-3.54,9.65-7,19.16-11.28,30.7-8.54-14.12-16.12-26.63-23.76-39.25,4.71-10,9.21-19.5,13.93-29.51l33.2,5.79Z"/><path d="M1328.58,1501.23c-.68,11.61-1.27,21.55-1.9,32.28l31.46,11.47-39.28,23.81-30.25-14.27c1.91-11,3.75-21.62,5.64-32.55Z"/><path d="M694.4,1571.89,655,1548.81c-.6-11.06-1.19-22.1-1.8-33.53l31.14-10.37,34.36,20.26-29.05,13.64C691.16,1549.26,692.65,1559.63,694.4,1571.89Z"/><path d="M1583,1293.16l-33.27,5.09-13.48-29.76,16.83-36.43c5.71,9.67,10.74,18.16,16.24,27.46l32.89-8.15Z"/><path d="M1395,1450.82l28.4-26.17c1.68,11.36,3.18,21.45,4.74,31.94l33,4.83-33.57,31.28-32.55-7.87Z"/><path d="M1343.67,1522.42c.82-11.5,1.57-22.07,2.35-33.08l31.72-23.89c.6,11.48,1.12,21.63,1.67,32.33l32.3,8-36.53,27.66Z"/><path d="M890.26,1640.56,876.17,1611l25.51-22.12,39.69,5.52-22.52,24.48,16.89,27.94Z"/><path d="M1275.85,1531.81c-2,11.7-3.61,21.53-5.36,31.94l30.06,14.65-30.93,15-28.92-16.76c2.74-10.57,5.43-21,8.24-31.86Z"/><path d="M1057.39,1648l-34.83,2.21-19.79-25.88L1023.6,1597l28.65-1.28c-6,9.63-11.3,18.22-16.94,27.32Z"/><path d="M803.55,1618.76l-29.95-10.49L765,1575.92l28.48-16.57,28.7,10.07-27.06,19.13,10,28.87Z"/><path d="M461.27,1248.05l12.8,26.57-32.59-5.12-14,29.2c-5.48-11.19-10.27-21-15.24-31.09l16.37-28.16Z"/><path d="M1498.56,1420.64l-23.29,26.08-32.77-4.5c-1.54-11.11-3-21.8-4.55-32.82l19.64-22.1c2.6,11.2,4.87,21,7.39,31.78Z"/><path d="M596.87,1436.86l21.52,19.38L587,1463.58c-.67,10.74-1.31,20.92-2.08,33.17L559,1473.68c1.36-10.41,2.69-20.61,4.19-32Z"/><path d="M1165.87,429.23,1127,419.6l24-21.36-14.35-30.51,44.7,11,11.38,31.71Z"/><path d="M1426.13,582.55l31.89-4.61c1.54-10.55,3-20.64,4.81-33,11.17,12,21.1,22.63,31.28,33.53-2.62,10.83-5.14,21.33-7.84,32.51h-33.85Z"/><path d="M1490.93,660.06l-24-32,32.16-1.44c2.56-10,5.14-20.18,8.23-32.31l27.61,36.47c-3.65,10.38-7.25,20.59-11.08,31.5Z"/><path d="M1371.6,468.66l35.14,26c-.55,10.82-1.08,21.35-1.65,32.49l-32.92,7.39L1340,510.75l31.2-10.67c-.45-10.05-.91-20.2-1.37-30.35C1370.39,469.37,1371,469,1371.6,468.66Z"/><path d="M1570.21,687.16l-14.3,30.27-32.36-5.65-20.72-34.27,32.06,1.8c3.73-10.14,7.35-19.95,11.56-31.41C1554.85,661.77,1562.35,674.16,1570.21,687.16Z"/><path d="M1294.93,423.05c1.76,11.49,3.32,21.66,5,32.4l-30.42,13.78-36.62-16.72,28.3-16.7-8.07-31.76Z"/><path d="M777.16,451.29l8.08-31.91L757,402.77l43.28-16,26.37,19.19L814.7,437.42Z"/><path d="M951.82,382.36l-18.24,28.53-39.63,6,14.6-29.75-24.32-22.05,45.71-6.78Z"/><path d="M1352.51,455.92c.67,11.39,1.27,21.68,1.91,32.57l-32,10.79L1288,478.85l29.73-13.63c-1.4-10.24-2.77-20.32-4.42-32.4C1327.41,441.12,1339.84,448.45,1352.51,455.92Z"/><path d="M470.65,736.49l-16.76,36.34L437,744.65l-31.48,8,19-41.54,32.2-5.34Z"/><path d="M1131.19,394.17l-24.82,21.46-39.7-5.58,21.78-23.58c-5.57-9.38-10.91-18.37-17.12-28.8l45.2,6.19Z"/><path d="M490,651.5c3.73,11.2,7.16,21.49,10.66,32-6.55,11-13,22-20.39,34.44L466.5,688l-32.17,4.72c8.16-14,15.48-26.45,23.12-39.51Z"/><path d="M680.45,470.54l-30.7-11.14L689,435.56l29.45,13.87c-1.88,11.09-3.74,22-5.62,33.08-11.15,6.72-22,13.29-34.39,20.73C679.15,491.46,679.78,481.28,680.45,470.54Z"/><path d="M1005.7,406.57c6.92-9.18,12.92-17.11,19.26-25.51l-19.07-25.52h44.72c6.07,9.87,11.73,19.08,17.69,28.79l-22.63,24Z"/><path d="M495.4,600.18h33c2.58,11.45,5,22.24,7.53,33.41L512.2,665.87c-3.8-10.93-7.19-20.66-10.64-30.56h-32Q483.57,616.26,495.4,600.18Z"/><path d="M578.92,547.61l-32.16-4.9c11.93-11.07,22.49-20.88,33.47-31.09l31.47,7.49c.51,11.27,1,22.1,1.51,33.45L583.6,580C581.93,568.48,580.48,558.4,578.92,547.61Z"/><path d="M888.56,391c-5.12,10.23-10,20-15.07,30.15l-38.65,9.95,11.23-31-24.42-17.92c0-.65.06-1.31.1-2l42.44-11.06Z"/><path d="M632.63,470.77l30.72,10.89c-.77,11.34-1.53,22.38-2.28,33.49L628.7,539.48V506.66l-32.54-8.26Z"/><path d="M1448.09,530.71c-1.49,11.06-2.9,21.51-4.42,32.76L1411,568.05,1388.45,548l32.2-7.68c.62-10.18,1.23-20.31,1.95-32.34Z"/><path d="M766.49,427.21l-8.7,32.59-26.48,12.83c1.85-11.47,3.49-21.66,5.23-32.47-9.46-4.59-18.67-9-29.3-14.18l31.11-15.08Z"/><path d="M1533.43,730.31l31.71,5.12,14.72-29.9,15,30.84c-5.62,9.67-11.06,19-16.77,28.85l-31.85-8.34Z"/><path d="M569,595.37l-19.74,22c-2.68-11.41-5-21.53-7.55-32.15l-32.05-2.07,22.71-25.61,32.13,4.34C566,573.36,567.51,584.36,569,595.37Z"/><path d="M1004.66,381l-20,26.16-30.07,1.72L972,380.53c-6.84-7.59-13.51-15-21.61-23.94l33.93-2.16Z"/><path d="M1212.2,416.61c-3.64-10.3-7-19.95-11.18-31.66l33,11.36,8.44,31.64-29.09,16.93-27.43-9.62Z"/><path d="M1442.75,854.73h451.68v294.74H1441c-37.51,105.65-102.77,188.19-197.65,246.56-71.5,44-149.68,66.26-233.53,67.22-99.89,1.14-191.17-26.94-272.74-84.82-81.25-57.66-137.61-134.33-170.82-228.76H113.07V855.17H565.93c42-117.08,116.75-205.48,226.63-263,73.85-38.64,153.12-56.81,236.06-50.14C1231.4,558.38,1365.86,667.05,1442.75,854.73ZM573.69,1139.27c49.65,162.6,204.63,305.61,413.21,313.69,87.17,3.38,169-16.83,244.2-61.24,99.08-58.51,166-143.33,203-252.88h449.13V865.19H1433.64C1403.08,773.3,1350,698.26,1273,640.8s-164.14-87.17-260.19-89.16C925,549.82,843.11,571.73,768.3,618c-94.64,58.55-158.78,141.51-194.57,247.53H124.8v273.74Z"/><path d="M1195.06,1102.8c-8.69,5.25-15.8,16.19-30.84,14.88l-15.47-20.85c-5-2.07-9.72-2.91-12.94-5.53-5.61-4.56-10.2-10.34-15.46-15.36-2.57-2.46-5.68-4.37-8.63-6.59l-10.65,6.68-6.14-4.86c-1,9.48-2,18.38-3.1,28.66l4.56,10-1.85,2-20.42-2-14.62,2.75c0-4-.54-7.54.09-10.86,3.06-16.34,1.92-32.82,2.28-49.25.08-3.46,1.61-6.86,2.06-10.35.37-2.92.88-6.15,0-8.86-5.32-17.31-2.16-34.94-2-52.39.06-4.62,3.71-9.19,5-12.19-1.3-9.45-2.4-17.34-3.5-25.24l1.77-1.41c33.6,20.86,68.36,39.91,99.64,65.21l-2.11,5.67,10.28-1.39,13.39,6.94c-4,3.28-6.63,5.89-9.68,7.9-13.26,8.75-26.63,17.31-41.25,26.77l16.62,18.11-4.12,2.4c-.71,3.43,3.55,4.59,9,2.63.78-.28,1.58-.49,3.88-1.2,5,4.26,10.59,9.14,16.32,13.81S1188.91,1098,1195.06,1102.8ZM1143.49,1021c-18.7-12.65-35.34-25.93-53.08-37.54l-1.14,1.59,3.61,7.09-5.51,2.48,1.88,1.91c1.68,3,3.35,5.93,5.51,9.75h-12.1l9.85,10.48v37.16l7.72-8.48L1112,1047c.62-3.25,1.06-5.62,1.22-6.47Z"/><path d="M1252.88,1068.86l7.49-1.6-1.52-3.74-10.88-3.21-25.6-18.32c-.38-3.36-.71-6.35-1.1-9.88l-6.68,2.23-5.07-4.51c11-11.91,20-25.46,36.76-31.36-.45-1.39-.92-2.81-1.55-4.74l31.11-32.67.35.29,17.59-16.72,13.55-1,41.28,46.77-5.67,2,1,6.36,12.57-.74c1.13,2.08,2.3,4.2,3.46,6.33l1.16-1.1c4,3.94,7.92,8,12,11.81,5.1,4.86,10.31,9.6,16.31,15.17-1.53,2.27-3.78,5.63-6.21,9.26L1376,1036c-1.06,16.71-13.55,24.74-23.44,34.8-13.22,13.45-26,27.33-38.92,41-1.72,1.83-3.25,3.85-5.73,6.81l-10.37-5.58-4,2Zm48.19,13.85c14.4-11.71,22.62-30.16,44.36-30l-.89-1.71-8.43-4.72,16-12.94L1298,973.59c-8,7.47-10.29,19.57-21.77,21.34l-1.45,5.7-6.9-1.72,1.12,7.85-22.72,21.3c8.4,4.35,15,9.89,17.14,19.54.49,2.22,3.72,3.9,5.8,5.71,2.68,2.34,5.75,4.3,8.18,6.87,6.29,6.65,12.21,13.65,18.54,20.26C1297.26,1081.82,1299.69,1082.13,1301.07,1082.71Z"/><path d="M492.29,1032.07c-10,1.21-16.16,7.07-21.09,14.91a10.24,10.24,0,0,1-7,4.14c-10.92.76-17.22,8.31-24.08,15.2-1,1-1.85,2.42-3,2.75-13.81,3.8-22.27,15.59-34,22.48-4,2.34-8.84,3.17-12.89,5.43-6.1,3.42-11.72,7.69-17.77,11.22-5,3-10.4,5.35-15.63,8l-2.14-1.75c1.06-32.89,2.13-65.79,3.24-100l5.94-4.65-6.09-12.11c-.64-12.19-5.86-25,.24-36.36l-8-15.57,1.74-1.94c5.15,1.48,10.59,2.34,15.38,4.57,8.68,4,17,8.91,27,14.25,2.08,7.08,12.51,13.82,22,14.25,13.25,9.12,24.23,16.61,35.12,24.21,13.59,9.47,27.1,19,40.65,28.55Zm-45.94-1.59-.15-3.25-55.85-35.37c0,14-.38,26.38.1,38.69.5,12.7-3.85,25.58.4,39.18Z"/><path d="M862.28,1276.85c26.72-24.14,53.28-46.34,84.18-63.21.09-.22.54-.8.42-1.22-.49-1.84-1.14-3.64-1.94-6.07H925.13c1.63-4,2.8-7,4.24-10.57l26.9-1.32,8.17,8.86c14.87,0,29.08.32,43.25-.18,4.58-.16,9-2.85,13.64-3.72,7.47-1.41,15-2.27,22.65-3.38l-2.24-4.89c.89-.24,1.79-.8,2.24-.56,8.74,4.78,18.59,8.37,25.78,14.88,6.34,5.75,12.61,9.62,20.72,11.25,3,.59,5.8,1.68,9.93,2.91l-7.16,5.85,9.67,6.18c11.63-8.53,19.45-23.31,36.44-23.58,2.89,6.94.7,11.52-2.28,16.14-6,9.25-11.74,18.63-17.11,27.2l10.92,20.2c15.78,29.19,18,59.58,7.73,91-2.78,8.5-6.26,16.76-9.15,25.23-6.54,19.14-20.3,31-38.34,38.7-18.31,7.78-37.65,10.7-57.32,11.4-26.77,1-52.91-3-78.72-10.3-46.93-13.19-74.17-44.79-86.14-90.82a206.82,206.82,0,0,1-5.17-29.7C862.69,1297.12,862.74,1287,862.28,1276.85Zm158.34,7.85c.64-.08,1.28-.17.34,0l-.54.16c0-.51-.09-1-.15-1.52A6.37,6.37,0,0,0,1020.62,1284.7Zm-78.87-7.06-13.49,5.62c5.85,1,12,2.64,13.49-5.66.6.3,1.2.6.12.05C943.12,1277.81,942.44,1277.73,941.75,1277.64Zm95.8-24.82c-6.46,1.83-13.22,3.17-16.18,10.88,5.35-3.68,10.7-7.35,16.12-11l4.27.63v-1.08Zm-47.62-7.9c-.5,2.65-1,5.3-1.57,8.22l17.2,10.18c-1.14-10-9.57-13.11-15.84-18.2-9.06-8.15-19.12-5.42-29.17-2.68l20.89,6.06Zm-18.52,122.67c.3.34.6.68.35.39l-.54-.19c-10.46-6.72-17.74-18.11-30.9-20.88C948.78,1356.65,957.62,1365.81,971.41,1367.59Zm-52.36-120.82c8.48-6.56,14.47-17,28-16.59.25-4.42.46-8.32.7-12.6-12.16,3.59-24.74,16.91-28.53,29.37l-3,.74,2.23,1.75Zm21.89,38.71c9.73-1.46,15.39-8,20.14-15.85a51.24,51.24,0,0,1,6.31-8.7c3.26-3.42,7-6.35,10.92-9.82-24.6-12.42-52.31-3.25-65.28,21.15,1.35,7.12,2.82,14.9,4.39,23.23L934,1287.9c-4-2.07-10.54,1.25-10.37-7.21,10.12.16,18.54-7,29.62-8.52l-12.11,13.49-.35.08C940.37,1286.33,940.66,1285.91,940.94,1285.48Zm-75.17-8.21c-2.16,22.09,1.43,48.62,9,70.56,13.15,37.93,37.55,64.75,76.91,75.51a351.3,351.3,0,0,0,56.66,11.06c26.89,2.75,53.74.66,79.34-9.42,13.26-5.22,25.85-12.16,32.77-25,12.31-22.81,20.91-47.07,22-73.32,1-23.87-8.21-44.82-19.7-65a50.84,50.84,0,0,0-3.75-5c-5.18,10.1-9.12,20.12-15,28.83-20.42,30.29-46.51,55.56-76.37,76-36.08,24.68-78.92,12.59-98.58-26.61-6.81-13.58-10.66-28.76-14.75-43.52-2.82-10.14-3.73-20.8-5.65-32.21C891.1,1258.41,878.31,1267.46,865.77,1277.27Zm160,49.65-21.76,12c1.26,2.48,2.46,4.87,3,5.91-1.26,8-2.29,14.45-3.27,20.65L991,1368.82l1,2.7c22.65-1.31,39.91-13.31,55.16-28.19C1048.35,1330.52,1040.48,1328.42,1025.75,1326.92Zm66.09-81.75c2.26-4.57,4.35-8.78,7.11-14.34-5.78-1.94-10.18-4.77-14.41-4.55-9.46.52-17.69-2.23-25.27-7.09-11.57-7.41-21.6-5-31.61,4,1.79,5.92-9.45,9.67-3.62,17C1046.91,1233.76,1068.65,1236.14,1091.84,1245.17Zm-52.07-46.47c-18.94,1.93-46.6,12.35-54.95,20.52l26.31,15.23,12.71-6.22c2.2-12.62,13.27-13.26,22.14-17.14v-6.86Zm-7.55,126.62,1.31-1.66-24.17-9.35c-4.88-6.4-9.6-12.57-13.48-17.65l-24-5.36c4.54,5.39,7.18,9.37,10.63,12.45,10.17,9.08,10.73,11.31,4.1,23.14,1.28,7.5,1.28,7.5,13.3,11.62l25.12-14.23Zm-89.44-36.66,15,11.29c6.32-12.22,17-11.88,28.92-7.91.17-.66.33-1.32.5-2l-7-11.79c3.2-2.14,6.44-4.31,9.84-6.57l-2.29-4.79c7-6.14.27-10.39-2.46-15.27l-7.7,2.95c-3.72,4.45-9.43,7.4-11.87,12.06A46.85,46.85,0,0,1,942.78,1288.66Zm131.74,23.87c-7.17-10.28-25.64-14-35.86-6.57-7.73,5.64-15.31,7.51-25.79,6.13L1042,1326h25ZM955.18,1219l52.75,35.79,9.87-10.88c-2.69-2.26-4.81-4.51-7.36-6.07-9.72-6-20.45-10.66-29.14-17.85S965.13,1215.73,955.18,1219Zm101.59,79.68c1.68-3.75,4.41-8.66,6.12-13.91,3.83-11.72-2.77-19.36-15.11-18.39-2.35,4.88-3.38,11.52-7.14,14-10.41,6.79-6.15,17.81-11.71,26.09Zm-11.5-34.43c12.31-2.88,19.16,6.33,27.82,11.38.49-3.11.88-5.56,1.26-8l6-4.55c-23.76-14.94-55-8.69-66.59,13.23l5.61,2.83,22.71-5.42C1042.81,1271.47,1044,1268.12,1045.27,1264.21Zm-77.86,29.09c-6.53,4.21-9.88,9.51-7.41,16,2.18,5.72,6,11,9.84,15.84,4.25,5.38,9.35,10.09,14.09,15.07a17.86,17.86,0,0,0,2,1.41l6.71-1.29c-10.45-8.52-10.18-11.62-3.63-23.32C985.2,1306.44,976.43,1299.91,967.41,1293.3Zm134.6-45.91,14.72,2.73c2.06-2.93,4.76-6.6,7.29-10.39,3.64-5.46,7.12-11,10.76-16.5,2.6-3.9,5.54-7.66,1.61-13.77C1119.59,1217.7,1105.15,1227.32,1102,1247.39Zm-1.38,39.64c-6-19-11.83-23.39-24-18.19-3.19,9.68,2.88,17.86,4.77,26.73l10.13,3.49C1094.54,1295.1,1097.52,1291.15,1100.63,1287Zm-139.75-60.48-10.68-9.08,18-5.06-12.9-16c-8.72,2.27-18.45-1.76-25.88,4.81.08.74.17,1.48.25,2.23l18.27.88c.76,6.56,2.49,12.64,1.85,18.46s-3.66,11.26-6.31,18.82Zm7.59,122.65,6-19.47-27.25-7.65C945.33,1335.37,952.56,1344.79,968.47,1349.2Zm129.33-76.11c3.76-16,1.33-21.79-11.7-27.28a89.76,89.76,0,0,0-52.56-5.48c-4.77.92-9.48,3.39-13.62,6.08-7.65,5-12.25,11.94-11.33,23.21,5.3-15,14.49-24.45,28.72-27.16a70.28,70.28,0,0,1,47.15,7.27c6.78,3.62,11.28,9,11.09,17.37C1095.52,1268.68,1096.71,1270.29,1097.8,1273.09Zm-6.64-6.88c-.82-13.11-14-20.64-35.57-22.55-20.35-1.8-35.52,5.55-40.2,18.48,4.81-3,10.06-7.73,16.2-9.88,13.7-4.78,28-4.59,42.1-1.42,5.49,1.23,10.36,3.74,12.33,10C1086.68,1263,1089.39,1264.45,1091.16,1266.21ZM969.4,1350.67l18.83,15.55,12.28-3.19c-3.45-14.7-17.16-13.24-26.45-18.9Zm48.18-61.42c-3.7,4.14-6.2,6.93-9.46,10.6l-5.48,1c2.47,3.31,4.43,5.92,6.23,8.34l17.15,1.32c1.77-6.91,3.3-12.9,4.83-18.89l-1.65-1-10.3,7C1018.53,1295.28,1018.24,1293.46,1017.58,1289.25Zm-69.47,57.18c-1.3-9.48-2.14-18.75-4-27.79-.68-3.22-3.94-5.9-6.48-9.46C928.38,1326.25,935.44,1344,948.11,1346.43Zm-23.83-114.85-1-1.37L886,1258.74l.8,1,23.37-3.65Zm177.78,21.18v28.55l2.21.42,12.9-28.15-11.17-3.77Zm-52.91-40.41h24.13a52.65,52.65,0,0,0-25.47-18C1048.25,1200.28,1048.64,1205.45,1049.15,1212.35Zm27.29,101c3.09-8.83,3.65-17.38-.45-25.92-8.77.69-13.93,4.78-16.57,12.08l14.62,6.1Zm-90.26,55.91c-15.6-15.82-18.2-17.55-34.19-23.19C961,1359.09,972,1366.35,986.18,1369.23Zm-25.28-45.55.71-1.33c-6.17-7.08-12.34-14.16-18.77-21.56h-10l16.31,18.9Zm131.61-101.49c.18-1.11.35-2.22.52-3.33l-31.64-4c-.09.7-.19,1.4-.28,2.1C1070.64,1224.68,1081.36,1224.8,1092.51,1222.19Zm-172.62,80.49c1.48,8,3.71,13,11.36,13.15,3.41-8.6,3.41-8.6-2.19-15.94Zm63.91-97.77-3.79,10.5,1.18,1.16,20.4-10.15-.49-1.51ZM920,1259q11.71-11.93,23.41-23.86l-1.36-1.31C936.44,1235.57,924.74,1247.8,920,1259ZM942,1292l-1.45,1.14,15.28,19.36C958,1300.38,949.65,1296.47,942,1292Zm62.22-11.57c-.94-4.93-1.89-9.91-2.83-14.89l-1.32.23c-.18,3.84-.36,7.67-.53,11.13-2.09,3-3.92,5.67-6.13,8.85l5.91,2.37Zm58.85,48h-17.55l5.46,11.37Zm-116.44-86.18c.29.51.57,1,.85,1.54l17.85-6.59-4.63-7.22Zm-6.71,55c-1.09-2.47-2-4.58-3.37-7.64l-17.43,8.18.66.93Zm50.19-8.32-.06,1.86,11.53,6.27c5,.49,5,.49,7.84-4.87Zm13.67,58.15H992c-.11.44-.23.88-.34,1.33l10.73,7C1002.88,1352.47,1003.23,1350.41,1003.81,1347.05Zm59.9-94.29,18,7.16C1077.54,1252.69,1070.78,1252.09,1063.71,1252.76Zm11.45,31.34-7.84-9.58c-.81,5.11-1.35,8.55-2,12.81Zm18.88-37.71,4.74,2.54,4-14-2-.76ZM923.43,1317l5.9,13.72,1.21-.33v-11.09Zm59.22,28.51.92-1c-2.05-3.19-4.09-6.39-7.06-11l-2.16,7.8ZM1005,1284l-.82,2,6.2,4.81,8.58-3.21Zm84.87,17.07-7.94-2.34v10.8Zm-94-27.93-12.37,5.08c.29.72.59,1.43.88,2.15C987.82,1276.6,994.74,1281.48,995.92,1273.15Zm-22.72-35c.43-.93.86-1.86,1.28-2.79l-9-5.84-1.5,2.4Zm3.6-31.47c-.26-.58-.51-1.15-.76-1.73L967,1207l4.48,4.68Zm16.86,53c-.6,2.89-1.14,5.5-1.84,8.83C998.46,1264.12,998.46,1264.12,993.66,1259.68Zm25.54-26.45-5.81,3.38,6.66,5.22C1019.72,1238.52,1019.52,1236.44,1019.2,1233.23Zm17.5,45.25-.33-1.47-8.06,1.87c.1.44.21.89.31,1.33ZM994,1342.74l.12.92h5.86l-.21-1.86Zm-7-61.35,3.37,2.85c.52-1,1-1.92,2-3.7ZM979.33,1210l-1-1.12-2.46,3.28,1.1.87Zm42,80.33,1.2,1.32,2.84-2.39-1.38-1.52Zm-83.52-45.91.9,1.55,2.81-2-.72-1.16Zm92.15,38.45c.12.67.23,1.33.35,2l3-1.22-.31-1.13Z"/><path d="M549.18,1052.76c.19,3.38.35,6.12.52,9l-4.66,9.65-5.24,1.12,2.12,3.17-6.18,3.52,3.92,4.26h42.42l3,3.51c6.12-7.42,14.6-3.35,22.59-5.47v31.6l-11.93-8.53-4.43,5.67-4.06-3c-3.36,1.12-5.92,2.64-8.51,2.7-9.49.22-19-.13-28.49-.12-10.88,0-21.76.18-32.64.23-8.59,0-17.18,0-26.28,0,.55-2.88,1-5.24,1.42-7.4l7.87-3.23,1-1.65-6.19-2.38,1.13-2.2,14.13-2.83-.09-1.08-7.38-.62c2.47-8.33,4.84-16.32,7-23.48l12.17-8.51-7-4.39,27-44.35c11.39-7,10.12-22,19.55-32.24H494.28l3.22-7.47c-1.21-6.84-2.35-13.29-3.72-21.06,3.41.73,5.14,1.29,6.9,1.45,4.5.4,9,.83,13.53.85,3.83,0,7.68-.88,11.49-.72,6,.25,12,1.59,18,1.53,21.52-.25,43-.9,64.56-1.34.72,0,1.46.54,3.75,1.46l-8.86,8.16,3.84,3.26c-2.25,10-9,16.48-16.72,22.55.17,2.17.35,4.34.53,6.7l-9.23,11.5-1.66-1.08v6.7c-14.77,11.69-14.37,32-26.64,45.44Z"/><path d="M1535.58,1110.22c.5-2.88.93-5.27,1.32-7.52l8.94-3.34-5.7-6.06,14.45-2.68v-1l-7.14-1c2.48-8.22,4.88-16.21,7-23.4l11.88-8-6.51-5.1,26.92-44.27c12-6.19,9.29-22.18,19.72-32h-67.94c1.28-2.84,2.35-5.24,3.25-7.24-1.12-7-2.19-13.68-3.37-21.13,2.88.4,4.56.13,5.5.84,5.16,3.89,10.3,2.88,15.9,1,3-1,6.57-.65,9.87-.54,7.38.24,14.76,1,22.14,1,20.88.15,41.76.05,64.78.05l-9.18,9,4,2.59c-2.5,10-8.52,16.66-16.37,22.54v7.39l-9.47,11.4-1.45-.94v6.5c-14.73,11.66-14.35,32-26.49,45.4l-4.74-1c.44,3.35.8,6,1.19,9q-2.25,4.47-4.9,9.7l-4.75,1.2c4.56,6.07-3.65,4.07-4.28,6.93l3.27,4.08c15.13,0,29.08,0,43,.14.91,0,1.8,1.93,2.7,3,4.89-4.2,7.67-4.76,22.45-4.35v30.45l-11.21-7.53-4.47,5.25-4.28-3.11c-3.33,1-6.45,2.56-9.61,2.65-9.2.26-18.42-.13-27.63-.17q-25.47-.09-50.93,0C1541,1109.85,1538.56,1110.07,1535.58,1110.22Z"/><path d="M902.86,1093l10,12.32-.94,2-14.37.77c.12.36.25.71.38,1.06l-22.82,5.33c-2.39-7.27-4.82-13.76-6.64-20.43-2.22-8.1-4-10.2-12.65-10.38-14.78-.29-29.57-.08-42.61-.08-11,8.94-8.53,21.41-15.41,31.24l-32.11-7.73c12.77-33.5,31.14-62.66,47.75-92.73,2.58-5.24,6.34-10.24,7.5-15.77a87.87,87.87,0,0,1,15.13-34.14c1.3-6.82,2.39-12.53,3.49-18.25l2,.27c11.52,31,23,62,34.36,92.49,3.23,6,6.16,11.32,8.91,16.69,6.35,12.38,12.6,24.8,18.9,37.2Zm-46.78-31.49c-2.78-8-5.24-15.52-8.09-22.94s-6.1-14.71-9.59-23l-20,46,28.93,1.84-.35.82Z"/><path d="M930.33,794.09c-22.74,1.43-44.16,13.35-67.73,9.72-.47-4.21-1.37-6.37-.78-8,6.32-17,1.94-35,5.23-52.27,3.71-19.47,6.2-39.29,11.46-58.34,14.3-51.82,57.2-69.53,93.93-71.68,23-1.35,45.2,2.74,66.6,11,22.71,8.76,45.1,18.39,68,26.56,8.7,3.1,18.45,4.1,27.78,4.46,9.51.36,14.06,4.85,9.8,13.59-3.73,7.66-9.4,14.42-14.58,21.29-2.33,3.09-5.55,5.5-8.71,8.55,5.17,12.91-1.56,20.41-11.91,26.57-9.29,5.53-10.77,9.63-6.73,19.46,3.16,7.67,0,13.09-5,18-9.35,9-20.87,14-33.36,16.7-9.29,2-18.89,2.64-28.09,4.93-5.17,1.29-10.85,3.69-14.49,7.38-9.34,9.47-19.58,11-31.46,6.56-3.4-1.29-6.74-2.75-10.22-3.8-10.25-3.12-19.87-3.79-26.8,6.8-2.92,4.48-7.32,3.86-11.14,1.45C937.89,800.34,934.11,797,930.33,794.09Zm30.19-38.67,11.14,2,14.75-9.55-9.53-5.05c-3.9,2.39-7.19,4-10,6.26-2.34,1.82-4.15,4.31-6.28,6.43l-16.71,6.71c3.37,7.35,6.5,5.44,9.9,2.38C952,758.61,956.22,757,960.52,755.42ZM887.9,786.93l-.75-1.55c2.58-1.39,5.2-2.69,7.72-4.17,25.73-15.22,52.4-29.11,76.89-46.12,22.26-15.46,45-29.42,70.43-38.44a310.34,310.34,0,0,1,50-13.43c12.36-2.17,24-5.09,34.74-11.37a49.5,49.5,0,0,1,5.25-2.33c.4.5.8,1,1.19,1.49-2.61,3.85-5.24,7.7-7.84,11.57q-3.63,5.43-7.22,10.89l1.65,1c15.8-10.89,24.92-26.8,19.68-35.72-17.17,3.67-32.46-3.55-48-9.86q-26.82-10.89-53.87-21.19c-20.89-8-42.51-12.06-64.93-10.76-35.45,2.07-77.16,18.72-91.31,69.78-4.9,17.7-7.59,36-10.83,54.19-3.38,18.89.3,38.49-5.42,57.19-.12.4.4,1,1.29,3,17.35,2.16,31.51-8.51,47.45-12.56-.16-.54-.31-1.09-.46-1.63Zm167.4-73.88L1043.55,728l-21.68,3.27-10.34-7.71c-3.87,4.32-7.2,8-10.38,11.56l-7.66-3.9L986.37,736c3,5.87,5.44,10.82,8.06,16l-22.31,16.15-5.69-1.9L945.2,781l-8.68-12.89-11,5.8c2.26,3.57,4,6.45,5.86,9.17a72.83,72.83,0,0,0,5.7,7.26c8.23,9,12.6,8.79,19.59-1,.81-1.14,1.62-2.28,2.49-3.38,11.1-13.93,21.34-14.35,33.33-1.35,10.43,11.32,19.94,10.09,26.48-4,3-6.57,7.7-10.51,14.43-11.28,8.56-1,17.26-.68,25.86-1.39,8.84-.73,17.94-.93,26.38-3.31,9.8-2.77,12.66-9.87,10.09-19.78-1.12-4.32-2.85-8.53-3.52-12.91-2-12.78,3.67-18.33,16.66-16.91,1.61.18,3.27,0,5.72,0l3.56-6.7-11.63-17.43-23,3.74C1074.7,703.05,1067.14,712.43,1055.3,713.05Zm-38.67,1.73,6.18,5.74,16.49.8c1.79-2.3,3.78-4.87,5.89-7.57l-4.63-7.88ZM1054.55,701l.78,2.38,7.77-2.85c-.2-.65-.4-1.31-.61-2Z"/><path d="M647.12,1100.63l39.65-24.21,3.45,5.89,1.46-.6c.36-2.56.71-5.11,1-6.81l17.15-12.81-10.87-4.84.62-.91L682,1043.14c.14-.48.27-1,.41-1.44l11.81,1c-14.22-6-29-10.88-40.18-23.2l.93-4.42c-13.29-1.24-19.85-12.28-29.57-19.54l28.68-19.23-.68-1.54,9.38.64,4.51-6.17,38.5-23.16,1.86-6.06,7.41-1.18c6.61,5.89,13,11.63,20.56,18.32-9.75,13-26.32,14.68-36.5,25.6-13.25-5.31-16.56,8.26-26.29,12.06,11.72,8.31,17.33,23,33.19,23.41,2,7.25,4.47,13.63,12.87,14.83,1,.14,1.93,1.09,2.78,1.8,8.54,7.08,17.06,14.19,25.82,21.49-.94,1.82-1.76,3.44-2.21,4.3l7.9,4.87c-.16.83-.31,1.66-.47,2.49-8.32,5-16.76,9.81-24.94,15-12.17,7.79-24,16.14-36.28,23.73-7.74,4.78-16.07,8.61-24.17,12.88C659.85,1112.61,653.39,1106.52,647.12,1100.63Z"/><path d="M1449.44,1041.7l12.11,1.1c-14.37-5.91-29.15-10.93-40.45-23.29.2-.89.56-2.39.69-3-5.5-3.18-10.92-5.81-15.75-9.27s-8.82-7.64-13.49-11.78L1421,976.4l-.69-1.6,9.53.67,4.48-6.22,38.49-23.09c.31-1.06,1-3.4,1.81-6.08l7.43-1.24c6.64,5.95,13.06,11.69,20.35,18.2-9.21,13.48-26.34,14.4-36.15,25.76-13.33-5.32-16.65,8.32-26.36,12,11.74,8.61,17.7,23.25,33.65,23.66,1.26,7.25,3.76,12.74,11.28,14.27a8.81,8.81,0,0,1,3.64,2c8.57,7.07,17.09,14.21,25.87,21.54-.81,1.79-1.57,3.47-2.47,5.44l6.37.82c.31,1.66.64,3.45,1,5.56-.78.58-1.4,1.15-2.11,1.57-6,3.58-12.11,7-18,10.74-13.55,8.73-26.83,17.88-40.52,26.37-7.73,4.8-16.06,8.63-24.25,13-7.45-7-13.92-13.06-20.31-19l38.83-23.74,5.31,5c.61-2.89,1.11-5.23,1.5-7.12l17.12-12.71-10.59-4.64.51-.74-17.46-13.43Z"/><path d="M1360.08,1158.55c-2.23,1.4-4.31,3.24-6.73,4.06-2,.68-4.43.18-6.67.18q-343.08,0-686.15,0c-3.56,0-7.12-.34-11.54-.56-.22-2.84-.4-5.07-.64-8.13,3.85-.43,6.8-1,9.75-1q345.58-.06,691.18,0c3.44,0,6.87,1.43,10.31,2.2C1359.75,1156.38,1359.91,1157.47,1360.08,1158.55Z"/><path d="M1358.86,842.79c1.18,5-.84,7.07-4.94,7.39-2.5.19-5,.09-7.55.09q-342.64,0-685.3,0c-3.81,0-7.63-.43-11.94-.69v-9q353.28,0,705,.1C1355.85,840.67,1357.53,842.16,1358.86,842.79Z"/><path d="M949.15,1065.31l-10.45-6.81.11-.33-17.06-10.41,13.78-8.78,7.71-9.41,21.36,14.75c.11,1.44.25,3.3.25,3.26L991,1062.25c.76-8.17,1.48-15.92,1.92-20.73-1.43-8.34-3.25-14-3.18-19.65.12-10,1.62-20,2.06-30,.2-4.56-.73-9.17-1.17-13.75-.24-2.48-1.51-5.41-.62-7.37,3.53-7.75,3.4-14.92-3.26-22.13h38.43c0,1.8.18,4.23,0,6.63-1.8,21-3.82,41.94-5.42,62.93a76.44,76.44,0,0,0,1.42,21.59l-8.53,8.94,8.83,10.32v31.74l.61-.15c.8,7.83,1.59,15.66,2.43,24-10.7.93-15.14-7.3-22.29-10.45v-7.46l-7.49,1.31-45.89-30.71Z"/><path d="M1293.52,828.89c-5.33,3-571.38,3.51-579.16.51a3.14,3.14,0,0,1,0-.75c.06-.27.19-.76.29-.76q285.74-.52,571.46-1a46.11,46.11,0,0,1,6.61.66C1293.05,827.62,1293.26,828.43,1293.52,828.89Z"/><path d="M267.54,1053.51l-30.27-23.33-30.35,23.49-1.4-.89,11.8-37.74-32.25-24.5H225c4.09-13.21,8-25.66,11.8-38.11l1.48.06c3.72,12.39,7.43,24.79,11.31,37.74h37.57c.24.55.49,1.11.73,1.67l-30.69,23c4,12.73,7.92,25.15,11.84,37.58Zm-20.87-59.12c-2.89-9-5.47-17.09-8.06-25.15l-1.19.34V1024l21.89,17,1.35-1.31-8.45-27L273.88,996c-.28-.54-.56-1.07-.83-1.61Z"/><path d="M1782.32,990.07h37.59l.69,1.67-30.47,22.91q5.86,19,11.74,38l-1.26.84L1770.09,1030,1740,1053.26l-1.51-.73c3.85-12.54,7.69-25.09,11.61-37.87l-30.41-22.89.46-1.48h37.56l11.51-38.06,1.43,0C1774.46,964.68,1778.3,977.07,1782.32,990.07Zm-48.57,4.26-.6,1.41,21.92,16.58c-2.76,9.32-5.41,18.24-8,27.16l1.49,1,21.33-16.55V970.25l-1.32-.29c-2.59,8-5.19,16-7.92,24.37Z"/><path d="M1293.17,1175.55h-579a8.89,8.89,0,0,1-.09-1.62c0-.24.2-.59.38-.63a15.29,15.29,0,0,1,3.94-1q286.46.08,572.9.28c.67,0,1.34.71,2,1.09C1293.26,1174.33,1293.21,1174.94,1293.17,1175.55Z"/><path d="M719,690.62l27.7-27.57,28,27.85-27.91,27.47Zm12.09-.76,15.56,16.84,17-16-16.56-17Z"/><path d="M687.72,1191.46l27.81,27.8-27.15,27.16-27.76-27.82Zm-15.39,25.78,13.88,17.09,16.7-15.09-15.84-16.54Z"/><path d="M719.24,1313.13c8.94-9,18.15-18.31,26.71-26.93l27.64,28L747,1340.83Zm26.4,16.18L763.05,1315l-14.21-16.19c-6.44,5.35-12.34,10.26-18.41,15.29Z"/><path d="M859.53,1374l-27.34,27.44L805.08,1374l27.84-27.43Zm-10.89,0-15.76-16.38L817.1,1372.1l15.45,18.31Z"/><path d="M805,629.89l27-26.74,27.57,28.21L833,658Zm44.33,1.26-17.24-17-14.74,15.71,14.78,17.51Z"/><path d="M715,786.07l-26.69,26.66-26.89-27.31,26.82-26.89Zm-27.67,16.3,16.25-15.66c-5.54-6.09-10.71-11.75-16-17.55l-16.26,15.91Z"/><path d="M1203.37,1373.89l-27.26,27.34-27.92-27.9,27.28-27.34Zm-44-1.32,15.05,16.93c6.26-5.66,11.94-10.79,17-15.35l-16-17.49Z"/><path d="M1148,630.8l27.6-27.66,27.25,27.12-27.71,27.63Zm11.22-.42c5.6,6.13,10.78,11.8,15.49,16.94l17-15.65L1175.33,614C1169.59,619.86,1164.33,625.17,1159.18,630.38Z"/><path d="M1320,1247.36l-28.07-28.09,27.93-27.91,28,28C1338.91,1228.35,1329.46,1237.82,1320,1247.36Zm-16.56-29.12,15.8,17.17L1337,1219l-16.44-16.27Z"/><path d="M1292.38,785.46l27.74-27.74L1347.44,785l-27.76,27.76Zm27.66,17.1,16.84-16.9-17-16.92-16.85,17C1308.75,791.4,1314.24,796.84,1320,802.56Z"/><path d="M1233.16,690.18l26.75-26.55,27.7,27.62-26.81,26.47Zm26,16.2,17-15.39-15.81-15.63-16.7,15.58Z"/><path d="M1287.69,1314.42l-26.94,26.87-26.85-26.91,27.3-27.42Zm-11.9.9-14.94-16.77-15.9,14.77q7.9,8.92,15.32,17.3Z"/><path d="M809.93,919.6,852.34,887l14.23,9.94-27.82,22.31,1.57,1.35L823,930.06Z"/><path d="M941.72,1270c-3.47,7.68-10.64,5.88-16.81,9-.32-4-.56-6.82-.8-9.82Zm-13.79,2.28-1.19.71c.55.64,1.09,1.29,1.67,1.9,0,0,.36-.28.89-.7C928.84,1273.55,928.39,1272.91,927.93,1272.27Z"/><path d="M948.79,1255.18l9.54-3.29,1.26,2.21-7.36,6.05Z"/><path d="M1110.8,671.22c-11.21,1.45-22.49,2.52-33.63,4.42-35,6-67.35,18.35-95.57,40.31A120.76,120.76,0,0,0,965,731.25c-18.42,20.89-43.2,30.15-68.59,38.43a5.75,5.75,0,0,1-2.48.13c-.41-.06-.75-.63-2-1.81,3.27-1.19,6-2,8.7-3.19,13.05-5.65,26.53-10.55,39-17.37a73.21,73.21,0,0,0,21.8-18c27-34,63-51,104.84-57.08,12.7-1.85,25.58-2.51,38.38-3.6a41.75,41.75,0,0,1,6.3.36C1110.81,669.85,1110.81,670.54,1110.8,671.22Z"/><path d="M921.55,719.49c3.13-14.79,7.62-29.56-6-42.09,6.14-.46,9.5,2,12.59,8.38C932.87,695.7,930.27,711.25,921.55,719.49Z"/><path d="M1077.31,655.47c-8,10-29.39,7.22-41.4-5.29C1049.22,655.75,1062.35,662.67,1077.31,655.47Z"/><path d="M1062.16,727.43c1.44,1.13,2.38,1.74,3.16,2.51,1,1,1.83,2.07,3,3.45-6.14,8.46-12.87,15.39-25,14.43l-5-5.6,3.68-7.41,10,.65Zm-17.79,11.16-1.68,2c1.41,1.28,2.68,3.47,4.23,3.69,6.33.9,13.14-4.41,15.72-12.39l-9.72,7.1Z"/><path d="M989.22,773.72l6.87-8.82c.32-2.31.69-5,1.16-8.48h7.67q-1,7-1.82,12.89C995.4,777.58,995.4,777.58,989.22,773.72Z"/><path d="M1098.88,705.63,1082.21,719l-8.88-5.49,18.1-13.36Zm-18.61,7.1,1.71,1.88,10.15-7.9c-.43-.56-.85-1.13-1.28-1.7Z"/><path d="M1072.05,760.76l-7.52-9.82c10.61-6.28,14.81-6.81,21.5-2.29Zm6.31-9.28c-.29-.79-.59-1.58-.89-2.37l-7.23,2.79c.35.88.71,1.75,1.06,2.63Z"/></svg>