<?xml version="1.0" encoding="UTF-8" standalone="no"?>
<svg width="100%" height="100%" viewBox="0 0 499 419" version="1.1" xmlns="http://www.w3.org/2000/svg" xmlns:xlink="http://www.w3.org/1999/xlink" xml:space="preserve" style="fill-rule:evenodd;clip-rule:evenodd;stroke-linejoin:round;stroke-miterlimit:2;">
    <g id="Edénykölcsönző" transform="matrix(1,0,0,1,-44.9575,-251.611)">
        <g transform="matrix(1,0,0,1,228.763,413.088)">
            <path d="M0,12.283C0.683,12.898 1.811,13.339 2.696,13.281C3.167,13.251 3.858,12.008 3.926,11.264C4.095,9.399 4.384,7.385 3.875,5.65C2.583,1.241 2.551,-1.056 -3.449,0.043C-4.554,6.432 -3.93,8.747 0,12.283" style="fill:white;fill-rule:nonzero;"/>
        </g>
        <g transform="matrix(1,0,0,1,207.537,422.374)">
            <path d="M0,10.991C0.457,11.137 0.904,11.245 1.343,11.319C8.192,12.484 12.654,5.128 12.757,-1.378C9.288,-1.378 5.812,-1.493 2.35,-1.407C1.512,-1.387 0.674,-1.365 -0.162,-1.315C-3.521,-1.113 -6.187,2.261 -4.88,4.137C-3.443,6.203 -1.963,8.239 0,10.991" style="fill:white;fill-rule:nonzero;"/>
        </g>
        <g transform="matrix(0.947318,0.320293,0.320293,-0.947318,190.022,434.288)">
            <path d="M2.275,-0.557C5.442,-1.25 8.365,-0.483 10.302,2.941C7.864,6.739 5.373,10.619 2.275,15.444C0.649,14.096 -1.852,12.914 -2.855,10.962C-4.061,8.618 0.049,-0.068 2.275,-0.557" style="fill:white;fill-rule:nonzero;"/>
        </g>
        <g transform="matrix(1,0,0,1,237.733,288.028)">
            <path d="M0,228.164C1.714,232.005 2.646,236.192 4.331,240.048C6.397,244.775 4.956,250.335 8.479,254.785C10.851,257.779 9.525,259.84 5.762,259.884C1.439,259.934 -2.886,259.809 -7.207,259.908C-9.677,259.965 -10.466,258.957 -10.426,256.531C-10.254,246.268 -10.329,236 -10.089,225.738C-10.035,223.398 -9.306,220.995 -8.441,218.796C-8.12,217.978 -6.521,217.663 -5.989,217.378C-3.767,221.322 -1.586,224.61 0,228.164M-10.87,216.85C-17.122,217.037 -18.562,211.875 -20.982,208.372C-24.11,203.844 -25.984,198.605 -24.813,192.855C-24.41,190.872 -23.726,188.945 -23.046,186.56C-18.313,189.955 -16.561,193.153 -18.436,197.492C-18.77,198.263 -19.271,198.989 -19.813,199.636C-21.191,201.276 -21.571,202.222 -19.341,203.951C-16.15,206.424 -13.513,209.684 -10.97,212.871C-10.307,213.702 -10.87,215.512 -10.87,216.85M-17.903,245.138C-18.163,243.781 -18.411,243.163 -18.378,242.559C-17.952,234.449 -22.485,228.299 -26.473,221.931C-26.68,221.601 -27.047,221.303 -27.1,220.954C-27.709,216.898 -28.273,212.836 -28.885,208.527C-25.1,208.86 -22.927,209.932 -22.201,214.024C-21.624,217.277 -19.682,220.423 -17.829,223.279C-15.69,226.576 -14.916,230.125 -13.942,233.834C-12.683,238.632 -14.674,241.494 -17.903,245.138M-14.643,254.493C-14.735,259.748 -18.891,262.243 -22.975,259.631C-23.972,258.993 -25.027,256.41 -24.673,256.038C-22.709,253.974 -20.568,251.597 -18.008,250.705C-14.991,249.655 -14.309,252.241 -14.643,254.493M-27.182,249.982C-27.898,250.37 -29.345,250.676 -29.666,250.315C-31.762,247.964 -34.858,245.631 -35.334,242.893C-36.276,237.466 -35.808,231.779 -35.746,226.202C-35.733,225 -34.919,222.767 -34.567,222.785C-32.954,222.869 -30.501,223.106 -29.927,224.154C-26.979,229.529 -24.517,235.17 -21.886,240.719C-22.223,240.854 -22.561,240.99 -22.898,241.126C-22.3,245.074 -23.685,248.092 -27.182,249.982M-32.513,260.485C-34.836,260.483 -37.158,259.719 -39.481,259.274C-39.684,258.942 -39.887,258.61 -40.089,258.278C-38.452,257.209 -36.833,255.321 -35.171,255.283C-33.236,255.239 -30.376,256.299 -29.509,257.8C-28.118,260.208 -31.172,260.486 -32.513,260.485M-44.412,201.292C-43.437,199.858 -42.574,198.589 -41.71,197.318C-39.668,198.772 -36.78,199.827 -35.845,201.805C-35.063,203.459 -36.367,206.272 -37.203,208.393C-37.404,208.9 -40.151,209.196 -40.471,208.729C-41.948,206.571 -42.983,204.109 -44.412,201.292M-44.605,260.741C-45.574,260.502 -47.192,260.519 -47.405,259.981C-48.663,256.805 -51.261,257.147 -53.826,257.056C-57.17,256.936 -60.244,256.968 -63.634,255.14C-67.283,253.173 -72.175,253.509 -77.051,252.76C-77.051,249.268 -76.825,245.888 -77.102,242.549C-77.553,237.109 -77.621,231.48 -79.184,226.337C-80.598,221.683 -83.664,217.49 -86.247,213.243C-88.34,209.8 -90.898,206.641 -93.027,203.217C-93.572,202.34 -93.273,200.937 -93.465,198.417C-88.432,199.515 -84.056,200.323 -79.8,201.545C-79.115,201.742 -79.015,203.806 -78.549,204.968C-77.278,208.143 -75.976,211.306 -74.633,214.45C-74.443,214.897 -73.964,215.556 -73.62,215.555C-68.506,215.542 -69.104,219.061 -68.95,222.506C-68.693,228.234 -65.71,232.596 -61.354,236.209C-59.427,237.808 -57.74,239.748 -56.17,241.714C-52.024,246.908 -47.936,252.154 -44.019,257.523C-43.576,258.13 -44.38,259.646 -44.605,260.741M-85.451,256.646C-88.759,257.791 -91.856,259.054 -95.066,259.878C-96.291,260.191 -98.618,259.899 -98.959,259.181C-99.633,257.76 -99.614,255.772 -99.257,254.158C-98.763,251.922 -97.665,249.824 -96.876,247.648C-95.217,243.072 -93.731,238.425 -91.849,233.942C-91.384,232.835 -89.677,232.249 -88.625,231.484C-84.923,240.013 -83.879,248.009 -85.451,256.646M-54.306,216.143C-54.021,214.604 -52.852,213.228 -52.091,211.778C-50.567,212.942 -48.01,213.89 -47.712,215.31C-46.795,219.688 -46.636,224.241 -46.386,228.737C-46.182,232.41 -46.265,236.099 -46.232,239.78C-46.217,241.371 -46.229,242.963 -46.229,244.555C-46.813,244.823 -47.396,245.091 -47.979,245.358C-49.194,243.349 -51.063,241.473 -51.506,239.305C-53.066,231.675 -55.778,224.114 -54.306,216.143M-58.434,200.18C-56.601,199.934 -54.769,199.618 -52.941,199.232C-52.914,199.25 -52.892,199.266 -52.864,199.282C-55.029,200.345 -56.136,201.363 -56.971,201.175C-57.506,201.055 -57.978,200.651 -58.434,200.18M-70.066,208.843C-73.155,207.076 -75.582,203.861 -76.303,200.584C-73.924,200.78 -71.525,200.886 -69.114,200.886C-67.042,200.886 -64.962,200.806 -62.878,200.646C-62.706,200.87 -62.569,201.101 -62.535,201.343C-61.684,207.293 -58.751,212.785 -59.51,219.172C-59.895,222.406 -58.205,225.888 -57.208,230.351C-60.658,233.611 -62.253,228.389 -64.246,226.731C-67.711,223.85 -66.871,218.843 -62.215,213.984C-64.918,212.198 -67.403,210.365 -70.066,208.843M-29.312,194.36C-32.617,194.682 -32.958,194.705 -33.118,191.963C-32.253,191.514 -31.387,191.064 -30.542,190.589C-29.269,190.875 -28.91,192.148 -29.312,194.36M-47.19,90.834C-47.541,90.738 -47.891,90.642 -48.242,90.546C-47.097,88.846 -46.272,86.161 -44.736,85.662C-41.953,84.756 -38.747,85.153 -35.717,85.006C-35.625,85.616 -35.534,86.226 -35.442,86.835C-39.358,88.168 -43.274,89.501 -47.19,90.834M-25.835,110.857C-26.509,112.296 -27.183,113.735 -28.33,116.184C-29.534,114.379 -30.352,113.153 -31.17,111.927C-29.618,111.263 -28.067,110.6 -26.515,109.935C-26.289,110.243 -26.062,110.55 -25.835,110.857M-27.212,102.617C-30.041,104.143 -32.787,105.493 -35.759,105.941C-38.174,101.902 -41.076,98.187 -44.391,94.885C-43.508,94.125 -42.363,93.511 -40.954,92.977C-36.457,91.271 -32.417,90.631 -27.895,93.048C-26.33,93.884 -23.793,92.903 -20.95,92.697C-22.085,96.909 -23.044,100.367 -27.212,102.617M-76.935,126.855C-76.935,126.855 -77.848,128.648 -80.487,130.982C-83.125,133.317 -85.835,134.061 -86.713,134.264C-87.591,134.467 -87.925,134.264 -87.925,134.264C-87.434,133.998 -86.89,133.679 -86.319,133.325C-82.971,131.246 -78.602,127.811 -77.07,124.877C-76.543,123.867 -76.315,123.625 -76.255,123.783C-76.11,124.162 -76.935,126.855 -76.935,126.855M-94.73,128.8C-92.213,125.105 -89.548,120.767 -87.712,117.762C-85.734,114.525 -82.942,110.011 -80.989,106.859C-79.637,104.678 -78.686,103.148 -78.686,103.148L-78.694,100.847C-75.714,104.472 -73.924,109.112 -73.924,114.171C-73.924,114.734 -73.953,115.289 -73.996,115.841C-75.158,118.578 -77.378,122.453 -80.724,127.008C-84.451,132.082 -92.005,134.364 -95.351,135.157C-96.688,135.13 -97.997,134.983 -99.262,134.717C-98.007,133.415 -96.404,131.257 -94.73,128.8M-87.219,109.349C-85.379,110.337 -88.916,114.35 -92.11,119.883C-92.692,120.891 -93.236,121.875 -93.746,122.808C-94.067,123.393 -94.373,123.954 -94.667,124.489C-96.477,127.788 -97.802,130.013 -98.788,129.386C-99.699,128.806 -98.824,127.018 -97.266,124.422C-96.314,122.836 -95.108,120.95 -93.897,118.851C-93.139,117.538 -92.453,116.27 -91.823,115.105C-89.803,111.363 -88.39,108.72 -87.219,109.349M-113.975,122.742C-113.247,121.774 -112.316,120.171 -111.345,118.345C-109.885,115.6 -108.338,112.376 -107.273,110.144C-106.125,107.739 -104.505,104.385 -103.372,102.043C-102.899,101.066 -102.514,100.271 -102.28,99.789C-102.125,99.471 -102.036,99.286 -102.036,99.286L-102.036,99.236L-99.597,93.708C-98.092,93.365 -96.53,93.174 -94.921,93.174C-94.617,93.174 -94.315,93.185 -94.015,93.197C-92.1,93.279 -90.252,93.617 -88.503,94.177C-87.907,95.607 -88.094,97.898 -88.535,99.511C-88.695,100.1 -88.88,100.681 -89.053,101.266C-90.704,105.535 -93.198,109.863 -94.321,113.355C-94.421,113.664 -94.556,114.012 -94.72,114.391C-96.187,117.781 -100.055,123.737 -103.087,128.201C-104.128,129.733 -105.07,131.089 -105.783,132.104C-105.79,132.114 -105.796,132.122 -105.803,132.133C-109.447,129.92 -112.354,126.626 -114.103,122.701C-114.06,122.713 -114.018,122.73 -113.975,122.742M-115.918,114.171C-115.918,113.208 -115.848,112.262 -115.722,111.333C-115.333,108.45 -114.361,105.752 -112.925,103.364C-111.634,101.219 -109.965,99.33 -108.019,97.773C-108.03,97.811 -108.04,97.85 -108.051,97.888C-108.248,98.539 -108.467,99.19 -108.694,99.839C-109.572,102.352 -110.59,104.808 -111.108,106.87C-111.166,107.099 -111.244,107.358 -111.339,107.639C-111.864,109.192 -112.919,111.471 -114.063,113.767C-114.615,114.874 -115.183,115.976 -115.727,117.012C-115.853,116.083 -115.918,115.135 -115.918,114.171M-104.675,187.301C-107.182,185.155 -111.249,181.643 -114.823,175.975C-119.843,168.014 -121.379,159.774 -121.826,153.648C-121.826,153.648 -125.175,129.367 -124.464,127.502C-124.025,126.35 -121.999,126.273 -120.514,126.382C-118.309,127.643 -116.43,129.391 -114.557,131.013C-113.957,131.533 -113.358,132.039 -112.754,132.535C-108.913,136.767 -103.6,139.634 -97.625,140.343C-96.675,140.455 -95.711,140.519 -94.73,140.519C-92.367,140.519 -90.085,140.177 -87.925,139.548C-85.971,138.98 -84.119,138.175 -82.401,137.163C-80.067,135.789 -77.984,134.036 -76.233,131.989C-72.596,127.736 -70.395,122.219 -70.395,116.184C-70.395,114.464 -70.576,112.787 -70.915,111.168C-71.44,107.857 -72.516,104.581 -73.998,101.374C-76.145,96.731 -77.248,91.608 -78.851,86.711C-79.828,83.726 -82.268,81.496 -84.479,81.47C-85.656,88.736 -85.656,88.786 -93.641,88.793C-100.181,88.799 -105.469,91.769 -111.019,94.881C-115.932,97.636 -118.148,102.084 -121.139,106.171C-123.839,109.862 -126.565,113.533 -129.261,117.226C-130.032,118.283 -130.885,119.318 -131.434,120.489C-131.892,121.467 -132.608,122.733 -132.732,123.706L-128.727,144.515C-128.136,147.863 -127.359,152.84 -126.799,158.925C-126.064,166.894 -126.32,170.047 -126.009,172.548C-135.021,162.558 -140.51,149.329 -140.51,134.815C-140.51,133.841 -140.485,132.872 -140.436,131.909C-140.494,131.384 -140.528,130.861 -140.493,130.341C-140.429,129.389 -140.253,128.444 -140.022,127.502C-139.534,123.74 -138.677,120.097 -137.485,116.605C-137.028,112.765 -134.593,109.57 -133.215,106.037C-130.854,99.985 -127.004,95.496 -121.417,92.555C-114.526,86.475 -106.142,82.06 -96.88,79.921C-95.694,79.381 -94.504,78.85 -93.306,78.339C-89.128,76.56 -84.823,75.084 -80.62,73.361C-75.152,71.121 -69.771,68.665 -64.267,66.522C-62.429,65.807 -60.204,66.086 -58.368,65.368C-49.536,61.914 -40.179,61.249 -31.201,62.78C-30.109,62.966 -29,63.175 -27.888,63.418C-17.414,70.096 -9.007,79.424 -3.433,90.622C-2.964,93.124 -2.564,95.647 -2.121,98.143C-1.63,100.899 -3.029,102.17 -6.052,102.255C-10.073,102.369 -14.078,103.074 -18.018,103.517C-17.441,94.145 -16.854,84.587 -16.229,74.434C-21.111,74.849 -25.244,73.134 -28.893,76.476C-29.625,77.147 -31.213,77.008 -32.41,77.026C-36.738,77.091 -41.098,76.739 -45.389,77.147C-51.959,77.77 -57.362,75.263 -62.203,71.403C-65.239,68.982 -66.193,72.102 -67.68,73.147C-68.323,73.599 -68.337,76.205 -67.661,77.055C-66.203,78.889 -64.727,80.733 -63.184,82.509C-61.542,84.398 -59.824,86.211 -57.961,87.85C-55.032,90.426 -54.045,93.216 -54.224,96.862C-54.372,99.875 -54.832,102.701 -50.783,104.407C-47.955,105.598 -45.943,108.73 -42.94,111.594C-59.369,116.162 -66.274,128.682 -71.73,143.748C-72.48,143.42 -73.908,143.12 -74.905,142.298C-78.141,139.629 -84.73,141.364 -84.614,145.306C-84.55,147.446 -82.1,149.911 -80.144,151.521C-75.79,155.104 -70.007,153.663 -65.902,149.599C-60.041,143.796 -56.012,136.8 -51.539,130.058C-49.308,126.695 -41.308,125.475 -37.32,127.112C-34.775,128.158 -31.707,128.416 -28.918,128.252C-28.679,128.238 -28.44,128.214 -28.2,128.193C-25.319,127.939 -22.417,127.198 -19.688,126.233C-17.801,125.566 -15.965,124.215 -14.601,122.721C-11.692,119.535 -9.583,115.398 -6.208,112.943C-4.166,111.458 -0.296,112.006 2.605,112.501C2.977,112.564 3.269,113.309 3.504,114.269C4.075,119.511 4.06,124.798 3.435,130.048C2.613,136.944 0.767,143.774 -2.11,150.346C-3.77,154.136 -5.76,157.737 -8.021,161.152C-10.172,164.401 -12.583,167.468 -15.232,170.335C-17.905,173.006 -20.842,175.406 -23.86,177.609C-29.829,181.967 -36.975,184.638 -44.21,187.183C-54.876,190.935 -65.632,190.996 -76.375,190.623C-78.919,190.975 -81.514,191.171 -84.155,191.171C-91.398,191.171 -98.314,189.789 -104.675,187.301M69.991,148.211C69.991,149.95 69.886,151.829 70.013,153.691C70.277,157.562 68.442,159.433 64.678,159.675C63.469,159.753 61.804,159.49 61.136,160.164C56.333,165.01 49.989,168.412 47.164,175.151C46.188,177.477 44.652,179.567 43.389,181.776C41.974,184.253 40.372,186.648 39.215,189.242C36.45,195.44 31.498,199.602 26.294,203.53C25.681,203.993 24.334,203.967 23.548,203.639C18.468,201.52 13.48,199.18 8.401,197.06C2.892,194.76 -2.769,192.808 -8.208,190.36C-13.66,187.908 -15.812,182.426 -12.728,179.088C-5.955,171.756 -0.647,163.351 3.584,154.502C4.658,152.256 5.427,149.849 6.036,147.37C9.514,137.463 10.926,127.133 10.266,116.903C12.893,117.456 14.666,117.778 16.398,118.217C16.553,118.256 16.704,118.279 16.856,118.308C19.437,119.185 23.414,118.726 27.352,116.861C30.62,115.314 33.153,113.132 34.469,110.976C34.735,110.665 34.948,110.218 35.114,109.676C35.338,109.083 35.449,108.505 35.456,107.952C36.022,103.095 34.452,94.816 31.991,93.654C31.555,93.448 31.105,93.295 30.656,93.201C30.321,93.117 29.977,93.06 29.617,93.06C27.23,93.06 25.296,94.995 25.296,97.381C25.296,98.064 25.469,98.702 25.751,99.276C25.803,99.443 25.866,99.602 25.945,99.744C26.24,100.266 26.475,100.797 26.655,101.323C26.974,102.016 27.157,102.786 27.157,103.599C27.157,106.616 24.71,109.062 21.692,109.062C20.444,109.062 13.74,106.826 11.568,105.711C11.628,105.685 11.495,105.583 10.971,105.346C10.016,104.914 9.064,104.349 8.225,103.644C7.531,100.824 6.673,98.03 5.651,95.273C5.508,94.887 5.368,94.501 5.218,94.117C4.679,92.73 4.091,91.372 3.479,90.031C-2.653,76.604 -12.412,65.468 -24.773,57.694C-25.361,57.276 -25.782,56.3 -26.36,55.87C-27.383,55.108 -28.061,53.884 -29.248,52.451C-22.079,50.665 -15.708,49.074 -9.334,47.493C-3.642,46.081 2.615,45.713 7.598,43.001C13.124,39.993 17.699,35.058 22.202,30.483C23.291,29.378 22.878,26.266 22.291,24.339C22.098,23.704 18.97,23.302 17.551,23.813C10.86,26.22 3.429,23.417 -3.148,27.303C-6.74,29.425 -11.157,30.135 -15.18,31.545C-18.827,32.823 -22.41,34.296 -26.088,35.472C-28.352,36.196 -30.731,36.872 -33.076,36.938C-34.587,36.981 -36.561,37.102 -38.158,36.922L-58.585,-0.64C-59.833,-3.166 -61.111,-5.677 -62.402,-8.18C-65.017,-13.248 -67.561,-18.376 -70.557,-23.216C-72.696,-26.672 -75.817,-29.519 -77.98,-32.964C-80.291,-36.644 -83.334,-36.915 -86.91,-35.921C-87.488,-35.76 -88.063,-35.587 -88.639,-35.418L-88.646,-35.422C-88.646,-35.422 -95.228,-33.895 -105.044,-30.999C-105.195,-30.957 -105.345,-30.912 -105.494,-30.866C-120.064,-26.549 -141.515,-19.275 -159.271,-9.534C-161.832,-8.266 -164.362,-6.944 -166.828,-5.515C-169.488,-3.972 -171.872,-1.937 -174.243,0.098C-176.19,1.603 -178.012,3.15 -179.683,4.738C-179.697,4.751 -179.71,4.765 -179.725,4.779C-181.504,6.341 -183.266,7.924 -185.062,9.467C-187.389,11.466 -185.807,12.961 -184.435,14.424C-184.435,14.424 -153.008,60.6 -145.691,75.331C-146.23,76.127 -147.09,76.775 -148.156,77.032C-150.973,77.709 -153.854,78.295 -156.525,79.373C-163.05,82.008 -169.441,84.972 -175.941,87.673C-180.68,89.643 -185.583,91.236 -190.238,93.376C-191.465,93.939 -192.994,96.122 -192.75,97.187C-191.959,100.66 -190.292,103.921 -189.194,107.338C-188.389,109.847 -186.576,110.554 -184.488,109.93C-180.44,108.719 -176.5,107.14 -172.538,105.652C-169.424,104.483 -166.341,103.231 -163.252,101.998C-160.025,100.71 -156.392,99.96 -153.688,97.959C-150.279,95.437 -146.955,95.369 -142.731,95.903C-142.767,96.248 -142.79,96.583 -142.813,96.918C-145.765,104.443 -147.679,112.335 -148.713,120.28C-150.083,130.789 -149.92,141.388 -148.59,151.338C-147.51,159.417 -142.463,167.878 -134.445,175.516C-130.201,179.56 -125.125,183.373 -119.361,186.777C-117.148,188.085 -114.788,189.351 -112.307,190.554C-109.792,193.325 -105.878,196.181 -103.896,198.849C-101.354,200.856 -100.544,202.985 -98.345,205.312C-95.595,208.223 -93.266,211.818 -92.856,216.424C-92.477,220.684 -94.856,223.465 -96.374,226.855C-99.097,232.937 -102.205,239.064 -103.507,245.505C-104.73,251.555 -105.934,257.112 -110.633,261.409C-111.143,261.876 -111.772,262.936 -111.574,263.296C-111.195,263.985 -110.324,264.617 -109.541,264.818C-108.523,265.079 -107.392,264.912 -106.31,264.903C-70.89,264.591 -35.469,264.27 -0.049,263.962C15.507,263.827 31.071,263.955 46.615,263.466C52.108,263.294 57.554,261.643 63.021,260.667C58.355,259.837 53.709,259.834 49.063,259.837C38.646,259.844 28.23,259.861 17.814,259.856C15.681,259.855 13.706,259.736 13.91,256.668C14.345,250.139 12.523,244.126 9.929,238.172C7.96,233.651 7.045,228.678 5.142,224.123C2.034,216.685 -1.498,209.423 -4.852,202.087C-4.618,201.66 -4.384,201.233 -4.151,200.807C-1.452,201.291 1.547,201.195 3.873,202.4C7.005,204.022 9.409,207.018 12.499,208.765C19.659,212.815 26.839,213.928 33.958,208.148C39.223,203.874 42.128,198.045 45.382,192.412C49.349,185.545 52.735,178.292 57.222,171.793C60.905,166.457 61.36,167.043 67.296,169.799C69.758,170.942 73.105,172.089 75.377,171.299C79.164,169.982 78.12,169.649 79.71,167.856C80.149,166.74 81.351,161.914 81.351,155.689C78.867,148.536 75.829,146.431 69.991,148.211" style="fill:white;fill-rule:nonzero;"/>
        </g>
        <g transform="matrix(173.9,48.2269,48.2269,-173.9,318.943,527.944)">
            <path d="M0.014,-0.347L0.015,-0.347C0.014,-0.351 0.014,-0.355 0.014,-0.359C0.018,-0.472 0.239,-0.555 0.507,-0.546C0.766,-0.537 0.974,-0.444 0.985,-0.337L0.986,-0.337L1,0.547L0,0.564L0.014,-0.347Z" style="fill:url(#_Linear1);fill-rule:nonzero;"/>
        </g>
        <g transform="matrix(-0.260596,0.965448,0.965448,0.260596,484.084,376.995)">
            <path d="M86.04,-126.121C97.429,-126.077 106.494,-82.997 106.288,-29.9C106.085,22.028 97.089,64.279 86.04,66.077L85.977,-126.114C85.999,-126.114 86.018,-126.121 86.04,-126.121" style="fill-rule:nonzero;"/>
        </g>
        <g transform="matrix(1,0,0,1,303.832,600.797)">
            <path d="M0,-8.031C-0.337,-5.422 -0.031,-2.731 0.872,0C1.378,-0.034 1.889,-0.067 2.422,-0.091C1.07,-2.67 0.257,-5.335 0,-8.031" style="fill:rgb(39,39,39);fill-rule:nonzero;"/>
        </g>
        <g transform="matrix(-0.271475,0.962446,0.962446,0.271475,387.5,620.951)">
            <path d="M25.622,-33.848C27.104,-23.188 27.699,-11.493 27.212,0.752C26.957,7.164 26.409,13.396 25.622,19.394C25.919,13.369 26.125,7.146 26.223,0.771C26.407,-11.431 26.183,-23.097 25.622,-33.848" style="fill:rgb(39,39,39);fill-rule:nonzero;"/>
        </g>
        <g transform="matrix(1,0,0,1,466.945,613.122)">
            <path d="M0,29.64C3.142,27.632 6.208,23.601 7.417,20.32C-3.558,37.753 -35.578,37.753 -50.851,32.685C-58.07,30.288 -47.989,33.366 -54.029,30.527C-60.635,31.486 -77.617,28.58 -85.142,27.461C-98.216,25.518 -116.159,19.19 -123.975,12.701C-124.574,12.625 -127.459,10.973 -128.062,10.884C-147.427,8.005 -154.799,-1.18 -160.691,-12.416C-161.225,-12.392 -161.735,-12.359 -162.241,-12.325C-158.15,0.047 -141.935,13.236 -118.978,23.299C-108.782,26.758 -97.615,30.141 -85.821,33.276C-79.659,34.913 -73.614,36.405 -67.734,37.753C-38.115,42.056 -12.52,38.86 0,29.64" style="fill:rgb(39,39,39);fill-rule:nonzero;"/>
        </g>
        <g transform="matrix(185.28,51.3827,51.3827,-185.28,340.031,426.741)">
            <path d="M0,-0.005C0.001,-0.054 0.225,-0.091 0.501,-0.088C0.777,-0.085 1.001,-0.043 1,0.005C0.999,0.054 0.775,0.091 0.499,0.088C0.324,0.086 0.171,0.068 0.082,0.044C0.03,0.029 -0,0.012 0,-0.005Z" style="fill:url(#_Linear2);fill-rule:nonzero;"/>
        </g>
        <g transform="matrix(1,0,0,1,502.402,496.623)">
            <path d="M0,20.779L11.241,25.208C11.241,25.208 17.373,27.592 21.12,25.208C24.867,22.823 39.174,12.263 39.174,12.263C39.174,12.263 43.262,6.472 41.218,2.384C39.174,-1.703 33.042,-6.813 25.208,-3.407C17.373,0 10.842,3.532 10.842,3.532L8.856,10.873L27.592,1.703C27.592,1.703 31.339,-0.34 33.724,2.725C36.108,5.791 37.812,8.461 34.405,10.873C30.998,13.285 20.438,21.461 14.647,19.758C8.856,18.054 3.406,17.714 3.406,17.714L0,20.779Z" style="fill:rgb(123,123,123);fill-rule:nonzero;"/>
        </g>
        <g transform="matrix(1,0,0,1,323.269,443.052)">
            <path d="M0,23.662L-14.988,3.451L-15.782,-1.091L-2.725,14.919L21.53,25.298C21.783,24.964 22.026,24.62 22.256,24.265C26.003,18.474 12.718,17.452 6.927,16.09C1.136,14.726 -1.93,12.343 -1.93,12.343C-1.93,12.343 -17.259,-9.459 -19.644,-8.437C-22.027,-7.415 -19.644,2.123 -19.644,2.123L-1.249,28.352C-1.249,28.352 2.158,31.418 11.355,33.121C11.355,33.121 11.525,31.837 12.239,27.606L6.473,27.637L0,23.662Z" style="fill:rgb(123,123,123);fill-rule:nonzero;"/>
        </g>
    </g>
    <defs>
        <linearGradient id="_Linear1" x1="0" y1="0" x2="1" y2="0" gradientUnits="userSpaceOnUse" gradientTransform="matrix(1,0,0,-1,0,0.0087473)"><stop offset="0" style="stop-color:rgb(93,94,94);stop-opacity:1"/><stop offset="0.03" style="stop-color:rgb(214,216,217);stop-opacity:1"/><stop offset="0.23" style="stop-color:rgb(176,178,179);stop-opacity:1"/><stop offset="0.26" style="stop-color:rgb(56,57,57);stop-opacity:1"/><stop offset="0.29" style="stop-color:rgb(54,55,55);stop-opacity:1"/><stop offset="0.3" style="stop-color:rgb(192,194,195);stop-opacity:1"/><stop offset="0.42" style="stop-color:rgb(225,227,228);stop-opacity:1"/><stop offset="0.52" style="stop-color:rgb(238,240,241);stop-opacity:1"/><stop offset="0.65" style="stop-color:rgb(192,194,195);stop-opacity:1"/><stop offset="0.67" style="stop-color:rgb(56,57,57);stop-opacity:1"/><stop offset="0.7" style="stop-color:rgb(56,57,57);stop-opacity:1"/><stop offset="0.73" style="stop-color:rgb(216,218,218);stop-opacity:1"/><stop offset="0.82" style="stop-color:rgb(238,240,241);stop-opacity:1"/><stop offset="0.89" style="stop-color:rgb(242,244,244);stop-opacity:1"/><stop offset="0.97" style="stop-color:rgb(214,216,217);stop-opacity:1"/><stop offset="1" style="stop-color:rgb(93,94,94);stop-opacity:1"/></linearGradient>
        <linearGradient id="_Linear2" x1="0" y1="0" x2="1" y2="0" gradientUnits="userSpaceOnUse" gradientTransform="matrix(1,0,0,-1,0,2.21798e-07)"><stop offset="0" style="stop-color:rgb(38,39,38);stop-opacity:1"/><stop offset="0.16" style="stop-color:rgb(72,73,73);stop-opacity:1"/><stop offset="0.39" style="stop-color:rgb(137,138,138);stop-opacity:1"/><stop offset="0.43" style="stop-color:rgb(64,65,64);stop-opacity:1"/><stop offset="0.58" style="stop-color:rgb(65,66,66);stop-opacity:1"/><stop offset="0.65" style="stop-color:rgb(128,129,129);stop-opacity:1"/><stop offset="0.78" style="stop-color:rgb(129,130,130);stop-opacity:1"/><stop offset="0.86" style="stop-color:rgb(65,66,65);stop-opacity:1"/><stop offset="1" style="stop-color:rgb(65,66,65);stop-opacity:1"/></linearGradient>
    </defs>
</svg>
