<svg xmlns="http://www.w3.org/2000/svg" xmlns:xlink="http://www.w3.org/1999/xlink" viewBox="0 0 1024 1024"><defs><style>.cls-1{fill:#3051bf;}.cls-2{fill:url(#linear-gradient);}.cls-3{fill:url(#linear-gradient-2);}.cls-4{fill:url(#linear-gradient-3);}.cls-5{fill:url(#linear-gradient-4);}.cls-6{fill:url(#linear-gradient-5);}.cls-7{fill:url(#linear-gradient-6);}.cls-8{fill:url(#linear-gradient-7);}.cls-9{fill:url(#linear-gradient-8);}.cls-10{fill:url(#linear-gradient-9);}.cls-11{fill:url(#linear-gradient-10);}.cls-12{fill:url(#linear-gradient-11);}.cls-13{fill:url(#linear-gradient-12);}.cls-14{fill:url(#linear-gradient-13);}.cls-15{fill:url(#linear-gradient-14);}.cls-16{fill:url(#linear-gradient-15);}.cls-17{fill:url(#linear-gradient-16);}.cls-18{fill:url(#linear-gradient-17);}.cls-19{fill:url(#linear-gradient-18);}</style><linearGradient id="linear-gradient" x1="-980.86" y1="1306.19" x2="-966.46" y2="1296.92" gradientTransform="matrix(3.78, 0, 0, -3.78, 3898.78, 5362.95)" gradientUnits="userSpaceOnUse"><stop offset="0" stop-color="#ffb623"/><stop offset="1" stop-color="#f2a200"/></linearGradient><linearGradient id="linear-gradient-2" x1="-966.19" y1="1327.26" x2="-943.82" y2="1318" xlink:href="#linear-gradient"/><linearGradient id="linear-gradient-3" x1="-926.97" y1="1336.77" x2="-905.14" y2="1329.5" xlink:href="#linear-gradient"/><linearGradient id="linear-gradient-4" x1="-957.64" y1="1298.01" x2="-940.05" y2="1291.57" xlink:href="#linear-gradient"/><linearGradient id="linear-gradient-5" x1="-911.36" y1="1313.56" x2="-900.1" y2="1307.64" xlink:href="#linear-gradient"/><linearGradient id="linear-gradient-6" x1="-898.41" y1="1303.93" x2="-880.61" y2="1295.83" xlink:href="#linear-gradient"/><linearGradient id="linear-gradient-7" x1="-855.1" y1="1317.4" x2="-843.32" y2="1309.63" xlink:href="#linear-gradient"/><linearGradient id="linear-gradient-8" x1="-881.21" y1="1320.48" x2="-863.83" y2="1315.05" xlink:href="#linear-gradient"/><linearGradient id="linear-gradient-9" x1="-923.08" y1="1288.08" x2="-897.15" y2="1277.23" xlink:href="#linear-gradient"/><linearGradient id="linear-gradient-10" x1="-859.99" y1="1274.39" x2="-837.06" y2="1264.71" xlink:href="#linear-gradient"/><linearGradient id="linear-gradient-11" x1="-878.75" y1="1286.72" x2="-863.54" y2="1273.69" xlink:href="#linear-gradient"/><linearGradient id="linear-gradient-12" x1="-874.2" y1="1252.38" x2="-857.14" y2="1247.87" xlink:href="#linear-gradient"/><linearGradient id="linear-gradient-13" x1="-967.87" y1="1284.32" x2="-949.33" y2="1278.36" xlink:href="#linear-gradient"/><linearGradient id="linear-gradient-14" x1="-924.27" y1="1262.97" x2="-910.46" y2="1255.96" xlink:href="#linear-gradient"/><linearGradient id="linear-gradient-15" x1="-933.14" y1="1306.48" x2="-916.57" y2="1296.29" xlink:href="#linear-gradient"/><linearGradient id="linear-gradient-16" x1="-939.15" y1="1322.78" x2="-930.04" y2="1315.68" xlink:href="#linear-gradient"/><linearGradient id="linear-gradient-17" x1="-951.55" y1="1271.73" x2="-943.46" y2="1264.71" xlink:href="#linear-gradient"/><linearGradient id="linear-gradient-18" x1="-895.61" y1="1272.78" x2="-888.61" y2="1267.77" xlink:href="#linear-gradient"/></defs><title>hallgatoi_tudasbazis</title><g id="Layer_2" data-name="Layer 2"><path class="cls-1" d="M511.4,1024A512,512,0,0,1,433.83,6,511.87,511.87,0,0,1,1024,512c0,51.55-12.21,104.54-34.38,149.22-23.88,48.12-57.88,83.26-95.74,98.94-29.64,12.28-88.78,23.49-151.73-39.46L687.3,665.85,739,614.13,793.87,669c37.79,37.78,63.56,27.11,72,23.6,46.85-19.41,85-100.42,85-180.59,0-208.9-148.73-389.94-353.65-430.49s-411.4,70.21-490.95,263.36-11,417.2,163.06,532.73C443,992.9,675.63,969.17,822.44,821.17l51.93,51.51A511,511,0,0,1,511.4,1024Z"/><g id="g5136"><path id="path5022" class="cls-2" d="M242.09,452.17c-4.59,19-19.87,29.95-36.34,38.67-6.09-18.23-12.53-39.28-2.81-54.95,6.52-10.51,17.22-18,34.08-36,8.6,24.08,8.26,39.1,5.07,52.29Z"/><path id="path839" class="cls-1" d="M793.26,477.84,752,514c13.57,17,18.63,41.85,13.25,61.75h0a69.08,69.08,0,0,1-22.82,35.75h0a66.77,66.77,0,0,1-38.18,14.78l7.94,72.7a136.93,136.93,0,0,0,76-37.39,134,134,0,0,0,38.38-73.47h0a131.21,131.21,0,0,0-33.33-110.29Z"/><path id="path4558" class="cls-1" d="M492.35,641.79l-33.13,43.72a232.07,232.07,0,0,0,135.17,50.23,236.66,236.66,0,0,0,159.43-54.55l-48.28-54.94c-28.55,27.61-69.26,45-110.33,46.16a173.18,173.18,0,0,1-102.86-30.62Z"/><path id="path4564" class="cls-1" d="M229.08,540.33l-18.17,2.09c2.59,34.94,22.31,68.47,53.16,88C295.33,650,335.85,654,371.49,639.69l-15-33.35c-23,12.24-54.07,12.81-78.76.33-24.54-12.2-43.85-37.79-48.63-66.34Z"/><path id="path4590" class="cls-1" d="M578.44,263.13l6.08,36.06c38.87-5.54,79.9,3.93,111.87,25.33h0c32,21.31,55.88,55.1,65.26,91.59h0a156.36,156.36,0,0,1-5.2,94.16l51.76,18.17a208.24,208.24,0,0,0,.91-126h0a205.68,205.68,0,0,0-89.85-114.28h0a202.46,202.46,0,0,0-140.83-25Z"/><path id="path4815" class="cls-1" d="M353.33,608.3l-28.21,23.27a173.1,173.1,0,0,0,95.05,63,176.94,176.94,0,0,0,89.74-.87l-16.64-52.27a126.32,126.32,0,0,1-63.51,7.18c-28.28-4-56.16-18.48-76.43-40.32Z"/><path id="path4835" class="cls-1" d="M512.35,323.92l15.32,8.19a81.51,81.51,0,0,1,13.83-15.35A77.81,77.81,0,0,1,586,298.17l-7-34A106.44,106.44,0,0,0,525,301.66a101.46,101.46,0,0,0-12.68,22.26Z"/><path id="path4846" class="cls-1" d="M698.14,457.42l-14.36,11.32a154,154,0,0,0,39.6,41.1,158.58,158.58,0,0,0,41.24,21l8.72-35.51a125.54,125.54,0,0,1-35.48-10.05A130.29,130.29,0,0,1,698.14,457.42Z"/><path id="path4871" class="cls-1" d="M576,614.44l-.09-18.28a107.17,107.17,0,0,0-63.46,15.75,111.54,111.54,0,0,0-38.32,40l33,15.7a79,79,0,0,1,21.92-32.65A83.88,83.88,0,0,1,576,614.44Z"/><path id="path4877" class="cls-1" d="M341.65,295.17l10.9,12.33c35.07-29.12,80.45-45.14,125-44.81a191.36,191.36,0,0,1,108.92,35.12l18.22-27.41a220.3,220.3,0,0,0-127.77-32.93,216.63,216.63,0,0,0-135.26,57.7Z"/><path id="path4883" class="cls-1" d="M388.94,564.89l-14.52-11.11a131.93,131.93,0,0,0-19.16,25.4,136.7,136.7,0,0,0-16.48,45.92l36.51,2.15a105,105,0,0,1,3.44-37.75A109.5,109.5,0,0,1,388.94,564.89Z"/><path id="path5026" class="cls-3" d="M271.25,363.38c.36-19.56,12.91-33.55,27.09-45.63,9.9,16.47,20.76,35.63,14.67,53-4.09,11.67-12.9,21.34-25.46,42.54C273.93,391.69,271,377,271.26,363.38Z"/><path id="path4889" class="cls-1" d="M288.61,384.11a143.24,143.24,0,0,1,2.57-28.56c2.24-11.47,5.94-22.7,12.47-31.55q.41-.57.84-1.11h0a50.35,50.35,0,0,1,22.87-16.59h0a48.47,48.47,0,0,1,27.15-1.45l1.28-7.67,1.27-7.67a62.15,62.15,0,0,0-34.34,6h0a60.18,60.18,0,0,0-24.82,22.93h0c-.28.46-.54.93-.8,1.39-6.12,11.05-8.56,23.31-9.38,35.27A145.53,145.53,0,0,0,288.61,384.11Z"/><path id="path5028" class="cls-4" d="M439,344.29c-16.11,5-31-1.45-44.71-9.79,10.8-12.57,23.54-26.66,39.44-26.39,10.66.17,21.33,3.31,44.65,3.1-14,17-28.2,29.61-39.38,33.09Z"/><path id="path4909" class="cls-1" d="M436.61,326.28a45.84,45.84,0,0,1-23.95,7.42,44.15,44.15,0,0,1-21.29-5c-.68-.36-1.34-.73-2-1.12-7.14-4.21-12.89-10.55-18.22-17.36h0a146.72,146.72,0,0,1-10.66-15.8l-5.66,3.87-5.65,3.88A157.65,157.65,0,0,0,363,317.52c6.62,6.55,14.26,12.69,23.16,16.49h0c.82.35,1.65.67,2.48,1A49.4,49.4,0,0,0,413,337.29a47.64,47.64,0,0,0,23.61-11Z"/><path id="path5056" class="cls-5" d="M302.64,482.36c11.85,11.49,27.68,12.4,43.35,11.19-3.87-15.74-8.77-33.66-22.77-40.45-9.38-4.55-20.41-5.1-40.53-10.31,4.72,21,11.73,31.6,19.95,39.57Z"/><path id="path4915" class="cls-1" d="M311.2,464.77a138.65,138.65,0,0,1,40.18,48.55c1.53,3.1,2.95,6.26,4.23,9.45a133,133,0,0,1,9.63,49.87l9.12-.67,9.11-.66a147.38,147.38,0,0,0-18.28-53.23q-2.81-4.83-5.94-9.41a143.19,143.19,0,0,0-48.05-43.9Z"/><path id="path4921" class="cls-1" d="M227,432.69a119.62,119.62,0,0,0-22.58,56.05c-.26,2.05-.47,4.1-.63,6.17a124.1,124.1,0,0,0,8.83,56l8.21-4,8.2-4a109.76,109.76,0,0,1-15.19-47.92c-.15-1.89-.24-3.79-.29-5.7A115.06,115.06,0,0,1,227,432.69Z"/><path id="path5066" class="cls-6" d="M491.2,410.73c2.55-14.4-4.65-26.48-13.32-37.39-9.64,10.67-20.36,23.17-18.39,36.82,1.32,9.15,6.39,17.52,12.56,34.89,13.11-13.92,17.38-24.32,19.15-34.32Z"/><path id="path4933" class="cls-1" d="M475.12,419a99.19,99.19,0,0,1,4.2-38.58A82.84,82.84,0,0,1,489,359.61l.36-.54h0a123,123,0,0,1,14.09-16.59h0a387.78,387.78,0,0,1,28.92-26.86l-4.69-5-4.68-5a401,401,0,0,0-26.62,30.71h0a130,130,0,0,0-13,19.21h0l-.33.63a88.56,88.56,0,0,0-7.95,23.15,101.51,101.51,0,0,0-.05,39.64Z"/><path id="path5064" class="cls-7" d="M516.88,462.12c-10.87-20.86-5.67-42.84,2.36-63.74,19.92,11.69,42.4,25.67,46,47.55,2.4,14.67-1.35,29.95-2.42,59.55-26.82-15-38.38-28.89-45.91-43.36Z"/><path id="path4939" class="cls-1" d="M545.3,464.12A217.53,217.53,0,0,1,527.39,405q-.82-5.42-1.37-10.85a213.13,213.13,0,0,1,4.76-70.9l-9-1.56-9-1.55A227,227,0,0,0,517,395.64q1.26,5.57,2.81,11a221.63,221.63,0,0,0,25.49,57.46Z"/><path id="path5074" class="cls-8" d="M670.7,398.4c-2.42,17.8,7,32.27,18.18,45.22,11.31-13.56,23.85-29.43,20.76-46.08-2.07-11.17-8.71-21.18-17.14-42.19-15.4,17.73-20.12,30.7-21.8,43Z"/><path id="path4945" class="cls-1" d="M686.53,398.63a103.73,103.73,0,0,0,.12,48.2c.39,1.63.83,3.25,1.3,4.86a108.17,108.17,0,0,0,28.54,47.08l5-5.95,5-5.94A96.62,96.62,0,0,1,695.23,449q-1-2.12-1.86-4.29a100.23,100.23,0,0,1-6.84-46.06Z"/><path id="path5072" class="cls-9" d="M620.44,368.17c14,17.14,13.37,38.38,9.95,59.16-20.57-7-43.93-15.59-51.38-35.06-5-13-4.45-27.83-9.1-55.3,27.56,8.73,40.84,19.31,50.53,31.2Z"/><path id="path4951" class="cls-1" d="M595,377.8a205.64,205.64,0,0,0,31.08,48.08q4.36,5,9.06,9.81a211.41,211.41,0,0,0,58.57,41.88l3.45-8.47,3.45-8.47a197.45,197.45,0,0,1-59.38-31.76q-5-3.93-9.85-8.2A202.23,202.23,0,0,1,595,377.8Z"/><path id="path5062" class="cls-10" d="M469.21,537.57c-19.48,11.21-40.68,7.13-61,.3,10.37-19.5,22.82-41.52,43.57-45.81,13.91-2.87,28.65.09,57-.07-13.26,26.2-26,37.8-39.56,45.58Z"/><path id="path4957" class="cls-1" d="M478.53,507.49A265.46,265.46,0,0,1,443.39,521c-6.67,2-13.49,3.83-20.35,6.05-3.27,1.06-6.54,2.22-9.81,3.54A115,115,0,0,0,371,560.55l7.24,5.58,7.24,5.57A100.64,100.64,0,0,1,418,540.2c2.73-1.66,5.59-3.2,8.52-4.67,6.14-3.1,12.62-5.94,19-9a268.63,268.63,0,0,0,33-19Z"/><path id="path5078" class="cls-11" d="M700.61,582c-15.1,9.87-32.27,7.56-48.84,3,7.42-16.1,16.4-34.31,32.84-38.69,11-2.93,23-1.23,45.64-2.65-9.44,21.61-19.16,31.48-29.64,38.33Z"/><path id="path4969" class="cls-1" d="M703.14,556.83a320.29,320.29,0,0,1-47.2,21.3c-5.33,1.9-10.72,3.66-16.13,5.28q-10.95,3.29-22.07,5.8a349.38,349.38,0,0,1-44.55,7.13l1.47,9,1.47,9a363.69,363.69,0,0,0,45.1-13.5q11.06-4.1,21.78-8.91,7.93-3.57,15.67-7.54a323.18,323.18,0,0,0,44.46-27.61Z"/><path id="path5068" class="cls-12" d="M629.49,534.58c-7.26,21.26-25.9,32.16-45.65,40.39-5.05-21.49-10.2-46.26,2.58-63.16C595,500.48,608,493,629.21,474.22c7.29,28.45,5.32,45.6.28,60.36Z"/><path id="path4975" class="cls-1" d="M610.82,522.57a166.79,166.79,0,0,1-28.26,42.7c-1.37,1.5-2.76,3-4.19,4.42a162.29,162.29,0,0,1-45.23,32.43l4.63,7.88,4.63,7.89a176.13,176.13,0,0,0,43-42.33c1.24-1.75,2.45-3.51,3.63-5.3a170.94,170.94,0,0,0,21.8-47.69Z"/><path id="path5070" class="cls-13" d="M628.77,651.13c12.37-2.39,19.85-11.9,25.94-22.23-11.55-4.46-24.9-9.22-35.26-3.42-7,3.88-12.11,10.54-24.16,20.86,15.24,6.24,24.91,6.46,33.48,4.79Z"/><path id="path4987" class="cls-1" d="M616.5,640.77a161.32,161.32,0,0,1,48.8-7.91c1.29,0,2.58,0,3.87,0a157.56,157.56,0,0,1,44,7.11l1.57-6.67,1.57-6.68a168,168,0,0,0-47.51-1.14c-1.34.15-2.68.33-4,.52a164.7,164.7,0,0,0-48.28,14.75Z"/><path id="path5024" class="cls-14" d="M272.1,504.18c-14.47,2.18-23.62,12.84-31.19,24.54,13.18,5.74,28.44,11.92,40.76,5.7,8.25-4.16,14.57-11.64,29.06-23-17.37-8-28.59-8.72-38.63-7.21Z"/><path id="path4993" class="cls-1" d="M285.93,515.41a73,73,0,0,0-36.15,5.5l-.34.15a76,76,0,0,0-30.19,23.77l5,3.23,5,3.22a67.15,67.15,0,0,1,23-25l.29-.19a70,70,0,0,1,33.42-10.71Z"/><path id="path5060" class="cls-15" d="M441.49,595.44c10.07,10.63,11.42,23.58,9.27,37.35-13.65-4.5-29.62-7.39-34.66-20.23-3.38-8.61-3.57-23.29-1.27-42.07,8.76,9.79,17.89,15.69,26.66,25Z"/><path id="path4999" class="cls-1" d="M424.79,594.17a45.35,45.35,0,0,0,7.82,21.29,74.48,74.48,0,0,0,13.05,13.89c1,.88,2,1.74,3.08,2.59l28.46,23.8,3.48-4.82,3.47-4.82-31.61-19.45c-1.11-.69-2.22-1.38-3.32-2.08-5.13-3.28-10-6.74-14.06-11.13a43.85,43.85,0,0,1-10.37-19.27Z"/><path id="path5054" class="cls-16" d="M421.6,458.15c-11,17.4-30,23.13-49.32,26.24.1-20.23.81-43.41,15.81-55.73,10.06-8.26,23.28-12.15,46.17-24.35.42,26.92-5,41.77-12.66,53.84Z"/><path id="path5030" class="cls-1" d="M414.46,432.65q-10.84,12.92-22.74,24.82c-5.05,5-10.29,10-15,15.68l-.9,1.09A87.09,87.09,0,0,0,357,526l4.57-.06,4.57-.06a80.21,80.21,0,0,1,13.5-48.9c.25-.37.5-.74.76-1.1,4-5.74,8.76-11.07,13.41-16.56q10.94-12.92,20.68-26.71Z"/><path id="path5058" class="cls-17" d="M385.08,378.76c1.48-16.11-7.17-29.14-17.29-40.8-9.31,12.3-19.61,26.7-16.37,41.75,2.18,10.09,8.27,19.11,16.28,38.07,12.71-16.1,16.35-27.84,17.38-39Z"/><path id="path5036" class="cls-1" d="M369.16,388.22a225.62,225.62,0,0,1,.09-42.94c0-.12,0-.24,0-.36.74-7.25,1.76-14.85.42-22.81a39.44,39.44,0,0,0-11-20.88l-3.06,3.39L352.58,308A31.36,31.36,0,0,1,363,323.64c1.92,6.36,1.66,13.65,1.73,21.07v.37a228.59,228.59,0,0,0,4.44,43.14Z"/><path id="path5086" class="cls-18" d="M306.42,567.87c-3.44,10.93.92,21,6.54,30.39,8.57-7.31,18.17-15.92,18-26.73-.09-7.24-3.19-14.25-6.22-28.36-11.59,9.48-15.95,17.12-18.34,24.7Z"/><path id="path5042" class="cls-1" d="M315.55,569.67a36.71,36.71,0,0,0-4.07,18.52,38.11,38.11,0,0,0,3.46,14.17,37.66,37.66,0,0,0,2.59,4.74,40.72,40.72,0,0,0,24.89,17.41l.89-5.88.89-5.87A31.4,31.4,0,0,1,323,602.93a30.4,30.4,0,0,1-2.85-3.5,33.27,33.27,0,0,1-5.23-11.69,34.85,34.85,0,0,1,.67-18.07Z"/><path id="path5088" class="cls-19" d="M511.5,555.67c-5.49,12-2,24.15,3.13,35.63,10.83-7.11,23-15.58,24.4-27.93.93-8.29-1.6-16.73-3-33.28-14.59,9.16-20.67,17.26-24.49,25.58Z"/><path id="path5080" class="cls-1" d="M522.83,558.22a89.6,89.6,0,0,0-8.25,26.95h0c-.5,3.54-.78,7-1.38,10.22-.05.23-.09.47-.14.7a50.86,50.86,0,0,1-18,29.76l4.76,4.93,4.76,4.94a61.17,61.17,0,0,0,15.35-38.93l0-.8h0c0-3.69-.31-7.17-.43-10.55h0a87,87,0,0,1,3.37-27.22Z"/></g></g></svg>