<svg id="Layer_1" data-name="Layer 1" xmlns="http://www.w3.org/2000/svg" viewBox="0 0 1334.78 2000"><defs><style>.cls-1{fill:#fefefe;}.cls-2{fill:#30343f;}.cls-3{fill:#191919;}.cls-4{fill:#2581c5;}.cls-5{fill:#276b9c;}.cls-6{fill:#1a1a1a;}.cls-7{fill:#7ab2db;}</style></defs><title>vikhk</title><path class="cls-1" d="M0,0H1336.78V2001H0ZM718.68,21Q703.86,58.74,689,96.48q-19.95,50.69-40,101.34-12.06,30.68-24,61.38Q603.52,314.37,582,369.53c-11.47,29.22-23.18,58.35-34.66,87.56-14.26,36.31-28.37,72.68-42.6,109-11.63,29.67-23.4,59.28-35,88.95-13.71,35-27.27,70.11-41,105.14-8.23,21-16.62,42-25.28,63.89L418,827.92q88.66,23.63,177.32,47.24,33.45,8.9,66.95,17.68c-5.53,50.67-10.93,101.35-16.63,152S633.89,1146,628.12,1196.63c-4,35.16-7.67,70.35-11.69,105.5-3.87,33.76-8.08,67.48-12,101.23q-6.13,52.77-12,105.55c-1.21,10.8-2.24,21.62-3.36,32.43a3.59,3.59,0,0,0,2.48-2q30.09-75.18,60.1-150.38c17-42.63,33.67-85.36,50.74-128s34.61-85.09,51.71-127.73c19.07-47.55,37.8-95.23,56.81-142.8,12.25-30.65,24.8-61.17,37.1-91.79q17.55-43.68,34.85-87.47c6.73-16.94,13.38-33.9,20.07-50.85-1.81-1.4-3.42-3.5-5.46-4.08Q840.54,740,783.52,724.06c-24-6.76-48-13.44-72-20.2-22-6.2-44-12.55-66-18.61-4.14-1.14-5.59-3-5-7.27,2.24-17.2,4.15-34.44,6.3-51.66,2.5-20,5.27-39.92,7.67-59.91,3.09-25.72,5.73-51.5,8.91-77.21,4.76-38.33,10-76.6,14.69-114.95,5.5-45.23,10.47-90.52,15.89-135.76,3.8-31.69,8.08-63.32,12-95,5-40.88,9.78-81.78,14.65-122.67l.66-3.79-1.06-.25C719.63,18.18,719.15,19.58,718.68,21Zm363.5,639.1c-.1,3-.29,6-.29,9q0,261.39,0,522.78v8.35h-19.76q-121.12,0-242.25-.12c-4.92,0-7.4,1.38-9.07,6-3.2,8.87-6.88,17.57-10.6,26.24-9.69,22.64-19.55,45.21-29.28,67.83Q749.07,1351,727.33,1402c-4.92,11.53-9.62,23.17-14.52,35H1321.7v-8.47q0-488,0-975.95c0-2.77-.17-5.55-.26-8.33.09-1.38.27-2.76.27-4.14q0-154.56,0-309.12c0-1.76-.23-3.52-.35-5.25H793.06c-5.52,79.31-11,158.26-16.56,238h305.37v8.22q0,140.28,0,280.57C1081.89,655,1082.08,657.54,1082.18,660.08ZM263,1079.2c.06-2.55.18-5.1.18-7.64q0-349.86,0-699.7v-8.37H492.76q50.78-119,101.7-238.34H21.41v8q0,502.67,0,1005.34c0,2.52.33,5,.5,7.58-.14,1.6-.4,3.21-.4,4.82q0,140.23,0,280.48c0,1.81.22,3.62.35,5.58H518.12c5.51-78.94,11-157.61,16.55-236.91H263ZM824.74,1493v401.61h49.73v-218H983.31v218.08H1033c0-75.39.11-150.3-.15-225.2,0-9.63-4.89-17.8-14.27-21.24-7.25-2.66-15.23-5.08-22.8-4.83-26.61.87-53.19,2.82-79.77,4.62-13.76.94-27.48,2.43-41.86,3.72V1493ZM491.68,1894.83v-126.1c32.22,41.13,63.46,80.88,94.48,120.78,3.12,4,6.1,6,11.42,5.81,13.91-.44,27.84-.13,41.77-.17,1.68,0,3.36-.28,5.66-.48l-112.46-138,106.33-112.12c-17.16,0-32.46.2-47.75-.11-5-.1-8.42,1.29-11.85,5.16-27.69,31.23-55.63,62.22-83.52,93.26-1.1,1.23-2.43,2.25-4.6,4.23V1493.17h-49.3v401.66Zm712-138.19,106.34-112.12c-17.48,0-33.2.17-48.91-.11a11.79,11.79,0,0,0-10,4.5q-33.22,37.47-66.79,74.63c-6.85,7.64-13.75,15.24-22,24.42V1493.09H1113v401.57h50v-125.6c2,2.4,3.16,3.77,4.28,5.2q45.48,58,91,116.06c1.48,1.88,3.6,4.59,5.47,4.63,17.24.35,34.5.21,52.93.21ZM196.35,1644.73c-20.61,64.73-41.17,129.28-62.3,195.63-20.92-66.49-41.28-131.2-61.58-195.67H21.19c.72,2.19,1.31,4.16,2,6.09q15.57,43.4,31.16,86.79,27.19,75.71,54.47,151.38c.84,2.3,2.83,5.89,4.38,5.94,14.53.46,29.08.27,43.41.27,30-83.86,59.81-167,89.71-250.43Zm113.29,250h48.57v-249.7H309.64Zm382.83-44v44h56.28v-44ZM358.8,1588.58V1546H309.25v42.56Z"/><path class="cls-2" d="M21.93,1146.09c-.17-2.53-.5-5.06-.5-7.58q0-502.68,0-1005.34v-8H594.46q-51,119.61-101.7,238.34H263.18v8.37q0,349.85,0,699.7c0,2.54-.12,5.09-.18,7.64a80.82,80.82,0,0,0-8.09,1.57c-39.34,11.68-78.52,23.91-118,35C98.73,1126.48,60.26,1136,21.93,1146.09Z"/><path class="cls-3" d="M1321.42,444.21c.09,2.78.26,5.56.26,8.33q0,488,0,976V1437H712.81c4.9-11.84,9.6-23.48,14.52-35q21.72-50.91,43.58-101.75c9.73-22.62,19.59-45.19,29.28-67.83,3.72-8.67,7.4-17.37,10.6-26.24,1.67-4.64,4.15-6,9.07-6q121.13.26,242.25.12h19.76v-8.35q0-261.39,0-522.78c0-3,.19-6,.29-9,2-1,4.36-1.66,6.11-3,18.8-14.86,37.78-29.52,56.18-44.87,23.18-19.36,45.93-39.24,68.74-59,9.2-8,18.35-16.08,27-24.64,15-14.79,29.67-29.86,44.27-45C1297,470.53,1309.12,457.31,1321.42,444.21Z"/><path class="cls-2" d="M1321.42,444.21c-12.3,13.1-24.47,26.32-36.93,39.26-14.6,15.16-29.29,30.23-44.27,45-8.66,8.56-17.81,16.65-27,24.64-22.81,19.8-45.56,39.68-68.74,59-18.4,15.35-37.38,30-56.18,44.87-1.75,1.38-4.06,2-6.11,3-.1-2.54-.29-5.09-.29-7.63q0-140.28,0-280.57v-8.22H776.5c5.55-79.7,11-158.65,16.56-238h528.27c.12,1.73.35,3.49.35,5.25q0,154.56,0,309.12C1321.69,441.45,1321.51,442.83,1321.42,444.21Z"/><path class="cls-3" d="M21.93,1146.09c38.33-10.06,76.8-19.61,115-30.32,39.5-11.09,78.68-23.32,118-35a80.82,80.82,0,0,1,8.09-1.57v120.86H534.67c-5.54,79.3-11,158-16.55,236.91H21.87c-.13-2-.35-3.77-.35-5.58q0-140.25,0-280.48C21.53,1149.3,21.79,1147.69,21.93,1146.09Z"/><path class="cls-4" d="M662.31,892.84q-33.48-8.83-66.95-17.68Q506.7,851.57,418,827.92l-14.58-3.86c8.66-21.87,17.05-42.85,25.28-63.89,13.7-35,27.26-70.11,41-105.14,11.61-29.67,23.38-59.28,35-88.95,14.23-36.31,28.34-72.68,42.6-109,11.48-29.21,23.19-58.34,34.66-87.56q21.64-55.12,43.08-110.33,12-30.69,24-61.38Q669,147.14,689,96.48,703.9,58.74,718.68,21l1.83-.16c-4.87,40.89-9.66,81.79-14.65,122.67-3.87,31.68-8.15,63.31-12,95C688.49,283.73,683.52,329,678,374.25c-4.67,38.35-9.93,76.62-14.69,115-3.18,25.71-5.82,51.49-8.91,77.21-2.4,20-5.17,39.94-7.67,59.91-2.15,17.22-4.06,34.46-6.3,51.66-.56,4.3.89,6.13,5,7.27,22,6.06,44,12.41,66,18.61,24,6.76,48,13.44,72,20.2q57,16,113.94,32.23c2,.58,3.65,2.68,5.46,4.08-1.94.65-4.12.94-5.79,2-16.7,10.73-32.93,22.27-50.06,32.27-28.29,16.51-57.1,32.13-85.8,48-17.84,9.84-35.7,19.66-53.84,28.92C692.61,879.08,677.36,885.77,662.31,892.84Z"/><path class="cls-5" d="M662.31,892.84c15.05-7.07,30.3-13.76,45.12-21.31,18.14-9.26,36-19.08,53.84-28.92,28.7-15.82,57.51-31.44,85.8-48,17.13-10,33.36-21.54,50.06-32.27,1.67-1.08,3.85-1.37,5.79-2-6.69,17-13.34,33.91-20.07,50.85Q865.46,855,848,898.69c-12.3,30.62-24.85,61.14-37.1,91.79-19,47.57-37.74,95.25-56.81,142.8-17.1,42.64-34.62,85.1-51.71,127.73s-33.77,85.32-50.74,128q-30,75.22-60.1,150.38a3.59,3.59,0,0,1-2.48,2c1.12-10.81,2.15-21.63,3.36-32.43q5.94-52.77,12-105.55c3.93-33.75,8.14-67.47,12-101.23,4-35.15,7.68-70.34,11.69-105.5,5.77-50.6,11.86-101.17,17.56-151.79S656.78,943.51,662.31,892.84Z"/><path class="cls-6" d="M824.74,1493h49.4v158.74c14.38-1.29,28.1-2.78,41.86-3.72,26.58-1.8,53.16-3.75,79.77-4.62,7.57-.25,15.55,2.17,22.8,4.83,9.38,3.44,14.24,11.61,14.27,21.24.26,74.9.15,149.81.15,225.2H983.31V1676.61H874.47v218H824.74Z"/><path class="cls-6" d="M491.68,1894.83H441.86V1493.17h49.3v253.89c2.17-2,3.5-3,4.6-4.23,27.89-31,55.83-62,83.52-93.26,3.43-3.87,6.82-5.26,11.85-5.16,15.29.31,30.59.11,47.75.11L532.55,1756.64l112.46,138c-2.3.2-4,.48-5.66.48-13.93,0-27.86-.27-41.77.17-5.32.17-8.3-1.79-11.42-5.81-31-39.9-62.26-79.65-94.48-120.78Z"/><path class="cls-6" d="M1203.72,1756.64l112.86,138.52c-18.43,0-35.69.14-52.93-.21-1.87,0-4-2.75-5.47-4.63q-45.56-58-91-116.06c-1.12-1.43-2.3-2.8-4.28-5.2v125.6h-50V1493.09h49.34V1748c8.28-9.18,15.18-16.78,22-24.42q33.45-37.27,66.79-74.63a11.79,11.79,0,0,1,10-4.5c15.71.28,31.43.11,48.91.11Z"/><path class="cls-6" d="M196.35,1644.73h50c-29.9,83.48-59.67,166.57-89.71,250.43-14.33,0-28.88.19-43.41-.27-1.55-.05-3.54-3.64-4.38-5.94q-27.35-75.65-54.47-151.38-15.58-43.39-31.16-86.79c-.7-1.93-1.29-3.9-2-6.09H72.47c20.3,64.47,40.66,129.18,61.58,195.67C155.18,1774,175.74,1709.46,196.35,1644.73Z"/><path class="cls-6" d="M309.64,1894.77v-249.7h48.57v249.7Z"/><path class="cls-3" d="M692.47,1850.78h56.28v44H692.47Z"/><path class="cls-3" d="M358.8,1588.58H309.25V1546H358.8Z"/><path class="cls-7" d="M720.51,20.82l-1.83.16c.47-1.4,1-2.8,1.43-4.2l1.06.25Z"/></svg>