<svg id="new" xmlns="http://www.w3.org/2000/svg" viewBox="0 0 1200 900"><title>impulzus</title><path d="M727.85,239.27c2.34,9,4.85,17.9,7,26.92q30.85,130.76,61.6,261.52c4.44,18.87,9,37.71,13.18,56.64.84,3.81,2.68,5.21,6,6,11.53,2.77,23,5.75,34.53,8.51a10.81,10.81,0,0,1,7.35,5.24c7,11.53,14.34,22.8,21.31,34.32,2.07,3.42,4.33,4.89,8.47,4.8,12.67-.3,25.36-.11,38-.11q134.05,0,268.11,0c2.16,0,4.32-.2,6.49-.32,0,5.36-.08,10.72,0,16.07,0,1.56-.28,2-1.84,1.82a26.41,26.41,0,0,0-3.56,0H871.74c-.81-1.56-1.51-3.19-2.43-4.68-7.53-12.1-15.2-24.11-22.59-36.29A11.48,11.48,0,0,0,839,614.1c-12.66-3.06-25.24-6.45-37.91-9.46-3.53-.83-5.26-2.41-6-6.06-2.14-10.25-4.71-20.41-7.11-30.61q-25.29-107.61-50.58-215.21-3.47-14.72-7-29.42a6.73,6.73,0,0,0-.95-1.62,13.13,13.13,0,0,0-.32,1.73c0,1,0,2,0,3l0,334.23H.07c0-4.76.08-9.52,0-14.28,0-2.21.68-3.36,3-3.25,2,.1,4,0,6,0H702.32c9.21,0,9.21,0,9.21-9V250.83c0-7.3,0-7.25,6.87-9,2.8-.7,5.51-1.72,8.26-2.59Z"/><path d="M1200,539.23c-2,7.37-4,14.73-6,22.11-.71,2.68-1.21,5.41-2,8.07s-6.85,4.55-8.65,2.49c-.87-1-.88-2.94-.89-4.46-.06-15.07,0-30.15,0-45.23,0-1.39-.08-2.78,0-4.16.14-2.53-1-3.66-3.5-3.51-1.38.09-2.78,0-4.16,0h-84.43c-6.59,0-6.7,0-6.59-6.32.2-12.48-.22-25,1-37.41,1.73-17.47,18-31.34,35.51-31.43,26.55-.12,53.1-.1,79.66-.14V457.1a4.4,4.4,0,0,0-1.14-.31c-25.75,0-51.49-.14-77.24,0-11.69.08-19.94,8.61-20.32,20.42-.15,4.95,0,9.91,0,14.87,0,5.42,0,5.46,5.44,5.46l93.28,0Z"/><path d="M123.85,589.21H8a38.46,38.46,0,0,0-4.16,0c-2.82.31-4.06-.78-3.71-3.67A30.36,30.36,0,0,0,.1,582V348.18a24.5,24.5,0,0,0,0-3c-.41-3.26.75-4.89,4.23-4.45a28.33,28.33,0,0,0,3.57,0H240.27a32.49,32.49,0,0,0,3.56,0c3.34-.35,4.82,1,4.46,4.42a29.41,29.41,0,0,0,0,3q0,116.91,0,233.81c0,8.32.85,7.22-7.33,7.23Q182.39,589.25,123.85,589.21Zm.24-17.5h5.35q38.33,0,76.65,0c5.66,0,5.73-.06,4.49-5.32-2.64-11.16-5.61-22.24-7.88-33.47-.79-3.95-2.51-4.64-6-4.56-7.91.18-15.84.08-23.76,0-5,0-5.06-.07-5.11-5.32,0-2.58,0-5.16,0-7.74V392.23c0-6.64,0-6.64-6.68-5-2.68.66-5.36,1.33-8.05,2-24.2,5.68-48.39,11.45-72.64,16.92-4.07.92-5.94,2.81-6.73,6.76-1.52,7.55-3.43,15-5.13,22.56-.89,3.94-.84,4.05,3,4.12,5,.1,9.91.2,14.85,0,3.45-.15,4.69,1.25,4.34,4.51a23.62,23.62,0,0,0,0,2.38v75.53c0,1.19,0,2.38,0,3.57,0,1.91-.77,3-2.81,2.89-1.38-.06-2.77,0-4.16,0-11.09,0-22.18.09-33.27-.07-2.89,0-4.27.86-4.76,3.74-.56,3.3-1.49,6.55-2.27,9.81-2.05,8.65-4.06,17.3-6.2,25.93-.71,2.83,0,4.16,3.06,3.9,1.38-.12,2.77,0,4.16,0ZM122,358.28c-10.5,0-21,0-31.49,0-2.16,0-3.87.23-4.42,2.75-.88,4.05-1.89,8.07-2.78,12.12-.5,2.3.15,3.29,2.78,2.66q34-8.14,68-16.18a7.38,7.38,0,0,0,1.71-1,9.3,9.3,0,0,0-1.72-.32Q138,358.27,122,358.28Z"/><path d="M430.86,524.26c0,14.28,0,28.56,0,42.84,0,5.27-.07,5.39-5.13,5.31-3.89-.07-7.77-.51-11.66-.78-.15-3.74-.42-7.49-.45-11.23-.21-24.78-.62-49.57-.48-74.35.09-15.46-11.74-28.4-27.08-28.94-15.65-.56-28.18,11.1-29.21,27.43-.53,8.3-.32,16.65-.34,25,0,19,0,38.09,0,57.13,0,5.77,0,5.88-5.88,5.77-3.69-.07-7.36-.52-11-.8-.15-3.54-.43-7.07-.44-10.61-.05-25,0-50-.06-75,0-8.77-3.11-16.36-9.8-22.09-9.11-7.82-19.5-9.44-30.42-4.53-11.2,5-16.79,14.28-16.89,26.42-.21,25.39-.06,50.78-.06,76.17,0,1.59,0,3.18,0,4.76,0,6.31.35,5.75-5.86,5.66-3.68-.06-7.36-.5-11-.77-.19-3.52-.54-7-.55-10.58-.05-25-.17-50,0-75,.13-16.81,7.08-30.25,21.29-39.54a45.63,45.63,0,0,1,56.83,5.83,50,50,0,0,1,3.62,3.94c1.17,1.45,1.9,1.29,3.16-.06a64.14,64.14,0,0,1,8.15-7.75A45.86,45.86,0,0,1,430,476.12a55.58,55.58,0,0,1,.79,10.65C430.92,499.26,430.86,511.76,430.86,524.26Z"/><path d="M447.32,533V446.78c0-1.39.06-2.78,0-4.16-.11-2.18.68-3.4,3-3.26,1.18.07,2.37,0,3.56,0h44c33.3,0,61.59,26.69,64.89,59.21a66.51,66.51,0,0,1-52.43,72.21,65.47,65.47,0,0,1-24.76.5c-2.54-.45-4.06-1-3-4.2a74.56,74.56,0,0,0,2.49-10.37c.46-2.53,1.48-3.05,4.05-2.66,16.6,2.54,31.12-2.15,42.64-14.25,14.09-14.8,18.08-32.39,10.6-51.55S520.16,458.3,499.43,457c-10.06-.65-20.2-.05-30.29-.27-3.48-.07-4.59,1.28-4.24,4.5a38.47,38.47,0,0,1,0,4.16q0,77.32,0,154.64c0,7.43.89,7-7.09,7-2.38,0-4.76-.09-7.13,0-2.59.11-3.44-1.09-3.41-3.57.09-6.74,0-13.49,0-20.23Z"/><path d="M596.73,480.75c0,11.1.08,22.2,0,33.3-.19,20.71,15.85,38.86,35.56,40.92,23.63,2.47,41.92-13.45,45.48-34.17a39.43,39.43,0,0,0,.26-6.53q0-33.9,0-67.79c0-1.39,0-2.77,0-4.16,0-1.9.64-3,2.73-2.95,4,.05,7.92,0,11.88,0,2.08,0,2.79,1.08,2.76,3,0,1,0,2,0,3,0,23.19.44,46.39-.11,69.57-.6,24.61-12.33,42.76-34.88,52.8C625.56,583.21,586,561,580.28,523.07a76.71,76.71,0,0,1-.92-11.22c-.09-22-.05-44,0-66a15.74,15.74,0,0,1,.12-4.13c.25-.89,1.31-2.17,2.06-2.2a121.05,121.05,0,0,1,13.06,0c.83.05,1.92,1.57,2.25,2.61a14.55,14.55,0,0,1,.11,4.13v34.49Z"/><path d="M877.78,439.36q26.15,0,52.29,0c5.48,0,5,.09,5.65,5.53.91,8.13-2,13.9-7.67,19.83-26.92,28.23-53.31,57-79.89,85.52-.81.87-1.69,1.68-2.46,2.58-1.35,1.56-.39,1.94,1.08,2s3.17,0,4.75,0h77.25c1.38,0,2.87-.29,4.12.13,1,.34,2.5,1.49,2.55,2.36.27,4.15.12,8.32.13,12.48,0,2.08-1.19,2.72-3.06,2.66-1.19,0-2.38,0-3.56,0H829.73c-6.1,0-6.2,0-7.43-5.6-.89-4-2.75-8.4-1.79-12,.93-3.4,4.93-6,7.63-8.88q39.29-42.15,78.58-84.31a30.68,30.68,0,0,0,2.82-4.19,36.68,36.68,0,0,0-5.08-.69q-38.61-.07-77.24,0c-1.38,0-2.77-.08-4.16,0-2.45.14-3.66-.78-3.56-3.41.13-3.17,0-6.35,0-9.52.08-4.37.12-4.46,4.77-4.46Q851,439.32,877.78,439.36Z"/><path d="M969.13,480.75c0,11.29.35,22.61-.08,33.89-.69,18.29,15.05,40.79,40.87,40.58a40.57,40.57,0,0,0,40.51-40.94q-.15-34.18-.2-68.38a16.29,16.29,0,0,1,.12-4.14c.25-.9,1.29-1.59,2-2.34.1-.1.39,0,.58,0l14.13.5c.26,4.09.72,8.17.73,12.26q.12,30.63,0,61.25c-.06,14.34-4.12,27.5-13.66,38.31-16.28,18.46-36.76,25.18-60.48,18.31-23.2-6.71-36.84-22.79-41-46.66a71.66,71.66,0,0,1-.87-11.81c-.08-21.61,0-43.22,0-64.82,0-1.59-.28-3.26.14-4.73.29-1,1.53-1.79,2.43-2.58.23-.2.77-.07,1.16-.05l12.93.56c.24,4.09.65,8.18.69,12.27C969.2,461.72,969.13,471.23,969.13,480.75Z"/></svg>