<svg id="Layer_1" data-name="Layer 1" xmlns="http://www.w3.org/2000/svg" viewBox="0 0 1136.3 1136.3"><title>justdance</title><g id="Layer_2" data-name="Layer 2"><g id="Layer_1-2" data-name="Layer 1-2"><g id="Layer1_0_FILL" data-name="Layer1 0 FILL"><path d="M969.9,166.4Q803.55,0,568.2,0,448.95,0,347.4,42.8h66Q486.45,22,568.1,21.9q226.35,0,386.3,160t160,386.3q0,226.35-160,386.3c-10.1,10.1-20.3,19.6-30.8,28.8l5.5,24c13.9-11.6,27.4-24.1,40.7-37.3q166.35-166.35,166.4-401.8T969.9,166.4M703.5,1095.2h0M21.9,568.2q0-165.3,85.3-295.2V234.8Q0,379.25,0,568.2,0,803.4,166.4,969.9q166.35,166.35,401.8,166.4,117,0,216.8-41H717q-70.5,19.2-148.8,19.2-226.35,0-386.3-160T21.9,568.2Z"/></g><g id="Layer0_0_FILL" data-name="Layer0 0 FILL"><path d="M600,752.5V806h49.5V752.5H600m64.2,0V806h49V752.5h-49m58,78a39.52,39.52,0,0,0-16.2-9.4,80.5,80.5,0,0,0-23.9-3.1H637.5a79.28,79.28,0,0,0-23.7,3.2A35.55,35.55,0,0,0,588,847a77.38,77.38,0,0,0-3.1,20.3v155.1a79.84,79.84,0,0,0,3.1,23.8,38.59,38.59,0,0,0,9.3,16.3,39.3,39.3,0,0,0,16.5,9.3,82.63,82.63,0,0,0,23.7,3.2h44.6a76.42,76.42,0,0,0,23.8-3.2,36,36,0,0,0,25.7-25.7,83.31,83.31,0,0,0,3.2-23.8V867.5a75.56,75.56,0,0,0-3.2-20.5,40.61,40.61,0,0,0-9.4-16.5m-75.2,42a5.83,5.83,0,0,1,4.7-1.8h15.6a5.83,5.83,0,0,1,4.7,1.8,7.69,7.69,0,0,1,1.5,5.3v137.9c0,2.5-.5,4.4-1.5,5.5a5.69,5.69,0,0,1-4.7,2H651.7a5.69,5.69,0,0,1-4.7-2c-1-1.2-1.5-3-1.5-5.5V877.8a7.91,7.91,0,0,1,1.5-5.3M898.9,765.3c-4.1-4.3-9.8-7.5-17-9.5q-10.65-3.3-25.8-3.3H755.2v319.9h64.2V950l9.8-1.8,26.8,124h59v-25.9L889.1,936.2a34.26,34.26,0,0,0,10.7-6,32.28,32.28,0,0,0,7.2-9.6,45.59,45.59,0,0,0,4-13,92.1,92.1,0,0,0,1.3-17.4V808.6c0-10-1.1-18.6-3.3-25.9a42.44,42.44,0,0,0-10.1-17.4m-51.3,47.1a24.16,24.16,0,0,1,.5,4.7v77.6L819.6,900V808.1h19.7a18.8,18.8,0,0,1,4.7.5,5,5,0,0,1,3.6,3.8m-376.1-60H408.1v319.9h63.4V926l38.9,146.3h58.9v-25L528.6,903.6l39.3-125.9V752.3h-58L471.5,885.7V752.4m0-343.3H380.7L304.4,650.3v-176c0-11.4-1.3-21.3-4-29.7-2.4-8.7-6.1-15.3-11.2-19.8a47.24,47.24,0,0,0-19.8-12.1q-12.6-3.6-29.7-3.6H143.8V729.5h95.8a105.92,105.92,0,0,0,22.5-2.1,64.44,64.44,0,0,0,7.2-2,46.31,46.31,0,0,0,13.2-6L261,787.5h62.1l24.8-77.8h60.3V729h63.4l-.1-319.9M239.6,470.7a33.35,33.35,0,0,1,.4,6.3V661a57.92,57.92,0,0,1-.4,7.2,10.16,10.16,0,0,1-1.8,3.6q-.9,1.35-3.6,1.8a43.59,43.59,0,0,1-7.2.5H207.7V464H227q8.55,0,10.8,2.7a15.88,15.88,0,0,1,1.8,4M408.1,653H365.3l42.8-135V653m-278-324.5H97.8l-9.9,57.6h86a26.43,26.43,0,0,0,8.4-1.4,30.71,30.71,0,0,0,7.2-3.1,16,16,0,0,0,3.1-7.2,22,22,0,0,0,1.8-9.5V65.7H130.1V328.5M281.4,65.7H217.5V332.6c0,19.8,4.3,34.1,13.1,42.8q13.5,13.5,43.2,13.5H321a74,74,0,0,0,25.2-4c7.5-2.1,13.5-5.2,18-9.5a43.06,43.06,0,0,0,9.5-17.1c2.1-7.2,3.1-15.8,3.1-25.6V65.7H313.3V324.9a7.13,7.13,0,0,1-1.8,5.4,5,5,0,0,1-4.2,2.2H287.7a4.41,4.41,0,0,1-4-2.2,9,9,0,0,1-2.2-5.4l-.1-259.2M938.8,536.8V466.2h56.7V409H874.9V729.4h122V671.8H938.8V594.4h45l9.9-57.6H938.8M724.2,409.5a43.09,43.09,0,0,0-18,9.9c-4.2,4.2-7.3,9.9-9.5,17.1-2.7,7.2-4,15.9-4,26.1V675.9c0,19.8,4.5,34,13.5,42.8q13.5,13.5,43.2,13.5h47.7c9.9,0,18.4-1.3,25.7-4a35.32,35.32,0,0,0,27-26.6c2.4-7.2,3.6-15.8,3.6-25.7V587.7h-63V670a9.24,9.24,0,0,1-1.3,5.4,6.61,6.61,0,0,1-5,1.8H763.4q-3.15,0-4.5-1.8a8.55,8.55,0,0,1-1.3-5.4V468.5a9.24,9.24,0,0,1,1.3-5.4q1.35-1.8,4.5-1.8h20.2a4.63,4.63,0,0,1,4,1.8,7.13,7.13,0,0,1,1.8,5.4V541h63V462.7q0-15.3-3.6-26.1-2.7-10.8-9-17.1a44.21,44.21,0,0,0-17.5-9.9,92.81,92.81,0,0,0-25.7-3.1H749.4c-9.9-.1-18.4.9-25.2,3M546.8,65.7l28.3,57.2h31V564.3L568.3,409.2H494.4V729.6H558V636.4c0-11.4-.2-23.8-.5-37.3,0-13.5-.5-28.2-1.3-44.1L599,729.5h70.7V122.8h40V65.7H546.8m2.7,27c-2.1-7.2-5.4-12.8-9.9-16.7a35.76,35.76,0,0,0-17.5-9.9A89.3,89.3,0,0,0,496.9,63H457.3c-11.1,0-20.5,1-28.3,3.2q-11.7,4-18,10.8t-9.9,18.9c-2.1,8.1-3.2,18.1-3.2,30.1v53.1a20.14,20.14,0,0,0,1.8,7.6,15.05,15.05,0,0,0,2.7,5.9,29.94,29.94,0,0,0,5,7.2l84.1,98.6v29.2a7.13,7.13,0,0,1-1.8,5.4c-.9,1.5-2.6,2.2-5,2.2H467.1a6.32,6.32,0,0,1-5-2.2,7.13,7.13,0,0,1-1.8-5.4V278.1H397.7v51.8c0,10.5,1,19.3,3.1,26.5q3.6,11.25,9.9,18c4.2,4.8,9.9,8.2,17.1,10.4a82.23,82.23,0,0,0,27,4H494c11.4,0,21.2-1.4,29.2-4,7.8-2.1,13.8-5.2,18-9.5,4.2-4.8,7.3-11.4,9.5-19.8,2.1-8.1,3.2-18.1,3.2-30.1V286.3a129.26,129.26,0,0,0-.5-13.5,37,37,0,0,0-1.3-8.1,38.12,38.12,0,0,0-3.2-6.8,94.1,94.1,0,0,0-6.3-7.6l-81.5-95.4V123.4a9.31,9.31,0,0,1,1.4-5.4,7.2,7.2,0,0,1,4.5-1.3h17.1a8.72,8.72,0,0,1,5,1.3,16.54,16.54,0,0,1,.9,5.4V172h63V118C553.2,108,552,99.6,549.5,92.7Z"/></g></g></g></svg>