<svg viewBox="0 0 233 184" xmlns="http://www.w3.org/2000/svg" fill-rule="evenodd" clip-rule="evenodd" stroke-miterlimit="10"><path d="M126.95 126.81l-33.96 33.96-68.03-68.029L92.99 24.71l34.01 34c4.019-4.01 8.04-8.03 12.05-12.04L92.99.61.86 92.741l92.13 92.13 45.83-45.831c-3.96-4.08-7.91-8.16-11.87-12.23" fill-rule="nonzero"/><path d="M59.18 58.59L25.4 92.64c11.23 11.41 22.46 22.81 33.69 34.22L47.24 139.1.88 92.74l46.23-46.23c4.02 4.02 8.04 8.05 12.07 12.08" fill="#fff200" fill-rule="nonzero"/><path d="M127.2 58.92L93.15 25.14C81.82 36.29 70.5 47.45 59.17 58.6c-4.03-4.03-8.05-8.06-12.08-12.09C62.41 31.21 77.73 15.91 93.05.62l46.23 46.23c-4.02 4.02-8.05 8.04-12.08 12.07" fill="#ec008c" fill-rule="nonzero"/><path d="M127.2 126.55l-34.05 33.78c-11.33-11.15-22.65-22.31-33.98-33.46-4.03 4.03-8.05 8.06-12.08 12.09 15.32 15.3 30.64 30.6 45.96 45.89l46.23-46.23c-4.02-4.02-8.05-8.04-12.08-12.07" fill="#00aeef" fill-rule="nonzero"/><path stroke="#000" d="M175.93 143.215l51.256-51.257L175.928 40.7 124.67 91.957z"/><text x="135.175" y="165.809" font-family="'TrebuchetMS-Bold','Trebuchet MS',sans-serif" font-weight="700" font-size="48.607" transform="translate(-76 -56)">KB</text><text x="223.396" y="165.809" font-family="'TrebuchetMS-Bold','Trebuchet MS',sans-serif" font-weight="700" font-size="48.607" fill="#fff" transform="translate(-76 -56)">PR</text></svg>
