<svg xmlns="http://www.w3.org/2000/svg" viewBox="0 0 680.59 900"><defs><style>.cls-1{fill:#771214;}</style></defs><title>kfb</title><g id="Réteg_3" data-name="Réteg 3"><path class="cls-1" d="M223.63,28.23h-47a8.47,8.47,0,0,0-8.47,8.46v69.38c2.79,3.94,5.43,8,8,12.06,3.72,5.77,7.58,11.73,11.8,17.19,5.86,7.57,11.41,15.52,16.78,23.21,8.51,12.2,17.29,24.72,27.36,35.78V36.69A8.46,8.46,0,0,0,223.63,28.23Z"/><path class="cls-1" d="M216.7,490c-8.91,0-20.55-1.7-25.42-9.8-2.11-3.52-3.63-9.6,1.14-18.56,3.72-7,10.19-11.42,15.9-15.32,5.33-3.65,9.85-7,12-11.49s1.72-10.39,1-15.49c-1.69-12.38-8.94-52.75-30.94-52.75a22.67,22.67,0,0,0-4.59.5c-10.76,2.27-16.91,14.59-17.23,25-.35,11.6,3.64,22.83,7.6,32.29a5.64,5.64,0,0,1-3,7.37,5.36,5.36,0,0,1-1.44.37,5.16,5.16,0,0,1-.77.08,5.68,5.68,0,0,1-2.82-.76V601.25a8.43,8.43,0,0,1-1.67,5l-51.22,68.89a8.45,8.45,0,0,0-1.68,5.06V802.58a8.47,8.47,0,0,0,8.47,8.47H223.63a8.47,8.47,0,0,0,8.46-8.47v-314c-3.61.48-7.3.92-11,1.17C219.67,489.9,218.18,490,216.7,490Z"/><path class="cls-1" d="M411.49,489c-6.46,2.4-12.33,6.8-17.94,13.46a98,98,0,0,0-10.95,16.51c-20.84,38.31-28.54,82.24-36,124.73-.29,1.62-.51,3.25-.73,4.87a5.64,5.64,0,0,1-11.19,0c-.22-1.62-.44-3.25-.72-4.87-7.45-42.49-15.15-86.42-36-124.73a98.59,98.59,0,0,0-10.95-16.51c-5.62-6.66-11.48-11.06-17.94-13.46a43.55,43.55,0,0,0-15.28-2.45,95.21,95.21,0,0,0-10.44.67v315.4a8.47,8.47,0,0,0,8.46,8.47H428.74a8.47,8.47,0,0,0,8.47-8.47V487.18a95.55,95.55,0,0,0-10.45-.67A43.49,43.49,0,0,0,411.49,489Z"/><path class="cls-1" d="M428.74,0H251.85a8.47,8.47,0,0,0-8.46,8.47V205.72c7.14,6.9,13.35,12.42,22.36,16.25l1.6.52c8.52,2.82,15.25,5,22,5a35.33,35.33,0,0,0,13.06-2.66c2.63-1.87,4.71-5.56,4.72-8.45,0-1.6-.66-2-1-2.22-3.47-2.22-7-3.24-11.1-4.43a74.78,74.78,0,0,1-9.53-3.25c-6.44-2.8-11.88-8.54-13.85-14.63a15.29,15.29,0,0,1,1.24-12.83c3.15-5.32,8.7-7.55,13.17-9.34l1.54-.61c29.76-11,31.69-26.44,33-36.69.66-5.34,1.41-11.4,7.48-13.14a8.58,8.58,0,0,1,2.42-.34c4.88,0,8.45,3.78,12.58,8.15,5.61,5.95,12.6,13.35,23.78,13.35a35.4,35.4,0,0,0,12.69-2.66l2.13-.85c4.47-1.79,9.08-3.63,14.36-4,.46,0,.92,0,1.38,0,6.84,0,15,3.7,16.77,11.82,1.35,6.2-1.88,11.61-4.42,15.15a139.27,139.27,0,0,1-13.08,15c-5.6,5.8-10.88,11.28-14.66,17.73-3.88,6.65-5.2,15.23-3.35,21.88a13.79,13.79,0,0,0,6.6,8.89,18,18,0,0,0,8.89,1.94,73.94,73.94,0,0,0,12.22-1.44,97,97,0,0,0,30.84-18.35V8.47A8.47,8.47,0,0,0,428.74,0Z"/><path class="cls-1" d="M565.38,675.19,514.15,606.3a8.5,8.5,0,0,1-1.67-5V431.41a5.64,5.64,0,0,1-2.81.76,4.9,4.9,0,0,1-.77-.08,5.34,5.34,0,0,1-1.45-.37,5.66,5.66,0,0,1-3-7.38c4-9.45,8-20.68,7.6-32.27-.32-10.44-6.47-22.76-17.23-25a22.52,22.52,0,0,0-4.59-.5c-22,0-29.24,40.37-30.94,52.75-.7,5.1-1.13,10.94,1,15.49s6.64,7.84,11.89,11.44c5.79,4,12.25,8.38,16,15.38,4.76,8.95,3.25,15,1.13,18.55-4.86,8.1-16.5,9.8-25.41,9.8-1.48,0-3-.05-4.44-.15-3.66-.25-7.34-.69-11-1.17v314a8.47,8.47,0,0,0,8.47,8.47H558.58a8.47,8.47,0,0,0,8.47-8.47V680.25A8.44,8.44,0,0,0,565.38,675.19Z"/><path class="cls-1" d="M492.65,135.32c4.22-5.46,8.07-11.43,11.8-17.2,2.61-4,5.25-8.12,8-12.05V36.69A8.47,8.47,0,0,0,504,28.23H457a8.47,8.47,0,0,0-8.47,8.46V194.31c10.08-11.06,18.85-23.58,27.37-35.78C481.24,150.84,486.78,142.89,492.65,135.32Z"/><path d="M670.31,343.92c-3-91.59-54.69-191-118.8-256.45-18.51,3.36-29,17.06-39,32.41-4.92,7.5-9.74,15.39-15.37,22.66-16.38,21.15-29.89,44.72-48.61,63.77-.88.9-1.75,1.79-2.65,2.66-2.73,2.64-5.62,5.18-8.64,7.57A101.13,101.13,0,0,1,407.79,233c-8.61,1.49-17.69,3.09-25.24-1-12.71-6.95-12.73-26.05-5.41-38.56s19.56-21.38,28-33.15c2.25-3.12,4.31-6.88,3.5-10.65-1.11-5.07-7.06-7.71-12.24-7.33s-10,2.61-14.84,4.49c-33.76,13.15-43.63-20.72-52-18.33s6.92,32.42-40,49.7c-4.4,1.8-9.38,3.43-11.8,7.52-4.2,7.1,2.44,16.13,10,19.42s14.46,3.66,21.42,8.09,2.83,16.05-4.14,20.47c-15.64,6.26-25.64,2.49-41.28-2.65-8.25-3.46-14.36-8.21-20.38-13.76-2.83-2.6-5.64-5.38-8.65-8.29-.9-.87-1.77-1.76-2.65-2.66-18.71-19.05-32.23-42.62-48.61-63.77-5.62-7.27-10.45-15.16-15.37-22.66-10.06-15.35-20.51-29-39-32.41C65,153,13.34,252.33,10.28,343.92,7.36,431.3,36.73,519.33,91.18,587.69a8.53,8.53,0,0,1,1.53-1.2c-20.79-36.8-33.43-78.71-45.57-119.14-1.72-5.73-3.46-11.61-3-17.57s3.64-12.09,9.18-14.32c8.76-3.54,17.93,3.76,24.2,10.83a237.06,237.06,0,0,1,16.16,20.42,8,8,0,0,1,1.42-.92c-12.69-30.13-15.63-65.23-10.55-97.2,1.1-6.91,3.91-15.07,10.77-16.43,4.32-.85,8.58,1.46,12.29,3.84a169.24,169.24,0,0,1,58.68,64.61c.26-.16.52-.32.8-.46-2.67-7.95-4.46-16.13-4.2-24.5a37.29,37.29,0,0,1,5.22-17.78c3.76-6.24,9.39-11.09,16.49-12.59,29.63-6.25,39.41,36,42.29,57,.86,6.28,1.19,12.94-1.5,18.67-2.79,5.94-8.39,10-13.81,13.69S200.49,462.22,197.4,468c-9.71,18.24,11.1,20.75,23.35,19.92,3.75-.25,7.54-.73,11.34-1.23s7.53-1,11.3-1.44c9.34-1,18.67-1.16,27.68,2.17,8.08,3,14.71,8.49,20.3,15.12A105.11,105.11,0,0,1,303,520c21.06,38.73,29,83,36.58,126.45.3,1.7.53,3.4.76,5.1.23-1.7.46-3.4.76-5.1C348.67,603,356.57,558.73,377.64,520a104.49,104.49,0,0,1,11.59-17.45c5.58-6.63,12.22-12.13,20.3-15.12,9-3.33,18.33-3.17,27.68-2.17,3.77.4,7.54.93,11.29,1.44s7.59,1,11.34,1.23c12.25.83,33.06-1.68,23.35-19.92-3.08-5.79-8.76-9.66-14.17-13.37S458,446.89,455.2,441c-2.69-5.73-2.35-12.39-1.49-18.67,2.88-21,12.65-63.25,42.29-57,7.1,1.5,12.73,6.35,16.48,12.59a37.29,37.29,0,0,1,5.22,17.78c.27,8.74-1.67,17.27-4.54,25.55a7.17,7.17,0,0,1,.69.3A169.29,169.29,0,0,1,573,356c3.7-2.38,8-4.69,12.28-3.84,6.86,1.36,9.67,9.52,10.77,16.43,5.18,32.52,2.05,68.3-11.21,98.78A7.75,7.75,0,0,1,586,468a239.19,239.19,0,0,1,17.05-21.67c6.27-7.07,15.44-14.37,24.2-10.83,5.55,2.23,8.72,8.37,9.18,14.32s-1.27,11.84-3,17.57c-12.4,41.26-25.29,84.08-46.86,121.43a8.41,8.41,0,0,1,1.14,1C643.27,521.14,673.26,432.19,670.31,343.92ZM357.08,166.42a11.33,11.33,0,0,1,13.32-5.65,27.22,27.22,0,0,1-5,18.45,3.67,3.67,0,0,1-2.46,1.8,3.29,3.29,0,0,1-1.93-.67A11.33,11.33,0,0,1,357.08,166.42Zm-39.49,12.29a11.64,11.64,0,0,1,6.2-4.78,17,17,0,0,1,16.77,3.27c2.66,2.38,4.5,6.61,2.34,9.46S336.52,189,333,189c-2.74.06-5.47.65-8.21.56s-5.68-1-7.22-3.29A7.25,7.25,0,0,1,317.59,178.71ZM608.91,425.58a397.1,397.1,0,0,0-3.82-152.42c-3.73-16.61-8.54-33-13.35-49.29q-5.72-19.41-11.42-38.82c-5.65,17.32-.86,36.16-1.71,54.36-.39,8.17-2,16.22-3.75,24.22s-3.54,16.05-5.44,24.05c-6.84,28.86-15.11,58.21-32.76,82.06,21.4-67,32.53-139.67,17.52-208.39-1.37-6.26-3.09-12.73-8.22-17a12,12,0,0,0-8.81-2.94c-6.89.73-9.79,7.35-11.9,13.24q-6.88,19.19-12.77,38.7a824.45,824.45,0,0,0-20.84,84.16c-3.22,16.77-7.29,35.74-21.94,44.51a31.84,31.84,0,0,1-21.2,3.83,34.37,34.37,0,0,1-9.67-3c-.56-.27-1.08-.6-1.62-.9a42.27,42.27,0,0,1-18.94-22.8A121.7,121.7,0,0,1,393,393.75c12,2.87,22.46-14.54,35.35-5.9a20.51,20.51,0,0,1,8.24,12.22c.2.81.41,1.62.62,2.43,3.7,14.46,8.3,30,4.23,44.59a12.55,12.55,0,0,0-.77,4.59c.39,3.77,4.05,5.59,7.83,7.05,1.25.48,2.51.93,3.68,1.39A24.81,24.81,0,0,1,464,470c.8,1.27,1.49,2.87.86,4.24-.83,1.81-3.3,2-5.29,1.85-3.71-.25-7.41-.66-11.09-1.19q-3.47-.5-6.92-1.15a36.13,36.13,0,0,1-4.37-1.06,15.07,15.07,0,0,1-3.74-1.71c-2.9-1.89-4.82-4.91-6.75-7.78-8.43-12.54-21.37-25.29-38.34-16.39a34.52,34.52,0,0,0-10.87,9.29,158,158,0,0,0-30.11,63c-.4,1.76-4.68,39.35-7.1,55.75-2.42-16.4-6.71-54-7.1-55.75a158.13,158.13,0,0,0-30.11-63,34.45,34.45,0,0,0-10.88-9.29c-17-8.9-29.9,3.85-38.33,16.39-1.93,2.87-3.86,5.89-6.76,7.78a15,15,0,0,1-3.73,1.71,36.75,36.75,0,0,1-4.38,1.06q-3.44.66-6.92,1.15c-3.67.53-7.37.94-11.08,1.19-2,.14-4.46,0-5.3-1.85-.63-1.37.07-3,.86-4.24a24.83,24.83,0,0,1,11.85-9.87c1.16-.46,2.43-.91,3.67-1.39,3.79-1.46,7.45-3.28,7.84-7.05a12.56,12.56,0,0,0-.78-4.59c-4.06-14.57.54-30.13,4.24-44.59.2-.81.41-1.62.61-2.43a20.56,20.56,0,0,1,8.25-12.22c12.88-8.64,23.34,8.77,35.34,5.9a121.74,121.74,0,0,1-25.27-94.6A42.3,42.3,0,0,1,243.39,322c-.55.3-1.07.63-1.63.9a34.37,34.37,0,0,1-9.67,3A31.82,31.82,0,0,1,210.9,322c-14.65-8.77-18.72-27.74-21.94-44.51a821.88,821.88,0,0,0-20.85-84.16q-5.91-19.5-12.76-38.7c-2.12-5.89-5-12.51-11.91-13.24a12,12,0,0,0-8.8,2.94c-5.13,4.28-6.86,10.75-8.22,17-15,68.72-3.89,141.38,17.51,208.39-17.64-23.85-25.92-53.2-32.76-82.06q-2.83-12-5.43-24.05c-1.73-8-3.37-16-3.75-24.22-.86-18.2,3.93-37-1.71-54.36L88.85,223.87c-4.8,16.33-9.61,32.68-13.34,49.29a396.9,396.9,0,0,0-3.82,152.42C49.5,373.44,44.49,314.35,56.44,259S97.1,152.08,137.12,112c14.8,6.83,23.73,21,30.83,35.69.06.12.11.24.16.36,7,14.57,11.37,30.27,17.83,45.08,3.58,8.21,7.8,16.13,12,24,7.56,14.19,15.36,28.7,27.37,39.39a57.25,57.25,0,0,0,6.77,5.19,45.71,45.71,0,0,0,11.3,5.37,32.53,32.53,0,0,0,13.48,1.36c11.9-1.43,21.89-9.92,33.64-12.28,9.68-1.94,21.93-.63,27.1-9,3.19-5.19,2.76-13.16,8.28-15.72,6.68,8.86,3.11,23.49-6.9,28.27-4.85,2.32-10.55,2.5-15.23,5.12-4.32,2.41-7.3,6.63-9.81,10.89-11.39,19.35-15.56,42.62-12.51,64.8,3.3,24,15.79,46,24.65,68.19a9.21,9.21,0,0,1,1,4.58c-.21,1.56-1.54,3.09-3.12,2.94s-2.55-1.85-3.52-3.17c-2.49-3.36-6.66-5.08-10.78-5.83a31.88,31.88,0,0,0-37.18,26.47,3.06,3.06,0,0,0,3.33,3.73c3.47-.21,6.69-.46,9.76-2.14,6.16-3.34,12.31-6.88,19.08-8.65s14.39-1.6,20.29,2.18c3.91,2.51,6.75,6.37,9.33,10.23a180.77,180.77,0,0,1,26.06,60.85A181.29,181.29,0,0,1,361.92,446a77.67,77.67,0,0,1,5.24-9.82c2.13-3.37,4.6-6.8,4.9-10.78a45.69,45.69,0,0,0-.2-5.09,26.89,26.89,0,0,1,2.79-12c8.86-22.1,21.22-44,24.5-67.83,3.05-22.18-1.12-45.45-12.51-64.8-2.51-4.26-5.49-8.48-9.8-10.89-4.69-2.62-10.39-2.8-15.23-5.12-10-4.78-13.59-19.41-6.91-28.27,5.52,2.56,5.1,10.53,8.28,15.72,5.17,8.41,17.43,7.1,27.11,9,11.75,2.36,21.74,10.85,33.63,12.28a32.6,32.6,0,0,0,13.49-1.36,45.65,45.65,0,0,0,11.29-5.37,56.55,56.55,0,0,0,6.78-5.19c12-10.69,19.81-25.2,27.36-39.39,4.22-7.9,8.43-15.82,12-24,6.46-14.81,10.83-30.51,17.83-45.08l.17-.36c7.1-14.67,16-28.86,30.83-35.69,40,40.12,68.72,91.61,80.68,147S631.09,373.44,608.91,425.58Z"/><path d="M0,850.15H4.91V868.5h.17c1-1.47,2-2.82,3-4.06L19.7,850.15h6.1L12,866.3l14.85,21.9H21.06L8.58,869.52l-3.67,4.17V888.2H0Z"/><path d="M55.15,874.31c0,10.11-7,14.51-13.6,14.51-7.34,0-13.1-5.42-13.1-14.05,0-9.09,6-14.45,13.55-14.45C49.85,860.32,55.15,866,55.15,874.31Zm-21.62.29c0,6,3.39,10.5,8.25,10.5s8.29-4.46,8.29-10.62c0-4.63-2.31-10.44-8.18-10.44S33.53,869.46,33.53,874.6Z"/><path d="M61.42,848.12h5V888.2h-5Z"/><path d="M74.74,848.12h5V888.2h-5Z"/><path d="M90.83,875.44c.11,6.72,4.35,9.49,9.37,9.49a17.81,17.81,0,0,0,7.57-1.41l.9,3.55a22.26,22.26,0,0,1-9.14,1.75c-8.42,0-13.44-5.59-13.44-13.83s4.85-14.67,12.81-14.67c9,0,11.29,7.79,11.29,12.81a12.39,12.39,0,0,1-.16,2.31Zm14.57-3.55c0-3.11-1.3-8-6.89-8-5.08,0-7.23,4.57-7.62,8Zm1.13-22.81-6.89,8.07h-3.5l5-8.07Z"/><path d="M139.72,884.19c0,6.33-1.3,10.11-3.9,12.54s-6.54,3.27-10,3.27c-3.27,0-6.88-.79-9.09-2.26L118,893.9a14.78,14.78,0,0,0,8,2.21c5.08,0,8.81-2.66,8.81-9.6v-3h-.11a9.69,9.69,0,0,1-8.7,4.57c-6.77,0-11.63-5.76-11.63-13.32,0-9.26,6-14.45,12.37-14.45,4.74,0,7.28,2.42,8.52,4.68h.11l.17-4.12H140c-.17,1.92-.23,4.18-.23,7.45Zm-5-12.53a6.43,6.43,0,0,0-.28-2.2,7.08,7.08,0,0,0-6.94-5.31c-4.75,0-8.13,4-8.13,10.33,0,5.37,2.76,9.83,8.07,9.83a7.17,7.17,0,0,0,6.89-5.08,8.75,8.75,0,0,0,.39-2.66Z"/><path d="M153.1,853.2a3,3,0,0,1-3.16,3,2.91,2.91,0,0,1-3-3,3,3,0,0,1,3.1-3.1A3,3,0,0,1,153.1,853.2Zm-5.53,35V860.88h5V888.2Z"/><path d="M183.64,880.69c0,2.88.06,5.37.23,7.51h-4.41l-.28-4.46h-.11a10.23,10.23,0,0,1-9,5.08c-4.29,0-9.42-2.42-9.42-12v-16h5V876c0,5.2,1.64,8.75,6.1,8.75a7.14,7.14,0,0,0,6.55-4.57,6.87,6.87,0,0,0,.45-2.54V860.88h5Z"/><path d="M191.88,868.27c0-2.87-.11-5.13-.22-7.39H196l.23,4.46h.17a9.43,9.43,0,0,1,8.64-5,8,8,0,0,1,7.67,5.47h.12a10.74,10.74,0,0,1,3.1-3.56,9.19,9.19,0,0,1,6-1.91c3.66,0,9,2.37,9,11.85v16h-4.86V872.79c0-5.31-2-8.41-5.92-8.41a6.53,6.53,0,0,0-5.93,4.46,8.31,8.31,0,0,0-.4,2.48V888.2H209V871.83c0-4.35-1.92-7.45-5.7-7.45-3,0-5.37,2.48-6.16,5a6.7,6.7,0,0,0-.39,2.43V888.2h-4.86Z"/><path d="M244.5,853.2a3,3,0,0,1-3.16,3,2.92,2.92,0,0,1-3-3,3,3,0,0,1,3.11-3.1A3,3,0,0,1,244.5,853.2Zm-5.53,35V860.88h5V888.2Z"/><path d="M264.26,850.15h20.49v4.12H269.22v12.65h14.34V871H269.22V888.2h-5Z"/><path d="M292.65,875.44c.11,6.72,4.35,9.49,9.37,9.49a17.81,17.81,0,0,0,7.57-1.41l.9,3.55a22.26,22.26,0,0,1-9.14,1.75c-8.42,0-13.44-5.59-13.44-13.83s4.85-14.67,12.81-14.67c9,0,11.29,7.79,11.29,12.81a12.39,12.39,0,0,1-.16,2.31Zm14.57-3.55c0-3.11-1.3-8-6.89-8-5.08,0-7.23,4.57-7.62,8Z"/><path d="M318.17,848.12h5V888.2h-5Z"/><path d="M333.41,860.88l5.36,15.3c.91,2.54,1.64,4.8,2.21,7.05h.16c.63-2.25,1.42-4.51,2.32-7.05l5.3-15.3H354L343.23,888.2h-4.74L328.1,860.88Z"/><path d="M360.85,875.44c.11,6.72,4.34,9.49,9.37,9.49a17.75,17.75,0,0,0,7.56-1.41l.91,3.55a22.28,22.28,0,0,1-9.15,1.75c-8.41,0-13.44-5.59-13.44-13.83s4.86-14.67,12.82-14.67c9,0,11.29,7.79,11.29,12.81a12.23,12.23,0,0,1-.17,2.31Zm14.56-3.55c.06-3.11-1.3-8-6.89-8-5.08,0-7.22,4.57-7.62,8Zm1.13-22.81-6.89,8.07h-3.5l5-8.07Z"/><path d="M392.35,854.33v6.55h7.11v3.78h-7.11V879.4c0,3.38,1,5.3,3.72,5.3a9.11,9.11,0,0,0,2.88-.34l.23,3.79a13.59,13.59,0,0,1-4.41.67,7.09,7.09,0,0,1-5.36-2.09c-1.35-1.52-1.92-4-1.92-7.16V864.66h-4.23v-3.78h4.23V855.8Z"/><path d="M407.48,875.44c.11,6.72,4.34,9.49,9.37,9.49a17.79,17.79,0,0,0,7.56-1.41l.91,3.55a22.28,22.28,0,0,1-9.15,1.75c-8.41,0-13.44-5.59-13.44-13.83s4.86-14.67,12.82-14.67c9,0,11.29,7.79,11.29,12.81a12.23,12.23,0,0,1-.17,2.31ZM422,871.89c.06-3.11-1.3-8-6.89-8-5.08,0-7.22,4.57-7.62,8Z"/><path d="M433,848.12h5V888.2h-5Z"/><path d="M451.85,853.2a3,3,0,0,1-3.16,3,2.91,2.91,0,0,1-3-3,3,3,0,0,1,3.1-3.1A3,3,0,0,1,451.85,853.2Zm-5.54,35V860.88h5V888.2Z"/><path d="M471.66,850.72a43.12,43.12,0,0,1,9-.85c4.91,0,8.07.85,10.39,2.77a8,8,0,0,1,3.21,6.72c0,3.72-2.48,6.94-6.43,8.35v.17c3.61.85,7.84,3.84,7.84,9.48a10,10,0,0,1-3.27,7.62c-2.6,2.43-6.89,3.56-13.1,3.56a58.62,58.62,0,0,1-7.62-.45Zm4.91,15.58H481c5.14,0,8.19-2.77,8.19-6.44,0-4.4-3.33-6.21-8.3-6.21a21,21,0,0,0-4.35.34Zm0,18.18a26.83,26.83,0,0,0,4.13.22c5.08,0,9.76-1.86,9.76-7.39,0-5.14-4.46-7.34-9.82-7.34h-4.07Z"/><path d="M507.62,853.2a3,3,0,0,1-3.16,3,2.92,2.92,0,0,1-3-3,3,3,0,0,1,3.1-3.1A3,3,0,0,1,507.62,853.2Zm-5.53,35V860.88h5V888.2Z"/><path d="M512.2,885.32l12.3-16.09c1.24-1.52,2.37-2.82,3.62-4.29v-.11h-14.8v-4H534.1V864l-12.19,15.86c-1.19,1.52-2.26,2.93-3.51,4.29v.11h15.92v4H512.2Z"/><path d="M563.79,874.31c0,10.11-7,14.51-13.6,14.51-7.34,0-13.1-5.42-13.1-14.05,0-9.09,6-14.45,13.55-14.45C558.49,860.32,563.79,866,563.79,874.31Zm-21.62.29c0,6,3.39,10.5,8.24,10.5s8.3-4.46,8.3-10.62c0-4.63-2.31-10.44-8.18-10.44S542.17,869.46,542.17,874.6Z"/><path d="M576,854.33v6.55h7.12v3.78H576V879.4c0,3.38,1,5.3,3.73,5.3a9.2,9.2,0,0,0,2.88-.34l.22,3.79a13.52,13.52,0,0,1-4.4.67,7.07,7.07,0,0,1-5.36-2.09c-1.36-1.52-1.92-4-1.92-7.16V864.66H567v-3.78h4.24V855.8Z"/><path d="M594.73,854.33v6.55h7.11v3.78h-7.11V879.4c0,3.38,1,5.3,3.73,5.3a9.2,9.2,0,0,0,2.88-.34l.22,3.79a13.52,13.52,0,0,1-4.4.67,7.09,7.09,0,0,1-5.37-2.09c-1.35-1.52-1.91-4-1.91-7.16V864.66h-4.24v-3.78h4.24V855.8Z"/><path d="M606.76,883.18a14,14,0,0,0,6.6,1.92c3.56,0,5.25-1.75,5.25-4.07s-1.41-3.61-5-5c-5-1.8-7.29-4.45-7.29-7.73,0-4.4,3.62-8,9.43-8a12.67,12.67,0,0,1,6.66,1.69l-1.18,3.61a10.6,10.6,0,0,0-5.59-1.63c-2.94,0-4.52,1.69-4.52,3.72,0,2.26,1.58,3.27,5.14,4.69,4.68,1.75,7.17,4.12,7.17,8.18,0,4.86-3.78,8.24-10.16,8.24a15.56,15.56,0,0,1-7.68-1.92Z"/><path d="M649,881.65a44.61,44.61,0,0,0,.4,6.55h-4.46l-.4-3.44h-.17a10.18,10.18,0,0,1-8.35,4.06c-5.54,0-8.36-3.89-8.36-7.84,0-6.61,5.87-10.22,16.43-10.16v-.57c0-2.2-.62-6.32-6.21-6.26a13.15,13.15,0,0,0-7.17,2l-1.13-3.33a17.61,17.61,0,0,1,9-2.37c8.36,0,10.39,5.7,10.39,11.12Zm-4.8-7.39c-5.42-.11-11.57.84-11.57,6.15a4.35,4.35,0,0,0,4.63,4.74,6.91,6.91,0,0,0,6.72-4.57,5.54,5.54,0,0,0,.22-1.58Zm2.49-25.18-6.89,8.07h-3.5l4.91-8.07Z"/><path d="M680.37,884.19c0,6.33-1.3,10.11-3.9,12.54s-6.54,3.27-10,3.27c-3.27,0-6.88-.79-9.09-2.26l1.24-3.84a14.85,14.85,0,0,0,8,2.21c5.08,0,8.81-2.66,8.81-9.6v-3h-.12a9.67,9.67,0,0,1-8.69,4.57c-6.77,0-11.63-5.76-11.63-13.32,0-9.26,6-14.45,12.37-14.45,4.74,0,7.28,2.42,8.52,4.68H676l.17-4.12h4.4c-.16,1.92-.22,4.18-.22,7.45Zm-5-12.53a6.68,6.68,0,0,0-.28-2.2,7.09,7.09,0,0,0-6.94-5.31c-4.75,0-8.13,4-8.13,10.33,0,5.37,2.76,9.83,8.07,9.83a7.17,7.17,0,0,0,6.89-5.08,8.75,8.75,0,0,0,.39-2.66Z"/></g></svg>