<svg width="2835" height="2005" viewBox="0 0 2835 2005" fill="none" xmlns="http://www.w3.org/2000/svg">
<g clip-path="url(#clip0_2_32)">
<path d="M1574.37 109.54C1626.88 109.54 1679.53 108.35 1732.02 109.75C1751.96 110.275 1771.87 111.864 1791.64 114.51L1777.09 112.51C1816.59 117.89 1855.47 127.73 1892.28 143.15L1879.2 137.63C1907.96 149.646 1935.07 165.297 1959.86 184.2L1948.78 175.64C1970.06 192.019 1989.18 211.039 2005.66 232.24L1997.09 221.16C2012.14 240.671 2024.64 262.024 2034.29 284.7L2028.77 271.62C2038.11 293.737 2044.5 316.987 2047.77 340.77C2047.1 335.91 2046.44 331.057 2045.77 326.21C2048.85 349.335 2048.85 372.765 2045.77 395.89C2046.44 391.037 2047.1 386.183 2047.77 381.33C2044.7 403.765 2038.71 425.704 2029.96 446.59L2035.48 433.5C2026.57 454.519 2015 474.313 2001.07 492.4L2009.63 481.31C1994.49 500.777 1976.95 518.249 1957.42 533.31L1968.5 524.75C1944.86 542.781 1919.01 557.706 1891.57 569.16L1904.65 563.64C1867.15 579.38 1827.45 589.2 1787.2 594.64L1801.76 592.64C1769.12 596.96 1736.4 597.87 1703.53 597.87H1574.37C1544.51 597.87 1519.6 622.79 1519.6 652.64C1519.6 682.49 1544.51 707.41 1574.37 707.41C1625.17 707.41 1675.99 707.83 1726.78 707.41C1816.86 706.61 1909.23 688.78 1987.93 643.35C2048.37 608.46 2101.54 555.02 2129.37 490.35C2136.78 473.13 2143.61 455.97 2148.15 437.76C2152.69 419.55 2155.22 401.02 2156.78 382.49C2159.51 350.02 2155.9 316.55 2148.37 284.94C2132.56 218.57 2093.71 156.82 2042.77 111.79C1981.66 57.79 1905.04 23.69 1824.95 9.78998C1787.03 3.22432 1748.61 -0.0512043 1710.13 -1.96917e-05H1574.37C1544.52 -1.96917e-05 1519.6 24.92 1519.6 54.77C1519.6 84.62 1544.52 109.54 1574.37 109.54Z" fill="white"/>
<path d="M1243.91 599.21C1137.56 599.566 1033.68 631.275 945.26 690.37C856.597 750.149 785.312 832.305 738.63 928.51C694.526 1019.64 671.562 1119.56 671.45 1220.8C671.45 1250.65 696.4 1275.57 726.23 1275.57C756.06 1275.57 781 1250.65 781 1220.8C781.023 1192.68 782.907 1164.59 786.64 1136.72L784.69 1151.28C791.902 1098.22 806.077 1046.35 826.85 997L821.33 1010.08C840.626 964.531 865.651 921.628 895.8 882.41L887.23 893.5C915.477 856.937 948.245 824.102 984.75 795.78L973.66 804.35C1007.88 777.964 1045.32 756.041 1085.07 739.11L1072 744.63C1111.26 728.096 1152.52 716.805 1194.73 711.05L1180.17 713.05C1201.31 710.253 1222.61 708.837 1243.93 708.81C1273.78 708.81 1298.7 683.93 1298.7 654.04C1298.7 624.15 1273.78 599.22 1243.92 599.26L1243.91 599.21Z" fill="white"/>
<path d="M1353.69 54.77V1220.77C1353.69 1250.62 1378.61 1275.54 1408.46 1275.54C1438.31 1275.54 1463.24 1250.62 1463.24 1220.77V54.77C1463.24 24.92 1438.32 0 1408.46 0C1378.6 0 1353.69 24.91 1353.69 54.77Z" fill="white"/>
<path d="M671.31 54.79C671.45 170.14 698.43 284.47 751.31 387.06C799.81 481.22 872.43 563.06 961.09 621.11C1045.22 675.948 1143.39 705.335 1243.81 705.74C1273.67 705.74 1298.59 680.74 1298.59 650.97C1298.59 621.2 1273.67 596.25 1243.81 596.2C1223.54 596.183 1203.29 594.846 1183.19 592.2L1197.75 594.2C1157.44 588.703 1118.03 577.945 1080.52 562.2L1093.61 567.72C1054.01 550.901 1016.75 529.037 982.75 502.67L993.84 511.24C957.212 482.658 924.313 449.597 895.91 412.83L904.47 423.91C872.281 382.032 845.615 336.185 825.13 287.5L830.66 300.59C808.208 246.924 792.901 190.542 785.13 132.89L787 147.36C782.904 116.673 780.836 85.7492 780.81 54.79C780.82 24.93 756 0 726.08 0C696.16 0 671.28 24.91 671.31 54.77V54.79Z" fill="#F15A29"/>
<path d="M2170.1 1220.8C2169.95 1109.38 2140.96 998.55 2085.64 901.8C2033.03 809.8 1955.84 731.21 1864.32 677.68C1776.25 626.416 1676.22 599.307 1574.32 599.09C1544.46 599.09 1519.55 624.04 1519.55 653.86C1519.55 683.68 1544.47 708.59 1574.32 708.63C1597.68 708.66 1621.02 710.23 1644.18 713.33L1629.62 711.33C1675.17 717.574 1719.69 729.796 1762.04 747.68L1749 742.18C1791.11 760.126 1830.76 783.36 1867 811.32L1855.91 802.75C1893.36 831.819 1926.99 865.502 1956 903L1947.43 891.92C1977.76 931.276 2002.89 974.374 2022.21 1020.15L2016.69 1007.07C2036.68 1054.78 2050.31 1104.92 2057.22 1156.19C2056.55 1151.34 2055.89 1146.48 2055.22 1141.63C2058.69 1167.89 2060.45 1194.35 2060.48 1220.84C2060.48 1250.69 2085.36 1275.61 2115.25 1275.61C2145.14 1275.61 2170.06 1250.69 2170.02 1220.84L2170.1 1220.8Z" fill="#F15A29"/>
<path d="M715.44 1927.08L702.45 1872.27H684.86L671.74 1926.87L656.2 1872.27H633.68L662.36 1966.69H683.26L693.97 1922.48L704.94 1966.69H725.11L753.79 1872.27H731.29L715.44 1927.08Z" fill="#F15A29"/>
<path d="M824.68 1878.34L824.59 1878.27C820.989 1875.79 816.93 1874.05 812.65 1873.16C807.936 1872.01 803.102 1871.42 798.25 1871.41C793.537 1871.36 788.85 1872.11 784.39 1873.63C780.31 1875.04 776.565 1877.28 773.39 1880.21C770.267 1883.13 767.829 1886.71 766.25 1890.68C764.599 1894.88 763.774 1899.36 763.82 1903.88V1938.8C764.08 1949.28 767.41 1957.04 773.7 1961.8C779.7 1966.38 787.63 1968.7 797.37 1968.7C803.191 1968.68 808.98 1967.84 814.57 1966.22C820.213 1964.62 825.633 1962.31 830.7 1959.36L834.33 1957.24L825 1940L821.19 1942C817.35 1944.05 813.291 1945.66 809.09 1946.79C805.505 1947.78 801.808 1948.31 798.09 1948.36C794.611 1948.51 791.169 1947.61 788.21 1945.77C786.92 1944.89 785.21 1943.19 785.21 1938.65V1935L836.59 1931.23V1905.07C836.646 1900.28 835.913 1895.52 834.42 1890.97C832.82 1886.42 829.56 1882.17 824.68 1878.34ZM785.18 1914.63V1903.88C785.069 1901.74 785.524 1899.61 786.5 1897.7C787.323 1896.24 788.49 1895.01 789.9 1894.11C791.434 1893.17 793.13 1892.52 794.9 1892.2C796.826 1891.81 798.785 1891.61 800.75 1891.59C802.31 1891.63 803.863 1891.8 805.39 1892.12C807.065 1892.45 808.667 1893.07 810.12 1893.97C811.82 1894.97 813.201 1896.43 814.106 1898.19C815.01 1899.94 815.4 1901.91 815.23 1903.88V1912.37L785.18 1914.63Z" fill="#F15A29"/>
<path d="M925.6 1881C922.564 1878.2 919.03 1875.98 915.18 1874.48C911.144 1872.9 906.845 1872.1 902.51 1872.12V1872.12C897.197 1872.01 891.889 1872.53 886.7 1873.68C884.033 1874.26 881.63 1874.83 879.49 1875.38V1838H859V1842.3C858.88 1853.96 858.76 1864.58 858.65 1874.24C858.65 1878.24 858.65 1882.24 858.56 1886.24C858.5 1890.01 858.47 1893.67 858.47 1897.11V1966.26L862.37 1966.67C866.78 1967.13 871.58 1967.57 876.64 1967.97C881.7 1968.37 886.99 1968.58 891.94 1968.58C896.768 1968.59 901.59 1968.26 906.37 1967.58C910.675 1967.05 914.853 1965.76 918.71 1963.77C923.75 1961.18 928.017 1957.31 931.08 1952.55C933.97 1947.93 935.43 1941.99 935.43 1934.9V1904.04C935.474 1899.57 934.564 1895.13 932.76 1891.04C931.066 1887.25 928.632 1883.84 925.6 1881V1881ZM900.77 1892.29C903.264 1892.41 905.715 1892.99 908 1894C909.819 1894.82 911.371 1896.14 912.48 1897.8C913.675 1899.84 914.242 1902.18 914.11 1904.54V1936.78C914.11 1940.05 913.19 1942.42 911.32 1944.02C908.728 1946.14 905.671 1947.62 902.4 1948.33C898.39 1949.25 894.285 1949.7 890.17 1949.67H889.38C885.93 1949.67 882.63 1949.5 879.52 1949.27V1895.27C880.67 1894.86 881.99 1894.47 883.45 1894.09C886.292 1893.38 889.174 1892.84 892.08 1892.48C894.963 1892.13 897.873 1892.06 900.77 1892.27V1892.29Z" fill="#F15A29"/>
<path d="M1074.7 1861.53C1074.7 1863.82 1074.7 1866.18 1074.61 1868.53C1074.52 1870.88 1074.52 1872.99 1074.52 1874.91V1875.37C1072.32 1874.8 1069.92 1874.23 1067.31 1873.66C1062.61 1872.62 1057.81 1872.09 1053 1872.08H1051.6C1047.23 1872.05 1042.9 1872.85 1038.83 1874.44C1034.98 1875.94 1031.45 1878.16 1028.41 1880.96C1025.26 1883.91 1022.75 1887.48 1021.06 1891.46C1019.37 1895.43 1018.52 1899.71 1018.58 1904.03V1934.89C1018.58 1941.98 1020.04 1947.89 1022.93 1952.54C1025.98 1957.3 1030.24 1961.16 1035.27 1963.74C1039.13 1965.74 1043.32 1967.04 1047.64 1967.57C1052.42 1968.25 1057.24 1968.58 1062.07 1968.57C1067 1968.57 1072.07 1968.36 1077.28 1967.96C1082.49 1967.56 1087.15 1967.12 1091.63 1966.66L1095.54 1966.26V1838H1075.13L1074.7 1861.53ZM1056.42 1892.16C1058.27 1892.16 1060.12 1892.27 1061.96 1892.5C1064.87 1892.86 1067.75 1893.4 1070.59 1894.12C1072.05 1894.49 1073.37 1894.88 1074.53 1895.29V1949.29C1071.35 1949.52 1068.02 1949.66 1064.53 1949.7H1063.77C1059.68 1949.73 1055.6 1949.28 1051.61 1948.36C1048.34 1947.66 1045.28 1946.18 1042.69 1944.05C1040.81 1942.45 1039.9 1940.05 1039.9 1936.81V1904.57C1039.77 1902.22 1040.34 1899.87 1041.53 1897.84C1042.63 1896.17 1044.18 1894.84 1046 1894C1048.27 1892.98 1050.71 1892.39 1053.19 1892.25C1054.29 1892.19 1055.37 1892.16 1056.42 1892.16Z" fill="#F15A29"/>
<path d="M1173.93 1878.34L1173.83 1878.27C1170.23 1875.79 1166.17 1874.06 1161.89 1873.16C1157.18 1872.01 1152.34 1871.42 1147.49 1871.41C1142.78 1871.36 1138.09 1872.11 1133.63 1873.63C1129.55 1875.05 1125.81 1877.29 1122.63 1880.21C1119.51 1883.13 1117.07 1886.71 1115.49 1890.68C1113.84 1894.88 1113.02 1899.37 1113.07 1903.88V1938.8C1113.33 1949.28 1116.66 1957.04 1122.95 1961.8C1128.95 1966.38 1136.88 1968.7 1146.62 1968.7C1152.44 1968.68 1158.23 1967.84 1163.82 1966.22C1169.46 1964.62 1174.88 1962.31 1179.95 1959.36L1183.58 1957.24L1174.26 1939.98L1170.45 1941.98C1166.62 1944.03 1162.56 1945.64 1158.36 1946.77C1154.77 1947.76 1151.08 1948.28 1147.36 1948.34C1143.88 1948.49 1140.44 1947.59 1137.49 1945.75C1136.19 1944.87 1134.49 1943.17 1134.49 1938.63V1935L1185.86 1931.23V1905.07C1185.91 1900.28 1185.18 1895.52 1183.69 1890.97C1182.06 1886.42 1178.8 1882.17 1173.93 1878.34ZM1134.42 1914.63V1903.88C1134.31 1901.74 1134.76 1899.61 1135.74 1897.7C1136.56 1896.24 1137.73 1895.01 1139.14 1894.11C1140.67 1893.17 1142.37 1892.52 1144.14 1892.2C1146.07 1891.81 1148.03 1891.61 1149.99 1891.59C1151.55 1891.63 1153.1 1891.8 1154.63 1892.12C1156.3 1892.45 1157.91 1893.07 1159.36 1893.97C1160.86 1894.91 1162.12 1896.17 1163.06 1897.67C1164.1 1899.57 1164.59 1901.72 1164.47 1903.88V1912.37L1134.42 1914.63Z" fill="#F15A29"/>
<path d="M1239.88 1930.21L1221.95 1872.27H1199.1L1228.75 1966.69H1250.78L1280.81 1872.27H1257.95L1239.88 1930.21Z" fill="#F15A29"/>
<path d="M1350.05 1878.34L1349.95 1878.27C1346.35 1875.79 1342.29 1874.05 1338.01 1873.16C1333.3 1872.01 1328.46 1871.42 1323.61 1871.41C1318.9 1871.36 1314.21 1872.11 1309.75 1873.63C1305.67 1875.05 1301.93 1877.29 1298.75 1880.21C1295.63 1883.13 1293.19 1886.71 1291.61 1890.68C1289.96 1894.88 1289.14 1899.37 1289.19 1903.88V1938.8C1289.45 1949.28 1292.78 1957.04 1299.07 1961.8C1305.07 1966.38 1313 1968.7 1322.74 1968.7C1328.56 1968.68 1334.36 1967.84 1339.95 1966.22C1345.59 1964.62 1351.01 1962.31 1356.07 1959.36L1359.7 1957.24L1350.38 1939.98L1346.57 1941.98C1342.74 1944.03 1338.68 1945.64 1334.48 1946.77C1330.89 1947.76 1327.2 1948.28 1323.48 1948.34C1320 1948.49 1316.56 1947.59 1313.61 1945.75C1312.31 1944.87 1310.61 1943.17 1310.61 1938.63V1935L1361.98 1931.23V1905.07C1362.04 1900.28 1361.3 1895.52 1359.81 1890.97C1358.18 1886.42 1354.92 1882.17 1350.05 1878.34ZM1310.54 1914.63V1903.88C1310.43 1901.74 1310.88 1899.61 1311.86 1897.7C1312.68 1896.24 1313.85 1895.01 1315.26 1894.11C1316.8 1893.17 1318.49 1892.52 1320.26 1892.2C1322.19 1891.81 1324.15 1891.61 1326.11 1891.59C1327.67 1891.63 1329.22 1891.8 1330.75 1892.12C1332.42 1892.45 1334.03 1893.07 1335.48 1893.97C1337.18 1894.97 1338.56 1896.43 1339.47 1898.19C1340.37 1899.94 1340.76 1901.91 1340.59 1903.88V1912.37L1310.54 1914.63Z" fill="#F15A29"/>
<path d="M1406.95 1837.98H1385.41V1966.7H1406.95V1837.98Z" fill="#F15A29"/>
<path d="M1495.34 1886.7C1493.69 1883.93 1491.59 1881.45 1489.13 1879.36C1486.75 1877.4 1484.09 1875.8 1481.24 1874.62C1478.54 1873.59 1475.75 1872.8 1472.91 1872.26C1466.45 1871.12 1459.83 1871.12 1453.37 1872.26C1450.71 1872.79 1448.11 1873.59 1445.62 1874.65C1442.8 1875.82 1440.16 1877.39 1437.78 1879.31C1435.26 1881.39 1433.1 1883.86 1431.38 1886.64C1429.43 1889.84 1428 1893.34 1427.15 1896.99C1426.13 1901.38 1425.64 1905.87 1425.7 1910.38V1931.65C1425.7 1942.57 1428.88 1951.51 1435.14 1958.19C1441.4 1964.87 1451.02 1968.4 1463.48 1968.4C1476.48 1968.4 1486.02 1965.06 1491.95 1958.47C1497.01 1952.87 1499.95 1945.32 1500.57 1935.99H1500.73V1910.38C1500.79 1905.87 1500.34 1901.36 1499.38 1896.95C1498.58 1893.34 1497.21 1889.88 1495.34 1886.7ZM1447.06 1933V1908.65C1446.97 1905.8 1447.47 1902.96 1448.53 1900.31C1449.37 1898.33 1450.62 1896.56 1452.2 1895.1C1453.64 1893.81 1455.35 1892.87 1457.2 1892.33C1459.23 1891.72 1461.33 1891.4 1463.45 1891.39C1465.48 1891.4 1467.51 1891.71 1469.45 1892.31C1471.23 1892.85 1472.86 1893.79 1474.23 1895.06C1475.76 1896.52 1476.95 1898.28 1477.74 1900.24C1478.76 1902.92 1479.24 1905.78 1479.15 1908.65V1933C1479.24 1935.62 1478.84 1938.24 1477.97 1940.71C1477.37 1942.34 1476.37 1943.79 1475.06 1944.94C1473.72 1946.05 1472.14 1946.83 1470.45 1947.22C1468.16 1947.78 1465.81 1948.05 1463.45 1948.03C1461.02 1948.06 1458.59 1947.76 1456.23 1947.15C1454.45 1946.7 1452.8 1945.86 1451.39 1944.69C1450.02 1943.49 1448.95 1941.97 1448.27 1940.28C1447.38 1937.96 1446.97 1935.48 1447.06 1933V1933Z" fill="#F15A29"/>
<path d="M1591.53 1886.77C1589.92 1883.96 1587.83 1881.45 1585.36 1879.36C1582.99 1877.39 1580.33 1875.8 1577.48 1874.62C1574.78 1873.59 1571.99 1872.8 1569.15 1872.26C1562.69 1871.12 1556.07 1871.12 1549.61 1872.26C1546.95 1872.79 1544.35 1873.59 1541.85 1874.65C1539.03 1875.83 1536.4 1877.39 1534.02 1879.31C1531.5 1881.39 1529.34 1883.86 1527.62 1886.64C1525.67 1889.84 1524.24 1893.34 1523.39 1896.99C1522.37 1901.38 1521.88 1905.87 1521.94 1910.38V1999.62L1542.4 2004.08L1542.57 1965.31C1544.14 1965.97 1545.77 1966.5 1547.43 1966.9C1551.45 1967.89 1555.58 1968.39 1559.72 1968.4C1571.66 1968.4 1580.92 1965.17 1587.26 1958.8C1593.6 1952.43 1596.79 1943.53 1596.79 1932.33V1910.38C1596.85 1905.87 1596.4 1901.37 1595.44 1896.96C1594.65 1893.39 1593.33 1889.95 1591.53 1886.77V1886.77ZM1571.28 1944.77C1569.94 1945.92 1568.35 1946.75 1566.64 1947.2C1564.38 1947.8 1562.06 1948.09 1559.72 1948.07C1554.66 1948.07 1550.65 1946.9 1547.47 1944.49C1544.66 1942.37 1543.3 1938.73 1543.3 1933.38V1908.69C1543.21 1905.84 1543.71 1903 1544.77 1900.35C1545.61 1898.37 1546.86 1896.6 1548.43 1895.14C1549.87 1893.86 1551.58 1892.91 1553.43 1892.37C1555.46 1891.76 1557.57 1891.44 1559.69 1891.43C1561.72 1891.44 1563.75 1891.75 1565.69 1892.35C1567.47 1892.89 1569.1 1893.83 1570.46 1895.1C1571.99 1896.56 1573.18 1898.32 1573.97 1900.28C1575 1902.96 1575.48 1905.82 1575.39 1908.69V1933.38C1575.46 1935.79 1575.07 1938.19 1574.23 1940.45C1573.59 1942.1 1572.58 1943.57 1571.28 1944.76V1944.77Z" fill="#F15A29"/>
<path d="M1680.28 1878.34L1680.18 1878.27C1676.58 1875.79 1672.52 1874.06 1668.24 1873.16C1663.53 1872.01 1658.69 1871.42 1653.84 1871.41C1649.13 1871.36 1644.44 1872.11 1639.98 1873.63C1635.9 1875.05 1632.16 1877.29 1628.98 1880.21C1625.86 1883.13 1623.42 1886.71 1621.85 1890.68C1620.2 1894.88 1619.37 1899.36 1619.42 1903.88V1938.8C1619.69 1949.28 1623.01 1957.04 1629.3 1961.8C1635.3 1966.38 1643.23 1968.7 1652.97 1968.7C1658.79 1968.68 1664.59 1967.84 1670.18 1966.22C1675.82 1964.61 1681.24 1962.31 1686.31 1959.36L1689.93 1957.24L1680.6 1940L1676.79 1942C1672.95 1944.05 1668.9 1945.65 1664.7 1946.79C1661.11 1947.78 1657.42 1948.3 1653.7 1948.36C1650.22 1948.51 1646.78 1947.61 1643.83 1945.77C1642.53 1944.89 1640.83 1943.19 1640.83 1938.65V1935L1692.2 1931.23V1905.07C1692.24 1900.29 1691.5 1895.54 1690 1891C1688.41 1886.42 1685.15 1882.17 1680.28 1878.34ZM1640.77 1914.63V1903.88C1640.66 1901.74 1641.12 1899.61 1642.09 1897.7C1642.91 1896.24 1644.08 1895.01 1645.49 1894.11C1647.03 1893.17 1648.72 1892.52 1650.49 1892.2C1652.42 1891.81 1654.38 1891.61 1656.34 1891.59C1657.9 1891.63 1659.46 1891.8 1660.99 1892.12C1662.66 1892.46 1664.26 1893.08 1665.72 1893.97C1667.42 1894.97 1668.79 1896.44 1669.7 1898.19C1670.6 1899.94 1670.99 1901.92 1670.82 1903.88V1912.37L1640.77 1914.63Z" fill="#F15A29"/>
<path d="M1757.55 1872.1C1755.09 1871.62 1752.59 1871.39 1750.08 1871.41C1745.94 1871.47 1741.83 1872.1 1737.87 1873.3C1736.04 1873.83 1734.25 1874.47 1732.5 1875.21L1732.22 1872.27H1712.83V1966.69H1734.2V1900.79C1734.23 1899.83 1734.58 1898.9 1735.2 1898.16C1736.2 1896.85 1737.43 1895.72 1738.83 1894.84C1740.52 1893.77 1742.36 1892.97 1744.29 1892.47C1746.41 1891.89 1748.6 1891.6 1750.8 1891.59C1751.78 1891.62 1752.75 1891.74 1753.7 1891.95C1755.27 1892.26 1756.82 1892.65 1758.34 1893.12L1762.51 1894.39L1768.41 1874.73L1764.03 1873.61C1761.76 1873 1759.59 1872.52 1757.55 1872.1Z" fill="#F15A29"/>
<path d="M1857 1838H1836.16V1842.35C1836.16 1846.65 1836.16 1851.25 1836.08 1856.01L1835.72 1885.07C1835.72 1889.64 1835.64 1894.19 1835.64 1898.58V1937.96C1835.38 1946.96 1837.64 1954.15 1842.25 1959.48C1846.93 1964.81 1853.38 1968.27 1860.41 1969.23L1864.01 1969.81L1870.14 1952.18L1866.08 1950.73C1859.8 1948.48 1857 1944.88 1857 1939.05V1893.16H1878.29V1872.29H1857V1838Z" fill="#F15A29"/>
<path d="M1952.28 1878.34L1952.19 1878.27C1948.57 1875.78 1944.49 1874.04 1940.19 1873.16C1935.48 1872.01 1930.65 1871.42 1925.8 1871.41C1921.09 1871.36 1916.4 1872.11 1911.94 1873.63C1907.86 1875.04 1904.12 1877.28 1900.94 1880.21C1897.81 1883.13 1895.38 1886.7 1893.8 1890.68C1892.15 1894.88 1891.32 1899.36 1891.37 1903.88V1938.8C1891.64 1949.28 1894.97 1957.04 1901.25 1961.8C1907.25 1966.38 1915.19 1968.7 1924.92 1968.7C1930.74 1968.68 1936.54 1967.85 1942.13 1966.22C1947.77 1964.62 1953.19 1962.31 1958.26 1959.36L1961.89 1957.24L1952.57 1939.98L1948.76 1941.98C1944.92 1944.03 1940.86 1945.64 1936.66 1946.77C1933.07 1947.76 1929.38 1948.29 1925.66 1948.34C1922.18 1948.49 1918.74 1947.59 1915.78 1945.75C1914.49 1944.87 1912.78 1943.17 1912.78 1938.63V1935L1964.16 1931.23V1905.07C1964.21 1900.29 1963.49 1895.54 1962 1891C1960.42 1886.42 1957.16 1882.17 1952.28 1878.34ZM1912.78 1914.63V1903.88C1912.67 1901.74 1913.12 1899.61 1914.1 1897.7C1914.92 1896.25 1916.09 1895.01 1917.49 1894.11C1919.03 1893.17 1920.72 1892.53 1922.49 1892.2C1924.42 1891.81 1926.38 1891.61 1928.35 1891.59C1929.91 1891.63 1931.46 1891.8 1932.99 1892.12C1934.67 1892.45 1936.27 1893.08 1937.72 1893.98C1939.22 1894.9 1940.49 1896.17 1941.41 1897.67C1942.46 1899.56 1942.95 1901.72 1942.83 1903.88V1912.37L1912.78 1914.63Z" fill="#F15A29"/>
<path d="M2059.27 1891.56C2058.36 1889.69 2057.3 1887.89 2056.12 1886.17L2055.94 1885.93C2052.38 1881.43 2047.68 1877.98 2042.32 1875.93C2037.14 1873.93 2030.51 1872.56 2022.59 1871.93L2018.59 1871.63L2015.51 1889.97C2011.41 1890.16 2007.36 1890.98 2003.51 1892.4C1998.03 1894.3 1993.27 1897.82 1989.85 1902.5C1986.37 1907.24 1984.61 1913.76 1984.61 1921.87V1934.87C1984.61 1941.95 1986.08 1947.87 1988.97 1952.52C1992.02 1957.28 1996.27 1961.14 2001.3 1963.72C2005.16 1965.72 2009.35 1967.01 2013.67 1967.55C2018.45 1968.23 2023.28 1968.56 2028.11 1968.55C2033.06 1968.55 2038.17 1968.34 2043.32 1967.93C2048.47 1967.52 2053.16 1967.1 2057.67 1966.64L2061.57 1966.24V1903.08C2061.59 1901.07 2061.41 1899.06 2061.05 1897.08C2060.69 1895.17 2060.09 1893.32 2059.27 1891.56V1891.56ZM2040.61 1915.28V1949.28C2037.44 1949.51 2034.11 1949.65 2030.66 1949.69H2029.91C2025.81 1949.72 2021.72 1949.27 2017.73 1948.35C2014.46 1947.64 2011.4 1946.16 2008.81 1944.04C2006.94 1942.44 2006.02 1940.04 2006.02 1936.8V1922.4C2006.02 1919.02 2006.58 1916.4 2007.62 1914.93C2008.53 1913.5 2009.83 1912.36 2011.37 1911.66C2012.95 1910.99 2014.65 1910.65 2016.37 1910.66C2018.53 1910.66 2020.27 1910.66 2021.55 1910.81H2022.12C2025.84 1911.1 2029.53 1911.77 2033.12 1912.81C2035.66 1913.49 2038.16 1914.32 2040.61 1915.28V1915.28Z" fill="#F15A29"/>
<path d="M2201 1902.84C2200.6 1893.52 2197.48 1885.84 2191.72 1880.14C2185.96 1874.44 2177.93 1871.41 2167.98 1871.41C2163.06 1871.4 2158.16 1872.07 2153.42 1873.41C2150.06 1874.36 2146.75 1875.48 2143.51 1876.78C2141.01 1874.99 2138.2 1873.66 2135.23 1872.87C2126.86 1870.58 2117.98 1871.06 2109.91 1874.23C2107.74 1875.08 2105.62 1875.98 2103.55 1876.91L2103.32 1872.3H2083.4V1966.72H2104.77V1951.2C2104.77 1946.45 2104.77 1941.07 2104.68 1935.2C2104.62 1929.5 2104.59 1923.2 2104.59 1915.96V1897.48C2107.28 1896.16 2109.86 1894.95 2112.3 1893.87C2115.1 1892.65 2118.09 1891.93 2121.14 1891.75C2122.88 1891.75 2124.73 1891.81 2126.66 1891.92C2127.98 1891.95 2129.27 1892.35 2130.37 1893.07C2131.48 1893.8 2132.35 1894.83 2132.9 1896.03C2133.44 1897.03 2134.07 1899.03 2134.07 1903.03V1966.7H2155.44V1903C2155.45 1900.14 2155.22 1897.28 2154.75 1894.46C2156.15 1893.98 2157.56 1893.52 2158.94 1893.1C2161.13 1892.43 2163.37 1891.92 2165.63 1891.57C2167.14 1891.62 2168.64 1891.75 2170.14 1891.96C2171.78 1892.18 2173.37 1892.69 2174.83 1893.47C2176.23 1894.26 2177.41 1895.38 2178.26 1896.75C2179.18 1898.13 2179.64 1900.23 2179.64 1903V1966.67H2201V1902.82V1902.84Z" fill="#F15A29"/>
<path d="M862.44 1498.29H780.94L777.3 1501.29C767.74 1509.12 758.63 1516.66 750.13 1523.79C742.88 1529.98 734.99 1536.6 726.7 1543.46L726.63 1543.52C726.63 1539.52 726.603 1535.06 726.55 1530.15C726.41 1505.6 726.05 1471.05 725.55 1427.47L725.38 1414.47H670.51V1735.73H726.76V1620.73L799.01 1735.73H867.01L767.87 1580.9L862.44 1498.29Z" fill="white"/>
<path d="M944.9 1414.45C937.197 1414.47 929.738 1417.16 923.794 1422.06C917.85 1426.96 913.788 1433.77 912.3 1441.32C910.812 1448.88 911.989 1456.72 915.632 1463.51C919.274 1470.3 925.156 1475.61 932.277 1478.55C939.398 1481.49 947.317 1481.87 954.687 1479.63C962.056 1477.38 968.419 1472.65 972.694 1466.24C976.968 1459.83 978.889 1452.14 978.13 1444.48C977.371 1436.81 973.978 1429.65 968.53 1424.2C965.448 1421.07 961.767 1418.59 957.707 1416.92C953.648 1415.24 949.292 1414.4 944.9 1414.45V1414.45Z" fill="white"/>
<path d="M973.23 1498.71H916.56V1735.71H973.23V1498.71Z" fill="white"/>
<path d="M1152.59 1498.36C1146.49 1497.14 1140.29 1496.55 1134.07 1496.6C1123.86 1496.74 1113.72 1498.34 1103.97 1501.37C1100.66 1502.37 1097.45 1503.47 1094.37 1504.69L1093.81 1498.69H1042.12V1735.69H1098.79V1571.28C1098.84 1569.41 1099.51 1567.61 1100.7 1566.17C1102.9 1563.21 1105.61 1560.66 1108.7 1558.65C1112.47 1556.2 1116.61 1554.37 1120.95 1553.21C1125.77 1551.87 1130.74 1551.2 1135.74 1551.21C1137.88 1551.3 1140 1551.57 1142.09 1552.03C1145.73 1552.76 1149.33 1553.7 1152.87 1554.83L1165.67 1558.83L1181.24 1505.58L1168.16 1502.14C1162.7 1500.65 1157.46 1499.4 1152.59 1498.36Z" fill="white"/>
<path d="M1400.45 1585.5H1235.92V1642.59H1400.45V1585.5Z" fill="white"/>
<path d="M1606.26 1474.57V1474.81C1606.26 1480.58 1606.19 1486.35 1606.06 1491.95C1605.94 1496.81 1605.86 1501.36 1605.85 1505.51C1601.51 1504.41 1596.89 1503.31 1591.99 1502.2C1579.38 1499.33 1566.47 1498.02 1553.55 1498.29C1542.74 1498.23 1532.02 1500.27 1521.99 1504.29C1512.41 1508.13 1503.65 1513.75 1496.16 1520.86C1488.63 1528.1 1482.61 1536.77 1478.46 1546.36C1473.99 1556.75 1471.74 1567.95 1471.86 1579.26V1655.1C1471.86 1672.92 1475.48 1687.91 1482.63 1699.65C1489.78 1711.39 1500.01 1720.88 1513.14 1728.1C1521.52 1732.8 1531.82 1736.1 1543.77 1737.85C1555.36 1739.53 1567.06 1740.35 1578.77 1740.31C1590.64 1740.31 1602.98 1739.8 1615.45 1738.8C1628.11 1737.8 1639.38 1736.71 1649.88 1735.61L1661.67 1734.37V1414.37H1607.34L1606.26 1474.57ZM1528.53 1659.76V1580.56C1528.53 1573.94 1529.71 1568.8 1532.03 1565.27C1534.4 1561.61 1537.74 1558.69 1541.68 1556.83C1546.76 1554.5 1552.23 1553.15 1557.81 1552.83C1560.3 1552.65 1562.81 1552.56 1565.27 1552.56C1569.57 1552.56 1573.87 1552.84 1578.13 1553.39C1584.96 1554.27 1591.74 1555.57 1598.41 1557.28C1601.12 1557.99 1603.59 1558.73 1605.84 1559.48V1688.14C1599.05 1688.6 1591.99 1688.87 1584.73 1688.95C1574.57 1689.17 1564.43 1688.1 1554.54 1685.75C1546.28 1683.75 1539.69 1680.46 1534.36 1675.75C1531.86 1673.58 1528.53 1669.53 1528.53 1659.76Z" fill="white"/>
<path d="M1882.17 1514.27L1881.89 1514.05C1874.49 1508.41 1864.8 1504.15 1852.24 1501.05C1840.73 1498.15 1828.9 1496.68 1817.03 1496.66C1805.38 1496.53 1793.79 1498.44 1782.8 1502.3C1772.63 1505.93 1763.33 1511.64 1755.48 1519.06C1747.71 1526.53 1741.68 1535.61 1737.79 1545.66C1733.72 1556.27 1731.69 1567.56 1731.79 1578.92V1664.78C1732.46 1691.27 1740.79 1710.94 1756.41 1723.26C1771.24 1734.91 1790.92 1740.82 1814.9 1740.82C1829.13 1740.76 1843.27 1738.66 1856.9 1734.59C1870.68 1730.57 1883.88 1724.81 1896.2 1717.45L1906.87 1711.04L1882.24 1664.23L1870.53 1670.56C1861.55 1675.48 1852.04 1679.34 1842.18 1682.08C1833.83 1684.44 1825.21 1685.71 1816.54 1685.83C1807.41 1685.83 1800.23 1683.92 1794.54 1679.98C1791.9 1678.13 1788.38 1674.52 1788.38 1664.45V1657.7L1911.38 1648.43V1581.87C1911.51 1569.88 1909.72 1557.94 1906.06 1546.52C1902.31 1534.82 1894.22 1524 1882.17 1514.27ZM1788.48 1602.57V1578.87C1788.48 1572.87 1789.48 1568.11 1791.35 1564.87C1793.09 1561.68 1795.59 1558.96 1798.62 1556.95C1801.94 1554.85 1805.64 1553.39 1809.5 1552.65C1813.92 1551.73 1818.41 1551.25 1822.92 1551.21C1826.46 1551.3 1829.98 1551.71 1833.45 1552.44C1837.13 1553.2 1840.64 1554.62 1843.81 1556.63C1847.08 1558.73 1849.82 1561.55 1851.81 1564.89C1853.81 1568.06 1854.81 1572.78 1854.81 1578.89V1597.46L1788.48 1602.57Z" fill="white"/>
<path d="M2113.15 1498.71L2071.98 1634.13L2031.15 1498.71H1970.71L2043.23 1735.71H2100.17L2173.64 1498.71H2113.15Z" fill="white"/>
</g>
<defs>
<clipPath id="clip0_2_32">
<rect width="2834.65" height="2004.09" fill="white"/>
</clipPath>
</defs>
</svg>
