<svg xmlns="http://www.w3.org/2000/svg" viewBox="0 0 868.06 1080"><defs><style>.cls-1{fill:#3854a2;}.cls-2{fill:#38a4dd;}.cls-3{fill:#56a9de;stroke:#fff;stroke-width:4.1px;}</style></defs><title>kszk</title><g id="Layer_2" data-name="Layer 2"><g id="Réteg_1" data-name="Réteg 1"><g id="g2585"><path id="path4547" class="cls-1" d="M290,0H578V1080H290Z"/><path id="path4551" class="cls-1" d="M614,36V1080H812V900L704,828V36Z"/><path id="path4553" class="cls-1" d="M254,36H164V828L56,900v180H254Z"/></g><g id="layer1"><path id="path4568-8" class="cls-2" d="M434.08,107.66c-172.18,0-331.91,103.49-399.5,267.74C-43.88,566.1,23.41,786.19,195.09,900.26a430.79,430.79,0,0,0,544.67-55.62l-43.84-43.46C571.23,927,376.75,946.85,229.26,848.84a370.51,370.51,0,1,1,575-308.79c0,54-17.81,80.48-43.1,98.3-25.07,17.67-61,25.11-94.85,25.24-4.1-5.46-16.17-26.56-19.36-38.35-1.49-5.53.86-11,1.32-12.3S661.65,598.8,677,584.36c30.51-28.79,46.45-50.58,46.45-58.71,0-4-1.08-5.41-5.66-7.44-6.39-2.83-16.76-3.28-22.43-1-2.08.85-18.11,13.3-35.62,27.67s-32,25.91-32.28,25.65c-1-1.1,11.6-51.89,18.55-74.52,4.15-13.53,14.82-43.82,23.7-67.33s16.14-44,16.14-45.51c0-7.75-24.27-12.85-36.13-7.59-5.68,2.51-6.19,3.51-14.46,28.4-13.54,40.76-77,243.08-86.52,275.78-8.53,29.36-8.58,29.67-6,36.53,6.08,16.11,23.92,17.17,35.1,2.08,4.85-6.55,15.57-30.83,21.85-49.51L607.81,652l8.12,24.57c14.14,36.08,26.72,46.31,47.24,48.7a27.69,27.69,0,0,0,4.21,0c41.91-.24,89.52-8.42,129.36-36.5C837.19,660.31,866,609.59,866,540.05,866,333.82,720,156,517.88,115.91a431,431,0,0,0-75.59-8.17c-2.74,0-5.47-.08-8.21-.08ZM266,365.08a32,32,0,0,0-14,2.75l-6.33,3-15.45,50.3C214,474,174.16,611.71,162.76,654.49c-10.38,39-11.45,52-4.81,58.34,11.44,11,29.33-8.59,45-49.25l6-15.69,6.05,9.82c11.28,18.31,28.55,34,44.78,40.69,11.72,4.82,28.71,4.71,39.27-.26l8-3.78,4.22,4.12c10.87,10.63,25.91,19.24,38.39,22a39.51,39.51,0,0,0,28.48-4.64c20.65-12.71,25.6-47.75,12.51-88.41-7.77-24.14-10.53-38.43-10.57-54.62,0-15.68,2.49-24.14,15.44-51.9,8.38-17.95,9.24-20.82,8.58-28.53-1.2-14-10.82-20-31.79-20.05-8.82,0-10.85.63-15.16,4.77s-5.92,8.61-13.87,41.21c-12.63,51.75-35,113.19-44.77,122.91a162.29,162.29,0,0,1-14,11.39c-12.77,9.41-19.29,9.63-27.48.95-9.67-10.27-19.25-33.4-19.25-46.49,0-1.2,10.61-12.12,23.58-24.29,38.22-35.86,51.41-52.16,49.32-61-1.19-5-5.94-6.32-15.92-4.31-13.4,2.7-22.09,8.44-51.19,33.84-10.38,9.06-18.86,15.88-18.86,15.15,0-3.37,9-36.67,15.79-58.58,10.77-34.69,20.27-61.51,34.18-96.56,6.68-16.83,12.15-32.57,12.15-35C286.91,369.77,276.67,365.22,266,365.08ZM564.09,497.45c-26.85-.2-92.13,11.77-104.52,20.28-15.66,10.77-12.61,33.65,4.94,37.18,4.1.82,14-.07,28.23-2.52,12.05-2.08,22.18-3.49,22.53-3.12s-15,15.89-34.17,34.52c-69,67.14-82,85.36-76.52,107,2.36,9.28,8.95,17,17.2,20.08h0c8.52,3.19,17.71,3.19,40.8,0,38.63-5.38,62.39-12.8,72.1-22.52,4.81-4.81,5.63-6.78,5.63-13.52s-.78-8.58-4.89-12.25c-6.94-6.2-20.46-8.74-39.88-7.5l-16.15,1,10.43-9.75c5.74-5.37,24.11-24.28,40.82-42,33.25-35.29,58.09-66.88,59.68-75.86,2.13-12-6.51-27.06-17.34-30.16A36.33,36.33,0,0,0,564.09,497.45ZM344.67,630.57c1.63.09,2.71,5.91,5.11,18.35,1.5,7.81,2.49,17,2.21,20.41l-.5,6.22-8.88-7c-4.89-3.87-9.48-7-10.22-7-2.29,0-1.56-2.5,5.4-18.42C341.37,634.85,343.23,630.48,344.67,630.57Z"/><path id="path867" class="cls-3" d="M434.08,107.76c-172.18,0-331.91,103.48-399.49,267.73C-43.88,566.19,23.42,786.28,195.1,900.35a430.79,430.79,0,0,0,544.67-55.62l-43.85-43.46c-124.69,125.8-319.17,145.66-466.66,47.66a370.51,370.51,0,1,1,575-308.79c0,54-17.81,80.48-43.1,98.3-25.06,17.67-61,25.11-94.84,25.24-4.11-5.46-16.18-26.56-19.36-38.34-1.5-5.54.85-11,1.32-12.31s13.36-14.14,28.67-28.58c30.51-28.79,46.46-50.57,46.46-58.71,0-4-1.09-5.41-5.67-7.44-6.39-2.83-16.76-3.28-22.43-1-2.08.85-18.11,13.3-35.61,27.67s-32,25.91-32.28,25.65c-1-1.1,11.59-51.89,18.54-74.52,4.15-13.53,14.82-43.82,23.7-67.33s16.15-44,16.15-45.51c0-7.75-24.28-12.85-36.14-7.59-5.68,2.51-6.19,3.51-14.45,28.4-13.54,40.77-77,243.08-86.52,275.78-8.54,29.36-8.59,29.67-6,36.53,6.07,16.11,23.91,17.17,35.09,2.08,4.85-6.55,15.57-30.83,21.85-49.51l8.16-16.87,8.12,24.57c14.14,36.08,26.73,46.31,47.25,48.7a27.56,27.56,0,0,0,4.2,0c41.92-.24,89.52-8.43,129.36-36.5C837.2,660.4,866,609.68,866,540.14,866,333.91,720,156,517.88,116a431,431,0,0,0-75.59-8.16C439.55,107.78,436.82,107.76,434.08,107.76ZM266,365.17a31.91,31.91,0,0,0-14,2.76l-6.33,3-15.45,50.3c-16.24,52.87-56,190.56-67.43,233.35-10.38,39-11.45,51.95-4.81,58.33,11.45,11,29.33-8.59,45-49.25L209,648l6,9.82c11.28,18.31,28.56,34,44.78,40.69,11.72,4.82,28.71,4.71,39.27-.26l8.05-3.78,4.21,4.12c10.87,10.63,25.91,19.24,38.39,22a39.51,39.51,0,0,0,28.48-4.64c20.65-12.71,25.61-47.74,12.52-88.41-7.77-24.14-10.54-38.43-10.57-54.62,0-15.68,2.48-24.14,15.44-51.9,8.37-17.95,9.24-20.81,8.57-28.53-1.2-14-10.82-20-31.78-20-8.83,0-10.86.63-15.17,4.77s-5.92,8.61-13.87,41.21c-12.63,51.75-35,113.19-44.76,122.91a162.29,162.29,0,0,1-14,11.39c-12.78,9.41-19.3,9.63-27.48.95-9.67-10.27-19.25-33.4-19.25-46.49,0-1.2,10.6-12.12,23.57-24.29,38.23-35.86,51.41-52.16,49.33-61-1.19-5-5.95-6.32-15.93-4.31-13.4,2.7-22.09,8.44-51.19,33.84-10.38,9.06-18.86,15.88-18.86,15.15,0-3.37,9-36.67,15.79-58.58,10.78-34.69,20.27-61.51,34.18-96.55,6.68-16.84,12.15-32.58,12.15-35C286.91,369.86,276.67,365.31,266,365.17ZM564.09,497.54c-26.85-.2-92.13,11.77-104.52,20.28C443.91,528.59,447,551.48,464.52,555c4.09.82,14-.07,28.22-2.52,12.05-2.08,22.19-3.48,22.53-3.12s-15,15.9-34.17,34.52c-69,67.14-82,85.37-76.51,107,2.35,9.29,9,17,17.2,20.08h0c8.51,3.19,17.71,3.19,40.79,0,38.63-5.38,62.4-12.8,72.11-22.52,4.8-4.81,5.62-6.78,5.62-13.51s-.78-8.58-4.88-12.25c-6.95-6.21-20.46-8.75-39.88-7.51l-16.16,1,10.43-9.75c5.74-5.37,24.11-24.28,40.83-42,33.24-35.3,58.08-66.89,59.67-75.87,2.13-12-6.51-27.06-17.34-30.16A36.33,36.33,0,0,0,564.09,497.54ZM344.68,630.66c1.63.09,2.71,5.91,5.1,18.35,1.5,7.81,2.5,17,2.22,20.42l-.51,6.21-8.88-7c-4.88-3.87-9.48-7-10.22-7-2.28,0-1.55-2.49,5.4-18.41C341.37,634.94,343.24,630.58,344.68,630.66Z"/></g></g></g></svg>