<svg xmlns="http://www.w3.org/2000/svg" viewBox="0 0 500 500"><title>lanosch</title><g id="Logo"><path id="circle" d="M244.61,8.48C130.5,8.48,38,101,38,215.1S130.5,421.72,244.61,421.72,451.23,329.21,451.23,215.1,358.73,8.48,244.61,8.48Zm-.73,405.22c-109.63,0-198.5-88.87-198.5-198.5S134.25,16.71,243.88,16.71,442.37,105.58,442.37,215.2,353.5,413.7,243.88,413.7Z"/><path d="M405.5,117.85l-4.76.08-.17-1.23-1-.23a18.62,18.62,0,0,0-.51-4.15c-.16-.48-11.22-1.37-11.22-1.37l-.16-3h-3.48l.08,2.64-9.09-.55,0-3.67h-6.22v3.06s-17-1-17.49-1.26-4.74-.22-4.74-.22l-.1-4-6.64.11v2.84H329.85a25.41,25.41,0,0,1-2.53,3.06c-.52.31-6.32.52-6.32.52V105.2a9.75,9.75,0,0,0,3.06-3.47c1-1.91,1.45-4.21.1-8-3-8.32-11-15.17-16.22-15-3.29.13-9.92.26-14.44,3.26a17.21,17.21,0,0,0-6.64,8.86s-1.47,3.47-1.05,15.27L281,107.58s-11.65,12.48-13.12,15.64-.87,2.18-1.48,3.16c-1,1.57-8.32,43-9.11,46s-2.47,9.69-1.9,10.83c.24.47,2.22.4,2.22.4l.15,3a7.88,7.88,0,0,0-1.26,5.85c.47,3.79,2.84,4.9,2.84,6.48s-14.54,50.57-14.85,51.68-2.37,11.85-3.32,9S230,222.16,229.65,218.68l1.11-1.89.47-4.75,1-.31.16-7-1.58-2.37.31-2.05,2.22.79s.47-12,1-12.64.94-10.91.94-10.91-1.21-59-13.22-64.38c-14.48-6.48-18.65-7.79-24.44-9.06,0,0,1.31-8.11,0-13.64,0,0,9-7.65,12.8-7.85,4-.21,6.95,0,11.22,7.14,3.37,5.61,1.66,9.79-1.1,13,0,0,15.17,9.12,27.6-3.31,7.78-7.79,5.59-20.87,5.59-20.87s-8.75,4.43-16.13-1.05c-3.79-2.74-7.27-6.85-4.74-11.91l-4.11-5.45c-4.84,1.77-19.59-3.92-8.21-22.05,0,0-11.81-3.37-21.34,2.69-10.43,6.64-11.22,14.7-11.64,20.49,0,0,7.15-4.35,13.59,2.53,1.53,1.64,5.34,4.31,4,10.33-.42,1.89-8.95,6.21-9.16,5.69s-1.9-6.32-2.85-7.48-2.53,3-3.48,9.27c0,0,.53,2.74-3.05,1.58,0,0-12.65-7.59-22.13,2.11s-9.06,12.43-9.06,17.28-4.37,5.69-7.74,7.58-14.7,9.59-14.7,9.59-13.28-2.48-18.34,2.74c0,0-1,5.27-5,4.53-1.58-.42,0,5.37-3.79,8,0,0-13.64,9.51-13.91,10.53s4.11,7.51,4.85,7.59,13.59-9.48,15-8.85,2.71,4.11,4.32,5.37,9.9,4,11.06,4.75a20.63,20.63,0,0,1,5.27,5c2.06,2.91,3.37,5.06,4.53,5.48s7.06-.21,8.75,1.06,6.53,2.95,7.79,3.58,14.23,0,14.23,0,1.05,19.17,1.74,20.07,4.37,0,6.05.16c0,0,.53,4.11.11,15.06a22.45,22.45,0,0,1-4.74.43s-2.38,2.38-5.77,6.48c-7.56,9.12-19.83,24.54-19.83,25.52,0,1.42,5.05,4.56,5.16,5.4s-19.39,28.76-20,32.77-1.74,20.23-4.58,21.81-8.85,10-6,16c.3.61,2.9-2.95,4.74-.63,1,1.22-.68,16.07-2.1,18.6s-14.86,19.49-10.75,23.76c0,0,7.19,6,13.43,1.61s20.71-14.47,21-17.47.11-19.91,3.27-22.28,3.69-3.48,5.74-1.58,3.23-4.88,2.69-7.59c-.79-3.95-4.74-6.32-3.79-13.28a99.26,99.26,0,0,1,3.95-13.75c1.16-3.24,4.45-6.57,7.11-9.32,8.69-9,30.5-32.56,30.5-32.56s1-1.58,2.53,1.27,16.44,41.09,16,41.64-.68,2.63-.08,4.72c1.58,5.45,6,14.4,8.38,18.91,3.32,6.32,7.43,14.38,9.8,14.86,3.16.63,16.59,0,16.59,0s-.77,3.23-1.58,6.95c-.93,4.29-1.73,9.23,1.74,10.59,0,0,10.91,7.74,16.91-.63s10.91-20.71,8.38-23.87-10.75-13.75-10.12-16,2.8-3.75-5.37-6c-4.58-1.26-5.53-2.64-5.37-3.63.1-.65-.05-.65.79-.63,1.92,0,4.69,2.26,7.16-5.38,1.41-4.34,4.95-9.24,7.85-16,2.21-5.11,4.22-14.47,6.64-20.39,6.32-15.49,9.48-24.5,10.9-26.71s2.38,0,4,1.9S319.9,249,321.16,252.5s7.27,25.29,8.54,31.93A93.56,93.56,0,0,1,331.28,295c.42,5.73.6,11.84,3.63,13.59,5.22,3,9.8,8.53,14.54,10.43s11.54,1.74,11.85-1.11,2.06-5.05-5.05-13.11-4.9-8.06-5.53-13.75-2.69-39.36-5.54-44.41-15-22.29-15.64-23.24,0-4.11,1.42-5.37,1.73-2.72-4.43-9.8c-6.32-7.27-14.81-20.55-15.76-20.7a30.08,30.08,0,0,1-4.73-.21c-.51-.28-.31-12.13-.05-12.54s2.89.35,4.48-1c.95-.82.68-4.48,1.16-6.48a17.51,17.51,0,0,1,1.47-4.11c.47-1-.08-5.61.32-6s10.9,0,12.32-.63,3.56-2.92,4.75-3.16,9.95,0,10.35-.63c0,0,2.92-4.59,4.19-5.06s1.73-3.16,1.73-3.64,1.27-3.27,3.48-3.31c2.79-.06,1.37,2.47,6,2.37,3.63-.09,5.53.21,6.08-.24s.4-8.51.4-8.51,1-1.26,2.95,5,7.9,19.28,9.16,19.28c.76,0,3-1.34,3.06-1.89,0-.21-2.85-6.35-4.82-12.41-1.81-5.55-2.71-11-2.56-11.93.32-1.9,2.53,0,3.69,1.47s2.74.21,5.59-2.74,2-4.21,3.16-6.11a6.17,6.17,0,0,1,5.05-2.84c2.11-.21,11.7-.53,11.7-.53l5.9-.1ZM158.85,143c-3.48,1-4.11-1.27-4.11-1.27-2.85-4.42-4.11-5.21-6.8-5.37s-4.58,2.69-9-.79,7-6.32,11.86-5.37,11.85,9.32,11.85,9.32C163.59,140.13,162.32,142,158.85,143Zm180-17.07c-4.27,4.58-4.42,1.74-7.11,1.11s-4.74,1.26-6.32,4c-.74,1.25-2.05,1.29-3.37,1.31-1.51,0-3-.1-3.8-.94-1.42-1.59.11-4.85,2.95-7.17,1.79-1.45,6.75-1.37,6.75-1.37S343.13,121.33,338.86,125.91Z"/></g><g id="Text"><path d="M4.22,421.28H18.28v57H58.59v12.33H4.22Z"/><path d="M68.08,474.09a14.4,14.4,0,0,1,1.64-6.87,14.83,14.83,0,0,1,4.92-5.34,25,25,0,0,1,8.18-3.46,47.25,47.25,0,0,1,11.42-1.22,76.4,76.4,0,0,1,10.18.71,92.27,92.27,0,0,1,11,2.17,10.44,10.44,0,0,0-1.51-4.59,11.88,11.88,0,0,0-3.57-3.64,18,18,0,0,0-5.5-2.37,28.86,28.86,0,0,0-7.29-.84c-1.48,0-3.11.09-4.88.26s-3.61.45-5.5.8-3.76.8-5.61,1.33a37,37,0,0,0-5.17,1.91l-4-10.78q3-1.07,6.37-2t6.94-1.53c2.36-.43,4.73-.76,7.09-1s4.66-.35,6.87-.35q14.69,0,21.82,7.49t7.14,23v22.79H115.53v-4.92a45.2,45.2,0,0,1-4.46,2.26,39,39,0,0,1-5.26,1.86,48.33,48.33,0,0,1-13,1.73,39,39,0,0,1-10.75-1.33,23.4,23.4,0,0,1-7.74-3.68A15.69,15.69,0,0,1,69.65,481,15.3,15.3,0,0,1,68.08,474.09Zm13.83-.44a4.84,4.84,0,0,0,.67,2.46,5.91,5.91,0,0,0,2.13,2.08,12.68,12.68,0,0,0,3.74,1.47,23.81,23.81,0,0,0,5.52.55,35,35,0,0,0,6.7-.62,38.4,38.4,0,0,0,6-1.64,30.74,30.74,0,0,0,5.06-2.35,21.51,21.51,0,0,0,3.77-2.75v-2.31q-3-.84-6-1.41c-2-.39-3.84-.69-5.63-.91s-3.47-.38-5.06-.47-3-.13-4.14-.13a31.49,31.49,0,0,0-6.12.49,14.26,14.26,0,0,0-4,1.3,5.26,5.26,0,0,0-2.13,1.93A4.71,4.71,0,0,0,81.91,473.65Z"/><path d="M146,438.26h13.13v4.43a40.76,40.76,0,0,1,10-4.16,38.16,38.16,0,0,1,9.33-1.2,33.89,33.89,0,0,1,11.09,1.75,24.54,24.54,0,0,1,8.82,5.21,23.88,23.88,0,0,1,5.84,8.63,31.55,31.55,0,0,1,2.1,11.95v25.72H193.22V467a22.75,22.75,0,0,0-1.22-7.7,15.53,15.53,0,0,0-3.5-5.72A15.17,15.17,0,0,0,183,450a20.72,20.72,0,0,0-7.29-1.21,22.11,22.11,0,0,0-4.37.44,27.12,27.12,0,0,0-4.39,1.26,26.16,26.16,0,0,0-4.15,2,22.29,22.29,0,0,0-3.63,2.77v35.26H146Z"/><path d="M219.25,464.42a24.8,24.8,0,0,1,2.28-10.55,25.67,25.67,0,0,1,6.52-8.6,31.37,31.37,0,0,1,10.25-5.81,43.85,43.85,0,0,1,27,0,31.37,31.37,0,0,1,10.25,5.81,25.67,25.67,0,0,1,6.52,8.6,25.57,25.57,0,0,1,0,21.11,25.67,25.67,0,0,1-6.52,8.6,31.37,31.37,0,0,1-10.25,5.81,43.85,43.85,0,0,1-27,0,31.37,31.37,0,0,1-10.25-5.81,25.67,25.67,0,0,1-6.52-8.6A24.81,24.81,0,0,1,219.25,464.42Zm13.79,0a14.32,14.32,0,0,0,1.27,6,14.64,14.64,0,0,0,3.68,5,17.91,17.91,0,0,0,5.9,3.41,25.49,25.49,0,0,0,15.83,0,18,18,0,0,0,5.89-3.41,14.67,14.67,0,0,0,3.69-5,14.58,14.58,0,0,0-3.69-16.94,18.16,18.16,0,0,0-5.89-3.42,25.49,25.49,0,0,0-15.83,0,18.1,18.1,0,0,0-5.9,3.42,14.56,14.56,0,0,0-5,11Z"/><path d="M299.69,474.54a41.23,41.23,0,0,0,11.71,4.7,57,57,0,0,0,13.08,1.5,37.8,37.8,0,0,0,7.54-.62,18.14,18.14,0,0,0,4.84-1.59,6.53,6.53,0,0,0,2.57-2.22,4.84,4.84,0,0,0,.75-2.53,4,4,0,0,0-1.62-3.19q-1.62-1.33-5.34-1.33a33.42,33.42,0,0,0-3.73.22l-4.19.47c-1.46.16-3,.31-4.56.46s-3.19.22-4.82.22a31,31,0,0,1-9.06-1.15,17,17,0,0,1-6.1-3.15,11.69,11.69,0,0,1-3.42-4.72,16,16,0,0,1-1.06-5.88,15,15,0,0,1,1.86-7.36,17.6,17.6,0,0,1,5.32-5.83,27,27,0,0,1,8.36-3.84,40.71,40.71,0,0,1,10.93-1.37,60.87,60.87,0,0,1,6.59.38q3.44.38,6.76,1t6.39,1.44a50.78,50.78,0,0,1,5.41,1.76l-4.13,10.2a73.15,73.15,0,0,0-10-3,47.64,47.64,0,0,0-10.26-1.09,29.73,29.73,0,0,0-6.23.56,14.78,14.78,0,0,0-4.15,1.46,6.39,6.39,0,0,0-2.33,2.08,4.6,4.6,0,0,0-.73,2.46,3.72,3.72,0,0,0,.38,1.69,3.35,3.35,0,0,0,1.24,1.31,6.68,6.68,0,0,0,2.26.84,17.52,17.52,0,0,0,3.44.29c1.24,0,2.55-.08,3.94-.22l4.35-.47c1.51-.16,3.07-.32,4.68-.46s3.26-.23,4.94-.23a27.46,27.46,0,0,1,8.23,1.11,16.27,16.27,0,0,1,5.83,3.11,12.72,12.72,0,0,1,3.46,4.7,14.85,14.85,0,0,1,1.15,5.9,16,16,0,0,1-1.9,7.67,17.66,17.66,0,0,1-5.68,6.14,29.7,29.7,0,0,1-9.38,4.06,51.88,51.88,0,0,1-13,1.46,68.68,68.68,0,0,1-8.74-.55,73.15,73.15,0,0,1-8-1.51,61.43,61.43,0,0,1-7.16-2.24,55.5,55.5,0,0,1-6.1-2.75Z"/><path d="M362.62,464.56a27.28,27.28,0,0,1,2.11-10.76,24.21,24.21,0,0,1,6.16-8.64,29.27,29.27,0,0,1,9.94-5.75,40.17,40.17,0,0,1,13.41-2.08,54.65,54.65,0,0,1,6.61.4,55.4,55.4,0,0,1,6.4,1.13,49.32,49.32,0,0,1,5.79,1.73,28.31,28.31,0,0,1,4.7,2.19l-6.07,9.89a44.24,44.24,0,0,0-8.14-2.92,32.92,32.92,0,0,0-7.78-.93,26.18,26.18,0,0,0-8.12,1.17,18.17,18.17,0,0,0-6.1,3.28,14.09,14.09,0,0,0-3.81,5,14.83,14.83,0,0,0-1.31,6.23,14,14,0,0,0,1.4,6.23,14.31,14.31,0,0,0,3.95,4.92,18.88,18.88,0,0,0,6.16,3.24A26,26,0,0,0,396,480a30.07,30.07,0,0,0,9.2-1.37,35.9,35.9,0,0,0,8.05-3.68l6.07,9.89a47.49,47.49,0,0,1-5.09,2.64,45.17,45.17,0,0,1-5.88,2.1,52.44,52.44,0,0,1-6.56,1.4,48.61,48.61,0,0,1-7.12.51,41.24,41.24,0,0,1-13.44-2,29.58,29.58,0,0,1-10.06-5.65,24.5,24.5,0,0,1-6.32-8.54A25.94,25.94,0,0,1,362.62,464.56Z"/><path d="M433.44,417.06h13.13v25.19a40.24,40.24,0,0,1,9.2-3.59,41.74,41.74,0,0,1,10.66-1.33,33.53,33.53,0,0,1,11.65,1.91,23.38,23.38,0,0,1,14.28,14.14,32.42,32.42,0,0,1,1.92,11.49v25.72H481.2V465.4a18.66,18.66,0,0,0-1.2-6.81,14.48,14.48,0,0,0-3.5-5.3,16,16,0,0,0-5.61-3.43,21.28,21.28,0,0,0-7.47-1.22,26.61,26.61,0,0,0-9.31,1.59,29.55,29.55,0,0,0-7.54,4v36.32H433.44Z"/></g></svg>