<svg xmlns="http://www.w3.org/2000/svg" viewBox="0 0 646.44 900"><defs><style>.cls-1{fill:#fff;}.cls-2{fill:#6e3a17;}.cls-3{fill:#ffe400;}.cls-4{fill:#a7a9ac;}</style></defs><title>laplace</title><g id="Réteg_2_másolat" data-name="Réteg 2 másolat"><path class="cls-1" d="M168.85,98.91c5.42-2.84,11-5.43,16.6-7.81.62.34,1.24.71,1.91,1l2.31,1.09c1.57.77,3.32,1.36,5.06,2s3.61,1.15,5.51,1.54,3.81.73,5.71,1,3.82.4,5.7.38,3.71-.06,5.45-.14,3.42-.34,5-.67a41,41,0,0,0,4.33-1c.66-.19,1.29-.35,1.88-.53l1.65-.59a23.81,23.81,0,0,0,2.63-1l2.22-1-2.42.16a26,26,0,0,1-2.74,0l-1.67,0c-.59,0-1.21-.1-1.85-.15s-1.29-.09-2-.2L222,92.76c-1.42-.2-2.9-.64-4.4-1s-3-.9-4.5-1.54-2.95-1.31-4.38-2-2.8-1.52-4.06-2.43-2.48-1.78-3.62-2.64c-.79-.71-1.55-1.37-2.26-2a117,117,0,0,1,15.92-20.5,119.23,119.23,0,0,1,18.93-15.8c26-17.41,60.39-26.17,96.9-24.7a249.31,249.31,0,0,1,52.59,8.18q11.5,3,23.59,7.05a75.22,75.22,0,0,1,29-10.61,71,71,0,0,1,20.43,0c7.44,1.1,13.41,3.28,17.74,6.47,7.68,5.65,12.13,16.18,11.84,27.49,0,1.17-.09,2.35-.22,3.53A51.38,51.38,0,0,1,483,73l-1.45.7c-1,.52-2.23.86-3.43,1.34a37.59,37.59,0,0,1-3.84,1.29l-4.09,1.14-4.2.82a38.47,38.47,0,0,1-4.16.58c-1.35.12-2.7.36-4,.37l-3.59.11-1.61,0-1.45-.07-2.37-.13-2.1-.11,1.86.94,2.17,1.09,1.35.67c.48.21,1,.41,1.53.63l3.5,1.41c1.25.54,2.62.87,4,1.34a42.74,42.74,0,0,0,4.42,1.25l4.69,1.06,4.79.69a45.72,45.72,0,0,0,4.72.43c.89,0,1.74.12,2.59.17A58.5,58.5,0,0,1,487.56,106q.17,1.27.27,2.55a57.37,57.37,0,0,1-1.12,16.56,60,60,0,0,1-1.88,6.83,13.48,13.48,0,0,1-2.22,2.1,28.05,28.05,0,0,1-4.48,2.73c-.89.44-1.85.87-2.86,1.29l-.78.31-.39.16-.05,0,.19,0h0l-.11,0-.22.07-1.81.61c-2.41.78-5,1.76-7.37,2.34s-4.86,1.41-7.47,1.89l-3.87.81c-1.3.29-2.6.41-3.89.62l-3.85.56c-1.28.17-2.54.24-3.79.36l-3.69.31c-1.21.1-2.39.08-3.54.12-2.31,0-4.52.18-6.54.05l-5.55-.21c-1.65-.13-3.09-.3-4.28-.4l-3.75-.38,3.57,1.21c1.14.38,2.52.88,4.13,1.38l5.46,1.49c2,.6,4.22,1,6.56,1.48,1.18.22,2.38.53,3.63.71l3.82.55c1.31.17,2.63.41,4,.54l4.11.34c1.39.1,2.79.28,4.2.3l4.25.09c2.83.14,5.75-.06,8.64-.17s5.48-.42,8.07-.64l1.9-.18,2.23-.33c1.35-.22,2.7-.48,4-.79a44.86,44.86,0,0,0,6.31-1.94c2.42,1.51,4.79,3.1,7.06,4.8a94.83,94.83,0,0,1,24.46,26.65c14.32,23.6,17.51,54.07,9,80.39-33.14-16.13-70.22-26.3-110.39-36.38-66.81-16.76-132.36-32.16-199.65-36.45-55-3.51-104.8.46-148.72,11.81C91.27,157.07,126.58,121.09,168.85,98.91Z"/><path class="cls-2" d="M26.83,415.09c3.26-26.65,18.66-50.29,40.2-61.68l12.52-6.62-10.44-9.57c-28.07-25.71-43-65.22-38.94-102,51.65-22.54,115-31.6,188.39-26.92,65.61,4.19,130.18,19.37,196.06,35.89,51.3,12.87,97.25,25.82,135.08,51.35-47,30.52-79.43,66.3-98.84,109L448,410.86l4.89,4.9a113.61,113.61,0,0,0,21.44,16.93c-41.39,50.05-62,109.8-58.62,170.1a437.28,437.28,0,0,1-132.16,13.74,32.26,32.26,0,0,0,.44-5.22c0-23.86-26.55-43.27-59.18-43.27-28.61,0-52.54,14.92-58,34.68q-7.19-2.07-14.22-4.64a27.31,27.31,0,0,0,2.35-11c0-19.86-21.91-36-48.85-36l-.88,0c-4.1-9.9-15.33-19.39-28.85-30.8-11.2-9.45-23.89-20.16-30.27-30C30.64,466.44,23.81,439.74,26.83,415.09Z"/><ellipse class="cls-2" cx="224.81" cy="611.31" rx="47.78" ry="31.86"/><ellipse class="cls-2" cx="106.08" cy="587.07" rx="37.44" ry="24.6"/><path class="cls-3" d="M482.81,574.55a52.34,52.34,0,0,1,5.79,1.88c-2.13,1.2-4.8,2.39-6.13,3a432.64,432.64,0,0,1-47,17.73,209.62,209.62,0,0,1,1-28.25A163.59,163.59,0,0,1,482.81,574.55Z"/><path class="cls-3" d="M78.3,548.53a73.51,73.51,0,0,1,6,6.31,48.57,48.57,0,0,0-17.59,10.91,99.86,99.86,0,0,0-10.54-6c-1.2-.61-2.39-1.22-3.57-1.84-4-2.12-8.83-5.05-11.12-8.94a8.27,8.27,0,0,1-1.11-3.81A151.62,151.62,0,0,1,78.3,548.53Z"/><path class="cls-3" d="M609.86,608.18c-11.62-12-32.44-16.34-53.06-11-18.53,4.76-42,21-59.15,32.81l-.87.6a16.73,16.73,0,0,1-5.89,2.55l-4.74,1,1.24-16.85a15.74,15.74,0,0,1,.43-2.65,117.38,117.38,0,0,0,3-18.63l-.75.34A456.34,456.34,0,0,1,305,635.6q-14.78,0-29.54-1l.06-1a54.28,54.28,0,0,1-19.61,14.49c17,31.25-3.11,62.39-10.39,65.14-7.49,2.84-27.46,4.3-27.46,4.3L213.76,769H195.57l-3.51-121.68c-12-5.84-20.88-14.77-24.57-25.22A223.55,223.55,0,0,1,139.87,613c-8.78,6.21-20.68,10-33.79,10-26.93,0-48.84-16.15-48.84-36a26.73,26.73,0,0,1,.48-5,67.51,67.51,0,0,0-9.94-5.76c-1.29-.66-2.58-1.32-3.85-2a69.1,69.1,0,0,1-8.18-5,471.84,471.84,0,0,0,0,77l27.15-3.26v94.12l21.63-6.66,3.81,32.33L63,768.35c14.09,35.22,32.6,61.32,56.1,79.22a144,144,0,0,0,29.58,17.19C141,854.34,135,840.21,132.1,824.12c-4.08-22.57-1.09-43.66,6.81-57.31l-4.42-28.21H124.27v36.6H94.08l4.75-124.89,48.49-7.26L160.9,751.23c20.21-1.26,41,24.36,47.28,59.14.43,2.38.77,4.73,1,7.07l-26.73,1.23-1.43-16.85-24.24,1.43,10,54.66h20.44V846L208.38,848c-2.52,13.12-7.9,23.74-15.37,29.81,6.72,1.17,13.67,2,20.8,2.65l12-120.9,37.24-5.38L273.3,645.54l23.77-2.49L282.8,731.94l21.4-4.75-2.86,30.42-17.09,3.53L269.49,871.23l-20,1.42-.12-18.54h-9.86l-3,27.34h1.54a307.46,307.46,0,0,0,32.22-1.72l36.22-115,21.39-113,45.64-8.68L367,752.38l-21.4,5.23V734.32h-9l-5.7,30.9h33.75L341.75,808H309.43l-5.23,16.16h26.14l-13.78,24.72L299,850.31,291,876.9q14.84-2.53,29.45-6.41l57.57-115.83c-3.87-12.44-4.63-29.27-1.33-47.19,6.3-34.36,25.07-59.7,41.91-56.61,13.37,2.46,21.5,22.1,21.13,47.28l-21,2.43L421.61,685l-19,1.75L391.19,740.5l19.49-1.9L414,727.66l22-1.21c-3.17,12.78-8,23.95-13.81,32.4l8.91,1.61-28.05,43.26-26.14-1-10,17.59h16.16L369.8,842.7l-15.21-.47L346,856l14.44,1.2c46.6-18.66,89.33-47.35,123.11-83.56,34.68-14.46,67.18-34.84,97.92-62.94,21.31-19.48,33-36,38-53.67C624.65,638.74,620.87,619.56,609.86,608.18ZM590.33,654c-.13,1-.25,1.91-.38,2.87-.16.46-.34.92-.52,1.38,1.36,9.79-4.1,20.69-16.39,21.43a16.86,16.86,0,0,1-4.76,6,16.93,16.93,0,0,1-11.57,12.46,18.16,18.16,0,0,1-5.4,12.85l-3.75,2.9a30.75,30.75,0,0,1-6.81,3.14,19.08,19.08,0,0,1-3,.87,18.74,18.74,0,0,1-9.86,0l-2.56-1.08c-.19.24-.41.47-.62.71a18.63,18.63,0,0,1-4.81,8.44l-.71.71a19.68,19.68,0,0,1-1.76,1.53c-1.68,7.48-7.48,13.88-17.41,13.88-18.85,0-22.83-23-12-32.79a18.66,18.66,0,0,1,4.91-8.84l.29-.29c-1.35-6.39.28-13.52,4.91-18.12a18.21,18.21,0,0,1-1-5.92v-.35a18.64,18.64,0,0,1,2.76-9.69c-6.15-11-1-28.46,15.42-28.46a19.1,19.1,0,0,1,7,1.25c3-3.91,7.65-6.6,14.08-6.6a21,21,0,0,1,3.45.3,16.61,16.61,0,0,1,7.78-3.81A18.68,18.68,0,0,1,558,624.27a19.88,19.88,0,0,1,31.52,14.52l.47,1.11a28.06,28.06,0,0,1,1.37,8.14A16.58,16.58,0,0,1,590.33,654Z"/><polygon class="cls-3" points="216.73 663.49 241.45 661.59 240.02 697.24 216.73 697.24 216.73 663.49"/><polygon class="cls-3" points="333.67 713.26 337.47 680.84 352.21 680.84 351.73 711.98 333.67 713.26"/><polygon class="cls-3" points="236.22 832.25 239.07 799.92 257.02 799.92 255.71 832.25 236.22 832.25"/><polygon class="cls-3" points="134.49 713.4 116.9 715.64 114.05 682.98 131.63 680.6 134.49 713.4"/><path class="cls-1" d="M168.85,98.91c5.42-2.84,11-5.43,16.6-7.81.62.34,1.24.71,1.91,1l2.31,1.09c1.57.77,3.32,1.36,5.06,2s3.61,1.15,5.51,1.54,3.81.73,5.71,1,3.82.4,5.7.38,3.71-.06,5.45-.14,3.42-.34,5-.67a41,41,0,0,0,4.33-1c.66-.19,1.29-.35,1.88-.53l1.65-.59a23.81,23.81,0,0,0,2.63-1l2.22-1-2.42.16a26,26,0,0,1-2.74,0l-1.67,0c-.59,0-1.21-.1-1.85-.15s-1.29-.09-2-.2L222,92.76c-1.42-.2-2.9-.64-4.4-1s-3-.9-4.5-1.54-2.95-1.31-4.38-2-2.8-1.52-4.06-2.43-2.48-1.78-3.62-2.64c-.79-.71-1.55-1.37-2.26-2a117,117,0,0,1,15.92-20.5,119.23,119.23,0,0,1,18.93-15.8c26-17.41,60.39-26.17,96.9-24.7a249.31,249.31,0,0,1,52.59,8.18q11.5,3,23.59,7.05a75.22,75.22,0,0,1,29-10.61,71,71,0,0,1,20.43,0c7.44,1.1,13.41,3.28,17.74,6.47,7.68,5.65,12.13,16.18,11.84,27.49,0,1.17-.09,2.35-.22,3.53A51.38,51.38,0,0,1,483,73l-1.45.7c-1,.52-2.23.86-3.43,1.34a37.59,37.59,0,0,1-3.84,1.29l-4.09,1.14-4.2.82a38.47,38.47,0,0,1-4.16.58c-1.35.12-2.7.36-4,.37l-3.59.11-1.61,0-1.45-.07-2.37-.13-2.1-.11,1.86.94,2.17,1.09,1.35.67c.48.21,1,.41,1.53.63l3.5,1.41c1.25.54,2.62.87,4,1.34a42.74,42.74,0,0,0,4.42,1.25l4.69,1.06,4.79.69a45.72,45.72,0,0,0,4.72.43c.89,0,1.74.12,2.59.17A58.5,58.5,0,0,1,487.56,106q.17,1.27.27,2.55a57.37,57.37,0,0,1-1.12,16.56,60,60,0,0,1-1.88,6.83,13.48,13.48,0,0,1-2.22,2.1,28.05,28.05,0,0,1-4.48,2.73c-.89.44-1.85.87-2.86,1.29l-.78.31-.39.16-.05,0,.19,0h0l-.11,0-.22.07-1.81.61c-2.41.78-5,1.76-7.37,2.34s-4.86,1.41-7.47,1.89l-3.87.81c-1.3.29-2.6.41-3.89.62l-3.85.56c-1.28.17-2.54.24-3.79.36l-3.69.31c-1.21.1-2.39.08-3.54.12-2.31,0-4.52.18-6.54.05l-5.55-.21c-1.65-.13-3.09-.3-4.28-.4l-3.75-.38,3.57,1.21c1.14.38,2.52.88,4.13,1.38l5.46,1.49c2,.6,4.22,1,6.56,1.48,1.18.22,2.38.53,3.63.71l3.82.55c1.31.17,2.63.41,4,.54l4.11.34c1.39.1,2.79.28,4.2.3l4.25.09c2.83.14,5.75-.06,8.64-.17s5.48-.42,8.07-.64l1.9-.18,2.23-.33c1.35-.22,2.7-.48,4-.79a44.86,44.86,0,0,0,6.31-1.94c2.42,1.51,4.79,3.1,7.06,4.8a94.83,94.83,0,0,1,24.46,26.65c14.32,23.6,17.51,54.07,9,80.39-33.14-16.13-70.22-26.3-110.39-36.38-66.81-16.76-132.36-32.16-199.65-36.45-55-3.51-104.8.46-148.72,11.81C91.27,157.07,126.58,121.09,168.85,98.91Z"/><path class="cls-2" d="M26.83,415.09c3.26-26.65,18.66-50.29,40.2-61.68l12.52-6.62-10.44-9.57c-28.07-25.71-43-65.22-38.94-102,51.65-22.54,115-31.6,188.39-26.92,65.61,4.19,130.18,19.37,196.06,35.89,51.3,12.87,97.25,25.82,135.08,51.35-47,30.52-79.43,66.3-98.84,109L448,410.86l4.89,4.9a113.61,113.61,0,0,0,21.44,16.93c-41.39,50.05-62,109.8-58.62,170.1a437.28,437.28,0,0,1-132.16,13.74,32.26,32.26,0,0,0,.44-5.22c0-23.86-26.55-43.27-59.18-43.27-28.61,0-52.54,14.92-58,34.68q-7.19-2.07-14.22-4.64a27.31,27.31,0,0,0,2.35-11c0-19.86-21.91-36-48.85-36l-.88,0c-4.1-9.9-15.33-19.39-28.85-30.8-11.2-9.45-23.89-20.16-30.27-30C30.64,466.44,23.81,439.74,26.83,415.09Z"/><ellipse class="cls-2" cx="224.81" cy="611.31" rx="47.78" ry="31.86"/><ellipse class="cls-2" cx="106.08" cy="587.07" rx="37.44" ry="24.6"/><path class="cls-3" d="M482.81,574.55a52.34,52.34,0,0,1,5.79,1.88c-2.13,1.2-4.8,2.39-6.13,3a432.64,432.64,0,0,1-47,17.73,209.62,209.62,0,0,1,1-28.25A163.59,163.59,0,0,1,482.81,574.55Z"/><path class="cls-3" d="M78.3,548.53a73.51,73.51,0,0,1,6,6.31,48.57,48.57,0,0,0-17.59,10.91,99.86,99.86,0,0,0-10.54-6c-1.2-.61-2.39-1.22-3.57-1.84-4-2.12-8.83-5.05-11.12-8.94a8.27,8.27,0,0,1-1.11-3.81A151.62,151.62,0,0,1,78.3,548.53Z"/><path class="cls-3" d="M609.86,608.18c-11.62-12-32.44-16.34-53.06-11-18.53,4.76-42,21-59.15,32.81l-.87.6a16.73,16.73,0,0,1-5.89,2.55l-4.74,1,1.24-16.85a15.74,15.74,0,0,1,.43-2.65,117.38,117.38,0,0,0,3-18.63l-.75.34A456.34,456.34,0,0,1,305,635.6q-14.78,0-29.54-1l.06-1a54.28,54.28,0,0,1-19.61,14.49c17,31.25-3.11,62.39-10.39,65.14-7.49,2.84-27.46,4.3-27.46,4.3L213.76,769H195.57l-3.51-121.68c-12-5.84-20.88-14.77-24.57-25.22A223.55,223.55,0,0,1,139.87,613c-8.78,6.21-20.68,10-33.79,10-26.93,0-48.84-16.15-48.84-36a26.73,26.73,0,0,1,.48-5,67.51,67.51,0,0,0-9.94-5.76c-1.29-.66-2.58-1.32-3.85-2a69.1,69.1,0,0,1-8.18-5,471.84,471.84,0,0,0,0,77l27.15-3.26v94.12l21.63-6.66,3.81,32.33L63,768.35c14.09,35.22,32.6,61.32,56.1,79.22a144,144,0,0,0,29.58,17.19C141,854.34,135,840.21,132.1,824.12c-4.08-22.57-1.09-43.66,6.81-57.31l-4.42-28.21H124.27v36.6H94.08l4.75-124.89,48.49-7.26L160.9,751.23c20.21-1.26,41,24.36,47.28,59.14.43,2.38.77,4.73,1,7.07l-26.73,1.23-1.43-16.85-24.24,1.43,10,54.66h20.44V846L208.38,848c-2.52,13.12-7.9,23.74-15.37,29.81,6.72,1.17,13.67,2,20.8,2.65l12-120.9,37.24-5.38L273.3,645.54l23.77-2.49L282.8,731.94l21.4-4.75-2.86,30.42-17.09,3.53L269.49,871.23l-20,1.42-.12-18.54h-9.86l-3,27.34h1.54a307.46,307.46,0,0,0,32.22-1.72l36.22-115,21.39-113,45.64-8.68L367,752.38l-21.4,5.23V734.32h-9l-5.7,30.9h33.75L341.75,808H309.43l-5.23,16.16h26.14l-13.78,24.72L299,850.31,291,876.9q14.84-2.53,29.45-6.41l57.57-115.83c-3.87-12.44-4.63-29.27-1.33-47.19,6.3-34.36,25.07-59.7,41.91-56.61,13.37,2.46,21.5,22.1,21.13,47.28l-21,2.43L421.61,685l-19,1.75L391.19,740.5l19.49-1.9L414,727.66l22-1.21c-3.17,12.78-8,23.95-13.81,32.4l8.91,1.61-28.05,43.26-26.14-1-10,17.59h16.16L369.8,842.7l-15.21-.47L346,856l14.44,1.2c46.6-18.66,89.33-47.35,123.11-83.56,34.68-14.46,67.18-34.84,97.92-62.94,21.31-19.48,33-36,38-53.67C624.65,638.74,620.87,619.56,609.86,608.18ZM590.33,654c-.13,1-.25,1.91-.38,2.87-.16.46-.34.92-.52,1.38,1.36,9.79-4.1,20.69-16.39,21.43a16.86,16.86,0,0,1-4.76,6,16.93,16.93,0,0,1-11.57,12.46,18.16,18.16,0,0,1-5.4,12.85l-3.75,2.9a30.75,30.75,0,0,1-6.81,3.14,19.08,19.08,0,0,1-3,.87,18.74,18.74,0,0,1-9.86,0l-2.56-1.08c-.19.24-.41.47-.62.71a18.63,18.63,0,0,1-4.81,8.44l-.71.71a19.68,19.68,0,0,1-1.76,1.53c-1.68,7.48-7.48,13.88-17.41,13.88-18.85,0-22.83-23-12-32.79a18.66,18.66,0,0,1,4.91-8.84l.29-.29c-1.35-6.39.28-13.52,4.91-18.12a18.21,18.21,0,0,1-1-5.92v-.35a18.64,18.64,0,0,1,2.76-9.69c-6.15-11-1-28.46,15.42-28.46a19.1,19.1,0,0,1,7,1.25c3-3.91,7.65-6.6,14.08-6.6a21,21,0,0,1,3.45.3,16.61,16.61,0,0,1,7.78-3.81A18.68,18.68,0,0,1,558,624.27a19.88,19.88,0,0,1,31.52,14.52l.47,1.11a28.06,28.06,0,0,1,1.37,8.14A16.58,16.58,0,0,1,590.33,654Z"/><polygon class="cls-3" points="216.73 663.49 241.45 661.59 240.02 697.24 216.73 697.24 216.73 663.49"/><polygon class="cls-3" points="333.67 713.26 337.47 680.84 352.21 680.84 351.73 711.98 333.67 713.26"/><polygon class="cls-3" points="236.22 832.25 239.07 799.92 257.02 799.92 255.71 832.25 236.22 832.25"/><polygon class="cls-3" points="134.49 713.4 116.9 715.64 114.05 682.98 131.63 680.6 134.49 713.4"/><path class="cls-4" d="M495.81,56c1,6.34.33,13.3-3.63,18.34-3.67,4.7-9.71,7-15.65,7.54s-11.88-.64-17.73-1.78a35.63,35.63,0,0,0,14.05-32.56,35.61,35.61,0,0,0-21.71-28A43,43,0,0,1,495.81,56Z"/><path class="cls-4" d="M494.71,107.21c.35,11.42.2,24.21-7.82,32.35-5.52,5.6-13.71,7.7-21.56,8.24s-15.78-.24-23.58.73a49.6,49.6,0,0,0,33.36-62.86c4.71-3.87,12.35-1.14,15.73,3.93S494.52,101.12,494.71,107.21Z"/><path class="cls-4" d="M541,241.15c.18,4.93.37,9.94-.84,14.73s-4,9.4-8.41,11.63c-6.48,3.28-14.27.68-21-2.15a367.86,367.86,0,0,1-47.22-24.08c6.67-2.43,14-2,21.08-2.29s14.69-1.63,19.71-6.66c6.38-6.38,6.61-16.6,5.17-25.51a97.31,97.31,0,0,0-32.87-58.13c14.11-6.12,31.34-.53,42.14,10.42s16.13,26.22,18.79,41.37C539.94,213.89,540.46,227.54,541,241.15Z"/><ellipse class="cls-1" cx="147.8" cy="344.63" rx="44.92" ry="23.17" transform="translate(-24.87 11.77) rotate(-4.21)"/><ellipse class="cls-1" cx="286.61" cy="352.23" rx="23.17" ry="54.61" transform="translate(-89.16 607.21) rotate(-85.02)"/><ellipse cx="200.21" cy="420.93" rx="35.62" ry="70.27" transform="translate(-226.52 608.45) rotate(-88.29)"/><path d="M149.76,371.3A87.26,87.26,0,0,0,166,368.57c18.55-5,31-15.73,30.13-27.5-.94-12.76-17.17-22-38.76-23.22a89.61,89.61,0,0,0-11.56.11c-27.12,2-47.5,15.27-46.4,30.22S122.64,373.29,149.76,371.3ZM189,341.6c.43,5.86-5.5,12.44-16,17A29.18,29.18,0,0,0,175.87,344a29.93,29.93,0,0,0-7.51-17.51C180.78,329.29,188.58,335.32,189,341.6Z"/><path d="M284.29,378.87a128.35,128.35,0,0,0,20,.22c23.17-1.63,40-10,41-21.74,1.11-12.75-16.77-24.77-42.49-29.8a131.27,131.27,0,0,0-13.91-1.95c-32.93-2.87-59.75,6.58-61.05,21.52S251.36,376,284.29,378.87ZM336.7,356.6c-.51,5.85-8.8,11.28-22.17,13.94a25.24,25.24,0,0,0,5.92-13.93c.57-6.56-1.64-12.94-6-18.6C328.92,343,337.24,350.33,336.7,356.6Z"/><path d="M265,480.89c-.49.51-1,1.09-1.59,1.68l-2,1.87-2.39,2c-.86.65-1.81,1.29-2.76,2a51.3,51.3,0,0,1-6.65,3.67,47.86,47.86,0,0,1-7.85,2.82,50.37,50.37,0,0,1-8.65,1.42,48.38,48.38,0,0,1-8.85-.34c.29,0,.06,0,.11,0h0l-.08,0-.15,0-.3-.05-.6-.11-1.19-.21a17.92,17.92,0,0,1-2.14-.5c-1.29-.29-2.7-.82-4-1.25a49.12,49.12,0,0,1-7.5-3.63,44.81,44.81,0,0,1-6.19-4.55c-.28-.24-.54-.49-.81-.73a51.52,51.52,0,0,1-3.95-4.1c-.63-.82-1.26-1.59-1.81-2.35l-1.48-2.2-1.17-2c-.33-.59-.58-1.16-.84-1.67a45.54,45.54,0,0,1-3.44,3.93c-.72.81-1.6,1.51-2.44,2.33s-1.84,1.53-2.81,2.32-2.24,1.6-3.44,2.38a36.88,36.88,0,0,1-3.25,1.9c-1.2.71-2.51,1.24-3.81,1.87s-2.67,1.13-4.08,1.53l-2.13.68-2.17.54c-.74.21-1.43.31-2.14.44s-1.34.31-2.21.38l-2.46.25-.31,0h-.15l-.57,0-1.13.05c-.77.05-1.52,0-2.27,0s-1.52,0-2.26-.09a36.47,36.47,0,0,1-8.64-1.59l-2-.69-1.83-.8a13.24,13.24,0,0,1-1.89-1l-.94-.54-.46-.27-.06,0,0,0h0l-.1-.08-.2-.14a25.87,25.87,0,0,1-3-2.38c-.45-.43-.94-.82-1.35-1.28l-1.17-1.35-.58-.66-.49-.71-.93-1.37c-.61-.9-1-1.86-1.47-2.71a21.71,21.71,0,0,1-1.56-4.8,15.5,15.5,0,0,1-.41-3.3c-.05-.77-.07-1.18-.07-1.18s0,.41-.12,1.18a15.41,15.41,0,0,0-.14,3.36,23.46,23.46,0,0,0,.81,5.28,32.67,32.67,0,0,0,1.09,3.13l.76,1.64c.14.28.27.56.41.85l.5.82,1,1.69c.37.57.83,1.09,1.26,1.65a28.83,28.83,0,0,0,3,3.25l.21.2.1.1,0,0,.11.08.05,0,.42.34.84.69A16.78,16.78,0,0,0,136,492l2.1,1.37,2.18,1.17a43.15,43.15,0,0,0,9.64,3.47c.85.24,1.71.36,2.58.53a25.9,25.9,0,0,0,2.62.4l1.32.16.66.08.17,0h.3l.31,0,2.47.14c.77.08,1.8,0,2.7,0s1.88,0,2.75-.11l2.68-.23c.88-.1,1.76-.25,2.64-.37,1.77-.22,3.47-.68,5.18-1s3.38-.88,5-1.48a61.73,61.73,0,0,0,8.1-3.42,53.36,53.36,0,0,0,5.08,3.51,57,57,0,0,0,8.77,4.41,58.86,58.86,0,0,0,10,2.91c1.76.26,3.45.59,5.35.71a25.67,25.67,0,0,0,2.65.15l2.59,0a55.09,55.09,0,0,0,10.37-1.32,56.55,56.55,0,0,0,9.41-3.2,52.85,52.85,0,0,0,8-4.47,54.31,54.31,0,0,0,6.35-5c.88-.89,1.74-1.71,2.52-2.54l2.1-2.41,1.71-2.23c.51-.7.93-1.38,1.33-2,.82-1.18,1.3-2.18,1.69-2.83l.57-1-.73.91C266.63,479,266,479.89,265,480.89Z"/><polygon points="168.24 709.12 180.84 709.12 183.93 655.4 166.81 655.4 168.24 709.12"/><path d="M623.19,595.29c-19.63-20.28-49.55-21.63-71-16.12-14,3.61-29.25,12.6-43.22,21.92a135.26,135.26,0,0,0,.5-23,15.78,15.78,0,0,0,0-3.71,15.4,15.4,0,0,0-.63-2.83c0-.22,0-.44-.07-.65h-.14c-3.41-9.4-15.5-12.71-21-14.21a182.71,182.71,0,0,0-48.54-6.35c7.81-40.61,27.5-79.56,57.84-113.3l7.82-8.7L495,422c-2-1.28-4-2.5-6-3.67A111.7,111.7,0,0,1,472.1,406.4c19.8-39.79,52.77-73.09,100.56-101.63l12.48-7.45-11.43-9a230.68,230.68,0,0,0-26-17.6A117.77,117.77,0,0,0,538,170.48a115.86,115.86,0,0,0-33.21-35.07,77.37,77.37,0,0,0-3.55-53.88,71.92,71.92,0,0,0,4.17-17.1c2.2-19.57-5.5-38.94-19.63-49.33-7-5.15-16-8.55-26.65-10.14a93.06,93.06,0,0,0-54.5,8.71C378.52,5.56,354.34,1.1,331.37.18,290.66-1.48,252,8.5,222.56,28.25a137.63,137.63,0,0,0-41.28,43c-60.9,24.58-111.84,74.9-134.91,136.36a309.31,309.31,0,0,0-29.51,11.73L12,221.54l-.85,5.25c-6.57,40.54,7.19,84.74,35.37,116C25.25,358.63,10.48,384.33,7,412.66c-3.59,29.29,4.34,60.7,22.31,88.46,5.8,8.95,14.7,17.57,23.83,25.59a169.9,169.9,0,0,0-17.91.16,18.08,18.08,0,0,0-7.79,2,14.33,14.33,0,0,0-7,10.4A489,489,0,0,0,32.85,736.4c16,58.52,40.57,99.71,75,125.92,32.33,24.62,75.38,37.3,127.93,37.67h2.35c95.4,0,191-41.2,256.44-110.57,36-15.24,67.62-35.94,99.45-65,14.91-13.62,35.61-34.91,43.33-62.33C644.25,637.53,638.7,611.32,623.19,595.29ZM482.81,574.55a52.34,52.34,0,0,1,5.79,1.88c-2.13,1.2-4.8,2.39-6.13,3a432.64,432.64,0,0,1-47,17.73,209.62,209.62,0,0,1,1-28.25A163.59,163.59,0,0,1,482.81,574.55Zm-314-475.64c5.42-2.84,11-5.43,16.6-7.81.62.34,1.24.71,1.91,1l2.31,1.09c1.57.77,3.32,1.36,5.06,2s3.61,1.15,5.51,1.54,3.81.73,5.71,1,3.82.4,5.7.38,3.71-.06,5.45-.14,3.42-.34,5-.67a41,41,0,0,0,4.33-1c.66-.19,1.29-.35,1.88-.53l1.65-.59a23.81,23.81,0,0,0,2.63-1l2.22-1-2.42.16a26,26,0,0,1-2.74,0l-1.67,0c-.59,0-1.21-.1-1.85-.15s-1.29-.09-2-.2L222,92.76c-1.42-.2-2.9-.64-4.4-1s-3-.9-4.5-1.54-2.95-1.31-4.38-2-2.8-1.52-4.06-2.43-2.48-1.78-3.62-2.64c-.79-.71-1.55-1.37-2.26-2a117,117,0,0,1,15.92-20.5,119.23,119.23,0,0,1,18.93-15.8c26-17.41,60.39-26.17,96.9-24.7a249.31,249.31,0,0,1,52.59,8.18q11.5,3,23.59,7.05a75.22,75.22,0,0,1,29-10.61,71,71,0,0,1,20.43,0c7.44,1.1,13.41,3.28,17.74,6.47,7.68,5.65,12.13,16.18,11.84,27.49,0,1.17-.09,2.35-.22,3.53A51.38,51.38,0,0,1,483,73l-1.45.7c-1,.52-2.23.86-3.43,1.34a37.59,37.59,0,0,1-3.84,1.29l-4.09,1.14-4.2.82a38.47,38.47,0,0,1-4.16.58c-1.35.12-2.7.36-4,.37l-3.59.11-1.61,0-1.45-.07-2.37-.13-2.1-.11,1.86.94,2.17,1.09,1.35.67c.48.21,1,.41,1.53.63l3.5,1.41c1.25.54,2.62.87,4,1.34a42.74,42.74,0,0,0,4.42,1.25l4.69,1.06,4.79.69a45.72,45.72,0,0,0,4.72.43c.89,0,1.74.12,2.59.17A58.5,58.5,0,0,1,487.56,106q.17,1.27.27,2.55a57.37,57.37,0,0,1-1.12,16.56,60,60,0,0,1-1.88,6.83,13.48,13.48,0,0,1-2.22,2.1,28.05,28.05,0,0,1-4.48,2.73c-.89.44-1.85.87-2.86,1.29l-.78.31-.39.16-.05,0,.19,0h0l-.11,0-.22.07-1.81.61c-2.41.78-5,1.76-7.37,2.34s-4.86,1.41-7.47,1.89l-3.87.81c-1.3.29-2.6.41-3.89.62l-3.85.56c-1.28.17-2.54.24-3.79.36l-3.69.31c-1.21.1-2.39.08-3.54.12-2.31,0-4.52.18-6.54.05l-5.55-.21c-1.65-.13-3.09-.3-4.28-.4l-3.75-.38,3.57,1.21c1.14.38,2.52.88,4.13,1.38l5.46,1.49c2,.6,4.22,1,6.56,1.48,1.18.22,2.38.53,3.63.71l3.82.55c1.31.17,2.63.41,4,.54l4.11.34c1.39.1,2.79.28,4.2.3l4.25.09c2.83.14,5.75-.06,8.64-.17s5.48-.42,8.07-.64l1.9-.18,2.23-.33c1.35-.22,2.7-.48,4-.79a44.86,44.86,0,0,0,6.31-1.94c2.42,1.51,4.79,3.1,7.06,4.8a94.83,94.83,0,0,1,24.46,26.65c14.32,23.6,17.51,54.07,9,80.39-33.14-16.13-70.22-26.3-110.39-36.38-66.81-16.76-132.36-32.16-199.65-36.45-55-3.51-104.8.46-148.72,11.81C91.27,157.07,126.58,121.09,168.85,98.91Zm-142,316.18c3.26-26.65,18.66-50.29,40.2-61.68l12.52-6.62-10.44-9.57c-28.07-25.71-43-65.22-38.94-102,51.65-22.54,115-31.6,188.39-26.92,65.61,4.19,130.18,19.37,196.06,35.89,51.3,12.87,97.25,25.82,135.08,51.35-47,30.52-79.43,66.3-98.84,109L448,410.86l4.89,4.9a113.61,113.61,0,0,0,21.44,16.93c-41.39,50.05-62,109.8-58.62,170.1a437.28,437.28,0,0,1-132.16,13.74,32.26,32.26,0,0,0,.44-5.22c0-23.86-26.55-43.27-59.18-43.27-28.61,0-52.54,14.92-58,34.68q-7.19-2.07-14.22-4.64a27.31,27.31,0,0,0,2.35-11c0-19.86-21.91-36-48.85-36l-.88,0c-4.1-9.9-15.33-19.39-28.85-30.8-11.2-9.45-23.89-20.16-30.27-30C30.64,466.44,23.81,439.74,26.83,415.09Zm189.9,248.4,24.72-1.9L240,697.24H216.73Zm8.08-21.91c-25,0-45.39-13.57-45.39-30.27S199.78,581,224.81,581s45.38,13.58,45.38,30.27S249.83,641.58,224.81,641.58ZM106.08,563.7c19.28,0,35.57,10.7,35.57,23.37s-16.29,23.37-35.57,23.37-35.56-10.7-35.56-23.37S86.81,563.7,106.08,563.7ZM78.3,548.53a73.51,73.51,0,0,1,6,6.31,48.57,48.57,0,0,0-17.59,10.91,99.86,99.86,0,0,0-10.54-6c-1.2-.61-2.39-1.22-3.57-1.84-4-2.12-8.83-5.05-11.12-8.94a8.27,8.27,0,0,1-1.11-3.81A151.62,151.62,0,0,1,78.3,548.53ZM619.5,657c-5,17.64-16.69,34.19-38,53.67-30.74,28.1-63.24,48.48-97.92,62.94-33.78,36.21-76.51,64.9-123.11,83.56L346,856l8.56-13.78,15.21.47,13.31-22.34H367l10-17.59,26.14,1,28.05-43.26-8.91-1.61c5.76-8.45,10.64-19.62,13.81-32.4l-22,1.21-3.33,10.94-19.49,1.9,11.41-53.72,19-1.75-2.85,15.54,21-2.43c.37-25.18-7.76-44.82-21.13-47.28-16.84-3.09-35.61,22.25-41.91,56.61-3.3,17.92-2.54,34.75,1.33,47.19L320.48,870.49q-14.6,3.87-29.45,6.41L299,850.31l17.59-1.43,13.78-24.72H304.2L309.43,808h32.32l22.82-42.78H330.82l5.7-30.9h9v23.29l21.4-5.23,6.65-109.33L328,651.73l-21.39,113-36.22,115a307.46,307.46,0,0,1-32.22,1.72h-1.54l3-27.34h9.86l.12,18.54,20-1.42,14.76-110.09,17.09-3.53,2.86-30.42-21.4,4.75,14.27-88.89-23.77,2.49L263.09,754.13l-37.24,5.38-12,120.9c-7.13-.62-14.08-1.48-20.8-2.65,7.47-6.07,12.85-16.69,15.37-29.81L187.25,846v11.88H166.81l-10-54.66,24.24-1.43,1.43,16.85,26.73-1.23c-.28-2.34-.62-4.69-1-7.07-6.29-34.78-27.07-60.4-47.28-59.14L147.32,643.05l-48.49,7.26L94.08,775.2h30.19V738.6h10.22l4.42,28.21c-7.9,13.65-10.89,34.74-6.81,57.31,2.91,16.09,8.92,30.22,16.55,40.64a144,144,0,0,1-29.58-17.19c-23.5-17.9-42-44-56.1-79.22l25.41-5.51-3.81-32.33-21.63,6.66V643.05l-27.15,3.26a471.84,471.84,0,0,1,0-77,69.1,69.1,0,0,0,8.18,5c1.27.68,2.56,1.34,3.85,2a67.51,67.51,0,0,1,9.94,5.76,26.73,26.73,0,0,0-.48,5c0,19.86,21.91,36,48.84,36,13.11,0,25-3.83,33.79-10a223.55,223.55,0,0,0,27.62,9.08c3.69,10.45,12.6,19.38,24.57,25.22L195.57,769h18.19L218,717.56s20-1.46,27.46-4.3c7.28-2.75,27.39-33.89,10.39-65.14a54.28,54.28,0,0,0,19.61-14.49l-.06,1q14.76,1,29.54,1A456.34,456.34,0,0,0,490,596.34l.75-.34a117.38,117.38,0,0,1-3,18.63,15.74,15.74,0,0,0-.43,2.65l-1.24,16.85,4.74-1a16.73,16.73,0,0,0,5.89-2.55l.87-.6c17.14-11.84,40.62-28.05,59.15-32.81,20.62-5.29,41.44-1,53.06,11C620.87,619.56,624.65,638.74,619.5,657ZM333.67,713.26l3.8-32.42h14.74L351.73,712Zm-97.45,119,2.85-32.32H257l-1.31,32.32ZM134.49,713.4l-17.59,2.24L114.05,683l17.59-2.38Z"/><path d="M589,617.57c-9-6.63-21.06-7.25-36.92-1.9a165.92,165.92,0,0,0-48,25.71l-45.84-1.66L431.12,769c33.4,0,47.52-7.42,53.46-14.12,19-8.42,40.17-18.55,59.43-32.15,23-16.24,39.81-35.12,50-56.12,2.76-5.66,6.44-14.29,6.52-23.83C600.66,632.45,596.32,623,589,617.57ZM453.94,722l13.79-1.43,5.94-29.23-7.37.23,4.52-16.63h11.64l-8.08,59.89H450.14Zm126-62.2c-9.05,18.6-24.19,35.48-45,50.18-14,9.91-29.4,18-44.11,24.87l15.9-75.36a150,150,0,0,1,50.3-28.91c10.5-3.55,18.1-3.66,22.58-.35,3.29,2.43,5.3,7.2,5.25,12.47C584.83,647.5,583.26,652.94,579.94,659.76Z"/><path class="cls-4" d="M495.81,56c1,6.34.33,13.3-3.63,18.34-3.67,4.7-9.71,7-15.65,7.54s-11.88-.64-17.73-1.78a35.63,35.63,0,0,0,14.05-32.56,35.61,35.61,0,0,0-21.71-28A43,43,0,0,1,495.81,56Z"/><path class="cls-4" d="M494.71,107.21c.35,11.42.2,24.21-7.82,32.35-5.52,5.6-13.71,7.7-21.56,8.24s-15.78-.24-23.58.73a49.6,49.6,0,0,0,33.36-62.86c4.71-3.87,12.35-1.14,15.73,3.93S494.52,101.12,494.71,107.21Z"/><path class="cls-4" d="M541,241.15c.18,4.93.37,9.94-.84,14.73s-4,9.4-8.41,11.63c-6.48,3.28-14.27.68-21-2.15a367.86,367.86,0,0,1-47.22-24.08c6.67-2.43,14-2,21.08-2.29s14.69-1.63,19.71-6.66c6.38-6.38,6.61-16.6,5.17-25.51a97.31,97.31,0,0,0-32.87-58.13c14.11-6.12,31.34-.53,42.14,10.42s16.13,26.22,18.79,41.37C539.94,213.89,540.46,227.54,541,241.15Z"/><ellipse class="cls-1" cx="147.8" cy="344.63" rx="44.92" ry="23.17" transform="translate(-24.87 11.77) rotate(-4.21)"/><ellipse class="cls-1" cx="286.61" cy="352.23" rx="23.17" ry="54.61" transform="translate(-89.16 607.21) rotate(-85.02)"/><ellipse cx="200.21" cy="420.93" rx="35.62" ry="70.27" transform="translate(-226.52 608.45) rotate(-88.29)"/><path d="M149.76,371.3A87.26,87.26,0,0,0,166,368.57c18.55-5,31-15.73,30.13-27.5-.94-12.76-17.17-22-38.76-23.22a89.61,89.61,0,0,0-11.56.11c-27.12,2-47.5,15.27-46.4,30.22S122.64,373.29,149.76,371.3ZM189,341.6c.43,5.86-5.5,12.44-16,17A29.18,29.18,0,0,0,175.87,344a29.93,29.93,0,0,0-7.51-17.51C180.78,329.29,188.58,335.32,189,341.6Z"/><path d="M284.29,378.87a128.35,128.35,0,0,0,20,.22c23.17-1.63,40-10,41-21.74,1.11-12.75-16.77-24.77-42.49-29.8a131.27,131.27,0,0,0-13.91-1.95c-32.93-2.87-59.75,6.58-61.05,21.52S251.36,376,284.29,378.87ZM336.7,356.6c-.51,5.85-8.8,11.28-22.17,13.94a25.24,25.24,0,0,0,5.92-13.93c.57-6.56-1.64-12.94-6-18.6C328.92,343,337.24,350.33,336.7,356.6Z"/><path d="M265,480.89c-.49.51-1,1.09-1.59,1.68l-2,1.87-2.39,2c-.86.65-1.81,1.29-2.76,2a51.3,51.3,0,0,1-6.65,3.67,47.86,47.86,0,0,1-7.85,2.82,50.37,50.37,0,0,1-8.65,1.42,48.38,48.38,0,0,1-8.85-.34c.29,0,.06,0,.11,0h0l-.08,0-.15,0-.3-.05-.6-.11-1.19-.21a17.92,17.92,0,0,1-2.14-.5c-1.29-.29-2.7-.82-4-1.25a49.12,49.12,0,0,1-7.5-3.63,44.81,44.81,0,0,1-6.19-4.55c-.28-.24-.54-.49-.81-.73a51.52,51.52,0,0,1-3.95-4.1c-.63-.82-1.26-1.59-1.81-2.35l-1.48-2.2-1.17-2c-.33-.59-.58-1.16-.84-1.67a45.54,45.54,0,0,1-3.44,3.93c-.72.81-1.6,1.51-2.44,2.33s-1.84,1.53-2.81,2.32-2.24,1.6-3.44,2.38a36.88,36.88,0,0,1-3.25,1.9c-1.2.71-2.51,1.24-3.81,1.87s-2.67,1.13-4.08,1.53l-2.13.68-2.17.54c-.74.21-1.43.31-2.14.44s-1.34.31-2.21.38l-2.46.25-.31,0h-.15l-.57,0-1.13.05c-.77.05-1.52,0-2.27,0s-1.52,0-2.26-.09a36.47,36.47,0,0,1-8.64-1.59l-2-.69-1.83-.8a13.24,13.24,0,0,1-1.89-1l-.94-.54-.46-.27-.06,0,0,0h0l-.1-.08-.2-.14a25.87,25.87,0,0,1-3-2.38c-.45-.43-.94-.82-1.35-1.28l-1.17-1.35-.58-.66-.49-.71-.93-1.37c-.61-.9-1-1.86-1.47-2.71a21.71,21.71,0,0,1-1.56-4.8,15.5,15.5,0,0,1-.41-3.3c-.05-.77-.07-1.18-.07-1.18s0,.41-.12,1.18a15.41,15.41,0,0,0-.14,3.36,23.46,23.46,0,0,0,.81,5.28,32.67,32.67,0,0,0,1.09,3.13l.76,1.64c.14.28.27.56.41.85l.5.82,1,1.69c.37.57.83,1.09,1.26,1.65a28.83,28.83,0,0,0,3,3.25l.21.2.1.1,0,0,.11.08.05,0,.42.34.84.69A16.78,16.78,0,0,0,136,492l2.1,1.37,2.18,1.17a43.15,43.15,0,0,0,9.64,3.47c.85.24,1.71.36,2.58.53a25.9,25.9,0,0,0,2.62.4l1.32.16.66.08.17,0h.3l.31,0,2.47.14c.77.08,1.8,0,2.7,0s1.88,0,2.75-.11l2.68-.23c.88-.1,1.76-.25,2.64-.37,1.77-.22,3.47-.68,5.18-1s3.38-.88,5-1.48a61.73,61.73,0,0,0,8.1-3.42,53.36,53.36,0,0,0,5.08,3.51,57,57,0,0,0,8.77,4.41,58.86,58.86,0,0,0,10,2.91c1.76.26,3.45.59,5.35.71a25.67,25.67,0,0,0,2.65.15l2.59,0a55.09,55.09,0,0,0,10.37-1.32,56.55,56.55,0,0,0,9.41-3.2,52.85,52.85,0,0,0,8-4.47,54.31,54.31,0,0,0,6.35-5c.88-.89,1.74-1.71,2.52-2.54l2.1-2.41,1.71-2.23c.51-.7.93-1.38,1.33-2,.82-1.18,1.3-2.18,1.69-2.83l.57-1-.73.91C266.63,479,266,479.89,265,480.89Z"/><polygon points="168.24 709.12 180.84 709.12 183.93 655.4 166.81 655.4 168.24 709.12"/><path d="M623.19,595.29c-19.63-20.28-49.55-21.63-71-16.12-14,3.61-29.25,12.6-43.22,21.92a135.26,135.26,0,0,0,.5-23,15.78,15.78,0,0,0,0-3.71,15.4,15.4,0,0,0-.63-2.83c0-.22,0-.44-.07-.65h-.14c-3.41-9.4-15.5-12.71-21-14.21a182.71,182.71,0,0,0-48.54-6.35c7.81-40.61,27.5-79.56,57.84-113.3l7.82-8.7L495,422c-2-1.28-4-2.5-6-3.67A111.7,111.7,0,0,1,472.1,406.4c19.8-39.79,52.77-73.09,100.56-101.63l12.48-7.45-11.43-9a230.68,230.68,0,0,0-26-17.6A117.77,117.77,0,0,0,538,170.48a115.86,115.86,0,0,0-33.21-35.07,77.37,77.37,0,0,0-3.55-53.88,71.92,71.92,0,0,0,4.17-17.1c2.2-19.57-5.5-38.94-19.63-49.33-7-5.15-16-8.55-26.65-10.14a93.06,93.06,0,0,0-54.5,8.71C378.52,5.56,354.34,1.1,331.37.18,290.66-1.48,252,8.5,222.56,28.25a137.63,137.63,0,0,0-41.28,43c-60.9,24.58-111.84,74.9-134.91,136.36a309.31,309.31,0,0,0-29.51,11.73L12,221.54l-.85,5.25c-6.57,40.54,7.19,84.74,35.37,116C25.25,358.63,10.48,384.33,7,412.66c-3.59,29.29,4.34,60.7,22.31,88.46,5.8,8.95,14.7,17.57,23.83,25.59a169.9,169.9,0,0,0-17.91.16,18.08,18.08,0,0,0-7.79,2,14.33,14.33,0,0,0-7,10.4A489,489,0,0,0,32.85,736.4c16,58.52,40.57,99.71,75,125.92,32.33,24.62,75.38,37.3,127.93,37.67h2.35c95.4,0,191-41.2,256.44-110.57,36-15.24,67.62-35.94,99.45-65,14.91-13.62,35.61-34.91,43.33-62.33C644.25,637.53,638.7,611.32,623.19,595.29ZM482.81,574.55a52.34,52.34,0,0,1,5.79,1.88c-2.13,1.2-4.8,2.39-6.13,3a432.64,432.64,0,0,1-47,17.73,209.62,209.62,0,0,1,1-28.25A163.59,163.59,0,0,1,482.81,574.55Zm-314-475.64c5.42-2.84,11-5.43,16.6-7.81.62.34,1.24.71,1.91,1l2.31,1.09c1.57.77,3.32,1.36,5.06,2s3.61,1.15,5.51,1.54,3.81.73,5.71,1,3.82.4,5.7.38,3.71-.06,5.45-.14,3.42-.34,5-.67a41,41,0,0,0,4.33-1c.66-.19,1.29-.35,1.88-.53l1.65-.59a23.81,23.81,0,0,0,2.63-1l2.22-1-2.42.16a26,26,0,0,1-2.74,0l-1.67,0c-.59,0-1.21-.1-1.85-.15s-1.29-.09-2-.2L222,92.76c-1.42-.2-2.9-.64-4.4-1s-3-.9-4.5-1.54-2.95-1.31-4.38-2-2.8-1.52-4.06-2.43-2.48-1.78-3.62-2.64c-.79-.71-1.55-1.37-2.26-2a117,117,0,0,1,15.92-20.5,119.23,119.23,0,0,1,18.93-15.8c26-17.41,60.39-26.17,96.9-24.7a249.31,249.31,0,0,1,52.59,8.18q11.5,3,23.59,7.05a75.22,75.22,0,0,1,29-10.61,71,71,0,0,1,20.43,0c7.44,1.1,13.41,3.28,17.74,6.47,7.68,5.65,12.13,16.18,11.84,27.49,0,1.17-.09,2.35-.22,3.53A51.38,51.38,0,0,1,483,73l-1.45.7c-1,.52-2.23.86-3.43,1.34a37.59,37.59,0,0,1-3.84,1.29l-4.09,1.14-4.2.82a38.47,38.47,0,0,1-4.16.58c-1.35.12-2.7.36-4,.37l-3.59.11-1.61,0-1.45-.07-2.37-.13-2.1-.11,1.86.94,2.17,1.09,1.35.67c.48.21,1,.41,1.53.63l3.5,1.41c1.25.54,2.62.87,4,1.34a42.74,42.74,0,0,0,4.42,1.25l4.69,1.06,4.79.69a45.72,45.72,0,0,0,4.72.43c.89,0,1.74.12,2.59.17A58.5,58.5,0,0,1,487.56,106q.17,1.27.27,2.55a57.37,57.37,0,0,1-1.12,16.56,60,60,0,0,1-1.88,6.83,13.48,13.48,0,0,1-2.22,2.1,28.05,28.05,0,0,1-4.48,2.73c-.89.44-1.85.87-2.86,1.29l-.78.31-.39.16-.05,0,.19,0h0l-.11,0-.22.07-1.81.61c-2.41.78-5,1.76-7.37,2.34s-4.86,1.41-7.47,1.89l-3.87.81c-1.3.29-2.6.41-3.89.62l-3.85.56c-1.28.17-2.54.24-3.79.36l-3.69.31c-1.21.1-2.39.08-3.54.12-2.31,0-4.52.18-6.54.05l-5.55-.21c-1.65-.13-3.09-.3-4.28-.4l-3.75-.38,3.57,1.21c1.14.38,2.52.88,4.13,1.38l5.46,1.49c2,.6,4.22,1,6.56,1.48,1.18.22,2.38.53,3.63.71l3.82.55c1.31.17,2.63.41,4,.54l4.11.34c1.39.1,2.79.28,4.2.3l4.25.09c2.83.14,5.75-.06,8.64-.17s5.48-.42,8.07-.64l1.9-.18,2.23-.33c1.35-.22,2.7-.48,4-.79a44.86,44.86,0,0,0,6.31-1.94c2.42,1.51,4.79,3.1,7.06,4.8a94.83,94.83,0,0,1,24.46,26.65c14.32,23.6,17.51,54.07,9,80.39-33.14-16.13-70.22-26.3-110.39-36.38-66.81-16.76-132.36-32.16-199.65-36.45-55-3.51-104.8.46-148.72,11.81C91.27,157.07,126.58,121.09,168.85,98.91Zm-142,316.18c3.26-26.65,18.66-50.29,40.2-61.68l12.52-6.62-10.44-9.57c-28.07-25.71-43-65.22-38.94-102,51.65-22.54,115-31.6,188.39-26.92,65.61,4.19,130.18,19.37,196.06,35.89,51.3,12.87,97.25,25.82,135.08,51.35-47,30.52-79.43,66.3-98.84,109L448,410.86l4.89,4.9a113.61,113.61,0,0,0,21.44,16.93c-41.39,50.05-62,109.8-58.62,170.1a437.28,437.28,0,0,1-132.16,13.74,32.26,32.26,0,0,0,.44-5.22c0-23.86-26.55-43.27-59.18-43.27-28.61,0-52.54,14.92-58,34.68q-7.19-2.07-14.22-4.64a27.31,27.31,0,0,0,2.35-11c0-19.86-21.91-36-48.85-36l-.88,0c-4.1-9.9-15.33-19.39-28.85-30.8-11.2-9.45-23.89-20.16-30.27-30C30.64,466.44,23.81,439.74,26.83,415.09Zm189.9,248.4,24.72-1.9L240,697.24H216.73Zm8.08-21.91c-25,0-45.39-13.57-45.39-30.27S199.78,581,224.81,581s45.38,13.58,45.38,30.27S249.83,641.58,224.81,641.58ZM106.08,563.7c19.28,0,35.57,10.7,35.57,23.37s-16.29,23.37-35.57,23.37-35.56-10.7-35.56-23.37S86.81,563.7,106.08,563.7ZM78.3,548.53a73.51,73.51,0,0,1,6,6.31,48.57,48.57,0,0,0-17.59,10.91,99.86,99.86,0,0,0-10.54-6c-1.2-.61-2.39-1.22-3.57-1.84-4-2.12-8.83-5.05-11.12-8.94a8.27,8.27,0,0,1-1.11-3.81A151.62,151.62,0,0,1,78.3,548.53ZM619.5,657c-5,17.64-16.69,34.19-38,53.67-30.74,28.1-63.24,48.48-97.92,62.94-33.78,36.21-76.51,64.9-123.11,83.56L346,856l8.56-13.78,15.21.47,13.31-22.34H367l10-17.59,26.14,1,28.05-43.26-8.91-1.61c5.76-8.45,10.64-19.62,13.81-32.4l-22,1.21-3.33,10.94-19.49,1.9,11.41-53.72,19-1.75-2.85,15.54,21-2.43c.37-25.18-7.76-44.82-21.13-47.28-16.84-3.09-35.61,22.25-41.91,56.61-3.3,17.92-2.54,34.75,1.33,47.19L320.48,870.49q-14.6,3.87-29.45,6.41L299,850.31l17.59-1.43,13.78-24.72H304.2L309.43,808h32.32l22.82-42.78H330.82l5.7-30.9h9v23.29l21.4-5.23,6.65-109.33L328,651.73l-21.39,113-36.22,115a307.46,307.46,0,0,1-32.22,1.72h-1.54l3-27.34h9.86l.12,18.54,20-1.42,14.76-110.09,17.09-3.53,2.86-30.42-21.4,4.75,14.27-88.89-23.77,2.49L263.09,754.13l-37.24,5.38-12,120.9c-7.13-.62-14.08-1.48-20.8-2.65,7.47-6.07,12.85-16.69,15.37-29.81L187.25,846v11.88H166.81l-10-54.66,24.24-1.43,1.43,16.85,26.73-1.23c-.28-2.34-.62-4.69-1-7.07-6.29-34.78-27.07-60.4-47.28-59.14L147.32,643.05l-48.49,7.26L94.08,775.2h30.19V738.6h10.22l4.42,28.21c-7.9,13.65-10.89,34.74-6.81,57.31,2.91,16.09,8.92,30.22,16.55,40.64a144,144,0,0,1-29.58-17.19c-23.5-17.9-42-44-56.1-79.22l25.41-5.51-3.81-32.33-21.63,6.66V643.05l-27.15,3.26a471.84,471.84,0,0,1,0-77,69.1,69.1,0,0,0,8.18,5c1.27.68,2.56,1.34,3.85,2a67.51,67.51,0,0,1,9.94,5.76,26.73,26.73,0,0,0-.48,5c0,19.86,21.91,36,48.84,36,13.11,0,25-3.83,33.79-10a223.55,223.55,0,0,0,27.62,9.08c3.69,10.45,12.6,19.38,24.57,25.22L195.57,769h18.19L218,717.56s20-1.46,27.46-4.3c7.28-2.75,27.39-33.89,10.39-65.14a54.28,54.28,0,0,0,19.61-14.49l-.06,1q14.76,1,29.54,1A456.34,456.34,0,0,0,490,596.34l.75-.34a117.38,117.38,0,0,1-3,18.63,15.74,15.74,0,0,0-.43,2.65l-1.24,16.85,4.74-1a16.73,16.73,0,0,0,5.89-2.55l.87-.6c17.14-11.84,40.62-28.05,59.15-32.81,20.62-5.29,41.44-1,53.06,11C620.87,619.56,624.65,638.74,619.5,657ZM333.67,713.26l3.8-32.42h14.74L351.73,712Zm-97.45,119,2.85-32.32H257l-1.31,32.32ZM134.49,713.4l-17.59,2.24L114.05,683l17.59-2.38Z"/><path d="M589,617.57c-9-6.63-21.06-7.25-36.92-1.9a165.92,165.92,0,0,0-48,25.71l-45.84-1.66L431.12,769c33.4,0,47.52-7.42,53.46-14.12,19-8.42,40.17-18.55,59.43-32.15,23-16.24,39.81-35.12,50-56.12,2.76-5.66,6.44-14.29,6.52-23.83C600.66,632.45,596.32,623,589,617.57ZM453.94,722l13.79-1.43,5.94-29.23-7.37.23,4.52-16.63h11.64l-8.08,59.89H450.14Zm126-62.2c-9.05,18.6-24.19,35.48-45,50.18-14,9.91-29.4,18-44.11,24.87l15.9-75.36a150,150,0,0,1,50.3-28.91c10.5-3.55,18.1-3.66,22.58-.35,3.29,2.43,5.3,7.2,5.25,12.47C584.83,647.5,583.26,652.94,579.94,659.76Z"/></g></svg>