<svg id="Réteg_1" data-name="Réteg 1" xmlns="http://www.w3.org/2000/svg" viewBox="0 0 1200 900"><defs><style>.cls-1{fill:#f8981d;}.cls-2{fill:#6a6a6a;}.cls-3{fill:#fff;}</style></defs><title>LEGO</title><rect class="cls-1" y="204.67" width="713.42" height="233.9"/><rect class="cls-2" x="713.42" y="438.57" width="486.58" height="256.76"/><path class="cls-3" d="M89,377.18h73.41v36.51H45.19V229.14H89Z"/><path class="cls-3" d="M316.41,264.29H228.53v37.85h69.09v34.75H228.53v40.29h87.88v36.51H184.59V229.14H316.41Z"/><path class="cls-3" d="M486.09,315v98.7H466.35a146.08,146.08,0,0,0-6.15-21.23q-19.76,24.06-50.33,24.07-36.11,0-56.2-25.83t-20.09-66.79q0-44.07,21.43-70.84t58.2-26.77q30.82,0,49.76,17.3t23.12,46.11l-41.1,5.4q-5-33.53-31.78-33.53-17.56,0-26.56,15.89t-9,45.36q0,28.4,9.73,43.4t27.72,15a31.58,31.58,0,0,0,20.75-7.57q9.12-7.57,9.13-24.2H410.24V315Z"/><path class="cls-3" d="M589.45,416.53q-37.29,0-57.68-28t-20.4-67.74q0-40.43,20.67-67.46t58.9-27q38.63,0,58.29,28.86t19.65,66q0,40.16-20.26,67.73T589.45,416.53Zm1.21-154.95q-34,0-34,59.76t34,59.9q32.93,0,32.93-59.76T590.66,261.58Z"/><path class="cls-3" d="M779,505.2v78.12l52.13-78.12h37.28l-39.94,59.36,49.92,106.91H835.53l-33.18-72.2L779,633.34v38.13H740.78V505.2Z"/><path class="cls-3" d="M952.45,674q-33.59,0-52-25.21t-18.37-61q0-36.42,18.62-60.78t53.06-24.36q34.8,0,52.51,26t17.71,59.5q0,36.18-18.26,61T952.45,674ZM934,487.42a13.5,13.5,0,0,1-10.47-4.26,14.19,14.19,0,0,1,.12-19.67A13.51,13.51,0,0,1,934,459.16a15.66,15.66,0,0,1,10.24,3.72q4.5,3.72,4.5,10.41a13.05,13.05,0,0,1-4.32,10.29A15.15,15.15,0,0,1,934,487.42Zm19.55,47q-30.63,0-30.63,53.83t30.63,54q29.67,0,29.66-53.83T953.54,534.44Zm21.14-47a13.51,13.51,0,0,1-10.48-4.26,14.12,14.12,0,0,1,.18-19.67,13.72,13.72,0,0,1,10.42-4.33A15.17,15.17,0,0,1,985,462.94a14.39,14.39,0,0,1,.06,20.64A15.13,15.13,0,0,1,974.68,487.42Z"/><path class="cls-3" d="M1083.35,605.57v65.9h-39.22V505.2h73.08q20.22,0,32.46,4.69T1170,527.12a50.56,50.56,0,0,1,8,27.87q0,29.94-28.87,43l30.7,73.51h-43l-25.53-65.9Zm0-70.77v42.39h23.87q11.7,0,17-1.64t9.44-7.31a21.42,21.42,0,0,0,4.14-13,20.11,20.11,0,0,0-4.14-12.43q-4.15-5.48-9-6.76t-18.27-1.28Z"/></svg>