<svg xmlns="http://www.w3.org/2000/svg" viewBox="0 0 1694.25 2003.33"><title>localheroes</title><g id="Layer_2" data-name="Layer 2"><g id="Layer_1-2" data-name="Layer 1"><path d="M940.78,615.68c1.39-3.76,3.87-7.27,3.76-10.7-.6-19.19,9.07-34.56,17.86-50.29,9.35-16.73,16.21-33.84,13.72-53.84-.87-7,1.9-14.42,3.09-22.23,21.48-1,29.11,13.13,36.71,27.46,3.84-21,6.38-41.57,11.49-61.48,12.4-48.31,37.95-89.13,73.15-124.34,7.1-7.1,11.77-16.65,17.55-25.07,3.29-4.79,6.56-9.59,10.53-15.38,4.82-56.08,34.95-101,70.52-143.34q33.6-40,65.77-81.24c5-6.39,6.89-15.14,10.41-22.71,3.88-8.33,7.39-16.93,12.18-24.73C1292.11.32,1299-3,1310.14,3.46c-4.38,52.77-8.84,106.47-13.3,160.17l3.1,2.1c6.1-8.34,12.23-16.67,18.29-25,3.63-5,6.52-10.74,10.81-15.11,27.06-27.59,54.54-54.77,81.54-82.42,4.27-4.37,6.57-10.6,10.22-15.65s8-10,12.06-14.93l4.67,1.06c.68,6.05,2.94,12.42,1.78,18.08-7.09,34.41-14.8,68.7-22.68,102.94-2.13,9.24-5.58,18.18-6.58,28.7l26.8-30.13c11,6.3,11.94,15.54,9.67,24.69-15.5,62.58-27.47,126.4-62.06,182.5-.32.52.13,1.51.34,3.32l162.39-110.51c6.9,18.86,4.15,37.56-3.57,54.81-15.74,35.17-33.09,69.62-49.81,104.34-2,4.08-4.15,8.06-7.62,14.75,46.1-12.14,85.32-32,119-61.76,3,2.79,4.32,3.83,5.42,5.05s2,2.6,3.67,4.82c-15.69,46.86-41.65,88.92-67.13,132.48,25.82-2.91,50.12-6.86,74.56-8,24.2-1.17,47.72-11.74,72.45-7.64.69,12.81-5.5,18.51-13.59,23.14q-59.76,34.16-119.44,68.45c-17.69,10.15-35.32,20.39-52.73,30.46h185.07c3.16,13.11-4.06,19.21-11.87,24.18-54.24,34.6-110.83,63.17-176.71,67.26-.72,0-1.4.73-5.06,2.76,7.73,5.19,14,10,20.79,13.86,33.91,19.46,69.09,35.59,108.27,41.6,4.27.65,7.86,5.8,13,9.84-28.46,22-55.7,39.91-91.87,44.54,39.21,34.36,86.7,56.5,110,108-8.17,1.39-12.78,3.13-17.23,2.78-27.09-2.13-54.1-5.28-81.2-7-23.87-1.55-47.83-1.74-71.75-2.44-2-.06-4,.57-8.91,1.36,4.58,3.63,7,6,9.88,7.76,21.66,13.45,43.32,26.9,65.15,40.07,5.58,3.36,12.22,5.06,17.55,8.71,5.51,3.77,12.36,8.15,14.39,13.79,2.48,6.9-3.84,10.76-11.12,11.7-25.74,3.33-51.38,7.49-77.19,10.12-13.6,1.39-27.47.25-41.34.25.24,1.4.08,2.57.56,2.95,15.28,12.15,30.9,23.89,45.87,36.41,14.29,12,28.29,24.33,41.65,37.31,6.85,6.65,5.65,15.17.46,23.88-2.22,0-5.14.89-7-.13-23.83-12.85-50-7.32-75.14-9.84-28.19-2.84-56.43-5.16-83.31-7.58-.34-.37.72,1.65,2.38,2.51,24.2,12.61,40.41,33.83,57.76,53.72s34,39.91,50.82,60c7.81,9.36,7.65,14.36.31,24.29l-79-57c2.23,16.66,17.08,34.56,43.87,55.23,18.56,14.31,38.17,27.25,59.12,42.08-3.08,5.31-6.22,10.73-8.08,13.92l-153.23-39.47c4.43,11.77,7.94,21.84,12,31.7,13.27,32.46,16.65,66.54,16.64,101.13a48.37,48.37,0,0,1-3.28,18.45c-1.48,3.52-6.36,7.47-10,7.71s-10-3.09-10.94-6.18c-8.42-26.24-31.2-37.12-52-50.22a112.22,112.22,0,0,0-11.16-5.8c-15.66-7.57-33.1-12.17-44.07-27.51-1.9-2.66-6.1-3.68-10.12-4.4,20.31,29.38,36.2,62.5,72.94,82.43.26,4.37.75,12.83,1.26,21.52-32.78,4.73-62.81.09-94.22-8.64-10.69,26.34-.26,54.2-6.9,81.64l23.1,2.43c2.62,25.84,9.5,51.3-11.08,73.79-6.13,6.71-10.29,15.23-16.18,24.18l18.6,6.84c5.82,10.07,12.23,20,17.43,30.45,9.37,18.91,5.24,34.9-11.84,47.55-9.07,6.72-18.55,12.87-27.58,19.1,8.87,26.57,5.15,39.24-17.24,58.93-55.62,4.15-112.78-14.84-168.92,3.54-1.52,7.93-2.85,14.88-4.69,24.45-5.75.87-12.33,3.62-18.07,2.4-16.6-3.53-32.87-8.64-49.27-13.16-5.62-1.55-11.22-3.16-16.83-4.75-8.1-2.3-16.2-4.61-23.7-9.15q-93.74,3-187.46,5.88c-15.43.48-25.78,9.4-34,21.05-13.95,19.72-6.78,40.22,16.26,47.57,4.77,1.52,9.72,2.46,14.12,3.56,5.61,11,3.32,18.06-6.81,22.38C693.63,1848,672.59,1843,662,1826.9c-6.83-10.34-11.21-22.29-16.7-33.56-42.59,19.26-65.73,97.91-35.65,131l23.28-10.49-18.17-19.07c.82-4,1.82-8.78,3.23-15.6l27.91-2c13.24,14.42,13.09,30.39,8,46.6-5.27,16.78-15,31.15-33.39,34.33-20,3.48-34.6-8-45.76-23.17-13.92-19-14.9-40.3-10.21-63.41-6.77,8.28-13.73,16.42-20.25,24.9-5.63,7.31-11.74,14.51-15.93,22.64-21.93,42.55-61,63.44-102.76,79.4-25.26,9.66-43.17,5.63-51.19-19.64l12.24-24.49c14.64,2,28.16,4.1,41.75,5.51,5.94.61,12.63,1.37,17.94-.66,41.47-15.84,60.84-48,64.61-90.76,1.06-12,.16-24.13.16-36.2l-4.33-.64c-3.38,8.15-6.59,16.37-10.2,24.42-5.31,11.83-9.89,24.16-16.71,35.08-4.94,7.92-12.57,14.39-19.79,20.6-6.18,5.32-13.67,7.08-20.33.26s-9.86-14.84-5.52-24a27.4,27.4,0,0,1,7.61-9.84c17.16-13.2,30.42-30.14,34.57-50.78,3.28-16.31,2.12-34.46-1.16-51-9-45.5-35.17-81.8-68.83-114.42.41,4.53,1,9.06,1.2,13.6.84,17.52,3.35,35.19,1.84,52.51a84,84,0,0,0,8.68,46c16.84,34.48,17.65,70.6,6.64,106.66-8.8,28.81-29.54,43.92-57.1,44.85-14.88-11.56-14.3-27,4.63-36.46,23.63-11.81,28.42-32.56,31.71-54.59,1.17-7.82-1.73-16.25-3.1-26.91-8.07,6.69-13.19,12.81-19.73,15.9-8.73,4.12-18.59,7.92-27.93,7.87-5.21,0-12.73-7.31-14.81-12.94-1.74-4.72,1.39-13,5.08-17.52,5.21-6.31,13.12-10.33,19.54-15.73s12.18-11.09,19.75-18.06c-10.09-14.94-19-29-28.81-42.43-18.08-24.65-40.32-46.83-49.61-76.77a159.91,159.91,0,0,1-7.4-46.65c0-19.75-4.07-37.07-12-55.47-13.32-30.88-11.32-63.52,2.63-94.68,4.43-9.9,9.54-19.49,14.34-29.22l-2-3.17c-9.91,4.41-20.21,8.1-29.64,13.36-21.21,11.84-41.69,25-63,36.57-16.17,8.79-32.71,8-46.75-4.83s-17.53-29.1-12.69-47.22c4.54-17,15.81-26.09,33.64-27.7,6.12,5.15,5.36,10.86.43,16.07-7,7.41-13.83,16-7.12,25.34,4.14,5.74,13.3,9.79,20.73,10.79,11.62,1.57,19.49-5.75,23.55-16.65-9.8-26.51-20.09-52.61-29.14-79.13-23.72-69.52-33.17-141.2-29-214.42.91-16.06,5.71-32.2,10.65-47.69,15.43-48.38,11.94-96.73,2-145.37-1.73-8.5-1.56-17.37-3.07-25.92a162.51,162.51,0,0,0-6.26-25.15c-2.59-7.48-6.77-14.39-10-21.67-1.49-3.38-2.28-7.07-4-12.52L175.27,832,163,811.2V609.75l16.23-12.56c13.41,2.32,25.26,5.32,37.26,6.22,16.8,1.27,32.15-3.06,45.47-14.48,16.36-14,19-13.79,37.68-2.72,4,2.35,7.82,6.06,12,6.56,5.54.66,12.87.71,16.87-2.33,20.39-15.56,20.11-15.94,36.89.12,37.05,0,71.82.18,106.59,0,64.63-.43,129.26-1.21,193.89-1.6,25.57-.16,51.17,1.21,76.71.37,59-1.95,115.87,10.92,172.89,23.21,6.55,1.42,13.17,2.53,19.77,3.66C936.46,616.36,937.74,616,940.78,615.68Zm505.31,542.22-.86.56.88-.35c-5.2-4.85-10.55-9.55-15.58-14.57-28.64-28.55-58.82-54.83-97.73-68.9-3.66-1.32-6.44-5.06-9.68-7.62-8.59-6.76-17.29-13.22-32-10.35,5.87,8.09,10,15.87,16,21.75,26.51,25.9,60.11,40.34,92.81,56.22,5.84,2.83,11.15,6.79,16.65,10.33C1425.72,1150.87,1432.88,1161.27,1446.09,1157.9ZM220.33,769l.56-.1-.79-.25c-1.86-5.24-3.27-10.69-5.66-15.67-7.95-16.6-13.79-33.87-8.57-52.11,2.66-9.3,8.44-18,14-26.08,6.78-9.85,14.76-18.89,22.41-28.12,4.53-5.46,9.44-10.6,14.18-15.89q-1.09-2.19-2.17-4.39l-44.79,4.36c-5.94,11.56-15.13,21.64-15.83,32.28-2.05,31.23-.73,62.68-.73,91.94Zm772.73,711.41c17.36-12.5,34.08-26.05,52.28-37.18,15.7-9.6,29.75-20.55,40.24-35.46,20.66-29.36,49.23-55,46.37-97.57,4.64,0,9.38-1.3,12.94.21,22.75,9.62,23.75,33.73,33.45,52.2,11.66-12.7,16.52-13.22,31.47-3.6,3.18,2,6.18,4.37,9.44,6.28s6.51,3.35,12.65,6.45c-2.68-3.8-3-4.63-3.65-5.13-60.81-48.48-81.73-113.19-77.15-188.5,3.08-50.58,9.62-101.35,7.6-151.76-3.24-80.53-59.11-148.48-145.31-154.08-12.4-12.46-13.68-23.29-3.63-39.37,6-9.63,13-18.63,19.58-27.92l-2.19-3.6c-12.84,3.16-25.82,5.85-38.47,9.62-13.08,3.89-25.86,8.83-38.76,13.31-48,29.12-81,31-113.22,3.85C820,839.79,805.52,856.93,780.34,853L773,841.11c-4.15,6.26-6.33,9.77-8.72,13.12-9.67,13.58-21,25.15-37.36,30.54-25.29,8.35-43.88-4.77-44.23-31.19-.08-5.68,0-11.36,0-17.48-38.11,14.37-43.79,13.93-51.08-3L646,812.22l-3-3.39c-10.89,5.73-22.65,10.26-32.47,17.45-16.85,12.33-16.71,30.59-1.54,45.14,7.44,7.13,14.26,14.91,22.9,24,14.39,2.62,17.27,7.14,9.57,21.84h-32l-14.59-9.73c-2.9,18.48,17.06,21.81,19.26,38.73-6.81,1.87-13.88,3.78-20.94,5.73-10.26,2.83-21.91,3.5-30.52,9-22.62,14.33-43.4,31.54-65.9,46.07-16.72,10.8-34.35,20.72-52.7,28.32-23.84,9.89-48.79,17.08-73.26,25.44-.38,1.55-.75,3.1-1.12,4.65l20.69,11.62c15.55-16.63,22.33-16.29,34,1.88-7.15,6.35-14.15,13.84-22.4,19.53-7.85,5.43-17.2,8.65-25.54,13.44-17.59,10.11-23.24,22.82-19.41,46l80.27,7c13.12,12.77,39.57,8.4,50.17,30.94l-5.53,5.06-47.3-14c-.3,1-.61,2-.92,3-14.13-7.7-14.13-7.7-61.18,0,2.74,24.75,5.49,49.59,8.33,75.26,27.41,12.34,56.26,7.94,85.38,6.45,29.1-34.06,58.11-68,100.34-82.92,2.13-12.38,1.79-24,6.18-33.32,13.89-29.68,35.34-51.8,68.39-60.44,5.61-1.47,10.94-4.23,16.21-6.8,35.58-17.31,59.89-44.69,72.36-77.63l-15.81-35.31c22.23-11.38,35.85,5.19,52.15,9.55,17.51-18.29,38.33-30.14,63.14-34.39,18.19-3.11,29.21,5.5,30.15,20-10.88,6.92-20.71,12.49-29.47,19.41-1.39,1.1,2,8.31,4.14,15.91L867.56,984c11.07,10.64,11.1,20.79,8.11,31.33-4.84,17.08-14,31.46-28.52,41.84-9.9,7.06-20.3,13.43-30.53,20-10.5,6.75-18.76,14.33-20.58,28.18-1.63,12.38-9.34,21.22-22.68,23-11.42-6.86-8.78-16.09-5.49-25.64,2.63-7.66,4.83-15.48,7.23-23.23-13.44,15.1-17.5,16.77-28.67,9.82,0-25.08,26-51.44,48.62-47.37.83,6.35,1.72,13.21,2.6,20,28.89,2.77,57.3-21.1,55.76-51-6,6.58-10,11.17-14.26,15.64-9,9.51-18.62,8.51-23.92-3.3a50.79,50.79,0,0,1-4.18-19.39c-.17-8.37,1.51-16.79,2.46-25.86-19,8.27-23.72,27.1-33,41.06-23.44,7.72-26.56-13.68-35.18-24.13-4.22,12.4-8.25,24.32-12.33,36.21-1.64,4.75-3.81,9.35-5,14.19-4.35,17.31-6.11,35.68-13.06,51.83-12.52,29-23.28,60.92-43.34,84.25-49.87,58-117.32,92.62-185.49,125.09-19.14,9.12-38.51,18.53-55.79,30.64-31.53,22.07-54,51.23-61,90.48-2.26,12.78-6.73,25.23-8.2,38.06-2.13,18.68-4.32,37.69-3.07,56.33,1.34,20.08,8.66,38.25,23,54.33,15.49,17.36,25.27,40,41.47,56.49,27.8,28.28,48.5,61.06,68.74,94.44,15.76,26,28.48,53.12,31.36,84.11,1.33,14.34,4.69,28.48,7.69,46,34.21-46.41,55.65-93.82,60.94-147.73,32.21-8.85,36.17,16.49,44.64,35.75,45-17.38,81.16-46.09,112.69-80.15,40.11-43.34,82.68-83.53,131.26-117.22,3-2.07,5.06-5.46,7.61-8.19,21.81-23.34,39.89-49.6,67.42-68.26,29.74-20.15,56.16-45.36,83.2-69.3,25.84-22.89,43.12-51.21,49-85.82.6-3.56,2.09-7,3.13-10.35,10-.14,15.42,5.84,13.94,13.26-4.24,21.31-5.57,45.39-16.9,62.54-14.75,22.36-29.45,46.87-55.63,60.37-11.66,6-21.25,16.3-31.15,25.34-3.34,3-4.73,8.24-7,12.45l-.3-.36C993.11,1480,993.08,1480.18,993.06,1480.41Zm-652.22-427.9c11.61-3,19.71-5.15,27.8-7.29,54-14.32,104.93-34.14,147.78-72.08,17.91-15.87,39.67-27.4,59.06-40.49,1.23-17,2.6-36,4.25-58.84-11.31-27-7.31-44.47,19.8-64.75,14.7-11,31-19.88,46.93-29.93,1.59-6.58,3.33-13.74,4.94-20.4,23.66-2.35,32.51,6.18,38.68,38l63.82-4.43c.58,8.34,1.07,15.26,1.51,21.47-16.94,12.37-43.51,11.51-47.88,41.16,8.21,0,14.37.85,20.2-.17C742,852.21,750,841.57,755.65,829.6,772.43,794.21,803,774,836,755.1l9.44,14.21-39.23,29.23c-.85,9.9-1.65,19.31-2.7,31.75,5.65-4.78,8.95-7.76,12.45-10.48,11.58-9,22.73-18.66,35-26.55,11.43-7.33,24.17-9,38.05-.34l-9.13,28c8.23-2.55,13.7-3.2,18-5.77,14.77-8.77,19.19-26.64,11.42-42.9-4.35-9.09-8.46-18.29-12.68-27.44l3.28-4.43C911,742.8,923.3,743,933,748.19c18.64,9.95,34.6,23.63,35.91,48,46.86-13.06,91.56-21.6,130.15,17.37-8.91,14.16-19.48,9-29.61,6.79-11.5,6.9-28.13,6.42-33.69,24.3,53,16.49,99.29,41.26,127.92,91a167.6,167.6,0,0,0-1.72-23.28c-6.27-47.66-23.75-90-54.6-127.69-50.75-61.91-116.94-100.8-190.67-126.06-79.63-27.29-162.21-39-246.72-26.85A331.09,331.09,0,0,0,547.25,675c4.78,13.87,9.47,27.5,14.86,43.17l-24.8,8.86Q514.15,764,473,786.59l-11.89-19.23c-21-10-30.55,13.66-51.26,12.79l-33.94-36.21c-6,19.69-15.64,32.25-31.37,41.36-15.41,8.92-30,17.7-50,15.8,2.77,5.76,4.37,10.06,6.76,13.88,14.38,23,14,45.45-.47,68.58-5.38,8.63-7.81,19.11-10.41,25.74-14.13,17.59-26.78,33-39,48.66-18.09,23.15-23.49,51.6-32,78.68C207.12,1076.1,198,1116.46,202,1158c4.33,45,9.83,90,18,134.48,5.55,30.09,16.63,59.15,25.24,88.67l7.26,3c4-5.88,8.12-11.62,11.82-17.65,13.85-22.53,35.17-34.49,59.72-41,22.26-5.88,45.06-9.71,67.37-15.43,15.39-3.94,30.34-9.56,45.48-14.43l-.81-4.42c-7.4-.38-14.81-.6-22.19-1.17-7.53-.59-15-1.51-22.54-2.3-23.2-2.45-39.24-15.86-29.84-44.31,2.85-8.61,1.61-19.88-1.27-28.79-5-15.47-12.42-30.19-19.38-45-7.67-16.29-11.78-32.81-9.17-51.08,2-13.82,1.5-28,3.16-41.83C335.88,1068.36,338.89,1060.19,340.84,1052.51Zm782.94-722.42c-43.6,52.63-87.47,105.13-75.49,184.25l34.88-27.15c3.92,4.91,8.85,8.87,10.86,14,10.71,27.14-1.23,53.48-4.53,81.92,5.19-.49,9.71-.19,13.74-1.47,6.75-2.14,13.21-5.24,19.76-8,9.93-4.18,17.11-1.77,21.18,8.85-5.89,9.8-11.85,19.73-17.31,28.84,15.5,0,30.17-.88,44.67.25s27.89-11.64,43.15-4.33c.28,6.14.5,11,.72,15.76,33.29,7.38,85.48-10,93.26-31.63-4.7-.6-9.19-1.74-13.64-1.63-9.21.24-18.4,1.41-27.61,1.69-10.78.32-17.33-4.79-18.74-16.21,21.3-14.18,48.77-20.94,60.53-49.72-57.35,10.26-104.85,38.55-151.51,67-7.44-7.66-5.66-13.05.23-17.47,20.45-15.31,40.2-31.77,61.79-45.28,29.8-18.64,46.25-47,63.83-77.88-5.45,1.16-9,1.13-11.77,2.63-17.93,9.79-35.84,19.63-53.44,30-15.35,9.05-30.27,18.82-46.1,28.71l-12.61-17.25,35-26.39-3.52-3.48c-29.24,15-44.35,45.68-70.91,66.26l-8.06-10.92c19.7-27.87,39.28-53.11,56.1-80.07a193,193,0,0,0,28.94-89c-42,33.17-82.37,67.27-98.94,121.85-11.78,2.07-20.84-8-15.88-21.37,3.73-10.06,9.7-19.52,15.9-28.38C1118.15,396,1119.46,362.81,1123.78,330.09Zm-123.4,209.1-7.06-1.09c-2.56,6.74-5.23,13.45-7.66,20.24-2.95,8.21-4.4,17.27-8.79,24.59-13.61,22.68-5.92,58.12,14.85,74.66,39.38,31.35,79.58,62,115.92,96.71,29,27.61,52.71,60.7,81,94l24.22,14.57c-5.73-26.5-23.58-40.16-38.88-53.1-2.56-10.74-4.67-19.55-7.56-31.67l31.85-4,.78-2.85c-9.06-3.58-18-7.48-27.22-10.64-10.15-3.48-19.87-7-23.12-22.85,9.39-4.82,19-11.18,29.65-14.83,10.81-3.71,22.54-4.76,37.31-7.65-30.57-24.21-64.17-6.88-93.61-13.83-5.91-18.89-2.36-24.37,16.45-26.34,19.39-2,35.64-14.94,40.47-32.59-30.2-5.5-56.83,5.38-83,17.8-11.11-3.32-19.68-8.19-19.94-21,11.61-14.87,34.78-18.18,39.47-40.05-20.82-1.74-41.7,13.42-46.56,31.94-1.53,5.84-5.33,11.08-7.89,16.2-5.64-1.77-8.44-2.62-11.21-3.52-18.67-6.06-22.68-18.92-9.5-33.84,6.28-7.12,14.86-12.16,22.1-18.49,3.62-3.15,8-6.57,9.51-10.77a297.2,297.2,0,0,0,10.91-38.66c1.51-7.46.27-15.48.27-25.79-36.89,20.08-54.82,49.14-64.53,87.89-7.55-3.23-15.52-4.5-19.68-9.16-2.86-3.21-.57-11.14-.35-17C999.13,565.17,999.78,552.18,1000.38,539.19Zm219.95-136,4.65,3c15.72-15.36,34.3-28.74,46.59-46.48,29.79-43,57.49-87.47,84.47-132.29s46.93-92.58,57.14-144.1c1.3-6.57,1.87-13.29,2.77-19.94l-3.69-1.46c-3.92,3.44-9.18,6.15-11.52,10.45-9.06,16.65-22.24,29-37,40.42-7.06,5.48-11.54,14.24-17.28,21.44-12.26,15.37-24.61,30.66-36.85,46.06-3.87,4.88-7.95,9.69-11.14,15-29.07,48.54-46.87,101.76-63.73,155.31C1229.28,368,1225.09,385.67,1220.33,403.21ZM1092.21,1557.46c-3.82-3-5.26-4.44-7-5.35-12-6.25-16.53-15.84-14.15-29.17,3.16-17.71,5.32-35.62,9-53.22,3.89-18.47,16-28.74,34.9-31,7.5-.89,14.94-3,22.41-3,8-.06,16.3.52,23.82,2.88,9.36,2.93,18,8,29.36,13.15-1.1-14.72-2-26.65-2.81-37.53l-38.1,18.86-7.59-17.64c20-24.87,22.26-60.76,4.17-73.93-7.57,38.66-28.65,68.64-58.64,92.71-25.19,20.23-51.44,39.2-75.91,60.26-20.75,17.84-39.47,37.74-41.67,67.78-.37,5-6.06,9.63-10,15.47-30.1-17.5-13.6-44.77-18.58-67.92-24.45,30.38-34.59,65.92-49.53,98.78l30,12.9c8.77-33,34.58-40.42,62-43.42s53.05,2.45,69.48,30l20.58-43ZM1294.76,486.84C1414.33,476,1502.7,389.74,1530,274.13,1440.14,333.48,1346.82,385.7,1294.76,486.84ZM1610,756.69c-13.44-3.88-25.25-5.73-35.63-10.62-24.24-11.43-47.63-24.64-71.68-36.5-13.33-6.57-27.29-11.88-41-17.76-.24,1.51-.49,3-.74,4.55-6.62,1-13.21,2.38-19.86,2.82-33.73,2.27-67.48,4.29-104.24,6.58,14.22,18.2,26,33.43,38,48.42,1.42,1.77,4.35,2.41,6.65,3.37,15.84,6.63,31.63,13.39,47.58,19.77,25.92,10.37,52.86,20.11,80.72,15,29-5.37,57.27-15.35,85.62-24.08C1600.45,766.67,1604.29,761.34,1610,756.69Zm-411.23,407.15c0,12-2.07,23.56.37,34,9.31,40,34.59,69.71,67.49,92.21,31.5,21.55,64.86,40.38,96.92,60.11,6.49-28.11-1.46-71.8-19-100.64C1311.91,1196.14,1262.5,1170.84,1198.76,1163.84ZM1347.58,824c7.24,6,12.29,10.9,18.06,14.75,8.88,5.94,17.7,12.62,27.55,16.34a362.21,362.21,0,0,0,50.49,15c23.53,5.13,46.16,15.32,71.14,13.1,6.93-.62,14.07.07,21,1,11.57,1.48,23,4.65,34.6,5.22,18.45.9,37,.24,58.16.24-5.78-7.4-9.45-13.59-14.51-18.29-14.44-13.43-29.42-26.28-44.24-39.3-16.41-14.41-35.44-21.2-57.41-22.12-22.56-.94-45-4.5-67.55-5.92-17-1.07-34.17-1.08-51.24-.55-9.91.3-19.76,2.6-31,4.19ZM1155.83,346.7c4.85-1.72,8.08-2.54,11-4a83,83,0,0,0,12-6.83c29.89-21.46,52.47-51.28,63.89-84,19.48-55.87,30.74-114.61,45-172.26,2.4-9.69,2.39-20,3.49-30l-3.49-1c-6.41,10.49-12.4,21.27-19.32,31.42-24.55,36-50.55,71.14-73.87,107.94C1164.33,235.69,1151.91,288.45,1155.83,346.7Zm163.41,267.7c20,.48,38.26,4,55.26.76,62.21-11.8,123-27.89,177-63.8,28.83-19.18,59.91-35,89.89-52.4,2.57-1.5,4.49-4.13,6.72-6.24-104.13,9.46-203,35-296.9,81.07C1355.92,598.3,1326.47,594.44,1319.24,614.4Zm11.7,56.87c.46,1.07.92,2.15,1.37,3.22,6.21,0,12.41.11,18.61,0,31.88-.63,64-4.22,95.58-1.41,74.1,6.6,139.84-14.47,201.22-53.64,2.56-1.64,4.74-3.88,8.63-7.12-6.32-.64-10.39-1.46-14.45-1.42-37.31.37-74.63.49-111.93,1.47-39,1-77.81,3.62-114.83,18.31a232.66,232.66,0,0,1-43.38,12.43C1353.24,646.52,1343,659.81,1330.94,671.27Zm190.23,396.1c-16.24-13.85-29.54-26.5-44.15-37.38-34.84-26-74.23-43.79-114.14-60.16-20-8.18-34.11-21.91-46.57-39.32l-15.9-6,46.68,101.87C1397.17,1053.64,1451.86,1081.46,1521.17,1067.37Zm62.21-682.28c-24.84,11.91-48.12,23.08-71.41,34.23-4.15,2-8.8,3.25-12.44,5.91-41.89,30.63-83.9,61.12-125.24,92.49-10.27,7.79-18.27,18.59-27.31,28l3.26,4.81c10.53-3.28,21.29-5.95,31.54-9.95,30.36-11.86,60.06-25.59,90.86-36.11,53.73-18.35,83.67-60.16,109.45-106.57C1584,394.54,1583,389.61,1583.38,385.09ZM1280,419.41l3.18,3.09c19-16.82,39.41-32.33,56.76-50.71,50.4-53.4,74.3-119.45,86.64-190.42.65-3.77-1.14-8-2-13.09C1388.46,197.36,1286.4,375.87,1280,419.41Zm62.85,468.39c4.46,17.75,14.2,33.86,26.87,44.22,35,28.59,75.36,46.85,121.61,48.29,21,.65,41.35-2.64,61.35-13.21-25.87-16.56-50.44-32.35-75.1-48-2-1.28-4.64-1.63-7-2.34-11.91-3.62-24.48-5.82-35.57-11.13-17.4-8.33-34.25-16.14-53-8.06C1369.71,890.09,1359.5,878.44,1342.88,887.8ZM1339.74,743l1.35-3.79c-2.91-3.48-5.38-7.48-8.79-10.37-21.57-18.35-46.5-29.52-74.43-34.21-10-1.69-21.43-.54-27.85-11.9V669.5c6.85-.86,13.4-2.49,19.91-2.35,14.67.32,29.32,2,44,2.21,15.53.18,27.25-6.71,33.55-20.78L1317.61,635l-112.15,3.82-25.83,35.48c33.26,8.13,62.07,20.94,74.89,58.41-23-5.14-45.36-7.08-66.07,4.94l49,14.58c-.24-1-.49-1.9-.73-2.84,6.77-1.52,13.49-4.11,20.31-4.37C1284.56,744,1312.15,743.65,1339.74,743Zm98.3,491c-3.34-4.62-4.93-7.55-7.18-9.82q-46.41-47-93-93.73c-13.75-13.85-32.44-16.67-49.92-21.86-5.59-1.67-12.09-.26-18.76-.26,4.54,33.64,18.11,60.61,44.27,80.54C1349.62,1216.41,1392.48,1225.3,1438,1234ZM1246,985.57c33.85-2.05,47,34.23,78.53,40.79-1.15-7.3-.81-13.9-3.27-19.2-10.9-23.53-20.81-47.81-34.54-69.64-13.27-21.09-30.54-40-60.88-30.41L1211.61,888C1201,930.23,1222.76,957.45,1246,985.57ZM1229.69,829c7.77.83,13.35.4,18.16,2.11,32.18,11.48,60.15,2.15,85.74-17.34,6.28-4.78,10.56-12.17,16.23-18.91-31.9-22.22-65.75-30.32-103.5-32.23,6.19,15-1.56,21-12.38,25.43-9.78,4.05-19.37,8.56-30.27,13.4ZM875.26,1633l-3.27-1.46c-24.08,26.67-50.34,49.83-82.5,54.34-15.47,12.37-27.27,21.81-40.43,32.35,3.63.25,5.57.59,7.49.5,49.43-2.5,98.86-4.93,148.27-7.77,4.17-.24,8.17-3.32,12.26-5.08-.41-1.29-.81-2.59-1.21-3.88-4.71.39-9.46.45-14.1,1.24-31.2,5.3-35.87.75-31.52-30.64C872.08,1659.44,873.6,1646.22,875.26,1633Zm317-660c-4.78,8.47-9,15.92-14,24.77.52,7.09,1.19,16.17,1.79,24.37,39.87,38.09,79.22,63.32,101.19,64.6C1260.13,1041.78,1237.7,998.59,1192.26,973ZM358,738.37c14.27-29.78,8.86-58.17-13.46-76.76-21.22-17.66-50-18.85-70.9-3.49C301.42,684.58,329.33,711.13,358,738.37Zm226.21-126-1.41-4.78L383.91,620.71l21.91,34.18L429.2,623.3c26.74,8.22,56.61-4.31,78.11,20.85,12.48-6,25-12.79,38-18.21C558,620.69,571.19,616.81,584.16,612.33ZM330,1605.69c-.79,29,42.44,118.1,61.9,128.52C402.63,1691.07,373.49,1629.71,330,1605.69Zm849.17-486.33c19.27,12.05,37,24.54,60.7,20.61-7.35-31.63-34.15-82.06-55.55-86.16C1182.58,1075.42,1180.89,1097,1179.13,1119.36ZM948.72,1699l3.24-.69c5.89-38.7,16.64-75.3,45.84-104.24-23.16-4.43-47.59,6.24-57.42,27.83-13.55,29.74-16.23,46.63,2.66,62.16C945.14,1689.61,946.93,1694.32,948.72,1699ZM374.53,1343.92c-45.61-3.44-101.52,30.11-103.89,61.74l44.74-9.27Zm806.64,132.84c-5-16-37.49-31-56.21-24.42l-4.47,10.5-15.63,3.38c-3.74,11.56-7.5,23.23-11.39,35.28Zm132.74-564.82c-13.15-35.83-48.22-62.08-76.49-57.87v23.87c4.64,1.41,8.85,2,12.34,3.87,15,8.17,29.54,17.1,44.67,25C1299.73,909.52,1306.22,910,1313.91,911.94Zm-157,749.41-61.87,6.38c-.32,4.72-.64,9.52-.92,13.65,24.94,17.55,54.63,20.48,73.91,6.78C1164.16,1678.74,1160.11,1669,1157,1661.35Zm-524-479.43c22.23-3.77,54.91-61.73,50.23-89.43C660.41,1119.33,627.43,1139.58,632.94,1181.92ZM389.16,653.66l-42.87-53.77-5.69,1c-3.52,9.57-7.05,19.15-10.75,29.22,27.5,11.47,43.77,30.15,51.16,56.8l3.39-.73C386.05,674.88,387.7,663.61,389.16,653.66ZM258.68,773.19c18.82,11.54,49.29,4.42,63.1-11.85,10.11-11.93,7.93-24.89-3.4-30.88Zm778.92,838.63L1003,1626l38.47,54.11,10.37-4.23c-4-11.11-7.69-21.24-11.12-30.73C1045.41,1632.72,1048.58,1621.29,1037.6,1611.82Zm51.09-26.88c-9.46,22.07-17.62,41.08-25.17,58.7l14.74,17.57v-14.47l37.75-43.51Zm108.1,13.61c1.41,21.43,2.72,41.26,4.09,61.91,16.88-3.63,23.12-18.32,30.64-31.91-4.85-13.42-6.3-28.2-23.69-32.52Zm-72.4-34.26-1.62,3.49,63.34,74.72c5.66-23.5-2.8-40.89-13.07-52.84ZM272.54,807.69c-10.64-12.74-24.28-7.79-31.79-9.58-30.65,8.62-41.12,29.79-45.92,55.9l7.43,3.4C216.81,828.53,241.87,814.87,272.54,807.69ZM229.22,702.11c-2.47,15.54-2.83,31.15,10.84,42.18,4.84,3.9,12.76,4,18.82,5.68-1.2-19.93-2.21-36.67-3.32-55Zm238.46,22.58C441.34,709.25,434.06,684,427.22,658c-16.58,17.35-11,40-.69,55C436.18,727,450.11,731.28,467.68,724.69Zm-181,155.67c6.16-17,15.22-31.93,6.07-48.18-2.94-5.22-11.26-7.41-18.74-12-2.07,11.47-3.45,19.24-4.88,27-1.5,8.11-3.05,16.21-4.6,24.39ZM934.72,1722.6c20,19.93,46.51,26.75,66.19,17.7.46-4,.92-8,1.2-10.46l-65.3-16.55C936.34,1715.36,935.56,1718.85,934.72,1722.6Zm-21.42-79.17c-7.36-6.57-13.59-4.84-19.06,1.29-8.94,10-9.64,31.7-1.21,43.69l24-6.58Zm-710.94-672,2.46.12,25.81-64.5h-32C199.9,929,201.13,950.24,202.36,971.45Zm820.72,729.4c1.76-22.65-17.84-19.24-40.3-8.42l-6,16.6C994.21,1712.19,1009.41,1712.42,1023.08,1700.85Zm108.3-167.14c-.89-9.87,4.1-20.46-9.29-27.47l-22.67,29.58,36.16,10.83,1.72-3.79Zm-729.14-788c16.32,13.39,31.74,12.6,40.14-1.11L404,722.12C403.24,732.29,402.71,739.44,402.24,745.69Zm-94.1-122.62c-6.08-7.63-9.7-14.1-15-18.45-9.38-7.63-19.32-6.83-24.38.45s-1.94,14.65,7.6,20.9Zm847.53,1097.54c14,6.81,33.52,2.29,42-10,6.11-8.91,5.32-15-.77-21.08Zm55.77-224c-7,19.85-12.51,35.74-19,54.38,27.83-10.89,24.1-34.39,31.46-56.22ZM223.26,888.19c14.64,12.44,28.28,14.69,42,7.32l-38.85-30.13C225.1,874.88,224.14,881.82,223.26,888.19Zm91.18,616.18c5.49-23.06,10.72-45,15.94-66.9l-3.65-1.13c-6.91,13.68-14.5,27.07-20.5,41.13C301.81,1487.85,303.63,1497.75,314.44,1504.37Zm746.44,185.93-19.77,19.56h48.66ZM1150,1536c19.21-9.84,32.87-19.83,35-40.59h-10.75ZM473.39,746.55l-4.31,4.16,12.7,11.56c12.66-10.79,24.74-16.09,23.06-31.65Zm9.27-80.79,4.12-17.59-12.39-3.48-16.7,17.75ZM216.81,792c-9.86-8.64-17.1-4.76-23.68,2-5.59,5.75-7.32,12-2.36,18.8ZM194.53,884.5c-2.55-9.83-4.67-18-6.8-26.16l-6-2.58-8.93,8.8,2.88,3.56c1.71,5,3.42,10,5.24,15.42ZM523.78,712l4.85,2.22c2.8-3.81,7.61-7.43,8-11.46.77-8.34-1.73-16.37-12.83-21.12Zm648.12,852.19-2.76,4.85,16.41,9.59C1185.74,1566.37,1180.53,1562.65,1171.9,1564.14Zm64.75-273.29-.46.67.72.1Z"/><path d="M399.74,443.18l-32.56,10.4c4.25,24.93-8.73,52.17,13.9,76.06H323.79c16.61-14.64,11.83-32.89,12-50,.37-33.61.55-67.24-.12-100.84-.25-12.38-3.11-24.71-4.75-36.88l35.45-20.83c.67,5,1.53,11.57,2.64,19.92,20.6-17.83,43.4-27.51,69.76-19,8.67,2.79,18,8.5,23.4,15.6,18.39,24.06,10,49.07-27.52,85.65C446.94,465.57,461.11,508,464,553.59,438.2,519.33,421.36,480,399.74,443.18ZM368,439.11c24.41-8.75,45.65-19,61.79-37.63,8.6-9.93,12.7-21.49,11.62-34.76-1.34-16.5-9.77-25.14-26.48-25.87-20.23-.88-34.51,10.27-46.93,23.41Z"/><path d="M827.28,60.33,781.76,77.41c3.72-13.21,6.82-24.21,10-35.59H907.46c3.33,10.57,6.83,21.71,11.08,35.21L869.16,58.94c10.52,34.66,19.83,65.43,29.2,96.19,5.25,17.25,10.06,34.66,16,51.65,6.29,17.87,13.74,35.33,20.82,53.32H878.91l9.85-11.81,2.89-.63c-4-16.41-8.06-32.83-12.25-49.86H805c-4.3,13.66-9.88,27-12.24,40.81C791.7,245,797,252.39,799.57,260H761.49c-.25-1.06-.86-2.24-.56-2.57,19.63-21.46,22.24-50,31-75.82,13.32-39.23,25.27-78.93,37.8-118.43Zm44.46,114.28C862,143.88,852.53,114,843.05,84.09l-3,.44-27.26,90.08Z"/><path d="M44.75,434.43c0,23.4-.81,46.54.43,69.58.45,8.49,5.75,16.72,9.16,25.94H0c18.55-16.58,12.55-37.11,12.83-56.17.57-40.33.17-80.68.17-121V338.39L.77,325H116c2.68,10,5.69,21.24,8.69,32.47l-2.86,2.56C98.44,345,73.07,340.6,45.48,343.85v65.51c3.58-2.55,6.48-4.55,9.31-6.63,22.07-16.21,50.68-14,70,5.57,15.22,15.45,23.35,34.62,22.39,55.82-1.9,41.76-19.6,75.92-54.74,99.8-4.71,3.2-10.84,4.32-16.31,6.4l-2.36-3.6c3.22-4.06,6.37-8.18,9.69-12.15,26-31.07,36.65-66.54,30.22-106.7-2.18-13.6-6-27.16-21.33-31.34-16.24-4.44-30.62.6-42.69,12.19C48.14,430.17,46.91,431.9,44.75,434.43Z"/><path d="M525.89,269.94c-38.72-27.18-66.72-61.29-72.39-109.69-3.53-30.09.74-59.51,14.93-86.86C481.6,48,501.39,32,531,32.05s49.83,15.74,62.67,41.28c32.46,64.55,13.89,152.73-56.46,191.54C534,266.65,530.48,267.91,525.89,269.94Zm12.72-29.8c5.8-4.59,11.4-8.23,16.07-12.82,36.11-35.55,44.67-106.56,18.21-149.68C564.05,63.22,552.35,53.25,534.25,54c-18.53.76-30.54,11.46-37.34,27.42a138.48,138.48,0,0,0-9.71,34.92C480.2,166.89,499.43,206.9,538.61,240.14Z"/><path d="M759.31,208.32c7.39,25.15-25.2,53.44-69.35,58.38q2.7,13.07,5.37,26l-3.45,1.55c-12.61-6.56-11.74-21.29-16.6-32.55C613.34,217.87,599.12,124.26,645.08,63c19.18-25.56,44.8-32.16,74.6-21.84,12.42,4.3,26.39,4.09,41.55,6.2-35.74,57.32-47.85,125-70.43,190.48,14.06,5.47,28.06,6,39.87-2.21C741.46,228.17,750,217.43,759.31,208.32Zm-81.65,20.54c7.7-22.45,15.6-43.54,22.12-65.05,8-26.45,15.8-53,22-80,4.58-20-8.23-31.49-28.46-27.65-16.92,3.21-25.42,15.58-30.82,30.23-11.1,30.15-13.49,61.46-9,93C656.06,197.51,663.42,214,677.66,228.86Z"/><path d="M935.07,328.83,894,410c36.15,19.81,53,47.26,41,86.38-7.67,25.14-28.71,35.52-71.26,37.44,1.32,7.94,2.61,15.77,3.91,23.6L864.14,559c-10.12-6.4-10-18.8-14.67-30.61L827.64,519l-8.92,12.63c-5.81-23-10.81-42.79-15.82-62.61l2.91-1.74L847,511.39c8.86-28.14,16.6-52.69,24.4-77.48-10.06-5.29-20.79-10.05-30.61-16.26-19.15-12.09-29.76-29.6-28.2-52.69,2.19-32.22,33.72-52.45,69.56-45.55C900,322.83,917.84,325.77,935.07,328.83Zm-51.14,76.09c4.25-15,9.83-29.16,11.76-43.8,1-7.39-2.27-18.89-7.74-22.9-17.33-12.71-46.45,3.64-47.16,25.11C840.2,381.57,857.39,399,883.93,404.92Zm1.15,36c-8.31,24.16-19.78,46.54-21.07,71.77,20.21,6.65,41.21-2,48.64-19.08C920.77,475,911.69,456.85,885.08,441Z"/><path d="M303.22,323.74v65L300.5,390c-2-3.36-3.82-6.84-6-10-7.23-10.59-12.93-23-22.27-31.22-18.67-16.51-42.85-12.28-54.15,9.85-8.6,16.85-13,35.81-20.15,56.15h37.41l17-18.65V452l-1.94,2.7c-11.65-19.18-27.7-25.33-48.68-19.41.57,21,4.51,41,14.69,59.24,14,25.15,42.36,28.77,61.93,7.42,6.63-7.23,10.55-16.95,15.63-25.57,1.89-3.23,3.55-6.6,5.32-9.9l3.27.92v61.45c-25.71,0-51.6,1.31-77.26-.49-15.2-1.07-26.15-12.54-35.19-24.65-32-42.92-32.23-109.26-.39-152.49,13.31-18.08,30.71-28,53.71-27.56C263,324.05,282.66,323.74,303.22,323.74Z"/><path d="M780,323.74v65.13L777,390c-1.92-3.47-3.55-7.14-5.8-10.37-7.58-10.84-13.69-23.53-23.47-31.84-18.06-15.33-40.11-10.3-52.74,9.87-10.72,17.11-15,36.22-16.55,57.23h33.67L729,396.11v56.11c-.74.84-1.47,1.69-2.21,2.54-11-19.41-27.07-25-48.44-19.43,1.38,25,5.1,49.6,22.45,69.58,12.64,14.56,35.39,14.9,50.8.16,7.62-7.3,12.45-17.59,18.21-26.74,2.26-3.59,3.63-7.75,7.5-11.29,4.81,20.9,3.1,41.59,3,62.75-25.79,0-50.51,1.35-75-.46-17.12-1.26-29.54-13.13-39.45-26.91C635,459.43,635,394.8,666,352c13.44-18.61,31.08-28.81,54.6-28.29C739.84,324.08,759.16,323.74,780,323.74Z"/><path d="M553.11,538.85c-40-28.48-67.78-65.06-68.16-117.74-.2-26.87,5.16-52.57,20.22-75.43,26.25-39.85,80-40.73,106.39-1,38.54,57.9,24.64,155.07-52.8,192.87C557.67,538.08,556.34,538.12,553.11,538.85ZM566.7,511c5.64-4.77,11.56-8.84,16.35-14,31.21-33.43,38.84-94,17.21-134.37-8.42-15.74-19.75-27.31-39.34-26.18S531,350.3,524.35,366.69C503.81,417,521.11,477.35,566.7,511Z"/><path d="M309.74,41.52h88.6V84.14l-43.2-28.7V242.81c35.4,3.49,59.41-16.86,82.95-38.26l3.07,2.14-15.65,53.46H310.31l9.31-12.37V54.66C317.43,51.73,314.51,47.86,309.74,41.52Z"/><path d="M998.59,243c35.18,2.75,59.28-16.6,82.3-38.36l3.7,2.09c-5.27,17.82-10.55,35.63-15.78,53.25H953.42l9.61-12.3V54.53L953.46,41.8h88.43V84.33L998.59,55.4Z"/><path d="M464.34,1358.82l15.36,17.49-18.2,18.27c-18.68,34.43-26.71,88.66,7.47,110.59-.24,3.29-.5,6.95-.87,12.07-24.68,5-45.55-2-64-17.4-26.83-22.43-31.85-60.61-13.62-91.84,13.7-23.47,29-40.15,55.35-46C451.51,1360.68,457.34,1360,464.34,1358.82Z"/><path d="M534.07,1009c4.84,1,9.47,1.37,13.75,2.82,11.57,3.92,22.7,4.24,34.35-.41,7.27-2.9,15.52-4.61,22.7,4-5.54,15.77-18.4,25.72-31.07,35.41-10.51,8-22.22,14.48-33.08,22.08-7.45,5.22-14.35,11.23-23.88,18.77-2.34-6.83-5.92-11.7-5-15.35,5.65-21.28,12.34-42.28,18.77-63.34C531,1011.9,532.23,1011.1,534.07,1009Z"/></g></g></svg>