<svg xmlns="http://www.w3.org/2000/svg" viewBox="0 0 1740.56 2002.53"><defs><style>.cls-1{fill:#fff;}.cls-2{fill:#e3e3e3;}.cls-3{fill:#151111;}.cls-4{fill:#050505;}.cls-5{fill:#c28e4c;}.cls-6{fill:#1f120f;}.cls-7{fill:#2d1610;}.cls-8{fill:#c9c9c9;}.cls-9{fill:#481b0c;}.cls-10{fill:#f2b2b3;}</style></defs><title>pala</title><g id="Layer_2" data-name="Layer 2"><g id="Layer_1-2" data-name="Layer 1"><ellipse class="cls-1" cx="891.82" cy="1715.42" rx="624.57" ry="252.31"/><ellipse class="cls-1" cx="909.93" cy="790.71" rx="231.52" ry="252.31"/><path class="cls-2" d="M725.81,1995.65c-46.84-5.54-93.75-10.48-140.47-16.81-37.32-5.06-75.15-8.95-111.4-18.48-51.75-13.59-102.38-31.52-153.27-48.26-25.21-8.29-51.63-15.06-74.5-27.87-38-21.3-72.85-48.3-110.56-70.26-29.12-17-47.37-42.73-62.79-70.27-9.57-17.09-15.94-38-16.75-57.45-1-22.86-3.14-47,8.89-69.17,16.41-30.32,31.27-61.17,61.72-81,22-14.34,41.62-32.57,64.33-45.5,28.21-16.07,58.24-29.06,88-42.26,28.2-12.52,56.66-24.67,85.73-34.9,19.28-6.79,39.85-9.92,59.85-14.69l45.2-12.65,87.44-16.64,59.33-7.66c7-1.34,13.88-3.45,20.9-3.89q57.7-3.7,115.44-6.65c48.58-2.41,97.18-4.26,145.75-6.72,8.8-.44,17.53-2.62,26.29-4l25.74-.17,57.54,4.44c.32,2.77,1.89,7.22.77,8-11.42,8.43-23.28,16.27-35,24.28l-9,7.66-4.84,3-4,3.73L891.83,1441l-8.21,8.7c-30.92,9.27-61.88,18.41-92.65,28.13-1.83.57-2.2,5.75-3.24,8.79L771,1495.76l7.64-12.55c-17.68,0-34.6-.62-51.44.21a258.17,258.17,0,0,0-37.21,5c-12.48,2.48-24.58,6.87-37.06,9.4-16.81,3.4-33.84,5.7-50.73,8.69-24.61,4.35-49.18,8.89-73.77,13.35l-1.63-1,1.71.87c-2.92,3-5.29,7.52-8.86,8.89-18.57,7.11-37.91,12.37-56.12,20.27-28.48,12.35-57.71,23.95-84.05,40.07-48,29.39-88.26,66.31-96.82,126.6L237,1745.35l-30,12,.1-.1,4.2,25.62-.1-.07,5.47,8.16,4.54,4.1,28.09,5.77c14.73,10,29.64,19.84,44.1,30.25,5.79,4.17,13.51,8.81,15.33,14.76,6.27,20.55,20.22,31.28,39.71,36.76l13.17,4.6-.3-.17,62.94-.5,4.22,1.91c3.06,6.5,4.47,16.62,9.46,18.9,23.91,10.9,48.79,19.69,73.32,29.23l62.34,7.68,14.7,2.57,25,1.81-1.19-.23,24.66,1.21,71.17.29,45.93-.83c28.83,5.92,57.49,14.8,87.22,5l14.49,3.14,9.44-.5,19.43-1.4,70.42-2c19.83-1.36,39.7-2.25,59.46-4.28,10.37-1.06,20.45-5,30.83-6.1,27.29-2.94,55-3.14,81.92-8,31.87-5.76,63.11-15,94.52-23.18,32.4-8.42,66.44-13.39,96.58-27,48.22-21.71,93.86-49.18,140.4-74.56,2.28-1.25,2.52-5.92,4.16-8.74,3.63-6.29,7.17-12.68,11.4-18.57,31.37-43.74,41.33-75.95,12.8-123.44-2.19-3.65-1.88-9.39-4.72-11.94a377.84,377.84,0,0,0-34.7-28.34c-18.56-13.07-37.87-25.09-56.87-37.55,5.63-5.81,10.7-12.33,17-17.3,31.84-25.11,64.57-49.12,95.82-74.93,19-15.67,18.11-26.15.6-44.54,27,11.52,55.17,20.82,80.55,35.13,32.19,18.13,65.79,36.5,92,61.79,30.34,29.28,57.13,62,62.66,109.49,7.64,65.51-18.74,115.65-65,153.34-40.94,33.37-88.57,59.94-136.36,83.12-47.31,22.94-98,39.32-148.19,55.75-27.88,9.14-57.68,12.35-86.56,18.5-29.52,6.28-58.79,14-88.52,18.94-17.45,2.92-35.71.65-53.38,2.68-16.64,1.92-33,6.52-49.47,9.72-3.29.64-6.76.33-10.15.46.06-2,.11-3.94.17-5.9l-68.32,11.76c-22.85-15.57-45.25,1.85-68,1.14-48.12-1.49-96.31-.71-144.46-1.38-5-.07-9.77-4.25-14.9-5.5-10.08-2.45-21.41-8.91-27.76,6.12Z"/><path class="cls-3" d="M616.54,1361.75l-59.32,7.67c-12.5-2.85-25-8.1-37.49-8-19.79.16-38.88,5.2-50,24.64l-45.2,12.65c12.38-11.64,23.31-25.65,37.5-34.34,19-11.64,40.52-19.16,63.46-29.58a28.09,28.09,0,0,1-1.17-6.29c-1.43-15.84-7.94-20-25.1-18.22-59.33,6.22-111.84-28.46-127.91-81.51-15.82-52.23,15.3-122.47,66.32-151.49,6.44-3.66,14.15-10.73,15.12-17.15,1.93-12.85-7.82-16.5-19.82-19.75-26.15-7.1-39.61-29.61-45.59-52.95q-42.54-166.11-81.1-333.24C298,618.23,317.19,592,352.22,581.8c16-4.62,32.55-7.63,47.85-13.85,14.28-5.8,17.16-.33,20.24,12.17Q469.77,781,520.18,981.73q14.6,58.49,29.53,116.89c1.11,4.33,2.54,9.73,5.71,12.18,40.86,31.53,47.07,75.66,38.15,121-4.27,21.71-2.82,40.42,2.19,60.37,3.88,15.43,8,30.79,12.67,48.74,17.76-10.57,33.46-21.93,50.78-29.71,22.36-10.06,46.32-16.52,68.87-26.21,5.43-2.34,10.76-11,11.44-17.3,5.32-49.6,1.91-99.38-13.62-146.32-31.28-94.6-67.22-187.66-99.45-282-16.75-49-34.13-98.51-43.44-149.22C563.34,583,615.51,507.67,702.81,454.59c123.37-75,300.37-58.94,409.56,34.36,52.16,44.56,77.05,103.36,87.59,169.87,16.24,102.6,3.74,201-44.66,293.1-45.37,86.28-107.67,154.85-208,177.68-11.32,2.58-23.19,2.74-37.69,4.35,29,66.14,43.22,134.74,41,206.37l-25.74.17c2.08-13.82,6.31-27.71,5.86-41.44-1.78-54.78-16.28-106.71-38.28-156.71-4.08-9.28-7.52-18.83-12.42-31.19,53.57,9.14,99.42-4,141.1-32.15,55.45-37.41,96.91-87.47,124.68-147.89,39.63-86.2,50.41-176.5,35.18-270.42-9.75-60.07-30.75-113.47-77.44-154.73-52.41-46.33-114.46-70.31-183-76.93-92.71-8.94-179.38,8.56-250.5,72.45C614.92,551,583.41,612.62,600.62,689.11c10,44.49,23.67,88.39,38.89,131.43,30.47,86.24,65.12,171,94.27,257.69,22.94,68.17,34,138.74,21.79,211.34-2.56,15.28-6.33,17.32-22.12,15.8-15.33-1.48-32.63,4.89-47.27,11.69-23.13,10.75-44.83,24.63-66.93,37.53C617.54,1355.59,617.4,1359.3,616.54,1361.75Zm-300.8-713a141.07,141.07,0,0,0,2.33,14.92c20.89,86.14,41.66,172.3,63,258.32,6.16,24.79,12,50,21.94,73.39,8.38,19.75,19.24,41.7,48.82,33.59,1.39-.38,5.16,2.43,5.39,4.08,2.74,20,10.48,35.69,31.05,43.37,3.7,1.38,6.22,9.18,7.06,14.38,2,12.24,5.43,25.2,3.32,37-7.37,41.23,4,79.51,14.92,118.15,6.58,23.33,12.65,46.8,18.79,70.25,7.65,29.26,18.11,36.27,47.71,32.8,12.57-1.47,18.16-5.28,14.46-19.74-11.49-44.93-21.24-90.31-32.71-135.25-2.41-9.43-8.77-18.06-14.21-26.48-11.56-17.86-27.46-34.43-9.8-57.63,2.41-3.17.6-10.39-.65-15.39q-62.64-252-125.43-504c-2.47-10-4.81-14.58-16.38-9.94-13.43,5.38-27.8,8.4-41.74,12.55C326.8,601.08,315.46,616.69,315.74,648.7Zm171.31,484.44c0-10.4.87-20.9-.18-31.2-2.36-23-12.51-28.77-34-19.6-27.43,11.71-46.43,32.59-59.79,58.53-19,36.85-22.93,74.12,1.25,110.53,24.68,37.15,60.26,50.82,103.9,48.55,15.25-.8,17.1-4.74,14-19.51C502,1231.74,475.15,1185.62,487.05,1133.14Zm92.09,91.37,5.09.09c5.56-30.65.91-60-15.48-87.26-3.61-6-9.77-10.95-15.7-15-9.08-6.19-14.7-.42-11.42,7.74,5.2,13,13.62,24.72,21.2,36.65,2.75,4.32,9.3,7.23,10.15,11.56C576,1193.52,577.22,1209.08,579.14,1224.51Z"/><path class="cls-4" d="M463.94,385.71c-2.38,4.43-3.62,10.74-7.32,13-26.55,16.16-53.61,31.5-81.78,47.84-12.48-45.44-24.63-89.34-36.59-133.29C316.25,232.43,289,152.75,284.86,68q-.36-7.29-.7-14.56c-.65-13.74,1.9-23.51,19.18-25.19,16.4-1.59,32.42-7,48.62-10.7C354.27,33.23,355.89,49,359,64.51q24.67,122.2,50.06,244.27c.38,1.87,2.09,3.47,3.5,5.69,12.65-8.55,26.15-15.77,36.88-25.92,4.06-3.83,3-14.59,2.11-21.92C445,214.37,436,162.34,431.74,109.91c-2.34-28.69,3.25-58,4.77-87.06.56-10.73,5.55-13.47,15.78-14,50.68-2.55,49-2.37,62.61,45.44,24.67,86.54,51.14,172.58,78,258.48,4.3,13.76,2,20-10.74,25.15-13.33,5.4-26,12.36-39.86,19.06-4-13-7.6-24.87-12.31-40.29l-13.1,52.74c-7.79-14.75-14.13-26.74-20.47-38.73l-3,1.3c1.42,8.43,2.91,16.85,4.25,25.3,2.48,15.69-9.29,27.46-27.93,28q-4.6-37.67-9.22-75.34l-7.33,1.08Q458.54,348.4,463.94,385.71ZM481.82,191.9l-4.12.38c2.72,27.1,5.44,54.21,8.22,81.86,21.39-5.44,26-15.24,16.44-33.36C494.12,225.23,488.56,208.25,481.82,191.9Z"/><path class="cls-4" d="M54.28,664.47c0-55.17,4.61-111-1-165.7C43.35,402.3,27.46,306.43,13.44,210.4c-3.26-22.32-9.67-44.17-13.3-66.46-.84-5.16,2.12-13.56,6.19-16.47C26.25,113.22,46,97.67,68.05,87.78c18-8.07,45.62,4.32,53.57,22.11,40.54,90.78,64.93,184.53,43,284.64C161,411,154,428.61,143.37,441.31c-12.59,15-10.82,29.59-10.28,46.22,1.18,36,1.08,72.06.58,108.09-.08,6.06-3.07,14.3-7.6,17.71C101.85,631.61,76.72,648.67,54.28,664.47Zm57-307.7,7-.43c11.35-25.55,8.31-52.58,3.08-79.23-2.18-11.15-8.08-21.79-13.7-31.88-1.5-2.69-8.2-3.18-12.51-3.16-1.25,0-3.94,5.54-3.48,8.1C97.92,285.75,104.63,321.25,111.24,356.77Z"/><path class="cls-4" d="M1621.14,331.16c21,16.86,41.33,33.84,46.64,62.78,5.62,30.69-1.76,58.63-19.12,82.91-54.05,75.6-116.47,143.34-194.44,195.1-14.77,9.81-31.69,17.32-48.63,22.73-26.34,8.42-42.3-3.33-38.24-30.82,4.08-27.71,10.38-56.73,23.25-81.21,38.65-73.5,79.7-145.83,122.4-217.07,22-36.75,59.87-47.77,97.06-34.83l.9.61,1.09-.09,9.38.09Zm-46.48,125.45c-.54-19.61-11.13-27.67-25.22-21.86-8,3.32-17,8.37-21.7,15.26-23.79,34.85-46.66,70.35-68.94,106.19-3.52,5.67-2.34,14.26-3.33,21.5,7.44-2.33,17-2.5,22-7.36C1507,541.28,1536,511.61,1564,481,1570.52,473.89,1572.26,462.39,1574.66,456.61Z"/><path class="cls-4" d="M305,492.49c-5.8-15.82-10.94-29.83-17.33-47.27-4.77,26.08-8.86,48.44-14,76.67-5.78-16.12-9.59-26.76-13.4-37.4L253,483.35c7.26,30.53,6.15,56.52-30.32,63.19.24.18-1.71-.61-1.7-1.34,2.41-98.78-23.65-193.92-36.11-290.8-7.75-60.26-7.16-121.59-10.31-182.44-.83-16.1,6.88-23.52,22.95-24.39,14.92-.81,33.45-9.18,43.47-3,8.11,5,4.37,27.16,8.58,40.87,22.17,72.09,45.18,143.92,67.94,215.82q21.3,67.33,42.77,134.61c3.51,11,2.62,19.26-9.15,25.89C335.53,470.54,321.2,481.55,305,492.49ZM239.44,291.76,233,294c4.41,32,8.82,63.92,14.15,102.52,9.93-14.08,23.3-25.07,21.42-31.81C261.54,339.62,249.55,316,239.44,291.76Z"/><path class="cls-4" d="M1015.93,106.67c5.3-33.56,5.61-34.49,37.08-24,55,18.29,109.49,38,164.37,56.68,9.87,3.35,12.94,6.73,8.83,17.57-7.08,18.7-12.06,38.21-17.77,56.87-2.26.47-3.68,1.27-4.57.88-32.58-14.48-32.56-14.49-43.81,21.05-10.65,33.67-21.55,67.26-31.91,101-3.27,10.65-8.21,13.4-19.43,10.14-37-10.76-37.26-10.33-30-48.58,7.15-37.46,14.86-74.82,21.45-112.39.74-4.21-4.13-13.5-6.54-13.56-24.62-.52-28.17-16-27.23-35.52.13-2.74-.26-5.5-4.6-9.08-12.36,62.12-24.72,124.25-37.37,187.85l-62.6-113.75-5.74,1.61c-3.42,25.79-6.52,51.63-10.47,77.34-1,6.63,4.08,19.86-11,16.28-10.67-2.53-24.71-.22-23.72-20.53,2.18-44.38,1.74-88.91,1.64-133.37-.06-27.78-1-55.59-2.51-83.32-.57-10.38.79-12.45,12.1-11C962.22,53.79,993.75,71.72,1015.93,106.67Z"/><path class="cls-5" d="M1504,1444.82c17.51,18.39,18.38,28.87-.6,44.54-31.25,25.81-64,49.82-95.82,74.93-6.29,5-11.36,11.49-17,17.3a2.55,2.55,0,0,0-2.69,1.2l-8.07,4-71.56,45.51c-2.54-3.11-5.79-5.88-7.51-9.4-7.29-15-14.12-30.12-21.12-45.21-10.83-14.14,7.84-14.5,10.44-22.36,12.22-17.39-.11-31.48-6.23-46.4l15.55.08c-1.9-4.79-2.77-10.42-5.87-14.24-19.44-23.93-44.07-39.77-74.58-45.89l27-25.16-.2.16,12.73-8.51-.23.17,29.69-12.24c21.25-1.59,42.48-3.63,63.75-4.61,13.29-.61,26.65.37,40,.63C1432.84,1405.34,1471.18,1418.31,1504,1444.82Z"/><path class="cls-6" d="M1099.84,1323.12c15.65,3.6,21.26-5.11,25.84-18.49,5.85-17.12,9.47-32.32,5.25-51.75-8.43-38.8,2.06-75.69,25.82-108,3.14-4.27,8-9.35,12.66-10,20.26-3,23.63-19,30.74-34.09,13.88-29.43,15.22-57.27,6.45-89.37-14.67-53.68-.61-104.81,29.46-150.73,18.22-27.8,39.29-53.74,59-80.54,10.3-14,20.17-28.26,30.91-41.87,6.24-7.9,13.83-14.73,20.82-22.05-1.83,10.29-2.47,21-5.68,30.81-16.14,49.38-33,98.51-49.35,147.83-1.24,3.76-.06,8.32,0,12.5,3-2.9,7.12-5.25,9-8.78,26.63-51,52.82-102.19,79.58-153.1,2.8-5.31,8.54-9.07,12.92-13.55-.06,6.28,1.3,13-.39,18.77-16,55.22-32.78,110.23-48.58,165.52-1.58,5.52-.27,16,3.3,18.08,10.14,6.06,16.62,1.09,21.34-10.4C1391,870,1414,816.58,1437.06,763.16c2.42-5.61,7.44-10.1,11.25-15.11.69,6,2.62,12.09,1.88,17.87-6.57,51.61-12.87,103.28-20.7,154.7-11.24,73.79-50.77,127.61-117.39,161.58-21.22,10.82-21.86,19.15-3.66,35.1,62.53,54.76,67.39,140,10.64,189.9-27.81,24.43-60.85,31.52-97,28.87-8-.59-19.95-7-21.68,9l-24.24-12c5.28-1.47,14.32-1.7,15.27-4.58,18.67-56.89,58.43-107.7,47.71-173.38-2.29-14,3.9-40.07,12.31-43,22.45-7.81,36.33-23.54,52.52-37.86,3.52-3.1,8.66-4.3,12.87-6.7,30.07-17.13,55-39.55,73.6-69.12,23.37-37,29.5-78.8,34.6-120.86,2.39-19.68,3.44-39.52,5.09-59.29-19.87,35.14-35,70.79-50.23,106.41-11.45,26.8-11.31,26-40.46,19.92-12.82-2.65-13.39-7.9-10.13-18.31,9.31-29.75,18.09-59.66,26.89-89.56,1.65-5.61,2.41-11.48,3.57-17.23-20.69,29.17-36.31,59.88-52.61,90.22-3.14,5.84-3.21,18.41-16.77,10.35-9.6-5.71-16.73-9.26-11.46-23.33,12.86-34.37,23.8-69.47,35.34-104.33,1.68-5.09,2.35-10.52,3.5-15.79l-5.29-2.09c-20.65,27.57-42.19,54.52-61.77,82.82-39.26,56.77-49.2,118.06-26,184.09,2.45,7,1.68,16.13-.44,23.46-8.94,30.91-27,58.94-25.79,93.22.32,9.57-9.11,19.63-14.58,29.17-3,5.32-8.59,9.52-10.58,15.09-14.89,41.67-29.18,83.55-43.66,125.37l-29.84-.65A15.75,15.75,0,0,0,1099.84,1323.12Zm138.16,2.4c53.35-.39,98.92-35.54,107.84-82.1,9.25-48.26-18.55-106.56-59.26-124.29-23.37-10.18-34.63-4.45-36,20.95-1.08,19.92,1.3,40,2.08,60.05.26,6.82,2.61,14.64.13,20.3-11.66,26.68-25.25,52.52-37,79.16-10.47,23.7-9.8,24,15.34,25.58C1233.86,1325.35,1236.63,1325.46,1238,1325.52Zm-95.43-68.29c15.18-31.51,13.38-66.72,40.57-89.35,4.87-4.06,2-17.4,2.73-26.45-8.1,4.46-19.36,6.89-23.74,13.73C1143,1185,1134.57,1217.79,1142.57,1257.23Zm218.52-443,1.42-1.41a12.3,12.3,0,0,0-2.62-1.3c-.31-.08-.86.8-1.3,1.24Zm-41.8-41.58,1.43-1.28a12.36,12.36,0,0,0-2.56-1.25c-.33-.08-.87.72-1.31,1.12Z"/><path class="cls-4" d="M1389.26,211.3l149,86.87c-34.87,29.11-68.16,56.67-101.17,84.55-19.61,16.57-38.45,34-58.27,50.35-10,8.19-9,13.35,1.39,19.76,8.21,5.08,15.57,11.53,24.35,18.17-19.28,24-38.13,47.89-57.65,71.18-1.51,1.79-9.79,1.22-11.45-.93-18.18-23.62-36.26-47.37-52.78-72.15-2.75-4.12-.07-15.12,3.83-19.89q51.35-62.88,104.28-124.43c8.67-10.12,13.07-18.12-3.64-22.76-22.84-6.35-25.2-19.41-16.06-39.34C1378.29,247,1382.73,230.15,1389.26,211.3Z"/><path class="cls-4" d="M702.41,226.27c1.24,18.62,2.08,35.94,3.62,53.19,2.6,29.16-20.49,50.34-47.68,38.7-17.81-7.62-34.66-23.1-46-39.25-34.22-48.83-44.44-106.65-54.64-164a259.94,259.94,0,0,1-3.32-31C552,40,580.8,6.57,624.51,2.14c49.72-5,49.76-5,55.23,44.49,1.67,15.16,2,30.56,4.91,45.49C687,104.39,683,105.31,672.1,105c-20.5-.62-32.14,9.9-35.21,30.4-3.79,25.4.28,49.76,13,72.29C663.58,232,674.5,236,702.41,226.27Z"/><path class="cls-4" d="M1288,163.8c14,6.85,27.5,15,42.09,20.15,11.92,4.19,15.61,10.3,15.26,22.52-1.46,52.24-17,100.85-36.43,148.61-13,32-25.8,64.14-39.31,97.77-13.67-12-28-22.16-38.77-35.19-4.71-5.68-2.3-17.27-3.12-26.18l.33-5.36-4.67,1.58-26.45,11.93c1.21-11.91,2.26-22.29,3.67-36.21-4.14,5.14-6,7.65-8,10-5.27,5.94-5.7,20.93-20,9.62-9.9-7.84-23-10.81-12-29.48q53.38-91,102.94-184.22c8.39-15.75,18.1,2.18,25.22-4.88Zm-36.53,131.09-6.34-1.58c-5.25,7.14-10.53,14.25-15.75,21.41-14.1,19.36-14.1,19.39,9.28,26.92,1.83.59,3.84.63,7.47,1.19C1247.9,326.53,1249.67,310.71,1251.43,294.89Z"/><path class="cls-4" d="M727.43,226.44c27.92-.61,34.26-9.55,22.37-36-7.28-16.22-19.29-30.24-27.41-46.15-11.8-23.12-25-46.21-32-70.89C683.49,49.48,696.77,30,720,20.46c25.59-10.57,51.59-9.17,76.92.89,4.49,1.78,9.54,8.27,10,13,2.18,22.06,3.26,44.26,3.57,66.43,0,3.08-6.71,9.2-9.81,8.89-18.21-1.86-20.3,8.46-17.27,21.88,2.1,9.36,6,18.35,9.65,27.32C806.72,193,809.84,227.64,795.56,262a80.06,80.06,0,0,1-21.47,29.74c-17.05,14.29-31.87,8.25-36.6-12.92q-5.44-24.3-10.65-48.67C726.59,229,727.21,227.68,727.43,226.44Z"/><path class="cls-5" d="M1176.19,1333l24.24,12,53.38,28,12.68,17.17,4.68,4.24-.1-.12q-6.4,10.59-12.82,21.17l.23-.17-12.73,8.51.2-.16L1212.49,1444l-37.14,18.45c-11.54,12.22-21.79,15-31-2.85-3.42-6.64-8.89-12.33-14-18-29.26-32.56-52.34-72.08-97.39-87.11-.57-.2.12-4.17.22-6.38l3.89-4.36-.46.42,63.22-17.12,29.84.65Z"/><path class="cls-4" d="M817.55,27.06c26,5.82,49.83,10.42,73.1,16.94,4.62,1.3,10.39,10.07,10.2,15.2-2.57,72.87-6.27,145.7-9.15,218.55-.42,10.43-2.59,14.12-14.2,13.68-42.24-1.62-43-1-46-43.16C826.37,175.63,822.28,102.92,817.55,27.06Z"/><path class="cls-7" d="M1033.21,1348.12c-.1,2.21-.79,6.18-.22,6.38,45,15,68.13,54.55,97.39,87.11,5.07,5.64,10.54,11.33,14,18,9.22,17.89,19.47,15.07,31,2.85l36.9-2.82,51,30.55-4.89.43q-2.44,6.66-4.9,13.31c-36.55-25-55.69-31.41-87.39-25.42,41.29,13.86,67.26,39.51,92.62,66l-.43.51-13.5,9c-5.36-5.2-10.91-10.22-16-15.64-28.34-29.94-58.5-55-107.4-37.48,3.85-6.6,4.8-10.77,7.22-12,13.29-6.59,10.67-13.64,2.63-23.05-18.5-21.64-35.08-45-54.58-65.68-27-28.66-53.7-45.57-99.77-19.93l-2.87-3.16c11.74-8,23.6-15.85,35-24.28,1.12-.82-.45-5.27-.77-8l25.34-1.8Z"/><path class="cls-3" d="M1612.05,331.27l-1.09.09-.9-.61q-4.87-15.08-9.75-30.16c36.56-7.71,49.24-.91,60.79,30.56h-40l.29.2-5.67-4.78Z"/><path class="cls-3" d="M1288.66,164.43q-6.39-9.27-12.77-18.56c31.87-13.12,43.23-10.14,66.53,17.93H1288Z"/><path class="cls-7" d="M1391.67,1399.35c-13.33-.26-26.69-1.24-40-.63-21.27,1-42.5,3-63.75,4.61l-7.5-1.37,24.3-13.46c12.5-5.78,22.86-7.79,37.3.52C1356,1397,1374.92,1396.26,1391.67,1399.35Z"/><path class="cls-8" d="M1304.74,1388.5l-24.3,13.46-9.37-7.56.1.12-4.68-4.24-12.68-17.17C1272.57,1372.34,1289.89,1376.32,1304.74,1388.5Z"/><path class="cls-9" d="M1033.49,1999.6l68.32-11.76c-.06,2-.11,3.93-.17,5.9-15.24,3-30.38,6.71-45.75,8.61C1048.65,2003.24,1041,2000.63,1033.49,1999.6Z"/><path class="cls-9" d="M1099.86,1327.06l-63.22,17.12c17.9-16.55,37.85-26.91,63.2-21.06A15.75,15.75,0,0,1,1099.86,1327.06Z"/><path class="cls-9" d="M725.81,1995.65l52.54,4.33Z"/><path class="cls-9" d="M1033.21,1348.12l.33-5.16,3.56.81C1035.8,1345.21,1034.51,1346.66,1033.21,1348.12Z"/><path class="cls-10" d="M616.54,1361.75c.86-2.45,1-6.16,2.71-7.16,22.1-12.9,43.8-26.78,66.93-37.53,14.64-6.8,31.94-13.17,47.27-11.69,15.79,1.52,19.56-.52,22.12-15.8,12.16-72.6,1.15-143.17-21.79-211.34-29.15-86.66-63.8-171.45-94.27-257.69-15.22-43-28.88-86.94-38.89-131.43-17.21-76.49,14.3-138.11,69.43-187.63,71.12-63.89,157.79-81.39,250.5-72.45,68.59,6.62,130.64,30.6,183,76.93,46.69,41.26,67.69,94.66,77.44,154.73,15.23,93.92,4.45,184.22-35.18,270.42-27.77,60.42-69.23,110.48-124.68,147.89-41.68,28.12-87.53,41.29-141.1,32.15,4.9,12.36,8.34,21.91,12.42,31.19,22,50,36.5,101.93,38.28,156.71.45,13.73-3.78,27.62-5.86,41.44-8.76,1.38-17.49,3.56-26.29,4-48.57,2.46-97.17,4.31-145.75,6.72q-57.74,2.86-115.44,6.65C630.42,1358.3,623.5,1360.41,616.54,1361.75ZM791,655.84c-8,14.14-20.6,27.43-23.41,42.54C751,787.8,764.13,872.29,814.77,949.6c15.68,23.94,15.94,26.37,41.87,12.76,51.76-27.15,103-41.77,157.52-8.11,8.78,5.43,12.85,2,15.91-7.91,16.93-54.82,27.51-110.39,23.7-168.09-6-90.59-60.06-154.32-144-165.64-40.46-5.45-79.85.12-110.38,32.24Zm88.32-113.17c-120.67-12.52-174.83,42.53-160.73,146C737.24,600,802.29,567.59,879.36,542.67ZM1056,631c4.9-28.52-2.56-53-22.21-68.09-26.4-20.3-56.46-20.5-87.53-13.47C992.8,562.9,1035.79,580.27,1056,631Z"/><path class="cls-5" d="M770.73,1499c0-1.07.13-2.14.24-3.2l16.75-9.18c7.25-1.79,14.42-4.6,21.75-5.14,18.64-1.36,37.35-1.71,56-2.46,22,27.07,43.55,54.53,66.21,81,11.47,13.42,16.58,25.5,1.77,39.39-.18.18,1.22,2,2.46,4l22.31-12,16.91-2.32,44.53,2.64c17.3,8.3,37.54,12.58,45.64,33.43q1.8,2.38,3.59,4.79l6,6.55,24.83,21,19.72,22.44,1.56,31.58-8.61,13.92-42.52,22.8-12,6.32,2.07,3.59,12.55-7,40.21-20.65c23.5,10.09,23.85,13.5,3.19,30.82l-77.77,41.89-21.68-1.39-.1.37c-3.93,2.9-8.88,5-11.6,8.83-6.19,8.61-11,9.91-19.83,2.26-11-9.62-.64-11.75,3.92-16.33q2.7-2.16,5.42-4.3l-7.66,1.58q-5.46-25-10.93-50.08l-9-16.21.18.23q-2.19-2.22-4.39-4.42l.34.12-4.4-4.37.42.09-4.47-8.47.06.27-4.45-4.32h.44q-2.54-2.64-5.09-5.27-3.46-3.25-6.91-6.5l-9.46-7.72-18.82-18L897,1660.15l-5.24-3.11c-5.17-2.8-10.37-5.54-15.47-8.47-.69-.39-.86-1.7-1.27-2.59l3.65-1.61,41.57,1.14-.11-.29,8.58,4.44-.34-.08,12.41,8.68.3-.69c1.41,1.83,2.83,3.65,4.24,5.47l7.44,7.18,9,8.63-.38.15q6.49,10.24,13,20.51l-.11-.14,4.29,8.56-.21-.24q2.16,4.3,4.33,8.59l-.45.23q6.54,14.4,13.09,28.81l-.34,0c1.84,7.86,3.2,15.87,5.74,23.5,1.05,3.17,4.59,5.5,7,8.21,2-3.36,5.47-6.67,5.57-10.09.34-11.44-.54-22.92-1-34.38l0,0c4.06,9.43,8.12,18.86,12.1,28.12,16.11-17.51,7-40.51-23.58-58.34l0,0-12.92-20.45.32-.17-8.83-12.31.18.06q-2.4-6.64-4.81-13.31c29.91,21.5,53.2,48.34,67.26,83.61,1.72-8,2.57-15.74,0-22a99.65,99.65,0,0,0-15-24.61c-25.23-30.91-52.2-60-89.79-76.45-5.2-2.75-10.2-6-15.66-8.12-6.93-2.65-14.23-4.35-21.37-6.47l-47.49-57.29L845.8,1540l.13.36c-1.47-1.47-2.93-2.95-4.4-4.43l.24.12-8.43-4.54.56-.28-8.85-8,.34-.17c-15.75-5.46-31.59-10.68-47.18-16.58C775.2,1505.34,773.2,1501.54,770.73,1499Zm284.14,263.31-2.61-4.66-13.49,5.84c.34,1,.68,2.07,1,3.11Z"/><path class="cls-5" d="M742.11,1940.2l-24,5.08L614,1945.06l-25.76,1.75-14.71-2.57c-2.49-3.78-5-10.85-7.47-10.82-18.3.26-36.58,1.92-54.87,3.14-24.53-9.54-49.41-18.33-73.32-29.23-5-2.28-6.4-12.4-9.46-18.9q2.06-11.29,4.13-22.59l-.17.25,72.42-16.9c.18-1,.35-1.89.53-2.84l-19-1.15c-10.43-12.8-5.82-18.76,9.1-20,4.1-.34,8.21-.55,12.32-.82l-.3-.2c6.21,31,29.17,40.8,56.73,45,11.51,1.75,22.94,4,34.42,6l13.14,7.73c-6.91.62-14.11,2.82-20.67,1.6-29.17-5.46-58.14-11.89-85.42-17.6,5,10.84,9.58,17.87,11.13,25.51.48,2.41-7,6.44-10.54,9.42,26.08,7.31,52.44,15.49,79.27,21.62,6.09,1.39,14.59-3.12,20.58-7,9.6-6.27,18-14.32,27-21.62,9.7-1.65,24.86.89,13.12-17.16q-8.16-9.08-16.3-18.16l-3,3.6,16.4,17.19-10.38,6.78-12.42-5.27-4.42-2.88-4-1.28-11.2-5.19q-30.76-11.76-61.52-23.54c-10.31-4-19.4-23.38-12.61-27.16,9.4-5.24,19.9-8.49,29.93-12.59l9.33,1.89c23.79,15.36,49.33,22.35,81.95,19l-44.63-21.64a2.77,2.77,0,0,0-2.43-1.62l-21.11-7.76c-10-15.37.41-21.84,12.33-20.39,15.69,1.91,30.75,9,46.08,13.86q24.45,21.95,48.92,43.87c5.67,3.83,10.86,8.9,17.08,11.28,39.47,15.08,57.42,43.31,53.76,85.36l.25-.23Zm-119.05-83.47,2.17-5.46-21.6-7.19c-.36,1-.73,1.91-1.1,2.87Z"/><path class="cls-5" d="M282.64,1715.57l44-16.76c26.51,8.24,53.63,15,79.31,25.28,15.6,6.26,29,18,43.36,27.31a9.45,9.45,0,0,0,2.85.79l5,7.1,70,43.69-19.72,21.2.3.2-36.61,4.1,12.2,16.68c-10.29,2.52-21.4,8.74-30.71,6.72-14.6-3.17-18.25,2.7-20.22,14.21l.17-.25-12.89,16.53c-20.22,6-26.27-1.62-25-22.13.55-9-7.52-18.53-11.68-27.82l-1.38-3.91-41-32.41-8.05-1.83-4.47-2.5-11.29,10.84-84.71-41.06.3.28q2.28-8.24,4.58-16.48Z"/><path class="cls-5" d="M883.62,1449.66q4.1-4.35,8.2-8.71c18.21,2.57,36.73,3.84,54.54,8.09s35.15,11.52,52.67,17.46c0,0,.32-.4.32-.4q4.15,2.26,8.3,4.54l-.46.25,13.23,11.73-.15-.18,8.36,4.7-.66.25,9.28,11.66-.06-.07,12.27,13.85,2.67,3.21,6.31,7.88-20.87,17.23-9,1.83-28.08-15.74-.26.65L987.48,1509l-.29-1.61-7.82-5.13.63-.4L966.65,1486l.13.15-8.38-4.64.54-.22-9-7.83.06.17-8.48-4.52.66-.14Z"/><path class="cls-5" d="M348.42,1882.59c-19.49-5.48-33.44-16.21-39.71-36.76-1.82-5.95-9.54-10.59-15.33-14.76-14.46-10.41-29.37-20.21-44.1-30.25q-5.46-8.49-10.93-17l2.34-2.71,54.15,26.45c12.69,6.2,25.28,12.61,38.1,18.53,11.87,5.47,24,10.42,36,15.61,12.62,4.46,12.8,16.12,17.27,26.28,4.81,11,4.53,16.1-6.76,18.58-5.79,1.28-12.07.35-18.13.42l.3.17Z"/><path class="cls-7" d="M999,1466.5c-17.53-5.94-34.75-13.18-52.68-17.46s-36.33-5.52-54.54-8.09l64.29-49.47a13.26,13.26,0,0,0,2.3,3.39l17.18,11.54c-24.1-3.12-40.34,8.09-51.51,28.2,9.16,2.9,18.23,6.39,27.61,8.44,4.09.89,8.82-1.2,13.27-1.93-5.42-17.47,12.18-20.74,18.93-30.69,12.9,7.88,25.78,15.81,38.72,23.64,11.89,7.19,17.26,16.73,11.36,30.51l-42.54-7.36-5.37-1.57,5.38,1.56Zm21.26-10.19,6.87-6.66-30.78-25.31-4.71,5.08Z"/><path class="cls-6" d="M799.56,1945.85l20.11-2c-1.42-5.9-2.62-10.91-3.83-15.92,5.68-.07,11.56-1.13,17,0,24,4.84,47.89,10.3,71.82,15.53q1.37-3.24,2.74-6.48l-10.48-11.45c35.89-3.68,46.78-3.08,38.59,20.43-10.78.11-21.72-.8-32.31.74-6.54.94-12.54,5.61-18.78,8.61l-19.4,1.4-9.47.5L841.07,1954c1.13-10.26-1.35-11.44-10.57-6C820.55,1953.82,808.82,1960.66,799.56,1945.85Z"/><path class="cls-7" d="M294.84,1807.6l-54.15-26.45-2.34,2.71q5.46,8.48,10.93,17l-28.09-5.76c4.34-1.43,12.3-2.66,12.4-4.33.55-9.67-.76-19.45-1.44-29.18l84.71,41.06Z"/><path class="cls-7" d="M883.62,1449.66,942.21,1469c-9.36-1.57-18.68-3.5-28.09-4.64-20.72-2.5-41.68-10.67-62.7.21L866.33,1478l-.82.94c-18.69.75-37.4,1.1-56,2.46-7.33.54-14.5,3.35-21.75,5.14,1-3,1.42-8.22,3.25-8.79C821.74,1468.07,852.7,1458.93,883.62,1449.66Z"/><path class="cls-10" d="M469.77,1386.05c11.08-19.44,30.17-24.48,50-24.64,12.47-.09,25,5.16,37.49,8Z"/><path class="cls-7" d="M361.29,1887c6.06-.07,12.34.86,18.13-.42,11.29-2.48,11.57-7.63,6.76-18.58-4.47-10.16-4.65-21.82-17.27-26.29l14.1-9.31c4.16,9.29,12.23,18.82,11.68,27.82-1.27,20.51,4.78,28.1,25,22.13l4.54,4.15Z"/><path class="cls-9" d="M614,1945.06l104.05.22-10.17,4.61-71.17-.29-24.66-1.21,1.18.23C613.47,1947.43,613.73,1946.24,614,1945.06Z"/><path class="cls-5" d="M884.43,1955.27c6.24-3,12.24-7.67,18.78-8.61,10.59-1.54,21.53-.63,32.31-.74l19.33,7.33Z"/><path class="cls-3" d="M799.56,1945.85c9.26,14.81,21,8,30.94,2.14,9.22-5.4,11.7-4.22,10.57,6-29.73,9.83-58.39,1-87.22-5C768,1931.78,784.45,1948.76,799.56,1945.85Z"/><path class="cls-5" d="M232.15,1761.55c.68,9.73,2,19.51,1.44,29.18-.1,1.67-8.06,2.9-12.4,4.33l-4.54-4.12-5.47-8.15.1.07-4.2-25.62-.1.1,25.47,4.49Z"/><path class="cls-7" d="M511.23,1936.56c18.29-1.22,36.57-2.88,54.87-3.14,2.44,0,5,7,7.47,10.82Z"/><path class="cls-7" d="M232.45,1761.83,207,1757.34l30-12Z"/><path class="cls-9" d="M424.23,1886.52l-4.54-4.15,12.89-16.53q-2.07,11.29-4.13,22.59Z"/><path class="cls-7" d="M207.08,1757.24l4.2,25.62Z"/><path class="cls-7" d="M965,1384.73l9-7.65,2.86,3.15-10.49,6Z"/><path class="cls-7" d="M211.18,1782.79l5.47,8.15Z"/><path class="cls-5" d="M855.56,1957.17l9.47-.5Z"/><path class="cls-7" d="M348.42,1882.59l13.17,4.6Z"/><path class="cls-7" d="M956.11,1391.48l4-3.73a25.93,25.93,0,0,0,2.48,3.14l-4.23,4A13.26,13.26,0,0,1,956.11,1391.48Z"/><path class="cls-7" d="M960.16,1387.75l4.84-3,1.32,1.51c-1.22,1.55-2.45,3.09-3.68,4.64A25.93,25.93,0,0,1,960.16,1387.75Z"/><path class="cls-8" d="M315.74,648.7c-.28-32,11.06-47.62,37.9-55.62,13.94-4.15,28.31-7.17,41.74-12.55,11.57-4.64,13.91,0,16.38,9.94q62.51,252,125.43,504c1.25,5,3.06,12.22.65,15.39-17.66,23.2-1.76,39.77,9.8,57.63,5.44,8.42,11.8,17,14.21,26.48,11.47,44.94,21.22,90.32,32.71,135.25,3.7,14.46-1.89,18.27-14.46,19.74-29.6,3.47-40.06-3.54-47.71-32.8-6.14-23.45-12.21-46.92-18.79-70.25-10.89-38.64-22.29-76.92-14.92-118.15,2.11-11.79-1.33-24.75-3.32-37-.84-5.2-3.36-13-7.06-14.38C467.73,1068.69,460,1053,457.25,1033c-.23-1.65-4-4.46-5.39-4.08-29.58,8.11-40.44-13.84-48.82-33.59-9.91-23.37-15.78-48.6-21.94-73.39-21.37-86-42.14-172.18-63-258.32A141.07,141.07,0,0,1,315.74,648.7Z"/><path class="cls-10" d="M487.05,1133.14c-11.9,52.48,14.92,98.6,25.15,147.3,3.11,14.77,1.26,18.71-14,19.51-43.64,2.27-79.22-11.4-103.9-48.55-24.18-36.41-20.22-73.68-1.25-110.53,13.36-25.94,32.36-46.82,59.79-58.53,21.51-9.17,31.66-3.4,34,19.6C487.92,1112.24,487.05,1122.74,487.05,1133.14Z"/><path class="cls-10" d="M579.14,1224.51c-1.92-15.43-3.18-31-6.16-46.21-.85-4.33-7.4-7.24-10.15-11.56-7.58-11.93-16-23.67-21.2-36.65-3.28-8.16,2.34-13.93,11.42-7.74,5.93,4,12.09,9,15.7,15,16.39,27.27,21,56.61,15.48,87.26Z"/><path class="cls-7" d="M1308.32,1632.33c-12.11,16.68-9.22,20.78,10.87,26.19,12.76,3.44,24,12.55,35.89,19.12q-1.15,4.39-2.32,8.81c-12.49,0-25-.16-37.48,0-17.06.27-34.39,2.74-51.08.42-7.91-1.1-14.58-11.11-21.81-17.08l15.57-8.21a3,3,0,0,1,.79,3l3.73,2,31.63,4.57,2.54-3.9-17.4-18.86c0-1.17,0-2.34,0-3.51,16-7.66,1.36-19,3.35-28.27l8.37-5.94-11.63-15.91-.18-16.54.55-.54c7,15.09,13.83,30.26,21.12,45.21C1302.53,1626.45,1305.78,1629.22,1308.32,1632.33Z"/><path class="cls-6" d="M1258.36,1490.59l4.89-.43c.86-2.06,2.54-5.87,2.44-5.92-17.73-8.38-35.59-16.5-53.44-24.63l-36.9,2.82,37.13-18.45,6.52,4.93c30.51,6.12,55.14,22,74.58,45.89,3.1,3.82,4,9.45,5.87,14.24-5.18,0-10.36,0-15.54-.1-.16,2.25-.34,4.51-.52,6.76l-16.29-13Z"/><path class="cls-7" d="M1290.15,1555.36c-2.62,7.86-21.29,8.22-10.46,22.36l-.55.54-20.88-33.32.43-.5c15.67,3.2,11.19-8,11.29-15.86,2.2,4.52,3.86,9.43,6.75,13.45s7.14,7.4,10.78,11A10.69,10.69,0,0,0,1290.15,1555.36Z"/><path class="cls-7" d="M1283.39,1515.7c.18-2.25.36-4.51.52-6.76,6.11,14.94,18.44,29,6.22,46.42a11,11,0,0,1-2.62-2.28Q1285.46,1534.39,1283.39,1515.7Z"/><path class="cls-9" d="M1219,1448.91l-6.52-4.93,33.47-20.23Z"/><path class="cls-9" d="M1271.07,1394.4l9.37,7.56,7.5,1.37-29.69,12.24Q1264.67,1405,1271.07,1394.4Z"/><path class="cls-9" d="M1245.75,1423.91l12.73-8.51Z"/><path class="cls-2" d="M1388,1582.79l-8.07,4Z"/><path class="cls-8" d="M1176.19,1333l-46.49-5.31c14.48-41.82,28.77-83.7,43.66-125.37,2-5.57,7.53-9.77,10.58-15.09,5.47-9.54,14.9-19.6,14.58-29.17-1.16-34.28,16.85-62.31,25.79-93.22,2.12-7.33,2.89-16.49.44-23.46-23.21-66-13.27-127.32,26-184.09,19.58-28.3,41.12-55.25,61.77-82.82l5.29,2.09c-1.15,5.27-1.82,10.7-3.5,15.79-11.54,34.86-22.48,70-35.34,104.33-5.27,14.07,1.86,17.62,11.46,23.33,13.56,8.06,13.63-4.51,16.77-10.35,16.3-30.34,31.92-61,52.61-90.22-1.16,5.75-1.92,11.62-3.57,17.23-8.8,29.9-17.58,59.81-26.89,89.56-3.26,10.41-2.69,15.66,10.13,18.31,29.15,6,29,6.88,40.46-19.92,15.22-35.62,30.36-71.27,50.23-106.41-1.65,19.77-2.7,39.61-5.09,59.29-5.1,42.06-11.23,83.81-34.6,120.86-18.64,29.57-43.53,52-73.6,69.12-4.21,2.4-9.35,3.6-12.87,6.7-16.19,14.32-30.07,30-52.52,37.86-8.41,2.93-14.6,29-12.31,43,10.72,65.68-29,116.49-47.71,173.38C1190.51,1331.32,1181.47,1331.55,1176.19,1333Z"/><path class="cls-10" d="M1238,1325.52c-1.37-.06-4.14-.17-6.9-.35-25.14-1.59-25.81-1.88-15.34-25.58,11.77-26.64,25.36-52.48,37-79.16,2.48-5.66.13-13.48-.13-20.3-.78-20-3.16-40.13-2.08-60.05,1.38-25.4,12.64-31.13,36-20.95,40.71,17.73,68.51,76,59.26,124.29C1336.92,1290,1291.35,1325.13,1238,1325.52Z"/><path class="cls-10" d="M1142.57,1257.23c-8-39.44.44-72.21,19.56-102.07,4.38-6.84,15.64-9.27,23.74-13.73-.72,9,2.14,22.39-2.73,26.45C1156,1190.51,1157.75,1225.72,1142.57,1257.23Z"/><path class="cls-8" d="M1361.09,814.27l-2.5-1.47c.44-.44,1-1.32,1.3-1.24a12.74,12.74,0,0,1,2.62,1.29Z"/><path class="cls-8" d="M1319.29,772.69l-2.44-1.41c.44-.4,1-1.2,1.31-1.12a12.36,12.36,0,0,1,2.56,1.25Z"/><path class="cls-9" d="M1266.49,1390.28l4.68,4.24Z"/><path class="cls-5" d="M1282.58,1616.64c-2,9.32,12.65,20.62-3.35,28.28l-4,4.48.37-.31c-9.36.44-13.65-1.85-13.23-13.35.37-10-4.75-20.17-7.44-30.26-15.43-14.55-34.3-26.84-45.61-44.1-25.9-39.51-62.06-49.19-105.37-44.81l-16-6.58-25.33-17.21a2.5,2.5,0,0,0-2.32-2.53l-14.55-16.58.12.12-12.28-8.9.36-.31c5.9-13.78.53-23.32-11.36-30.51-12.94-7.83-25.82-15.76-38.72-23.64l-.35.53-8.61-4.42.67-.13-17.19-11.54,4.23-4c1.23-1.55,2.46-3.09,3.68-4.64l10.49-6c46.08-25.63,72.73-8.72,99.78,19.94,19.5,20.66,36.08,44,54.58,65.68,8,9.41,10.66,16.46-2.63,23.05-2.42,1.2-3.37,5.37-7.22,12,48.9-17.55,79.06,7.54,107.4,37.48,5.13,5.42,10.68,10.44,16,15.64l.48-.53,4.45,8.51-.28-.09,7.89,8.9.19-.48,4.47,8.36a.91.91,0,0,1-.17,0l17,33.4-.15-.25,4.38,4.47Zm-161.2-113.91q-1.31-1.86-2.6-3.73l-12.21,6.11,1.59,3.24Z"/><path class="cls-5" d="M1270,1528.58c-.1,7.9,4.38,19.06-11.29,15.86-25.36-26.45-51.33-52.1-92.62-66,31.7-6,50.84.38,87.39,25.41l.18-.36,12.78,16.63-.21-.27,4.36,8.6Z"/><path class="cls-9" d="M1258.26,1544.94l20.88,33.32.18,16.54-.17.12-17.38-16.26h.19l-4.48-8.35s-.19.48-.18.47q-3.93-4.44-7.9-8.89l.28.09-4.45-8.51-.48.53Z"/><path class="cls-5" d="M1212.25,1459.61c17.85,8.13,35.71,16.25,53.44,24.63.1,0-1.58,3.86-2.44,5.92Z"/><path class="cls-9" d="M1258.36,1490.59q4.37,6.06,8.73,12.13l-.54.55-12.91.26-.18.36Q1255.9,1497.25,1258.36,1490.59Z"/><path class="cls-7" d="M791,655.84c-16.84,40.91-21,83.83-20.36,127.55,1,62.57,24.69,117.42,58,168.8,2.31,3.56,11.45,6,15.69,4.46,26.57-10,52.27-22.36,79.09-31.51,10.67-3.63,23.76-2.79,35.19-.81,12.1,2.1,23.56,7.94,35.29,12.19,26.48,9.62,27,9.77,33.61-16.18,15-58.9,25.07-118.09,10-178.82-25.6-103.3-126.24-149.43-220.64-101-5.22,2.67-11.66,3-17.53,4.37,30.53-32.12,69.92-37.69,110.38-32.24,84,11.32,138.08,75,144,165.64,3.81,57.7-6.77,113.27-23.7,168.09-3.06,9.92-7.13,13.34-15.91,7.91-54.48-33.66-105.76-19-157.52,8.11-25.93,13.61-26.19,11.18-41.87-12.76C764.13,872.29,751,787.8,767.63,698.38,770.44,683.27,783,670,791,655.84Z"/><path class="cls-3" d="M879.36,542.67c-77.07,24.92-142.12,57.31-160.73,146C704.53,585.2,758.69,530.15,879.36,542.67Z"/><path class="cls-6" d="M1056,631c-20.19-50.74-63.18-68.11-109.74-81.56,31.07-7,61.13-6.83,87.53,13.47C1053.42,578,1060.88,602.49,1056,631Z"/><path class="cls-5" d="M841.39,1875.08l-66.25,49.13c-2.82-5.75-7.61-11.34-8.13-17.3-2.42-28-17-47.17-40.56-60.65-8.57-4.92-17.4-9.37-26.11-14q-11.05-12.35-22.09-24.7c46.4,21,96.74,37,113.11,94.51,4-6.35,6.55-14.06,9.19-14.08,18.45-.19,8.58-10.38,7-17.69-24.77-61.13-65.8-106.93-127.82-133.65,23.11-10.87,43.89-6.11,64.46,3.73,40.88,19.55,73.1,49.37,100.95,84.45C852.83,1842.22,859.68,1859.59,841.39,1875.08Z"/><path class="cls-7" d="M1016.43,1801.88l21.68,1.39c-9,8.73-15.79,16.54,3.56,21.2,3.58.86,8.32,8.45,7.7,12.11-.72,4.19-6.89,10.63-10.58,10.55-13.46-.27-27-2.33-40.27-4.75-9.83-1.79-19.36-5.19-29-7.9q-3.6-11.26-7.26-22.52l-6.1-.86c3.79-10.79,11-21.75,10.48-32.33-.62-12.83-7.77-25.34-12.09-38l11.87.07,0,0L976.46,1786l3.06-.59q-2.41-20.17-4.82-40.33l.95-.85q5.46,25,10.93,50.08c.76.9,1.52,1.81,2.25,2.73-4.57,4.57-15,6.7-3.93,16.32,8.8,7.65,13.64,6.35,19.83-2.26,2.72-3.78,7.67-5.93,11.6-8.79-3.63,7.86-7.85,15.49-10.56,23.62-1.06,3.18.46,10.31,2.19,10.81a86.72,86.72,0,0,0,24.12,3.36c2.56,0,7.7-6.88,7.22-7.58C1032.11,1822,1024.18,1812,1016.43,1801.88Z"/><path class="cls-7" d="M1112.4,1725.49l8.61-13.92h8.41l28.67-8.5,1.58,1.91c-6.85,12.56.32,17,11.22,19.3l.39.42-3.78,15.52-16,9.07c2.07,2.41,4,6.76,6.23,6.89,11.84.69,23.74.32,39,.32L1167.26,1740c10.13,1.83,20.5,2.9,30.27,5.91,3.45,1.07,5.43,6.88,8.08,10.53-3.47,2.08-6.88,5.87-10.4,6-19.26.54-38.67,5.5-57.57-5.1-4.93-2.77-14.37,2.48-21.75,4.05,20.65-17.32,20.3-20.73-3.19-30.83C1112.6,1728.85,1112.5,1727.17,1112.4,1725.49Zm12.07-4.53c-.33,1.1-1.17,2.44-.8,3,.54.88,1.95,1.24,3,1.82.32-1.07,1.17-2.42.81-3.16S1125.53,1721.52,1124.47,1721Z"/><path class="cls-6" d="M700.34,1832.22c8.71,4.67,17.54,9.12,26.11,14,23.51,13.48,38.14,32.7,40.56,60.65.52,6,5.31,11.55,8.13,17.3L757.92,1933c3.66-42-14.29-70.28-53.76-85.36-6.22-2.38-11.41-7.45-17.08-11.28Z"/><path class="cls-5" d="M962.26,1812q3.65,11.25,7.26,22.52c-21.69,6.94-43.33,14-65.09,20.62-2.26.69-5.26-1-7.92-1.66a24.46,24.46,0,0,1-3-1.9,1.61,1.61,0,0,1,.22-1.53q17.57-10.89,35.2-21.66l-.22.18,17-8.49-.24.17Z"/><path class="cls-7" d="M950.21,1912.05c-9.58.44-19.28,2-28.72,1.09-18.45-1.87-36.85-4.68-55-8.31-3.63-.72-6.18-6.83-9.24-10.46,4.16-1.19,8.59-4,12.41-3.27,10.1,1.81,19.88,7,29.89,7.33,12.38.35,24.86-2.9,37.3-4.6l-23.25,11.73Z"/><path class="cls-7" d="M1237.56,1665.82l-47.69,44.31c-.84-1-1.71-2-2.63-2.89l19.17-23L1159.69,1705c-.54-.64-1.07-1.29-1.6-1.93l77.3-37.25,1.08-.13Z"/><path class="cls-6" d="M841.39,1875.08c18.29-15.49,11.44-32.86,3.75-50.29l8.23-13c2.68,6.91,5.78,13.7,7.91,20.78,2.5,8.25,4.15,16.76,6.17,25.16l7.52,7.66Z"/><path class="cls-6" d="M1237.56,1665.82l-1.09-.14-1.09.13c16.53-11.43,16.66-28.08,14.46-45.48l5.07-14.86c2.69,10.1,7.81,20.29,7.44,30.27-.42,11.5,3.87,13.79,13.23,13.35L1258,1661.62l-15.57,8.21Z"/><path class="cls-9" d="M950.21,1912.05l-36.65-6.49,23.25-11.73a1.81,1.81,0,0,1,.77-2.67l21.1-.31C971.94,1904.34,963.09,1909,950.21,1912.05Z"/><path class="cls-9" d="M875,1865.39l-7.53-7.66L929,1828.35q-17.61,10.82-35.2,21.66a1.61,1.61,0,0,0-.22,1.53,24.46,24.46,0,0,0,3,1.9Z"/><path class="cls-7" d="M958.68,1890.85l-21.1.31c-7.19-4.93-14.75-9.44-21.39-15-2.39-2-2.58-6.63-3.77-10.06,3.48-.24,7.94-2,10.29-.47C935,1873.56,946.74,1882.35,958.68,1890.85Z"/><path class="cls-7" d="M1189.87,1710.13l-18.59,14.56-.39-.42,16.35-17C1188.16,1708.16,1189,1709.13,1189.87,1710.13Z"/><path class="cls-6" d="M742.11,1940.2l16.06-7.4Z"/><path class="cls-7" d="M853.37,1811.79l-8.23,13c-27.85-35.08-60.07-64.9-100.95-84.45-20.57-9.84-41.35-14.6-64.46-3.73,62,26.72,103,72.52,127.82,133.65l-15.78,8c.53-4.45,2.56-9.45,1.2-13.21-1.61-4.43-6.17-7.79-9.45-11.61-4.69-6.76-9.33-13.55-14.08-20.26-25.68-36.22-53.44-70-98.63-83l-17.27-12.87c15.6-6.09,31.46-11.64,46.56-18.8,2.52-1.2,4.17-11.18,2.06-14-11.57-15.78-24-31-37-45.68-21.17-23.85-50-33.7-79.55-42.34-22.52-6.59-41.95-1.7-60.13,12.34-3.43,2.65-8.95,2.6-13.5,3.8,12.3-22,32.93-28.16,55.92-35.36,31.26-9.78,60.09-27.33,89.95-41.56,6.38,3.41,12.46,7.67,19.2,10.08,52.23,18.71,101.8,40.7,126,96.09-6.43,8.5-10.48,4.37-14.9-2.31-2.51-3.79-6.45-6.64-9.75-9.92-16.62-25.06-36.52-45.58-67-51.37l52.88,46.47,14.5,12.74-.21-.27,4.69,8.69-22.61,15.82c-2-6.1-2.21-13.9-6.22-18-22.28-23-45.36-45.22-68.53-67.33-1.86-1.77-6.51-.94-9.83-.78-7.76.35-15.55,1.85-23.24,1.41-19.29-1.11-38.53-3-57.78-4.65l-1.87,6.55c54.56,13.26,89.65,50.37,119.11,94.29,3,4.45,4.68,9.76,7.55,14.31,2,3.16,4.41,7.09,7.55,8.3C778.81,1735.6,825.17,1761.73,853.37,1811.79Z"/><path class="cls-5" d="M512,1632.63c4.55-1.2,10.07-1.15,13.5-3.8,18.18-14,37.61-18.93,60.13-12.34,29.54,8.64,58.38,18.49,79.55,42.34,13,14.65,25.39,29.9,37,45.68,2.11,2.87.46,12.85-2.06,14-15.1,7.16-31,12.71-46.56,18.79l-8.89,1.51a10.32,10.32,0,0,0-3.68-1.59l-16-14.94a1.33,1.33,0,0,0,.16-2.06q-4.12-4.74-8.24-9.5l-.14.38-8.63-8.52.4-.17-8.94-8,.12.22-8.58-4.53.6,0-45.68-17.12-8.27-4.3c-10-5.52-20.36-10.56-29.91-16.81-3.89-2.54-6-7.72-9-11.7l-.05.14,10-3.83Z"/><path class="cls-5" d="M803.1,1661.88c-24.21-55.39-73.78-77.38-126-96.09-6.74-2.41-12.82-6.67-19.2-10.08q2.1-3.09,4.18-6.19c35.81-13.75,70-8.55,103.18,8.78l.63-.81q2.14,3.1,4.27,6.22a3,3,0,0,0,3.05,2.26q8.52,6.6,17,13.2L817,1628c.75,1.54,1.49,3.09,2.24,4.63C825.49,1648.81,822.13,1659.67,803.1,1661.88Z"/><path class="cls-5" d="M370.25,1687.1l16.28-4.77,8.32-4.46-.23.16c19.14,6.23,39.64,10,57.07,19.36,19.83,10.71,36.91,26.49,55.18,40.07l.16-.37q12.81,7.88,25.63,15.74l33.43,8.36c4.45,2.13,12.37,3.77,12.75,6.47,1.5,10.75-20.21,24.77-29,18.85-18.86-12.72-37.14-26.31-55.49-39.76-12.13-8.9-24-18.18-36-27.3-1.45,1.85-2.91,3.69-4.36,5.53l36.83,32.56c-3,.54-6.75,2.52-8.73,1.38-9.75-5.65-19-12.12-28.45-18.3h0l-4.37-3.41c-25.44-13.58-51-27-76.19-41C371.07,1695.12,371.14,1690.24,370.25,1687.1Z"/><path class="cls-7" d="M506.87,1737.46c-18.27-13.58-35.35-29.36-55.18-40.07-17.43-9.41-37.93-13.13-57.07-19.36,2.64-3.85,4.49-9.92,8-11.17q33.93-12,68.53-21.95c8.93-2.61,18.45-3.17,27.7-4.66,2.95,4,5.1,9.16,9,11.7,9.55,6.25,19.89,11.29,29.91,16.81l-1,1.17-16.66,0-12.48-4.2-1.88-.91,1.74,1,12.54,4.16c7.55,6.3,14.05,18.89,25.07,4.13l1-1.06,45.67,17.12-38.18-6.88,24.05,21c-46-13.65-86.42-47.34-138.87-39.18,16.3,15.12,34,27.11,51.14,39.86,6.82,5.06,12.42,11.78,18.57,17.74Q507.67,1730.07,506.87,1737.46Zm-11-76.35c.56-2.27,1.11-4.53,1.67-6.8l-28.29-5.11-1.14,6.13Z"/><path class="cls-9" d="M819.23,1632.65c-.75-1.54-1.49-3.09-2.24-4.63,4-16.43-9.24-40.57-26.76-48.86,1.11-13.15-7.59-13.65-17-13.19a3,3,0,0,1-3.05-2.27l-4.27-6.21-.62.8c-1.92-3.11-3.12-7.35-5.9-9.13-25.23-16.2-53.57-14.22-81.68-13.21l33.88-17.24c5.55,4.53,10.44,10.75,16.8,13.22,13.09,5.09,27,8,40.51,12.14,9,2.72,17.77,5.93,26.65,8.93l12.48,8.37,37.48,41.8,4.22,4.12q2.1,14.67,4.22,29.35c-9.31,3.75-20.25,26.37-27-2.33C826.63,1633.21,821.88,1633.18,819.23,1632.65Z"/><path class="cls-7" d="M795.52,1553c-8.88-3-17.69-6.21-26.65-8.93-13.5-4.11-27.42-7-40.51-12.14-6.36-2.47-11.25-8.69-16.8-13.22L770.73,1499c2.47,2.58,4.47,6.38,7.48,7.52,15.59,5.9,31.43,11.12,47.18,16.58l-25.81-3.3c-21.4-14.94-44.1-9-66.73-4.13l-4.4,3.08,4.36-3.12,66.74,4.2q-.1,4.32-.19,8.62l-59.59-6.7L796.41,1552Z"/><path class="cls-6" d="M370.25,1687.1c.89,3.14.82,8,2.83,9.13,25.22,14,50.75,27.41,76.19,41l4.37,3.41h0l-4.35,10.8c-14.38-9.3-27.76-21.07-43.36-27.33-25.68-10.3-52.8-17-79.31-25.28Z"/><path class="cls-7" d="M677.68,1536c28.11-1,56.45-3,81.68,13.21,2.78,1.78,4,6,5.9,9.13-33.17-17.32-67.38-22.52-103.19-8.77Z"/><path class="cls-7" d="M508.87,1636.56l-10,3.83Z"/><path class="cls-7" d="M394.85,1677.87l-8.32,4.46Z"/><path class="cls-6" d="M819.23,1632.65c2.65.53,7.4.56,7.66,1.66,6.78,28.7,17.72,6.08,27,2.33l24.72,7.73L875,1646c.41.89.58,2.2,1.27,2.59,5.1,2.93,10.3,5.67,15.47,8.47l-.45.45-16.6-.12-12.95-2.29,4.51,2.49-.39,6.39c-28.46-8.14-52.67,3.32-77.49,16.19,86.63,32.32,141.74,95.61,123.27,146-13.46-41.49-26.61-81.28-63.43-103.91-35.15-21.61-72.25-40.65-116.1-18.31-.34-1.82-.69-3.65-1-5.47l29.68-16.71,22.6-15.82-4.68-8.69.21.27q-.21-3.91-.43-7.84c3.3,3.28,7.24,6.13,9.75,9.92,4.42,6.68,8.47,10.81,14.9,2.31C822.13,1659.67,825.49,1648.81,819.23,1632.65Z"/><path class="cls-6" d="M1000.53,1527.24l28.08,15.74.33,5.92-16.7,8.42-5.47,1.79,5.28,5.81-12.62,4.37,72.1,20.35c-9.34-1.46-18.63-3.72-28-4.18-10.35-.51-20.79.63-31.19,1l-37.15,2.61-16.91,2.32q-6.33-14.93-12.65-29.85c0-2.8,0-5.61,0-8.41l12.22,0c2.39,4.18,4.22,8.87,7.4,12.34,1.91,2.09,5.91,2.26,9,3.29,1.55-5.56,3.57-11,4.39-16.72.3-2.14-1.63-5.4-3.52-6.91-6.34-5-14-8.69-19.54-14.44-8.22-8.55-15-18.44-22.45-27.76h0l-.27-16.47.42-.36c6.53,4.61,14,8.3,19.41,14,11.94,12.69,21.75,27.88,40.56,31.28C995.33,1531.88,998.08,1528.74,1000.53,1527.24Z"/><path class="cls-7" d="M957.85,1553.23l-12.22,0-7.2-7.68a48.4,48.4,0,0,0-3.72,3.69c3.47,4.26,7.2,8.31,10.9,12.4q6.32,14.92,12.65,29.85l-22.31,12c-1.24-2-2.64-3.87-2.46-4,14.81-13.89,9.7-26-1.77-39.39-22.66-26.51-44.2-54-66.21-81l.82-.94c11,0,22.15-.86,33,.5,4,.49,7.31,6.25,10.95,9.6-4.29-.32-8.58-.61-13.31-.94l33.82,43.73,3-1.47-10.24-25.36,9.58-1.07h0C935,1522.92,942.2,1540.15,957.85,1553.23Z"/><path class="cls-9" d="M952.73,1670.22l-7.44-7.18c-1.41-1.83-2.83-3.65-4.24-5.47l-.3.68-12.41-8.67.34.08-8.58-4.44.11.28-37.29-15.07L932.78,1620l8.75,16.5q8.19,4.26,16.37,8.53l.05,0c4.34,10.66,3.82,25.63,21.6,24.38l-.19-.06q4.41,6.16,8.83,12.31l-.32.17q6.45,10.23,12.92,20.45s0,0,0,0c1.32,17.34,2.66,34.66,4,52.34l-9.91-9.34.33,0-13.08-28.81.45-.23q-2.16-4.29-4.33-8.59l.21.24-4.29-8.56.11.13q-6.48-10.24-13-20.5l.38-.15Z"/><path class="cls-7" d="M1119.45,1680l-19.72-22.44.32-.29c8.8-.12,19.42,2.08,14.71-13.43-.49-1.61,4-6.68,6.48-6.93,17.41-1.75,12.38-11.93,9-21.88-1.93-5.59-3.44-11.33-5.14-17,23.13,22.18,32.28,73.54,16.21,101.89-3.37-18.27-6.37-34.51-9.37-50.75l-6.18,1q1.2,10,2.41,20Z"/><path class="cls-9" d="M799.36,1528.41q.09-4.31.19-8.62l0,0,25.81,3.3-.34.18,8.85,8-.56.28,8.43,4.54-.23-.12,4.39,4.43-.13-.36,6.81,4.81,47.49,57.29c1,12.31-2.67,20.14-17,17.71q-1.94-4.15-3.86-8.32c8.15-16.35-6.18-23.18-13.91-32.8l-.31.74q-4.08-4.17-8.17-8.35l.63-.33-8.3-4.77.16.16-4.78-8.3.44.37-8.39-4.65.11.19-13-12.08.49-.25-8.43-4.5.28.14q-4.21-2.28-8.44-4.55l.22.13-8.57-4.35Z"/><path class="cls-6" d="M941.53,1636.5l-8.75-16.5,4.35-3.34c37.59,16.49,64.56,45.54,89.79,76.45a99.65,99.65,0,0,1,15,24.61c2.59,6.3,1.74,14,0,22-14.06-35.27-37.35-62.11-67.26-83.61L958,1645.08l-.05,0Q949.73,1640.76,941.53,1636.5Z"/><path class="cls-7" d="M994.91,1745.29l9.91,9.34c-1.36-17.68-2.7-35-4-52.34,30.6,17.82,39.7,40.82,23.59,58.33-4-9.26-8-18.69-12.1-28.12l-2.36-2.82c-.23.63-.46,1.26-.68,1.89l3,1c.41,11.46,1.29,22.94,1,34.38-.1,3.42-3.62,6.73-5.57,10.09-2.41-2.71-5.95-5-7-8.21C998.11,1761.16,996.75,1753.15,994.91,1745.29Z"/><path class="cls-7" d="M937.13,1616.66l-4.35,3.34-49.86,10.43,37.29,15.07-41.57-1.13-24.72-7.73q-2.11-14.67-4.22-29.35l1-.9c2.28,3.3,5.61,6.29,6.65,9.93,6.11,21.4,15.15,17.65,25.78,3.46,14.34,2.43,18-5.4,17-17.71,7.14,2.12,14.44,3.82,21.37,6.47C926.93,1610.64,931.93,1613.91,937.13,1616.66Z"/><path class="cls-9" d="M966.42,1740.86l-11.87-.07-25.73-33.09-.1-12.6.28-.27,9.32.55,6.93,6.48,5.09,5.28h-.44l4.45,4.32-.06-.27,4.47,8.47-.42-.09,4.4,4.37-.34-.13,4.39,4.43-.18-.23Q966.52,1734.44,966.42,1740.86Z"/><path class="cls-7" d="M1065.34,1625.19c-8.1-20.85-28.34-25.13-45.64-33.44l.95-1.09c32.19.61,45.09,10,45.86,33.4Z"/><path class="cls-9" d="M910.06,1669.61l18.82,18,.12,7.18-.28.27-21.85-4-3.38-2.69q-1.93-9.21-3.85-18.41l.12-.15Z"/><path class="cls-4" d="M1119.45,1680l8.69-9.84q.63,20.7,1.28,41.41H1121Z"/><path class="cls-9" d="M1112.4,1725.49c.1,1.68.2,3.36.3,5.06l-40.22,20.66c-.83-1-1.69-2-2.6-2.92Z"/><path class="cls-7" d="M958,1645.08l16.78,11.07q2.4,6.66,4.81,13.31C961.77,1670.71,962.29,1655.74,958,1645.08Z"/><path class="cls-7" d="M1099.73,1657.55l-24.83-21,.14-.15c14.37-.28,23.63,5.58,25,20.87Z"/><path class="cls-7" d="M975.17,1589.12l37.15-2.61,8.33,4.15-.95,1.09Z"/><path class="cls-7" d="M982.16,1716.51l13.08,28.81Z"/><path class="cls-7" d="M1000.79,1702.33q-6.46-10.21-12.92-20.45Z"/><path class="cls-7" d="M961.34,1679q6.49,10.24,13,20.5Q967.83,1689.26,961.34,1679Z"/><path class="cls-9" d="M1054.87,1762.27l-15.07,4.29c-.35-1-.69-2.07-1-3.11l13.49-5.84Z"/><path class="cls-7" d="M928.34,1649.58l12.41,8.67Q934.54,1653.93,928.34,1649.58Z"/><path class="cls-7" d="M929,1694.83l-.12-7.18,9.46,7.72Z"/><path class="cls-7" d="M966.42,1740.86q.09-6.43.19-12.86l9,16.21-.95.85-8.31-4.23Z"/><path class="cls-7" d="M988.19,1681.71q-4.41-6.15-8.83-12.31Z"/><path class="cls-6" d="M910.06,1669.61l-10.3.21q-2.14-4.1-4.28-8.21l1.5-1.47Z"/><path class="cls-7" d="M833.9,1531.2l-8.85-8Z"/><path class="cls-9" d="M1072.48,1751.21l-12.55,7-2.07-3.59,12-6.32C1070.79,1749.23,1071.65,1750.2,1072.48,1751.21Z"/><path class="cls-7" d="M952.73,1670.22l9,8.63Z"/><path class="cls-7" d="M920.1,1645.22l8.58,4.44Z"/><path class="cls-7" d="M974.2,1699.37l4.29,8.56Z"/><path class="cls-7" d="M986.58,1794.29l7.66-1.58q-2.72,2.14-5.42,4.3C988.1,1796.1,987.34,1795.19,986.58,1794.29Z"/><path class="cls-7" d="M1074.9,1636.53l-6-6.55,1.75-1.75,4.36,8.15Z"/><path class="cls-7" d="M841.77,1536l-8.43-4.54Z"/><path class="cls-7" d="M978.28,1707.69q2.16,4.3,4.33,8.59Q980.45,1712,978.28,1707.69Z"/><path class="cls-7" d="M950.34,1707.14l-5.09-5.28Z"/><path class="cls-7" d="M958.76,1719.65l-4.47-8.47Z"/><path class="cls-7" d="M852.61,1544.78,845.8,1540Z"/><path class="cls-7" d="M941.05,1657.57c1.41,1.82,2.83,3.64,4.24,5.47C943.88,1661.22,942.46,1659.4,941.05,1657.57Z"/><path class="cls-7" d="M845.93,1540.33l-4.39-4.43Q843.73,1538.12,845.93,1540.33Z"/><path class="cls-6" d="M891.73,1657l5.24,3.11-1.49,1.46-4.2-4.12Z"/><path class="cls-7" d="M954.35,1711.45l-4.45-4.32Z"/><path class="cls-7" d="M1068.93,1630q-1.79-2.4-3.59-4.79l1.17-1.13,4.17,4.17Z"/><path class="cls-7" d="M962.74,1723.93l-4.4-4.37Z"/><path class="cls-7" d="M966.79,1728.23l-4.39-4.43Z"/><path class="cls-6" d="M490.86,1757.54,454,1725c1.45-1.84,2.91-3.68,4.36-5.53,12,9.12,23.84,18.4,36,27.3,18.35,13.45,36.63,27,55.49,39.76,8.78,5.92,30.49-8.1,29-18.85-.38-2.7-8.3-4.34-12.75-6.47l31.76-2.77L541,1740.49c17.1,3.16,35.52,3.46,50.88,10.46,11,5,19.9,9.67,31.61,5.69l3,3.37c3.28,3.16,6.06,7.3,9.94,9.29,10.13,5.19,21.1,8.8,31.1,14.22,16.9,9.17,33.88,18.42,49.8,29.16,20.84,14.07,40.66,29.66,61,44.45,1.12.81,3.26.64,4.76.27.42-.11.26-2.55.37-3.92,3.28,3.82,7.84,7.18,9.45,11.61,1.36,3.76-.67,8.76-1.2,13.21l15.78-8c1.58,7.31,11.45,17.5-7,17.69-2.64,0-5.21,7.73-9.19,14.08-16.37-57.48-66.71-73.54-113.11-94.51-5.85-2.6-11.58-5.51-17.58-7.72-7.39-2.73-15-4.88-22.51-7.28-15.33-4.86-30.39-12-46.08-13.86-11.92-1.45-22.36,5-12.33,20.39l-13.78,12-9.32-1.88c-15.26-9.63-31.1-18.51-45.57-29.22C503.15,1774.08,497.52,1765.11,490.86,1757.54Z"/><path class="cls-7" d="M490.86,1757.54c6.66,7.57,12.29,16.54,20.22,22.41,14.47,10.71,30.31,19.59,45.57,29.22-10,4.09-20.54,7.34-29.94,12.58-6.79,3.78,2.3,23.2,12.61,27.16q30.73,11.82,61.51,23.55c-.73.94-1.47,1.85-2.24,2.74-11.47-2-22.9-4.28-34.41-6-27.56-4.19-50.52-14-56.73-45l19.72-21.2-70-43.7-5-7.09a9.45,9.45,0,0,1-2.85-.79q2.18-5.37,4.35-10.78c9.44,6.18,18.7,12.65,28.45,18.3C484.11,1760.06,487.9,1758.08,490.86,1757.54Z"/><path class="cls-6" d="M612,1877.64l4,1.28c.84,2.8,1.69,5.61,2.53,8.42l1.89-5.54,12.42,5.27q.09,3.87.19,7.75c-8.93,7.3-17.36,15.35-27,21.62-6,3.92-14.49,8.43-20.58,7-26.83-6.13-53.19-14.31-79.27-21.62,3.5-3,11-7,10.54-9.42-1.55-7.64-6.09-14.67-11.13-25.51,27.28,5.71,56.25,12.14,85.42,17.6,6.56,1.22,13.76-1,20.67-1.6Zm-5.36,26c-.75-2.3-1.49-4.61-2.24-6.91-20.07-5-40-10.66-60.28-14.6-5.83-1.13-12.63,2.7-19,4.25,4.88,5.65,8.76,14.3,14.86,16.35a161.82,161.82,0,0,0,42.54,7.94C590.47,1911.08,598.64,1906.15,606.68,1903.63Z"/><path class="cls-7" d="M566,1811.05l13.78-12,21.1,7.77-10.47,4.5,2.12,4.08,10.79-7,44.63,21.64C615.3,1833.4,589.76,1826.41,566,1811.05Z"/><path class="cls-7" d="M638.16,1792.52c7.51,2.4,15.12,4.55,22.51,7.28,6,2.21,11.73,5.12,17.58,7.72q11,12.36,22.09,24.7l-13.26,4.17Q662.62,1814.46,638.16,1792.52Z"/><path class="cls-9" d="M432.41,1866.09c2-11.51,5.62-17.38,20.22-14.21,9.31,2,20.42-4.2,30.71-6.73l1.49-.06,1.5.11,19,1.15c-.18,1-.35,1.89-.53,2.84Z"/><path class="cls-7" d="M486.33,1845.2l-1.5-.11-1.49.06q-6.1-8.33-12.2-16.67l36.61-4.1c-4.11.27-8.22.48-12.32.82C480.51,1826.44,475.9,1832.4,486.33,1845.2Z"/><path class="cls-9" d="M623.06,1856.73,602.53,1847c.37-1,.74-1.92,1.1-2.87l21.6,7.19Z"/><path class="cls-9" d="M633.05,1894.82q-.1-3.88-.19-7.75l10.38-6.78c1-.84,2-1.72,2.93-2.63C657.91,1895.71,642.75,1893.17,633.05,1894.82Z"/><path class="cls-9" d="M643.24,1880.29l-16.4-17.19,3-3.6q8.14,9.07,16.3,18.16C645.22,1878.57,644.24,1879.45,643.24,1880.29Z"/><path class="cls-6" d="M603.29,1808.43l-10.79,7-2.12-4.08,10.47-4.5A2.75,2.75,0,0,1,603.29,1808.43Z"/><path class="cls-7" d="M612,1877.64l-.3,5.29-13.14-7.73c.76-.89,1.5-1.8,2.23-2.74Z"/><path class="cls-7" d="M620.44,1881.8l-1.89,5.54c-.84-2.81-1.69-5.62-2.53-8.42Z"/><path class="cls-6" d="M383,1832.42l-14.1,9.31c-12-5.18-24.1-10.13-36-15.6-12.82-5.92-25.41-12.33-38.1-18.53l22-5,11.29-10.84,2.73,8,1.74-5.48,8.05,1.83q12.49,16.23,25,32.44,1.11,2.67,2.23,5.32l2-5.42,11.69.07Z"/><path class="cls-7" d="M381.63,1828.51l-11.69-.07h0l-4.05-.1-.23.2q-12.5-16.21-25-32.44Z"/><path class="cls-7" d="M332.62,1794.27l-1.74,5.48-2.73-8Z"/><path class="cls-6" d="M452.18,1752.19l5,7.09Z"/><path class="cls-9" d="M910.27,1488.15c-3.63-3.36-7-9.12-10.94-9.61-10.85-1.36-22-.49-33-.5l-14.91-13.47c21-10.88,42-2.71,62.7-.21,9.41,1.14,18.73,3.07,28.09,4.64l-.65.14,8.48,4.52-.06-.17,9,7.83-.54.22,8.38,4.64-.13-.15c-.26,9.25-1.59,19.4,13.35,15.86l-.63.41,7.82,5.12.29,1.62,12.79,18.85.26-.65c-2.45,1.5-5.2,4.64-7.31,4.25-18.81-3.4-28.62-18.59-40.56-31.28-5.36-5.71-12.88-9.4-19.42-14l-1.89-5.21a11.47,11.47,0,0,0-1.42,1.11c.9,1.52,1.91,3,2.9,4.45l.27,16.47-9.58,1.07.69-.5-4.55-8.38.44.12-4.33-4.34.19.14-4.36-4.31Z"/><path class="cls-9" d="M1060.32,1490.25a2.5,2.5,0,0,1,2.32,2.53q4,7.4,8,14.77l-4,12.24-14.45-3.75-2.67-3.21L1037.19,1499l.06.07-9.28-11.66.66-.26-8.36-4.69.15.18c1-10-2.92-14.48-13.23-11.73l.46-.26-8.3-4.53s-.33.39-.32.4c-2.52-3.1-5.06-6.2-7.59-9.29h0l42.54,7.36-.36.31,12.28,8.9-.12-.12Z"/><path class="cls-3" d="M1066.58,1519.79q2-6.12,4-12.25L1088,1510l16,6.58c-9.41,3.8-18.93,7.35-28.09,11.68-1.29.61-.77,5.06-1.09,7.73l-12.31.58-4.27,8.3-12.42.2-8.18-3.91,20.87-17.23Z"/><path class="cls-7" d="M980,1501.89c-14.94,3.54-13.61-6.61-13.35-15.86Z"/><path class="cls-7" d="M1007.19,1470.89c10.31-2.75,14.2,1.75,13.23,11.73Z"/><path class="cls-7" d="M1037.19,1499l12.27,13.85Z"/><path class="cls-7" d="M1066.58,1519.79l-8.14,4.13-6.31-7.88Z"/><path class="cls-6" d="M1000.27,1527.89,987.48,1509Z"/><path class="cls-7" d="M1037.57,1541.15l8.18,3.91-16.81,3.84-.33-5.92Z"/><path class="cls-7" d="M1028,1487.39l9.28,11.66Z"/><path class="cls-7" d="M958.94,1481.32l-9-7.83Z"/><path class="cls-7" d="M950,1473.66l-8.48-4.52Z"/><path class="cls-7" d="M999.35,1466.1l8.3,4.53Z"/><path class="cls-7" d="M987.19,1507.42l-7.82-5.12Z"/><path class="cls-7" d="M1020.27,1482.44l8.36,4.69Q1024.44,1484.79,1020.27,1482.44Z"/><path class="cls-7" d="M966.78,1486.18l-8.38-4.64Z"/><path class="cls-9" d="M983.89,1410.43c-6.75,10-24.35,13.22-18.93,30.69-4.45.73-9.18,2.82-13.27,1.93-9.38-2-18.45-5.54-27.61-8.44,11.17-20.11,27.41-31.32,51.51-28.2l-.66.13,8.61,4.42Z"/><path class="cls-9" d="M1020.3,1456.31l-28.62-26.89,4.71-5.08,30.78,25.31Z"/><path class="cls-9" d="M991.44,1457.21l-5.38-1.56,5.37,1.57Z"/><path class="cls-2" d="M1258,1661.62l17.62-12.53-.37.31,4-1,17.4,18.86-2.54,3.9-31.63-4.57-3.73-2A3,3,0,0,0,1258,1661.62Z"/><path class="cls-9" d="M1279.32,1594.8l11.63,15.91-8.37,5.94.43-.39-4.38-4.46.16.25.36-17.13Z"/><path class="cls-6" d="M1279.25,1648.43l-4,1,4-4.48C1279.21,1646.09,1279.22,1647.26,1279.25,1648.43Z"/><path class="cls-6" d="M1258.75,1664.66l3.73,2Z"/><path class="cls-9" d="M1283.39,1515.7q2.05,18.69,4.12,37.38c-3.64-3.65-7.81-6.92-10.78-11s-4.55-8.93-6.75-13.45l.59-.09-4.36-8.6.21.27q.07-8.45.13-16.89l.54-.55Z"/><path class="cls-7" d="M1074.75,1536c.32-2.67-.2-7.12,1.09-7.73,9.16-4.33,18.68-7.88,28.09-11.68,43.31-4.38,79.47,5.3,105.37,44.81,11.31,17.26,30.18,29.55,45.61,44.1l-5.07,14.85c-20.71-20-40.6-40.95-62.46-59.59-12.07-10.3-26.67-21.27-41.51-23.81C1122.79,1533,1098.52,1536,1074.75,1536Z"/><path class="cls-7" d="M1088,1510l-17.35-2.45-8-14.76Z"/><path class="cls-7" d="M1279.15,1594.92l-.36,17.13-17-33.4Z"/><path class="cls-7" d="M1060.32,1490.25l-14.55-16.58Z"/><path class="cls-7" d="M1121.38,1502.73l-13.22,5.62-1.59-3.24,12.21-6.11Q1120.07,1500.88,1121.38,1502.73Z"/><path class="cls-7" d="M1045.89,1473.79l-12.28-8.9Z"/><path class="cls-7" d="M1249.4,1561.88q4,4.45,7.9,8.89Q1253.34,1566.34,1249.4,1561.88Z"/><path class="cls-7" d="M1257.48,1570.3l4.48,8.35Q1259.71,1574.48,1257.48,1570.3Z"/><path class="cls-7" d="M983.54,1411l-8.61-4.42Z"/><path class="cls-7" d="M1245.23,1553.46l4.45,8.51Z"/><path class="cls-7" d="M1278.63,1611.8l4.38,4.46Z"/><path class="cls-7" d="M1266.55,1503.27q-.06,8.45-.13,16.89l-12.78-16.63Z"/><path class="cls-7" d="M1266.21,1519.89l4.36,8.6Z"/><path class="cls-4" d="M888.94,836.47c-.52,4.25-.39,10.71-2.22,16.56-5.65,18.17-15.34,33.68-36.51,34.43S817.82,874.27,812,855.63a72.74,72.74,0,0,1-3.53-20.33c-.52-29.51,18.37-53.78,41-53.43C871.24,782.21,888.73,805.5,888.94,836.47Z"/><path class="cls-4" d="M1001.36,848.5c-2,27.72-14.26,47.29-30.78,46.58-15.85-.69-27.21-19.06-26.41-45.77.32-10.83,2.09-22.59,7-32,3.52-6.77,13.24-14.16,20.23-14.19s16.14,7.47,20.11,14.19C996.89,826.47,998.26,838,1001.36,848.5Z"/><path class="cls-5" d="M903.49,1688.38l3.38,2.69,22,16.63,25.73,33.09c4.32,12.64,11.47,25.15,12.09,38,.51,10.58-6.69,21.54-10.47,32.33q-5.34,4.56-10.71,9.11l.24-.17-17,8.49.22-.18-61.53,29.38c-2-8.4-3.66-16.91-6.16-25.16-2.13-7.08-5.23-13.87-7.91-20.78-28.2-50.06-74.56-76.19-125.88-96-3.14-1.21-5.57-5.14-7.55-8.3-2.87-4.55-4.57-9.86-7.55-14.31-29.46-43.92-64.55-81-119.11-94.29l1.87-6.55c19.25,1.61,38.49,3.54,57.78,4.65,7.69.44,15.48-1.06,23.24-1.41,3.32-.16,8-1,9.83.78,23.17,22.11,46.25,44.33,68.53,67.33,4,4.14,4.24,11.94,6.22,18l-29.68,16.71c.34,1.82.69,3.65,1,5.47,43.85-22.34,80.95-3.3,116.1,18.31,36.82,22.63,50,62.42,63.43,103.91,18.47-50.37-36.64-113.66-123.27-146,24.82-12.87,49-24.33,77.49-16.2l8.24,2.62.11-.42Z"/><path class="cls-9" d="M1016.43,1801.88c7.75,10.12,15.68,20.12,22.87,30.62.48.7-4.66,7.56-7.22,7.58a86.72,86.72,0,0,1-24.12-3.36c-1.73-.5-3.25-7.63-2.19-10.81,2.71-8.13,6.93-15.76,10.56-23.62C1016.33,1802.25,1016.43,1801.88,1016.43,1801.88Z"/><path class="cls-9" d="M966.39,1740.83l8.31,4.23q2.4,20.16,4.82,40.33l-3.06.59Z"/><path class="cls-9" d="M945.46,1820.21q5.35-4.56,10.71-9.11l6.09.86Z"/><path class="cls-5" d="M1074.75,1536c23.77,0,48-3,71.12,1,14.84,2.54,29.44,13.51,41.51,23.81,21.86,18.64,41.75,39.6,62.46,59.59,2.2,17.4,2.07,34.05-14.46,45.48l-77.29,37.25-28.67,8.5q-.64-20.7-1.28-41.41-1.22-10-2.41-20l6.18-1c3,16.24,6,32.48,9.37,50.75,16.07-28.35,6.92-79.71-16.21-101.89l-3.5-3.36-8.85-4.67.3.27-4.39-4.37.8-.48c-1.54-10.06,9.31-23.63-8.26-29.15l-.41-.13-38.32-19.57Z"/><path class="cls-5" d="M1187.24,1707.24l-16.35,17c-10.9-2.29-18.07-6.74-11.22-19.3,13.79-6.1,27.56-12.22,46.74-20.75Z"/><path class="cls-9" d="M1167.26,1740l29.42,16.47c-15.22,0-27.12.37-39-.32-2.2-.13-4.16-4.48-6.23-6.89l16-9.07Z"/><path class="cls-4" d="M1124.47,1721c1.06.56,2.56.87,3,1.71s-.49,2.09-.81,3.16c-1-.58-2.44-.94-3-1.82C1123.3,1723.4,1124.14,1722.06,1124.47,1721Z"/><path class="cls-9" d="M928.75,1828.53l17-8.49Z"/><path class="cls-5" d="M783.52,1853.48c-.11,1.37.05,3.81-.37,3.92-1.5.37-3.64.54-4.76-.27-20.36-14.79-40.18-30.38-61-44.45-15.92-10.74-32.9-20-49.8-29.16-10-5.42-21-9-31.1-14.22-3.88-2-6.66-6.13-10-9.3l44.29-9.77c45.19,13,73,46.77,98.63,83C774.19,1839.93,778.83,1846.72,783.52,1853.48Z"/><path class="cls-5" d="M778.45,1649.65q.22,3.93.43,7.84l-14.5-12.74-52.88-46.47C741.93,1604.07,761.83,1624.59,778.45,1649.65Z"/><path class="cls-6" d="M670.81,1750.23,626.52,1760l-3-3.36c0-3.65,0-7.29,0-10.94,20.36-6.51.08-15.64,1.51-23.37l16,14.94,3.68,1.59,8.89-1.51Q662.17,1743.8,670.81,1750.23Z"/><path class="cls-5" d="M778.67,1657.22l4.68,8.69C781.8,1663,780.23,1660.12,778.67,1657.22Z"/><path class="cls-9" d="M625,1722.33c-1.43,7.73,18.85,16.86-1.5,23.37l.55-.19q-4-8.52-8-17l-25.55-16.41,0,.33L578,1703.76l-.34.5-24.05-21,38.18,6.88-.59,0,8.57,4.52-.12-.22,8.94,8-.4.17,8.63,8.52s.14-.38.13-.37l8.25,9.49A1.33,1.33,0,0,1,625,1722.33Z"/><path class="cls-7" d="M608.54,1702.46l-8.94-8Z"/><path class="cls-7" d="M625.15,1720.27l-8.25-9.49Z"/><path class="cls-7" d="M616.77,1711.15l-8.63-8.52Z"/><path class="cls-7" d="M599.72,1694.73l-8.57-4.52Z"/><path class="cls-7" d="M537.79,1668.76l8.27,4.3-.94,1.06-8.33-4.19Z"/><path class="cls-7" d="M644.65,1738.86l-3.68-1.59A10.32,10.32,0,0,1,644.65,1738.86Z"/><path class="cls-7" d="M790.21,1579.16c17.54,8.29,30.77,32.43,26.78,48.86Z"/><path class="cls-7" d="M773.2,1566c9.44-.46,18.14,0,17,13.19Z"/><path class="cls-7" d="M765.88,1557.49l4.27,6.21Z"/><path class="cls-9" d="M541,1740.49l56.81,17.93-31.76,2.77-33.44-8.36L507,1737.09l-.16.37q.79-7.38,1.58-14.77Z"/><path class="cls-7" d="M507,1737.09l25.62,15.74Z"/><path class="cls-7" d="M453.64,1740.63l-4.37-3.41Z"/><path class="cls-5" d="M541,1740.49l-32.59-17.8c-6.15-6-11.75-12.69-18.57-17.75-17.14-12.75-34.84-24.74-51.14-39.86,52.45-8.16,92.89,25.53,138.87,39.18l.34-.5,12.59,8.64,0-.33,25.63,24.31,7.91,9.13-.55.19c0,3.65,0,7.29,0,10.94-11.71,4-20.61-.67-31.61-5.69C576.56,1744,558.14,1743.65,541,1740.49Z"/><path class="cls-9" d="M495.9,1661.11l-27.76-5.78,1.14-6.13,28.29,5.11C497,1656.58,496.46,1658.84,495.9,1661.11Z"/><path class="cls-9" d="M536.79,1669.93l8.33,4.19c-11,14.76-17.52,2.17-25.07-4.13l.08-.1Z"/><path class="cls-9" d="M520.05,1670l-12.54-4.16.14-.14,12.48,4.2Z"/><path class="cls-9" d="M507.51,1665.83l-1.74-1,1.88.91Z"/><path class="cls-7" d="M845.48,1603.17,808,1561.37l.67-.77,39.11,40.54Z"/><path class="cls-7" d="M808,1561.37,795.52,1553l.89-1,12.26,8.65Z"/><path class="cls-7" d="M849.7,1607.29l-4.22-4.12,2.3-2,2.88,5.24Z"/><path class="cls-5" d="M850.66,1606.39l-2.88-5.24q-19.56-20.28-39.11-40.55L796.41,1552l-56.64-30.24,59.59,6.7-.09-.15,8.57,4.35-.22-.13q4.23,2.26,8.44,4.55l-.27-.14,8.42,4.5-.48.24,13,12.09-.11-.19c2.8,1.54,5.6,3.1,8.39,4.65l-.43-.37,4.77,8.3-.16-.16,8.3,4.77-.62.32c2.73,2.78,5.44,5.57,8.16,8.36,0,0,.31-.74.32-.74q7,16.39,13.9,32.8,1.93,4.17,3.86,8.32c-10.63,14.19-19.67,17.94-25.78-3.46C856.27,1612.68,852.94,1609.69,850.66,1606.39Z"/><path class="cls-9" d="M732.85,1515.63c22.63-4.88,45.33-10.81,66.73,4.13l0,0-66.74-4.2Z"/><path class="cls-9" d="M732.81,1515.59l-4.36,3.12,4.4-3.08Z"/><path class="cls-9" d="M891.28,1657.49l4.2,4.12q2.14,4.11,4.28,8.21l-.12.15-25.44-3.82-.11.42q.28-4.58.55-9.14l0-.06Z"/><path class="cls-9" d="M866.24,1657.57l-4.51-2.49,12.95,2.29,0,.06Z"/><path class="cls-7" d="M866.24,1657.57l8.4-.14q-.27,4.56-.55,9.14l-8.24-2.62Z"/><path class="cls-9" d="M1121.57,1594.66l3.5,3.36c1.7,5.67,3.21,11.41,5.14,17,3.41,10,8.44,20.13-9,21.88-2.49.25-7,5.32-6.48,6.93,4.71,15.51-5.91,13.31-14.71,13.43-1.38-15.3-10.64-21.16-25-20.88l-4.36-8.15-4.17-4.17c-.77-23.39-13.67-32.79-45.86-33.4l-8.33-4.15c10.4-.42,20.84-1.56,31.19-1,9.39.46,18.68,2.72,28,4.18l-.62.34c5.16,4.24,9.81,9.49,15.62,12.47,7.81,4,16.52,6.25,24.85,9.25-7.46-8.11-14.8-16.34-22.5-24.21-1.13-1.15-4-.62-6-.86l.17.21-8.7-8.25,0,.33c-.75-2.48-.69-5.93-2.35-7.29-17.53-14.38-38.9-13.37-59.75-14.31l16.7-8.42,16.81-3.84,12.42-.2,42.59,11.27s.41.13.4.14c3.51,9.5-9,23.57,8.27,29.14l-.8.48,4.39,4.37-.3-.27Z"/><path class="cls-9" d="M957.85,1553.23c-15.65-13.08-22.9-30.31-24.75-50.19,7.41,9.31,14.23,19.2,22.45,27.75,5.53,5.75,13.2,9.39,19.54,14.44,1.89,1.51,3.82,4.77,3.52,6.91-.82,5.67-2.84,11.16-4.39,16.72-3.06-1-7.06-1.2-9-3.29C962.07,1562.1,960.24,1557.41,957.85,1553.23Z"/><path class="cls-5" d="M1071.53,1589.64l-72.1-20.35,12.62-4.37,62.29,14v-.33l8.69,8.25-.17-.21-11.94,3.35Z"/><path class="cls-7" d="M1074.34,1578.92l-62.29-14-5.28-5.81,5.47-1.79c20.85.94,42.22-.07,59.75,14.31C1073.65,1573,1073.59,1576.44,1074.34,1578.92Z"/><path class="cls-9" d="M945.61,1561.59c-3.7-4.09-7.43-8.14-10.9-12.4a48.4,48.4,0,0,1,3.72-3.69l7.2,7.68C945.62,1556,945.61,1558.79,945.61,1561.59Z"/><path class="cls-5" d="M923.52,1504.1l10.24,25.36-3,1.47L897,1487.2c4.73.33,9,.62,13.31.94l1.32-1.31,4.36,4.31-.19-.14,4.33,4.34-.44-.12q2.28,4.18,4.55,8.38Z"/><path class="cls-7" d="M941.53,1636.5q8.19,4.26,16.37,8.53Q949.73,1640.76,941.53,1636.5Z"/><path class="cls-7" d="M879.23,1611.46q-6.94-16.39-13.9-32.8C873.05,1588.28,887.38,1595.11,879.23,1611.46Z"/><path class="cls-7" d="M836.71,1553.72l-13-12.09Q830.21,1547.69,836.71,1553.72Z"/><path class="cls-7" d="M865,1579.4c-2.72-2.79-5.43-5.58-8.16-8.36C859.56,1573.84,862.29,1576.62,865,1579.4Z"/><path class="cls-7" d="M807.84,1532.61l-8.57-4.35Z"/><path class="cls-7" d="M857.47,1570.72l-8.3-4.77Z"/><path class="cls-7" d="M824.21,1541.39l-8.42-4.5Z"/><path class="cls-7" d="M816.06,1537q-4.21-2.28-8.44-4.55Q811.85,1534.75,816.06,1537Z"/><path class="cls-7" d="M845,1558.18c-2.79-1.55-5.59-3.11-8.39-4.65Z"/><path class="cls-7" d="M849.33,1566.11l-4.77-8.3C846.14,1560.58,847.74,1563.34,849.33,1566.11Z"/><path class="cls-5" d="M1012.27,1732.53l-3-1c.22-.63.45-1.26.68-1.89l2.36,2.82Z"/><path class="cls-7" d="M928.82,1707.7l-22-16.63,21.85,4Q928.77,1701.4,928.82,1707.7Z"/><path class="cls-7" d="M874.2,1666.15l25.44,3.82q1.92,9.21,3.85,18.41Z"/><path class="cls-9" d="M606.68,1903.63c-8,2.52-16.21,7.45-24.1,7a161.82,161.82,0,0,1-42.54-7.94c-6.1-2-10-10.7-14.86-16.35,6.35-1.55,13.15-5.38,19-4.25,20.27,3.94,40.21,9.6,60.28,14.6C605.19,1899,605.93,1901.33,606.68,1903.63Z"/><path class="cls-7" d="M369.94,1828.44l-2,5.42q-1.12-2.65-2.23-5.32l.23-.2c1.35.06,2.7.09,4.05.1Z"/><path class="cls-6" d="M370,1828.44c-1.35,0-2.7,0-4.05-.1Z"/><path class="cls-7" d="M924.21,1503.6q-2.26-4.2-4.55-8.38Z"/><path class="cls-6" d="M932.83,1486.56c-1-1.47-2-2.93-2.9-4.45a11.47,11.47,0,0,1,1.42-1.11l1.89,5.21Z"/><path class="cls-7" d="M920.1,1495.34l-4.33-4.34Z"/><path class="cls-7" d="M916,1491.14l-4.36-4.31Z"/><path class="cls-7" d="M1100.76,1556.13l-42.59-11.27,4.27-8.3Z"/><path class="cls-7" d="M1109.43,1585.41c-17.3-5.57-4.76-19.64-8.27-29.14C1118.74,1561.78,1107.89,1575.35,1109.43,1585.41Z"/><path class="cls-7" d="M1121.57,1594.66l-8.85-4.67Z"/><path class="cls-7" d="M1113,1590.26l-4.39-4.37Z"/><path class="cls-7" d="M616.13,1736.38l-25.63-24.31,25.55,16.4C616.08,1731.11,616.1,1733.75,616.13,1736.38Z"/><path class="cls-6" d="M616.13,1736.38c0-2.63,0-5.27-.08-7.91l8,17Z"/><path class="cls-7" d="M590.54,1712.4,578,1703.76Z"/><path class="cls-6" d="M1070.91,1590l11.94-3.35c2.05.24,4.9-.29,6,.86,7.7,7.87,15,16.1,22.5,24.21-8.33-3-17-5.25-24.85-9.25C1080.72,1599.47,1076.07,1594.22,1070.91,1590Z"/><path class="cls-7" d="M1083,1586.84l-8.69-8.25Z"/></g></g></svg>