<?xml version="1.0" encoding="utf-8"?>
<!-- Generator: Adobe Illustrator 21.0.0, SVG Export Plug-In . SVG Version: 6.00 Build 0)  -->
<svg version="1.1" id="Réteg_2" xmlns="http://www.w3.org/2000/svg" xmlns:xlink="http://www.w3.org/1999/xlink" x="0px" y="0px"
	 viewBox="0 0 1200 900" enable-background="new 0 0 1200 900" xml:space="preserve">
<g>
	<path fill="#19783D" d="M763.9,476.8c-1.4-7.1-3.2-14.3-5.4-21.2c-1.8-5.7-3.8-11.1-5.7-16.4c-1.9-5-3.8-10.3-5.3-15.2
		c-2.9-9.3-4.9-19.6-6.9-29.6c-3.6-18-7.2-36.7-16-54.8c-1.8-3.7-4.5-8.6-8.7-13c-3.5-3.6-7.5-6.6-11.1-9.2c-1.8-1.3-4.3-3.2-5.1-4
		c-4.5-4.5-13.4-11.9-27.4-16.7L673,279c0.3-6.4,0.4-13.2-0.7-20.7c-0.1-0.9-0.3-2.4-0.5-4c-0.8-7-2-16.6-4.9-23.8
		c-0.4-0.9-0.7-1.8-1.1-2.7c-7.3-18.1-12.7-26.9-36.9-41.6c-9-5.5-19.7-8.4-30.9-8.4c-15.4,0-31.4,5.6-43.9,15.4
		c-17.1,13.4-28.7,34.4-32.8,59.1c-2.7,16.4-2.1,32.1-0.1,49.9c-19.5,9.2-38.6,21-51.5,40.4c-5.9,8.9-10.5,19.4-14.2,32.8
		c-5.5,19.8-8,40.1-7.4,60.6c-0.5,0.8-1,1.8-1.6,2.8c-4.4,8.7-4.3,17.2-4.2,22.9c0,1.1,0,2.1,0,2.9c-0.1,4.3-1.6,9.7-3.2,15.5
		c-2.3,8.4-5.2,18.9-4.7,30.4c0.7,17.4,8.6,31.6,14.9,43.1l20.4,37c0.3,0.5,0.6,1.1,0.9,1.7c-1.4,0.7-2.3,2.2-2.3,3.8v11.7v98.5v6.1
		c0,5.5,4.4,9.9,9.9,9.9h6.1h224h6.1c5.5,0,9.9-4.4,9.9-9.9v-6.1v-98.5v-11.5c1.6-2.1,3.1-4.3,4.4-6.4
		C746.1,562.3,772.3,520.6,763.9,476.8z M718.7,583.5c-1.8,2.8-3.7,5.7-6,8.2c-2.1,2.3-4.5,4.4-7.3,6l-2.6,1.9c0,0,0,0-0.1,0.1
		c-1.6,1.2-3.1,2.6-4.4,4.1h13.6v4.1v97.6c0,2.6-2,4.7-4.5,4.7H485.6c-2.5,0-4.5-2.1-4.5-4.7v-97c0-1,0.3-1.9,0.8-2.7
		c0.8-1.2,2.1-2,3.7-2h12.2c-1-1.2-1.8-2.5-2.6-3.9c-0.1,0-0.2-0.1-0.3-0.1c-4.3-1.8-7.6-4.9-10-8c-2.1-2.7-3.6-5.4-4.5-7l-20.4-37
		c-6-10.9-12.8-23.2-13.4-37.8c-0.4-9.6,2.1-18.7,4.3-26.7c1.8-6.4,3.4-12.5,3.6-18.3c0-1.1,0-2.2,0-3.4c-0.1-5-0.1-11.2,2.9-17.3
		c0.7-1.4,1.4-2.5,2.1-3.5c0.3-0.4,0.7-1.1,0.9-1.4c0-0.5,0-1.6,0-2.3l0-0.2c-0.7-19.7,1.6-39.3,6.9-58.2
		c3.4-12.2,7.4-21.5,12.7-29.4c13-19.6,33.7-30.6,54.5-39.8c-2.8-20.4-4-37.7-1.1-55.2c3.6-21.8,13.7-40.1,28.4-51.6
		c10.4-8.1,23.7-12.8,36.5-12.8c9,0,17.5,2.3,24.6,6.7c22.3,13.6,25.8,20.4,32,35.9c0.4,0.9,0.7,1.8,1.1,2.7
		c2.3,5.7,3.3,14.3,4.1,20.7c0.2,1.8,0.4,3.3,0.6,4.4c1,6.4,0.8,12.6,0.6,18.4l-1.1,27.1c17.1,3.6,27.4,12.3,31.2,16.2
		c1.5,1.5,4,3.4,6.5,5.2c3.3,2.5,6.8,5,9.5,7.9c3,3.2,5,6.8,6.5,9.9c8.1,16.7,11.6,34.5,15.1,51.8c2,10.3,4.1,21,7.2,30.8
		c1.6,5.3,3.6,10.6,5.5,15.8c1.9,5.1,3.9,10.4,5.6,15.9c2,6.5,3.7,13.2,5,19.9C759.6,518.3,735,557.5,718.7,583.5z"/>
	<g>
		<path fill="#6AA74E" d="M752.1,479.1c-1.3-6.7-3-13.4-5-19.9c-1.7-5.4-3.7-10.7-5.6-15.9c-1.9-5.2-3.9-10.6-5.5-15.8
			c-3-9.9-5.1-20.5-7.2-30.8c-3.4-17.3-6.9-35.2-15.1-51.8c-1.5-3.1-3.5-6.8-6.5-9.9c-2.8-2.9-6.2-5.4-9.5-7.9
			c-2.5-1.8-5-3.7-6.5-5.2c-3.9-3.9-14.1-12.6-31.2-16.2l1.1-27.1c0.2-5.8,0.4-12-0.6-18.4c-0.2-1.1-0.3-2.6-0.6-4.4
			c-0.7-6.3-1.8-15-4.1-20.7c-0.4-0.9-0.8-1.9-1.1-2.7c-6.2-15.5-9.7-22.3-32-35.9c-7.2-4.4-15.7-6.7-24.6-6.7
			c-12.8,0-26.1,4.7-36.5,12.8c-14.7,11.5-24.8,29.9-28.4,51.6c-2.9,17.5-1.7,34.8,1.1,55.2c-20.8,9.2-41.5,20.2-54.5,39.8
			c-5.2,7.9-9.3,17.2-12.7,29.4c-5.3,19-7.6,38.5-6.9,58.2l0,0.2c0,0.7,0.1,1.8,0,2.3c-0.2,0.3-0.6,1-0.9,1.4
			c-0.6,1-1.4,2.1-2.1,3.5c-3.1,6.1-3,12.3-2.9,17.3c0,1.2,0,2.3,0,3.4c-0.2,5.8-1.8,11.9-3.6,18.3c-2.2,8-4.7,17.1-4.3,26.7
			c0.6,14.6,7.4,26.9,13.4,37.8l20.4,37c0.9,1.6,2.3,4.2,4.5,7c2.4,3.1,5.7,6.2,10,8c0.1,0,0.2,0.1,0.3,0.1c0.7,1.4,1.6,2.7,2.6,3.9
			h-12.2c-1.5,0-2.9,0.8-3.7,2c-0.5,0.8-0.8,1.7-0.8,2.7v97c0,2.6,2,4.7,4.5,4.7h221.8c2.5,0,4.5-2.1,4.5-4.7v-97.6v-4.1h-13.6
			c1.3-1.5,2.8-2.9,4.4-4.1c0,0,0,0,0.1-0.1l2.6-1.9c2.8-1.6,5.2-3.7,7.3-6c2.3-2.5,4.2-5.4,6-8.2
			C735,557.5,759.6,518.3,752.1,479.1z M712.8,579.8c-2.8,4.4-6.1,9.2-11,11.9c-0.6,0.3-1.2,0.7-1.9,0.9l-0.1,0.5l-1.2,0.9
			c-2.2,1.6-4.3,3.6-6.1,5.7c-1,1.2-2,2.5-2.8,3.8c0,0.1-0.1,0.2-0.2,0.3c-0.6,1-1.8,2.6-4,3c-1.5,0.3-2.7-0.2-3.5-0.5
			c-7-2.6-14.7-1.6-22.8-0.5c-1.9,0.2-3.8,0.5-5.6,0.7c-8.2,0.9-16.5,0.9-24.7-0.1c-1.2-0.1-2.3-0.3-3.5-0.4
			c-2.1-0.3-4.1-0.5-6.2-0.7c-4.3-0.3-8.7-0.2-13,0c-2.5,0.1-5,0.1-7.4,0.1c-3.7,0-7.2,0-10.7,0.3c-1.3,0.1-2.8,0.3-4.3,0.4
			c-7.2,0.8-15.4,1.6-23.2,1.6c-8.1,0-15.6-1-20.9-3.9c-1.4-0.8-2.6-1.7-3.7-2.8c-0.6,0.3-1.1,0.6-1.7,0.8c-1.4,0.7-2.9,1.3-4.4,2
			c-3.7,1.5-7.8,2.6-11.9,2.6c-2.2,0-4.3-0.3-6.5-1.1c-1.2-0.4-2.3-0.9-3.3-1.6c-1.8-1.1-3.4-2.5-4.7-4.1c-1.4-1.7-2.5-3.6-3.2-5.7
			c-2.1-0.3-3.9-1.2-5.5-2.3c-4.2-3-6.9-7.8-8.3-10.3l-20.4-37c-5.6-10.2-12-21.8-12.5-34.7c-0.4-8.5,1.9-16.7,4-24.6
			c1.9-6.9,3.6-13.3,3.8-20c0-1.2,0-2.4,0-3.7c-0.1-4.5-0.1-9.5,2.2-14.1c0.5-1,1.1-1.9,1.7-2.8c0.7-1.1,1.4-2.1,1.7-3.1
			c0.4-1.3,0.4-3,0.3-4.7l0-0.2c-0.7-18.9,1.5-37.8,6.6-56.1c3.2-11.4,6.9-20.1,11.7-27.4c13.5-20.2,36.9-31,56.5-39.5
			c-0.4-1.7-0.7-3.4-0.9-4.9c-2.7-19.9-3.9-36.6-1.1-53.3c3.3-20,12.5-36.8,25.8-47.3c9.2-7.2,20.9-11.3,32.2-11.3
			c7.7,0,14.9,2,21,5.6c21.2,13,23.6,18.7,29.2,32.5c0.4,0.9,0.7,1.8,1.1,2.8c2,4.8,2.9,12.9,3.6,18.8c0.2,1.8,0.4,3.4,0.6,4.6
			c0.9,5.8,0.7,11.6,0.5,17.1l-1.1,28.4c-0.1,1.4-0.1,3.1-0.4,4.9c18.8,2.3,29.7,11.3,33.7,15.3c1.9,1.9,4.6,3.9,7.3,5.9
			c3.1,2.3,6.3,4.6,8.6,7.1c2.4,2.5,3.9,5.4,5.3,8.1c7.7,15.8,11.2,33.2,14.5,50.1c2.1,10.5,4.2,21.3,7.3,31.5
			c1.7,5.4,3.7,10.9,5.7,16.2c1.9,5,3.8,10.3,5.4,15.5c2,6.3,3.6,12.7,4.8,19.1C752.2,516.9,728.5,554.7,712.8,579.8z"/>
		<path fill="#6AA74E" d="M695.5,593.8c0.4,0,0.8,0,1.2-0.1l0,0C696.3,593.7,695.9,593.8,695.5,593.8z"/>
		<path fill="#6AA74E" d="M576.9,332.3c-2.3-0.9-4.5-1.7-6.7-2.3c-1.9-0.5-4-0.9-6.1-1.3c-6.9-1.3-14.6-2.7-19-8.7
			c-12.9,5.5-27.4,12.1-39.2,21.5c1.8,2.9,4.2,5.5,6.7,8.3c2.5,2.8,5.2,5.7,7.3,9c9,13.9,7.2,31.5,4.6,45.3l-0.4,2.1
			c-0.8,4.2-1.5,8.1-1.7,12.1c-0.2,5.2,0.7,10.4,1.6,15.9c0.7,4.2,1.4,8.6,1.6,13.1c0.5,11.1-2.1,21.9-4.6,32.5
			c-3.2,13.2-6.2,25.6-3.3,37.8c2,8.3,6.4,15.6,11.2,23.5c1.6,2.7,3.3,5.4,4.8,8.1c0.6-0.6,1.2-1.2,1.7-1.8c1.5-1.6,3-3.1,4.7-4.9
			c1-1,2.1-2.2,3.5-3.2c4.4-3.1,9.7-3.3,13.9-3.6l26.4-1.4c2.5-0.1,4.9,0.8,6.7,2.6c1.8,1.8,2.7,4.2,2.5,6.7l-0.7,10.3
			c-0.3,4.4-0.1,8.5,0.1,13c0.1,2.9,0.2,5.9,0.2,9c0,0.2,0.1,0.6,0.1,0.9c0.3,1.4,0.9,4.8-2.4,7c-1.1,0.7-2.5,1.2-4,1.2
			c-5.5,0.2-10.7,0.4-15.9,0.5c-5.2,0.2-10.4,0.4-15.9,0.5c-1.3,0-2.7,0.1-4.2,0.1c-2.7,0-5.5-0.2-8.3-0.7c0.1,0.3,0.1,0.6,0.2,0.9
			c4.6,1.5,9.4,2.4,14.2,2.4c2.4,0,4.8-0.1,7.2-0.2l31-1.7V336.4c-4.1-0.2-8-0.8-11.7-1.9C581.1,333.9,579,333.1,576.9,332.3z"/>
		<path fill="#6AA74E" d="M554.7,579.5c5.5-0.2,10.7-0.4,15.9-0.5c5.1-0.2,10.2-0.4,15.6-0.5c-0.1-0.6-0.3-1.4-0.3-2.2
			c0-3-0.1-5.9-0.2-8.8c-0.2-4.6-0.4-9-0.1-13.7l0.7-10.3c0-0.7-0.3-1.2-0.5-1.4c-0.2-0.2-0.7-0.6-1.4-0.5l-26.4,1.4
			c-4.3,0.2-7.7,0.5-10.2,2.3c-0.9,0.6-1.7,1.4-2.6,2.3c-1.7,1.8-3.2,3.3-4.7,4.8c-1,1.1-2.2,2.2-3.4,3.5c2,4.4,3.6,8.9,4.4,13.8
			c0.4,2.2,0.6,5.4-1.2,8.1C544.2,579.6,549.2,579.7,554.7,579.5z"/>
		<path fill="#6AA74E" d="M532.4,582.8l-21.2,8.9l-1.1,0.5c-0.8,0.3-1.7,0.7-2.6,1c1.3,2.5,3.6,4.6,6.3,5.5c5.5,1.9,12-0.6,17.5-3.2
			c1.5-0.7,2.9-1.4,4.4-2.2c0.1-0.5,0.1-1.1,0.1-1.6c0.1-2.1,0-3.9-0.7-5.4C534.6,585,533.5,583.9,532.4,582.8z"/>
		<path fill="#6AA74E" d="M649.1,541.4c-0.3-0.6-0.9-0.9-1.6-0.9l-26.1-0.1c0,0,0,0,0,0c-2.2,0-5.7,0.3-7.6,0.8
			c-1.1,0.3-2.1,0.3-3,0.3c-0.6,3.4-0.7,6.9-0.4,10.4l0,0.2l-0.1,2.9l0,25.3c2.3,0.5,5.2,0.5,8.8,0.3l28.7-1.1
			c3.2-0.1,6.5-0.3,9.2-1.4c0.4-0.2,0.6-0.3,0.8-0.5c-0.9-1.7-1.2-3.4-1.2-5.1c-0.3-3,0.3-6.4,2-10.1c0.4-1,0.9-1.9,1.3-2.9
			c0.7-1.5,1.4-2.9,1.9-4.3C656.5,551.7,652.1,547,649.1,541.4z"/>
		<path fill="#6AA74E" d="M677.3,588.5c-2.8-1.5-5.5-2.9-8.2-3.8c-0.5-0.2-1.1-0.4-1.7-0.5c-1.3-0.4-2.7-0.9-4.1-1.5
			c-0.5,0.8-0.9,2-1.1,3.5c-0.2,0.9-0.3,2.2-0.2,3.2c0.1,0.8,0.5,1.6,1,2.4c0.5,0.8,1.2,1.5,2.1,2.2c1.8,1.5,4.1,2.5,6.5,3.6
			l-0.1,0.2c4.2,0,8.4,0.4,12.5,1.9c1.4-2.2,3.1-4.3,4.9-6.2c-1.7-0.4-3.3-1-4.9-1.6C681.6,590.8,679.4,589.6,677.3,588.5z"/>
		<path fill="#6AA74E" d="M703.6,499.3l-11.2,2c4.8,1.2,10.7-0.2,16.1-2c0,0-0.1-0.1-0.1-0.1C707.3,498.7,705.5,499,703.6,499.3z"/>
		<path fill="#6AA74E" d="M619.4,587.6c-1.4,0.1-2.7,0.1-4,0.1c-2.7,0-6.3-0.2-9.8-1.5l-2.3-0.9l0.1-33c-0.4-4.5-0.2-9,0.7-13.5
			c0.6-2.9,2.7-4.4,6.2-4.4h0.4c0.4,0,0.9,0,1.2-0.1c2.6-0.7,6.7-1.1,9.4-1.1h0.1l26.1,0.1c3.2,0,6.2,1.8,7.7,4.6
			c2.4,4.3,5.8,8.1,9.8,11c0.7-1.4,1.3-2.8,2-4.2c6.3-13.4,12.3-26,13.4-40l0-0.1c0.1-0.9,0.1-1.9,0.4-2.9c-5.2-6.4-6-15.9-6-24.7
			l0-42.8l4,0c-0.1-5.6-0.7-11.1-2.1-16.4c-1.7-6.4-2.6-13.1-2.7-19.7l4.3-0.2l-7,0.3c-0.1-3.1-0.3-6.2-0.4-9.3
			c-0.4-10-1-23.7,5.7-34.5c1.1-1.8,2.4-3.5,3.7-5.1c0.7-0.9,1.4-1.8,2.1-2.7c2.1-2.9,3.7-6.6,5-9.9c-2.2-1.6-4.3-3.3-6-5
			c-7.4-7.4-19-12.3-31.4-13.5c-0.1,0.2-0.3,0.4-0.5,0.6c-2.1,2.5-5,3.8-7.4,4.9c-13.4,6-26.6,11.4-40.1,12.5v251.6
			c6.4,2,13.5,1.6,21,1.1c3.1-0.2,6.4-0.4,9.6-0.4c2.8,0,5.6,0.1,8.3,0.3c4.9,0.2,9.6,0.5,14.1-0.1c0-1,0.1-1.9,0.2-2.7
			c-2.4,0.5-4.9,0.5-7.1,0.6L619.4,587.6z M629.5,350.1h36.1l-9.2,17.7h6.4l-9.2,16.3h10.7l-28.7,28.7l-24-30h12.3l2.3-3.7h-14.6
			L629.5,350.1z"/>
	</g>
	<g>
		<path fill="#95B478" d="M550.1,314.9c2.6,4.5,8.8,5.7,15.3,6.9c-14.5-19.4-14.2-46.4-8.8-65.4c4.3-15.1,11.3-26.5,20.9-33.6
			c12.2-9.1,28.4-10.4,39.6-3c4.5,3,8.5,7.5,12.1,13.7c15.5,26.5,13.4,63.1-4,89.6c4.6-1.8,9.3-3.8,14-5.9c1.9-0.8,3.8-1.7,4.9-3
			c1.5-1.8,1.7-4.7,1.9-8l1.1-28.4c0.2-5.1,0.3-10.6-0.5-15.8c-0.2-1.3-0.4-2.9-0.6-4.8c-0.7-5.5-1.5-13.1-3.1-17
			c-0.4-1-0.8-1.9-1.1-2.8c-5.3-13-7-17.4-26.3-29.2c-5-3-11-4.6-17.3-4.6c-9.7,0-19.9,3.6-27.8,9.8c-11.9,9.4-20.2,24.6-23.2,42.9
			c-2.6,15.9-1.4,32,1.2,51.3C548.5,310.2,548.9,312.9,550.1,314.9z"/>
		<path fill="#95B478" d="M625,309c-15.2-2.1-31.7-2.2-49.1-0.5l-9.8,1c2.7,5.7,6.5,11,11.6,15.4l-0.1,0.1c0.6,0.2,1.2,0.5,1.9,0.7
			c2,0.8,3.9,1.5,5.8,2c3.7,1.1,7.7,1.6,11.9,1.6c5.4,0,10.9-0.9,16.4-2.4C618.2,321.7,622,315.6,625,309z"/>
		<path fill="#95B478" d="M623.2,237.1c-3.1-5.3-6.4-9-10-11.4c-9.7-6.5-23.2-3.5-31.5,2.7c-8.3,6.2-14.5,16.3-18.4,30
			c-3.6,12.8-4.8,29.5,0,44.4l11.8-1.2c18.7-1.9,36.3-1.6,52.5,0.7C635.2,280.8,634.1,255.8,623.2,237.1z"/>
		<path fill="#95B478" d="M523,544.8c-4.8-7.9-9.8-16.1-12-25.5c-0.3-1.4-0.6-2.9-0.8-4.3l-6.4-1.9c-2.4-0.7-4.9-1.4-7.3-1.6
			c-5.9-0.5-12.2,2.5-15.5,7.5l-4.1-2.8c4.4-6.5,12.2-10.3,20.1-9.7c2.9,0.2,5.7,1,8.3,1.8l4.5,1.3c-0.4-10.6,2.1-21.2,4.6-31.4
			c2.4-10.1,4.9-20.5,4.4-30.5c-0.2-4.1-0.9-8.1-1.6-12.3c-0.9-5.6-1.9-11.4-1.7-17.3c0.2-4.5,1-8.9,1.8-13.2l0.4-2
			c2.3-12.5,4-28.4-3.6-40.3c-1.8-2.9-4.1-5.4-6.6-8.1c-2.4-2.6-4.8-5.3-6.9-8.3c-3.4,3.3-6.5,6.8-9.1,10.8
			c-4.4,6.6-7.8,14.7-10.8,25.4c-4.9,17.6-7.1,35.7-6.4,53.9l0,0.2c0.1,2.2,0.2,4.6-0.6,7.1c-0.6,1.9-1.6,3.4-2.5,4.8
			c-0.5,0.8-0.9,1.5-1.3,2.2c-1.5,3-1.5,6.8-1.4,10.8c0,1.3,0,2.6,0,3.9c-0.2,7.5-2.2,14.7-4.1,21.6c-2.1,7.7-4.1,15-3.8,22.4
			c0.5,11.3,6.4,22.1,11.7,31.6l20.4,37c2.2,4,5.2,8.6,8.9,9.2c0.1,0,0.2-0.1,0.3-0.1c0.5-0.1,1-0.1,1.5,0c1.3-0.2,2.7-0.8,4.1-1.4
			l24.7-10.4c0.8-0.4,2-0.8,2.4-1.3c0.2-0.3,0.5-1.2,0.1-3.2C533.2,561.5,528.2,553.4,523,544.8z M466.1,508.3l-1.6-4.7
			c8.4-2.8,16.6-6.6,24.2-11.2l2.6,4.3C483.4,501.5,474.9,505.4,466.1,508.3z"/>
		<path fill="#95B478" d="M557.8,596.2c-0.4,0-0.7,0-1.1,0c-4.8-0.1-9.5-0.8-14-2.1c-0.1,0.7-0.2,1.3-0.3,2l-0.2,1.1
			c1.7,1.2,4,2,6.8,2.6c7.9,1.6,19.2,0.9,28.2,0c2.1-0.2,4.1-0.4,5.9-0.6c1.5-0.2,3-0.3,4.3-0.4c2.5-0.3,5.1-0.3,7.6-0.3v-4
			l-30.6,1.7C562.3,596.1,560,596.2,557.8,596.2z"/>
		<path fill="#95B478" d="M657,595.3c-5.5,0.9-11.1,0.6-16.5,0.4c-2.6-0.1-5.3-0.3-7.9-0.3c-3,0-6.1,0.2-9.2,0.4
			c-3.3,0.2-6.6,0.4-10,0.4c-3.8,0-7.7-0.3-11.5-1.2v3.3c1.3,0,2.6,0,3.9-0.1c4.5-0.2,9.2-0.4,13.9,0c2.2,0.2,4.4,0.5,6.6,0.7
			c1.1,0.1,2.2,0.3,3.4,0.4c0.8,0.1,1.7,0.2,2.5,0.3c6.3,0.6,12.6,0.6,18.9,0c0.6-0.1,1.2-0.1,1.7-0.2c1.8-0.2,3.6-0.4,5.5-0.7
			c0.5-0.1,1-0.1,1.5-0.2C658.7,597.7,657.7,596.5,657,595.3z"/>
		<path fill="#95B478" d="M738.3,481.7c-1.2-6.2-2.7-12.3-4.6-18.3c-1.6-5.1-3.5-10.2-5.3-15.2c-2-5.4-4-11-5.8-16.6
			c-3.3-10.6-5.4-21.6-7.5-32.3c-3.2-16.4-6.6-33.4-13.9-48.4c-1.1-2.3-2.4-4.6-4.1-6.4c-1.1-1.1-2.5-2.3-4-3.5
			c-1.3,3.3-3,6.8-5.1,9.6c-0.7,1-1.5,2-2.2,2.9c-1.2,1.5-2.3,3-3.3,4.5c-5.1,8.3-5.1,18.7-4.6,30.5c0.1,3.1,0.3,6.2,0.4,9.3
			l-4.3,0.2c0.1,6.6,1,13.3,2.7,19.7c1.4,5.4,2,10.9,2.1,16.4l3,0l0,42.8c0,6.8,0.5,14,3.4,18.9c1.4-0.7,2.9-0.9,3.9-1.1l13.2-2.4
			c2.4-0.4,6-1.1,9.3,0.6c2.2,1.2,3.9,3.6,4.1,6.1c0.2,2.2-0.6,4.3-2.2,5.6l-0.5,0.4l-0.6,0.2c-8.1,2.8-17.3,5.3-25.3,1.5
			c-1.4,14.6-7.8,28-13.9,40.9c-3,6.4-6.1,12.9-8.6,19.5c-0.5,1.4-1.1,3.3-1.2,4.9c0.1,0.3,0.1,0.7,0.3,1c0.1,0.2,0.2,0.4,0.3,0.6
			c0.2,0.5,0.4,1,0.6,1.6c1.1,0.9,2.9,1.5,4.8,2.1c0.6,0.2,1.2,0.4,1.8,0.6c3.2,1.1,6.2,2.7,9.2,4.3c5.5,2.9,10.7,5.7,15.6,4.3
			c4.6-1.3,7.9-6.1,10.7-10.5C722,551.9,744.8,515.5,738.3,481.7z"/>
	</g>
	<polygon fill="#DADC35" points="638.7,372.1 627.8,389.7 626.1,389.7 636.2,402.3 647.4,391.1 641.6,391.1 650.8,374.7 
		644.8,374.7 654.1,357.1 633.4,357.1 624.1,372.1 	"/>
	<g>
		<path d="M488.7,492.4c-7.6,4.6-15.8,8.4-24.2,11.2l1.6,4.7c8.8-2.9,17.3-6.8,25.2-11.6L488.7,492.4z"/>
		<path d="M745.2,480.4c-1.2-6.4-2.9-12.9-4.8-19.1c-1.7-5.3-3.6-10.5-5.4-15.5c-2-5.3-4-10.8-5.7-16.2c-3.1-10.2-5.3-21.1-7.3-31.5
			c-3.3-16.8-6.7-34.3-14.5-50.1c-1.4-2.8-2.9-5.7-5.3-8.1c-2.3-2.4-5.5-4.8-8.6-7.1c-2.7-2-5.4-4-7.3-5.9c-4-4-15-13-33.7-15.3
			c0.3-1.8,0.4-3.5,0.4-4.9l1.1-28.4c0.2-5.5,0.4-11.3-0.5-17.1c-0.2-1.2-0.4-2.8-0.6-4.6c-0.7-5.9-1.7-14-3.6-18.8
			c-0.4-1-0.8-1.9-1.1-2.8c-5.6-13.9-7.9-19.6-29.2-32.5c-6.1-3.7-13.3-5.6-21-5.6c-11.3,0-23,4.1-32.2,11.3
			c-13.3,10.4-22.5,27.2-25.8,47.3c-2.8,16.7-1.5,33.4,1.1,53.3c0.2,1.5,0.4,3.2,0.9,4.9c-19.7,8.5-43.1,19.2-56.5,39.5
			c-4.8,7.2-8.5,15.9-11.7,27.4c-5.1,18.3-7.3,37.1-6.6,56.1l0,0.2c0.1,1.7,0.1,3.4-0.3,4.7c-0.3,1-1,2-1.7,3.1
			c-0.6,0.9-1.2,1.8-1.7,2.8c-2.3,4.6-2.2,9.6-2.2,14.1c0,1.3,0,2.5,0,3.7c-0.2,6.6-2,13.1-3.8,20c-2.2,7.9-4.4,16.1-4,24.6
			c0.6,12.9,6.9,24.5,12.5,34.7l20.4,37c1.4,2.6,4.1,7.4,8.3,10.3c1.6,1.1,3.4,2,5.5,2.3c0.7,2.1,1.8,4,3.2,5.7
			c1.3,1.6,2.9,3,4.7,4.1c1,0.6,2.2,1.2,3.3,1.6c2.1,0.7,4.3,1.1,6.5,1.1c4.1,0,8.2-1.2,11.9-2.6c1.6-0.6,3.1-1.3,4.4-2
			c0.6-0.3,1.1-0.5,1.7-0.8c1.1,1.1,2.3,2,3.7,2.8c5.3,3,12.8,3.9,20.9,3.9c7.8,0,16-0.9,23.2-1.6c1.5-0.2,2.9-0.3,4.3-0.4
			c3.4-0.3,6.9-0.3,10.7-0.3c2.4,0,4.9,0,7.4-0.1c4.3-0.2,8.8-0.3,13,0c2,0.2,4,0.4,6.2,0.7c1.2,0.2,2.3,0.3,3.5,0.4
			c8.2,1,16.5,1,24.7,0.1c1.9-0.2,3.7-0.4,5.6-0.7c8.1-1.1,15.8-2.1,22.8,0.5c0.7,0.3,2,0.7,3.5,0.5c2.2-0.4,3.4-2,4-3
			c0.1-0.1,0.1-0.2,0.2-0.3c0.8-1.3,1.8-2.6,2.8-3.8c1.8-2.1,3.9-4.1,6.1-5.7l1.2-0.9l0.1-0.5c0.7-0.3,1.3-0.6,1.9-0.9
			c4.9-2.7,8.2-7.5,11-11.9C728.5,554.7,752.2,516.9,745.2,480.4z M547,256.5c3-18.3,11.3-33.5,23.2-42.9c8-6.3,18.1-9.8,27.8-9.8
			c6.4,0,12.4,1.6,17.3,4.6c19.3,11.8,21,16.1,26.3,29.2c0.4,0.9,0.7,1.8,1.1,2.8c1.6,3.9,2.5,11.5,3.1,17c0.2,1.9,0.4,3.5,0.6,4.8
			c0.8,5.2,0.7,10.7,0.5,15.8l-1.1,28.4c-0.1,3.3-0.4,6.2-1.9,8c-1.1,1.3-3,2.1-4.9,3c-4.7,2.1-9.4,4.1-14,5.9
			c17.4-26.5,19.6-63.2,4-89.6c-3.7-6.2-7.6-10.7-12.1-13.7c-11.2-7.4-27.5-6.2-39.6,3c-9.5,7.2-16.6,18.5-20.9,33.6
			c-5.4,19-5.7,45.9,8.8,65.4c-6.5-1.2-12.7-2.4-15.3-6.9c-1.2-2-1.5-4.8-1.9-7.2C545.6,288.5,544.4,272.4,547,256.5z M610.4,551.9
			c-0.3-3.5-0.2-7,0.4-10.4c0.9,0,1.9,0,3-0.3c1.9-0.5,5.4-0.8,7.6-0.8c0,0,0,0,0,0l26.1,0.1c0.7,0,1.3,0.4,1.6,0.9
			c3.1,5.6,7.4,10.4,12.7,13.9c-0.5,1.4-1.2,2.8-1.9,4.3c-0.5,0.9-0.9,1.9-1.3,2.9c-1.6,3.7-2.3,7.1-2,10.1c0,1.7,0.3,3.5,1.2,5.1
			c-0.2,0.1-0.5,0.3-0.8,0.5c-2.7,1.2-6,1.3-9.2,1.4l-28.7,1.1c-3.6,0.1-6.5,0.1-8.8-0.3l0-25.3l0.1-2.9L610.4,551.9z M585.7,567.5
			c0.1,2.8,0.2,5.7,0.2,8.8c0,0.8,0.1,1.6,0.3,2.2c-5.4,0.2-10.5,0.4-15.6,0.5c-5.2,0.2-10.4,0.4-15.9,0.5
			c-5.5,0.2-10.5,0.1-14.4-1.7c1.8-2.7,1.6-5.9,1.2-8.1c-0.8-4.9-2.4-9.4-4.4-13.8c1.2-1.3,2.3-2.4,3.4-3.5c1.5-1.6,3-3.1,4.7-4.8
			c0.9-0.9,1.7-1.7,2.6-2.3c2.5-1.8,6-2.1,10.2-2.3l26.4-1.4c0.7,0,1.2,0.3,1.4,0.5c0.2,0.2,0.6,0.7,0.5,1.4l-0.7,10.3
			C585.3,558.5,585.5,562.9,585.7,567.5z M566.1,309.6l9.8-1c17.5-1.8,33.9-1.6,49.1,0.5c-3,6.6-6.8,12.7-11.4,18.1
			c-5.5,1.5-10.9,2.4-16.4,2.4c-4.2,0-8.2-0.6-11.9-1.6c-1.9-0.6-3.8-1.3-5.8-2c-0.6-0.2-1.2-0.5-1.9-0.7l0.1-0.1
			C572.6,320.5,568.8,315.2,566.1,309.6z M575.1,301.6l-11.8,1.2c-4.9-14.9-3.7-31.6,0-44.4c3.9-13.6,10.1-23.7,18.4-30
			c8.3-6.2,21.8-9.2,31.5-2.7c3.6,2.4,6.9,6.1,10,11.4c10.9,18.6,12,43.6,4.5,65.2C611.4,300,593.8,299.7,575.1,301.6z M545,320
			c4.5,6,12.2,7.5,19,8.7c2.2,0.4,4.2,0.8,6.1,1.3c2.2,0.6,4.4,1.4,6.7,2.3c2,0.8,4.2,1.6,6.4,2.2c3.7,1.1,7.6,1.7,11.7,1.9v250.9
			l-31,1.7c-2.4,0.1-4.8,0.3-7.2,0.2c-4.8-0.1-9.6-0.9-14.2-2.4c-0.1-0.3-0.1-0.6-0.2-0.9c2.8,0.6,5.7,0.7,8.3,0.7
			c1.5,0,2.9,0,4.2-0.1c5.5-0.2,10.7-0.4,15.9-0.5c5.2-0.2,10.4-0.4,15.9-0.5c1.5,0,2.9-0.5,4-1.2c3.3-2.2,2.6-5.6,2.4-7
			c-0.1-0.3-0.1-0.7-0.1-0.9c0-3.2-0.1-6.2-0.2-9c-0.2-4.4-0.4-8.6-0.1-13l0.7-10.3c0.2-2.5-0.8-5-2.5-6.7c-1.8-1.8-4.2-2.7-6.7-2.6
			l-26.4,1.4c-4.2,0.2-9.5,0.5-13.9,3.6c-1.4,1-2.5,2.1-3.5,3.2c-1.7,1.8-3.2,3.3-4.7,4.9c-0.6,0.6-1.1,1.2-1.7,1.8
			c-1.5-2.8-3.2-5.5-4.8-8.1c-4.8-7.8-9.2-15.2-11.2-23.5c-2.9-12.2,0.1-24.7,3.3-37.8c2.5-10.5,5.2-21.4,4.6-32.5
			c-0.2-4.5-0.9-8.9-1.6-13.1c-0.9-5.5-1.8-10.7-1.6-15.9c0.1-4,0.9-8,1.7-12.1l0.4-2.1c2.6-13.8,4.3-31.4-4.6-45.3
			c-2.1-3.3-4.8-6.2-7.3-9c-2.5-2.8-4.9-5.4-6.7-8.3C517.7,332.1,532.2,325.5,545,320z M492.6,578l-20.4-37
			c-5.3-9.5-11.2-20.3-11.7-31.6c-0.3-7.4,1.7-14.7,3.8-22.4c1.9-7,3.9-14.1,4.1-21.6c0-1.3,0-2.7,0-3.9c-0.1-4-0.1-7.8,1.4-10.8
			c0.3-0.7,0.8-1.4,1.3-2.2c0.9-1.4,1.9-2.9,2.5-4.8c0.8-2.5,0.7-4.9,0.6-7.1l0-0.2c-0.7-18.2,1.5-36.4,6.4-53.9
			c3-10.7,6.4-18.8,10.8-25.4c2.6-3.9,5.7-7.5,9.1-10.8c2.1,3.1,4.5,5.7,6.9,8.3c2.5,2.7,4.8,5.3,6.6,8.1
			c7.6,11.9,5.9,27.8,3.6,40.3l-0.4,2c-0.8,4.3-1.6,8.7-1.8,13.2c-0.2,5.9,0.8,11.7,1.7,17.3c0.7,4.2,1.4,8.2,1.6,12.3
			c0.5,10.1-2,20.4-4.4,30.5c-2.5,10.3-5,20.8-4.6,31.4l-4.5-1.3c-2.7-0.8-5.4-1.6-8.3-1.8c-7.8-0.6-15.7,3.2-20.1,9.7l4.1,2.8
			c3.3-4.9,9.6-8,15.5-7.5c2.4,0.2,4.9,0.9,7.3,1.6l6.4,1.9c0.2,1.4,0.5,2.9,0.8,4.3c2.2,9.3,7.2,17.5,12,25.5
			c5.2,8.6,10.2,16.7,11.6,26c0.3,2,0.1,2.9-0.1,3.2c-0.4,0.5-1.5,1-2.4,1.3l-24.7,10.4c-1.4,0.6-2.8,1.2-4.1,1.4
			c-0.5-0.1-1-0.1-1.5,0c-0.1,0-0.2,0-0.3,0.1C497.8,586.6,494.8,582,492.6,578z M532.4,582.8c1.2,1.1,2.2,2.3,2.8,3.5
			c0.7,1.5,0.8,3.3,0.7,5.4c0,0.5-0.1,1-0.1,1.6c-1.4,0.8-2.9,1.5-4.4,2.2c-5.6,2.7-12,5.1-17.5,3.2c-2.7-0.9-5-3-6.3-5.5
			c0.9-0.3,1.8-0.7,2.6-1l1.1-0.5L532.4,582.8z M542.3,597.2l0.2-1.1c0.1-0.6,0.2-1.3,0.3-2c4.6,1.3,9.3,2,14,2.1c0.4,0,0.7,0,1.1,0
			c2.2,0,4.5-0.1,6.6-0.2l30.6-1.7v4c-2.5,0-5.1,0.1-7.6,0.3c-1.3,0.1-2.8,0.3-4.3,0.4c-1.8,0.2-3.8,0.4-5.9,0.6
			c-9,0.9-20.2,1.6-28.2,0C546.3,599.2,544,598.4,542.3,597.2z M632.2,599.7c-0.8-0.1-1.7-0.2-2.5-0.3c-1.1-0.1-2.2-0.3-3.4-0.4
			c-2.1-0.3-4.3-0.6-6.6-0.7c-4.7-0.4-9.3-0.2-13.9,0c-1.3,0.1-2.6,0.1-3.9,0.1v-3.3c3.8,0.9,7.6,1.2,11.5,1.2c3.3,0,6.7-0.2,10-0.4
			c3-0.2,6.2-0.4,9.2-0.4c2.6,0,5.3,0.1,7.9,0.3c5.4,0.3,11,0.5,16.5-0.4c0.8,1.2,1.7,2.3,2.9,3.4c-0.5,0.1-1,0.1-1.5,0.2
			c-1.8,0.2-3.7,0.5-5.5,0.7c-0.6,0.1-1.2,0.1-1.7,0.2C644.8,600.3,638.5,600.3,632.2,599.7z M695.5,593.8c0.4,0,0.8-0.1,1.2-0.2
			l0,0C696.4,593.8,695.9,593.8,695.5,593.8z M688.8,593.4c-1.8,1.9-3.4,4-4.9,6.2c-4.1-1.4-8.3-1.9-12.5-1.9l0.1-0.2
			c-2.4-1.1-4.6-2.1-6.5-3.6c-0.9-0.7-1.6-1.4-2.1-2.2c-0.5-0.8-0.9-1.6-1-2.4c-0.2-1,0-2.3,0.2-3.2c0.3-1.5,0.7-2.7,1.1-3.5
			c1.4,0.6,2.8,1.1,4.1,1.5c0.6,0.2,1.1,0.3,1.7,0.5c2.7,0.9,5.3,2.3,8.2,3.8c2.1,1.1,4.3,2.3,6.6,3.3
			C685.5,592.4,687.1,593,688.8,593.4z M706.8,576.1c-2.8,4.4-6.1,9.2-10.7,10.5c-4.9,1.4-10.1-1.4-15.6-4.3c-2.9-1.6-6-3.2-9.2-4.3
			c-0.6-0.2-1.2-0.4-1.8-0.6c-1.9-0.6-3.7-1.2-4.8-2.1c-0.2-0.6-0.4-1.1-0.6-1.6c-0.1-0.2-0.2-0.4-0.3-0.6c-0.1-0.3-0.2-0.6-0.3-1
			c0.1-1.6,0.7-3.4,1.2-4.9c2.4-6.6,5.5-13.1,8.6-19.5c6.1-12.9,12.4-26.3,13.9-40.9c8,3.8,17.2,1.3,25.3-1.5l0.6-0.2l0.5-0.4
			c1.6-1.3,2.4-3.4,2.2-5.6c-0.3-2.6-1.9-5-4.1-6.1c-3.3-1.7-6.9-1.1-9.3-0.6l-13.2,2.4c-1,0.2-2.5,0.4-3.9,1.1
			c-3-4.9-3.5-12.1-3.4-18.9l0-42.8l-3,0l-4,0l0,42.8c0,8.8,0.8,18.3,6,24.7c-0.2,1-0.3,2-0.4,2.9l0,0.1c-1,13.9-7,26.6-13.4,40
			c-0.7,1.4-1.3,2.8-2,4.2c-4-2.8-7.5-6.6-9.8-11c-1.5-2.8-4.5-4.5-7.7-4.6l-26.1-0.1h-0.1c-2.7,0-6.8,0.4-9.4,1.1
			c-0.3,0.1-0.8,0.1-1.2,0.1h-0.4c-3.5,0-5.6,1.5-6.2,4.4c-0.9,4.4-1.1,9-0.7,13.5l-0.1,33l2.3,0.9c3.5,1.3,7.1,1.5,9.8,1.5
			c1.3,0,2.6,0,4-0.1l28.7-1.1c2.2-0.1,4.7-0.2,7.1-0.6c-0.1,0.8-0.2,1.7-0.2,2.7c-4.5,0.6-9.2,0.4-14.1,0.1
			c-2.7-0.1-5.5-0.3-8.3-0.3c-3.2,0-6.5,0.2-9.6,0.4c-7.4,0.5-14.5,0.9-21-1.1V336.2c13.5-1.1,26.6-6.5,40.1-12.5
			c2.3-1,5.2-2.3,7.4-4.9c0.2-0.2,0.3-0.4,0.5-0.6c12.4,1.2,24,6.1,31.4,13.5c1.7,1.7,3.8,3.4,6,5c-1.2,3.3-2.9,7-5,9.9
			c-0.7,0.9-1.4,1.8-2.1,2.7c-1.2,1.6-2.5,3.3-3.7,5.1c-6.7,10.8-6.1,24.5-5.7,34.5c0.1,3.1,0.3,6.2,0.4,9.3l7-0.3
			c-0.1-3.1-0.3-6.2-0.4-9.3c-0.5-11.8-0.5-22.2,4.6-30.5c0.9-1.5,2.1-3,3.3-4.5c0.7-0.9,1.5-1.9,2.2-2.9c2.1-2.9,3.8-6.4,5.1-9.6
			c1.5,1.2,3,2.4,4,3.5c1.7,1.8,3,4.1,4.1,6.4c7.3,15,10.7,32,13.9,48.4c2.1,10.7,4.3,21.7,7.5,32.3c1.7,5.6,3.8,11.2,5.8,16.6
			c1.8,5,3.7,10.1,5.3,15.2c1.9,6,3.4,12.2,4.6,18.3C744.8,515.5,722,551.9,706.8,576.1z M692.4,501.3l11.2-2
			c1.9-0.3,3.7-0.6,4.8-0.1c0,0,0.1,0,0.1,0.1C703,501.1,697.2,502.6,692.4,501.3z"/>
		<path d="M611.5,379.1h14.6l-2.3,3.7h-12.3l24,30l28.7-28.7h-10.7l9.2-16.3h-6.4l9.2-17.7h-36.1L611.5,379.1z M654.1,357.1
			l-9.2,17.7h6l-9.2,16.3h5.8l-11.2,11.2l-10-12.6h1.7l11-17.7h-14.6l9.3-15H654.1z"/>
	</g>
</g>
<g>
	<path fill="#FFFFFF" d="M507.4,637.6h8.4c4,0,7.1-0.9,9.3-2.6c2.1-1.7,3.2-4.3,3.2-7.6c0,0,0-0.1,0-0.1c0-2.1-0.5-3.9-1.6-5.6
		c-1.1-1.7-2.5-2.8-4.4-3.3c-1.8-0.5-4.1-0.8-6.8-0.8H503v4.7v28.5h4.4V637.6z M507.4,621.6h8.3c1.9,0,3.4,0.1,4.4,0.4
		c1,0.3,1.9,0.9,2.5,2c0.7,1,1,2.2,1,3.5c0,0.1,0,0.2,0,0.2c0,1.9-0.6,3.3-1.8,4.4c-1.2,1.1-3.2,1.6-6,1.6h-8.4v-8.9V621.6z"/>
	<path fill="#FFFFFF" d="M548.7,628v16.1c-2,2.6-4.2,3.9-6.6,3.9c-1.6,0-2.8-0.4-3.4-1.3c-0.7-0.9-1-2.3-1-4.2v-15.6h-4.3v15.8
		c0,5.9,2.7,8.9,8.1,8.9c2.7,0,5.1-1.2,7.2-3.6v3.1h4.3v-22.4v-1.7h-4.3V628z"/>
	<polygon fill="#FFFFFF" points="563.6,629 563.6,617.7 559.3,617.7 559.3,629 559.3,650.9 563.6,650.9 	"/>
	<path fill="#FFFFFF" d="M586.3,649.5c1.8-1.3,2.8-3.3,3.1-5.8H585c-0.1,1.4-0.6,2.5-1.6,3.3c-1,0.8-2.3,1.1-3.7,1.1
		c-2,0-3.7-0.8-5-2.3c-1.3-1.6-1.9-3.9-1.9-6.9c0-3.1,0.6-5.4,1.9-6.9c1.3-1.6,2.9-2.3,5-2.3c1.4,0,2.7,0.4,3.7,1.1
		c1,0.8,1.6,1.9,1.6,3.3h4.4c-0.3-2.5-1.4-4.4-3.1-5.8c-0.4-0.3-0.8-0.6-1.3-0.8c-1.5-0.8-3.3-1.2-5.3-1.2c-2.9,0-5.3,0.8-7.2,2.3
		c-0.4,0.3-0.7,0.6-1,1c-2.1,2.2-3.1,5.3-3.1,9.3c0,4,1,7.1,3.1,9.3c2.1,2.2,4.8,3.3,8.2,3.3C582.3,651.5,584.5,650.8,586.3,649.5z"
		/>
	<path fill="#FFFFFF" d="M611.4,643.9c0-2.3-0.7-3.9-2.1-4.9c-1.4-0.9-3.6-1.8-6.5-2.5c-2.9-0.7-4.7-1.3-5.5-1.7
		c-0.7-0.4-1.1-1.1-1.1-2c0-1,0.5-1.8,1.4-2.4c0.9-0.5,2.1-0.8,3.6-0.8c3.3,0,5,1.1,5.1,3.4h4.3c-0.1-3.4-1.9-5.5-5.5-6.3
		c-1.2-0.3-2.6-0.4-4.2-0.4c-1.3,0-2.5,0.2-3.5,0.5c-1.1,0.3-2.2,0.8-3,1.5c-1.6,1.3-2.4,3-2.4,5c0,2.2,0.7,3.8,2,4.6
		c1.3,0.9,3.4,1.7,6.2,2.4c2.8,0.7,4.7,1.3,5.6,1.7c0.9,0.4,1.4,1.2,1.4,2.3c0,1.1-0.5,2-1.4,2.8c-0.9,0.7-2.3,1.1-4.1,1.1
		c-4,0-6-1.5-6-4.4h-4.3c0.3,5.2,3.7,7.8,10.3,7.8c3,0,5.3-0.7,7-2.2C610.6,647.9,611.4,646.1,611.4,643.9z"/>
	<rect x="616.4" y="617.7" fill="#FFFFFF" width="4.3" height="4.6"/>
	<polygon fill="#FFFFFF" points="620.7,627.1 620.7,626.8 618.7,626.8 616.4,626.8 616.4,650.9 620.7,650.9 	"/>
	<path fill="#FFFFFF" d="M653.4,650.5c2.8,0,5.1-0.7,7-2c1.9-1.3,3-3.3,3.4-5.7h-4.4c-0.1,1.4-0.7,2.5-1.9,3.3
		c-1.2,0.8-2.6,1.1-4.1,1.1c-2,0-3.7-0.7-5-2c-1.4-1.3-2.1-3.4-2.3-6.2h18.1v-1c0-4-1-7.1-3.1-9.3c-0.6-0.7-1.3-1.2-2.1-1.7
		c-1.7-1.1-3.8-1.6-6.2-1.6c-3.2,0-5.8,1-7.8,3c-0.1,0.1-0.3,0.2-0.4,0.4c-2.1,2.2-3.1,5.3-3.1,9.2c0,4,1.1,7.1,3.2,9.3
		C647,649.4,649.9,650.5,653.4,650.5z M659.7,635.6h-13.5c0.3-2.3,1.1-4.1,2.3-5.2s2.7-1.7,4.4-1.7c1.8,0,3.2,0.6,4.4,1.7
		C658.6,631.6,659.4,633.3,659.7,635.6z"/>
	<polygon fill="#FFFFFF" points="658.7,616.1 654.1,616.1 653.4,616.1 653.4,616.2 650.4,622.5 653.7,622.5 	"/>
	<path fill="#FFFFFF" d="M685.2,638.1c-1.4-0.9-3.6-1.8-6.5-2.5c-2.9-0.7-4.7-1.3-5.5-1.7c-0.7-0.4-1.1-1.1-1.1-2
		c0-1,0.5-1.8,1.4-2.4c0.9-0.5,2.1-0.8,3.6-0.8c3.3,0,5,1.1,5.1,3.4h4.3c-0.1-1.8-0.6-3.3-1.7-4.4c-1.6-1.6-4.2-2.4-7.9-2.4
		c-2.2,0-4,0.4-5.5,1.3c-0.4,0.2-0.7,0.4-1.1,0.7c-1.6,1.3-2.4,3-2.4,5c0,2.2,0.7,3.8,2,4.6c1.3,0.9,3.4,1.7,6.2,2.4
		c2.8,0.7,4.7,1.3,5.6,1.7s1.4,1.2,1.4,2.3c0,1.1-0.5,2-1.4,2.8c-0.9,0.7-2.3,1.1-4.1,1.1c-4,0-6-1.5-6-4.4h-4.3
		c0.3,5.2,3.7,7.8,10.3,7.8c3,0,5.3-0.7,7-2.2c1.7-1.4,2.6-3.3,2.6-5.5C687.3,640.6,686.6,639,685.2,638.1z"/>
	<polygon fill="#FFFFFF" points="494.5,697.2 498.9,697.2 498.9,682.2 514.5,682.2 514.5,678.2 498.9,678.2 498.9,667.9 
		516.9,667.9 516.9,664 494.5,664 	"/>
	<path fill="#FFFFFF" d="M532.1,672.6c-3.4,0-6.2,1.1-8.2,3.3c-2.1,2.2-3.1,5.3-3.1,9.3c0,4,1,7.1,3.1,9.3c2.1,2.2,4.8,3.3,8.2,3.3
		c3.4,0,6.2-1.1,8.2-3.3c2.1-2.2,3.1-5.3,3.1-9.3c0-4-1-7.1-3.1-9.3C538.2,673.7,535.5,672.6,532.1,672.6z M537,692.1
		c-1.3,1.6-2.9,2.3-5,2.3s-3.7-0.8-5-2.3c-1.3-1.6-1.9-3.9-1.9-6.9c0-3.1,0.6-5.4,1.9-6.9c1.3-1.6,2.9-2.3,5-2.3s3.7,0.8,5,2.3
		c1.3,1.6,1.9,3.9,1.9,6.9C538.9,688.3,538.3,690.6,537,692.1z"/>
	<rect x="548.2" y="664" fill="#FFFFFF" width="4.3" height="33.3"/>
	<path fill="#FFFFFF" d="M564.3,693.5c-0.4-0.4-0.6-1.5-0.6-3.1v-13.9h3.9v-3.4h-3.9v-6h-4.3v6h-3v3.4h3v13.7c0,1.7,0.1,3,0.3,4
		c0.2,1,0.7,1.8,1.5,2.4c0.8,0.6,2.1,0.9,3.9,0.9c1.1,0,2.1-0.1,3.1-0.3V694c-0.7,0.1-1.4,0.2-2.1,0.2
		C565.2,694.2,564.7,694,564.3,693.5z"/>
	<polygon fill="#FFFFFF" points="587.8,691.7 578.8,664 572.2,664 572.2,697.2 576.4,697.2 576.4,668.9 585.9,697.2 589.8,697.2 
		599.3,668.9 599.3,697.2 603.5,697.2 603.5,664 596.9,664 	"/>
	<polygon fill="#FFFFFF" points="617.6,669.8 621,669.8 626,663.4 620.6,663.4 	"/>
	<path fill="#FFFFFF" d="M620.1,672.6c-3.4,0-6.1,1.1-8.2,3.3c-2.1,2.2-3.1,5.3-3.1,9.2c0,4,1.1,7.1,3.2,9.3c2.1,2.2,5,3.3,8.5,3.3
		c2.8,0,5.1-0.7,7-2c1.9-1.3,3-3.3,3.4-5.7h-4.4c-0.1,1.4-0.7,2.5-1.9,3.3c-1.2,0.8-2.6,1.1-4.1,1.1c-2,0-3.7-0.7-5-2
		c-1.4-1.3-2.1-3.4-2.3-6.2h18.1v-1c0-4-1-7.1-3.1-9.3C626.3,673.7,623.6,672.6,620.1,672.6z M613.4,682.9c0.3-2.3,1.1-4.1,2.3-5.2
		s2.7-1.7,4.4-1.7c1.8,0,3.2,0.6,4.4,1.7c1.2,1.2,2,2.9,2.3,5.2H613.4z"/>
	<polygon fill="#FFFFFF" points="655.2,673.2 649.8,673.2 640.5,682.8 640.5,664 636.2,664 636.2,697.2 640.5,697.2 640.5,687.7 
		643.2,685 651,697.2 656.1,697.2 646.1,682.1 	"/>
	<rect x="671.4" y="664.2" fill="#FFFFFF" width="4.2" height="4.7"/>
	<rect x="663" y="664.2" fill="#FFFFFF" width="4.2" height="4.7"/>
	<path fill="#FFFFFF" d="M669.2,672.6c-3.4,0-6.2,1.1-8.2,3.3c-2.1,2.2-3.1,5.3-3.1,9.3c0,4,1,7.1,3.1,9.3c2.1,2.2,4.8,3.3,8.2,3.3
		c3.4,0,6.2-1.1,8.2-3.3c2.1-2.2,3.1-5.3,3.1-9.3c0-4-1-7.1-3.1-9.3C675.4,673.7,672.7,672.6,669.2,672.6z M674.2,692.1
		c-1.3,1.6-2.9,2.3-5,2.3c-2,0-3.7-0.8-5-2.3c-1.3-1.6-1.9-3.9-1.9-6.9c0-3.1,0.6-5.4,1.9-6.9c1.3-1.6,2.9-2.3,5-2.3
		c2,0,3.7,0.8,5,2.3c1.3,1.6,1.9,3.9,1.9,6.9C676.1,688.3,675.5,690.6,674.2,692.1z"/>
	<path fill="#FFFFFF" d="M695.9,672.6c-2.4,0-4.5,1.3-6.3,3.9v-3.4h-4.3v24.1h4.3v-17c1.6-2.3,3.4-3.4,5.6-3.4c1.1,0,2,0.1,2.6,0.3
		v-4.3C697.1,672.7,696.5,672.6,695.9,672.6z"/>
</g>
</svg>
