<svg xmlns="http://www.w3.org/2000/svg" viewBox="0 0 279 255"><defs><style>.cls-1{fill:#0b0b0e;}.cls-2{fill:#ffb300;}.cls-3{fill:#fdfdfd;}</style></defs><title>reggelisch</title><g id="Layer_2" data-name="Layer 2"><g id="Layer_1-2" data-name="Layer 1"><path class="cls-1" d="M90.81,0H99l1.32,1.09.86-.32,2.22.67.3.16.41.14.8.4.33.2.32.14a23.28,23.28,0,0,1,7,5.58,4.31,4.31,0,0,0,2.36,2.4,27.42,27.42,0,0,1,6.55,7.83l.15.24.15.22,1.69,2.54.14.22.13.21c2.5,4.39,4.7,9,6.78,13.56,0,.11.13.31.17.41l.64,1.68c.3.74.88,2.24,1.17,3l.08.24.08.2.56,1.91c.18.58.52,1.76.69,2.35s.76,1.85,1,2.47c.05,1.1.08,2.2.11,3.3l.32,1.8.78.25a34.37,34.37,0,0,0,.17,3.51c.09,1,.28,3.14.37,4.19l-4.67.1c-1-12.14-5.38-23.77-11.2-34.39-4-7-9-13.72-15.64-18.38-4-2.45-9.15-4.28-13.81-2.55C83.91,7.82,78.57,14,74.16,20.19,66.22,32.31,60.26,46.12,59,60.68l-4.7-.1c.14-1.73.27-3.47.39-5.21.13-1.16.24-2.32.35-3.48.26-.54.79-1.62,1.06-2.16l-.28-1.94L57.13,46c0-.63.1-1.88.13-2.5a1.63,1.63,0,0,1,.09-.19c.24-.65.73-2,1-2.61,0-.11.13-.35.18-.47.23-.66.69-2,.93-2.65l.1-.25.17-.39.46-1,.21-.35.11-.34,1-2.68.27-.34.09-.51.47-1c.11-.22.32-.65.43-.86l.44-.86.42-.81.45-.86.15-.28.1-.18c1-1.78,2-3.53,3-5.26l.13-.19.13-.21,1.74-2.64c0-.08.16-.26.22-.34,3.19-5.46,8.17-9.55,12.78-13.77l.18-.15.19-.13,2.74-1.71.28-.14.31-.2.9-.51.61-.3Z"/><path class="cls-1" d="M101.25,16.23,104.68,13A75.08,75.08,0,0,1,117,30.34l-4.12,1.85C109.69,26.43,106.06,20.8,101.25,16.23Z"/><path class="cls-1" d="M59.24,70.44c7.19.08,14.38.09,21.57,0,0,1.6,0,3.19,0,4.79-7.19-.06-14.38,0-21.57,0C59.23,73.59,59.24,72,59.24,70.44Z"/><path class="cls-1" d="M86.15,70.46h4.44l0,4.77-4.39-.06C86.17,73.59,86.16,72,86.15,70.46Z"/><path class="cls-1" d="M95.54,70.49h4.82c0,1.54,0,3.07,0,4.6a18.14,18.14,0,0,1-4.6-.11C95.66,73.48,95.58,72,95.54,70.49Z"/><path class="cls-1" d="M198.13,115.35c8.58-2.1,18.33-2.27,26.11,2.43,8.62,5.25,12.72,16.07,11.21,25.84-.25,2.8-5.34,3.34-5.72.34-.38-3.55.08-7.21-1-10.66A17.93,17.93,0,0,0,214,120.49c-9.21-1.71-18.37,1.89-26.44,6-8.6,5.42-16.77,12.34-21.43,21.54A22.51,22.51,0,0,0,167,170c4.29,6.91,11.05,12.71,19.13,14.48,7.07,1.48,14.23-1.31,19.92-5.39,8.83-6.44,16.35-15,20.46-25.24.69-2,2.59-5.36,5.07-3.33,2.66,1.59,1,4.85.11,7A63.71,63.71,0,0,1,203.6,187.6a29.25,29.25,0,0,1-30.44-2.3q-14.74,13.84-29.4,27.78l-1,.92a18.43,18.43,0,0,1-1.05,8c-3.2,4.94-8.24,8.33-11.49,13.26C123,241.63,118.37,251,109.27,255h-8.64l-3-1.33-.37-.17-1.89-.83a28.35,28.35,0,0,1-5.08-5.07c-.2-.48-.62-1.43-.83-1.91,0-.09-.12-.28-.17-.37l-1.24-2.89a23.88,23.88,0,0,1,.53-8.13c.14-.46.4-1.39.54-1.85a33,33,0,0,1,7.11-7.89l.42-.32c2-1.48,3.86-3.26,5.85-4.81a13.13,13.13,0,0,1,4.44-2.29c2.06,0,3.82,2.42,2.64,4.28-4.16,4.91-10.94,7.23-14.17,13s.92,14,7.53,14.62a10.33,10.33,0,0,0,9.45-3.61c7.33-8,14.53-16.14,21.86-24.15,1.35-1.56,3.48-3.61,2.05-5.8A25.67,25.67,0,0,0,129,208c-5.72.13-8.39,7.51-13.92,8.23-2.45,0-2.82-2.65-2.46-4.52,3.57-2.84,6.89-6,10.75-8.5,2.5-1.75,5.61-1,8.44-1.15,10.25-9.27,20.22-18.89,30.34-28.32-2.64-4.83-4.75-10.14-4.57-15.75-.06-7.12,3.05-13.79,7.16-19.45A65.06,65.06,0,0,1,198.13,115.35Zm-61.6,90.88,2.6,2.72c9.71-9.19,19.49-18.29,29.27-27.4l-2.52-3C156,187.73,146.34,197,136.53,206.23Z"/><path class="cls-2" d="M99,0h1.8l.38.77-.86.32Z"/><polygon class="cls-2" points="82.47 4.39 82.68 4.26 82.49 4.39 82.31 4.54 82.47 4.39"/><path class="cls-2" d="M69.42,18.46l.11-.15c-.06.08-.17.26-.22.34Z"/><polygon class="cls-2" points="67.44 21.48 67.57 21.29 67.44 21.5 67.31 21.69 67.44 21.48"/><polygon class="cls-2" points="60.33 35.57 60.49 35.29 60.38 35.63 60.17 35.98 60.33 35.57"/><path class="cls-2" d="M130.49,35.28l.09.19.08.22C130.62,35.59,130.53,35.39,130.49,35.28Z"/><path class="cls-2" d="M58.42,40.45l.09-.21c0,.12-.14.36-.18.47Z"/><path class="cls-2" d="M57.24,43.47l.11-.15a1.63,1.63,0,0,0-.09.19Z"/><path class="cls-2" d="M133.19,42.71c.18.58.52,1.76.69,2.35C133.71,44.47,133.37,43.29,133.19,42.71Z"/><path class="cls-2" d="M56.3,46.14l.83-.13-1.28,1.78Z"/><path class="cls-2" d="M135,50.83c.28.51.83,1.54,1.1,2.05l-.78-.25Z"/><path class="cls-2" d="M54.26,56.68l.46-1.31c-.12,1.74-.25,3.48-.39,5.21l4.7.1q36.47.2,72.94,0l4.67-.1c-.09-1-.28-3.14-.37-4.19l.42,1.3c.19,1.1.36,2.2.5,3.31H144c0,3.12.06,6.24-.16,9.35a52.09,52.09,0,0,0-1.44,6.17c-.34,1-.68,2-1,3-.45,1.19-.92,2.37-1.4,3.54,6.2.37,12.75-1.09,18.74.78,2.87.17,5.75.14,8.63.31,2.78,1.4,6,.67,9,1,2.17,1.11,4.67.81,7,1.07a32.07,32.07,0,0,0,5.05,1.13c1.65.4,3.33.69,5,1s3.34.68,5,1c1.34.38,2.7.69,4.06,1,1.69.49,3.4.88,5.08,1.38l1.91.56c1.68.52,3.4.93,5.09,1.45l1.92.52c1,.38,2,.73,3.05,1.08l2.82,1,.38.15,2.76,1.21c1,.31,1.95.63,2.92,1,2.91,1.57,6,2.64,9.06,4l2,1a48.62,48.62,0,0,0,6.17,3.59c2.28,1.29,4.47,2.73,6.73,4l.35.23c1.3,1,2.6,1.92,4,2.79a32.67,32.67,0,0,0,6,5,48.22,48.22,0,0,1,4,4,25.83,25.83,0,0,0,4,5.05c1,1.67,2.08,3.31,3.05,5,.82,1.75,1.69,3.47,2.58,5.19.34,1,.67,1.94,1,2.92.56,1.81,1,3.63,1.68,5.41v12.37a21.65,21.65,0,0,0-1.32,4l-.23.52c-.58,1.26-1.12,2.53-1.72,3.78s-1.34,2.68-2,4c-1,1.7-2.05,3.35-3,5.06-4.29,4.39-8.55,8.82-13.08,13a36.41,36.41,0,0,0-4.07,3c-1.66,1-3.29,2.11-5,3.07s-3.29,2-5,3c-1.37.63-2.72,1.29-4.06,2l-3.16,1.53c-.94.5-1.88,1-2.81,1.51l-3.87,1.73-.4.17-2.87,1.15-2,.32-2.84,1.65q-1.57.39-3.12.84c-1,.36-2,.75-3,1.15l-1.93.51c-1.69.52-3.41.93-5.09,1.45l-1.91.54c-1.7.53-3.42.95-5.11,1.5l-2.88.46c-1.71.56-3.45,1-5.15,1.58-1.58.14-3.16.26-4.74.43-2.37.82-4.93.74-7.32,1.48-2,.27-4.14.22-6,1.1-2.66.28-5.53-.24-8,1-4.64.66-9.6-.84-14,1-3.88.25-7.77.12-11.65.14a18.43,18.43,0,0,0,1.05-8l1-.92c21.19-.34,42.43-3.19,62.62-9.78,9-3.25,18.15-6.42,26.29-11.58,11.21-6.33,21.65-15.28,26.81-27.34s1-26-7.27-35.5c-7.64-8.69-17.43-15.35-27.9-20.19-14.91-7.27-31.14-11.43-47.46-14A238.47,238.47,0,0,0,135,91.76a51.8,51.8,0,0,1-29.7,19.59c0,7.47,0,14.94,0,22.41,5.69.17,11.81-.82,17.09,1.83,5.52,3,9.78,8.68,9.86,15.15q-36.7,0-73.4,0c0-7,5-13,11.16-15.74,5-1.84,10.55-1.11,15.82-1.23q0-11.2,0-22.43a54.46,54.46,0,0,1-18.06-7.92c-14.6,5.11-28.71,12.64-39.47,23.93-6.79,7.39-11.82,17.33-10.51,27.61.89,12.25,9.25,22.39,18.43,29.84a107.78,107.78,0,0,0,28.52,15.53c15.3,6.1,31.54,9.5,47.86,11.43-.36,1.87,0,4.5,2.46,4.52,5.53-.72,8.2-8.1,13.92-8.23a25.67,25.67,0,0,1,7.35,7.44c1.43,2.19-.7,4.24-2.05,5.8-7.33,8-14.53,16.14-21.86,24.15A10.33,10.33,0,0,1,103,249c-6.61-.62-10.78-8.87-7.53-14.62s10-8.09,14.17-13c1.18-1.86-.58-4.28-2.64-4.28a13.13,13.13,0,0,0-4.44,2.29c-1.64-.27-3.29-.48-4.93-.73a30.12,30.12,0,0,0-6-1,25,25,0,0,0-6-1c-1.35-.41-2.73-.75-4.1-1.1-1.68-.47-3.39-.84-5.07-1.31-1.34-.32-2.69-.64-4-1l-1.89-.63c-1.67-.49-3.38-.87-5.06-1.33-1-.37-2-.75-3-1.14l-2-.45c-1.32-.51-2.65-1-4-1.44l-2-1.2-2-.35a33.3,33.3,0,0,0-5.14-2.12c-1.63-.78-3.24-1.57-4.84-2.4s-3.46-1.7-5.21-2.51c-1.67-1-3.29-2-5-3s-3.32-2-5-3.06c-1-.7-2-1.39-3-2.05a42.72,42.72,0,0,0-4.09-3c-3.49-3.17-6.81-6.54-10-10-1.32-2-2.87-3.95-4.11-6-.59-1.05-1.22-2.08-1.83-3.12l-.87-1.74c0-.1-.13-.3-.18-.39-.27-.72-.83-2.16-1.11-2.88l-.52-1.9c-.57-2.18-.94-4.4-1.7-6.52v-8.33c1-1.95,1.11-4.16,1.59-6.25.35-1,.72-1.95,1.09-2.92,1-2,2-4,3-6.05,1.2-1.74,2.54-3.38,3.67-5.16,3.86-4.14,7.85-8.16,12-12a35.74,35.74,0,0,0,4.09-3c1.39-.86,2.75-1.76,4.15-2.59,2-1.11,3.85-2.35,5.81-3.45,1.68-.82,3.32-1.73,4.92-2.7l.41-.2a60.14,60.14,0,0,0,6.71-3.14c2-.86,4.13-1.64,6.16-2.53,1.86-.69,3.74-1.34,5.62-2l-1.9-2.1c-.62-1.06-1.29-2.08-2-3.1-1.06-1.63-2.14-3.23-3.16-4.88-.79-2.1-1.56-4.2-2.48-6.25-.52-1.64-.92-3.31-1.42-5a19.29,19.29,0,0,0-1.12-5.11C47,66.56,47,63.78,47,61h6.88C54,59.56,54.06,58.11,54.26,56.68Zm5,13.76c0,1.57,0,3.15,0,4.73,7.19.07,14.38,0,21.57,0,0-1.6,0-3.19,0-4.79C73.62,70.53,66.43,70.52,59.24,70.44Zm26.91,0c0,1.57,0,3.13,0,4.71l4.39.06,0-4.77Zm9.39,0c0,1.49.12,3,.25,4.48a18.14,18.14,0,0,0,4.6.11c0-1.53,0-3.06,0-4.6Z"/><path class="cls-2" d="M96.46,224.4l.22-.16-.42.32Z"/><path class="cls-3" d="M87.25,1.5l.27-.1-.61.3Z"/><path class="cls-3" d="M103.37,1.44l.71.3-.41-.14Z"/><path class="cls-3" d="M85.42,2.55,86,2.21l-.31.2Z"/><path class="cls-3" d="M104.88,2.14l.65.34-.32-.14Z"/><path class="cls-3" d="M91.32,5.36c4.66-1.73,9.76.1,13.81,2.55,6.68,4.66,11.59,11.4,15.64,18.38C126.59,36.91,131,48.54,132,60.68q-36.47.2-72.94,0c1.23-14.56,7.19-28.37,15.13-40.49C78.57,14,83.91,7.82,91.32,5.36Zm9.93,10.87c4.81,4.57,8.44,10.2,11.66,16L117,30.34A75.08,75.08,0,0,0,104.68,13Z"/><path class="cls-3" d="M112.54,8.06c1.68-.07,2.46.73,2.36,2.4A4.31,4.31,0,0,1,112.54,8.06Z"/><polygon class="cls-3" points="121.45 18.29 121.59 18.5 121.75 18.75 121.6 18.53 121.45 18.29"/><polygon class="cls-3" points="123.44 21.29 123.58 21.48 123.71 21.72 123.58 21.51 123.44 21.29"/><path class="cls-3" d="M64,27.41l.25-.46-.1.18Z"/><path class="cls-3" d="M63.15,29.08l.42-.81Z"/><path class="cls-3" d="M62.28,30.8c.11-.22.32-.65.43-.86C62.6,30.15,62.39,30.58,62.28,30.8Z"/><path class="cls-3" d="M61.45,32.61l.36-.85-.09.51Z"/><polygon class="cls-3" points="59.53 37.31 59.71 36.95 59.54 37.34 59.44 37.59 59.53 37.31"/><polygon class="cls-3" points="132.47 40.36 132.55 40.54 132.63 40.8 132.55 40.6 132.47 40.36"/><path class="cls-3" d="M55.07,51.89c.26-.54.79-1.62,1.06-2.16C55.86,50.27,55.33,51.35,55.07,51.89Z"/><path class="cls-3" d="M105.29,111.35A51.8,51.8,0,0,0,135,91.76a238.47,238.47,0,0,1,41.86,2.9c16.32,2.6,32.55,6.76,47.46,14,10.47,4.84,20.26,11.5,27.9,20.19,8.26,9.48,12.4,23.55,7.27,35.5s-15.6,21-26.81,27.34c-8.14,5.16-17.28,8.33-26.29,11.58-20.19,6.59-41.43,9.44-62.62,9.78q14.69-13.9,29.4-27.78a29.25,29.25,0,0,0,30.44,2.3,63.71,63.71,0,0,0,28.12-30.09c.94-2.16,2.55-5.42-.11-7-2.48-2-4.38,1.3-5.07,3.33-4.11,10.23-11.63,18.8-20.46,25.24-5.69,4.08-12.85,6.87-19.92,5.39-8.08-1.77-14.84-7.57-19.13-14.48a22.51,22.51,0,0,1-.88-21.93c4.66-9.2,12.83-16.12,21.43-21.54,8.07-4.13,17.23-7.73,26.44-6a17.93,17.93,0,0,1,14.67,12.81c1.12,3.45.66,7.11,1,10.66.38,3,5.47,2.46,5.72-.34,1.51-9.77-2.59-20.59-11.21-25.84-7.78-4.7-17.53-4.53-26.11-2.43a65.06,65.06,0,0,0-33.41,23.23c-4.11,5.66-7.22,12.33-7.16,19.45-.18,5.61,1.93,10.92,4.57,15.75C152,183.21,142,192.83,131.79,202.1c-2.83.13-5.94-.6-8.44,1.15-3.86,2.46-7.18,5.66-10.75,8.5-16.32-1.93-32.56-5.33-47.86-11.43a107.78,107.78,0,0,1-28.52-15.53C27,177.34,18.68,167.2,17.79,155c-1.31-10.28,3.72-20.22,10.51-27.61,10.76-11.29,24.87-18.82,39.47-23.93a54.46,54.46,0,0,0,18.06,7.92q0,11.22,0,22.43c-5.27.12-10.77-.61-15.82,1.23-6.16,2.72-11.18,8.77-11.16,15.74q36.7.06,73.4,0c-.08-6.47-4.34-12.12-9.86-15.15-5.28-2.65-11.4-1.66-17.09-1.83C105.28,126.29,105.29,118.82,105.29,111.35Z"/><path class="cls-3" d="M222.35,96.35l.21.08.17.07Z"/><path class="cls-3" d="M40.48,103.47l.23-.09-.41.2Z"/><path class="cls-3" d="M252.35,111.33l.19.11.16.12Z"/><path class="cls-3" d="M277.45,163.8l.23-.52-.09.29Z"/><path class="cls-3" d="M3.33,167.36c0,.09.14.29.18.39l-.09-.18Z"/><path class="cls-3" d="M136.53,206.23c9.81-9.19,19.51-18.5,29.35-27.65l2.52,3c-9.78,9.11-19.56,18.21-29.27,27.4Z"/><path class="cls-3" d="M229.34,205.66l.4-.17-.18.08Z"/><path class="cls-3" d="M89.32,245.32c.05.09.13.28.17.37l-.08-.16Z"/><path class="cls-3" d="M97.29,253.5l.37.17-.2-.09Z"/></g></g></svg>