<svg xmlns="http://www.w3.org/2000/svg" viewBox="0 0 219.39 151.56"><defs><style>.cls-1{fill:#7eba28;}.cls-2{fill:#1d1d1b;}</style></defs><title>sem</title><g id="Layer_2" data-name="Layer 2"><g id="Layer_1-2" data-name="Layer 1"><path class="cls-1" d="M204.76,113h-17v-65H173.28v65H152.13v-65h-15v65H44v-9.29h83.93v-65h33.53v65H164v-65h33v65h7.74V113Z"/><path class="cls-2" d="M119.1,58.26V49H81.71a5.16,5.16,0,0,0-5.16,5.16V90.25a5.16,5.16,0,0,0,5.16,5.16H119.1V86.12H87.28V76.83h22.28V67.54H87.28V58.26ZM35.68,67.54V58.26H67.51V49H30.11A5.16,5.16,0,0,0,25,54.13V71.67a5.16,5.16,0,0,0,5.16,5.16H56.78v9.29H25v9.29H62.35a5.16,5.16,0,0,0,5.16-5.16V72.7a5.16,5.16,0,0,0-5.16-5.16H35.68Z"/><path class="cls-2" d="M219.39,9.9H199.6V0H165.06V9.9H151.17V0H116.64V9.9H102.75V0H68.22V9.9H54.33V0H19.79V9.9H0v55l2.47.82a10.57,10.57,0,0,1,7.24,10,10.57,10.57,0,0,1-7.24,10L0,86.66v55H19.79v9.9H54.33v-9.9H68.22v9.9h34.54v-9.9h13.89v9.9h34.54v-9.9h13.89v9.9H199.6v-9.9h19.79Zm-7.22,124.57H7.22V91.66A17.75,17.75,0,0,0,16.94,75.8,17.75,17.75,0,0,0,7.22,59.94V17.13h205Z"/><circle class="cls-2" cx="26.02" cy="111.73" r="8.07"/></g></g></svg>