<svg id="Layer_1" data-name="Layer 1" xmlns="http://www.w3.org/2000/svg" viewBox="0 0 1456.28 2000"><title>sssl</title><path d="M117.31,0c13.56,12.7,22.28,29.08,33.39,43.65q23.82,31.21,47.86,62.26c6,7.69,12.48,15,18.61,22.55,2.51,3.1,4.64,6.5,7,9.72,12.05,16.45,24,33,36.23,49.31,17.13,22.92,34.67,45.54,51.66,68.56,25.68,34.81,51.76,69.37,76.3,105,17.79,25.79,37.3,50.23,55.84,75.42C449,443,454.75,449,460.32,455c2.73,2.94,4.41,6.16,4.51,10,.14,5.52.43,11.11-.27,16.54-.63,4.95-2.64,5.79-7.48,4.73s-10-2.08-14.91-3.29c-4.59-1.13-7.79-3.66-9.23-8.57-1-3.34-3-6.41-4.67-9.51C417,444.46,402,426.53,389,407.22c-23.06-34.26-45.81-68.74-69.11-102.85-25.28-37-51.09-73.67-76.58-110.55-13.75-19.9-27-40.17-41.07-59.84-9.54-13.33-20.13-25.91-30.26-38.82-.27-.35-.61-.65-.85-1-12.45-18.37-25-36.69-37.28-55.16-6.51-9.79-12.51-19.92-19-29.74A14.72,14.72,0,0,1,112,0Z"/><path d="M188.69,635.67c-5,8.17-6.29,24.69-2.89,32.81a9.41,9.41,0,0,0,7.22,6c10.75,2.48,15.06,10.81,11.07,21.19-1.73,4.5-3.78,8.88-5.92,13.88,2.66,1.06,4.86,1.91,7,2.82,6.45,2.68,10,7.39,9.27,14.5a91.9,91.9,0,0,1-2.09,11c-.37,1.67-1,3.28-1.66,5.2,7,1.88,14.11,2.75,18,9.38s.82,13.2-1.29,20.57a46.8,46.8,0,0,0,4.44-1.67c4.84-2.55,9.17-1.61,11.59,3.19a18.76,18.76,0,0,1,2.07,8.25c0,6.41-.82,12.81-1,19.23-.09,2.89-1.7,6.49,2.11,8.32s5.69-1.2,7.9-3.32c1-.92,1.85-1.92,2.85-2.81,5.57-5,10.45-4.16,13.82,2.35,1.53,2.95,2.8,6.07,4.57,8.87a40.12,40.12,0,0,0,6.4,8.4c5.14,4.71,10,3.1,11.88-3.5s0-12.7-2.62-18.7c-2.06-4.65-4.47-9.21-5.9-14-3.36-11.35-.77-22,5.23-31.84,6.9-11.38,13.28-13.93,26.1-10.23,9.78,2.83,16.92,9.44,23.19,17.09a10,10,0,0,1,1.23,3c.68,1.87,1.19,3.81,2,5.62,2.36,5.27,5.3,7.27,8.87,6.21s5.22-4.23,4.78-9.87c-.49-6.32-2.86-12.07-6-17.48s-6.89-10.9-9.87-16.59a26.07,26.07,0,0,1-2.63-9.35c-.43-4.4.16-8.9-.18-13.32-.39-5.19,1.4-9.55,4.12-13.72,8.47-13,21.18-20.26,35.42-24.45,7.31-2.16,14.77,1.58,19.69,7.27,5.32,6.14,9.36,13.39,13.89,20.2.6.9.74,2.09,1.26,3.06,2.32,4.34,5.36,4.81,8.09.77a33.22,33.22,0,0,0,5.69-18.14c.31-10.85,1-21.69,1.71-32.52a20.56,20.56,0,0,1,1.33-6.47c3.13-7.58,6.28-15.17,9.85-22.55,2.81-5.79,6.46-11,12.08-14.71,5.36-3.54,5.77-4.73,2.81-10.36-4-7.55-2.4-13.49,3.65-19,1.72-1.56,2.9-3.72,4.84-6.29-9-5.85-12.38-14.67-15.09-23.95-.77-2.63-2.56-5-4.37-8.36-1.56,2.66-2.44,4.34-3.49,5.91-2.51,3.72-5.26,4.35-9,1.83a18.18,18.18,0,0,1-4.89-4.47c-7.86-11.3-19.16-19-29.16-28a31.39,31.39,0,0,1-6.79-8.09c-2.75-5.13-.43-8.56,5.3-8.67a19.16,19.16,0,0,1,5.31.23c9.78,2.68,18.06-1,25.27-6.8,5.89-4.77,11.84-6.48,19.08-4.61,5.78,1.49,11.62,2.7,17.26,4,1.61,3.56.9,6.49-.57,9.33-1.74,3.34-3.33,6.8-5.37,9.94a18.26,18.26,0,0,0-2.91,12,76.62,76.62,0,0,0,8.56,28.49c.9,1.76,2.79,3,4.57,4.84,3-3.64,3-7.15,3.12-10.65.27-7.31.28-14.64,1-21.9a27.43,27.43,0,0,1,3.44-9.75c.54-1,3.4-1.73,4.59-1.2,1,.46,1.64,2.85,1.66,4.4a11.27,11.27,0,0,1-1.41,5.07c-1.75,3.38-1,6.26,1.85,8.23,3.48,2.46,3.89,5.5,3.35,9.33-.67,4.71.74,7.14,5,7.6a63,63,0,0,0,15.22.06c6.57-.92,9.79-7.81,7.57-14.14-1.45-4.13-2.95-8.36-3.44-12.66-.47-4.15.95-5.1,5.15-4.57,2.84.36,5.6,1.26,8.42,1.81,2.07.41,4.17.64,6.16.94,1.6-3.69.06-5.92-1.73-7.88-9.94-10.88-21.55-19.17-36.14-22.52-3-.68-6.18-.36-9.27-.52-6.12-.3-7.16-1-8.06-7.24-1-7.21-1.74-14.48-2.49-21.74-.45-4.29.72-7.82,4.88-10a34.74,34.74,0,0,0,4.82-3.55c4.94-3.86,7.94-8.62,8.21-15.18a40.23,40.23,0,0,1,2.37-11c1.42-4.17,4.75-4.81,7.48-1.4,1.89,2.35,3.73,5.27,4.17,8.14,1.25,8.23,5,15,10.13,21.33,6.28,7.67,6.15,10.3-.25,17.79-2.31,2.7-4.84,5.22-6.95,8.06-3.26,4.39-2.58,6.12,2.38,8.64s10.1,5.45,15.13,8.21a14.94,14.94,0,0,1,7.51,9.69,9.8,9.8,0,0,0,6.4,7.06c5.29,2,9.83,5.6,16.1,5.64,6.56,0,12.23-2,17.69-4.92a232.74,232.74,0,0,0,55.88-41.55c4.7-4.71,9.21-9.61,13.85-14.39,3.33-3.44,4.37-7.22,3.28-12.08-1.41-6.25-1.74-12.74-3-19-1.44-7.39-4.29-14.6-4.85-22-1-13.47-2.28-27.22-.6-40.49,1.29-10.27,6.4-20.22,10.83-29.84,2-4.44,6.83-7.52,9.82-11.62,9.4-12.9,22.93-20.73,35.66-29.55,2.55-1.77,5.17-3.46,7.75-5.18a15,15,0,0,0,2.74-1.89c2.91-3.07,4.7-6.86,3.34-10.93-1.3-3.91-5.38-4.71-8.88-4.38a121.38,121.38,0,0,0-19,3.08,109,109,0,0,1-28.93,3.49c-11.33-.18-22.69-.41-34,.07-9.38.39-11.76-5.11-9.54-12.81,1.77-6.16,4.14-12.17,6.51-18.14a12.63,12.63,0,0,0,.62-8.91c-.73-2.5-.13-5.69.71-8.3C616,214,620.46,204,623,193.49c2-8.3,2.23-17.11,2.39-25.71.11-6.07.53-11.24,6.27-14.93,1.69-1.08,2.46-4.06,3-6.32,2.88-11.65,6.22-23.1,11.39-34a19.17,19.17,0,0,1,9.61-9.62c7.44-3.46,15.17-6.34,22.43-10.14,6.23-3.27,12.74-6.7,17.68-11.53,3.52-3.44,5.25-9.15,6.66-14.16A77,77,0,0,0,705,50c.51-10.57,6-19,11.67-27.09,2.62-3.76,8.24-6.2,13-7.53A126.32,126.32,0,0,1,754.37,11c5.12-.37,10.47,1.28,15.62,2.48,9.26,2.17,18.59,4.06,27.17,8.63,8,4.27,10.56,11.91,14.85,20.2l-10.2.95c1.32,5.75,8.48,9.56,5.81,17-7.45-.23-10.12-7.89-17.36-10.13a42.43,42.43,0,0,0,2.22,5.25c3,4.91,6.21,9.72,9.24,14.63a13.41,13.41,0,0,1,2.19,4.8,5,5,0,0,1-1.3,4.06,4.38,4.38,0,0,1-4.07-.08,39.38,39.38,0,0,1-5.91-5.29c-2.93-3-5.73-6.07-9-8.85.79,8.75,6.64,16.56,5,26-5.3-1-7.73-3.42-9.5-7.09C774,73,767,64,756.39,58.27c-7-3.8-14.16-6.3-22.23-4.54A44.54,44.54,0,0,0,729,55c-10.55,3.68-12.38,9.9-4.29,17.54,6.07,5.73,13.18,10.44,20.14,15.13s14.31,8.88,21.56,13.16a60,60,0,0,0,6.61,3,9.82,9.82,0,0,1,6.23,7.89c2.79,14.81,6.06,29.52,9,44.3C791,170,797.53,182.3,804,194.68c3.17,6.09,6.88,11.91,10.31,17.87,2.54,4.42,2.05,7.07-2.12,10.32-2.8,2.18-5.82,4.08-8.68,6.18s-3.78,4.37-2.11,8a78.78,78.78,0,0,1,5.17,14.4c3.37,13.71,12.33,23.36,22.74,31.9a109.27,109.27,0,0,0,13.87,9.14c2.33,1.38,3.77,2.72,3.53,5.68-.26,3.26-2.62,3.95-5,4.46a49.24,49.24,0,0,1-9.18,1.27c-6.89.18-13.78,0-20.67.08-2.43,0-4.87.24-7.3.48-3.38.33-5.41,1.88-6.47,5.46-2,6.8-4.59,13.44-7.08,20.08a52.23,52.23,0,0,0-3.15,18.21c-.19,26-.76,51.93-1.24,77.89-.21,11.53-.34,23.07-.89,34.59-.64,13.59,2.72,26.42,7,39,2.73,8,6,15.74,6.37,24.32a19.6,19.6,0,0,0,1,4.55c1.89,6.42,5.75,8.46,12.18,6.21,7.86-2.75,15.53-2,23.47,0,22.33,5.49,34.3,21.39,42.38,41.31A222.37,222.37,0,0,1,886,597.23a70.13,70.13,0,0,1,2.18,15.65c.19,3.78-1.86,6.67-5.68,8.14a40.3,40.3,0,0,0-5.88,3.1,11.41,11.41,0,0,0-5.93,9.72c-.71,9.93-1.71,19.85-2.74,29.76a28.35,28.35,0,0,1-1.64,5.72c-1.07,3.33-2.2,6.63-3.69,11.1,2.41-.52,4-.4,4.95-1.16a22.53,22.53,0,0,0,3.7-4.66c4.51-6.59,9.37-13,13.37-19.88,5.56-9.58,14.3-14.72,23.73-19.53,12.71-6.48,26.3-6.9,39.66-5.19,10,1.29,18.67,7.15,24.13,16.22,3.18,5.3,6.54,10.8,8.07,16.67,1.41,5.36,1.05,11.41.41,17-.76,6.56-2.65,13-4.1,19.46-3.52,15.79-11.87,29-21.86,41.42-2.37,2.93-4.92,5.72-7.25,8.68s-1.8,5,1.77,5.89c5.16,1.29,10.26,1.73,15.45-1,10.6-5.57,21.45-10.65,32.25-15.83a10.8,10.8,0,0,1,4.47-.91c8-.09,16,0,24,0a8.2,8.2,0,0,1,2,.12c13.53,3.34,27.06,19.5,26.55,31-.35,8-.16,16-.59,24-.37,6.82-3.16,12.94-7.07,18.42-1.19,1.66-3.45,2.66-5.36,3.7-9.16,5-18.48,9.67-27.51,14.88a92.83,92.83,0,0,0-13.52,9.65,37.4,37.4,0,0,0-7.27,8.57c-3.49,5.48-1.08,10.89,5.39,11.66a32.69,32.69,0,0,0,11.13-1.12c6.89-1.65,13.64-3.9,20.5-5.69,10.68-2.79,21.52-3.51,32.28-.73,15.39,4,25.43,14.43,31,28.73,2.88,7.42.76,15.39-3.1,22.44-4.6,8.4-11.34,13.83-21.07,15.72-12.09,2.35-17.69,10.88-17.92,23.74-.15,8.22,3.71,13.49,12.06,14.93,6.7,1.15,13.65,1.09,20.49,1.07,7.08,0,14.15-.74,21.23-.94,9.1-.24,19.6,8.21,21.21,17.07,1.55,8.61,1.94,17.21-1.55,25.52-2,4.82-2.42,9.83-2.42,15,0,7.94,4.67,11.75,12.44,9.76a41.9,41.9,0,0,0,6.29-2.12c8.73-3.78,17.64-3.82,26.73-1.64,4.09,1,8.24,1.74,12.39,2.47,6.69,1.18,9.73,4.11,10.13,10.9a97.56,97.56,0,0,1-.24,15.29c-.69,6.89.89,13.29,3.45,19.45,3.29,8,8.32,10.59,17.34,9.66q18.49-1.92,37-4a15.58,15.58,0,0,1,11.26,2.82c8.35,5.92,15.53,12.65,17,23.48,1,7.46.76,14.62-5.4,20.21a13.86,13.86,0,0,0-2,2.65c-3.07,4.51-2.75,5.92,1.55,9.36,7.34,5.85,16,7.4,25,7.59,7.78.17,15.56.15,23.33,0a9.69,9.69,0,0,1,7.61,3.21,27.31,27.31,0,0,1,7.89,16.46,36.24,36.24,0,0,0,1.8,8.39c1.73,4.47,4.79,7.34,10.16,6.71a29.39,29.39,0,0,1,7.32,0c7.45,1.08,15.14,1.72,20,8.81a4.32,4.32,0,0,0,1.67,1,8.14,8.14,0,0,0,1.31.39c2.48-1.42,3-3.47,2.34-6.2a63.29,63.29,0,0,1-1.44-9.18,18.32,18.32,0,0,1,.45-6.53c1.52-5.11,5.22-6.46,9.67-3.52,5.93,3.92,11.65,8,18.88,9.46,8.84,1.8,17.52,2.18,26.27-.43,5.43-1.62,10.26-3.74,13.78-8.59,1.86-2.56,4.43-5,8.94-4.64.52,1.94,1.4,4,1.54,6.06.6,8.82-.82,17.44-5.68,24.85a172.88,172.88,0,0,1-51.6,51.23,26.07,26.07,0,0,1-14.32,4.63c-3.06,0-6.1,1.06-9.17,1.39a13.86,13.86,0,0,1-5.14-.29c-2.47-.68-3.73-2.51-2.62-5.08a48.76,48.76,0,0,1,3.93-7.64c4.43-6.71,3.2-12.94-3.72-17.2a21.75,21.75,0,0,0-15.35-3c-4.13.69-8.13,2.19-12.25,3-3.85.73-7.9,1.78-11.68,1.32-23.55-2.89-46.61-8.06-69.63-14-21.53-5.5-41.22-15-61-24.29-33.91-16-68.08-31.33-103-45a412.38,412.38,0,0,0-39.58-13.59c-8.87-2.47-18.29-3.5-27.52-4-9.68-.54-19.53-1.23-29,2.14a17.33,17.33,0,0,1-7.24.74c-7.37-.7-13.93,1.5-20.5,4.49-7,3.2-14.71,5.17-21.42,8.9-13.64,7.59-25.94,17.14-35.86,29.31-8.35,10.24-18.22,18.8-28.51,26.86s-21,15.69-31.73,23.14a65.62,65.62,0,0,1-13,6.45c-6.77,2.7-7.5,4.57-3.29,10.75,2,2.94,4.2,5.74,6.14,8.71s3.09,6.34,1.81,10.31c-2.62,1-5,.37-7.45-1-8.19-4.36-15.76-2.65-21.73,3.87-12.27,13.42-24.39,27-31.13,44.37-2.49,6.41-5.58,12.59-8,19a39.31,39.31,0,0,0-2.93,11.47c-.83,14.48-3.62,28.58-7.34,42.52a32.74,32.74,0,0,0-.5,16.41,11.12,11.12,0,0,1,.45,3.27c-.22,3.21-2.67,4.91-5.51,3.52a14,14,0,0,1-4.24-3.9c-2.24-2.75-4-5.94-6.44-8.44-4.49-4.59-9.36-4.74-14.08-.52-5.27,4.71-9,10.11-8.43,17.87.62,8.85.43,17.75.6,26.63a13.83,13.83,0,0,0,.14,2.66c1.56,7.14,15,19.94,22.54,21.11,8.31,1.3,16.66,2.34,25,3.32a17.34,17.34,0,0,0,5.21-.63c6.84-1.37,11.78,1.14,16.23,6.48,10.78,12.91,18.43,27.67,26,42.5,4.84,9.55,12.13,16.88,19.73,24a14.84,14.84,0,0,0,11.64,4c3.54-.28,7.11,0,10.67-.06,9.32,0,14.62-5.35,14.65-14.74,0-4.89-.42-9.82.08-14.66,1.71-16.69-6.15-30.53-12.89-44.71-2.16-4.53-2.38-4.43-1.49-9.33,3.12-1.29,5.73,0,7.75,2.17,4.86,5.13,9.55,10.42,14.17,15.78,1.95,2.27,3.53,4.87,6.11,8.5l2.12-11.45c2.42,1.44,4.55,2,5.21,3.22,2.6,5,6.06,9.65,5.59,16-.56,7.69-.22,15.45-.19,23.18,0,2.56.2,5.15,3.58,7.38,1.13-5.6.32-10.41.66-15.13s.85-9.65,1.28-14.42c3.43-.35,6.62-.7,9.81-1,4.94-.45,8.67,2.72,8.92,8.55s-.35,11.51-.62,17.27c-.13,2.87-.63,5.76-.4,8.6.16,1.93,1.3,3.79,2,5.68l1.61-.24c.45-3,1-5.91,1.3-8.89.2-2,0-4,.09-6,.06-2.24,0-4.59,3-5.07s4.87.74,6.21,3.6c3,6.33,3.24,12.92,1.94,19.52-3.14,15.94-10.18,30.19-19.63,43.3-1.69,2.34-3.16,4.9-5.16,6.94-6,6.11-5.76,13.62-5.06,21.19.49,5.26,1.66,6.28,6.86,7.23a20.5,20.5,0,0,1,9.44,4.39c12.57,10.21,25.52,20,37.84,30.46,6.21,5.28,11.33,11.82,17,17.73,3,3.13,2.63,6.92,2.18,10.66-.29,2.38-1.85,3.48-4.3,2.64-8.57-2.92-17.48-5.13-25.56-9.06-5.63-2.74-10.09-7.87-15.1-11.9-9.7-7.8-19.64-15.24-31.25-20.08a18.62,18.62,0,0,0-4.32-1.67c-9.73-1.29-16.77-7.31-24.14-13-16-12.37-31.71-25-46.16-39.08-7.07-6.92-15.78-11.37-24.13-16.4-15.64-9.42-31.47-18.29-49.58-22.19a59.86,59.86,0,0,0-30.22.78c-1.9.56-4,1-5.52,2.21-9.11,7.11-19.76,8.23-30.77,8.84-7.92.45-15.78,1.93-23.67,2.94-2.62.33-5.3,1.11-7.87.86a20.39,20.39,0,0,0-16,5.1c-10.52,9.24-22,6.72-33,2.11-9.39-4-18.7-7.3-28.9-6.14-7.22.82-14.7,1.8-21.34,4.49-3.77,1.53-7.39,6.21-8.8,10.26-3.32,9.57-9.94,16-17.3,22.21a36.26,36.26,0,0,0-3.79,3.75c-3.3,3.77-7.35,5-12.38,5.13-11.5.31-23,1.44-34.47,1.94a11.87,11.87,0,0,0-7.15,2.93c-7.73,6-15.58,11.78-23.21,17.87a16.63,16.63,0,0,1-11,3.79c-3.12,0-6.23-.13-9.34,0-5.77.3-9.8-2.41-12.56-7.17-1.89-3.26-3.07-7-5.28-10s-5-6.39-8.3-8.24a55.56,55.56,0,0,0-14.34-5.22,10.9,10.9,0,0,0-11.23,4.35c-4.29,5.75-9.84,8.14-16.68,9.55-7.84,1.61-13.55,7.45-19.06,12.85-4.41,4.32-7.89,9.57-12,14.2-1.68,1.9-3.73,3.9-6,4.76-14.75,5.52-29.64,10.65-45.33,12.88a17,17,0,0,0-10.28,5.62c-4.58,4.87-9.13,9.55-16.48,10.29-2.39.25-4.89,2.21-6.77,4-4.92,4.63-10.8,6.65-17.27,7.87-7.83,1.48-15.63,3.23-23.33,5.29-9,2.41-15.14,8.24-20.11,16.23-4.71,7.54-11,13.72-21.44,13-6.84-.45-13.76.42-20.63.27a54.73,54.73,0,0,1-11.12-1.72,10.43,10.43,0,0,1-4.55-2.58c-3.4-3.18-2.63-7.3,1.85-8.58a82.29,82.29,0,0,1,15.58-3.07,14.29,14.29,0,0,0,8.48-3.18c6.7-5.79,14-11.12,19.68-17.82,8.53-10.1,18.87-18.1,28.33-27.1,4.18-4,8.26-8.07,12.48-12,3.49-3.25,3.5-7.62,3.58-11.71a187.39,187.39,0,0,0-.86-19.24,8.17,8.17,0,0,0-2.46-4.41c-6.47-6.64-14.73-7.71-23.35-6.73-4.34.5-8.27.83-11.75-2.5-2-1.92-3-3.94-1.76-6.49,1.14-2.35,2.12-5.12,4-6.71,6.19-5.21,13.17-9,21.63-9,9.09.1,18.18.23,27.26.56a6.71,6.71,0,0,0,6.47-3.78,16.34,16.34,0,0,0,1.9-11.52c-1.9-10.3-6.78-19.2-12.83-27.51-1.8-2.47-3.62-4.62-2-7.72,1.69-3.28,4.8-3.67,8-3.37,6.71.6,13.25,2.11,18.49,6.54,6.91,5.85,13.48,12.09,20.44,18.39,3.61-1.22,3.19-5.15,4.44-8,2-4.54,4.53-5.72,8.83-4.14,2.62,1,3,2.94,3.22,5.23.38,4.4,1,8.8,1.11,13.21.22,6.36,4.84,9.21,9.38,12,3,1.81,4.87.47,5.24-3.22.47-4.84.76-9.7,1.32-14.53.82-7.07,5.32-11.06,11.77-12.92a43.7,43.7,0,0,1,19.06-1.55,47.65,47.65,0,0,0,22.32-1.8c5.49-1.77,6.9-5.85,4.25-10.38-1.3-2.2-3.09-3.34-5.51-1.93a55.25,55.25,0,0,0-6.46,4.5c-3.84,3.07-4.83,3.13-8.63,0-4.91-4-5.54-4-10.69,0-5.47,4.25-10.43,2.81-12.59-3.65a23.8,23.8,0,0,0-1.39-3.73c-2-3.72-4.61-4.39-8.24-2.13-.93.58-1.64,1.5-2.54,2.14-4,2.88-6.31,2.66-9.89-.88-.31-.31-.49-.76-.8-1.07-3.1-3-4.32-3.08-8-.61-4.79,3.23-8.25,3-11.22-1.8-2.27-3.67-5.07-5.48-9.1-5.4-3.62.08-4.95-1.94-6-5-.77-2.16-2.29-4.06-3.47-6a11,11,0,0,0-2.48.79c-7.8,5.67-9.33,6.06-17.52.35-4.12-2.86-7.35-3.16-11.53-.78-4.55,2.58-8.69,1.59-12.13-2.6-3.78-4.62-4.6-10-3.43-15.72.73-3.55,4.61-6.31,8.44-6.3a29,29,0,0,1,4.6.65c9.21,1.57,17.55,0,24.92-6.17,2.68-2.24,5.92-3.8,8.91-5.66,4.55-2.83,9.16-4.64,13.5-.79,6.44-3.38,12.4-6.57,18.42-9.66,3.08-1.58,5.9-.44,7.72,2a127.29,127.29,0,0,1,7,11.19c1.07,1.77,1,4.51,4.59,4.63.49-3.09.82-6.27,1.51-9.36,2-8.78,6.06-10.6,13.83-6.39,3.9,2.11,7.9,4,11.83,6.12,2.58,1.36,4.87,1.66,7.27-.62a12.5,12.5,0,0,1,4.67-2.4c3.9-1.27,7.43-.87,10,2.82a39.51,39.51,0,0,0,3.2,3.54c2.85-1.76,5.42-3.41,8.07-5,2.85-1.66,5.05-1,6.52,2s2.86,6,4.46,8.93c3.07,5.61,12.12,6,15.59.67a4.81,4.81,0,0,0-1.08-6.51,14.26,14.26,0,0,0-3.61-1.65c-5.61-2-8.85-5.56-8.91-11.8,0-1.32-1.06-2.79-2-3.92-1.11-1.36-2.63-2.37-3.87-3.63-3.34-3.41-3.56-4.58-1.65-8.78a17.91,17.91,0,0,1,1.69-2.86c.63-.89,1.39-1.69,2-2.48-.7-5.06-4-6.38-8.35-6.86-8.51-.93-12.1-7.52-8.42-15.17a38.63,38.63,0,0,1,4.08-6.84c2.73-3.57,5.11-4,9.3-2,5.64,2.76,9.15,7.65,12,13,2.51,4.68,4.59,9.58,7.25,15.23,1.61-2.14,2.93-3.79,4.13-5.54.87-1.27,1.39-2.81,2.38-4,4.06-4.82,9.7-3.84,11.76,2a21.26,21.26,0,0,1,.68,4.55c.53,4.77,1.16,6,5.72,6.8a9.3,9.3,0,0,1,8,7c1.87,6.38,5.81,11.17,10.26,16,3.19,3.45,5.23,8.13,7.15,12.54,2.31,5.31.94,9.74-4.12,13.21-10.06,6.9-17,16.69-23.82,26.58a64,64,0,0,0-3.41,6.37c2.86,1.67,4.93,1.52,5.93-1.1,4.54-11.88,14.06-19.67,22.81-28.08,5.58-5.36,11.27-10.6,17.05-16-5.41-8.62-10.56-17.17-16.1-25.45-1.8-2.68-4.54-4.77-7-6.94-4.49-4-9.35-7.52-13.61-11.7-4.89-4.8-5.39-10.93-3.55-17.25,1.15-3.94,3.13-5.28,7-3.68,5.26,2.19,10.16,5.26,15.14,8.07,3.86,2.18,7.46,4.84,11.43,6.76,4.75,2.31,5.77,1.87,8.86-2.4,1.94-2.69,3.59-5.61,5.59-8.26,4.54-6,9.07-12,13.89-17.77,3.71-4.43,7.89-4.66,11.87-.41,4.3,4.59,7.58,10.21,7.94,16.5.57,10,.18,20,.1,30a18.58,18.58,0,0,1-.95,3.92c-3.64-.63-4.91-2.8-4.88-5.66,0-3.75.67-7.51.66-11.26,0-6.39.22-12.87-.77-19.13-.75-4.77-3.25-9.27-10.11-10-5.72,7.72-11.8,15.6-17.48,23.76-2.74,3.93-2.11,7.2,1,10.91a7.63,7.63,0,0,0,1.88,1.88c8.5,4.76,14.54,12.18,20.58,19.48,3.26,3.94,7.79,2.44,11.91,4.1.73,2.07,1.52,4.34,2.62,7.45,3.46-3.47,6.79-6.6,9.85-10s6.39-5.13,11.1-4.7c7.49.67,15,.75,22.54,1.41a10.24,10.24,0,0,0,8.47-2.7,28.53,28.53,0,0,0,7.33-31.49c-1-2.47-1.9-5-3.07-7.38-1.85-3.78-3.86-4.44-7.41-2.29a33.62,33.62,0,0,0-4.52,3.88,56.52,56.52,0,0,1-5.5,4.81c-4.69,3.13-8,2-10.75-3.07a57.73,57.73,0,0,0-4.68-7.21c-2.44-3.23-5.49-4.46-9.85-3.95-8.16,1-11.58-1.86-12.58-10-.54-4.38-.19-8.87-.21-13.32,0-3.49,2.07-5.2,5.23-5.87,1.08-.23,2.2-.26,3.3-.42,7.38-1.06,7.59-1.35,6.31-8.66-.7-4,.76-7.15,4.13-9,4-2.18,11.21-1.74,14.35,1.55,4.2,4.4,8.6,7.34,15.11,6.73,8-.74,13.15,12.87,10.79,18.15-1.33,3-3.48,3.8-6.37,3.68-2.21-.09-4.52-.65-6.6-.19a5.85,5.85,0,0,0-3.63,3.17c-.36.9.74,3.15,1.77,3.71,6.39,3.44,12.73,7.71,20.45,3.25,2.87-1.66,5.3-.74,6.52,2.22a18.16,18.16,0,0,1,1.63,7c-.19,10.42-.71,20.83-1,31.24-.11,3.3,0,6.6,0,9.84,3.55,1.87,5.4-.47,7-2.39,2.7-3.22,5-6.76,7.53-10.15,10.56-14.25,21.42-28.29,31.63-42.79,14.46-20.53,31.68-38.69,48.15-57.5a278.42,278.42,0,0,0,17.47-21.78,53.29,53.29,0,0,0,7.37-14.76c3.29-10.57,5.73-21.41,8.58-32.12.73-2.73-.53-4.18-2.83-5.19-2.7-1.18-4.11.38-5.37,2.42a7.72,7.72,0,0,0-1,6.91,33.92,33.92,0,0,1,1.28,7.16c1.24,13.07-3.73,24.35-10.46,35-7.28,11.52-16.46,21.48-26.4,30.72-2.31,2.15-4.77,4.85-9.1,3.83a37,37,0,0,1-.48-4.36c0-7.06-2.48-13.12-5.64-19.45-3-6-3.37-13.21-5.08-19.84-2.1-8.14-4.21-16.29-6.7-24.32-1-3.12-2.87-6-4.51-8.86-2.58-4.56-6.4-6.48-11.79-7.31-16.85-2.62-33.58-6-50.32-9.22a32.07,32.07,0,0,1-7.42-2.89c-11.81-5.62-23.71-11.08-35.32-17.08a261.75,261.75,0,0,1-24.12-14.1c-4.07-2.69-7.95-3.49-12.46-2.38-4.74,1.16-9.68,1.8-14.15,3.61-8.68,3.53-17.71,3.73-26.78,4-4.67.13-9.38-.38-14,.1-20,2.08-39.15-2-58.43-6.39a166.41,166.41,0,0,1-50.29-20.26c-9.31-5.65-12.53-14.82-11.45-25.2a38,38,0,0,1,4.47-13.71c9.36-17.3,22.12-32.06,35.41-46.43,5.86-6.34,11.27-13.11,16.54-20,3.28-4.27,2.86-6.28-1.77-9.22-3.89-2.47-8.22-4.24-12.82-6.55-2.37,3-4.6,5.41-6.4,8.13a283.1,283.1,0,0,1-36.77,45.44c-10.28,10.19-21.76,17.62-35.87,21.91-14.35,4.37-28,2.83-41.8-.86-11-3-18.61-10.79-25.21-19.68-4.37-5.88-9-11.56-13.26-17.53-8.43-11.86-18.21-22.32-30.3-30.52-3.37-2.29-5.42-5.57-7.74-8.89-7.44-10.63-11.7-22.91-18.48-33.83-5.86-9.42-12.35-18.44-18.29-27.81-3.92-6.17-8.07-12.36-10.84-19.07a164,164,0,0,1-9-27.74q-7.31-34.1-13.1-68.51c-1.11-6.54-2.13-13-3.75-19.49-.89-3.52-3.07-5.12-6.46-5.67a22.81,22.81,0,0,0-14.82,2.49c-11.56,6.17-20-1.17-21.3-10.24a135.22,135.22,0,0,0-3.93-17.5c-3.16-11.16-7.59-21.6-15.52-30.54-6.61-7.44-12-15.92-18.26-23.73a28.52,28.52,0,0,1-6.16-17.87c-.12-6.66.06-13.33-.08-20a11,11,0,0,1,3.54-8.3c6.89-7,14.35-13.15,23.23-17.56,17.15-8.53,26.83-23.42,33.36-40.64,2.26-6-.29-10.69-6-13.93-1.35-.77-2.84-1.29-4.16-2.1a11.34,11.34,0,0,1-5.85-8.41,80.2,80.2,0,0,0-2.3-9c-1.8.56-2.84.85-3.86,1.2-8.45,2.93-8.37,2.87-13.7-4-7.44-9.61-9-20.55-7.15-32.12,2.26-14.37,8.12-27.62,13.31-41.07,2.07-5.37,4.09-10.77,6.37-16,2.89-6.69,6.08-13.26,9-19.92,2.33-5.25,4.54-10.55,6.73-15.86,4.66-11.31,9.84-22.36,17.36-32.1,4.24-5.51,10.15-8.54,16.9-9.81,3.58-.68,7.19-.43,9.93,2.33,4.67,4.71,9.55,9.28,13.66,14.45a19.53,19.53,0,0,0,16,7.91c6,.08,12,.1,18,.56,2.81.21,5.52,1.48,8.31,2.13,4.25,1,5.62.06,6.55-4.19a29.2,29.2,0,0,0,.72-3.91c1-14.84,11.1-22.45,23.09-28.14,5.41-2.58,10.87-1.87,14.86,3.43,1.72,2.29,3.83,4.4,5.08,6.93,7.81,15.8,13.47,32.19,14.93,50,.8,9.67,3.2,19.2,4.62,28.83,1.2,8.1,1.4,16.38,3.16,24.33a241.08,241.08,0,0,1,5.23,64.7,27.4,27.4,0,0,1-19.5,24.49c-9.75,2.94-19.4-2.91-22-12.86q-1-3.85-2.15-7.66C192.76,637.92,191.53,635.94,188.69,635.67Zm663.46,389c1.22,4.81,4.54,6.74,8.19,8.6a172.44,172.44,0,0,1,16.83,9.37,37.31,37.31,0,0,1,8.49,8.34c3,3.92,2.56,5.71-.48,9.41-2.74,3.32-6.47,3.71-10.25,3.76a29.47,29.47,0,0,0-18.45,6.42c-8.06,6.31-16.7,11.89-26.7,14.68-5.18,1.45-10.06,2.49-12.81,8.13-1.28,2.62-4.78,4.08-8.14,3.21-3.18-.81-3.2-3.81-3.91-6.37-.46-1.65.33-4.34-3.45-4.51-.44,4.12-1,8.24-1.3,12.37-.5,6.33.42,12.17,4.19,17.69,2.16,3.16,3.1,7.28,4.07,11.1,1.64,6.44,3,13,4.24,19.51,1.62,8.72,3.71,17.44,4.25,26.24.49,7.95,3.27,14.62,7.49,21,7.08,10.61,14.9,11.78,25.31,4.28,4.85-3.5,10-6.55,15.11-9.69,2.83-1.75,6.13-2.87,8.64-5,17.58-14.71,34.59-30.11,47.68-49.09,7.46-10.82,15.11-21.36,24.5-30.57a63.3,63.3,0,0,0,5-5.36c5.51-6.88,12.7-12.39,16.18-20.94a5.28,5.28,0,0,1,7.16-3.07c2.38,1.18,3.49,4.16,2.2,7.5a54.88,54.88,0,0,1-4.3,8.21c-1.7,2.86-3.81,5.49-5.37,8.41-1.81,3.36-.37,5.69,3.36,5.71a9.91,9.91,0,0,0,3.82-.92c14.19-6,29.29-6.85,44.36-7.74a12.23,12.23,0,0,1,5.17.9c16.83,6.89,34.42,11.52,51.42,18.07,29.18,11.24,59.09,20.5,87.45,34,17,8.08,35.21,13.86,51.68,22.87,19.43,10.62,40.79,14.78,61.23,21.95,1.63.57,3.51.45,5.28.62,13.25,1.25,26.55,2.13,39,7.7a36.66,36.66,0,0,0,7.67,2.21c7,1.42,13.37-.27,19.65-3.94-3.08-2-6.17-3.84-9.48-4.47-14.74-2.81-27.5-10-39.83-17.94a46.25,46.25,0,0,0-17.18-6.76,63,63,0,0,1-9.7-2.14c-10.45-3.7-20.78-7.77-31.22-11.5-12.81-4.58-25.24-9.76-35.84-18.65a29.73,29.73,0,0,0-8.72-4.78c-13.3-5-26.54-10.16-40.11-14.27a70.87,70.87,0,0,1-19.79-9.13,97.59,97.59,0,0,0-14.22-8.54c-7.87-3.57-16-6.5-24.15-9.51a25.53,25.53,0,0,1-9.29-6.16c-6.31-6.24-12.89-12.2-19.43-18.2a15,15,0,0,0-10.31-4c-6-.08-12-.58-18-.58-8.08,0-15.77-.26-22.52-6.06-4.2-3.62-7.69-2.74-12,.9-.67.58-1.2,1.33-1.89,1.88-3.13,2.49-6,2.74-8.93,0-5.27-4.93-11.62-6.27-18.42-6.23-4.66,0-9.3.54-14,.73-10.52.43-17.2-8.06-14.12-17.95,1.53-4.9,3.33-9.65,7.84-12.78.82-.57,1.26-1.69,2.1-2.88l-4.26-3.06c-5.13,2.14-6.84,6.71-9.19,10.65s-4.87,6.89-9.52,7.53c-4.16.58-7.24,2.26-9.44,6.3s-5.18,4.3-8.72,1.62c-4.3-3.24-4.29-3.23-8.16.37-1.3,1.2-2.49,2.8-4,3.4-1.93.74-4.71,1.57-6.22.74-10.41-5.72-20.19-12.36-25.5-23.55-3.26-6.89-2.9-13.86,1.47-20.26a30.66,30.66,0,0,1,5.72-6.45c2.89-2.39,3.71-5.17,3.58-8.77-.21-6-.72-12.08.18-17.93,1.2-7.85-1.43-13-7-18.53-13.24-13.09-25.43-27.23-38.24-40.77-2.78-2.95-2.82-5.61-1.33-9a86.11,86.11,0,0,1,16.37-24.93,37.33,37.33,0,0,1,5.16-4.19c3-2.19,6.08-2.62,9,.22,2.71,2.61,5.83,4.91,8.1,7.86A39.28,39.28,0,0,0,887,891.89c6,3.56,11.32,7.84,12.75,15.3,0,.18.77.22,1.17.32,1.82-4.22.24-7.63-2.38-11-7.12-9-16.2-15.77-25.48-22.29-3.32-2.33-6.22-4.82-8.24-8.47-1.17-2.11-3.38-3.64-5.33-5.66-1.48,1.72-2.55,2.58-3.15,3.7-8.92,16.76-21.44,30.43-36.26,42.06-6.48,5.09-13.55,9.75-21.89,10.76-6.38.76-9.79,4.57-12.9,9.21-.7,1-.62,2.61-.89,3.94a15.14,15.14,0,0,0,6.89-3.35c7.63-6.32,16.42-10.48,25.57-14,6.1-2.37,11.54-1.44,15.71,3.53,6.37,7.58,14.54,13,22,19.21C863,942.22,867,952.25,872,961.63c2.37,17.63,2.1,35-5.36,51.61-1.9,4.22-4.27,7.67-9.22,8.75C855.56,1022.39,853.94,1023.75,852.15,1024.71Zm-69-327.11c-1.14-16.88-1.91-33.52-3.51-50.08-1.08-11.24-3.15-22.39-5.1-33.52-.91-5.22-2.79-10.26-3.88-15.46-3.05-14.59-6.44-29-13.41-42.39-1.85-3.54-4-6.91-5.88-10.44C738.81,522,726.61,498,713.75,474.48c-8.07-14.76-15.41-30-26.31-43.12-4.25-5.12-8-6-12.66-.13-.83,1-1.64,2.1-2.48,3.13-6.49,7.88-12.39,16.35-19.59,23.51-22.07,21.94-45.33,42.53-71.73,59.27-1.68,1.07-3.25,2.35-5,3.3a5.3,5.3,0,0,0-2.92,6.13,35.21,35.21,0,0,0,3.09,8.66c1.75,3.32,4.29,6.22,6.12,9.5a590.77,590.77,0,0,0,38.86,60.51c9.17,12.55,18.16,25.28,28.15,37.16,11.13,13.24,23.22,25.69,35,38.35,11.38,12.2,23.16,23.85,38.37,31.56a341.47,341.47,0,0,0,44,19c9.53,3.25,11.24,2.36,14-7.46a28.21,28.21,0,0,0,1-5.21C782.18,711.54,782.63,704.46,783.1,697.6ZM515.42,1190c4.25,2.72,6.83,4.81,9.75,6.17,14.26,6.64,27.52,15.13,42.29,21,13.3,5.25,26.59,9.94,40.63,12.36,19.23,3.33,38.52,6.33,57.78,9.54a48.3,48.3,0,0,0,21.71-.84c7.39-2.14,14.59-4.79,22.52-5.32,9-.6,10.62-2.86,12.34-11.93a28,28,0,0,0,.5-4c.38-8.43.57-16.86,1.15-25.27.36-5.3-1.11-10-3.2-14.73a99.33,99.33,0,0,1-5.83-16.22c-.79-3.23-1.85-5.93-4.39-7.88-4-3.09-8-6.51-12.44-8.84-8.06-4.18-16.52-7.58-24.75-11.45-7-3.28-14.66-5.78-20.68-10.39-9-6.88-18.22-13.36-27.41-19.94-12.73-9.11-23-20.82-33.76-32.08-1.07-1.13-1.94-2.67-3.25-3.26a5.2,5.2,0,0,0-4.16.22c-.8.46-1.36,2.35-1.12,3.4a12.13,12.13,0,0,0,2.39,4.7c3.79,4.71,4.21,10,3.5,15.73-.89,7.13-3,8.62-9.64,6.36-2.51-.86-4.91-2.07-7.41-3a22.77,22.77,0,0,0-5.71-1.69c-9.7-.85-19.42-1.62-29.14-2.18-7.31-.43-14.64-.67-22-.66a15.79,15.79,0,0,1-9.91-3.15,27.45,27.45,0,0,0-14-5.71,12.17,12.17,0,0,1-5.49-2.13c-5.76-4-12.39-7.23-14.47-14.86a6.4,6.4,0,0,0-1-1.71,12.71,12.71,0,0,0-21.18.26c-2,3-1.55,5,1.91,6.16a68,68,0,0,0,10.38,2.12c2.8.46,5.63.7,8.26,1,1.48,7.35,1.31,7.72-4.48,10.13-1.43.6-2.93,1-4.34,1.69-5,2.24-5.65,3.86-3.91,10.84,4.22-.89,8.47-1.84,12.74-2.68,5.93-1.17,7.85.81,7,7.26a24.69,24.69,0,0,0-4.19,1.77c-2.32,1.47-2.21,4,.25,5.15a12.31,12.31,0,0,0,4.5.82c3.11.12,6.24-.17,9.32.12,1.58.15,3.84.8,4.38,1.91s-.06,3.48-.93,4.78c-1.34,2-3.6,3.35-4.94,5.34-.84,1.26-1.42,3.53-.82,4.68s2.82,2.12,4.29,2.06c3.53-.14,7-1.11,10.55-1.39s7.1-.65,10,2.76c-.88,1.18-1.6,2.24-2.43,3.2s-2,1.81-2.77,2.88c-2.39,3.28-1.24,6.3,2.83,6.41a30,30,0,0,0,9.69-1.71c4-1.28,7.8-3.2,11.74-4.72,2.94-1.13,5.93-1.83,8.58.93l-3,7.17c4.61,4.4,9.4,3.29,14,1.39,3-1.26,5.75-3.31,8.6-5,2.17-1.31,4.61-1.34,6.07.5a7.24,7.24,0,0,1,.94,5.39,15.39,15.39,0,0,1-3,5.88c-9.64,12.54-20,24.33-33.78,32.62C523.08,1184,520.09,1186.54,515.42,1190ZM196.76,986.42c-4.25-.21-4.63-.17-4.92-3-.92-9-2.42-18.13-2.05-27.14.47-11.2-1.3-21.59-6.43-31.44-3-5.67-3.84-11.6-3.67-18,.26-9.17-1.22-18.11-5.51-26.42a16.23,16.23,0,0,1-2.13-6.22c-.54-10.2-1.71-20.49-.81-30.59A76.24,76.24,0,0,0,170,820.58a79.66,79.66,0,0,0-6.32-18.77c-4-8.12-9.19-15.7-14-23.43-.7-1.13-2.14-1.79-4.39-3.58-.64,4-1.31,6.64-1.46,9.36-.45,8.19-.95,16.38-1,24.57,0,9.09.13,18.2.82,27.25.8,10.58,4.39,20.86,3.5,31.68-.17,2.08,1.11,4.25,1.59,6.41,1.57,7.14,3.79,14.22,4.48,21.45,1.88,19.68,4.35,39.24,8.85,58.52,5.41,23.14,13.23,45.56,20.15,68.25,3.5,11.49,7.23,22.87,13.27,33.32,5.1,8.82,11.6,16.48,20.89,20.91a211.71,211.71,0,0,0,23.48,9.08c3.27,1.11,6.95,1.26,10.47,1.38,4.88.17,9.77-.16,14.66-.17a34.46,34.46,0,0,0,24-9.84c13.31-12.74,25.77-26.36,38.49-39.71,4.36-4.58,4.4-8.83,0-13.52a70.54,70.54,0,0,0-9-7.88,27.65,27.65,0,0,1-8.9-11.36c-3.15-7.34-6.43-14.64-9.94-21.81-3.23-6.63-7.29-12.79-13.1-17.45a27.08,27.08,0,0,1-8.39-10.94c-3-7.21-7.83-12-15.85-13.61-2.77-.54-4.88-.87-7.48.64-4.62,2.67-5.74,1.93-7.86-3-1.46-3.43-3.38-6.67-5.17-10-1.3-2.37-3.37-3.28-6.1-3.23-3.27.06-6.58-.55-9.8-.22a10.46,10.46,0,0,0-5.92,2.55,43.47,43.47,0,0,0-5.94,7.92c-1.52,2.38-2.66,5-4,7.54-1.53,0-2.63,0-3.73,0-7.16-.17-7.5,0-8.16,7.08-.51,5.52-.58,11.08-.78,16.62C197.15,973.23,197,979.82,196.76,986.42ZM727.62,475.7l1.37-.65c-.21-4.75-.18-9.53-.69-14.25-1.26-11.69-3.07-23.33-4.12-35-2-22.13,2.38-43.76,5.85-65.43.75-4.67,3.64-6.56,6.76-5.37,2.43.93,2.54,3.92,1,8.23a30.07,30.07,0,0,0-2,9.52c-.21,14.23,0,28.45-.12,42.68,0,6.23.28,12.31,2.14,18.39,1.41,4.62,1.74,9.59,2.35,14.43,1.25,9.89,2.29,19.82,3.57,29.71.61,4.71.86,9.15-2.11,13.38-2.18,3.1-2,6.58-.3,10.13,3.7,7.83,6.88,15.91,10.76,23.64a172.12,172.12,0,0,0,10.75,18.37c2.65,4,5.48,8.1,10.22,10.11,5.31-2,9.16-5.57,12.74-9.58a10,10,0,0,0,2.08-10.52c-.89-2.74-1.82-5.48-2.55-8.27-3.46-13.3-6.93-26.6-10.22-39.94a48.29,48.29,0,0,1-1.59-11.12c-.2-38.22,0-76.45-.47-114.67-.16-12.26,1.17-23.84,7-34.75a40.23,40.23,0,0,0,3.35-9.39,81.11,81.11,0,0,0,1.25-9.17,22.81,22.81,0,0,0-3.18-.65,24.31,24.31,0,0,0-5.33.08c-15.65,3.06-31.44,5.61-45.81,13.23-11,5.82-22.23,11.14-33.08,17.19a54.72,54.72,0,0,0-19.41,17.94c-1.52,2.34-3,5.16-3.17,7.84q-1,17.63-1,35.28a39,39,0,0,0,2.17,11.71,7.55,7.55,0,0,0,4.18,4.46c8.82,2.63,15,8.59,20.2,15.62,8,10.91,15.69,22.08,19.77,35.26a33.44,33.44,0,0,0,3.76,7.75C724.63,473.36,726.28,474.43,727.62,475.7Zm-94-215.37a281.38,281.38,0,0,0,69.92-12.51,60.66,60.66,0,0,1,11-2c6.57-.79,13.37-.58,19.71-2.21a189.7,189.7,0,0,0,25.76-9,298.09,298.09,0,0,0,28.22-13.37c7.75-4.23,8.3-6.36,5.41-14.64-3.22-9.21-6.32-18.54-10.59-27.27-8.66-17.65-12.48-36.46-14.79-55.69-.43-3.6-1.5-6.6-4.08-8.74-6.12-5.09-12.17-10.4-18.89-14.6-8.07-5-16.9-8.87-25.19-13.59-3.78-2.15-7.21-2.17-10.65-.06a178.6,178.6,0,0,0-15,9.89,79.4,79.4,0,0,1-18.91,11,65.25,65.25,0,0,0-14.65,7.77c-3.6,2.67-7.11,6.36-8.86,10.38-2.54,5.82-3.6,12.31-5,18.59a17.92,17.92,0,0,0,0,6.61c.67,4.05,2,5.12,6.24,5.4s8.41.41,12.63.55c20.38.64,40.41-.52,58.57-11.34a9.38,9.38,0,0,1,3-1.46c2.3-.41,4.78-1.13,7-.67,17.75,3.7,24.6,19.29,25.12,31.25.44,10.33-4,16.11-14,19a23.1,23.1,0,0,1-5.86,1.07c-6.41.12-12.84.28-19.23-.07-4.22-.23-7,1-9.51,4.52-3.3,4.69-6.71,9.58-11.06,13.21-9.3,7.75-19.89,13.63-32,15.6-10.48,1.71-21.11,2.64-31.7,3.48-4.5.36-7.53,1.82-9.33,6.07-1.55,3.67-3.72,7.09-5.23,10.78a24.44,24.44,0,0,0-1.81,7.7c-.23,4,1.11,5.19,5.11,5C627.83,261,630.7,260.58,633.57,260.33Zm-83.39,475.5c-1.5.72-2.54.9-3,1.51-3.42,4.19-8.22,4.8-13.1,5.43a92.64,92.64,0,0,0-26.16,7.41c-5.06,2.26-6.25,4.86-4.69,10.06a29.49,29.49,0,0,0,2.11,4.87c9,17.57,17.82,35.26,27.21,52.63,11.29,20.89,22.45,41.91,34.91,62.1,8.35,13.53,18.86,25.73,28.44,38.5a30.38,30.38,0,0,0,3.59,3.93c4.06,3.84,9.92,4.65,14.57,1.35,14.85-10.55,29.65-21.2,41.77-35,5.55-6.31,5.56-12.21.18-18.35-4.08-4.66-8.15-9.35-12.33-13.94-10.76-11.8-21.85-23.32-32.29-35.4-8.27-9.56-15.31-20.21-23.78-29.58-7.67-8.49-13.89-17.85-19.94-27.41-4.76-7.5-9.3-15.14-13.95-22.7C552.66,739.56,551.55,737.94,550.18,735.83ZM792.4,719.94h-.29c0,3.55.36,7.15-.1,10.65a47.05,47.05,0,0,1-2.8,11.56c-2.29,5.61-4.43,6.4-10.39,5-7.32-1.72-14.67-3.34-21.93-5.28-6.19-1.66-12.38-3.43-18.37-5.67-6.42-2.4-8.48-2.77-12.92,2.5a141.79,141.79,0,0,0-14.67,20.48C699,779.82,690.48,802,681.77,824.12c-3.09,7.84-2.51,9.83,5.15,13.73,7.5,3.82,15.21,7.07,23.64,8.66a87.65,87.65,0,0,1,17.81,5.28c8.57,3.62,16.81,8,25.18,12.14,6.23,3.06,8.15,2,8.31-4.67.26-10.66.32-21.32.79-32a57.13,57.13,0,0,1,2-12.37c2.5-9.21,6.66-17.67,10.94-26.26a123.62,123.62,0,0,1,29.28-37.58,123.59,123.59,0,0,0,20.94-24c2.88-4.29,4.66-9.52,6-14.58,1.3-4.88-.55-7-5.62-7.45-7.51-.66-15.05-1.06-22.58-1.38a24.47,24.47,0,0,0-6.59.74c-3.12.73-5,2.52-4.69,6.15C792.61,713.7,792.4,716.83,792.4,719.94ZM592,776.73c1.34-1.24,2.2-1.7,2.54-2.41,2.4-5,3.75-9.7-.36-14.79-10.22-12.68-6.93-30.19,4-41.06a38.75,38.75,0,0,1,30-11.76c17.65.59,35,12.65,41.13,29a12.43,12.43,0,0,1,.47,5.79c-2.38,17.24-11.06,30.23-26.75,38a169,169,0,0,1-19.13,7.64c-6.84,2.39-9.48,6.3-8.48,13.45a30.34,30.34,0,0,0,7.93,16.61C632,826.38,641.06,835.11,650,844c4-2.28,5.25-6,6.21-9.54,1.56-5.76,2.56-11.68,3.89-17.5a24.68,24.68,0,0,1,1.81-5.63c13.16-25.94,27.6-51.17,42.67-76a60.64,60.64,0,0,1,4.75-6.35c2.59-3.24,2.63-4.24-.26-7.37-1.2-1.3-2.57-2.44-3.85-3.68-7.83-7.52-15.53-15.17-23.5-22.54-6.65-6.17-13.32-12.38-20.53-17.86a24.47,24.47,0,0,0-18.23-4.8c-15.16,2-29.37,8.4-44.72,9.53a3.87,3.87,0,0,0-1.29.31c-10.61,5-21.3,9.94-31.78,15.25a28,28,0,0,0-11.48,10.85,9,9,0,0,0-.73,8.79C562.14,739.45,576.78,757.79,592,776.73ZM147.65,576.08l-.77-2c-3,.51-6,.65-8.84,1.61a134.59,134.59,0,0,0-14.77,6,9.1,9.1,0,0,1-9.46-.88c-1.6-1.11-2.71-4.08-2.68-6.18.07-3.63,3.35-4.85,6.35-5.93,14.87-5.33,30.06-7.42,45.81-5.08,3.62.53,7.38.08,10.93.08,1.29-3.56-.28-5.46-2.71-7.09-1.63-1.1-3.93-2.06-4.56-3.64-3.33-8.32-5.91-17-2.32-25.82a65.66,65.66,0,0,1,19.31-25.95c4.84-4,9-3.78,12.07,1.66a46,46,0,0,1,5.18,14.23c2.64,14.52,2.1,29.18.52,43.8-.55,5.06-1.84,10.09-1.9,15.15-.24,18.22-.1,36.44-.1,54.66,0,.45-.08.89-.05,1.33.58,7.56,8,11.31,14.33,7.27,4-2.56,6.15-6.43,7.22-10.82a78.69,78.69,0,0,0,.71-33c-2.64-14.21-5.37-28.3-5-42.87.19-7.51.62-15.33-1.11-22.52C211.5,512.25,206,494.64,201,477a18.66,18.66,0,0,0-2.16-4.12c-3.09-5.22-5-5.84-10.19-3a23.72,23.72,0,0,0-4.74,3.62,29.5,29.5,0,0,0-9.35,18c-1,8.61-6.49,14.37-11,20.84-1.54,2.18-3.44,2.39-5.84,1.74-3.4-.91-4.45-3.09-4.44-6.42s-.41-6.25-4.75-6.68c-10.65-1.06-21.26-1.6-31.7,1.54-2.34.7-4.77,1.74-6.9-.27-2.48-2.34-.56-4.94-.21-7.47.29-2.05.94-4.59.07-6.16a36.64,36.64,0,0,0-6.89-8.88c-3.38-3.16-8.36-5.44-12.17-2.82-5.36,3.69-9.6,9-14.12,13.88-.53.56.27,2.37.57,4.36a67.71,67.71,0,0,1,5.43-4.67c2.66-1.81,4.39-1.22,5.77,1.74a7.14,7.14,0,0,1,.83,2.51c.29,6.83,3,12.2,9,15.73a15.3,15.3,0,0,1,2.38,2.32,50.22,50.22,0,0,0,18.28,10.65,9.29,9.29,0,0,0,9.35-1.39,46.69,46.69,0,0,1,8.46-5.27c3.92-1.8,6.7-.26,7.14,4,.24,2.25.06,5.23-1.23,6.84-6.36,8-12.58,16.19-20,23.11-5.76,5.38-11.41,10.45-14.36,17.88-1.47,3.72-4.13,4.7-7.9,4.5a79.49,79.49,0,0,0-12.63.26c-4.68.51-5.91,1.67-6.07,6.17-.13,3.84-2.13,5.5-5.27,6.7a35.14,35.14,0,0,0-7.25,3.26c-3,2-3.38,5-1,7.3,4.93,4.8,10.07,9.39,15.21,14a6.55,6.55,0,0,0,3.5,1.7c6.18.53,12.38,1,18.58,1.15a11.46,11.46,0,0,0,10.59-5.77,8.4,8.4,0,0,1,2-2.62c9.19-6.45,15.9-15.42,23.69-23.29C143.56,579.88,145.63,578,147.65,576.08ZM122.39,716.69c-3.22,2.5-6.19,1.93-8.77-.22a27,27,0,0,1-5.89-6.25c-3.46-5.67-8.79-7.94-14.84-9-11.44-2.06-21.43,1.91-30.8,7.92-7.06,4.53-7,7.33.21,12,.37.24.75.46,1.14.68,2.11,1.18,3.39,2.79,3,5.4s-2,4.61-4.64,5a37.63,37.63,0,0,1-7.87.06c-8.66-.74-17.34-1.45-25.7,1.54-10,3.56-14.53,14.84-9.11,23.88a100.86,100.86,0,0,0,13.76,17.85A67.37,67.37,0,0,1,48.42,800c2.84,8.12,4.78,16.56,7.19,24.85A28.2,28.2,0,0,0,58,831.62c2.6,4.29,4.92,4.87,8.6,1.65,4.23-3.71,9.25-5.11,14.4-6.45,4.71-1.24,9.51-2.22,14.15-3.7,6.84-2.2,10.63-8.17,10.19-15.27-.38-6.19-.74-12.39-1-18.59-.31-6.65-.19-13.34-.82-20-1.24-12.9,5.67-21.44,15.09-28.38,4.68-3.45,9.76-2.6,14.06,1.27,3.49,3.14,6.79,6.47,6.26,11.85-.19,1.86.44,4,2.73,3.59a5.81,5.81,0,0,0,3.59-3.12c1.27-3-.06-5.77-2-8-5.64-6.33-11.38-12.59-21-12.34a18.25,18.25,0,0,1-4.59-.74c-4.69-1.13-5.92-3.91-2.92-7.66a19.52,19.52,0,0,1,6.75-5.13c3.17-1.51,6.73-2.19,10.08-3.34,1.77-.61,3.46-1.47,6.22-2.66l-14.76-8.06C122.79,710.79,122.58,713.84,122.39,716.69ZM510.2,665.55c.15,9.66,4.56,15.49,11.25,19.81,5,3.24,10.45,5.89,15.32,9.35,7.88,5.58,6.63,6.78,15.56-.61.52-.42,1-.85,1.57-1.23,15.34-11,30.8-21.84,50.28-24.36a70.24,70.24,0,0,0,17.76-5.24c5.06-2.09,10.54-3.24,15.92-4.46,2.14-.48,5.08.05,5.51-2.51.29-1.74-1-4.09-2.24-5.7-7.76-10.26-15.66-20.41-23.56-30.57-7.11-9.16-8.93-9.63-19.58-5.19-2,.85-4,1.84-6,2.83-6.15,3.07-12.37,6-18.4,9.3-12.07,6.58-24,13.37-36,20-3.27,1.81-6.53,3.69-9.95,5.17-5.52,2.41-11.09,4.69-15.07,9.44A20.54,20.54,0,0,0,510.2,665.55Zm246.18,792.1a37,37,0,0,1-22-4c-3.94-2-7.69-4.42-11.58-6.56a11.37,11.37,0,0,1-5.49-7.17c-2.47-8-2.5-16.15-1.8-24.39.77-9.1,1.23-18.22-1.87-27-2.3-6.53-7.73-7.66-12.07-2.32a44.2,44.2,0,0,0-6.34,10.88c-6.32,15.24-16.86,27-29.6,37.06a16.28,16.28,0,0,1-8.24,3.83,102.71,102.71,0,0,0-14.22,3.27c-4.84,1.4-7.82,5-9.36,9.64-1.38,4.23-.56,5.88,3.38,8.13,5.1,2.92,10.68,2.7,16.22,2.53a79,79,0,0,1,40.82,10c4.49,2.44,9,4.84,13.56,7.14a24.78,24.78,0,0,0,4.95,1.78,53.71,53.71,0,0,0,31.33-1.47c7.29-2.49,15-3.74,22.51-5.65,2.57-.65,5.29-1.22,7.51-2.55,1.71-1,3.59-3.06,3.87-4.88a5.91,5.91,0,0,0-4-6.33,25.59,25.59,0,0,0-7-1.83C763.5,1457.42,759.93,1457.65,756.38,1457.65Zm17.79-890.91c-.34,6.27,2.11,12,4,17.89a134.58,134.58,0,0,1,3.41,13.46c2.17,10.19,4.18,20.4,6.28,30.6a11.59,11.59,0,0,0,6.07,8.25c10.28,5.71,20.4,11.7,30.67,17.43a11.44,11.44,0,0,0,5.64,1.54c7.31-.22,14.62-.8,21.93-1.21,2.62-.15,4-1.41,4.38-4.05.39-3.07.93-6.13,1.36-9.21.76-5.5.15-6.34-5.19-7.85-2.74-.78-5.91-1.09-8.08-2.7-6-4.45-12.78-7-19.67-9.55a22.49,22.49,0,0,1-7.93-4.55,60.56,60.56,0,0,1-16.45-28.49c-2.22-8.56,2.17-14.11,11-15,15.91-1.55,29.19,4.19,40.74,14.54,4.11,3.69,7.63,8,11.49,12,3.47,3.59,6.79,7.53,13.17,7.19,0-2,.41-3.83-.06-5.37-4.31-14.3-9.28-28.19-21-38.53-7.84-6.9-16.56-12.87-26.58-14.48-14.51-2.35-28.78.17-41.35,8.81C783.66,560.49,779.23,563.37,774.17,566.74ZM582.66,927.88c1-7.2.69-12.89-6.59-16.06-2.05-.9-3.81-3.06-5.07-5.05-4.4-6.92-8.67-13.94-12.72-21.07-13.61-23.93-27-48-40.68-71.86-4.83-8.47-9.55-17.09-15.29-24.92-5.41-7.38-10.82-14.56-14-23.23a41,41,0,0,0-4.45-8.16c-.88-1.33-2.46-2.21-4.59-4-.94,2.7-2.12,4.47-2,6.18.3,7-2.1,13-5.44,18.9a16.78,16.78,0,0,0-1.74,5,6.31,6.31,0,0,0,3.9,7.54c1.21.53,2.57.71,3.8,1.2,15.45,6.1,28.65,15.05,37.15,29.79q8.48,14.7,16.67,29.57c10.54,19,20.84,38.2,31.57,57.12,2.78,4.9,3.27,9.25,1.17,14.4a21.54,21.54,0,0,0-1.24,8.43c.09,4.43.72,8.85,1.19,13.26.9,8.53,3.34,16.41,9.11,23.1,5.93,6.87,11.83,13.81,17.28,21.07,3.54,4.71,7.42,7.1,13.5,6.33,3.9-.5,6.51,3.43,4.76,7.07-1.07,2.24-3.26,4.1-5.3,5.66-1.88,1.44-4.24,2.25-6.4,3.34-.18,4.91,2.35,8,5.73,11.25,4.37-5.83,9.1-7.1,15.16-3.23,3.15,2,5.39.88,6-3.36.87-6.13,4.48-10.4,7.91-15a56.94,56.94,0,0,0,6.85-11.35c1.25-2.93,1.44-6.44,1.45-9.69a5.85,5.85,0,0,0-2.51-4.29c-8.09-4.54-16.35-8.78-24.57-13.12-3.73,7.65-5.59,8.27-12.64,5a20.31,20.31,0,0,1-2.33-1.29,59.41,59.41,0,0,1-23.91-29.48c-1-2.52-1.14-5.35-1.75-8.45ZM173.74,1041.23l1.78-.58c2-3.85,0-7.54-1.22-11.11-2.75-7.71-5.92-15.28-8.66-23a343,343,0,0,1-15.16-56.45c-2-11.34-4.09-22.64-6.15-34-1.47-8.06-3-16.11-4.41-24.19-1.34-7.84-1.9-15.86-3.88-23.53-2.12-8.2-4.26-16.33-4.08-24.83q.36-16.64,1.18-33.24c.24-4.68-.54-8.86-3.9-12.24s-6.47-3.26-8.51.91a51.12,51.12,0,0,0-4.67,13.73c-2.32,13.74-5,27.47-4.44,41.54a13.87,13.87,0,0,1-.36,4c-2.31,9.26-.68,18,3,26.62a31.89,31.89,0,0,1,1.7,6.36c1.54,8,2.83,16.11,4.56,24.09,1.22,5.62,3.11,11.08,4.53,16.65,1.36,5.36,2.1,10.92,3.82,16.15a293.1,293.1,0,0,0,24.92,56.5c3.47,5.93,6.5,12.12,9.78,18.16S170.35,1035.08,173.74,1041.23Zm276.94-36.82-1.49.81c-3.06-3.15-9-3.58-8.34-10.38.11-1.14-2.3-3.36-3.83-3.65a14.19,14.19,0,0,0-7.12.8c-5,1.82-9.75,4.27-14.74,6.12a27.88,27.88,0,0,1-9,2c-5.71.06-8.82-4.71-6.71-10,1.4-3.49,3.49-6.7,4.93-10.18,5.36-12.88,11.39-25.55,15.65-38.79,5.63-17.48,10.07-35.35,17-52.42a8.51,8.51,0,0,0,.6-2.58c1-15.26,7-29.17,11.61-43.48,3.54-10.95,6.35-22.13,9.32-33.26a15,15,0,0,0,.35-6.59,6.05,6.05,0,0,0-3-3.85c-.83-.39-2.67.93-3.8,1.81a6.09,6.09,0,0,0-1.83,2.73c-2.62,7.29-5.57,14.49-7.6,21.94-3.19,11.76-5.32,23.81-8.66,35.52-4.87,17-11.25,33.69-13.54,51.43a15.12,15.12,0,0,1-2.08,6.26c-4.76,7.2-6.1,15.6-8.89,23.51-5.08,14.4-11,28.51-16.53,42.74-2.49,6.4-5.43,12.67-7.36,19.23-3.5,11.92-6.3,24-14.44,34-3.37,4.14-2.52,6.36,2,9.28,3,1.93,6.47,3.11,9.24,5.26s4.76,5,7.47,7.95c2.45-2.86,4.77-4.79,6.07-7.25,5-9.38,9.67-18.92,14.4-28.44,3.44-6.93,6.08-14.36,10.31-20.76,4.9-7.43,12.39-7.55,17.59-.39,4.8,6.61,11.35,11.19,16.85,16.94,1.6,1.69,3.52,3.45,5.7,1.75,1.54-1.2,3.41-3.72,3.12-5.26a52.86,52.86,0,0,0-4.43-13.71,19.64,19.64,0,0,0-11.73-10.23C448.94,997.72,449.81,1001.07,450.68,1004.41Zm158.25-68.53c-5-.21-7.17,1.52-7.59,5.45-.39,3.66,1.48,6.64,5.32,7.09,12.68,1.48,23.84,7,34.55,13.3,4.6,2.72,8.62,3,13.09.71,10.22-5.32,20.78-10.14,30.48-16.29,5.26-3.34,9.15-8.89,13.38-13.68a6.72,6.72,0,0,0,1.18-4.86c-1.43-10-4.55-19.44-10.94-27.52a23.7,23.7,0,0,0-13-8.72c-3.7-.94-7-.68-9.87,2.1-3,2.93-6.69,5.43-8.94,8.86-5.5,8.41-13.06,14.38-21.12,20-4,2.78-7.85,5.82-11.74,8.78C619.08,934.58,614.66,938.66,608.93,935.88ZM132.59,670.39c2-.94,4.2-2.1,6.46-2.93,10.27-3.8,18.38-11.09,25.77-18.46,9.2-9.18,16.65-20.15,24.63-30.52a9.9,9.9,0,0,0,1.61-6.06c-.24-5.53-1.38-11-1.38-16.55,0-6.46-2.83-11.5-6.56-16.28-3.19-4.1-5.43-4.32-9.24-.64a30.3,30.3,0,0,0-4.31,5.87c-1.39,2.26-2.55,4.67-3.78,7a10.75,10.75,0,0,1-8,6.17,36.55,36.55,0,0,0-17.57,9c-11.47,10.4-21.2,21.83-24.69,37.66-1.23,5.57-2,10.81-.55,16.27a97.12,97.12,0,0,0,3.26,10.13,12,12,0,0,0,3,4.21c2.59,2.42,5.45,4.55,8.15,6.85s5.4,2.47,8.08-.12C132.07,674.52,132.07,674.52,132.59,670.39Zm88.12,424.2c-.47,1.15-.82,1.58-.76,1.94a3.74,3.74,0,0,0,.75,1.78c6.32,7.15,12.58,14.29,21,19.24,8.68,5.1,18,5.63,27.64,5.15a45.75,45.75,0,0,0,23-7.69c7.18-4.72,13.61-10.67,20-16.52,4.55-4.19,8.16-9.39,12.67-13.63,11.6-10.89,18.42-24.85,25.35-38.75a4.86,4.86,0,0,0-.46-4.12c-.42-.63-2.59-.68-3.59-.2a34.22,34.22,0,0,0-6.73,4.21c-10.23,8.32-18.3,18.67-26.59,28.8a28.9,28.9,0,0,1-5.64,5.52c-8,5.55-16.05,11.16-24.41,16.19-3.89,2.35-8.44,4.41-12.87,4.85-9.46,1-19,.57-28.54,1.11a26.69,26.69,0,0,1-14.58-3.67A72.09,72.09,0,0,1,220.71,1094.59ZM501.85,739.12c2.18-.52,5.91-.45,8.37-2.19,4.43-3.13,9.11-4.19,14.28-4.65a40.46,40.46,0,0,0,10.39-2c8.63-3.2,10.88-12.27,4.15-18.31a108.87,108.87,0,0,0-19.32-14c-6-3.35-11.16-7.13-14.64-13-3.87-6.56-8.73-7.51-15.22-3.66a93.29,93.29,0,0,0-15.74,12.07c-7.8,7.24-9.38,17.1-5.15,26.8C475.05,734.1,486.93,738.05,501.85,739.12ZM328.78,966.34c-4.35-1.06-7.5-1.75-10.6-2.63-2.12-.59-4.12-1.88-6.24-2.1-6-.63-9.3,3.29-7.6,9a38.86,38.86,0,0,0,3.13,7.34c4.61,8.59,9.34,17.14,14.08,25.67a10.7,10.7,0,0,0,2.14,2.48q11.56,10.53,23.2,21c3.78,3.39,4.6,3.63,8.68.94a30.33,30.33,0,0,0,7.36-6.6,147.81,147.81,0,0,0,9.17-13.87c2.85-4.73,2-8.4-2.9-11.1a31.49,31.49,0,0,0-8.73-3c-6.28-1.35-12.64-2.33-19-3.53-3.44-.66-5.48-2.61-5.58-6.35-.37-14-.86-28.06,10-39.24a12.09,12.09,0,0,0,1.35-2.23c-4.26-1-4.18-.8-6.89.54C331.14,947.2,329.42,955.8,328.78,966.34Zm256.55-389.2c-.53-4.4-2.72-6.27-5.43-7.42s-5.81-2.57-8.81-2.83A59.2,59.2,0,0,1,540,555.14c-10.14-7.49-21.66-3.9-28.23,7.1,1.34,3.88,4.78,5.29,8.22,5.84,7.54,1.21,13.48,5.23,19.34,9.66a57.25,57.25,0,0,0,8.94,5.73,23.78,23.78,0,0,0,8.05,2.26C567.13,586.73,575.58,580.12,585.33,577.14Zm113.42,516.72c3.2-2.6,6.45-5.2,7.73-9.45,3.06-10.16,8.82-18.83,14.83-27.37,2.55-3.63,5.11-7.25,7.8-10.77,2-2.64,2.39-5.23.23-7.86-2.36-2.86-5.25-2.1-7.8-.52a97,97,0,0,0-7.95,6c-3,2.3-5.74,4.91-8.9,6.89-7.65,4.8-16.21,7-25.11,8.12-1.74.21-3.66.2-5.11,1a5.26,5.26,0,0,0-2.22,3.62c-.09.72,1.51,1.87,2.56,2.44a30.65,30.65,0,0,0,4.37,1.57c12.19,4.35,13.1,2,15,17.46C694.62,1088.28,695.1,1091.55,698.75,1093.86Zm-313.61,1.35-1.14-1.29a23.64,23.64,0,0,0-3,2.31c-6.76,7-13.34,14.23-20.23,21.13S345.18,1130,341,1139.51c-1.24,2.84-3,5.44-4.36,8.23a16.15,16.15,0,0,0-1.66,5c-1.21,10.42,4.65,21.26,14.18,25.63a206.79,206.79,0,0,0,20.37,8.14c23.14,7.75,47.47,8.58,71.36,12,.19,0,.47-.65,1.05-1.49a21.78,21.78,0,0,0-2.86-1c-6.5-1.35-13-3.12-19.55-3.86a212.48,212.48,0,0,1-48.36-11.71,67.64,67.64,0,0,1-20.75-11.7c-5.48-4.59-7.86-10.22-6.44-17.06a27.36,27.36,0,0,1,4.28-10.27c6.13-8.41,12.73-16.48,19.25-24.61C373.3,1109.51,379.25,1102.39,385.14,1095.21ZM197,930.12c1.5-4.3,3.16-8.3,4.17-12.47a5.81,5.81,0,0,0-1.71-4.67c-5.93-5.26-6-12-5.19-18.94.56-4.61.68-9.39,2-13.78,4.53-14.89-3.13-26.52-9.62-38.52-.36-.67-1.37-1-2.1-1.47a9.06,9.06,0,0,0-5.7,9.74c.45,4.58.9,9.47,2.81,13.54,5.73,12.2,6.91,24.89,6.61,38.13-.16,6.77,1.41,13.63,2.68,20.35C191.5,925.07,192.3,928.6,197,930.12ZM731.19,159.93a50.37,50.37,0,0,0-7.07,1.5c-5.68,1.95-9.43,9.62-7.68,15.15,2,6.28,8.85,10.9,14.6,9.58a68.19,68.19,0,0,0,10.12-3c4.21-1.68,6.12-5,6-9.37C746.89,167.13,739.27,159.9,731.19,159.93ZM724,273.31a60.82,60.82,0,0,0,33.14-13.76,10.37,10.37,0,0,0,2.65-3.73c2.14-4.93,0-8.07-5.28-7.3a68.84,68.84,0,0,0-10.88,2.76c-7.55,2.41-15,5-22.55,7.56a6.47,6.47,0,0,0-4.61,7.65C717.25,270.81,720.09,273.38,724,273.31ZM479.4,625.46a5.78,5.78,0,0,0-4.59,5.58c-.72,15.1-3.76,29.77-7.89,44.27-1.29,4.52-.32,7.93,2.24,8.82,3.66,1.29,5.86-1.28,7.83-3.62,3.32-4,5.71-8.3,5.71-13.77,0-11.25.3-22.49.27-33.74C483,630.2,482.66,627.17,479.4,625.46ZM450.48,729.72c-6.5.33-8.52,1.44-9.64,7.53-1.27,6.9-4,13.07-6.93,19.28a25.43,25.43,0,0,0-2,7c-.69,4.49,1.68,9.07,4.82,10,3.56,1,8.56-1.07,10.5-4.85,5-9.71,6.45-20.13,5.36-30.9C452.27,735,451.17,732.29,450.48,729.72ZM605.85,791a40.77,40.77,0,0,0,3-5.32c2-5.18,4-10.35,5.46-15.68,1.93-7.09,4.77-13.2,11.95-16.48,2-.89,3.5-2.69,5.12-4.2a6.79,6.79,0,0,0,1.88-2.65c1.1-3.34-1.95-9.67-5.62-12a9.86,9.86,0,0,0-11.74.91,10.87,10.87,0,0,0-2.45,14.6c1.72,2.85,1.89,5.41-.32,7.91-5.8,6.58-7.76,14.79-9.84,22.95C602.53,784.15,602.25,787.2,605.85,791Zm239.62,760.64c5.14,3.37,10.29,7.19,15.89,10.2,2,1.06,5.29.84,7.52,0,7.25-2.76,9.7-9.48,6.57-16.64a17,17,0,0,0-2-4.15,12,12,0,0,0-4.32-3.7C859.53,1533.56,847.38,1540.76,845.47,1551.68ZM530.4,1486.16c5.83-.82,10.5-1.13,15-2.21a10.74,10.74,0,0,0,7.93-11c-.12-4.35-3.16-8-8.36-9a24.24,24.24,0,0,0-22.53,6.76c-4,4-3.95,10.24.49,13.4C525.13,1485.78,528.53,1485.72,530.4,1486.16ZM320.57,936.68a8.62,8.62,0,0,0-5.29-7.37c-6-2.53-7.9-7.57-8.53-13.19-.85-7.68-1.07-15.43-1.63-23.15a31.29,31.29,0,0,0-.78-3.9l-1.32.07c-1,9.37-2.33,18.72-2.81,28.11a24.59,24.59,0,0,1-5.43,13.9c-1.44,1.91-3.62,3.24-5.38,4.93-5.15,4.95-5.21,6.77-.45,13,5-1.16,7.32-5.39,10.26-8.9,1.82-2.17,3.3-5.66,6.54-4.58,2,.65,3.14,3.66,4.78,5.75ZM187.84,519.77c-9.2,5-13.7,20.22-8.86,28.48,3.57,6.11,7,12.29,10.59,18.41a40.35,40.35,0,0,0,2.91,3.75c.51-1.24.94-1.8.93-2.35-.06-10.63.23-21.27-.45-31.86C192.61,530.67,192.47,524.64,187.84,519.77ZM513.15,1484c-2.58-6.72-7.79-9.06-13.88-8.93a141.5,141.5,0,0,0-19.12,2c-5.21.83-6,3.5-2.8,7.78C488,1499.28,506.64,1494.21,513.15,1484Zm244.1-171c-2.94,2.36-5.08,3.5-6.42,5.25-4.58,6-9,12.1-13.24,18.29a18.81,18.81,0,0,0-2.36,5.47,12.33,12.33,0,0,0,1.66,10.8c2.81,4.14,5.77,4.6,9.11.77a22,22,0,0,0,4.34-8.07c2.44-8.51,4.49-17.13,6.56-25.74C757.29,1318.15,757.1,1316.39,757.25,1313ZM589.31,1457.24c-8.44-.08-13.08,2.82-15.52,9.68-1.82,5.11,1.74,12.85,6.1,12.6,7.94-.46,15.1-3,20.74-9,1.82-1.93,1.75-3.87,1-6.07C600,1459.86,595.61,1457.3,589.31,1457.24Zm144-470.87c-7.59-3.85-15.28-3.79-23-3.22-2.77.2-4.8,1.84-6.21,5.17a52.39,52.39,0,0,0,6.8,2.62c6.61,1.54,11.4,4.43,11.25,12.26a17.44,17.44,0,0,0,1.6,6.38,42.92,42.92,0,0,0,2.91,5.31c5.45-1.84,6.47-5.66,6.58-9.79C733.48,998.93,733.35,992.76,733.35,986.37ZM564.2,611.22c.11-5.37-5.08-12.15-9.87-13.34a4.92,4.92,0,0,0-2.6-.12,15.82,15.82,0,0,0-10,10c-1.4,4,.62,7.94,3.93,10.61,3.57,2.87,7.28,6.47,12.39,4.56C563.53,620.88,563.81,615.63,564.2,611.22ZM94.85,520.57,92.92,520c-5.53,4.26-10.5,9-13.22,15.78-7.34,18.39-8.84,24.92-6.77,31,3.87-2.58,6.16-6.3,8.43-10.06A148.72,148.72,0,0,0,95,525.88C95.56,524.31,94.94,522.35,94.85,520.57ZM562.6,1008.88c-.06-11-4-23.21-8.84-28.37-7.58,3.17-10.72,7.47-9.39,13.77a36.77,36.77,0,0,0,10.6,19ZM481.49,558.29c-1.58,4.08-2.87,7.8-4.46,11.38-1.45,3.25-.32,5.64,2.17,7.51,2.27,1.71,4.89,3,7.24,4.59s4.33,3.37,6.45,5.05c2.87-2.7,1.51-5.31,1.36-7.86a27.44,27.44,0,0,1,.31-8.26c1.6-6.2.43-9-5.79-11A54.89,54.89,0,0,0,481.49,558.29ZM457.05,782.48c6.3-.79,8.49-4.46,10-8.7,3.06-8.7,3.38-17.78,3.43-26.87,0-4-2.47-5.77-6.78-6.89-.83,2.66-2,5.05-2.27,7.53a106.12,106.12,0,0,0-.33,13.93,26.72,26.72,0,0,1-1.88,11.64C458,776,457.73,779.34,457.05,782.48Zm58.16-181.41c10.87-3.33,14.51-11.94,9-20.8-3.46-5.56-8.34-5.58-11.89,0C508.57,586.05,509.76,595.62,515.21,601.07Zm232.6,519.61c3,.31,5.08.56,7.19.75,3.09.27,6.19.38,9.25.76,4.77.59,8.1,2.69,9.53,7.8,1,3.67,3.19,7,5,10.79,3.6-2.5,3.26-5.15,2-7.57a50,50,0,0,0-4.94-7.85c-3.8-5-9.08-9.08-10-15.72C757.74,1110.35,752,1113.72,747.81,1120.68Zm-255-452.13c3.24-2.22,6.66-3.91,9.23-6.46,5.14-5.12,4.52-10.2-1.21-14.44-4.23-3.13-7.62-2.5-10.52,1.94C486.53,655.31,487.17,662.17,492.77,668.55ZM207.09,883.49a21.05,21.05,0,0,0,6.45,27.42C221.76,903.89,219.51,893.8,207.09,883.49ZM72.18,620.87c-.42-4.89-2.91-8.71-5.92-9.35-3.56-.77-7.29,1.75-9.06,6.25a17.49,17.49,0,0,0-1.14,4.47,32.44,32.44,0,0,0,4.58,20.36,13.43,13.43,0,0,0,3.53,3.9,3.14,3.14,0,0,0,3-.23,3.19,3.19,0,0,0,.74-2.81,18.58,18.58,0,0,0-2.09-4.12c-1.75-3.08-3.85-6-5.26-9.22-2.71-6.21.64-10.73,7.29-10.14A41.34,41.34,0,0,1,72.18,620.87Zm713.09,564.45c-4.88,1-6.48,2.66-6.19,7.12a91,91,0,0,0,2,13.72,14.16,14.16,0,0,0,3.22,5.64c3.84,4.54,8.93,3.94,13.23-1.94-2.19-1.37-4.18-3.25-6.53-3.95-3.42-1-4.35-3-4.49-6.29C786.35,1195,785.75,1190.43,785.27,1185.32ZM568,977.58l-1.57.93c-.43,9.41,3.17,17.59,8.23,25.3,1.51,2.3,3.51,2.31,5.75.83,3.89-2.57,4.48-6.33.51-10s-6.61-8.25-9.35-12.8A35,35,0,0,0,568,977.58Zm16.22-370.26c3.71-1.91,6.52-3.19,9.16-4.76,5.42-3.23,6.32-5.81,4.28-11.48-1.24-3.45-3.74-4.49-6.69-2.33A18.76,18.76,0,0,0,582.89,602C582.74,603.37,583.56,604.84,584.22,607.32ZM935.39,968.85c4.76-2.05,2.81-4.77,1.92-6.94-2-4.82-1.8-8.87,2.71-12.28,1.35-1,3.36-2.39,1.41-5.62-4.27,2.34-8.5,4.5-12.54,7-2.37,1.44-3.12,3.93-1.61,6.32C929.81,961.28,932.7,965.05,935.39,968.85ZM640.53,219l2.14.79c1.44-2.14,3.2-4.14,4.25-6.46,3.5-7.79,4.17-31.87,1.35-40.71-.32.23-.83.41-.91.7a8.73,8.73,0,0,0-.39,2.58c.36,12.22-.24,24.24-5.36,35.67C640.62,213.8,640.86,216.54,640.53,219Zm15.3-4.39,1.68.45c.49-.36,1.21-.6,1.44-1.08,5.6-11.69,4.89-24,3.2-36.3-.27-1.9-1.27-4.25-4.76-3.93a57.27,57.27,0,0,0,.88,7.29,36.52,36.52,0,0,1-.62,21.43C656.34,206.31,656.39,210.58,655.83,214.64Zm114,723.53c-7-1.41-14.51,2.44-17.93,8.87-3,5.54-2,8.81,3.83,12.66a13.11,13.11,0,0,0,.5-3.23c-.63-5.9,1.5-9.69,7.48-11.44C766.64,944.18,769.34,942.36,769.87,938.17Zm-1.52,39.92c.29,1.74.22,2.43.51,2.9,5.25,8.25,13.13,13.56,21.28,18.41,1.4.84,3.88-.13,6.55-.32-1-1.75-1.19-2.77-1.82-3.2C786.37,990.11,777.83,984.43,768.35,978.09ZM77.59,682.45c7.43,4.18,15.73,1.74,22.22,6.34,6.22,4.41,12.84,8.25,19.55,12.51-1-5.46-2.24-6.95-8.87-10.68C97.69,683.43,84.05,679.84,77.59,682.45ZM531,1004.39a45.56,45.56,0,0,0,10,18.91c.48.57,2.48.34,3.44-.16.55-.29.87-2,.56-2.81a78.1,78.1,0,0,0-3.57-7.79c-1.69-3.32-3.37-6.66-5.36-9.8a3.55,3.55,0,0,0-3.26-1C532,1002.09,531.52,1003.64,531,1004.39Zm99.68-787.85a133.17,133.17,0,0,0,7.56-34.93c.22-2.83.21-6-2.82-8.58C633.82,188,632.27,202.29,630.72,216.54ZM515.14,1042.92c5-1.8,6.44-3.4,6.12-6.56-.37-3.75-3.26-6.06-8.7-6.65C511,1034.62,511.28,1039.07,515.14,1042.92Zm15.13-12.33c2.48-1.33,2.35-3,1.4-4.69-2.77-4.87-5.66-9.68-8.49-14.49C519.33,1018.53,521.29,1024.86,530.27,1030.59Zm300.66,21.21c-6.47,5.56-7.43,10.73-3.38,16.42C833.24,1064,832.15,1058.42,830.93,1051.8Zm-46.55,120.12a9.23,9.23,0,0,0-9.2-.64c-1.83.79-3.57,2.11-2.56,4.62.83,2,2.17,3.19,4.64,2.6C780.67,1177.68,783.5,1176.37,784.38,1171.92Zm-6.09-248c.18-6.06-3.89-12.09-10.38-15.49C769.75,914.92,773.73,919.37,778.29,924Zm57.52,108c2.32-1.36,5.67-2.1,3.8-6-1-2.11-3.73-2.37-5.62-.85C831.83,1026.77,832.18,1028.17,835.81,1031.93ZM774.6,245.73c3.34-1.52,6.27-1.46,7.1-5.55C778.08,240.26,776.38,242,774.6,245.73ZM908.45,886.18l1.29-.15c-.14-1-.27-1.92-.4-2.88l-.89.1Zm-13.63,592.34,1.26-.66-1.44-2.35-.87.45ZM117.16,533.84c-.41.44-.9.82-.84.94a3,3,0,0,0,1,1.15c.1.07.86-.53.83-.59A11,11,0,0,0,117.16,533.84Zm390.26,517.28c-.27.17-.75.3-.78.5s.23.66.36,1c.26-.18.71-.32.75-.54S507.55,1051.45,507.42,1051.12Z"/><path d="M623.74,1841.46c.66-7.12,1.21-13.51,1.85-19.89.85-8.39,1.75-16.78,2.64-25.17.2-2,0-4.27,2.9-4.33,2.75,0,3,2.23,3.47,4.12,2.63,9.86,5.43,19.68,7.72,29.62.86,3.73,2.77,5.68,6.07,7.12,7.89,3.44,15.89,5.19,24.6,4.07,18.16-2.35,27.8-15.16,29.65-31.73,1.32-11.81-2-21.82-10.88-30-7.91-7.34-17.31-12.33-26.3-18a207.81,207.81,0,0,1-22.21-15.77,46.13,46.13,0,0,1-15.49-23.61c-9.33-35.14,13.45-67,49.62-68.41a85.61,85.61,0,0,1,37,7c5.32,2.23,5.22,2.32,5,7.83-.36,9.55-.6,19.1-1,28.64-.09,2.37-.42,4.73-.62,6.85-3.43,1.25-4-.77-4.65-2.7-2.83-8.18-5.87-16.29-8.45-24.54-1.17-3.74-3-6.23-6.84-7.31-3.41-1-6.66-2.61-10.11-3.23-12-2.15-22.52,2.82-29,13.26-9.45,15.34-7.24,34.61,6.57,46.57,7.3,6.32,16.15,10.86,24.32,16.15,7.07,4.58,14.56,8.61,21.17,13.76,8.74,6.81,15.31,15.56,17.78,26.65,7.08,31.82-6.75,58.08-38.46,67.33a95.88,95.88,0,0,1-55.17.06C631.43,1844.62,628,1843.07,623.74,1841.46Z"/><path d="M357.08,1840.93c.62-6.77,1.19-13.38,1.85-20,.82-8.17,1.71-16.34,2.58-24.5.21-1.94-.06-4.28,2.87-4.38,2.76-.09,3,2.19,3.49,4.07,2.64,9.86,5.44,19.69,7.73,29.62a9.36,9.36,0,0,0,6,7.15c7.88,3.44,15.88,5.22,24.59,4.1,17.44-2.26,27.48-14.13,29.62-31,1.52-12-1.64-22.31-10.76-30.74-7.93-7.32-17.32-12.33-26.31-18a209.76,209.76,0,0,1-22.21-15.76,46.11,46.11,0,0,1-15.51-23.59c-9.36-35.09,13.35-67.08,49.57-68.42,15.44-.57,31.11,3.1,42.08,9.88-.43,13.31-.87,26.93-1.29,40.24-3.7,1.4-4.28-.58-4.95-2.53-2.67-7.77-5.7-15.42-7.92-23.31-1.44-5.11-4.33-8-9.19-9.34-3-.84-5.89-2.12-8.93-2.56-12.29-1.77-21.75,2.92-28.29,13.33-9.58,15.27-7.31,34.58,6.5,46.56,7.29,6.32,16.13,10.87,24.31,16.16,7.07,4.58,14.56,8.6,21.18,13.75,8.74,6.8,15.31,15.54,17.79,26.64,7.1,31.76-6.65,58.1-38.4,67.35-19.45,5.66-39,5.64-58.33-.94-1.68-.57-3.32-1.26-4.95-2C359.44,1842.34,358.69,1841.84,357.08,1840.93Z"/><path d="M584.41,1700.09c-4.49.35-4.37-2.54-5-4.4-2.87-7.93-5.72-15.87-8.25-23.91-1-3.29-2.73-5.39-6-6.4-3.6-1.09-7.06-2.82-10.72-3.48-12-2.16-22.5,2.83-28.94,13.29-9.43,15.35-7.2,34.61,6.62,46.56,7.3,6.31,16.14,10.87,24.33,16.14,6.53,4.19,13.48,7.81,19.64,12.48,21.23,16.11,25.1,39.66,17.83,62.73a42.53,42.53,0,0,1-19,24.12c-27,16.09-55.07,15.65-84.38,4.51.72-7.94,1.35-15.4,2.08-22.84.7-7.07,1.45-14.14,2.31-21.19.26-2.19-.79-5.45,3-5.59,3.09-.11,3,2.71,3.56,4.76,2.59,9.65,5.37,19.25,7.6,29,.86,3.75,2.81,5.66,6.1,7.1,7.66,3.36,15.5,5.36,23.93,4.12,18.08-2.65,28.8-14.25,30.37-32.48,1-11.62-1.9-21.89-11.12-29.22-8.13-6.47-17.08-11.88-25.63-17.82-7.64-5.3-15.62-10.22-22.74-16.15a45.81,45.81,0,0,1-15.48-23.62c-9.32-35.18,13.51-67,49.66-68.38a85.61,85.61,0,0,1,37,7c5.29,2.22,5.19,2.31,5,7.86-.36,9.54-.6,19.09-1,28.63C585,1695.23,584.65,1697.59,584.41,1700.09Z"/><path d="M748.4,1653c15.81.72,31.09,2,46.36,1.94s30.49-1.4,45.73-2.19c1.57,3.35-.23,4.42-2.92,5.25-6.57,2-13,4.46-19.65,6.26-5.1,1.38-8.18,4.23-9,9.41-.78,4.81-2,9.64-2,14.46-.22,46-.23,92-.27,138,0,1.51.27,3,.42,4.65a11.65,11.65,0,0,0,2.77.77c14.88,0,29.76-.19,44.65-.13,7.9,0,12.86-3.73,15.9-10.81,2.89-6.73,6.07-13.33,9.17-20,.91-1.95,1.51-4.43,5.54-3.23-.55,15.61-1.51,31.38-2.68,47.76-8.85,0-17.43.19-26,0-19.54-.52-39.07-1.68-58.62-1.74-14.63,0-29.27,1.24-43.9,1.9-1.73.08-3.47,0-5.09,0-1.64-3.47.17-4.65,2.81-5.53,5.9-1.94,11.67-4.42,17.68-5.88s8.67-5.26,9.28-10.71a240.35,240.35,0,0,0,1.86-24.53c.23-27.55.11-55.11.08-82.67,0-10.87-.15-21.74-.26-32.61a29.4,29.4,0,0,0-.33-4c-1.07-7.8-3.83-13.86-12.83-15.49-5.4-1-10.53-3.42-15.78-5.23C748.66,1657.72,748.68,1657.68,748.4,1653Z"/><path d="M386.24,1975.64c-.06,3.24-2,3.28-4.16,3.27-8.2,0-16.39,0-24.59,0l-21.27-.06c-2.16,0-4.62.56-5.17-3.35a25.3,25.3,0,0,1,4.45-1.88c3.32-.74,4.87-2.53,4.85-6-.08-17.31-.05-34.62-.1-51.93a16.46,16.46,0,0,0-.6-2.94,43.55,43.55,0,0,1-5.4-2.09,3.14,3.14,0,0,1-1.59-2.4,3.52,3.52,0,0,1,2.09-2.14A9.38,9.38,0,0,1,338,1906h12.88c2.52,5.64-.81,11.65.44,17,4.37-1.08,8.31-2.6,12.36-2.93,6.62-.53,10.47,2.47,12.07,8.91a44.31,44.31,0,0,1,1.15,9.88c.15,8.65,0,17.31.06,26,0,7.77.66,8,6.64,9.26A9.17,9.17,0,0,1,386.24,1975.64Zm-20.31-22.92h-.19c0-5.32.15-10.65-.07-16a16.25,16.25,0,0,0-1.58-6.36c-2.2-4.42-6.82-4.88-9.45-.74a18.33,18.33,0,0,0-2.86,8.65c-.4,10-.42,20-.25,29.93.08,4.6,2.89,6.87,7.25,6.79s6.88-2.34,7.09-7C366.1,1962.93,365.93,1957.82,365.93,1952.72Z"/><path d="M496.44,1976c.55-.63.67-.91.84-.94,7.94-1.28,8.82-6.6,8.6-13.48-.43-13.53-.11-27.08-.14-40.62,0-2.62-.25-5.25-.38-7.84l-7.81-3.49c.4-1.06.61-2.43,1-2.48,5.81-.73,11.64-1.3,17.42-1.9,2.7,6.41-.28,12.17.85,18.45,1.72-.79,3.14-1.56,4.64-2.11,11.41-4.17,19.2-.69,20.33,10.85.6,6.16.46,12.4.56,18.6.08,5.11-.06,10.21,0,15.32.11,5.69.19,5.66,5.44,7.49a36.72,36.72,0,0,1,3.82,1.82c-.14,2.85-1.67,3.3-3.66,3.29-8.87,0-17.73,0-26.6,0-6.42,0-12.85,0-19.27,0C499.81,1978.83,497,1979.75,496.44,1976Zm34.86-23.41h.05c0-3.78.09-7.55,0-11.32a47.72,47.72,0,0,0-.72-7.93c-.8-4-3-6.35-5.8-6.34-3.4,0-5.24,2.25-6.24,5.1a23.48,23.48,0,0,0-1.58,7.08c-.21,9.54-.29,19.08-.13,28.61.08,4.88,2.44,7.09,6.8,7.28,4.58.2,7.38-2.25,7.6-7.18C531.47,1962.76,531.3,1957.65,531.3,1952.55Z"/><path d="M1224.8,1921.71c2.54,4.89-3,4.53-5.1,7,2,7.21,2,14.55-2.12,21.45s-10.33,10.09-18.19,9.67c-2.28,5.57-1.59,7.2,3.37,8.2a37.38,37.38,0,0,0,4.63.39c2,.15,4,.1,6,.43,11,1.88,14.91,12.12,7.61,20.74-7,8.26-16.5,11.27-26.89,10.19s-13.59-10.31-6.83-18.5c1.53-1.86,3.28-3.53,4.91-5.27-5.77-6.28-5.76-6.6.42-18.14-7.89-10.37-8.8-19.6-2.86-29.35,3.82-6.27,9.29-9.26,16.73-8.5C1212.31,1920.63,1218.18,1921.1,1224.8,1921.71Zm-13.69,18.46c-1-3.88-1.48-7.91-3-11.46-2-4.62-6.93-4.75-9-.28-3.43,7.35-3.6,15,.18,22.32,2.3,4.43,7.13,4.28,9.18-.27C1209.83,1947.34,1210.22,1943.74,1211.11,1940.17Zm-7.45,37.57c-5.52-.25-8.83,2.46-9.87,7.07a6.65,6.65,0,0,0,4,8c5.38,2.34,14-1.2,16.15-6.68,1.6-4,.5-6.27-3.7-7.28C1207.74,1978.29,1205.11,1978,1203.66,1977.74Z"/><path d="M1391.58,1920.9c.9-7.31.9-7.31-7.07-11.16-.68-2.64.68-3.73,3.09-3.77,4.86-.06,9.72,0,15.08,0a25.87,25.87,0,0,1,.67,4.21c-.09,18.62-.17,37.24-.45,55.86-.06,4.23.48,7.45,5.51,8.16.88.13,1.54,1.73,2.31,2.66-1,.65-2.16,2-2.94,1.85-5.16-1.29-10.55,1.65-15.65-1-.8-.42-2.37.41-3.5.86-8.6,3.36-15.5,1-19.05-7.59-5.91-14.29-5.31-28.64,1.87-42.37C1375.65,1920.53,1380.46,1919,1391.58,1920.9Zm1.06,30c-.66-5.79-1.07-11.53-2.05-17.17-.85-4.92-3.56-8.26-5.94-7.84-4,.7-4.78,4.38-5.55,7.48a63,63,0,0,0,.86,32.74,14.87,14.87,0,0,0,1.84,4.22c2.16,3.27,5.28,3.27,7.37-.07a13,13,0,0,0,1.8-4.92C1391.67,1960.52,1392.11,1955.69,1392.64,1950.87Z"/><path d="M403.3,1922.57c-5.88-3.66-7.5-6.67-5.73-10.36a6.36,6.36,0,0,1,7.24-3.27c4,1.19,5,4.13,4,11h8.6c-1.13-6.86,0-9.89,4.11-11a6.49,6.49,0,0,1,7.19,3.49c1.76,3.59.28,6.3-5.4,9.8,11.89,12.08,13.16,26.41,8.55,41.8a28.29,28.29,0,0,1-4.62,8.75c-7.67,10.07-20.74,10-28.25-.18-6.25-8.48-7.71-18.29-6.43-28.5C393.57,1935.69,396.37,1928.07,403.3,1922.57Zm19.21,28.69c-.91-5.71-1.5-11.67-2.91-17.43-.92-3.74-2.35-7.93-7.26-8.43-3-.32-5.49,2.93-6.67,8.74a64.94,64.94,0,0,0,1.16,31.49,21.12,21.12,0,0,0,4,7.45c2.12,2.53,4.72,2.21,6.68-.5a14.09,14.09,0,0,0,2.48-5.34C421,1962.05,421.68,1956.8,422.51,1951.26Z"/><path d="M461.53,1922.52c4-.9,7.57-2.19,11.22-2.44,6.57-.45,10.48,2.51,12.12,8.89a36.08,36.08,0,0,1,.83,8.57c.1,9.09.07,18.18,0,27.26,0,4.5.4,8.46,6.12,9.31,1,.14,1.73,2,2.59,3.06-1.3.58-2.6,1.62-3.92,1.65-8.18.17-16.37.13-24.56.13-6.63,0-13.27,0-19.9-.1a10.46,10.46,0,0,1-3.28-.21,2.19,2.19,0,0,1-.48-4,17.35,17.35,0,0,1,3.69-1.39,4.75,4.75,0,0,0,3.48-5c0-12-.07-23.94,0-35.9,0-3.66-2.06-4.91-5.17-5.76-1.16-.32-2-1.88-3-2.88,1.18-.71,2.29-1.89,3.54-2a83.26,83.26,0,0,1,11.91-.73C458.56,1921,460.33,1922.1,461.53,1922.52Zm13.42,30H475c0-3.54,0-7.08,0-10.61a26.21,26.21,0,0,0-.16-4c-.37-2.38-.51-4.9-1.45-7.06-2.22-5.1-7.27-5.44-10.17-.63a16.31,16.31,0,0,0-2.47,7.43q-.57,15.55-.37,31.13c0,3.81,3.34,6.27,7.18,6.3,4.28,0,7.14-2.36,7.31-6.69C475.12,1963.1,475,1957.79,475,1952.49Z"/><path d="M149.58,1922.45c4.93-.93,8.95-2,13-2.39,5.12-.5,8.54,2.47,10.12,7a34.37,34.37,0,0,1,1.72,10.38c.23,9.31.21,18.63,0,27.93-.09,4.48.66,7.84,5.89,8.72,1,.17,1.67,2.07,2.5,3.17-1.09.55-2.16,1.56-3.26,1.58-8.41.15-16.82.12-25.23.11-6.63,0-13.27,0-19.9-.08-2.16,0-4.66.58-5-3.41a30.5,30.5,0,0,1,4.45-1.88c3.1-.82,4.31-3,4.32-5.87q0-17.29-.07-34.58c0-3.43-1.3-5.95-5.23-6.45-1.19-.15-2.26-1.15-4.3-2.25,1.68-1.22,2.88-2.8,3.8-2.65C138.26,1922.71,144.54,1918.57,149.58,1922.45Zm-.43,30.69h0c0,5.08-.14,10.17,0,15.25.14,4.14,2.61,6.42,6.67,6.67,4.45.26,7.81-2.34,7.89-6.93.19-10.38,0-20.77-.11-31.15a17.83,17.83,0,0,0-1.1-5.17c-.8-2.37-2-4.49-4.88-4.81a5.75,5.75,0,0,0-6.23,4,31.57,31.57,0,0,0-2.16,8.9C148.88,1944.27,149.15,1948.72,149.15,1953.14Z"/><path d="M789.61,1923.8c2.52-1,4-2.32,5.29-2.1,5.61,1,11.71-3.31,16.26.83,4.54-.92,8.55-2.19,12.62-2.44,5.38-.32,8.91,2.21,10.56,7.31a34.28,34.28,0,0,1,1.56,9.76c.2,9.53.18,19.06,0,28.59-.07,4.24.72,7.38,5.61,8.25,1.08.2,1.87,1.94,2.8,3-1.22.64-2.45,1.84-3.67,1.84-10.61,0-21.23-.28-31.85-.34-4.43,0-8.85.26-13.28.41-2.27.07-4.58.21-4.48-3.43a12,12,0,0,1,2.08-1.3c6.49-2.56,6.55-2.54,6.58-9.49,0-9.53-.06-19.06,0-28.59.06-5.11-1-9.21-7-10C792.22,1926,791.74,1925.35,789.61,1923.8Zm35.65,28.72h.06c0-3.32.16-6.65,0-10a70.76,70.76,0,0,0-1.28-10.48c-.58-2.64-2.07-4.94-5.29-5.12s-5.09,1.81-6.05,4.33a28.12,28.12,0,0,0-2,9c-.26,9-.19,18.12-.09,27.18,0,5,2.59,7.6,7.07,7.64s7.35-2.51,7.56-7.31C825.43,1962.69,825.26,1957.6,825.26,1952.52Z"/><path d="M1308.24,1975.6a16.05,16.05,0,0,1,2.33-1.46c6.43-2.52,6.52-2.51,6.57-8.83.07-9.75-.07-19.51,0-29.26.06-5.12-1-9.2-7-10a2.72,2.72,0,0,1-1.13-.67c-.17-.12-.24-.37-.6-1,1.91-5.14,6.61-2.58,9.89-2.79,3.59-.24,8-3.38,10.09.89,4.69-.94,8.7-2.21,12.78-2.46,5.37-.32,8.9,2.21,10.55,7.32a34.32,34.32,0,0,1,1.55,9.76c.2,9.53.19,19.07,0,28.59-.07,4.26.75,7.37,5.63,8.25,1.07.19,1.86,1.94,2.78,3-1.23.63-2.45,1.82-3.68,1.82-10.62,0-21.24-.28-31.85-.35-4.21,0-8.41.3-12.62.37C1311.52,1978.87,1309,1979.6,1308.24,1975.6Zm34.43-22.91h0c0-4,.21-8-.06-11.93A35.08,35.08,0,0,0,1341,1931c-1.91-5.21-7.27-5.75-10.09-1a20.84,20.84,0,0,0-2.76,9.35c-.37,9.49-.25,19-.14,28.5,0,4.54,2.62,7,6.88,7.15,4.49.15,7.5-2.42,7.72-7.14C1342.86,1962.86,1342.67,1957.77,1342.67,1952.69Z"/><path d="M703.94,1976.33c.64-6,1.28-11.88,1.89-17.5,2.41-1.34,3.92-.91,4.63,1.22a61.94,61.94,0,0,1,1.67,6.43c.74,3.5,2.11,6.15,6.24,6.6s8.33-1.13,10.38-4.5c2.76-4.55,2.34-9.71-1.63-13.36-2.42-2.23-5.43-3.81-8.13-5.72-2.89-2-6-3.88-8.55-6.28-6.23-5.83-7.18-13.2-4.33-20.81s8.86-11.38,17-11.73c5.39-.23,10.59.47,15.51,3.67,0,4.34.13,8.76-.09,13.15,0,1-1.29,1.92-2,2.88-.94-.8-2.21-1.42-2.73-2.43-.91-1.75-1.26-3.78-2-5.63-2.11-5.3-8.4-6.37-12.28-2.14-3.15,3.43-3.51,10-.21,13.44,2.25,2.36,5.17,4.1,7.9,6s5.84,3.27,8.37,5.38a19.36,19.36,0,0,1-5.23,33.13C723.38,1981,711.52,1981.49,703.94,1976.33Z"/><path d="M34.47,1914.37c0,4.4.13,8.81-.1,13.21a4.11,4.11,0,0,1-2.13,2.66c-.38.21-2-.92-2.35-1.74-.95-2-1.42-4.2-2.25-6.25-2.11-5.26-8.46-6.28-12.31-2-3.12,3.46-3.42,10-.1,13.44,2.26,2.35,5.19,4.08,7.92,6s5.84,3.27,8.36,5.39a19.37,19.37,0,0,1-5.36,33.11c-6.91,2.81-18.95,3.37-26.15-1.73.22-2.69.44-5.74.74-8.78s.72-6.09,1.05-8.89c2.4-1.22,3.9-.75,4.58,1.39A62,62,0,0,1,8,1966.56c.72,3.55,2.23,6.1,6.31,6.53s8.34-1.22,10.34-4.57c2.73-4.58,2.26-9.74-1.72-13.36-2.43-2.21-5.44-3.78-8.15-5.7-2.88-2-6-3.89-8.53-6.29-6.21-5.86-7.13-13.23-4.25-20.82s8.92-11.34,17-11.67C24.42,1910.46,29.62,1911.15,34.47,1914.37Z"/><path d="M282.48,1931.2c-1.84-1.19-3.23-1.61-3.72-2.51a56.82,56.82,0,0,1-2.39-6.18c-2.25-5.69-8.7-6.67-12.57-1.92a10,10,0,0,0,.35,13.37c2.28,2.32,5.25,4,8,5.85s5.68,3.45,8.32,5.43c9.78,7.32,9.77,27.39-5.93,33.08-6.68,2.42-19.11,3.34-25.94-2.23.63-5.74,1.29-11.81,2.11-19.33,2.17,1.65,3.64,2.23,4.14,3.27a29,29,0,0,1,1.9,6.34c.68,3.17,1.51,5.92,5.47,6.51s7.54,0,10.27-3.12c3.35-3.82,3.36-10.36-.28-14-2.33-2.31-5.28-4-8-5.93-3.05-2.2-6.4-4.06-9.12-6.6-6.2-5.77-7.35-13-4.47-20.72s8.81-11.38,16.86-11.85a33.65,33.65,0,0,1,5.31.13c9.78,1,11.15,2.61,10.44,12.42C283.09,1925.6,282.81,1927.94,282.48,1931.2Z"/><path d="M1084.13,1950.31c-.28,6.94-1.6,13.86-5.41,20.08-8,13-23.62,13.26-31.23.11s-7.58-27.12-.58-40.66c3.23-6.24,8.46-9.93,16-9.94,7.83,0,13,3.92,16.55,10.31C1082.94,1936.34,1084,1943.12,1084.13,1950.31Zm-30.47-1.34c1.15,5.66,2.35,12.83,4.16,19.84.75,2.93,2.65,6.06,6.38,5.75,3.3-.27,4.61-3.25,5.35-6.08a75.11,75.11,0,0,0,2-10.39,58.82,58.82,0,0,0-2.59-25.54c-1.1-3.29-2.52-7.19-6.85-7.14-4.49.06-5.49,4.06-6.19,7.5C1055,1937.65,1054.55,1942.51,1053.66,1949Z"/><path d="M922.92,1949.78c-1.11,7-2.2,13.48-5.54,19.42-3.56,6.36-8.55,10.8-16.27,10.88s-13-4.17-16.35-10.65c-6.44-12.62-6.6-25.61-.55-38.4,3.22-6.81,8.5-11.08,16.66-11.12,8.46,0,14.06,4.32,17.07,11.47C920.39,1937.19,921.32,1943.63,922.92,1949.78Zm-12.73,1.74c-.74-5.37-1.25-10.65-2.27-15.83a21,21,0,0,0-3.07-7.26c-3-4.57-7.14-4.14-9.71.76a11.6,11.6,0,0,0-1,2.47,62.35,62.35,0,0,0,1.31,36.56c1.08,3.14,2.75,6.68,6.71,6.33s5.07-4.12,5.73-7.33C909,1962.05,909.46,1956.77,910.19,1951.52Z"/><path d="M1140.54,1932.6c3.62-3.8,6.12-7.27,9.39-9.72,9.39-7.06,21-2.05,22,9.61.65,7,.21,14.17.27,21.26,0,4.43.21,8.87.11,13.3-.09,4.07,1.08,6.93,5.63,7.44.55.06,1,.73,2.27,1.64-1.17,1-2.09,2.51-3.1,2.58a82.41,82.41,0,0,1-12.57,0c-1.38-.11-2.63-1.77-4.13-2.86-1,.68-2.29,1.61-3.64,2.34-8.61,4.65-16.56.54-18-9.27-2-13.85,4.69-22.71,18.63-24.56,1.08-.15,2.16-.28,4-.52,0-3.48.38-7-.08-10.37-.71-5.14-5-6.83-9.36-3.89-2.38,1.6-4.49,3.6-7.24,5.85Zm21.27,18.69c-4.47-1.49-7.45-.47-9.42,2.67a16.5,16.5,0,0,0-1.4,14.64c1.11,3.25,4.47,3.87,6.85,1.3a10.56,10.56,0,0,0,2.78-5.12C1161.32,1960.29,1161.46,1955.71,1161.81,1951.29Z"/><path d="M1011.31,1971c4.86,0,9.24,0,13.63,0,2.62,0,3.92-1.49,5-3.68,1.26-2.73,2.78-5.34,4.25-8.12,3.76,3.26,3.95,6.63,1.53,19.35h-13.06l-29.25,0a7.94,7.94,0,0,1-2.63-.07c-.74-.27-1.8-1.08-1.8-1.65a5,5,0,0,1,1.27-2.72,3,3,0,0,1,1.84-.66c6.26-.85,7.44-5.08,7.4-10.51-.09-12-.06-24,.18-36,.12-5.66-1.76-9.26-7.66-10.4-1.19-.23-3-1.75-3-2.72-.07-2.29,2-2.41,3.89-2.42,8.63,0,17.26-.19,25.89-.08,1.25,0,2.49,1.26,3.73,1.93-.93,1-1.66,2.47-2.81,3-8.54,3.66-8.58,3.6-8.62,13q-.09,17.33-.12,34.64C1010.91,1966,1011.14,1968.18,1011.31,1971Z"/><path d="M67,1927.35c-2.5-.11-4-.16-5.57-.26-3.73-.23-6.52,1-7.59,4.88a5.38,5.38,0,0,1-1,2.41c-.69.7-1.85,1.5-2.63,1.35a3.06,3.06,0,0,1-2-2.16c-.21-3.94-.09-7.89-.09-12.58,12,0,23.06-.32,35.39.46-6.83,17.54-15,33.18-22.12,50.45,4.35,0,8.05.49,11.52-.2,1.7-.34,3.16-2.72,4.36-4.44s1.86-3.64,5-2.37V1978H46.15a60.47,60.47,0,0,1,2.05-7.26c5.27-12.2,10.68-24.35,16-36.52C65.08,1932.25,65.85,1930.21,67,1927.35Z"/><path d="M650.06,1971.91c4.48,0,8.07.57,11.33-.22,1.9-.46,3.23-3.16,4.91-4.74a38.56,38.56,0,0,1,3.35-2.57c.67,1.25,1.9,2.49,1.92,3.75,0,3.28-.42,6.58-.69,9.89-6.37,0-12.28.27-18.16-.07s-11.79,1.5-18.43-.91l21.59-49.53-5.25-.41c-4-.29-6.92.78-8.12,5.09-.48,1.74-1,4.42-3.77,3.59-2.52-.74-1.9-3.12-1.78-5.09.18-3.08.35-6.15.52-9.11,7.58-1.49,29.72-.8,34.5,1.32C664.81,1938.93,657.63,1955,650.06,1971.91Z"/><path d="M567.31,1945.64c.83,6.1,1.19,11.19,2.31,16.1a19.48,19.48,0,0,0,3.89,7.61c3.48,4.28,7.24,3.91,10.21-.6a20.3,20.3,0,0,0,1.23-2.36c.8-1.62,2.15-2.72,3.62-1.37a4.37,4.37,0,0,1,.81,3.93c-2.51,5.81-6.6,10.16-13.15,11-6,.8-10.83-1.75-14.41-6.59a17.69,17.69,0,0,1-2.44-4c-5.19-13-5.47-26,.7-38.73,3.32-6.83,8.63-11.12,16.88-10.76,5.18.23,9.24,2.37,11.38,6.83a38.16,38.16,0,0,1,3.39,12c.6,5.12-1.23,6.74-6.46,6.85C579.75,1945.72,574.24,1945.64,567.31,1945.64Zm.12-5.52,11.23-.93c1.8-4,.52-7.44-.51-10.73-.38-1.22-2.12-2.89-3.11-2.82a5.49,5.49,0,0,0-4,2.62C569.63,1931.63,568.85,1935.26,567.43,1940.12Z"/><path d="M101.51,1945.64c-.84,7.62,0,14.28,3.06,20.58a13.58,13.58,0,0,0,3.17,4.2c3.28,2.91,6.39,2.43,8.92-1.2.63-.9.88-2.13,1.64-2.85a13.72,13.72,0,0,1,3.1-1.74c.52,1.27,1.79,2.83,1.43,3.76-2.06,5.4-5.63,9.55-11.42,11.16-5.62,1.56-10.54,0-14.54-4.14A18.88,18.88,0,0,1,93,1970c-5.87-13.55-6-27.15.85-40.35,3.23-6.24,8.44-10,16.07-9.77,5.14.19,9.38,2.11,11.46,6.59a43.25,43.25,0,0,1,3.57,13.24c.48,4.24-1.5,5.76-6.07,5.86C113.2,1945.73,107.49,1945.64,101.51,1945.64Zm10.41-6.45c1.73-4.18.68-7.83-.76-11.25s-4.64-3.5-6.55-.34a19.23,19.23,0,0,0-2.79,12.41Z"/><path d="M761.91,1945.64c.93,6.34,1.33,11.64,2.62,16.72a19.16,19.16,0,0,0,4.58,7.89c3,3.24,6.35,2.69,8.89-.88.76-1.07,1.08-2.55,2-3.39s2.53-1.37,3.16-1a3.58,3.58,0,0,1,1.2,3.22c-4,10.73-15.65,16-24.93,8.17a19.07,19.07,0,0,1-5.17-6.79c-5.56-13.09-5.68-26.32.65-39.17,3.21-6.53,8.34-10.71,16.29-10.52,5.43.13,9.73,2.27,11.92,7a40.35,40.35,0,0,1,3.32,12.67c.45,4.34-1.44,5.92-5.91,6C774.82,1945.74,769.1,1945.64,761.91,1945.64Zm.2-5.52,11.53-.93c1.24-4.14.36-7.58-.85-10.85a4.72,4.72,0,0,0-3.22-2.71,4.44,4.44,0,0,0-3.57,2.17C764.55,1931.36,763.62,1935.15,762.11,1940.12Z"/><path d="M1279.67,1945.64c1.25,6.9,2,12.59,3.42,18.09a15.55,15.55,0,0,0,4.16,6.63c3.11,3.08,6.35,2.5,8.9-1.11.63-.9.86-2.14,1.62-2.87a13.94,13.94,0,0,1,3.13-1.74c.55,1.28,1.89,2.9,1.52,3.8-2.2,5.28-5.68,9.56-11.5,11.14a14.06,14.06,0,0,1-14.55-4.19,22.46,22.46,0,0,1-4.38-6.58c-5.21-12.48-5.2-25.08.48-37.36,3.12-6.76,8.07-11.52,16.36-11.53,6.28,0,10.54,2.84,13.23,8.27a23,23,0,0,1,1.92,5.63c2,9.94.42,11.81-9.62,11.82Zm12.11-6.47c.86-4.1.67-7.76-1-11.2s-4.61-3.59-6.56-.42a16.68,16.68,0,0,0-2.49,12.38Z"/><path d="M1114.58,1924.3l-7.65,3.67c2.09,9.35,4.2,18.75,6.65,29.7,5.17-10.39,5.43-20.38,8.73-29.79a49.24,49.24,0,0,1-5.08-2.59,2.67,2.67,0,0,1-1-2.17c.1-.69,1-1.83,1.5-1.82,5.66.06,11.32.28,17,.58.33,0,.61,1.08,1.11,2-5.21,2.71-6.5,7.88-8.23,12.9-4.32,12.57-8.81,25.09-13.29,37.6-.77,2.15-1.84,4.2-2.77,6.29h-1.69a31,31,0,0,1-1.94-4.24q-6.32-21.36-12.47-42.75c-.94-3.28-2-6.25-5.33-8-.88-.45-1.14-2.07-1.69-3.16,1.12-.52,2.23-1.45,3.36-1.49,6.4-.17,12.8-.22,19.2-.08,1.26,0,2.51,1.06,3.77,1.63C1114.69,1923.2,1114.64,1923.75,1114.58,1924.3Z"/><path d="M629.18,1919.59v13.52c-2.23-1-3.73-1.61-5.15-2.36-2.54-1.34-4.4-.52-5.36,1.91a19.39,19.39,0,0,0-1.53,6.39c-.24,9.52-.22,19-.31,28.58,0,3.36,1.4,5.44,4.87,5.94a7.51,7.51,0,0,1,3.16.92,3.83,3.83,0,0,1,1.49,2.5c.06.53-1,1.25-1.66,1.75-.3.23-.85.16-1.29.16-7.53,0-15.06.07-22.58-.08-1.06,0-2.1-1.16-3.14-1.78.69-1,1.26-2.66,2.09-2.8,5.52-.92,6.17-4.54,6.06-9.24-.23-10.42-.13-20.84-.1-31.26,0-3.68-.84-6.43-5.12-7.18-1.12-.19-2-1.87-3-2.86,1.42-.71,2.93-2.17,4.22-2,5.35.72,10.91-2.79,16.14.85.47.33,1.86-.85,2.88-1.11C623.34,1920.81,625.84,1920.32,629.18,1919.59Z"/><path d="M327.58,1922.38c-.42,4.7-.82,9.08-1.24,13.61-2.59.89-4.49,1-5-2.19-.11-.66-.22-1.32-.39-2-.72-2.66-1.62-5.17-5-5.35a6.41,6.41,0,0,0-6.8,4.32,58.89,58.89,0,0,0-3.14,12.12,39.61,39.61,0,0,0,3,20.8,22.22,22.22,0,0,0,3.83,6.15c2.74,3.06,4.75,3,7.89.27,1.14-1,2.25-2,3.5-3.13,3.1,1.56,3.19,3.41,1.53,5.92-5.77,8.77-17.59,9.7-24.47,1.67-6.09-7.11-8-15.75-7.66-24.82a36.92,36.92,0,0,1,6.53-20.62C306.66,1920,316.5,1917.44,327.58,1922.38Z"/><path d="M1251.26,1922.79c3.43-2.16,6.57-3.73,10.75-1.85V1933c-2.14-.89-3.45-1.41-4.74-2-3.25-1.45-5-1-6.19,2.34a25.67,25.67,0,0,0-1.49,7.79c-.19,8.44-.16,16.88-.07,25.32.06,5.4.17,5.4,5.78,7.22a8.47,8.47,0,0,1,2.48.87c.61.46,1.39,1.52,1.22,2a4.88,4.88,0,0,1-2,2.16c-.48.31-1.3.13-2,.13-6.87,0-13.75.08-20.61-.09-1.29,0-2.56-1.11-3.83-1.7.87-1.08,1.59-2.87,2.65-3.1,4.78-1,5.59-4.19,5.52-8.43-.17-9.77,0-19.54-.06-29.31,0-4.55.18-9.15-6.13-10-.81-.1-1.67-1.78-2-2.87-.1-.37,1.43-1.65,2.3-1.73,4.63-.44,9.29-.8,13.94-.83C1248.24,1920.86,1249.6,1922,1251.26,1922.79Z"/><path d="M928.11,1922c4.91-.32,9.43-1.32,13.7-.7a33,33,0,0,0,14.2-1.13c.9-.26,2.07.41,3.35.7.55,4,1.37,7.86-.85,11.92a29.87,29.87,0,0,1-3.14-1.15c-4.36-2.17-6-1.71-7.31,2.75a29,29,0,0,0-1.22,7.85c-.16,8-.13,16,0,24,.05,5.67.23,5.77,5.49,7.48a10.89,10.89,0,0,1,3.06,1.15,2.65,2.65,0,0,1,.91,2.19c-.13.68-1,1.27-1.66,1.76-.3.23-.86.15-1.3.15H929.06c-1.89-2.81-1-4.47,1.39-4.94,4.8-1,5.69-4,5.62-8.31-.17-10.22,0-20.44-.07-30.66,0-3.94-.26-7.67-5.45-8.42C929,1926.35,929,1925.94,928.11,1922Z"/><path d="M192.21,1928l-5.78-1.77c.68-1.4.95-2.77,1.78-3.49,2.3-2,5-3.49,7.2-5.61,1.36-1.34,1.8-3.56,3-5.16a5.19,5.19,0,0,1,2.93-1.81c.36-.07,1.49,1.54,1.56,2.44.22,2.62.08,5.26.08,8.45,2.68.22,4.9.08,6.89.68,1.15.34,1.94,1.86,2.9,2.86-.89.83-1.65,2.12-2.68,2.39a36.19,36.19,0,0,1-6.3.51,31.56,31.56,0,0,0-.69,4.5c-.06,10.89,0,21.77,0,32.66a19.71,19.71,0,0,0,.09,2.66c.68,5,2.68,6.18,7.13,3.76,2.51-1.36,4.68-2.91,6.85.84-3.18,4.85-8,7.33-13.58,8.18s-9.38-1.78-10.73-7.48a29,29,0,0,1-.55-6.6c0-10.44,0-20.88,0-31.32Z"/><path d="M867,1920.85c.2,2.16.43,3.44.41,4.71-.17,13.3-.33,26.6-.61,39.9-.09,4.14.6,7.42,5.39,8.56,1,.24,1.72,2,2.56,3.14-1.29.58-2.56,1.62-3.87,1.65-6.18.18-12.38.08-18.58.08-.22,0-.5.09-.65,0-1.16-.74-2.29-1.52-3.42-2.28.83-.89,1.54-2.37,2.51-2.55,4.89-.93,5.54-4.21,5.49-8.39q-.21-15.63,0-31.26c0-3.9-.44-7-5.15-7.77-1.09-.18-1.91-1.92-2.85-3,1.2-.7,2.35-1.9,3.61-2C856.68,1921.22,861.52,1921.12,867,1920.85Z"/><path d="M861,1917.83a6.82,6.82,0,1,1-.64-13.61,7,7,0,0,1,7.34,6.83A6.94,6.94,0,0,1,861,1917.83Z"/><path d="M715.5,586.19c-.22.62-.77,1.35-.61,1.85,1.94,5.86-1.23,9-5.81,11.71s-8.91,5.69-13.13,8.41c-4.49-1.62-6.36-5-8.39-8.1-6.84-10.33-13.39-20.85-20.22-31.19-6.35-9.61-13-19-19.38-28.61-3.68-5.52-7.1-11.21-10.62-16.83a7.14,7.14,0,0,1-.06-8.12c3.61-5.88,9-9.72,15-12.8,2.7-1.4,5.3-.5,7.16,1.76a54.43,54.43,0,0,1,5.37,7.55,293.72,293.72,0,0,0,26,37.58c1.35,2.22,2.7,4.45,4.06,6.67,1.34,3.59,2.1,7.58,4.21,10.64s3.74,7,8.35,7.34c-.1.34-.18.64-.05.13-.12.53-.06.25,0,0-1.84-2.71-3.63-5.44-5.52-8.11-2.34-3.31-4.76-6.57-7.14-9.85l-4.07-6.66c-1.59-3.34-2.93-6.82-4.82-10-3.64-6.09-7.55-12-11.41-18q-4.87-7.53-9.91-15c-2.18-3.23-2.2-5.69.14-7.57,2.53-2,7.06-2,9,.41,2.51,3.1,4.74,6.43,7,9.69,10.69,15,20.3,30.69,29.59,46.63,6.17,10.58,13.58,20.94,25.93,25.79,5,1.95,8.29,5.88,11.52,9.83,4.94,6,9.27,12.43,11.45,20.1,1,3.48,1,6.45-1.89,9.11-3.67,3.43-7.2,7-11.2,11-1.7-2.06-2.88-3.28-3.83-4.68-4.86-7.16-9.62-14.39-14.51-21.54a37.54,37.54,0,0,0-3.45-3.82l.23.22q-2.76-4.77-5.53-9.54c-1.19-2.06-2.4-4.12-3.6-6.17a2,2,0,0,1-.32.18ZM709.42,579l-.35-.21.31-.21-.14.3.52.24Z"/><path d="M674.21,626.29c3.17-14.89-2.22-27.16-9.34-38.53-11.15-17.84-20.84-36.67-34.57-52.84-.56-.67-1.46-1.51-1.37-2.18.22-1.87.34-4.41,1.53-5.3,1-.76,3.62.09,5.24.83,1.06.48,1.67,2,2.41,3.11q37.2,55.64,74.37,111.27c2.19,3.28,5,6.36,2.42,10.87-2.91,5.14-7.48,7.46-13,8.14a5.25,5.25,0,0,1-3.9-1.79c-7.42-8.82-14.81-17.67-21.85-26.78C674.7,631.21,674.71,628.18,674.21,626.29Z"/><path d="M724.24,601.54a70.17,70.17,0,0,0,3.34,6.93c3,4.9,6.08,9.76,9.39,14.46,2.26,3.2,2.2,6.06-.07,9.1-4.1,5.49-9.74,9-15.85,11.64-1.12.49-3.64-.33-4.47-1.37-5.09-6.37-10-12.88-14.73-19.53-4.55-6.42-3.84-10.24,2.48-15.29,2.59-2.07,5.33-4,8.07-5.83,5.93-4.07,6.37-4,12.06.11Z"/><path d="M160.11,618.94c-.61,3.75,1,7.93-2.16,11.33-4.77,5.13-10.14,9.36-17.09,10.94-5.08,1.15-10.92-4.84-10.12-10.34a12.1,12.1,0,0,1,2-5.57q6.25-8.13,13.1-15.81a12.37,12.37,0,0,1,5.07-3c4.44-1.58,8.6,1.06,9.19,5.77A55.66,55.66,0,0,1,160.11,618.94Z"/><path d="M504.67,710.38c2.75.89,4.69,1.63,6.69,2.13,1.49.37,3.42,0,4.51.75,1.61,1.19,3.41,3,3.68,4.82.19,1.24-1.8,3.68-3.26,4.15-6.44,2-12.94,2.56-19.43-.47-6.27-2.93-9.44-9.88-4.61-17.25,2.12-3.23,5.52-5.72,8.61-8.19,2.15-1.72,4.91-2.62,7.16,0,2,2.34,2.81,4.89.44,7.73C507.1,705.64,506.25,707.68,504.67,710.38Z"/></svg>