<svg xmlns="http://www.w3.org/2000/svg" viewBox="0 0 1200 329.21"><defs><style>.cls-1{fill:#5f2e8a;}.cls-2{fill:#83b4d3;}</style></defs><title>szauna</title><g id="Réteg_1" data-name="Réteg 1"><path class="cls-1" d="M909,94.25c-4.1-3.1-9.46-3.9-14.58-4.41-61-6.12-122.79,15.18-172.82,50.67C712,130.28,702.11,119.8,689.36,114s-29.22-5.64-39.33,4c-8.6,8.23-10.69,21.81-7,33.15s12.23,20.55,22.08,27.23c8.54,5.8,19.38,10,29.07,6.47a33,33,0,0,0,9.27-5.22c-.51-.54-1-1.07-1.63-1.63-7.2-6.85-15.95-11.81-24.11-17.48s-16.08-12.18-21-20.83c-2.6-4.59-4.35-10.26.19-15a11.94,11.94,0,0,1,4.52-2.95,16.27,16.27,0,0,1,5.65-1,28.76,28.76,0,0,1,9.35,1.83c16.86,5.87,29.89,19.73,39.09,35a44.16,44.16,0,0,1,2.74,5.46,129.45,129.45,0,0,1,28.48-24.77c22.12-14.1,49-19.75,75.2-21s52.54-1.59,78.63-4.33c4.5-.48,9.55-1.43,12-5.23C915.32,103.5,913.06,97.36,909,94.25Zm-14.6,10.93c-4.79-.26-8.59-2.12-8.48-4.16s4.08-3.48,8.88-3.23,8.59,2.12,8.49,4.16S899.15,105.43,894.35,105.18Z"/><path class="cls-2" d="M727.84,243.08c-6.55.1-12.91-2-19.1-4.15s-12.44-4.45-19-4.79a33.08,33.08,0,0,0-26.12,11l4.7,38.06,10,31.59,31,2.49,23.83-9.14L744.8,291.8v-57C741.26,240.34,734.39,243,727.84,243.08Z"/><path class="cls-2" d="M1051.58,84.24c-23.83,31-15,87.57,4.44,112.51s46.55,39.53,50.43,68.81,1.66,54.23-7.76,63.65c0,0,24.94-21.62,27.71-54.87s-7.75-59.86-26.88-79C1079.57,175.41,1051.58,160.17,1051.58,84.24Z"/><path class="cls-2" d="M1089.27,42.12c-23.83,31-15,87.57,4.44,112.51s46.55,39.53,50.43,68.81,1.66,54.23-7.76,63.65c0,0,24.94-21.62,27.71-54.87s-7.76-59.86-26.88-79C1117.26,133.29,1089.27,118.05,1089.27,42.12Z"/><path class="cls-2" d="M1172.68,111.12c-20-20-47.94-35.19-47.94-111.12-23.83,31-15,87.57,4.44,112.51s46.55,39.53,50.43,68.81,1.66,54.22-7.76,63.65c0,0,24.94-21.62,27.71-54.87S1191.8,130.24,1172.68,111.12Z"/><path class="cls-2" d="M719.8,183.4a66.78,66.78,0,0,0-4.23-18,42.18,42.18,0,0,0-2.94-6c-7.14-11.89-19.42-27.37-37.33-33.61a25.31,25.31,0,0,0-8.25-1.64,12.75,12.75,0,0,0-4.49.76,8.61,8.61,0,0,0-3.27,2.12c-2.6,2.74-2.51,6.17.29,11.11,4.83,8.53,12.81,14.76,20,19.74,2.17,1.5,4.44,3,6.63,4.43,6.14,4.05,12.42,8.18,17.88,13.37.66.63,1.26,1.24,1.84,1.84,6.41,6.69,8.1,12.13,9.74,17.39.3,1,.61,2,1,3a.25.25,0,0,0,.26.2c.09,0,.13,0,.18-.12A25.52,25.52,0,0,0,719.8,183.4Z"/><path class="cls-2" d="M0,301.36l10-6q10.56,19.44,24.41,19.45a23.41,23.41,0,0,0,11.13-2.76,19.53,19.53,0,0,0,7.92-7.41,19.07,19.07,0,0,0,2.72-9.84,20,20,0,0,0-4-11.61Q46.67,275.34,32,264.3T13.69,248.21a29.45,29.45,0,0,1-6.25-18,27.26,27.26,0,0,1,3.69-14,26.24,26.24,0,0,1,10.36-10A29.87,29.87,0,0,1,36,202.58a31,31,0,0,1,15.57,4.12q7.24,4.13,15.33,15.17l-9.61,7.29Q50.67,220.36,46,217.55a19.51,19.51,0,0,0-10.21-2.8,16.18,16.18,0,0,0-11.65,4.32,14.16,14.16,0,0,0-4.52,10.65,18.08,18.08,0,0,0,1.6,7.44A27.58,27.58,0,0,0,27.06,245q2.31,2.24,15.21,11.76,15.28,11.3,21,20.09t5.68,17.7q0,12.79-9.72,22.25a32.69,32.69,0,0,1-23.66,9.44,34.67,34.67,0,0,1-19.45-5.72Q7.36,314.82,0,301.36Z"/><path class="cls-2" d="M203.48,227.39l-9.28,7.13a50.87,50.87,0,0,0-18.45-15.17,54.05,54.05,0,0,0-23.66-5.16A52.24,52.24,0,0,0,126,221a48.62,48.62,0,0,0-18.62,18.17,50.32,50.32,0,0,0-6.6,25.66q0,21.53,14.77,35.94t37.26,14.41q24.74,0,41.39-19.37l9.28,7a59.31,59.31,0,0,1-22,17.33,69,69,0,0,1-29.42,6.12q-30.9,0-48.75-20.57-15-17.37-15-41.94,0-25.86,18.13-43.51t45.43-17.65a66.67,66.67,0,0,1,29.78,6.52A57.78,57.78,0,0,1,203.48,227.39Z"/><path class="cls-2" d="M225.81,205.54h11.76v49.39h60V205.54H309.3V323.29H297.53V266.46h-60v56.83H225.81Z"/><path class="cls-1" d="M398,277c-3.81-5.75-10.87-12.35-21-19.63-8.32-6-13.29-9.73-14.72-11.09a24.75,24.75,0,0,1-5.39-7,15.37,15.37,0,0,1-1.43-6.45,11.75,11.75,0,0,1,3.92-9,14.33,14.33,0,0,1,10.27-3.68,17.91,17.91,0,0,1,9.16,2.45c2.86,1.67,6.43,5.26,10.63,10.68l1,1.29,12.05-8.9-1-1.29c-5.4-7.19-10.63-12.22-15.54-15a32.85,32.85,0,0,0-16.09-4.15,31.69,31.69,0,0,0-15,3.68,27,27,0,0,0-14.64,24.33,29.29,29.29,0,0,0,6.44,18.17c2.47,3.33,8.46,8.47,18.31,15.72,9.4,6.91,15.93,12.86,19.42,17.7A17.29,17.29,0,0,1,388.05,295a16.51,16.51,0,0,1-2.44,8.59,17.41,17.41,0,0,1-7.11,6.46,21.77,21.77,0,0,1-10.13,2.45c-8.35,0-15.91-6-22.48-17.74l-.82-1.49L332.4,300.7l.77,1.37c4.92,8.76,10.41,15.12,16.32,18.9a36.42,36.42,0,0,0,20,5.73,34.28,34.28,0,0,0,24.35-9.48c6.66-6.31,10-13.85,10-22.43C403.86,288.84,401.89,282.85,398,277Z"/><path class="cls-1" d="M419.35,211.82h81L437.9,309.57h60.43v12.57H413.47l62.4-97.84H419.35Z"/><path class="cls-1" d="M626.49,211.82V322.14h-14v-19a60.91,60.91,0,0,1-20,16.32A54.15,54.15,0,0,1,568.19,325q-23.43,0-40-17t-16.58-41.31a55.91,55.91,0,0,1,16.73-40.76Q545.07,209,568.59,209a52,52,0,0,1,24.59,5.78A56.07,56.07,0,0,1,612.5,232.1V211.82Zm-56.73,10.85a42.83,42.83,0,0,0-37.83,22.18,44.72,44.72,0,0,0,.05,44.56A43.61,43.61,0,0,0,548,306a42,42,0,0,0,21.63,5.93A44.32,44.32,0,0,0,591.74,306a41,41,0,0,0,16-15.9,45.43,45.43,0,0,0,5.62-22.58q0-19.14-12.61-32T569.76,222.67Z"/><path class="cls-1" d="M656.6,211.82h14.2v51.51q0,18.85,2,26a28.92,28.92,0,0,0,11.62,16q8.58,5.88,20.46,5.88t20.16-5.73A29.32,29.32,0,0,0,736.5,290.4q2.13-6.39,2.13-27.07V211.82h14.5V266q0,22.81-5.33,34.37a40.65,40.65,0,0,1-16,18.1Q721.09,325,705,325t-26.92-6.54a40.31,40.31,0,0,1-16.12-18.25q-5.32-11.71-5.33-35.24Z"/><path class="cls-1" d="M784.66,211.82h14.19V231.6q8.52-11.35,18.86-17A46.37,46.37,0,0,1,840.22,209a39.11,39.11,0,0,1,21.95,6.28,37.52,37.52,0,0,1,14.15,16.93q4.56,10.65,4.56,33.16v56.78h-14.2V269.52q0-19.06-1.58-25.45-2.46-10.95-9.46-16.48t-18.25-5.52a35,35,0,0,0-23.07,8.51,39.87,39.87,0,0,0-13.44,21.09q-2,8.22-2,30v40.46H784.66Z"/><path class="cls-1" d="M1021.2,211.82V322.14h-14v-19a60.88,60.88,0,0,1-20,16.32A54.2,54.2,0,0,1,962.9,325q-23.42,0-40-17t-16.57-41.31a55.87,55.87,0,0,1,16.73-40.76Q939.79,209,963.31,209a52,52,0,0,1,24.59,5.78,56,56,0,0,1,19.31,17.33V211.82Zm-56.73,10.85a42.83,42.83,0,0,0-37.82,22.18,44.66,44.66,0,0,0,.05,44.56,43.46,43.46,0,0,0,16,16.56,41.94,41.94,0,0,0,21.62,5.93A44.27,44.27,0,0,0,986.45,306a41,41,0,0,0,16-15.9,45.33,45.33,0,0,0,5.62-22.58q0-19.14-12.61-32T964.47,222.67Z"/></g></svg>