<svg xmlns="http://www.w3.org/2000/svg" viewBox="0 0 595.28 605.21"><defs><style>.cls-1{fill-rule:evenodd;}</style></defs><title>wtf</title><g id="Layer_2" data-name="Layer 2"><path d="M297.64,598.55A295.95,295.95,0,0,1,88.38,93.34,295.94,295.94,0,0,1,506.9,511.87,294,294,0,0,1,297.64,598.55Zm0-586.53C137.41,12,7.06,142.38,7.06,302.6S137.41,593.19,297.64,593.19,588.22,462.83,588.22,302.6,457.87,12,297.64,12Z"/><path class="cls-1" d="M312,175c-14.66.17-25.28,3.85-34.47,9.48-5.73-.71-8.48-3.2-10.54-7.58-44.72,22.44-65.1,124-2.56,140.06-2.12,15.31.16,19.52,9.84,23.4,8,3.19,8.69-1.24,18.34,1.86,7.92,2.54,6.9,8.77,15.43,12.14,14.44,3.28,14.18-10.47,24.19-12.06,52.49,16.74,84.93-21,93.23-61,6.6,59.93-24.07,118.18-54.11,158.47-17,22.75-27.81,43-67.64,38.66-3.71-.27-6.77-1.59-8.21-4.76-3.22-7.08-2-19.5-2.46-28.38-5.54,8.09-13.9,14.77-25.37,16.23,2.65,6.11,1.37,10.56-.68,15-10.72,12.32-57.53,20-58.64-6.74-16.73-5-23-9.44-30.88-18.29-3-3.37-3.32-9.48-3.66-15.83-40.4-10.35-41.36-45.82-28.57-94.42,5.88-22.37,24.53-40.85,32.61-50.74,0,0-11.67-6.33-15.9-14.18-.31-.57-10.63-4.08-15.19-9-.95-1.45-1.06-3.7,1-5.88,1.55-1.67,3.16-2.75,4.77-2.21,6.51,3.12,14.19,10.72,14.19,10.72,5.13,2.08,13.63,6.95,18.73,11.71.85-56.78,15.67-53.19,9.69-75.48-18.22.53-31.28,1.53-34.41-11.83,10.56-1.68,19.75-4.73,30.92-5.8-.42-8.89-14.7-2.94-6.88-18.58,1.88-3.75-11.56-3.74-8.67-13.43,3-9.9,39.73-14.95,42.13-5.35.68,2.72-7.45,12.54-4.46,17.22,6.53,10.23-8.26,14.65-4,17,21.95.69,33.65-10.84,49.53-16.22-11.9-29.85,4.6-49.67,39.86-44.32C314.87,129.89,323.34,160.16,312,175ZM177.73,157.8C185,158,205.54,155,215,151.52,209,145.92,183.68,147.77,177.73,157.8Zm.68,1.87c1.12,4.59,8.87,5.81,9.35,9,.51,3.4-3.5,4.1-3.06,7.82.51,4.25,6.47,4.4,8.16,6.46,1.87,2.3.85,5.44.85,5.44a25.58,25.58,0,0,0,12.44-1.12,12.61,12.61,0,0,1,.31-5c1-3.35,7.23-4.62,6-9.4-1.08-4.28-3.42-2.9-3.47-5.56,0-2,2.73-9.8,4.93-13.77C199,159.33,178.41,159.67,178.41,159.67ZM164.09,196c1.06,4.84,4.65,6.69,14.32,6.88,14.08.29,36.34-2.46,49.47-6.29,7.28-2.12,9-7.09,8-9.52C200.93,189.48,192.48,191.21,164.09,196Zm36.25,53.8c.78,7.14,6.59,15.66,7.93,23.86,1,6.31-.81,16.64,0,21.67.85,5.19,12.47,3.6,11.34-1.11-1.76-11.27-6.08-14.72-6-22.49s1.58-16.68.84-22.95c-1.7-14.45-8.33-13.94-8.73-45.73-1.93,0-6.21.78-8.14.78C204.72,224.71,198.69,234.71,200.34,249.77ZM160.17,273l2.5-3.68c-3.31-2.42-10.06-8.16-10.06-8.16-1.37-.12-5.6,2.08-4.65,5.59C151.12,268.92,157.21,271,160.17,273Zm23.11,10s-12.73-8.07-15.65-9.62c0,0-3.16-.86-2.09,2.19,2.92,3,9.56,7.52,15.16,10.62C180.7,286.17,184.87,286.26,183.28,283Zm20,16.19c3.33-5.12-14.8-16.42-18.6-12.43C180.32,290,201.57,305.34,203.28,299.17Zm3.07,2c-5.5,3.85-.23,8.61-6.25,15.75-1.77,2.09.07,5.54.58,8.16,9-3.57,24.48-4.08,32.3-3.57,2.27.15.17-6,.17-6-10.37-8.12-3.74-8.63-7.82-14.92C218.7,299.41,212.07,300.21,206.35,301.17Zm-3.71,25.62c5.6,7.74,4.5,26.17,4.5,26.17,8.5,5.27,10.55,19.8,2.06,28.91-6.71,7.2.71,20.91,11.16,27.79,10.93,7.19,4.75,13.51,4.75,13.51-10.5,9.93-30.2,14.38-45.13,12.65,2,20,16.27,22.69,33,27.86-.93,4.4-.11,11,3.72,14.66,12.19,8.35,39.54,3.53,46.38-5.8,0,0,3.92-5.89-3-14.11,17.64-4.75,30.74-12.87,32-32.27,2.08-31.76-68.49-42-58.89-65.14,5.23-12.6-4.61-21.32-1-37.29C218.3,322.8,215,322.92,202.64,326.79Zm103,29.79c-11.34-6.29-20-8.95-31.58-10.26C270.82,360.28,299.39,369.34,305.6,356.58Zm-9.24,71.8c4.08-14.6,9.54-19.92,11.95-36.18,0-6.79-3.48-12.17-9.82-15.29-13.22-6.49-31.61-10-48.2-9.43-4.36.14-16.06-1.45-8.81,7.28C264.93,394.88,292.57,392.62,296.36,428.38Z"/><path class="cls-1" d="M409.67,231c-1.31-16.58-11.94-24.79-23.75-31.84,3.33-21.54,20-32.14,39.6-27.83C460.17,178.92,459.67,240,409.67,231Z"/><path class="cls-1" d="M292.43,238.8c12.11,6.21,11.95,28.2,5,31.59-16.35,7.92-18,16.81-25.68,18.66-9.66,2.33-19.91-5.5-20.71-14.69C249.7,259.3,267.54,226,292.43,238.8Z"/><path class="cls-1" d="M357.83,264.26c33.7-6.33,31.14,61.3,0,58-6.1-.65-9.52-3.88-13.82-12.25-2.3-4.49-.46-14.75-4-19.21C336.78,286.69,335.26,268.51,357.83,264.26Z"/><path class="cls-1" d="M319.82,330.32c1.34,1.83-1.32,5.56-2.88,5.55-16.09-.17-21.72,4-23.81,3.11-3.62-1.46.1-6.87-12.45-16.62-2.68-2.09-1.69-6.71,1-6.81C293.65,315.11,312,319.67,319.82,330.32Z"/><path d="M44.41,195.93l.85.26a3.12,3.12,0,0,0,0,1.61,3.91,3.91,0,0,0,.93,1.44c.16.15,1.19,1,3.1,2.54l22.53,17.63-.27.89-22.34,1.48,17.33,14.64-.26.85L37.87,239.6a28.2,28.2,0,0,0-5.29.74A3,3,0,0,0,31,242.13l-.84-.27,4.16-13.42.85.26A3.89,3.89,0,0,0,35,231a1.42,1.42,0,0,0,.94.88,13.94,13.94,0,0,0,4,0l16.91-1.41L46.63,222l-3.68.26a26.2,26.2,0,0,0-4.1.5,3.84,3.84,0,0,0-1.7.91,5.23,5.23,0,0,0-1.06,2.06l-.85-.26,4.66-15,.84.26a8.79,8.79,0,0,0-.45,2.34,1.52,1.52,0,0,0,.31.92,1.47,1.47,0,0,0,.77.54,16.25,16.25,0,0,0,3.54,0l16.4-1.09-11.69-9.16a28.21,28.21,0,0,0-2.51-1.85,6.53,6.53,0,0,0-1.33-.62,1.92,1.92,0,0,0-1.68.19,4.32,4.32,0,0,0-1.34,2.26l-.84-.26Z"/><path d="M74.08,189.05l-5,10.32,2.25,2.6a6.91,6.91,0,0,0,2.06,1.73,2.15,2.15,0,0,0,2.29-.12A9.5,9.5,0,0,0,77.61,201l.8.39-4.67,9.71-.8-.38a4.89,4.89,0,0,0-.06-3.21,19.31,19.31,0,0,0-3.21-4.62L51.39,181.19l.2-.41,29,1a15.88,15.88,0,0,0,5.48-.42,3.75,3.75,0,0,0,1.77-1.69l.79.38-6.79,14.13-.8-.38.28-.58a4.94,4.94,0,0,0,.68-2.62,1.29,1.29,0,0,0-.77-1,3.1,3.1,0,0,0-.86-.26c-.14,0-.78-.07-1.92-.13Zm-1.94,0L60,188.53l7.91,9.32Z"/><path d="M76.1,140.08l7.39,4.74-.47.72a13.79,13.79,0,0,0-4.59-.92,6.46,6.46,0,0,0-3.16,1,8.24,8.24,0,0,0-2.08,2.45l-1.3,2L93,163.59A10.16,10.16,0,0,0,95.72,165a2.47,2.47,0,0,0,1.49-.32,4.25,4.25,0,0,0,1.57-1.59l.58-.91.75.48L91,177l-.75-.48.58-.9a4.37,4.37,0,0,0,.8-2.18,2.32,2.32,0,0,0-.43-1.45,9.92,9.92,0,0,0-2.4-1.84L67.7,156.65l-1.26,2c-1.18,1.83-1.64,3.42-1.4,4.75a9.21,9.21,0,0,0,3.23,5.19l-.49.77-7.38-4.73Z"/><path d="M89,127l10.1,8.49.42-.49a5.11,5.11,0,0,0,1.39-4.67,11.85,11.85,0,0,0-3.23-5l.59-.7,13,10.93-.58.69a12.86,12.86,0,0,0-4.25-2,5.2,5.2,0,0,0-3.2.11,8.12,8.12,0,0,0-2.74,2.31l7,5.88a13.08,13.08,0,0,0,2.66,1.94,2,2,0,0,0,1.29,0,4.17,4.17,0,0,0,1.59-1.29l1.24-1.49a11.6,11.6,0,0,0,3.08-6.92,11.72,11.72,0,0,0-2.37-7.13l.57-.68,6.94,7.75-18,21.44-.68-.57.7-.82a4.5,4.5,0,0,0,1.07-2.06,2.15,2.15,0,0,0-.26-1.47,9.73,9.73,0,0,0-2.13-2.14L86.77,135.34a18.52,18.52,0,0,0-2.15-1.65,2.3,2.3,0,0,0-1.56-.15A4.17,4.17,0,0,0,81,135l-.69.82-.68-.57L97.05,114.5l7.33,6.17-.58.7a11.69,11.69,0,0,0-5.12-1.76,7.24,7.24,0,0,0-4,1.27,19.62,19.62,0,0,0-3.56,3.56Z"/><path d="M123.73,112.87l6.1,6.73a10.25,10.25,0,0,0,2.46,2.23,2.36,2.36,0,0,0,1.58,0,7.68,7.68,0,0,0,2.52-1.73l.59.65-12.29,11.15-.59-.66a7.48,7.48,0,0,0,2-2.36,2.49,2.49,0,0,0,.1-1.56,10,10,0,0,0-2-2.66l-14.13-15.58a10.14,10.14,0,0,0-2.46-2.24,2.42,2.42,0,0,0-1.58,0,7.59,7.59,0,0,0-2.52,1.74l-.59-.66,11.15-10.11A32.83,32.83,0,0,1,121,92.63a8.66,8.66,0,0,1,5.31-.77A8,8,0,0,1,131,94.5a7.64,7.64,0,0,1,2.07,6.13,10.72,10.72,0,0,1-1.92,4.75l13.14,2.89a16.11,16.11,0,0,0,3.4.5,4.07,4.07,0,0,0,2.23-.92l.59.66L143,115.36l-17.66-3.92Zm-10.68-11.78,9.54,10.52,1-.92a15.22,15.22,0,0,0,3.27-3.79,5,5,0,0,0,.45-3.37,8.09,8.09,0,0,0-2.09-3.71q-2.49-2.75-5-2.89c-1.65-.1-3.42.72-5.32,2.44Z"/><path d="M152,90l5.13,7.38a10,10,0,0,0,2.15,2.54,2.36,2.36,0,0,0,1.56.24,7.67,7.67,0,0,0,2.72-1.4l.5.73-13.52,9.4-.51-.73a7.28,7.28,0,0,0,2.26-2.08,2.51,2.51,0,0,0,.31-1.54,10.13,10.13,0,0,0-1.62-2.89L139,84.33a9.84,9.84,0,0,0-2.16-2.53,2.39,2.39,0,0,0-1.55-.25,7.75,7.75,0,0,0-2.72,1.4l-.51-.73,11.61-8.06q5.73-4,9.64-3.67a7.71,7.71,0,0,1,6,3.38,7.92,7.92,0,0,1,1.47,5.55,10,10,0,0,1-2.69,5.6A37.3,37.3,0,0,1,152,90Zm-9.06-13,8,11.51c.45-.27.79-.49,1-.64a5.79,5.79,0,0,0,2.71-4q.3-2.33-1.77-5.31c-1.37-2-2.81-3.12-4.31-3.44a6.19,6.19,0,0,0-4.82,1.31Z"/><path d="M188.8,83.61l.44.77-14.8,8.27-.43-.77.94-.53a4.42,4.42,0,0,0,1.73-1.54,2.15,2.15,0,0,0,.28-1.47,9.84,9.84,0,0,0-1.24-2.76L165.32,67a10.69,10.69,0,0,0-1.75-2.58,2.35,2.35,0,0,0-1.46-.43,4.34,4.34,0,0,0-2.11.65l-.94.52-.43-.77,14.79-8.27.43.78-.93.52a4.4,4.4,0,0,0-1.74,1.55,2.33,2.33,0,0,0-.3,1.48,10.16,10.16,0,0,0,1.24,2.75l10.4,18.62a10.4,10.4,0,0,0,1.76,2.58,2.47,2.47,0,0,0,1.47.42,4.26,4.26,0,0,0,2.12-.65Z"/><path d="M195.65,65.2l3.59,8.23a10.15,10.15,0,0,0,1.63,2.91,2.33,2.33,0,0,0,1.48.54,7.64,7.64,0,0,0,2.94-.84l.35.81-15.1,6.59-.35-.81a7.53,7.53,0,0,0,2.63-1.6,2.49,2.49,0,0,0,.59-1.45,9.84,9.84,0,0,0-1-3.15L184,57.15a10,10,0,0,0-1.62-2.91,2.36,2.36,0,0,0-1.48-.54,7.73,7.73,0,0,0-2.94.84l-.36-.81,13-5.65q6.4-2.79,10.18-1.73A7.72,7.72,0,0,1,206,50.83a8,8,0,0,1,.36,5.74,10,10,0,0,1-3.73,5A37.09,37.09,0,0,1,195.65,65.2ZM189.3,50.65l5.6,12.84c.5-.18.87-.33,1.12-.44a5.73,5.73,0,0,0,3.42-3.38q.75-2.22-.7-5.55t-3.56-4.21a6.15,6.15,0,0,0-5,.35Z"/><path d="M220.05,39.15l3.72,12.66.62-.18a5.11,5.11,0,0,0,3.74-3.12,11.89,11.89,0,0,0,.09-6l.87-.26,4.79,16.28-.87.26a12.86,12.86,0,0,0-2.44-4,5.25,5.25,0,0,0-2.73-1.68,8.08,8.08,0,0,0-3.56.42l2.57,8.76A13.32,13.32,0,0,0,228,65.37a1.94,1.94,0,0,0,1.09.7,4,4,0,0,0,2-.2l1.86-.55a11.65,11.65,0,0,0,6.39-4.07,11.72,11.72,0,0,0,2-7.26l.85-.25L243.69,64,216.81,72l-.25-.85,1-.31a4.4,4.4,0,0,0,2-1.12,2.2,2.2,0,0,0,.6-1.37,9.82,9.82,0,0,0-.6-3l-6-20.46a16.5,16.5,0,0,0-.88-2.56,2.28,2.28,0,0,0-1.21-1,4.2,4.2,0,0,0-2.57.06l-1,.31-.24-.85,26-7.66,2.7,9.2-.87.25a11.89,11.89,0,0,0-3.29-4.29,7.29,7.29,0,0,0-4-1.15,19.39,19.39,0,0,0-4.94,1Z"/><path d="M284.15,25.44l1,8.72-.85.09a14.17,14.17,0,0,0-2.17-4.15,6.58,6.58,0,0,0-2.77-1.82,8.31,8.31,0,0,0-3.21-.08l-2.4.27,2.74,24.85a10.44,10.44,0,0,0,.61,3.06,2.51,2.51,0,0,0,1.19,1,4.39,4.39,0,0,0,2.23.23l1.07-.12.09.88-16.87,1.86-.09-.88,1.07-.12a4.5,4.5,0,0,0,2.2-.74,2.32,2.32,0,0,0,.85-1.25,9.93,9.93,0,0,0-.07-3L266,29.32l-2.33.26q-3.26.36-4.58,1.9a9.18,9.18,0,0,0-2,5.77l-.9.1-1-8.72Z"/><path d="M307.29,25q7.75-.09,12.47,4.84A16.25,16.25,0,0,1,324.28,42a17.24,17.24,0,0,1-3.89,10.76q-4.93,6.09-13.66,5.86t-13.37-6.28a17.15,17.15,0,0,1-3.49-11.21,16.19,16.19,0,0,1,5.22-11.9A15.66,15.66,0,0,1,307.29,25Zm.25,1.54c-3-.08-5.26,1.38-6.88,4.36q-2,3.69-2.17,10.66-.21,8.3,2.6,12.34a6.68,6.68,0,0,0,5.62,2.92,6.83,6.83,0,0,0,4.14-1.09,9.93,9.93,0,0,0,3.4-4.81,27.21,27.21,0,0,0,1.4-8.72q.17-6.44-.95-9.65A9.39,9.39,0,0,0,311.77,28,7.22,7.22,0,0,0,307.54,26.54Z"/><path d="M348.88,45.1c2.91,1.21,4.9,2.43,5.95,3.64a6.93,6.93,0,0,1,1.71,6,7.46,7.46,0,0,1-3.9,5.48c-2.7,1.51-6.3,1.88-10.83,1.12l-16.24-2.73.14-.87a7.36,7.36,0,0,0,3.08.09,2.47,2.47,0,0,0,1.29-.89,10.06,10.06,0,0,0,.86-3.2L334.42,33a10,10,0,0,0,.23-3.32,2.31,2.31,0,0,0-.94-1.26,7.62,7.62,0,0,0-2.92-.91l.14-.87,15.33,2.57q5.49.93,7.61,2.29A8.15,8.15,0,0,1,357,35a7.4,7.4,0,0,1,.63,4.36,6,6,0,0,1-2.37,3.83C353.93,44.24,351.81,44.86,348.88,45.1Zm-8.79-.24-1.72,10.25-.22,1.18a2.31,2.31,0,0,0,2.14,3A7.32,7.32,0,0,0,343.9,59a5.73,5.73,0,0,0,2.85-2,7.49,7.49,0,0,0,1.45-3.41,7.86,7.86,0,0,0-.37-4.19,5.66,5.66,0,0,0-2.43-3A15.63,15.63,0,0,0,340.09,44.86ZM340.4,43a12.32,12.32,0,0,0,5.07.07,5.65,5.65,0,0,0,2.79-1.71A6.63,6.63,0,0,0,349.7,38a6.53,6.53,0,0,0-.26-3.61,5.35,5.35,0,0,0-2-2.47,13.05,13.05,0,0,0-4.88-1.52Z"/><path d="M377.94,60.77,367,57.36,364.77,60a7.15,7.15,0,0,0-1.42,2.28,2.16,2.16,0,0,0,.46,2.25A9,9,0,0,0,366.67,66l-.26.85-10.3-3.22.27-.84a4.82,4.82,0,0,0,3.17-.53,18.58,18.58,0,0,0,4.1-3.84l18.78-21.23.43.14,3.24,28.86a16.17,16.17,0,0,0,1.2,5.36,3.77,3.77,0,0,0,1.94,1.5l-.27.85-15-4.68.27-.84.61.19a5,5,0,0,0,2.69.29,1.28,1.28,0,0,0,.83-.89,2.86,2.86,0,0,0,.13-.89c0-.15,0-.79-.15-1.93Zm-.25-1.93-1.28-12.09-8.07,9.17Z"/><path d="M432.27,57.79l-4.84,10.14-.84-.4a11.91,11.91,0,0,0-.64-7.77,10,10,0,0,0-4.86-4.92,9.64,9.64,0,0,0-5.78-.82A10.21,10.21,0,0,0,410,56.55a20.56,20.56,0,0,0-4.81,6.6,26.81,26.81,0,0,0-2.42,7.63,10.61,10.61,0,0,0,.78,6.36,9.6,9.6,0,0,0,4.7,4.26,11.9,11.9,0,0,0,5.64,1.21,19.59,19.59,0,0,0,6.83-1.86l-1.21,2.52a17.63,17.63,0,0,1-6.9,1.28,17.1,17.1,0,0,1-6.77-1.81,19.76,19.76,0,0,1-7.43-5.84,14.71,14.71,0,0,1-3-8.07A16.7,16.7,0,0,1,397,60.4a17.26,17.26,0,0,1,6-6.9,17.07,17.07,0,0,1,8.69-3,17.76,17.76,0,0,1,8.9,1.69,20,20,0,0,1,5.88,4.45,11.55,11.55,0,0,0,2.15,2,1.84,1.84,0,0,0,1.44.06,3,3,0,0,0,1.42-1.3Z"/><path d="M465,78.76l-6.21,9.37-.77-.52a12.07,12.07,0,0,0,.46-7.78,10,10,0,0,0-4.13-5.55,9.64,9.64,0,0,0-5.6-1.63,10.26,10.26,0,0,0-5.62,1.76,20.83,20.83,0,0,0-5.69,5.86A26.85,26.85,0,0,0,434,87.48a10.58,10.58,0,0,0-.11,6.41,9.49,9.49,0,0,0,4.05,4.88,11.76,11.76,0,0,0,5.41,2,19.23,19.23,0,0,0,7-.87l-1.55,2.33a17.76,17.76,0,0,1-7,.29,17.14,17.14,0,0,1-6.45-2.74,19.8,19.8,0,0,1-6.53-6.83,14.74,14.74,0,0,1-1.88-8.42,16.61,16.61,0,0,1,2.77-8.12,17.69,17.69,0,0,1,15.91-7.75,17.84,17.84,0,0,1,8.57,2.94,19.66,19.66,0,0,1,5.19,5.22,11.2,11.2,0,0,0,1.86,2.26,1.81,1.81,0,0,0,1.42.27,3.18,3.18,0,0,0,1.59-1.08Z"/><path d="M484.15,95.3q6,5,6.35,11.77a16.27,16.27,0,0,1-4.43,12.18,17.32,17.32,0,0,1-9.94,5.67q-7.71,1.42-14.2-4.4t-6.11-13.45a17.17,17.17,0,0,1,4.61-10.8,16.18,16.18,0,0,1,11.7-5.67A15.64,15.64,0,0,1,484.15,95.3Zm-.81,1.33c-2.2-2-4.9-2.36-8.07-1.14q-3.88,1.52-8.56,6.71-5.54,6.17-6,11.07a6.66,6.66,0,0,0,2.38,5.87,6.84,6.84,0,0,0,3.86,1.85,9.75,9.75,0,0,0,5.7-1.45,27,27,0,0,0,6.73-5.73q4.29-4.78,5.54-8a9.47,9.47,0,0,0,.74-5.39A7.19,7.19,0,0,0,483.34,96.63Z"/><path d="M516,132.8l-10.55,8.12.57.74a8.24,8.24,0,0,0,2.66,2.39,5.41,5.41,0,0,0,3.13.5,10,10,0,0,0,4-1.54l.52.66-12.91,9.93-.51-.66c2.26-2.12,3.36-4,3.32-5.68a7.62,7.62,0,0,0-1.63-4.52L504,142l-7.86,6.05a10.4,10.4,0,0,0-2.3,2.11,2.53,2.53,0,0,0-.2,1.52,4.26,4.26,0,0,0,.95,2l.65.85-.7.54-10.34-13.43.71-.54.65.85a4.49,4.49,0,0,0,1.79,1.5,2.14,2.14,0,0,0,1.49.05,9.66,9.66,0,0,0,2.55-1.62l16.89-13a10.88,10.88,0,0,0,2.31-2.1,2.42,2.42,0,0,0,.21-1.51,4.36,4.36,0,0,0-.95-2l-.66-.85.7-.54,16.68,21.67-7.37,5.67-.59-.77a8.64,8.64,0,0,0,2.8-4.32,7.52,7.52,0,0,0-.67-4.51,25.09,25.09,0,0,0-3-4.42Z"/><path d="M517.78,173.37l-5.89-9.82-3.41.46a7,7,0,0,0-2.58.76,2.16,2.16,0,0,0-1.15,2,9.1,9.1,0,0,0,1.14,3l-.76.46L499.58,161l.76-.45a4.83,4.83,0,0,0,2.72,1.71,19.06,19.06,0,0,0,5.62-.14l28.14-3.36.24.38-16.78,23.71a16.08,16.08,0,0,0-2.67,4.8,3.79,3.79,0,0,0,.45,2.41l-.76.46-8.07-13.45.76-.45.33.55a4.87,4.87,0,0,0,1.81,2,1.28,1.28,0,0,0,1.22-.11,3,3,0,0,0,.68-.58,18.86,18.86,0,0,0,1.17-1.54Zm1.1-1.61,7.08-9.88-12.13,1.48Z"/><path d="M551.69,188.62l-12.31,22.55,12.85-5.41q2.68-1.14,3.3-2.31a4.59,4.59,0,0,0-.26-4.06l.82-.35,4.16,9.87-.82.34a8.24,8.24,0,0,0-1.7-2.28,2.78,2.78,0,0,0-1.68-.48,9.17,9.17,0,0,0-3.14.9l-24.86,10.49-.32-.75,16.35-30.69-19,8c-1.72.72-2.71,1.61-3,2.65a4.68,4.68,0,0,0,.23,3.08l.3.7-.81.34-4.47-10.59.81-.34c.71,1.63,1.53,2.64,2.46,3a5.12,5.12,0,0,0,3.78-.45L545.49,184l.52-1a6.21,6.21,0,0,0,.86-2.34,5.48,5.48,0,0,0-.46-2.27l.81-.34Z"/><path d="M568.4,234.93l-10.33,3.17-.26-.95a11.06,11.06,0,0,0,5.37-5,8.56,8.56,0,0,0,.8-6.32,5.51,5.51,0,0,0-2.3-3.37,4,4,0,0,0-3.27-.56,3.76,3.76,0,0,0-1.71,1,8.31,8.31,0,0,0-1.54,2.75,51,51,0,0,0-1.29,5.75q-1.15,6.22-3,8.81a9,9,0,0,1-5,3.43,9.2,9.2,0,0,1-7.59-1.17,11.37,11.37,0,0,1-5-7,12.39,12.39,0,0,1-.48-2.87,21.61,21.61,0,0,1,.2-3.61,5.21,5.21,0,0,0,0-1.94,2.33,2.33,0,0,0-.81-1.14,3.4,3.4,0,0,0-1.71-.69l-.24-.85L542,221.07l.24.85a14.1,14.1,0,0,0-6.49,6,9.47,9.47,0,0,0-.86,7,6.07,6.07,0,0,0,2.55,3.72,4.47,4.47,0,0,0,3.7.61,4.35,4.35,0,0,0,2-1.19,6.89,6.89,0,0,0,1.46-2.33,27.55,27.55,0,0,0,1.25-4.92,37.49,37.49,0,0,1,1.85-7.12,11.39,11.39,0,0,1,2.48-3.79,8.51,8.51,0,0,1,3.73-2.13,8.85,8.85,0,0,1,7.12,1,10,10,0,0,1,4.56,6.17,12.31,12.31,0,0,1,.46,3.05,15,15,0,0,1-.29,2.92,6.59,6.59,0,0,0-.14,2.39,1.31,1.31,0,0,0,.64.84,4.35,4.35,0,0,0,2,.14Z"/><path d="M282,523.27l-.3,1.41a4.91,4.91,0,0,0-2.6.29,6,6,0,0,0-2.19,1.72q-.31.4-3.63,5.39l-25.1,39.14-1.48-.31L240.88,535l-21,30.27-1.41-.3-8.11-45.64c-.83-4.6-1.5-7.41-2-8.44a4.85,4.85,0,0,0-3.14-2.29l.3-1.4,22.35,4.69-.29,1.41c-1.81-.33-3.07-.31-3.77.06a2.36,2.36,0,0,0-1.28,1.66q-.3,1.44.58,6.51l4.85,27.14,12.21-17.84-1-5.92a42.57,42.57,0,0,0-1.44-6.55,6,6,0,0,0-1.74-2.61,8.27,8.27,0,0,0-3.49-1.41l.3-1.41,25,5.25-.29,1.41a14,14,0,0,0-3.86-.37,2.46,2.46,0,0,0-1.44.63,2.37,2.37,0,0,0-.75,1.33,26.21,26.21,0,0,0,.58,5.72l4.26,26.38,13-20.33a45,45,0,0,0,2.62-4.33,10,10,0,0,0,.79-2.25,3.09,3.09,0,0,0-.55-2.68c-.58-.74-1.87-1.35-3.86-1.82l.3-1.41Z"/><path d="M333.74,520.47l.73,14.24-1.39.07a22.76,22.76,0,0,0-3.12-6.94,10.66,10.66,0,0,0-4.33-3.22,13.32,13.32,0,0,0-5.19-.43l-3.92.2L318.6,565a16.68,16.68,0,0,0,.71,5,4,4,0,0,0,1.83,1.68,7.06,7.06,0,0,0,3.59.57l1.75-.09.07,1.44L299,575l-.08-1.44,1.75-.09a7.17,7.17,0,0,0,3.64-1,3.68,3.68,0,0,0,1.5-1.94,16,16,0,0,0,.17-4.91L303.91,525l-3.8.19c-3.54.18-6.08,1.07-7.61,2.65a14.88,14.88,0,0,0-3.8,9.18l-1.48.07-.73-14.23Z"/><path d="M357.35,517.89,363,538.78l1.46-.4a13.27,13.27,0,0,0,5.24-2.5,8.92,8.92,0,0,0,2.7-4.39,16,16,0,0,0,.18-7l1.31-.35,6.9,25.54-1.31.35q-2.67-7-6.46-8.49a12.34,12.34,0,0,0-7.81-.37l-1.46.39L368,557.12a16.4,16.4,0,0,0,1.75,4.76,4,4,0,0,0,2.15,1.25,6.94,6.94,0,0,0,3.59-.19l1.68-.46.38,1.39-26.59,7.19-.37-1.39,1.68-.46a7.17,7.17,0,0,0,3.35-1.75,3.5,3.5,0,0,0,1-2.2,16.15,16.15,0,0,0-.87-4.84l-9-33.45a17.13,17.13,0,0,0-1.73-4.76,3.85,3.85,0,0,0-2.13-1.26,6.94,6.94,0,0,0-3.59.19l-1.69.45-.37-1.38,42.9-11.6L384,523.2l-1.53.42q-1.92-5-4.74-6.89a12.22,12.22,0,0,0-7.19-1.8,42,42,0,0,0-8.48,1.68Z"/></g></svg>