<?xml version="1.0" encoding="UTF-8" standalone="no"?>
<!-- Created with Inkscape (http://www.inkscape.org/) -->

<svg
   xmlns:dc="http://purl.org/dc/elements/1.1/"
   xmlns:cc="http://creativecommons.org/ns#"
   xmlns:rdf="http://www.w3.org/1999/02/22-rdf-syntax-ns#"
   xmlns:svg="http://www.w3.org/2000/svg"
   xmlns="http://www.w3.org/2000/svg"
   xmlns:sodipodi="http://sodipodi.sourceforge.net/DTD/sodipodi-0.dtd"
   xmlns:inkscape="http://www.inkscape.org/namespaces/inkscape"
   id="svg3009"
   version="1.1"
   inkscape:version="0.48.3.1 r9886"
   width="1052.3625"
   height="744.095"
   xml:space="preserve"
   sodipodi:docname="aclogo_hat_A4 (1).pdf"><metadata
     id="metadata3015"><rdf:RDF><cc:Work
         rdf:about=""><dc:format>image/svg+xml</dc:format><dc:type
           rdf:resource="http://purl.org/dc/dcmitype/StillImage" /><dc:title></dc:title></cc:Work></rdf:RDF></metadata><defs
     id="defs3013"><clipPath
       clipPathUnits="userSpaceOnUse"
       id="clipPath3023"><path
         d="m 0,595.276 841.89,0 L 841.89,0 0,0 0,595.276 z"
         id="path3025" /></clipPath></defs><sodipodi:namedview
     pagecolor="#ffffff"
     bordercolor="#666666"
     borderopacity="1"
     objecttolerance="10"
     gridtolerance="10"
     guidetolerance="10"
     inkscape:pageopacity="0"
     inkscape:pageshadow="2"
     inkscape:window-width="1920"
     inkscape:window-height="1018"
     id="namedview3011"
     showgrid="false"
     inkscape:zoom="0.63432763"
     inkscape:cx="-71.637632"
     inkscape:cy="317.42895"
     inkscape:window-x="1432"
     inkscape:window-y="-8"
     inkscape:window-maximized="1"
     inkscape:current-layer="g3017" /><g
     id="g3017"
     inkscape:groupmode="layer"
     inkscape:label="aclogo_hat_A4 (1)"
     transform="matrix(1.25,0,0,-1.25,0,744.095)"><g
       id="g3019"
       transform="matrix(0.99981571,0.01919745,-0.01919745,0.99981571,5.8651138,-8.35522)"><g
         id="g3021"
         clip-path="url(#clipPath3023)"><path
           d="m 766.694,516.958 c -40.65,4.511 -68.144,-14.012 -106.518,-19.139 8.347,17.853 25.939,26.233 23.967,54.681 -54.219,-18.619 -93.445,-64.456 -141.138,-94.324 2.796,28.571 4.542,58.234 9.32,84.754 -52.193,-38.002 -92.722,-107.118 -121.165,-169.507 23.981,29.156 49.64,63.865 78.558,83.387 1.666,-23.514 -6.537,-48.147 5.325,-64.25 18.708,14.024 39.465,21.721 58.587,35.541 24.458,17.69 44.377,40.71 82.551,41.011 -5.713,-25.249 -7.364,-44.66 -11.983,-76.552 33.128,27.996 61.781,64.4 91.871,94.323 10.48,10.43 23.622,17.703 30.625,30.075 m 42.608,-280.233 c -5.497,-6.194 -9.931,-13.496 -15.978,-19.142 -6.391,1.654 -13.755,2.299 -19.972,4.101 0.505,6.779 8.496,5.865 10.651,10.936 -51.209,-2.789 -89.887,-6.245 -138.474,-5.468 8.802,13.753 21.226,23.787 30.623,36.911 -54.948,0.028 -95.867,-16.788 -149.124,-21.874 3.355,23.897 23.378,30.675 33.285,47.849 -59.051,0.026 -99.7,-18.84 -130.485,-47.849 24.022,2.941 44.392,7.233 65.243,6.837 -4.181,-14.833 -11.61,-26.342 -15.976,-41.012 8.558,-5.659 20.969,-1.804 30.623,0 29.665,5.565 61.182,11.457 93.202,17.772 -3.274,-16.679 -20.902,-18.633 -31.953,-27.341 -0.134,4.252 1.624,6.535 2.663,9.569 -9.254,-0.97 -18.535,-1.927 -26.63,-4.1 -14.446,-26.616 -22.29,-60.04 -47.934,-75.186 -2.704,7.244 -8.201,11.635 -10.652,19.138 18.469,10.211 25.246,32.412 35.951,50.579 -14.754,-0.434 -33.034,-8.842 -47.933,-13.668 -7.925,3.267 -13.929,8.503 -18.642,15.036 3.448,12.414 8.975,22.691 13.315,34.177 -12.995,-2.831 -19.693,-3.678 -33.287,-5.469 -5.513,8.476 -18.321,9.444 -33.287,8.204 1.465,11.988 12.783,20.285 21.303,25.97 12.383,8.285 29.946,10.84 39.944,21.873 26.31,6.712 45.778,20.449 77.227,21.872 7.815,15.46 8.814,35.446 6.659,54.681 -6.791,-10.8 -13.169,-22.023 -23.968,-28.708 2.01,8.571 -2.356,23.129 1.332,32.81 -16.138,-9.858 -22.436,-29.83 -38.614,-39.645 1.785,8.694 -1.864,23.157 -1.331,32.809 -9.665,-6.931 -19.242,-25.796 -31.956,-34.176 1.57,13.424 3.502,26.493 5.327,39.644 -20.571,-18.059 -38.294,-39.042 -54.592,-61.516 7.87,-32.535 -9.027,-44.525 -18.641,-65.614 -25.937,-0.645 -31.396,19.723 -46.602,30.073 1.239,25.248 -2.982,44.016 7.99,58.78 0.28,-21.887 -0.44,-48.515 6.657,-66.983 6.218,-3.173 14.686,-4.06 22.635,-5.47 19.013,16.051 16.298,48.162 14.646,77.921 -13.594,23.225 -50.077,13.835 -81.22,12.303 -6.644,-32.52 -16.457,-73.831 -6.657,-120.297 7.655,-0.11 15.377,-0.288 21.303,1.366 -6.83,-11.659 -13.901,-23.088 -23.967,-31.441 -13.66,24.334 -14.38,55.432 -25.298,80.656 3.236,45.753 2.93,94.705 18.641,138.065 4.288,11.837 11.504,24.564 17.31,36.909 12.755,27.135 22.981,41.27 41.276,62.883 18.254,21.571 30.184,36.293 55.921,49.212 37.708,9.008 85.947,3.513 110.513,-24.606 -7.454,24.524 -32.289,34.695 -66.572,36.909 -31.371,2.037 -37.816,-1.449 -57.255,-13.67 -48.346,-30.376 -87.438,-90.154 -111.845,-140.803 -2.197,4.142 2.583,12.809 3.995,17.772 -28.228,-21.969 -57.667,-40.588 -91.873,-61.514 -10.052,-6.137 -19.639,-16.061 -30.624,-20.504 -15.445,-6.221 -34.166,-4.799 -50.596,-10.937 -9.014,-3.364 -14.327,-12.344 -23.967,-16.405 -8.815,-24.59 -3.195,-46.876 7.989,-64.249 11.638,0.822 19.146,5.866 29.292,8.203 11.478,-7.806 24.354,-14.176 35.951,-21.872 4.779,2.446 8.282,5.576 13.314,9.569 2.544,2.023 9.72,10.989 11.984,10.937 9.506,-0.179 21.503,-31.895 31.955,-34.176 8.07,9.487 12.81,22.39 19.973,32.808 11.837,-20.874 21.756,-66.328 33.286,-88.857 0.747,-1.45 9.281,-10.936 9.321,-12.302 0.214,-6.739 -14.806,-15.378 -15.978,-20.505 -30.85,17.634 -56.375,43.198 -87.878,61.514 -31.476,18.318 -66.441,29.472 -101.193,46.48 -13.421,20.545 -18.88,64.208 -2.663,86.121 6.525,4.238 14.593,6.889 19.973,12.303 54.018,5.073 92.805,36.689 129.154,64.247 12.636,9.583 27.721,19.631 41.276,30.074 13.581,10.471 29.146,21.053 38.613,31.442 11.291,12.399 16.444,30.839 27.961,43.745 5.245,5.877 13.767,10.47 19.973,16.404 27.268,26.123 70.102,52.179 127.823,36.909 16.122,-4.265 38.931,-17.007 50.596,-28.707 12.769,4.908 21.676,20.258 38.613,16.404 -0.199,-24.388 -8.84,-50.648 -11.985,-79.287 29.28,19.057 63.047,54.312 103.858,73.819 12.979,6.22 23.752,17.99 37.282,9.569 -0.335,-19.535 -4.727,-31.388 -3.996,-49.212 11.276,0.437 25.751,12.549 42.607,15.036 23.887,3.527 53.62,0.984 57.254,-17.77 C 783.1,508.77 773.378,498.708 761.368,490.984 722.344,438.559 676.475,393.16 621.563,357.02 c -1.823,30.592 3.65,65.518 15.978,86.119 -23.78,-10.212 -46.655,-33.192 -73.232,-45.112 3.877,-30.782 3.289,-56.319 -1.332,-88.853 5.951,-5.728 13.954,-9.363 21.304,-13.667 -3.687,-16.257 -13.328,-26.412 -21.304,-38.278 17.216,4.755 36.071,6.873 55.923,10.935 28.639,5.877 58.371,17.06 85.214,5.469 -9.001,-12.632 -22.554,-20.575 -33.287,-31.444 43.487,-2.664 93.551,5.565 138.475,-5.464"
           style="fill:#231f20;fill-opacity:1;fill-rule:nonzero;stroke:none"
           id="path3027"
           inkscape:connector-curvature="0" /><path
           d="m 795.987,205.281 c -1.28,-8.819 2.369,-16.023 0,-21.872 -38.933,10.703 -98.491,19.083 -138.474,2.733 -19.308,-7.886 -38.759,-31.386 -25.298,-57.414 22.623,-43.718 111.897,-30.607 159.776,-21.872 -0.956,-6.752 -1.823,-13.616 -1.329,-21.875 -74.51,-9.387 -172.59,-18.863 -217.032,25.974 -12.05,12.169 -21.971,38.552 -10.653,61.517 28.721,58.303 171.083,49.704 233.01,32.809"
           style="fill:#231f20;fill-opacity:1;fill-rule:nonzero;stroke:none"
           id="path3029"
           inkscape:connector-curvature="0" /><path
           d="m 419.177,125.991 c -10.945,22.04 -23.821,42.081 -37.282,61.519 -13.488,-20.328 -28.427,-39.165 -41.276,-60.149 29.6,-0.369 56.295,0.874 78.558,-1.37 m 97.198,-45.11 c -18.706,0.576 -43.086,0.52 -67.905,0 -4.421,8.231 -9.173,16.104 -14.647,23.241 -39.265,2.147 -76.999,1.024 -106.519,2.734 -8.815,-4.621 -10.877,-16.173 -18.64,-21.875 -24.073,-0.024 -54.711,-0.339 -69.238,1.369 34.273,47.751 68.638,95.403 105.188,140.802 27.322,-0.395 47.228,-2.02 79.889,-1.366 29.692,-49.252 62.925,-94.885 91.872,-144.905"
           style="fill:#231f20;fill-opacity:1;fill-rule:nonzero;stroke:none"
           id="path3031"
           inkscape:connector-curvature="0" /><path
           d="m 772.02,48.075 c 0.827,-3.897 12.293,-6.085 13.314,-1.369 -2.328,3.582 -9.279,3.227 -13.314,1.369 m 29.292,-9.572 c -12.515,-0.409 -17.575,-0.107 -30.624,0 2.426,-14.419 23.008,-7.421 30.624,-6.833 -7.215,-13.942 -40.556,-9.008 -45.27,1.366 -11.608,25.563 44.618,35.286 45.27,5.467"
           style="fill:#231f20;fill-opacity:1;fill-rule:nonzero;stroke:none"
           id="path3033"
           inkscape:connector-curvature="0" /><path
           d="m 732.076,57.645 c 9.294,-0.234 11.45,-0.536 18.641,-1.369 -9.201,-12.7 -11.318,-37.455 -33.286,-32.809 -5.871,10.377 -11.945,20.561 -15.98,32.809 7.83,0.945 8.602,0.889 15.98,1.369 3.273,-4.389 4.34,-11.033 7.989,-15.04 2.621,4.595 5.67,8.765 6.656,15.04"
           style="fill:#231f20;fill-opacity:1;fill-rule:nonzero;stroke:none"
           id="path3035"
           inkscape:connector-curvature="0" /><path
           d="m 696.126,68.579 0,-8.201 c -3.049,-2.133 -12.929,-2.133 -15.978,0 l 0,8.201 15.978,0 z"
           style="fill:#231f20;fill-opacity:1;fill-rule:nonzero;stroke:none"
           id="path3037"
           inkscape:connector-curvature="0" /><path
           d="m 696.126,56.276 c -0.427,-13.19 -1.718,-18.605 0,-31.441 -3.223,-2.61 -10.706,-0.862 -15.978,-1.368 -3.062,9.992 0.719,19.891 0,34.178 3.221,-2.613 10.706,-0.864 15.978,-1.369"
           style="fill:#231f20;fill-opacity:1;fill-rule:nonzero;stroke:none"
           id="path3039"
           inkscape:connector-curvature="0" /><path
           d="m 665.501,69.945 c 0.891,-12.697 0.88,-29.553 -1.331,-45.11 -4.54,-2.365 -7.816,1.054 -14.645,0 1.451,15.747 -1.132,25.604 2.663,43.744 2.847,1.15 6.468,1.408 13.313,1.366"
           style="fill:#231f20;fill-opacity:1;fill-rule:nonzero;stroke:none"
           id="path3041"
           inkscape:connector-curvature="0" /><path
           d="m 562.977,43.972 c -2.091,-8.583 10.999,-12.848 14.645,-6.835 -4.913,2.259 -6.895,7.506 -14.645,6.835 m 10.653,6.838 c 0.359,4.933 0.333,9.457 -5.327,8.199 -3.062,-3.54 -0.161,-9.239 5.327,-8.199 m 31.953,-2.735 c 0.854,-7.712 -2.888,-10.69 -5.324,-15.039 1.759,-2.746 4.368,-4.619 7.99,-5.467 -19.654,2.367 -50.917,-8.967 -59.918,10.934 0.784,5.581 3.89,8.765 9.32,9.572 -0.946,4.961 -5.844,5.851 -3.995,13.669 12.358,17.21 53.567,-4.933 23.966,-15.038 2.545,-3.307 5.899,-5.782 10.652,-6.835 3.81,0.194 2.438,5.717 2.664,9.57 4.887,-0.436 11.784,1.176 14.645,-1.366"
           style="fill:#231f20;fill-opacity:1;fill-rule:nonzero;stroke:none"
           id="path3043"
           inkscape:connector-curvature="0" /><path
           d="m 485.75,34.404 c 8.019,-0.055 11.17,14.204 3.996,20.506 -18.373,2.569 -12.769,-20.423 -3.996,-20.506 m -9.318,24.605 c 21.117,5.867 36.655,-2.557 30.625,-19.138 -6.126,-16.84 -40.705,-14.324 -43.942,1.366 -2.583,12.509 3.97,15.19 13.317,17.772"
           style="fill:#231f20;fill-opacity:1;fill-rule:nonzero;stroke:none"
           id="path3045"
           inkscape:connector-curvature="0" /><path
           d="m 455.127,72.68 c 0.974,-4.167 -2.304,-4.018 -1.33,-8.201 l -14.647,0 0,8.201 c 3.754,1.422 12.462,2.623 15.977,0"
           style="fill:#231f20;fill-opacity:1;fill-rule:nonzero;stroke:none"
           id="path3047"
           inkscape:connector-curvature="0" /><path
           d="m 453.797,61.744 c -0.203,-12.808 0.586,-24.985 -1.333,-32.808 l -13.314,0 0,31.442 c 2.863,2.54 9.76,0.93 14.647,1.366"
           style="fill:#231f20;fill-opacity:1;fill-rule:nonzero;stroke:none"
           id="path3049"
           inkscape:connector-curvature="0" /><path
           d="m 401.868,35.771 c 5.472,1.627 4.874,15.393 2.663,20.505 -13.155,3.377 -14.18,-21.572 -2.663,-20.505 M 421.84,72.68 c -2.33,-14.285 -1.305,-30.278 -2.663,-42.376 -11.264,-0.644 -19.427,2.938 -29.292,0 -8.043,3.213 -12.064,16.047 -7.99,27.341 6.152,2.936 12.995,7.271 21.305,4.099 3.847,1.735 0.598,7.792 2.662,13.67 7.163,-0.778 9.56,0.096 15.978,-2.734"
           style="fill:#231f20;fill-opacity:1;fill-rule:nonzero;stroke:none"
           id="path3051"
           inkscape:connector-curvature="0" /><path
           d="m 364.586,64.479 c 2.943,-8.367 0.559,-22.2 1.331,-32.809 -3.674,-0.9 -16.376,-4.5 -15.977,2.734 -5.339,-2.024 -13.941,-4.129 -19.973,-1.368 -6.27,4.961 -3.368,19.344 -3.994,30.076 21.051,6.929 12.742,-12.578 15.978,-24.609 l 6.658,0 c 5.538,3.435 1.358,16.831 2.662,24.609 5.327,-0.453 7.389,2.447 13.315,1.367"
           style="fill:#231f20;fill-opacity:1;fill-rule:nonzero;stroke:none"
           id="path3053"
           inkscape:connector-curvature="0" /><path
           d="m 315.322,61.744 c 0.518,-5.538 -8.296,-1.503 -11.984,-2.735 l 0,-17.772 c 0.36,-5.549 8.694,-2.908 11.984,-5.466 -4.288,-8.257 -22.13,-2.924 -26.63,1.366 -2.957,6.835 2.41,19.045 -5.327,23.241 0.081,5.85 6.338,5.344 3.995,13.67 l 14.646,0 c 2.223,-1.819 0.44,-7.737 2.664,-9.569 4.02,-0.425 10.357,1.517 10.652,-2.735"
           style="fill:#231f20;fill-opacity:1;fill-rule:nonzero;stroke:none"
           id="path3055"
           inkscape:connector-curvature="0" /><path
           d="m 254.073,57.645 c 5.739,-6.864 21.743,-3.189 19.972,-17.774 -5.127,-8.843 -30.398,-9.473 -38.612,-2.734 1.53,1.628 1.504,4.839 1.331,8.203 3.062,-4.525 13.154,-7.845 19.972,-4.103 -6.244,7.602 -22.569,2.367 -21.303,15.039 1.064,10.745 35.217,18.141 38.612,1.369 -6.351,-0.546 -14.7,3.99 -19.972,0"
           style="fill:#231f20;fill-opacity:1;fill-rule:nonzero;stroke:none"
           id="path3057"
           inkscape:connector-curvature="0" /></g></g></g></svg>