<svg id="Réteg_1" data-name="Réteg 1" xmlns="http://www.w3.org/2000/svg" viewBox="0 0 595.28 661.53"><defs><style>.cls-1{fill:#8d251e;}</style></defs><title>bbk</title><path class="cls-1" d="M281.6,627.48c-2.25-.13-4.53-.29-6.76-.46h0C128.6,615.39,14.05,491.22,14.05,344.33A283.62,283.62,0,0,1,184.71,84.12a4,4,0,1,0-3.22-7.42A291.73,291.73,0,0,0,274.2,635.08h0c2.3.18,4.63.34,6.94.47h.23a4,4,0,0,0,.23-8.07Z"/><path class="cls-1" d="M503.89,138.09A289.78,289.78,0,0,0,297.64,52.66a293.83,293.83,0,0,0-52.39,4.69,4,4,0,0,0,1.45,7.95,286.87,286.87,0,0,1,50.94-4.56C454,60.74,581.23,188,581.23,344.33A283.32,283.32,0,0,1,368,619.11c-3.12.8-6.29,1.55-9.41,2.24a4,4,0,0,0,.86,8,4.28,4.28,0,0,0,.87-.09c3.21-.71,6.46-1.48,9.67-2.3h0A293.27,293.27,0,0,0,527,524.6a291.68,291.68,0,0,0-23.06-386.51Z"/><path class="cls-1" d="M250.32,107.22l-.62-.65-.22-.72-.63-.86-.63-.69-.87-1-1.07-.93-.5-.58-.66-.43-.89-.51-.49-.22-.5-.26-1.16-.54h-.48l-1-.69-.59.29-1-.68-1.33-.06-.54-.21-1.11.13-2,0-.86.1-.45.09-.11.82-.7,0-.07-.92-2.8.65-.65.1-3.52,1-1,.35-1.81.61-1.94.86-.58.18-2.81,1.28-.48.31-.45.4-.49.31-.79.14-.5.25-1.43.81-.44.13-.34.27-1.22.64-1.33.62-2.24.58-.69,0-.51-.27-1.68-1.21-.74-.35-3.85.45-.36.53-.79.86-.15.68.1,2.07.74,1.35.33.58.63.49.77.29.52.16.65.42,1.79.19.4-.07.57.3,1.05.52.69.88.54.57.23.41.66,1.79.23.4.1.86.33.9.42.34.12.39.14.79.41,1,.12.39.29.43.24.61.17.89.47,1.54.48,1.22.55,2,.4.61,1,3.49-.13.77,1.2,3.73.12.75-.19.9.11.7.28.75.58.87.28.55,0,1.19.06.56.57,1.14.83.16.26.5.28,1.6v.84l0-.15a.41.41,0,0,0-.06-.11l-.12-.15v.37l-.4.59.09,1,.27,1.22.59,1.4.51,1.31-.22,1,.12.55.29.43.41.66.13.75-.24,2.13-.16.67-.06.49-.13.94-1.07,1.32-.18.43-.34.26-.41.55-.77.76-.49.62-.64.46-.43.66-.36.21-.68.84-.57,1.23-.26,2.76.59,1.55.6.6.2.31.4.29,1.74.68,2.37-1.15.58-.7.41-1.23.41-.86.39-1,.84-.68,1.53-1.36,1.31-.35,1-.58.44-.09,2.34-.77.81-.09.45-.24.62.12.35,0,.34-.11,1.89-.32,1,.26.93-.55.29-.61.41-.86.31-.2.22.35.49,1.27.83.32.83-.73,2.09-.38.65.07.37-.17.69-.16.38-.12,1.11,0,.56-.22,3.59-.79.55-.28.57,0,3.76-1.62.43-.29,1.23-.28.93-.54,1.78-1.39,2.67-2.61.07-1,.44-.09.1.5,1.21-1.74.79-2,.28-.61,1.13-1.13.45-1.09-1.1-1,1.23-1,.33-.47.09-.55.23-.44-.43-.71.83-1.41-.1-.33.11-.67-.17-.89.14-.57.49-1.46-.09-.82.16-.51.56-1.91-.66-.95-1-.81L262.54,134l-1.08-1.14-.57-.82-1.83-1.49-1.19-.63-1-.44-.29-.59-.42-.35-.79.35-2.24-.62-.07-.4-.42-.35-.79.35-1.23-.25-.4-.45-.87.42-.35.05-.81-.06-.35.21-1-.18-.35.06-.55-.1-2.11.49-.92.08,1.25-1.75,2.65-1.61,1.91-2.32.67-1.25.45-.77.39-.75.64-1.19.47-1.88.29-1.46.15-.52-.19-1.31,0-1.71-.22-1,.37-1.53Zm-6.92,28.07,1.82,2.86.25.81.31,1,.66,1.63.61,1.29,1,.48-.94.19.22.56.13.75.07.76.25.81.2.47-.08.44.12.55.25.65.23.41,1,.67-1,.15.25,1.87.07.39-.18,1.11-.09,1.76-.4.6-.08.76-.5,1.1-1,1.15-.45.24-.27.34-.47.15-.93.39-2.07.11-.82-.11-.81-.91-.55-.09-.48-1.06-1.24-.25-.41-1.51-.6-.76-.54-.57-.26-.49-.28-.75-.69-1.21-.44-.08-.13-.43-.13-.75-.35-.47-.41-.66-.5-1.1-.15-.64-.17-.89-.08-.45-.42-1.19-.69-.2-.52-.16-.23-.56,0-.59.26-.86-.7-1.94-.6-2.29.17-1.15-.31-1.38-1-1.07-.54-1.25-.37-1.2L227,129l-.21-1-1-.48.33-.63.38-.48-.52-1.16-.48-1.9-.77-2.33-.15-2.21L224,118l-.33-.9-.2-.83-.22-2.92-.16-.53-.52-.84-.2-1.83.27-.34.82-1.94.51-.57,1.35-.73.28-.46.77-.23.57-.18,2.4,0,2.81,1.29,1.2-.53-.31,1.2.82,1,.32.53.44.24.38.56.39.41.05.67.33.73,1.43,1.09.64,1.54.08.44-.34.79.13.91.41.66.47,1.53-.12.46.23.93.09,2.49-.22,1.85-.11.51-.46,1.24-.59.81-.45.41-.85-1.74-.55-1.09-1.29-1.13-1.66-.27-.64.14-.51.37-.79.5-1,1.46-.45,1.24,0,1,.19.41.45,1.12.11.55.5.26,2.76,1.46.52.32.77-.24,1.24.3.41-.23,1.24.62.72-.22,1.61.29.58.35.59.39,1.55.94.4.46Z"/><path class="cls-1" d="M279.08,145.36l-.36.59-.21.45-.41.85-1.42.93-.31.35-.4.14-.56.4-1,.48-.66.45-.76.24-.61.49-.4.09-.92.59-.91,1-1.1,2.55.08,1.65.39.76.09.36.3.4,1.44,1.18,2.61-.36.76-.49.77-1,.67-.7.66-.79,1-.39,1.87-.82,1.36.07,1.15-.23.46,0h2.46l.8.16.5-.09.55.31.35.06h.35l1.9.28.9.57,1.06-.24.45-.49.67-.7.35-.09.09.4.08,1.36.7.56,1-.43,2.1.28.6.26.4,0,.71.06h.4l1.05.37.6,0,3.66.36.6-.09.55.16,4.07-.39.51-.15,1.25.12,1.06-.23,2.12-.77,3.34-1.66.37-.9.45.06-.06.5,1.67-1.28,1.39-1.68.46-.5,1.41-.73.77-.89-.73-1.32,1.46-.53.46-.34.26-.5.35-.35-.18-.8,1.22-1.09v-.35l.32-.6.11-.9.31-.5.92-1.24.17-.8.3-.45,1.13-1.63-.33-1.11-.69-1.07-.72-2.07-.68-1.42-.29-.95-1.27-2-.94-1-.79-.72-.1-.65-.29-.46-.85.09-1.94-1.28.05-.4-.29-.46-.85.09-1.1-.62-.24-.56-1,.14-.35-.06-.75-.31-.4.1-.85-.47-.35,0-.5-.26-2.15-.19-.9-.21,1.73-1.28,3-.71,2.53-1.61,1-1,.66-.6.61-.59,1-.94,1-1.64.73-1.29.3-.45.22-1.3.48-1.65.12-1,.82-1.35-.82-2.17-.39-.81v-.75l-.33-1-.39-.86-.53-1.16L323,98.39l-.29-.71-.49-.61-.69-.76-.4-.36-.4-.41-.94-.86-.45-.16-.73-1-.66.09-.79-1-1.25-.47-.44-.36-1.1-.22-1.9-.58-.85-.16-.45-.06-.37.75-.65-.27.22-.9-2.86-.24-.65-.11L303.23,90l-1.06,0-1.91,0-2.11.21h-.6l-3.07.35-.55.14-.56.24-.55.15L292,91l-.56.1-1.61.32h-.45l-.4.14-1.36.23-1.46.18-2.31-.14-.65-.26-.39-.41-1.23-1.67-.6-.56-3.8-.76-.51.39-1,.58-.36.6-.53,2,.28,1.51.14.66.44.66.64.51.45.31.49.61,1.65.72.4.06.44.46.85.82.38,1.06.34.7.1.46.07,1.91.09.45-.16.85,0,1,.3.46v.4l-.11.8.08,1.06v.4l.14.51,0,.65-.12.9,0,1.61.08,1.3-.08,2.06.19.71-.16,3.61-.36.7v3.91l-.11.75-.46.8-.12.7,0,.8.29,1,.09.61-.32,1.15-.11.55.18,1.25.75.42.09.55-.22,1.6-.27.8v-.15a.35.35,0,0,0,0-.12,1.08,1.08,0,0,0-.07-.18l-.11.35-.55.44-.22,1-.12,1.25.13,1.51.08,1.4-.52.9-.06.55.14.5.19.76-.11.75Zm17.28-30,.51-.34-.13-1.26.13-2v-2.46l.53-2.15-.39-.91,0-.95.06-.85.7-2.86v-.55l-.24-1,.38-1.8.35-.24,1.38-1.59.66-.39,1.51-.28.41-.34h1.4l2.31.69,2.28,2.09,1.3-.13-.67,1,.49,1.16.14.6.35.36.19.65.24.51-.16.65.09.81,1,1.47.13,1.66-.06.45-.56.64-.17.9.19.76,0,1.61-.26.39-.07,1-.69,2.4-.78,1.69-.26.45-.81,1L307,119l-.55.24-.27-1.91L306,116.1l-.89-1.47-1.49-.77-.65-.06-.61.19-.9.24-1.38,1.08-.82,1-.31.9,0,.45.08,1.21-.05.55.39.41,2.18,2.24.39.46h.8l1.1.67.45-.09,1,1h.75l1.45.77.44.51.44.56,1.19,1.37.24.56.34.86L311,132v.86l0,1,.13,1.76.17,1.41.8.76-1-.11,0,.6-.11.75-.16.75v.85l0,.51-.21.4-.06.55,0,.7.09.46.79,1-1-.16-.33,1.85-.05.4-.52,1-.63,1.64-.56.44-.31.7-.82.89-1.31.79-.51.09-.35.24h-.51l-1,.08-2-.53-.75-.36-.48-1.12L300,150l-.13-1.15-1.1-.62.07-1.56-.33-.9-.34-.71-.1-.56,0-.8-.28-1.36-.4-.21v-.45l.12-.75-.19-.55-.19-.76-.14-1.21.06-.65.12-.9.06-.45,0-1.26-.6-.41-.45-.31,0-.6.21-.55.51-.74-.07-2.06.14-2.36.52-1.05.12-1.4-.58-1.32-.13-1.35,0-1.26-.24-4,.12-1-.8-.77Z"/><polygon class="cls-1" points="343.89 144.33 343.57 144.96 343.05 145.52 342.82 146.19 341.06 148.81 340.77 149.19 339.95 150.02 338.49 151 338.09 151.24 337.15 151.18 335.57 151.58 334.17 152.27 333.53 152.26 332.81 151.9 332.28 152.19 331.36 152.41 330.59 153.09 329.98 153.47 329.51 153.73 328.74 154.9 328.5 155.29 328.26 155.95 328.1 156.43 328.03 156.94 328.58 158.88 329.36 159.37 330.37 160.14 331.27 160.29 332 160.34 332.64 160.19 334.46 159.22 335.66 158.84 337.06 158.64 338.41 158.57 341.67 159.44 342.28 159.81 343.97 160.3 344.93 161.06 345.8 161.15 346.38 161.61 347.14 162.03 347.84 162.33 348.17 162.44 348.78 163.14 349.85 163.72 350.12 163.39 350.69 163 351.36 163.66 352.61 164.95 352.83 165.4 353.66 166.06 354.27 165.68 354.76 165.96 355.43 165.87 355.96 166.32 355.75 166.62 356.59 167.13 357.35 167.23 358.61 167.88 359.45 167.91 359.94 168.34 361.15 168.82 361.62 168.71 362.44 168.95 363.31 168.88 363.74 168.87 364.78 168.48 365.29 168.08 365.77 167.45 365.99 166.99 366.1 166.66 365.85 165.4 364.9 164.01 363.32 163.19 362.99 163.08 361.65 162.5 360.22 161.42 359.01 160.15 358.52 158.81 358.32 156.94 358.65 155.99 358.74 155.44 358.82 154.88 359.17 153.73 359.3 153.35 359.72 152.91 359.81 152.19 360.19 150.63 359.44 150.37 359.5 149.11 360.61 145.78 361 145.12 361.8 142.95 362.86 139.91 363.23 139.14 363.62 138.32 363.76 137.78 364.21 136.93 364.58 136.63 365.71 136.6 367.41 137.51 371.18 138.45 372.74 139.47 373.85 140.71 374.49 141.46 374.57 141.86 374.51 142.64 374.56 143.4 375.37 142.46 375.42 143.38 375.2 144 374.78 143.85 374.99 144.77 374.97 145.29 374.99 146.31 375.12 146.84 374.88 148.13 374.69 149.61 374.09 150.88 373.97 151.38 373.48 152 373.11 153.09 372.94 153.57 372.57 154.03 372.84 155.24 372.26 155.67 371.62 156.14 371.49 156.52 370.89 157.32 370.5 157.98 369.55 159.03 368.83 160.65 368.66 161.59 368.67 162.02 368.92 162.69 368.98 163.14 369.46 164.96 368.96 165.95 369 166.44 368.45 167.26 368.33 167.91 367.99 168.43 367.49 170.01 367.27 171.26 367.02 171.97 367.22 172.47 367.16 173.72 366.94 174.5 367.22 176.13 367.08 177.15 366.95 177.69 366.92 178.21 367.6 178.87 367.74 180.14 368.49 180.88 368.53 181.69 368.97 182.27 369.37 183.1 369.3 183.76 370.89 185.45 371.35 185.98 371.99 186.57 372.45 187.26 373.26 188.13 373.64 188.26 374.43 188.27 374.87 188.53 375.47 189.43 375.52 189.88 376.61 190.25 377.76 190.33 378.56 190.45 379.01 190.39 379.52 190.62 380.37 190.6 381.71 190.59 382.69 190.5 383.25 190.43 383.96 190.36 386.17 189.37 386.54 189.08 386.89 188.83 388.01 188.05 388.51 187.37 389.23 186.08 389.41 185.72 389.69 184.91 389.83 184.32 390.03 183.91 390.02 183.49 389.86 182.26 389.87 181.63 389.2 180.81 388.7 180.26 386.61 179.53 384.97 179.5 384.26 179.73 383.26 180.6 382.6 181.44 382.25 182.43 382.23 183.12 382.27 185.31 381.81 185.84 381.21 186.06 379.8 185.51 378.69 183.96 378.47 183.24 378.5 182.24 378.61 181.91 378.35 181.45 378.55 180.56 378.65 179.8 378.85 178.91 379.07 178.46 379.36 178.08 379.58 177.73 380.77 175.7 381.17 175.31 381.48 174.72 382.56 173.29 383.31 172.22 384.36 170.89 384.75 170.06 385.3 168.77 386.12 167.19 386.37 166.16 386.79 165.57 387.65 164.91 387.86 163.87 388.26 162.41 388.47 161.79 388.61 161.41 389.14 160.17 389.58 159.36 389.7 159.03 389.65 157.95 389.73 156.97 390.25 155.93 390.21 154.05 389.85 150.63 389.67 150.09 389.77 149.65 389.38 149.09 388.84 147.89 388.53 146.93 388.42 145.89 387.2 144.35 386.26 143.07 385.45 142.36 385.09 142.02 384.64 142.08 383.4 140.16 382.76 139.83 382.45 139.67 380.18 138.4 379.25 137.71 379.95 137.52 381.93 138.1 383.48 138.38 384.7 138.54 385.15 138.32 386.01 138.14 386.27 137.7 386.97 137.68 388.23 137.42 388.9 137.18 390.25 136.48 390.72 136.21 391.71 135.5 393.05 133.94 393.81 132.98 394.14 131.88 394.35 131.26 394.45 130.66 395.53 129.86 395.9 129.41 396.79 127.75 396.86 126.5 397.26 125.79 397.57 125.52 397.87 124.35 398.07 123.78 398.13 123.01 398.21 122.61 399.05 120.03 399.63 119.28 399.81 118.92 399.97 118.17 400.5 117.4 401.11 116.55 401.94 116.15 402.96 115.81 404.23 115.08 404.66 114.75 404.99 114.12 405.2 113.35 405.16 112.85 403.77 111.36 403.02 111.05 401.7 110.43 400.92 110.37 400.26 110.3 399.34 110.03 398.64 109.9 396.96 110 396.15 110.04 394.73 110.13 394.3 110.46 393.52 110.56 391.3 111.6 390.68 112.02 390.29 112.05 389.07 113.27 388.4 113.83 387.83 114.54 386.67 115.89 387.08 116.08 386.68 116.48 386.26 116.91 385.76 117.75 385.3 117.86 385.01 118.23 384.49 119.27 383.76 119.98 383.54 120.48 383.55 120.91 383.47 121.58 382.75 122.13 382.65 122.89 382.42 123.55 381.72 125.7 381.25 126.6 380.7 127.42 380.66 127.83 379.84 128.82 379.56 129.31 378.74 130.14 378.48 130.58 377.09 131.37 375.43 132.02 374.89 132.2 373.45 132.07 372.83 132.02 371.29 131.85 369.22 130.92 367.3 129.72 367.2 129.26 366.88 128.94 366.92 128.37 366.85 127.34 367.26 126.47 367.4 125.3 367.69 124.01 367.99 123.48 368.21 123.13 368.2 122.54 368.48 121.89 368.12 121.56 368.43 120.81 369.26 120.41 369.54 119.76 369.78 119.37 369.92 118.99 370.46 117.74 371.54 115.09 371.83 114.39 372.51 113.2 372.73 112.74 373.1 112.28 373.81 111.31 374.6 110.73 375.23 110.42 376.49 110.17 377.86 110.22 378.46 110.16 379.22 110.1 379.77 109.76 380.5 109.8 380.55 109.34 381.93 108.28 382.38 108.65 383.29 108.49 383.87 107.73 384.06 106.89 384.47 105.87 384.14 105.44 384.07 104.88 383.83 104.48 382.77 103.26 381.52 102.88 379.09 103.31 377.91 103.64 376.91 103.93 376.41 104.14 374.9 104.04 372.94 103.72 372.44 103.34 372.05 103.36 371.42 103.19 370.73 102.9 369.27 102.5 368.54 102.3 367.71 101.64 366.11 101.35 363.81 100.18 362.08 99.47 361.6 99.36 360.98 98.98 360.3 98.48 359.84 98.43 359.56 98.01 358.93 97.84 358.38 97.6 357.94 97.18 356.91 96.77 356.52 96.69 355.47 96.64 355.02 96.7 354.1 96.91 353.65 97.13 352.87 97.7 352.28 98.62 352.08 99.19 352.34 100.28 352.61 100.75 352.88 101.16 353 101.74 353.98 102.61 354.44 102.98 354.96 103.16 355.66 103.72 356.04 104.17 356.39 104.4 357.21 106.01 357.04 108.19 356.39 110.03 356.59 110.85 355.66 112.6 355.18 113.39 354.94 114.21 355.01 115.24 354.6 116.43 353.82 117.59 353.44 118.53 353.36 118.92 352.76 120.2 352.31 120.57 351.84 121.15 351.71 121.53 351.76 124 351.38 125.09 350.3 127.58 351.15 127.88 351.3 128.35 350.91 128.43 349.95 128.73 349.64 129.63 349.9 130.26 349.01 130.96 348.74 131.77 348.29 132.73 347.51 134.85 346.96 135.03 346.78 135.55 346.26 136.91 346.06 137.64 346.36 138.91 345.82 139.68 345 140.67 344.61 141.33 344.48 141.87 344.58 142.65 344.52 143.43 343.89 144.33"/><path class="cls-1" d="M65.54,452.61l2.18.71.65.26,1.26,1.11,1.17.42,1-1.23,1.07,1.24.52.31.58.07.48.22.72-.5,1.53.79.34-.13.71.08.92-.23.61.11,1.57.43.84-.14.56.13,2,.48,1-.75.78-1.08,1.76-1.49,1.13-1.21.82-.65,1.46-2,.59-1.29.4-1,.61-.33.33-.47-.41-.8.52-2.39.42-.1.33-.46-.41-.8.19-1.31.46-.45-.5-.89-.08-.36,0-.86-.24-.35.13-1-.08-.37.06-.58-.64-2.19-.13-1,1.91,1.2,1.85,2.7,2.55,1.87,1.36.62.83.42.81.38,1.29.59,2,.38,1.55.22.55.13,1.36-.28,1.8-.16,1.08-.28,1.63.29,1.82-1.63.64-.69.74-.27.87-.72.69-.7.94-1,.91-1.18.58-.56.41-.71.49-1,.2-.52.25-.55.49-1.25,0-.5.67-1.09-.34-.61.65-1.14v-1.4l.18-.58-.21-1.16-.15-2.08-.17-.9-.11-.46-.87-.07v-.74l1-.13-.85-2.9-.14-.68-1.29-3.63-.43-1-.75-1.86-1-2-.22-.6-1.52-2.87-.35-.49-.45-.45-.35-.49-.19-.83-.3-.51-.94-1.45-.16-.45-.3-.34-.74-1.25-.73-1.36-.75-2.31v-.74l.25-.54,1.18-1.84.32-.8-.7-4-.58-.35-1-.76-.72-.13-2.17.24-1.37.85-.59.39-.48.68-.26.83-.13.55-.41.72-.08,1.89.09.41-.28.61-.48,1.14-.89.78-.57.6-.41.27-1.84.79-.41.27-.89.16-.93.4-.33.46-.4.15-.83.19-1,.49-.4.14-.44.34-.62.28-.93.24-1.59.58-1.25.58-2,.7-.62.46-3.6,1.22-.83-.09-3.84,1.48-.78.18-1-.15-.73.16-.78.34-.88.66-.55.32-1.25.12-.58.11-1.17.66-.12.88-.51.3-1.65.4-.89,0,.15-.05.11-.07.15-.14-.38,0-.65-.38-1,.15-1.28.36-1.43.7-1.35.61-1.07-.17-.57.16-.44.33-.66.47-.78.18-2.25-.13-.72-.12-.52,0-1-.08-1.45-1-.46-.16-.29-.35-.6-.39-.85-.76-.68-.48-.52-.65-.72-.41-.24-.36-.93-.67-1.32-.52L44,403.11l-1.6.71-.59.67-.31.23-.29.44-.6,1.86,1.35,2.42.77.56,1.31.36.93.39,1,.35.76.84,1.52,1.52.45,1.35.67,1.05.11.46.95,2.41.15.85.28.46-.1.65.08.37.13.34.45,2-.21,1.1.63.94.66.27.93.38.23.31-.36.25-1.3.59-.29.9.81.83.53,2.17,0,.68.2.38.2.71.15.4,0,1.17.27.57,1,3.73.32.55,0,.6,1.94,3.85.33.44.36,1.27.63,1,1.56,1.78,2.9,2.65h1l.12.47-.52.13Zm-2-13-1.18-.46-1.27-1-.29-.46-.37-.26-.19-.49-.46-1-.24-2.16.07-.87.91-.9.06-.59,1.08-.57.19-1.31,1.56-.52.76-.67.57-.61.5-.3.78-.34,1.22-.79,0-.47.45-.17.78-.18.47-.4.67-.47,1.13-.59.66-.19.93-.23.47-.11,1.21-.51.18-.74.13-.56.58-.27h.62l.92.22,2-.85,2.36-.77,1.22.11,1.43-.41,1.06-1.07,1.28-.65,1.24-.46,3.85-1.76,1.08-.29.45-1.07.68.32.53.36,1.18-.61,2-.61,2.4-.95,2.31-.3.75-.72.92-.4.86-.26,3.06-.41.55-.2.85-.59,1.91-.32.37.26,2.08.74.64.5.84,1.38.5.26.29.8.22.59.2,2.51-1.19,3,.63,1.24-1.28-.26-1,.91-.54.37-.22.48-.57.43-.4.43-.7.09-.76.4-1,1.57-1.58.75-.46.12-.84-.31-1,.18-.67.48-1.58.58-.49-.1-1,.3-2.62.24-1.95-.12-.54-.08-1.34-.41-.88-.57-.45-.45,1.77-1,1.11-.64,1.11-1.42.19-1.76-.19-.66-.42-.52-.57-.8-1.59-.93L93.3,418l-1,0-.43.22-1.15.54-.56.15-.25.55-1.38,3-.29.56.29.79-.24,1.33.26.41L88,426.88l.28.74L88,429.33l-.32.63-.38.65-.9,1.68-.45.45-.72.66-2.88,2.09-.85.31-1,.38-1.67.8-1.32.71-.44,1.07-.25-1-.58.27-.78.17-.8.13-.84.31-.48.24-.47-.06-.56.16-.67.3-.41.27-.65,1.14-.22-1-1.94.39-.41.09L66.83,440H65l-.65-.38Z"/><polygon class="cls-1" points="133.87 539.41 134.26 539.05 134.36 537.97 134.88 537.37 135.23 537.05 135.33 536.61 135.73 536.1 136.67 535.97 137.5 535.79 137.83 535.28 138.7 534.35 139.16 534.08 140.67 533.15 141.27 532.4 142.34 532 144.21 531.25 144.87 530.87 145.84 530.77 146.31 530.57 147.45 529.47 148.78 529.06 150.09 528.3 150.45 527.76 150.76 527.55 151.56 527.41 152.66 526.98 153.05 526.71 153.58 526.02 157.28 523.9 159.32 522.07 159.85 521.87 160.93 520.62 162.46 519.24 163.09 518.6 163.59 517.81 164.34 516.99 165.45 515.14 167.12 512.42 167.55 511.47 167.84 510.78 167.98 509.66 168.25 508.71 167.96 507.98 168.67 506.64 169.67 506.02 169.69 504.93 170.17 503.01 170.17 502.31 170.58 499.37 170.58 498.74 170.68 497.51 171.56 496.43 170.38 494.8 170.1 493.07 169.71 492.63 170.72 491.15 170.05 490.48 170.02 489.66 169.59 489.19 169.44 488.47 169.11 487.07 168.84 486.53 168.45 485.39 167.57 483.55 166.38 481.43 166.23 480.71 165.67 480.01 165.5 479.59 165.08 479.12 164.56 478.31 163.57 477.21 163.11 476.77 162.86 475.93 162.61 475.66 161.93 475.06 161.24 474.05 160.59 473.57 160.16 472.54 159.46 471.68 158.89 471.05 157.77 470.35 156.55 468.68 156.25 468.03 155.53 467.54 155.13 467.19 154.66 466.91 152.8 465.24 152.3 464.91 152.09 464.53 150.61 463.59 149.37 462.44 148.84 461.78 147.56 461.22 146.91 460.89 146.01 460.13 145.74 459.67 145.06 459.7 144.7 459.46 143.49 459.06 142.35 458.66 140.97 457.92 139.45 457.65 137.93 456.75 137.41 456.64 136.82 456.61 136.37 456.67 134.82 456.13 134.12 455.91 132.92 456 132.01 455.61 128.21 455.97 127.13 455.95 126.61 455.85 125.97 456.07 125.65 456.28 125.03 456.14 124.4 455.99 123.69 456.06 122.58 457.05 120.98 456.93 119.84 457.32 118.73 457.82 117.6 458.06 117.02 458.29 116.33 458.63 115.74 459.23 114.38 459.53 113.84 459.73 113 460.21 111.12 461.04 110.15 461.78 109.52 462.34 108.94 462.65 107.93 463.34 105.42 465.6 104.7 466.38 104.32 466.66 103.84 467.16 103.13 467.95 102.17 469.09 101.81 469.48 101.05 471.09 100.39 471.69 100.18 472.09 98.25 475.39 97.92 475.82 97.33 477.06 96.53 478.06 96.37 478.43 96.29 479.21 95.65 479.92 95.37 480.32 95 480.94 94.55 481.7 94.21 482.35 93.86 482.6 93.34 483.28 93.19 483.91 92.65 484.32 91.21 486.12 89.27 488 87.05 489.07 86.07 489.1 85.39 489.21 84.37 488.86 83.37 487.98 82.43 486.7 82.79 485.52 83.31 484.91 84.42 484.41 85.07 484.11 85.85 483.55 86.48 482.91 87.03 481.71 87.12 480.78 87.02 479.8 86.67 478.7 86.13 478.18 85.81 477.98 85.49 477.62 85.17 477.42 84.47 477.05 83.96 476.87 82.4 476.71 81.6 476.93 80.18 477.64 77.9 479.84 77.65 480.2 77.76 480.95 77.17 481.48 76.95 482.1 76.85 482.7 76.51 484.06 76.46 485.82 76.69 486.32 77.17 487.8 77.4 488.45 77.59 489.2 77.79 489.59 78.5 491.01 79.55 492.34 81.57 494.5 82.26 494.87 82.96 495.66 85.1 496.93 86.5 497.45 87.69 498.08 88.73 498.28 89.62 498.48 92.31 498.55 95.44 497.86 96.2 497.75 98.58 496.53 99.58 495.98 100.26 495.94 101.05 495.87 101.87 495.06 103.21 494.57 104.46 493.51 105.11 493.21 105.58 492.94 106.2 492.44 106.58 492.24 107.65 491.85 108.2 491.35 107.91 490.63 108.09 489.97 109.21 489.95 109.82 489.12 111.1 488.25 111.66 487.46 112.14 486.81 112.47 486.31 112.88 485.66 114 484.86 115.14 484.62 116.39 484.27 117.85 483.61 118.28 483.22 118.49 482.82 118.77 482.5 119.7 481.09 120.09 480.02 120.39 479.48 120.71 478.26 121.59 477.26 122.33 475.95 122.88 475.38 123.68 474.38 123.34 473.84 123.85 473.31 124.25 473.59 124.81 472.8 126.91 470.7 127.71 470.33 128.09 469.57 128.46 468.88 129.21 468.84 129.89 468.73 130.82 467.47 131.58 467.14 132.12 466.87 132.94 466.13 134.81 466.15 135.63 465.48 136.2 465.4 137.34 465.09 139.14 464.88 140.56 464.89 141.33 465.19 142.03 465.34 142.51 465.48 144.3 466.92 144.54 467.49 145.01 468.34 145.31 469.06 145.25 469.55 144.87 471.02 143.88 471.98 143.34 472.47 142.95 473.31 141.58 474.55 140.92 475.07 140.46 475.27 139.53 476.46 139.01 477.21 138.09 477.62 137.55 477.96 137.33 478.51 136.9 478.9 136.32 479.2 135.08 479.96 135.02 480.52 134.26 481.34 132.81 482.57 132.1 483.35 130.99 484.57 130.33 485.09 128.84 486.21 126.68 488.23 125.97 488.93 125.13 489.19 124.31 489.93 124.01 490.63 122.62 491.45 122.22 491.88 122.05 492.39 121.47 492.7 120.97 492.93 120.58 493.21 119.91 493.88 118.29 495.48 117.67 495.9 117.28 496.18 116.88 496.68 115.78 496.96 115.09 497.44 114.94 498.07 113.3 499.48 111.86 500.49 111.5 500.95 111.04 501.15 110.64 501.5 110.26 501.71 109.64 502.2 108.58 503 106.9 503.66 106.41 503.82 105.73 504.01 103.83 503.8 102.36 503.35 101.48 503 101.05 502.68 99.23 501.76 97.61 501.3 96.95 501.04 96.11 500.73 95.25 500.72 94.33 501.05 93.05 501.35 91.87 502.26 91.28 502.87 90.67 503.92 90.62 504.74 90.92 506.1 91.44 506.91 92.72 508.1 94.92 508.18 96.49 508.34 97.48 508.73 97.76 508.97 98.42 509.3 99.29 510.51 99.04 511.02 99.84 511.36 100.26 511.27 101.22 512.26 101.56 512.72 102.5 513.44 103.44 514.58 104.21 514.96 104.67 515.47 104.65 516.62 104.96 516.98 105.4 517.23 105.52 517.83 106.4 518.81 107.04 519.37 107.3 520.13 107.66 520.52 108.29 521.23 108.51 521.95 109.49 523.27 109.8 523.78 110.03 524.35 110.73 525.28 111.2 526.28 111.51 526.78 112.04 527.37 112.72 528.53 113.63 529.78 114.27 530.33 114.96 530.86 115.35 531.21 115.92 531.69 116.29 531.86 116.81 531.89 117.65 532.2 118.1 532.14 118.7 532.1 119.84 531.71 120.39 531.22 120.88 530.5 121.06 529.91 120.91 529.26 121.06 528.64 120.48 528.16 120.29 527.62 120.22 526.84 119.7 525.31 119.68 524.26 119.61 522.76 119.83 521.5 119.86 520.83 119.97 520.17 120.4 519.22 120.64 518.86 120.89 518.35 122.24 516.21 122.64 515.79 122.97 515.21 123.78 514.69 124.22 514.22 125.14 513.04 125.7 511.54 126.27 510.75 127.22 509.82 128 509.27 128.27 509.02 128.57 508.25 127.91 507.43 129.22 507.39 130.11 507.36 131.25 506.41 131.71 506.14 132.85 504.48 135.24 502.48 136.58 501.83 137.78 500.25 138.32 499.91 139.55 498.74 139.7 497.25 140.22 496.57 141.58 496.42 142.64 495.39 142.11 494.88 143.53 494.73 144.18 493.94 144.58 492.73 144.94 492.33 145.94 491.79 146.71 491.3 150.6 488.45 151.26 487.92 152.7 486.84 153.41 486.2 154.06 485.83 154.69 485.26 155.62 484.79 157.68 484 158.43 483.89 159.43 484.13 159.71 484.44 160.51 484.86 161.25 485.68 161.63 486.41 161.53 486.86 161.94 487.48 162.36 488.02 162.39 488.85 162.42 491.09 161.96 492.08 162.11 492.72 161.75 493.19 161.8 493.71 161.69 494.23 161.32 494.92 160.71 495.9 160.08 496.46 159.69 496.82 159.62 497.37 158.79 498.19 158.65 498.74 157.36 499.83 157.26 500.35 156.05 501.3 155.73 501.58 154.9 502.47 152.55 504.44 152.05 504.82 151.43 505.16 150.23 505.88 149.07 506.01 147.95 507.29 146.36 508.37 143.27 510.22 142.68 510.75 142.21 511.96 141.73 512.53 139.75 513.81 139.02 514.18 137.28 515.33 136.97 515.53 136.41 516.33 135.84 516.41 135.45 516.69 134.8 517.06 133.78 517.9 133.32 518.11 132.86 518.38 132.18 519.28 131.14 520.49 128.75 522.5 128.53 523.2 127.87 523.57 127.17 524.21 127.1 524.69 125.75 526.26 125.43 526.62 124.89 527.75 124.35 528.73 123.8 530.65 123.47 531.15 123.57 532.76 123.26 533.61 123.59 534.45 123.2 534.88 123.22 535.77 123.07 537.26 123.66 538.86 124.32 539.76 124.83 540.72 124.91 541.28 125.44 541.87 125.94 543.13 127.44 544.97 127.8 545.29 128.12 545.64 128.83 546.35 130.19 547.55 132.59 548.8 133.66 549.04 135 548.48 135.58 548.1 136.18 547.42 136.34 545.63 135.44 544.39 134.37 543.43 133.71 543.25 133.39 542.9 133.09 541.53 133.5 540.02 133.87 539.41"/><polygon class="cls-1" points="229.78 536.64 231.1 534.58 231.4 534.2 231.83 533.71 232.21 533.3 232.61 532.97 233.72 531.93 234.33 531.3 235.98 530 236.07 529.1 237.66 528.88 239.24 527.73 240.23 526.21 240.21 525.2 240.06 524.65 239.57 524.35 238.24 523.45 236.99 523.36 236.32 523.56 235.63 523.63 234.1 524.23 233.18 524.77 232.16 525.27 230.32 525.53 229.43 525.2 229.12 524.99 227.98 523.24 227.53 522.72 227.28 522.3 226.85 521.73 225.48 520.46 225.5 519.94 225.22 519.56 224.82 519.42 224.41 519.28 223.68 518.62 222.97 517.79 222.31 517.34 221.84 516.99 221.25 516.63 220.52 516.21 219.5 515.53 217.75 514.54 215.56 513.62 214.63 513.22 214.23 513.07 213.57 512.86 210.48 512.09 207.1 511.17 206.53 511.36 205.31 510.98 204.15 511.17 203.63 511.15 202.47 510.98 200.7 511.1 200.11 510.98 198.98 511.24 197.75 511.46 197.26 511.51 196.03 511.72 195.13 512.1 194.31 512.34 193.46 512.85 192.61 513.61 192.02 513.85 190.67 513.59 189.8 514.51 188.31 515.36 188.15 515.69 187.23 516.59 186.78 516.66 185.62 516.85 185.48 517.37 182.84 519.47 182.48 520.06 181.7 520.68 181.35 521.03 180.45 521.88 179.82 522.69 179.46 523.51 178.14 524.39 177.31 524.98 175.45 526.82 173.89 528.05 173.21 528.6 172.74 528.83 171.39 529.52 170.94 530.18 171.02 531.34 170.97 532.14 171.35 532.92 171.02 534.17 170.88 534.57 170.74 535.56 170.45 536.25 170.43 538.54 170.41 539.06 170.1 539.43 169.72 539.84 169.63 540.38 169.42 540.92 169.23 541.42 168.92 542.27 168.83 543.28 168.61 543.95 168.45 544.63 168.43 545.15 167.96 545.74 167.48 546.92 167.44 547.61 167.65 548.36 167.39 550.42 167.32 553.51 167.75 554.2 168.06 554.41 167.87 555.02 167.32 555.63 168.08 556.6 167.99 557.85 167.52 558.45 167.3 559.11 167.78 560.29 168.09 561.91 169.27 561.91 168.54 563.73 169.34 564.61 171.44 568.55 171.89 569.18 172.3 569.8 172.58 570.29 173.24 570.98 173.83 571.8 175.53 573.6 176.13 573.72 176.38 574.14 177.19 574.78 177.54 575.25 179.03 576.4 180.57 577.35 182.81 578.76 183.33 579.02 183.97 579.28 184.75 579.61 185.45 580.08 188.1 581.17 188.74 581.19 189.54 581.47 190.09 581.8 190.94 581.75 191.41 581.75 192.9 581.97 193.53 581.99 194.57 582.04 197.12 581.77 199.65 581.21 200.14 580.92 200.5 581.16 201.99 581.96 201.63 583.38 201.04 585.27 200.76 586.3 200.76 587.25 200.69 587.63 200.81 588.1 200.29 589.49 200.03 592.49 200.18 593.74 200.13 594.31 200.34 594.83 200.49 597.02 200.87 597.45 201.15 598.3 202.69 600.3 203.06 600.96 204.22 601.36 205.16 601.84 205.52 602.19 206.35 602.31 207.03 602.12 207.34 601.62 207.38 601.17 207.76 602.07 208.66 602.28 209.7 601.86 210.97 600.84 211.77 599.23 211.84 597.32 211.73 596.85 208.94 593.92 207.35 593.07 207.14 592.09 207.05 591.09 207.56 589.34 207.44 588.87 206.76 588.71 207.51 586.49 207.72 585 208.24 583.72 208.48 583.01 208.6 582.42 209.05 581.05 209.26 580.27 209.4 579.76 210.86 577.3 211.21 576.94 211.71 575.24 211.85 574.61 212.44 573.07 212.94 572.67 213.26 571.89 213.64 571.25 213.83 570.64 214.37 569.67 214.56 568.82 214.66 568.27 214.87 567.49 214.99 566.9 214.99 565.61 214.87 565.01 214.13 564.47 213.87 563.93 212.93 563.81 212.13 563.53 211.47 563.67 210.71 563.76 209.06 565.54 208.42 566.22 206.51 568.63 204.48 570.45 203.91 570.52 203.42 570.69 202.1 572.27 201.44 572.89 199.62 573.34 198.79 573.93 198.32 574.52 197.09 575.09 196.31 575.35 194.87 575.75 194.4 575.63 193.46 575.87 192.73 575.68 192.28 575.4 191.36 575.71 189.96 575.54 189.32 575.4 188.85 575.28 188.17 575.12 187.53 574.74 187.18 574.39 186.51 574.17 183.89 571.04 183.53 570.09 182.99 569.29 182.68 568.13 182.59 566.55 182.35 565.73 182.42 564.52 182.61 563.55 182.73 563.08 182.87 561.62 183.03 560.69 183.13 559.92 183.41 558.88 183.72 558.14 183.48 557.44 183.78 556.23 184.02 555.52 183.55 555.4 185.27 553.14 185.08 552.34 185.57 551.22 186.92 548.65 186.77 547.75 187.39 546.29 187.79 545.96 188.14 545.13 188.73 544.3 188.71 545.06 189.54 545.53 190.1 545.58 190.48 545.76 191.21 546.19 191.75 546.4 192.44 546.92 193.72 547.32 194.64 547.72 194.99 547.84 196.95 549 197.64 549.28 200.21 550.74 201.79 552.06 202.65 553.19 203.12 553.9 203.24 554.49 203.66 555.41 203.07 556.83 202.93 557.59 202.53 558.15 202.84 558.96 203.12 559.69 204.02 560.96 205.72 561.1 207.28 560.35 208.81 558.69 209.19 558.05 210.04 556.71 209.4 555.38 209.94 553.94 210.41 552.05 211.36 551.93 212.46 548.65 212.98 547.14 213.33 546.43 213.95 546.26 214.25 546 214.73 545.41 215.2 544.94 215.65 544.4 216 543.92 216.26 543.64 216.87 542.53 216.78 541.18 216.07 540.24 215.15 539.84 214.65 539.77 212.74 540.05 211.58 540.72 210.64 541.19 209.93 541.42 208.32 542.04 207.43 541.83 208.39 541.31 206.98 541.43 204.99 540.44 204.26 540.6 204.26 540.01 202.35 539.12 201.73 538.69 200.5 538.2 199.75 537.82 194.79 535.35 194.08 535.11 193.3 534.78 192.85 534.61 192.57 533.76 193.6 532.99 194.5 532.96 194.95 531.83 195.33 531.42 195.8 530.6 195.63 529.63 196.29 529.13 196.46 528.8 197.97 527.2 198.16 526.11 198.68 526.13 200.99 523.75 201.39 523.3 201.79 522.85 202.64 522.09 204.01 521.24 204.43 520.98 205.12 520.32 206.01 520.29 206.56 519.92 207.57 519.66 208.09 519.44 208.94 519.39 210.05 519.3 211.68 519.46 212.39 519.46 213.26 519.6 214.11 519.79 214.63 520.05 215.41 520.85 216.26 520.57 218.17 521.7 219.14 522.24 219.57 522.46 220.37 523.33 220.91 524.13 221.25 524.53 221.22 525.17 222.1 526.02 222.69 526.49 223.02 526.89 223.25 527.96 223.26 528.78 223.54 530.1 222.79 531.73 223.57 532.53 222.93 533.34 222.55 534.45 222.69 534.99 222.51 535.84 222.25 536.36 221.89 537.19 221.8 537.85 221.77 538.37 221.75 539.01 221.42 539.55 221.28 540.07 221.09 540.45 221 541.58 221.23 542.29 221.23 542.88 221.64 543.37 222.06 543.7 222.7 544.08 223.36 544.29 223.9 544.27 224.82 544.08 226.69 542.71 227.77 540.53 227.6 539.8 228.46 539.16 229.78 536.64"/><polygon class="cls-1" points="515.24 484.79 515.54 484.3 516.25 482.57 516.64 482.12 517.16 481.76 517.4 481.35 517.46 479.91 518.74 478.89 519.68 478.04 520.08 477.78 521.31 476.12 521.69 475.48 522.1 474.99 523.15 473.83 524.48 472.23 524.86 471.78 525.54 470.64 525.88 469.13 526.6 469.37 527.06 468.6 527.27 467.93 528.11 466.1 528.58 465.51 529.27 464.76 530.03 463.8 530.87 461.96 531.21 459.52 530.65 458.2 530.36 457.97 529.96 457.49 529.14 457.13 527.82 457.08 526.87 457.44 525.94 458.48 525.59 458.76 525.28 459.07 524.07 460.81 522.93 461.18 522.27 462.08 521.27 462.1 520.8 462.49 519.38 462.39 517.01 461.84 516.48 461.59 514.8 461.21 513.4 460.68 512.42 460.77 511.67 459.96 511.03 459.7 510.56 459.36 509.88 459.27 509.52 458.93 508.84 458.53 508.08 457.64 507.59 457.23 507 456.88 505.69 456.9 504.66 456.36 503.66 455.88 501.73 454.37 500.69 453.75 499.65 452.71 498.89 452.75 498.28 452.63 497.55 452.32 496.91 451.94 496.16 451.25 495.56 451.01 494.57 450.61 493.38 450.03 488.88 447.17 487.49 446.41 487.15 446.15 486.76 445.67 486.53 445.23 484.01 443.67 483.51 443.38 482.8 443.44 479.77 441.52 478.73 441.4 478.14 442.09 477.49 439.99 477.16 439.61 476.69 439.26 475.86 438.59 474.88 437.64 474.35 436.78 474.12 437.07 473.77 436 473.6 435.47 473.39 435.1 473.22 434.45 473.19 433.57 473.13 432 473.17 430.49 473.29 429.57 473.26 429 473.08 428.47 472.89 427.56 472.73 427.1 471.56 425.66 471.01 425.34 470.35 425.31 469.62 425.31 468.98 425.55 468.45 425.72 467.96 425.92 467.06 427.54 466.65 428.65 466.35 429.15 466.23 429.56 466.52 431.45 466.5 432 466.61 432.86 466.25 433.87 465.45 435.73 465.22 436.33 464.83 436.78 464.54 437.28 464.29 438.11 463.78 439.28 463.25 440.07 462.48 441.89 461.35 443.68 458.62 447.15 458.3 447.7 457.82 448.39 456.96 449.42 455.99 450.87 455.5 451.38 454.64 453.14 454.49 453.48 454.44 454.61 454.7 455.82 455.65 456.38 455.38 456.41 454.56 456.47 454.07 456.57 453.01 457.22 452.67 457.55 452.09 458.32 451.7 459.21 451.47 459.81 451.23 460.47 451.33 461.26 450.94 461.63 450.93 462.3 449.44 464.32 446.17 467.4 445.52 467.94 445.4 468.35 444.91 468.83 444.45 469.05 443.73 469.81 442.67 470.76 441.79 471.75 440.8 472.7 440.24 472.81 439.36 473.5 438.25 475.16 437.49 475.74 436.84 476.51 435.38 478.73 435.06 479.62 435.24 480.33 435.48 481.04 435.99 481.65 437.59 482.24 438.98 481.93 440.11 481.06 441.24 480.48 442.45 479.83 442.72 479.58 442.8 478.91 443.18 478.69 444 478.63 444.98 478.72 446.03 478.3 447.26 478.28 447.97 478.41 448.41 478.71 449.59 479.48 450.17 480.24 451.16 481.19 451.45 481.72 451.74 482.03 452.03 482.56 452.73 483.2 453.16 483.81 453.56 484.38 453.82 484.79 454.69 486.3 455.26 487.58 456.24 488.61 456.5 489.1 456.52 489.66 457.07 490.53 457.81 490.77 458.1 491.3 458.27 492.01 458.48 492.69 458.99 493.3 459.5 493.98 460.33 495.38 460.9 496.95 461.83 497.23 462.55 498.59 462.65 499.3 463.19 499.95 463.68 500.14 464.08 500.56 463.95 501.27 463.9 502.05 464.45 502.62 465 503.12 465.93 503.47 466.43 504.6 466.43 506.43 467.09 507.34 467.54 508.81 467.88 509.07 468.09 509.53 467.88 510.83 468.79 511.86 469.31 511.87 469.67 513 470.71 513.24 471.47 514.41 471.97 515.25 471.69 516.32 472.07 518.01 472.95 519.07 473.14 520.42 472.4 520.11 470.89 519.07 469.71 518.3 467.12 516.98 464.76 515.44 464.14 514.94 463.66 514.75 463.29 514.37 462.22 513.64 461.71 513.25 460.75 512.64 459.97 512.14 458.5 510.91 457.88 510.19 456.74 509.38 455.62 509.59 454.79 510.02 453.92 508.58 452.7 507.55 451.49 506.44 450.97 506.66 449.64 505.89 449.01 505.46 446.83 504.26 445.95 503.5 445.17 503.45 444.65 503.21 443.69 502.52 443.04 501.54 442.67 501.16 442.12 500.81 441.49 500.46 440.83 499.93 438.83 499.14 437.4 497.66 436.86 496.86 436.26 496.7 433.92 494.34 433.49 493.51 433.09 492.79 432.61 492.52 433.08 491.26 433.5 488.95 433.55 488.47 433.89 488.14 434.31 487.37 434.55 487 434.67 486.44 435.01 486.11 435.22 484.96 435.02 483.76 434.55 482.89 433.92 482.47 433 482.26 431.5 482.38 430.56 482.78 429.76 483.32 426.11 486.76 425.13 487.12 425.71 488.17 425.29 488.95 424.86 489.58 424.22 489.98 423.73 490.38 422.8 490.25 419.86 493.06 418.88 493.79 418.42 494.38 417.09 495.44 416.45 495.99 415.99 496.5 414.85 497.52 412.12 499.86 411.55 500.26 410.95 500.47 410.04 501.35 408.49 501.88 407.19 501.82 405.72 502.43 404.88 503.08 404.54 503.33 404.35 503.67 403.89 504.33 403.57 505 403.8 506.9 404.68 507.97 405.89 508.85 406.56 508.86 407.04 508.98 408.39 509.01 410.08 508.33 411.67 507.54 413.81 506.95 414.59 506.93 415.56 507.02 417.35 507.35 418.38 507.6 419.72 508.22 420.42 508.57 421.98 509.19 422.9 509.77 423.87 509.94 426.15 511.33 426.94 511.38 427.31 511.61 427.96 512.3 429.89 513.01 430.29 513.65 430.54 514.14 430.91 514.67 431.5 515.06 432.62 514.93 433.28 515.39 435.16 516.66 436.54 517.02 438.31 517.73 438.45 518.25 439.68 518.76 440.26 519.37 441.07 519.83 441.85 520.48 442.44 520.49 443.85 521.27 444.25 521.54 445.55 522.27 445.91 522.95 446.17 523.22 446.98 523.38 447.57 523.77 449.77 524.07 450.04 525.5 451.11 526.08 451.93 526.47 452.83 526.26 453.94 526.73 454.49 527.45 454.25 527.89 454.28 528.38 455.05 528.95 456.06 528.86 456.62 529.28 456.72 529.77 457.56 530.35 457.97 530.47 458.49 531 459.68 532.78 460.14 534.32 460.42 535.44 460.15 537.83 459.88 538.16 460.02 538.68 459.78 539.28 459.31 540.39 459 541.05 458.88 541.76 458.82 542.54 458.74 542.99 459.03 543.29 458.62 543.62 458.53 544.37 458.43 545.79 458.75 546.28 458.86 546.77 459.22 547.22 459.47 547.71 459.87 548.21 461.06 548.6 461.65 548.91 463.15 548.79 463.72 548.54 464.59 548 465.54 547.16 465.69 546.79 465.67 546 466.13 545.49 466.26 544.63 466.52 544.3 466.39 543.55 466.58 543.15 466.6 542.47 467.18 541.48 467.56 540.89 467.5 540.29 468.68 539.3 468.9 539.01 469.71 538.09 470.58 537.1 472.9 535.16 473.28 534.8 474.88 533.34 475.56 532.9 476.01 532.61 476.39 532.25 479.57 530.07 482.02 528.73 482.55 528.59 482.65 527.1 483.83 526.26 484.13 525.97 485.08 525.5 485.67 525.44 486.58 525.09 487.22 524.46 487.83 524.03 488.33 523.33 489.06 522.18 490.89 519.98 491.36 519.17 491.78 518.76 492.05 518.36 492.55 517.58 492.86 516.84 493.13 514.68 492.83 514.23 492.51 513.74 492.26 513.25 490.99 512.92 490.62 512.69 489.54 512.93 488.36 513.77 487.91 513.98 487.38 514.57 486.88 514.97 486.39 515.15 485.86 515.66 485.25 516.47 484.46 516.57 483.86 516.86 482.82 516.76 481.63 516.29 481.34 515.91 480.86 515.57 480.34 515.26 479.65 514.46 478.96 513.44 478.27 512.49 478.06 511.74 477.51 511.02 476.42 509.58 476.24 509.24 475.88 508.71 474.66 506.15 474.78 505.59 474.45 505.02 474.05 504.46 473.53 504.37 473.36 503.88 472.67 502.49 472.1 501.5 471.93 500.64 471.46 499.4 471.03 498.87 470.89 498.2 470.64 497.71 469.87 497.06 469.4 496.26 469.11 495.81 468.46 494.6 466.94 491.81 466.92 491.02 466.44 490.6 466.24 489.7 465.64 489.39 465.36 488.87 465.1 488.37 464.71 487.66 464.17 486.56 463.13 484.42 462.33 483.13 462.04 482.53 461.65 481.89 460.85 480.45 459.99 478.57 458.84 476.45 458.66 475.96 458.05 474.57 457.84 474.19 457.58 473.78 457.27 472.54 456.87 472.12 457.1 471.45 456.89 470.85 456.46 469.8 456.13 467.7 456.62 465.77 456.93 465.1 457.28 464.18 457.48 463.77 457.87 462.81 458.03 462.44 458.48 459.94 458.31 459.16 458.3 458.22 456.6 456.77 456.26 456.41 456.72 456.15 457.56 455.98 459.12 456.04 459.63 455.49 460.35 455.3 461.01 454.71 461.8 454.32 462.43 454.39 463.35 454.07 463.76 454.32 466.94 455.28 467.36 455.59 468.05 455.88 469.34 457.01 470.11 456.86 470.91 457.27 471.37 457.85 471.77 458.21 472.11 458.35 472.66 458.67 474.17 459.44 475 459.69 475.25 460.21 476.04 460.74 476.47 461.36 479.69 463.27 480.91 463.08 481.8 464.58 482.98 464.55 483.38 464.72 483.88 465.21 485.44 466.31 486.08 466.57 486.72 466.95 487.18 467.41 487.95 467.56 488.58 467.32 488.81 468.07 490.26 469.05 490.95 469.95 491.16 470.32 492.19 470.87 492.99 470.98 493.41 471.29 494.1 471.89 494.35 472.4 494.81 472.86 495.7 472.71 496.87 473.65 497.41 473.97 498.56 474.83 499.82 475.4 500.55 476.02 501.59 476.76 502.22 477.25 502.65 477.45 502.98 477.83 503.32 478.09 503.74 478.4 505.05 479.61 505.56 480.21 506.84 483.12 507.04 484.96 506.95 485.52 506.81 485.87 506.88 489.16 507.27 489.33 507.25 489.88 506.94 490.3 507.23 491.15 507.28 491.8 507.84 492.93 508.87 494.28 509.68 494.88 510.62 495.38 510.99 495.47 512.18 495.44 512.9 495.25 514.18 494.24 515.09 493.12 515.3 492.44 515.25 490.57 514.82 489.33 514.39 487.98 514.36 487.52 514.52 486.52 515.24 484.79"/><polygon class="cls-1" points="564.39 391.1 563.65 391.4 562.6 391.44 562.25 391.34 561.78 391.65 560.83 391.5 560.03 391.45 559.09 391.3 558.59 391.11 558.17 390.83 557.79 390.62 555.57 389.53 555.13 389.13 554.5 388.85 552.92 387.82 551.74 387.12 550.26 386.11 549.37 385.76 547.98 385.27 546.26 384.53 545.17 384.34 544.51 383.95 543.76 383.08 542.65 382.95 541.09 382.63 540.43 382.45 540.02 382.34 538.67 381.87 537.79 381.46 537.44 381.37 536.31 381.5 535.27 381.49 534.14 381.02 532.18 381.19 528.62 381.81 528.06 382.04 527.59 381.97 527.03 382.42 525.81 383.07 524.83 383.46 523.74 383.66 522.21 385.05 520.93 386.13 520.25 387.03 519.92 387.44 520.01 387.9 518.09 389.35 517.79 390.03 517.64 390.37 516.48 392.85 515.82 393.87 515.58 393.15 516.04 391.03 516.22 389.38 516.29 388.09 516.03 387.64 515.78 386.75 515.3 386.51 515.23 385.78 514.87 384.48 514.56 383.79 513.73 382.42 513.42 381.95 512.6 380.96 510.87 379.67 509.81 378.94 508.62 378.68 507.96 378.5 507.32 378.43 506.41 377.36 505.9 377 504.1 376.19 502.78 376.21 502 375.84 501.7 375.54 500.45 375.31 499.84 375.14 499.02 375.14 498.6 375.07 495.84 374.38 495 373.82 494.61 373.66 493.81 373.55 492.97 373.05 492.03 372.47 491.55 371.63 491.12 370.58 490.27 369.31 489.89 368.88 489.21 368.58 488.37 368.41 487.86 368.49 486.39 370.06 486.12 370.86 485.57 372.3 485.56 373.11 485.54 373.82 485.32 374.8 485.23 375.54 485.46 377.3 485.56 378.15 485.76 379.62 486.14 380.05 486.3 380.87 487.55 383.12 488.04 383.74 488.09 384.14 489.46 385.34 490.1 386 490.89 386.54 492.39 387.66 492.56 387.22 493 387.61 493.5 388.02 494.41 388.49 494.55 388.96 494.97 389.24 496.1 389.71 496.89 390.42 497.44 390.62 497.89 390.58 498.59 390.61 499.22 391.32 500.02 391.38 500.74 391.57 503.04 392.14 504.02 392.57 504.92 393.09 505.35 393.1 506.45 393.89 506.98 394.15 507.92 394.95 508.4 395.19 509.33 396.59 510.13 398.29 510.36 398.84 510.33 400.36 510.31 401.02 510.26 402.64 509.43 404.88 508.31 406.98 507.83 407.13 507.52 407.48 506.92 407.48 505.84 407.62 504.9 407.26 503.66 407.19 502.29 406.99 501.71 406.72 501.33 406.5 500.71 406.56 500.01 406.31 499.68 406.72 498.88 406.44 498.4 405.6 497.7 405.36 497.27 405.13 496.86 405.02 495.51 404.54 492.65 403.6 491.9 403.34 490.6 402.71 490.1 402.52 489.6 402.17 488.52 401.49 487.86 400.71 487.49 400.06 487.13 398.76 487.08 397.32 486.98 396.69 486.87 395.9 486.47 395.35 486.46 394.58 485.97 394.56 484.76 393.19 485.11 392.69 484.88 391.75 484.04 391.19 483.15 391.06 482.04 390.7 481.61 391.08 481.03 391.19 480.63 391.47 479.43 392.67 479.12 394.01 479.74 396.53 480.18 397.75 480.56 398.78 480.8 399.29 480.81 400.88 480.62 402.96 480.25 403.52 480.31 403.92 480.18 404.59 479.92 405.34 479.61 406.9 479.45 407.68 478.82 408.6 478.63 410.3 477.56 412.8 476.95 414.66 476.87 415.18 476.52 415.85 476.04 416.6 476.02 417.08 475.6 417.41 475.47 418.08 475.26 418.68 474.85 419.17 474.49 420.28 474.43 420.7 474.46 421.8 474.55 422.27 474.84 423.22 475.1 423.67 475.76 424.46 476.76 425 477.38 425.17 478.51 424.82 478.98 424.51 479.39 424.19 479.99 424.02 480.83 422.93 481.18 422.43 481.34 421.87 481.88 421.08 482.32 420.66 482.54 420.28 484.17 419.3 486.46 419.32 488.45 419.86 489.29 419.6 491.19 420.44 492.05 420.9 492.93 421.08 494.01 420.94 495.29 421.28 496.56 422.01 497.57 422.34 497.99 422.4 499.38 422.94 499.8 423.39 500.45 423.84 500.85 423.95 503.43 423.72 504.61 424.04 507.3 424.99 507.55 424.07 508.04 423.88 508.15 424.29 508.54 425.27 509.51 425.53 510.14 425.21 510.94 426.09 511.81 426.32 512.85 426.72 515.13 427.39 515.36 427.95 515.92 428.1 517.38 428.55 518.16 428.71 519.48 428.3 520.33 428.81 521.42 429.6 522.15 429.96 522.72 430.06 523.53 429.9 524.35 429.9 525.34 430.5 526.02 430.79 526.65 431.29 527.37 431.49 530.25 433.15 530.67 433.43 531.6 434.23 532.74 435.68 533.01 436.09 533.01 437.07 533.56 438.7 534.37 440.12 534.41 440.79 534.09 441.58 534.44 442.11 534.72 443.06 535.5 443.82 535.94 444.43 536.25 444.9 537.53 445.63 537.96 445.86 538.67 446.05 539.18 446.19 539.72 446.23 541.72 445.51 542.17 444.65 542.91 443.54 543.01 442.58 543 441.81 542.79 441.15 541.65 439.31 541.17 438.08 540.85 436.63 540.69 435.22 541.36 431.73 541.71 431.06 542.09 429.25 542.82 428.19 542.85 427.27 543.3 426.63 543.68 425.8 543.94 425.05 544.04 424.69 544.72 424 545.26 422.83 544.89 422.57 544.44 422.01 545.09 421.26 546.34 419.85 546.8 419.59 547.43 418.67 547 418.05 547.25 417.52 547.11 416.83 547.55 416.23 547.88 416.43 548.34 415.52 548.4 414.71 548.99 413.34 548.96 412.46 549.38 411.92 549.79 410.6 549.64 410.13 549.83 409.25 549.69 408.33 549.65 407.88 549.17 406.82 548.71 406.32 548.02 405.85 547.52 405.67 547.16 405.57 545.86 405.93 544.47 407.02 543.73 408.74 543.63 409.1 543.13 410.54 542.1 412.13 540.85 413.48 539.48 414.1 537.53 414.44 536.51 414.16 535.92 414.11 535.33 414.06 534.09 413.78 533.69 413.67 533.2 413.26 532.44 413.22 530.77 412.93 530.55 413.75 529.23 413.77 525.65 412.85 524.92 412.49 522.59 411.8 519.33 410.91 518.49 410.58 517.6 410.22 517.03 410.12 516.1 409.71 515.76 409.34 515.65 408.16 516.48 406.31 517.19 402.29 518.15 400.58 519.36 399.32 520.11 398.6 520.52 398.49 521.34 398.5 522.14 398.38 521.09 397.61 522.05 397.48 522.72 397.66 522.59 398.12 523.54 397.83 524.1 397.82 525.16 397.73 525.7 397.55 527.08 397.7 528.64 397.8 530.03 398.34 530.55 398.43 531.25 398.89 532.42 399.21 532.93 399.35 533.43 399.7 534.68 399.33 535.18 399.9 535.73 400.54 536.13 400.65 537.02 401.23 537.74 401.58 538.91 402.51 540.65 403.14 541.66 403.25 542.11 403.21 542.8 402.91 543.26 402.81 545.13 402.17 546.21 402.63 546.72 402.55 547.62 403.07 548.31 403.15 548.88 403.47 550.58 403.87 551.91 404.02 552.67 404.22 553.18 403.98 554.5 403.95 555.33 404.12 557.02 403.71 558.1 403.78 558.67 403.88 559.23 403.87 559.87 403.12 561.19 402.87 561.92 402.03 562.76 401.93 563.34 401.43 564.18 400.95 564.88 400.98 566.52 399.18 567.04 398.66 567.62 397.94 568.31 397.42 569.16 396.5 569.27 396.1 569.23 395.26 569.47 394.78 570.36 394.09 570.83 394 571.14 392.83 571.14 391.63 571.21 390.77 571.12 390.31 571.32 389.76 571.24 388.86 571.13 387.46 570.97 386.43 570.85 385.86 570.73 385.11 569.53 382.87 569.19 382.5 568.9 382.15 568.01 381.03 567.26 380.56 565.85 379.9 565.46 379.74 564.59 379.5 563.97 379.39 563.52 379.21 563.07 379.25 561.8 379.51 561.13 379.55 560.32 380.31 559.78 380.88 559.17 383.12 559.26 384.83 559.55 385.57 560.54 386.55 561.46 387.19 562.53 387.48 563.25 387.45 565.55 387.26 566.14 387.69 566.41 388.31 565.94 389.83 564.39 391.1"/><path class="cls-1" d="M200.61,131.77c4.54-2.56.46-9.55-4.08-7a60.23,60.23,0,0,1-29,7.37c-6.08.07-17.93-.91-18.26-9.07-.14-3.22-4.5-5.75-6.9-2.86-19.66,23.68-32.56,53.56-59.81,69.93a4.1,4.1,0,0,0-.82,6.35c7.27,7.78,7.93,18.34,3.93,27.87-.85,2,.9,4.46,2.83,5A33.22,33.22,0,0,1,112.23,253c3,10.91-5.61,19.13-4.65,29.73.68,7.42,5.31,12.51,11.26,16.46,2.18,1.44,4.47,2.66,6.26,4.59,2.23,2.4-1,7.1-2.21,9.12-1.9,3.21,1.2,6.65,4.57,5.94s11.33-4.18,14.42-1.64c4.55,3.74.92,11.43-1.43,15.12-5.46,8.57-15.14,15.3-24.06,19.88a4.07,4.07,0,0,0-.82,6.35c6,5.92,5.46,18.76,2.17,25.84-2.19,4.7,4.78,8.8,7,4.08,4.15-8.93,5.1-22.36-.25-31.48,11.3-6.5,22.89-16.27,26.76-28.65,1.8-5.75.43-14.9-5.27-18.16-4-2.28-8.39-1.94-12.76-1,1-4.5.29-9-4-12.61-6-5.16-13.44-7.13-13.71-16.39-.15-5.06,3.8-10.65,5-15.55,1.48-6.18.22-12.5-2-18.32a40.54,40.54,0,0,0-23.73-23.35,33,33,0,0,0-4.2-28.26c23.55-15.94,36.27-41.29,53.3-63.38,3.87,5.47,11.31,7.87,18.41,8.73C175.15,141.53,189.43,138.09,200.61,131.77Z"/><path class="cls-1" d="M154.34,425.12c-7.22-.65-14.34-2.45-21.58-1.1-5.12,1-2.95,8.75,2.15,7.8,7.73-1.45,16.11,1.41,23.89,1.66,8,.26,14.88-4.24,21.32-8.41,4.12-2.67,8.18-5.37,12.49-7.73,2.44-1.33,4.95-2.63,7.79-2.55,1.45,0,2.81.43,4.27.37,9.18-.35,9-12,12.66-17.72,2.81-4.42-4.19-8.47-7-4.08-1.94,3-2.84,6.41-3.85,9.84-1.37,4.69-3.51,3.57-7.4,3.47-8-.21-16.75,7.27-23.06,11.42C168.83,422.81,163.06,425.9,154.34,425.12Z"/><path class="cls-1" d="M222.66,452.92c3.25-4-2.43-9.77-5.72-5.72-2.25,2.78-6.39,4.45-8,7.69s-1.36,6-.45,9.41c1.78,6.68-7.28,13.6-11.39,17.68a4.09,4.09,0,0,0,.82,6.35c3.56,2.05,7,4.21,9.32,7.72,1.94,3,2.67,6.81,3.76,10.16,1.6,4.94,9.41,2.83,7.8-2.15-1.33-4.11-2.44-8.3-4.58-12.09a24.33,24.33,0,0,0-7.8-7.87c3.78-3.88,7.07-7.77,9.28-13.06a11.51,11.51,0,0,0,.58-8.89C214.93,457.55,220.14,456,222.66,452.92Z"/><path class="cls-1" d="M389.33,588.58c10.76-4.54,17.8-13.19,25.25-21.87a148.62,148.62,0,0,0,11.8-15.47c4.25-6.53,5.77-14,7.15-21.59.92-5.09-6.87-7.27-7.8-2.15-1.38,7.62-3,14.5-7.24,21.06-3.91,6-8.74,11.45-13.45,16.84-4.06,4.64-8,9.41-13.16,12.87-3.71,2.47-8.08,3.87-12.12,5.68a62.11,62.11,0,0,0-27,23.58c-5.51,8.5-9,18.16-13.07,27.47-10.16-14.12-29.52-19.38-46.09-13.37-3.42-7.72-8.55-14.12-13.24-21.29-2.9-4.45-3.53-8.94-4.51-14-.83-4.24-3.38-8-6.28-11.13s-8.72-4.44-10.28-8.4c-1-2.67-1.69-5.53-2.61-8.25-2.7-8-6.59-15.74-13.63-20.75-4.26-3-8.29,4-4.08,7,6.16,4.38,8.85,12.39,11,19.3s5,10.82,11.25,14.87c8.45,5.48,6.74,16.1,11.31,24.1,4.91,8.6,11.73,15.37,14.92,25a4.1,4.1,0,0,0,5.93,2.42c15-7.52,36.28-1.82,42.76,14.48,1.17,2.92,5.68,4.44,7.39,1,5.59-11.34,9.55-23.48,16.2-34.28C366.79,600.16,377.25,593.69,389.33,588.58Z"/><path class="cls-1" d="M392.16,416.49a42.38,42.38,0,0,0,6.48,19c8.16,13.21,21,22.71,29.47,35.7a4,4,0,0,0,6.55.4,3.33,3.33,0,0,0,.82-3.31,4.94,4.94,0,0,0-.39-1.18h0l-.18-.36a3.53,3.53,0,0,0-.76-1c-8.15-11.86-19.36-21.05-27.56-32.85-4.66-6.69-6.09-13-6.77-21-.5-5.83-.59-12.29-3.6-17.48-2.61-4.51-9.6-.44-7,4.08C392.17,403.5,391.59,410.83,392.16,416.49Z"/><path class="cls-1" d="M402,383c8.06,2.8,16.24,5.16,24.51,7.26,7.27,1.84,16.21,2.13,22.95,5.38,11.07,5.33,21.07-7.94,29.28-13,4.42-2.75.36-9.75-4.08-7-4.8,3-9,6.88-13.53,10.21-4.73,3.45-7.05,2.53-12.09,1-7.2-2.17-15-3-22.34-4.87q-11.42-2.88-22.55-6.75C399.2,373.51,397.09,381.33,402,383Z"/><path class="cls-1" d="M185.89,67.79c2.8,8.3,8.17,16,15.22,20.43A72,72,0,0,0,200,95.91c-.49,5.19,7.6,5.14,8.08,0,.15-1.53.37-3,.64-4.52a23.82,23.82,0,0,0,13.72-1.06c8-3,16.8-9.21,19-17.9,1.77-6.91-3.52-14.53-10.36-15.79-7.61-1.4-14.72,3.78-19.47,9.15a43.63,43.63,0,0,0-8.35,14.53c-7.45-5.55-10.58-16.44-12.38-25.17-2.56-12.42-2.42-25.11-3.83-37.66-.57-5.12-8.66-5.18-8.08,0C180.88,34.34,180.41,51.51,185.89,67.79Zm30.54,4.84c2.67-3.72,8.14-9,13.25-8.06,6.72,1.23,3,9,.07,11.88-4.81,4.85-12.16,8.4-19,7.12A43.73,43.73,0,0,1,216.43,72.63Z"/><path class="cls-1" d="M491.73,169.63c1-2.07.36-5.55-2.42-5.94-5-.69-7.57-2.51-10-6.88-2-3.52-5.35-7.87-5.65-11.89-.73-10-9-12.73-16.28-17.74-8.76-6-14.75-16.23-21.76-24.05a53.32,53.32,0,0,0-11.17-9.49c-5.21-3.3-11.75-2.12-16.51-6.3a4.09,4.09,0,0,0-6.76,1.78c-1.1,4-4.66,5.53-7.05,8.61-3.15,4.07,2.53,9.84,5.72,5.72,2.22-2.87,4.77-4.77,6.72-7.35A28.24,28.24,0,0,0,415,98.87c6.26,1.16,10.67,5.48,14.87,10,7.86,8.42,14,18.41,23.39,25.32,3.43,2.52,7.24,4.5,10.75,6.92,2.23,1.55,1.34,5.4,2,7.64a22.94,22.94,0,0,0,3.09,6.13c4,6.43,6.48,12.29,12.68,15.12-3.65,4-8.77,6-14.23,7.59a4.08,4.08,0,0,0-2.82,5c4.78,16.9,10.43,44.28,31,46.75-1.24,5.72-1.3,11.57,1.93,16.81,3.58,5.83,10.5,9,15.62,13.22,8.27,6.86,9.2,16,9.34,26.22.13,9.72-.36,19.56,2.3,28.94-19.29,9.78-29.51,30-27.41,51.81.5,5.14,8.59,5.19,8.09,0-1.86-19.29,6.77-38.16,25.33-45.77,1.89-.78,3.66-2.73,2.82-5-3.57-9.64-3-19.88-3-30,0-8.59-.45-19.05-6.08-26.08-4.43-5.53-10.15-9.28-15.8-13.4-7.1-5.18-6.42-11.84-4-19.64.75-2.38-1.31-5.31-3.89-5.11-18.45,1.41-23.58-22.19-27.45-37.2C481.13,181.4,488,177.31,491.73,169.63Z"/><path class="cls-1" d="M264.22,170.91c5.18,2.18,4.64,13.29,5.64,17.83,1.59,7.27,6.34,12.61,13.83,13.82,19.26,3.11,29.77-19.3,28.5-35.53-.4-5.17-8.49-5.21-8.08,0a34.26,34.26,0,0,1-5,20.27c-3.62,6-12.93,10.87-18.93,5.06-3.85-3.72-3.47-11.82-4.41-16.7-1.11-5.78-3.94-10.23-9.43-12.54C261.57,161.1,259.49,168.93,264.22,170.91Z"/><path class="cls-1" d="M359.37,217.4a30.48,30.48,0,0,0-10.22,1.74C339.43,222.58,332,230.7,328.32,242s-3.3,24.32,1.12,36.8c7.44,21,25,35.72,42.64,35.72a30.48,30.48,0,0,0,10.22-1.74c9.72-3.44,17.12-11.56,20.83-22.86s3.3-24.33-1.12-36.81C394.56,232.09,377,217.4,359.37,217.4Zm.2,54a10.78,10.78,0,0,1-4.61,1c-6.25,0-12.77-4.92-16.24-12.25-4.48-9.5-2.43-19.93,4.57-23.24a10.82,10.82,0,0,1,4.62-1c6.25,0,12.77,4.92,16.23,12.25C368.63,257.71,366.58,268.14,359.57,271.45Z"/><path class="cls-1" d="M397.86,376c3.18-9.66,2.83-20.88-1-31.6-6.39-18.06-21.45-30.67-36.63-30.67a26.13,26.13,0,0,0-8.78,1.5c-12.49,4.42-19.91,17.77-20,33.24-.4-1.51-.86-3-1.39-4.51-5.06-14.31-15.36-25.33-26.95-29.77,8.47-9,14-22.46,14.29-37.5.25-13.24-3.5-25.77-10.56-35.27s-16.68-14.92-27-15.12h-.57c-12.43,0-23.63,7.76-30.77,19.72-1.09-9.7-5.38-17.83-12.37-23.23a32.21,32.21,0,0,0-19.92-6.51c-14.61,0-30.28,8.54-40.9,22.29-8.1,10.48-12.55,22.78-12.55,34.62s4.49,21.92,12.65,28.22A32.15,32.15,0,0,0,195.35,308h0c14.6,0,30.28-8.55,40.9-22.3a63.71,63.71,0,0,0,4.26-6.24c1,21.63,12.8,39.57,28.67,44.73-7.6,10.67-9.58,26.93-4,42.8,6.65,18.78,22.32,31.91,38.1,31.91h0a27.18,27.18,0,0,0,9.14-1.56c8.69-3.07,15.3-10.33,18.62-20.44a46.62,46.62,0,0,0,2.24-14.34c.36,1.33.77,2.66,1.24,4,6.39,18.06,21.45,30.68,36.62,30.68h0a26.4,26.4,0,0,0,8.79-1.5C388.31,392.71,394.67,385.73,397.86,376Zm-37.45-15.94a9.13,9.13,0,0,1-3.92.86c-5.32,0-10.88-4.2-13.84-10.45-3.82-8.1-2.08-17,3.88-19.81a9.21,9.21,0,0,1,3.93-.86c5.32,0,10.88,4.2,13.83,10.45C368.12,348.37,366.38,357.26,360.41,360.08Zm-82.76-30.43a9.52,9.52,0,0,1,4.1-.9c5.55,0,11.34,4.37,14.42,10.89,4,8.45,2.18,17.71-4.05,20.65a9.44,9.44,0,0,1-4.09.9c-5.55,0-11.34-4.38-14.42-10.89C269.62,341.85,271.43,332.59,277.65,329.65ZM268.11,241q.43,0,.87,0c7.42,0,13.88,7.85,14.71,17.87.86,10.48-4.72,19.52-12.45,20.15s-14.71-7.43-15.57-17.84S260.39,241.6,268.11,241Zm-48.26,10.21c-3.92,6.3-10.25,10.38-16.13,10.38a10.92,10.92,0,0,1-5.87-1.63c-6.58-4.09-7.41-14.68-1.86-23.61,3.92-6.3,10.25-10.37,16.13-10.37a10.91,10.91,0,0,1,5.87,1.62C224.57,231.65,225.41,242.24,219.85,251.17Z"/><path class="cls-1" d="M346.93,467.67h0a24.91,24.91,0,0,0,8.37-1.43c8-2.82,14-9.47,17.08-18.73s2.7-19.9-.92-30.11c-6.09-17.22-20.45-29.24-34.91-29.24a25,25,0,0,0-8.38,1.43c-16.39,5.8-23.63,27.71-16.16,48.85q.66,1.85,1.44,3.6a26,26,0,0,0-15.58-8.58,23.86,23.86,0,0,0-3.48-.25c-15.78,0-29.87,15.15-32.77,35.25-3.14,21.73,8,41.39,24.88,43.82a23.83,23.83,0,0,0,3.47.25h0c9.35,0,18.1-5.31,24.28-13.81a47.75,47.75,0,0,0-3.22,23.4c2.15,20.47,16.35,36.5,32.33,36.5h0c.84,0,1.7,0,2.55-.13,8.23-.87,15.52-5.82,20.54-14s7.11-18.34,6-28.89c-2.15-20.46-16.35-36.5-32.33-36.5a24.06,24.06,0,0,0-2.55.14c-7.39.77-13.83,4.87-18.54,11.06a50.19,50.19,0,0,0,3.72-13.07,47.63,47.63,0,0,0-2.48-24C327.43,462.18,337.16,467.67,346.93,467.67Zm-17.2,24.61a8.81,8.81,0,0,1,1.69-.17c5.49,0,10.77,5.46,12.28,12.7,1.71,8.16-1.79,15.82-7.79,17.07a8,8,0,0,1-1.69.18c-5.49,0-10.77-5.46-12.28-12.7C320.23,501.2,323.73,493.54,329.73,492.28Zm6.94-60a8.68,8.68,0,0,1-3.72.82c-5.07,0-10.35-4-13.16-9.95-3.64-7.7-2-16.15,3.68-18.82a8.59,8.59,0,0,1,3.73-.83c5.06,0,10.34,4,13.15,10C344,421.17,342.34,429.62,336.67,432.3Zm-49.95,11.83h.36c6.12.26,10.82,7.25,10.47,15.58S292,474.65,285.8,474.34a9.8,9.8,0,0,1-7.62-4.69,18.07,18.07,0,0,1-2.85-10.88C275.67,450.7,280.78,444.13,286.72,444.13Z"/><path class="cls-1" d="M212.92,389.81h0c15,0,29.79-11.81,36.71-29.38,8.63-21.88,1.84-45.12-15.13-51.81a26.31,26.31,0,0,0-9.69-1.83c-15,0-29.79,11.81-36.72,29.38-8.62,21.89-1.83,45.13,15.13,51.82A26.32,26.32,0,0,0,212.92,389.81Zm-8.21-60.39c2.08-7.38,7.75-12.74,13.49-12.74a9,9,0,0,1,2.43.33c6.35,1.79,9.54,10.27,7.11,18.89-2.07,7.38-7.75,12.74-13.48,12.74a9.09,9.09,0,0,1-2.44-.33C205.48,346.52,202.29,338.05,204.71,329.42Z"/><path class="cls-1" d="M279.49,428.49c8.05-20.42,1.71-42.12-14.13-48.36a24.38,24.38,0,0,0-9.05-1.71c-14,0-27.81,11-34.28,27.42-8.05,20.43-1.71,42.13,14.13,48.38a24.57,24.57,0,0,0,9.05,1.7C259.25,455.92,273,444.9,279.49,428.49ZM237.6,399.57c1.93-6.87,7.21-11.85,12.54-11.85a8.16,8.16,0,0,1,2.26.31c5.9,1.66,8.86,9.54,6.61,17.57-1.94,6.86-7.21,11.85-12.55,11.85a8.54,8.54,0,0,1-2.25-.31C238.3,415.48,235.34,407.6,237.6,399.57Z"/></svg>