<svg id="Réteg_2" data-name="Réteg 2" xmlns="http://www.w3.org/2000/svg" viewBox="0 0 1200 900"><defs><style>.cls-1{fill:#085caa;}.cls-2{fill:#fff;}</style></defs><title>bss</title><circle class="cls-1" cx="216.35" cy="415.79" r="147.88" transform="translate(-230.64 274.76) rotate(-45)"/><path class="cls-1" d="M74.7,474.73a31.55,31.55,0,1,0-16.94,41.16A31.48,31.48,0,0,0,74.7,474.73Z"/><path class="cls-1" d="M31.54,447.65a31.51,31.51,0,1,0-.06,0Z"/><path class="cls-1" d="M108.08,524.42a31.46,31.46,0,1,0,0,44.53A31.48,31.48,0,0,0,108.08,524.42Z"/><path class="cls-1" d="M157.82,557.62a31.47,31.47,0,1,0-24,58.16,30.89,30.89,0,0,0,12,2.41,31.47,31.47,0,0,0,12-60.57Z"/><path class="cls-1" d="M216.5,569.12A31.49,31.49,0,1,0,248,600.61,31.48,31.48,0,0,0,216.5,569.12Z"/><circle class="cls-1" cx="634.23" cy="415.79" r="147.88" transform="translate(-108.24 570.25) rotate(-45)"/><path class="cls-1" d="M492.59,474.73a31.47,31.47,0,1,0-29,43.62,31.17,31.17,0,0,0,12.07-2.46A31.49,31.49,0,0,0,492.59,474.73Z"/><path class="cls-1" d="M449.43,447.65a31.51,31.51,0,1,0-.06,0Z"/><path class="cls-1" d="M526,524.42A31.46,31.46,0,1,0,526,569,31.46,31.46,0,0,0,526,524.42Z"/><path class="cls-1" d="M575.71,557.62a31.47,31.47,0,0,0-24.05,58.16,30.91,30.91,0,0,0,12,2.41,31.47,31.47,0,0,0,12-60.57Z"/><path class="cls-1" d="M634.38,569.12a31.49,31.49,0,1,0,31.54,31.49A31.47,31.47,0,0,0,634.38,569.12Z"/><circle class="cls-1" cx="1052.12" cy="415.79" r="147.88" transform="translate(14.15 865.74) rotate(-45)"/><path class="cls-1" d="M910.47,474.73a31.55,31.55,0,1,0-16.94,41.16A31.47,31.47,0,0,0,910.47,474.73Z"/><path class="cls-1" d="M867.31,447.65a31.49,31.49,0,1,0-31.54-31.43,31.47,31.47,0,0,0,31.54,31.43Z"/><path class="cls-1" d="M943.85,524.42a31.46,31.46,0,1,0,0,44.53A31.48,31.48,0,0,0,943.85,524.42Z"/><path class="cls-1" d="M993.59,557.62a31.47,31.47,0,1,0-24,58.16,30.89,30.89,0,0,0,12,2.41,31.47,31.47,0,0,0,12-60.57Z"/><path class="cls-1" d="M1052.27,569.12a31.49,31.49,0,1,0,31.54,31.49A31.49,31.49,0,0,0,1052.27,569.12Z"/><path class="cls-2" d="M164.43,485.61V348.31h78.69q10.86,0,18.44,5.82,7.79,5.67,7.79,13.79v29.43q0,8.26-7.79,13.94a7.46,7.46,0,0,1-1.23.76l1.23.92q7.79,5.68,7.79,13.8V466q0,8.26-7.79,13.94-7.58,5.67-18.44,5.67Zm78.69-89.16V378.63a10.71,10.71,0,0,0-10.7-10.71H190.66v39.23h41.76A10.7,10.7,0,0,0,243.12,396.45Zm0,58.84V437.47a10.7,10.7,0,0,0-10.7-10.7H190.66V466h41.76A10.71,10.71,0,0,0,243.12,455.29Z"/><path class="cls-2" d="M609.08,485.61q-10.74,0-18.09-5.67T583.63,466V452.11l25.45-5.73V466H660V426.77h-50.9q-10.74,0-18.09-5.67t-7.36-14V367.92q0-8.12,7.36-13.79t18.09-5.82H660q10.54,0,17.9,5.82,7.54,5.67,7.55,13.79v13.89L660,387.54V367.92h-50.9v39.23H660q10.54,0,17.9,5.82,7.54,5.68,7.55,13.8V466q0,8.26-7.55,13.94-7.36,5.67-17.9,5.67Z"/><path class="cls-2" d="M1028.28,485.61q-10.74,0-18.09-5.67T1002.83,466V452.11l25.45-5.73V466h50.9V426.77h-50.9q-10.74,0-18.09-5.67t-7.36-14V367.92q0-8.12,7.36-13.79t18.09-5.82h50.9q10.54,0,17.9,5.82,7.56,5.67,7.55,13.79v13.89l-25.45,5.73V367.92h-50.9v39.23h50.9q10.54,0,17.9,5.82,7.56,5.68,7.55,13.8V466q0,8.26-7.55,13.94-7.36,5.67-17.9,5.67Z"/></svg>