<?xml version="1.0" encoding="utf-8"?>
<!-- Generator: Adobe Illustrator 21.0.0, SVG Export Plug-In . SVG Version: 6.00 Build 0)  -->
<svg version="1.1" id="Réteg_1" xmlns="http://www.w3.org/2000/svg" xmlns:xlink="http://www.w3.org/1999/xlink" x="0px" y="0px"
	 viewBox="0 0 1200 900" enable-background="new 0 0 1200 900" xml:space="preserve">
<g>
	<g>
		<path d="M401.7,543c-9.6-28.3-3.2-62,19-100c49.2-84.4,127.4-172.4,179.3-221.1c9.1,8.5,19,18.2,29.3,28.9
			c6.7-6.7,13-12.9,19-18.6c-10-10.3-19.6-19.8-28.4-28.1c-7.1-6.7-13.8-12.8-19.9-18c-6.1,5.3-12.8,11.3-19.9,18
			c-53.5,50.6-132.5,139.9-182.4,225.6c-26.2,45-33.4,86.1-21.2,122c9.7,28.7,29.5,47.5,46.9,59.2c3.4-8,7.3-16.2,11.5-24.4
			C422.1,577,408.5,563,401.7,543z"/>
		<path d="M779.3,442.9c22.2,38.1,28.6,71.7,19,100c-11.7,34.7-43.8,51.2-57,56.6c-9.4,3.9-18.8,5.5-28.2,5.5
			c-33.6,0-65-21.4-80.7-37.2c-3.2-3.2-7.9-4.6-12.4-3.6c-4.5,1-8.1,4.2-9.6,8.6c-0.9,2.5-18.5,55.2,39.3,114.5h-43.2h-13.2h-43.2
			c57.8-59.3,40.2-112,39.3-114.5c-1.5-4.3-5.2-7.5-9.6-8.6c-4.5-1-9.1,0.3-12.4,3.6c-7.4,7.4-18.3,16.1-31.2,23.2
			c-13.9,14.9-26,28.4-35.6,39.6c23.3-3,45.9-13,64.8-26.4c-0.3,2.6-0.7,5.3-1.4,8.2c-4.2,18.8-17.5,47.5-57.4,77.7
			c-4.6,3.5-6.4,9.4-4.6,14.9c1.8,5.4,6.9,9.1,12.6,9.1h78.6h13.2h78.6c5.7,0,10.8-3.7,12.6-9.1c1.8-5.4,0-11.4-4.6-14.9
			c-30.9-23.4-50.6-49.6-57-75.9c-0.9-3.5-1.4-6.8-1.8-9.9c33,23.3,77.1,36.4,117.1,19.9c16.6-6.9,56.9-27.7,72.1-72.8
			c12.1-35.9,5-77-21.2-122c-19.1-32.7-42.4-66-66.9-97.4c-7.6,5.3-14.7,10.6-21.5,15.7C737.9,378.4,760.7,410.9,779.3,442.9z"/>
	</g>
	<path d="M502.9,426l40.1,27.7l-3,3.7c-0.9,1.1-87.6,108.1-109.8,179.5l-2.2,7l-22.8-22.8v80.8l81.8-35.3l-27.8-10.1l3.8-4.8
		c1-1.2,95.3-120.9,205.7-201.3l-57.1-33.8l3.7-4c0.7-0.8,73-78.9,209.2-154.8L690.3,216C658.8,238.6,538.5,362.7,502.9,426z"/>
</g>
</svg>
