<svg xmlns="http://www.w3.org/2000/svg" viewBox="0 0 1024 1024"><defs><style>.cls-1{fill:#a806c9;}.cls-2{fill:#3051bf;}</style></defs><title>devteam</title><g id="Layer_2" data-name="Layer 2"><path id="path4536" class="cls-1" d="M550.27,281.1,433.38,631.8a577.52,577.52,0,0,0,67,30.16L619.63,304.22Z"/><path class="cls-2" d="M511.22,1023.85A511.83,511.83,0,1,1,611.18,10C728.27,33.11,834.62,96,910.64,187c77.74,93,117.85,209,113,326.55,0,.86-.1,1.72-.19,2.58C1010.52,630,954,713.64,860.07,758.1c-71.2,33.68-160.89,43.27-259.39,27.72C511,771.65,420.42,737.24,345.75,688.91l-.41-.27L126,542.41a36.56,36.56,0,0,1,0-60.83L345.34,335.36l40.55,60.83L212.18,512,385.69,627.67c121.63,78.64,312.82,126,443.11,64.34,70.56-33.38,111.53-94.88,121.8-182.83,7.75-202.4-144-386-353.61-427.51C392.15,41.13,185.75,151.85,106.22,344.94s-11,417,163,532.53C442.85,992.73,675.38,969,822.15,821.06l51.9,51.49a510.56,510.56,0,0,1-362.83,151.3Z"/><path class="cls-2" d="M678.34,688.64,637.79,627.8,811.5,512,637.79,396.19l40.55-60.83L897.68,481.58a36.55,36.55,0,0,1,0,60.83Z"/></g></svg>