<svg id="Réteg_2" data-name="Réteg 2" xmlns="http://www.w3.org/2000/svg" viewBox="0 0 1200 670.4"><defs><style>.cls-1{fill:#dc5426;}.cls-2{fill:#332c81;}</style></defs><title>foodex</title><path class="cls-1" d="M1140.2,378.61l56.87-80.32h-70.9l-31.36,46.18-25.9-45.26-.79-1.38H891V254.35H995V200.42H807.48V466.29h253.7l33.63-54.8,32.15,54.8h73ZM995,458.47V405.65H891V351.77H995V310.51l55.49,68.1Z"/><path class="cls-2" d="M735.11,199.68v94.09c-12.19-12.93-25.48-25.85-56.5-25.85-23.26,0-43.94,7-60.93,25.11-9.59,10.44-17.23,28.94-20.3,54.72-9.76-49.9-52.27-73.11-105-73.11-58.74,0-92.91,26.44-104.27,66.09-12.25-45-53.15-66.09-103.31-66.09-52.38,0-85.24,21-99.79,53.7V301.87H80.93V254.72H193.16v-54.3H0V466.29H80.93V365.11h95.59c-.15,2.55-.25,5.13-.25,7.75,0,22.53,5.17,50.22,26.59,70.53,18.09,17.36,44.68,27.33,85.67,27.33,38,0,60.92-11.45,76.43-26.59,11.23-11.22,18.51-25.23,22.65-40.3,3.71,14,10.63,28,22.83,39.56,18.09,17.36,44.68,27.33,85.67,27.33,38,0,60.92-11.45,76.43-26.59,13.53-13.52,21.35-31.07,24.81-49.69,5.51,39,27.81,76.28,82,76.28,41,0,52.41-21.05,59.79-31.76l1.48,27.33h66.86V199.68Zm-451,219.16c-6.27,0-18.83-.57-26.95-11.48-7.76-10.63-8.86-24.69-8.86-34.17,0-21.53,5.9-45.93,36.55-45.93,27.7,0,35.45,20.95,35.45,45.93C320.28,393.29,314.37,418.84,284.09,418.84Zm207.59,0c-6.28,0-18.84-.57-27-11.48-7.76-10.63-8.86-24.69-8.86-34.17,0-21.53,5.9-45.93,36.55-45.93,27.7,0,35.45,20.95,35.45,45.93C527.86,393.29,522,418.84,491.68,418.84Zm211-3.28c-29,0-32.44-31.63-32.44-46.36,0-14.43,3.83-47,33.14-47,23,0,32.45,20.26,32.45,46C735.85,394.68,726.43,415.56,702.7,415.56Z"/></svg>