<svg id="Réteg_2" data-name="Réteg 2" xmlns="http://www.w3.org/2000/svg" viewBox="0 0 1200 900"><defs><style>.cls-1{fill:#818285;}.cls-2{fill:#23b2e7;}</style></defs><title>ha5kfu</title><polygon class="cls-1" points="129.02 461.23 45.38 461.23 45.38 380.08 0 380.08 0 592.86 45.38 592.86 45.38 506.44 129.02 506.44 129.02 592.86 174.4 592.86 174.4 380.08 129.02 380.08 129.02 461.23"/><path class="cls-1" d="M668.51,380.08H623.13V592.86h45.38V541.78l132.88,56V541.14L675.62,491.65a3.2,3.2,0,0,1-.07-5.92l125.84-53V380.08L668.51,432.37Z"/><path class="cls-1" d="M824.41,449.46v143.4h45.38V506.44H999V461.23H869.79v-8.71a27.81,27.81,0,0,1,27.8-27.81H999V380.08H893.79A69.38,69.38,0,0,0,824.41,449.46Z"/><path class="cls-1" d="M1154.62,380.08V506.46a37.07,37.07,0,0,1-37.07,37.07h-15.32a37.07,37.07,0,0,1-37.07-37.07V380.08h-45.38V515.65A77.21,77.21,0,0,0,1097,592.86h25.79A77.21,77.21,0,0,0,1200,515.65V380.08Z"/><path class="cls-1" d="M300.31,377.76q-31.83,0-42.2,27.83L189.27,592.86h56l53.36-160.95a2.39,2.39,0,0,1,4.53,0L355,592.86h56L342.16,405.59Q331.79,377.77,300.31,377.76Z"/><path class="cls-1" d="M602.5,500.12q0-11-10.63-22-15.76-16.25-47.28-16.23H477.28q-13.8-1.17-13.79-12.17V425.29H598.78V380.08h-184v78.83q0,20.28,15.77,32.46t40.58,12.17l73,.58c9.46,0,10.06,3.86,10.06,11.59v15.65c0,7.33-.48,15.71-9.67,16.87H473.16c-9.19-1.16-9.67-9.54-9.67-16.87v-2.9H414.94l-.16,19.19c0,.2,0,.38,0,.58q0,44.61,64.59,44.63h54.77c43.06,0,68.69-14.89,68.71-44.63,0-.2,0-.38,0-.58l-.16-19.19Z"/><path class="cls-1" d="M47.31,673.77a28.85,28.85,0,0,1-.17,3.56,8.25,8.25,0,0,1-.49,2.17,2.1,2.1,0,0,1-.87,1.09,2.77,2.77,0,0,1-1.36.3,6.12,6.12,0,0,1-1.49-.21l-1.85-.45c-.69-.16-1.45-.31-2.27-.45a16.46,16.46,0,0,0-2.73-.21,12.25,12.25,0,0,0-3.47.51,16.14,16.14,0,0,0-3.59,1.6,24.42,24.42,0,0,0-3.88,2.89A50.83,50.83,0,0,0,20.81,689v33.55a1.38,1.38,0,0,1-.5,1,4,4,0,0,1-1.69.76,19.76,19.76,0,0,1-3.18.45q-2,.15-5,.15c-2,0-3.71,0-5-.15a19.43,19.43,0,0,1-3.18-.45,4,4,0,0,1-1.7-.76,1.37,1.37,0,0,1-.49-1V668.76a1.53,1.53,0,0,1,.41-1A3.3,3.3,0,0,1,1.9,667a15.69,15.69,0,0,1,2.76-.45q1.7-.15,4.26-.15c1.76,0,3.22,0,4.37.15A13.23,13.23,0,0,1,16,667a3.24,3.24,0,0,1,1.36.76,1.53,1.53,0,0,1,.41,1v6.7a49.19,49.19,0,0,1,5.45-5,30.47,30.47,0,0,1,4.87-3.1,18,18,0,0,1,4.63-1.6,24.11,24.11,0,0,1,4.62-.45c.71,0,1.49,0,2.31.09s1.68.16,2.56.3a22,22,0,0,1,2.31.48,5.42,5.42,0,0,1,1.45.57,2.09,2.09,0,0,1,.66.67,4.51,4.51,0,0,1,.37,1,11.45,11.45,0,0,1,.25,1.9C47.28,671.18,47.31,672.32,47.31,673.77Z"/><path class="cls-1" d="M119.14,722.77a1.49,1.49,0,0,1-.82,1.33,7.08,7.08,0,0,1-2.6.69,48.49,48.49,0,0,1-5.25.21,48.89,48.89,0,0,1-5.4-.21,5.74,5.74,0,0,1-2.4-.69,1.54,1.54,0,0,1-.7-1.33v-4.29A34.71,34.71,0,0,1,91.61,724a39.67,39.67,0,0,1-12.92,2,48.89,48.89,0,0,1-10.78-1.12,27.78,27.78,0,0,1-8.5-3.32,16.4,16.4,0,0,1-5.58-5.46,14.35,14.35,0,0,1-2-7.6,13.54,13.54,0,0,1,2.52-8.18,18.4,18.4,0,0,1,7.51-5.73,46.58,46.58,0,0,1,12.43-3.35,121.18,121.18,0,0,1,17.26-1.09h7.18v-3.25a13,13,0,0,0-.7-4.44,7.14,7.14,0,0,0-2.31-3.17,10.88,10.88,0,0,0-4.3-1.87,31.07,31.07,0,0,0-6.65-.6,46.32,46.32,0,0,0-9.28.84,66.93,66.93,0,0,0-7.23,1.88q-3.14,1-5.24,1.87a9.84,9.84,0,0,1-3.43.84,3.09,3.09,0,0,1-1.61-.42,3.27,3.27,0,0,1-1.15-1.21,6.59,6.59,0,0,1-.71-1.93,12.36,12.36,0,0,1-.24-2.53,8.44,8.44,0,0,1,.41-3,4.47,4.47,0,0,1,1.57-2,16.75,16.75,0,0,1,4-1.93,57.63,57.63,0,0,1,6.77-2,80.1,80.1,0,0,1,8.47-1.48,76.4,76.4,0,0,1,9.45-.57,76.77,76.77,0,0,1,14.82,1.23,29.23,29.23,0,0,1,10.12,3.8,15.31,15.31,0,0,1,5.78,6.61,23.28,23.28,0,0,1,1.81,9.59Zm-20.39-23H90.82a58,58,0,0,0-8.58.54,20.37,20.37,0,0,0-5.78,1.63,8,8,0,0,0-3.27,2.63,6.22,6.22,0,0,0-1,3.52,6,6,0,0,0,2.93,5.31q2.94,1.93,8.14,1.94a19.76,19.76,0,0,0,8-1.63,33,33,0,0,0,7.47-4.77Zm-7.27-57.38a5.5,5.5,0,0,1,1.41-1.15,7.05,7.05,0,0,1,2.06-.75,20.1,20.1,0,0,1,3.14-.4q1.89-.12,4.62-.12a58.09,58.09,0,0,1,6,.24,10.66,10.66,0,0,1,3.14.7c.63.3.92.65.86,1a2.19,2.19,0,0,1-.82,1.27l-16,14a8.11,8.11,0,0,1-1.32,1,5.8,5.8,0,0,1-1.69.64,17.87,17.87,0,0,1-2.61.36q-1.56.12-4,.12a45.52,45.52,0,0,1-4.58-.18,6.33,6.33,0,0,1-2.35-.57.92.92,0,0,1-.54-1,3.11,3.11,0,0,1,.87-1.39Z"/><path class="cls-1" d="M209.72,722.59a1.6,1.6,0,0,1-.41,1.11,3.12,3.12,0,0,1-1.41.76,12.66,12.66,0,0,1-2.68.42q-1.69.12-4.17.12-2.64,0-4.29-.12a13.35,13.35,0,0,1-2.69-.42,3.5,3.5,0,0,1-1.48-.76,1.48,1.48,0,0,1-.46-1.11v-6a47.77,47.77,0,0,1-11.93,6.94A37.13,37.13,0,0,1,166.37,726a37.62,37.62,0,0,1-14.24-2.39,25.88,25.88,0,0,1-9.5-6.42,24.66,24.66,0,0,1-5.32-9.45,38.7,38.7,0,0,1-1.65-11.37,37.31,37.31,0,0,1,2.1-12.91,25.8,25.8,0,0,1,16.23-16,40.76,40.76,0,0,1,13.87-2.17,32.46,32.46,0,0,1,11.23,1.84,41.32,41.32,0,0,1,10,5.4V643.42a1.54,1.54,0,0,1,.45-1.08,3.55,3.55,0,0,1,1.65-.82,18.87,18.87,0,0,1,3.18-.51q2-.18,5-.18c2,0,3.71.06,5,.18a17.67,17.67,0,0,1,3.13.51,3.83,3.83,0,0,1,1.65.82,1.48,1.48,0,0,1,.5,1.08Zm-20.64-36a42.07,42.07,0,0,0-8.55-6.27,17.92,17.92,0,0,0-8.54-2.17,15.26,15.26,0,0,0-7,1.48,12.76,12.76,0,0,0-4.71,4,17.83,17.83,0,0,0-2.64,5.52,22.6,22.6,0,0,0-.87,6.24,28.68,28.68,0,0,0,.75,6.58,16.78,16.78,0,0,0,2.43,5.7,12.5,12.5,0,0,0,4.5,4,15,15,0,0,0,7.1,1.5,19,19,0,0,0,4.17-.45,18.37,18.37,0,0,0,4.13-1.48,27.51,27.51,0,0,0,4.34-2.68c1.48-1.11,3.11-2.47,4.87-4.08Z"/><path class="cls-1" d="M253,650.54c0,3.06-.86,5.17-2.56,6.34s-4.88,1.75-9.5,1.75-7.83-.57-9.45-1.69-2.44-3.16-2.44-6.1.84-5.18,2.52-6.36,4.86-1.78,9.54-1.78,7.76.57,9.41,1.72S253,647.61,253,650.54Zm-1.57,72.05a1.38,1.38,0,0,1-.5,1,4,4,0,0,1-1.69.76,19.76,19.76,0,0,1-3.18.45q-2,.15-5,.15c-2,0-3.71,0-5-.15a19.76,19.76,0,0,1-3.18-.45,4,4,0,0,1-1.69-.76,1.38,1.38,0,0,1-.5-1v-53.7a1.39,1.39,0,0,1,.5-1.06,4.36,4.36,0,0,1,1.69-.79,18.87,18.87,0,0,1,3.18-.51c1.32-.12,3-.18,5-.18s3.72.06,5,.18a18.87,18.87,0,0,1,3.18.51,4.36,4.36,0,0,1,1.69.79,1.39,1.39,0,0,1,.5,1.06Z"/><path class="cls-1" d="M346.62,695.13a31,31,0,0,1-2.48,12.55,25.94,25.94,0,0,1-7.51,9.78A35.8,35.8,0,0,1,324,723.79,63.11,63.11,0,0,1,306.24,726a64.93,64.93,0,0,1-17.09-2,33.08,33.08,0,0,1-12-5.79,23,23,0,0,1-7.11-9.35,32.72,32.72,0,0,1-2.31-12.67,30.76,30.76,0,0,1,2.52-12.58,26,26,0,0,1,7.56-9.78,36,36,0,0,1,12.59-6.3,62.69,62.69,0,0,1,17.71-2.23,66.28,66.28,0,0,1,17.17,2,32.36,32.36,0,0,1,12,5.76,23.37,23.37,0,0,1,7.06,9.35A32.92,32.92,0,0,1,346.62,695.13Zm-21.39.61a29.68,29.68,0,0,0-.86-7.34,14.71,14.71,0,0,0-2.94-5.82,13.62,13.62,0,0,0-5.49-3.86,23.21,23.21,0,0,0-8.62-1.39,24,24,0,0,0-8.1,1.24,14,14,0,0,0-5.69,3.62,15.44,15.44,0,0,0-3.35,5.73,24.22,24.22,0,0,0-1.11,7.63,27.84,27.84,0,0,0,.91,7.34,15.37,15.37,0,0,0,2.93,5.82,13,13,0,0,0,5.49,3.83A23.54,23.54,0,0,0,307,713.9a24.23,24.23,0,0,0,8.18-1.24,14.3,14.3,0,0,0,5.7-3.59,14.81,14.81,0,0,0,3.3-5.7A25.16,25.16,0,0,0,325.23,695.74Zm-14-53.4a5.29,5.29,0,0,1,1.4-1.15,7.16,7.16,0,0,1,2.06-.75,20.1,20.1,0,0,1,3.14-.4q1.9-.12,4.62-.12a58,58,0,0,1,6,.24,10.66,10.66,0,0,1,3.14.7c.63.3.92.65.86,1a2.19,2.19,0,0,1-.82,1.27l-16,14a8.11,8.11,0,0,1-1.32,1,5.8,5.8,0,0,1-1.69.64,17.91,17.91,0,0,1-2.6.36c-1,.08-2.37.12-4,.12a45.66,45.66,0,0,1-4.58-.18,6.33,6.33,0,0,1-2.35-.57.92.92,0,0,1-.54-1,3.11,3.11,0,0,1,.87-1.39Z"/><path class="cls-1" d="M425.8,722.77a1.5,1.5,0,0,1-.83,1.33,7.08,7.08,0,0,1-2.6.69,48.27,48.27,0,0,1-5.24.21,49.1,49.1,0,0,1-5.41-.21,5.64,5.64,0,0,1-2.39-.69,1.55,1.55,0,0,1-.71-1.33v-4.29A34.59,34.59,0,0,1,398.26,724a39.67,39.67,0,0,1-12.92,2,48.79,48.79,0,0,1-10.77-1.12,27.85,27.85,0,0,1-8.51-3.32,16.46,16.46,0,0,1-5.57-5.46,14.35,14.35,0,0,1-2-7.6,13.54,13.54,0,0,1,2.52-8.18,18.34,18.34,0,0,1,7.51-5.73A46.47,46.47,0,0,1,381,691.27a121.13,121.13,0,0,1,17.25-1.09h7.18v-3.25a12.77,12.77,0,0,0-.7-4.44,7.14,7.14,0,0,0-2.31-3.17,10.77,10.77,0,0,0-4.29-1.87,31.13,31.13,0,0,0-6.65-.6,46.43,46.43,0,0,0-9.29.84,67.32,67.32,0,0,0-7.22,1.88q-3.13,1-5.25,1.87a9.75,9.75,0,0,1-3.42.84,3,3,0,0,1-1.61-.42,3.3,3.3,0,0,1-1.16-1.21,6.6,6.6,0,0,1-.7-1.93,11.67,11.67,0,0,1-.25-2.53,8.68,8.68,0,0,1,.41-3,4.55,4.55,0,0,1,1.57-2,16.67,16.67,0,0,1,4.05-1.93,57.07,57.07,0,0,1,6.77-2,80.35,80.35,0,0,1,8.46-1.48,85.22,85.22,0,0,1,24.28.66,29.17,29.17,0,0,1,10.11,3.8A15.18,15.18,0,0,1,424,677a23.28,23.28,0,0,1,1.82,9.59Zm-20.4-23h-7.92a58.26,58.26,0,0,0-8.59.54,20.47,20.47,0,0,0-5.78,1.63,8,8,0,0,0-3.26,2.63,6.14,6.14,0,0,0-1,3.52,6,6,0,0,0,2.93,5.31q2.92,1.93,8.13,1.94a19.73,19.73,0,0,0,8.05-1.63,32.8,32.8,0,0,0,7.47-4.77Z"/><path class="cls-1" d="M563.69,722.59a1.38,1.38,0,0,1-.5,1,4,4,0,0,1-1.65.76,18.68,18.68,0,0,1-3.14.45c-1.32.1-3,.15-5,.15s-3.8,0-5.13-.15a19.45,19.45,0,0,1-3.17-.45,3.62,3.62,0,0,1-1.65-.76,1.41,1.41,0,0,1-.46-1V690.67a16.4,16.4,0,0,0-.7-4.95,10.2,10.2,0,0,0-2.15-3.83,9.62,9.62,0,0,0-3.63-2.48,14.2,14.2,0,0,0-5.24-.87,15.36,15.36,0,0,0-7.52,2.11,45.71,45.71,0,0,0-8.25,6.16v35.78a1.38,1.38,0,0,1-.5,1,4,4,0,0,1-1.69.76,19.76,19.76,0,0,1-3.18.45c-1.32.1-3,.15-5,.15s-3.71,0-5-.15a19.76,19.76,0,0,1-3.18-.45,4,4,0,0,1-1.69-.76,1.38,1.38,0,0,1-.5-1V690.67a16.4,16.4,0,0,0-.7-4.95,10.4,10.4,0,0,0-2.11-3.83,9.17,9.17,0,0,0-3.63-2.48,14.23,14.23,0,0,0-5.2-.87,15.5,15.5,0,0,0-7.6,2.11,43.76,43.76,0,0,0-8.17,6.16v35.78a1.38,1.38,0,0,1-.5,1,4,4,0,0,1-1.69.76,19.76,19.76,0,0,1-3.18.45c-1.32.1-3,.15-5,.15s-3.72,0-5-.15a19.76,19.76,0,0,1-3.18-.45,4,4,0,0,1-1.69-.76,1.38,1.38,0,0,1-.5-1V668.76a1.49,1.49,0,0,1,.42-1,3.26,3.26,0,0,1,1.48-.76,15.82,15.82,0,0,1,2.77-.45c1.13-.1,2.54-.15,4.25-.15s3.22,0,4.38.15a13.11,13.11,0,0,1,2.68.45,3.18,3.18,0,0,1,1.36.76,1.48,1.48,0,0,1,.41,1V675a49.24,49.24,0,0,1,12.18-7.24,34,34,0,0,1,12.68-2.41,44,44,0,0,1,8.17.69,28.68,28.68,0,0,1,6.48,2,19.77,19.77,0,0,1,4.92,3.11,18.14,18.14,0,0,1,3.46,4,57.58,57.58,0,0,1,6.48-4.46,41,41,0,0,1,6.28-3.05,35.27,35.27,0,0,1,6.19-1.75,34.88,34.88,0,0,1,6.32-.57,36.73,36.73,0,0,1,12.38,1.81,21.55,21.55,0,0,1,8.14,4.91,17.82,17.82,0,0,1,4.41,7.27,29,29,0,0,1,1.33,8.81Z"/><path class="cls-1" d="M646.83,722.77a1.49,1.49,0,0,1-.82,1.33,7.08,7.08,0,0,1-2.61.69,48.27,48.27,0,0,1-5.24.21,49.22,49.22,0,0,1-5.41-.21,5.69,5.69,0,0,1-2.39-.69,1.54,1.54,0,0,1-.7-1.33v-4.29A34.71,34.71,0,0,1,619.3,724a39.68,39.68,0,0,1-12.93,2,48.79,48.79,0,0,1-10.77-1.12,28,28,0,0,1-8.51-3.32,16.46,16.46,0,0,1-5.57-5.46,14.35,14.35,0,0,1-2-7.6,13.54,13.54,0,0,1,2.52-8.18,18.4,18.4,0,0,1,7.51-5.73A46.47,46.47,0,0,1,602,691.27a121.18,121.18,0,0,1,17.26-1.09h7.18v-3.25a13,13,0,0,0-.7-4.44,7.09,7.09,0,0,0-2.32-3.17,10.77,10.77,0,0,0-4.29-1.87,31.07,31.07,0,0,0-6.65-.6,46.5,46.5,0,0,0-9.29.84,67.32,67.32,0,0,0-7.22,1.88q-3.13,1-5.24,1.87a9.84,9.84,0,0,1-3.43.84,3.07,3.07,0,0,1-1.61-.42,3.38,3.38,0,0,1-1.16-1.21,6.89,6.89,0,0,1-.7-1.93,12.33,12.33,0,0,1-.25-2.53,8.41,8.41,0,0,1,.42-3,4.47,4.47,0,0,1,1.57-2,16.75,16.75,0,0,1,4-1.93,57.63,57.63,0,0,1,6.77-2,80.1,80.1,0,0,1,8.47-1.48,85.15,85.15,0,0,1,24.27.66,29.31,29.31,0,0,1,10.12,3.8A15.31,15.31,0,0,1,645,677a23.44,23.44,0,0,1,1.81,9.59Zm-20.39-23h-7.93a58.26,58.26,0,0,0-8.59.54,20.57,20.57,0,0,0-5.78,1.63,8,8,0,0,0-3.26,2.63,6.14,6.14,0,0,0-1,3.52,6,6,0,0,0,2.93,5.31q2.94,1.93,8.13,1.94a19.78,19.78,0,0,0,8.06-1.63,33,33,0,0,0,7.47-4.77Z"/><path class="cls-1" d="M709.58,717.28a14.17,14.17,0,0,1-.45,4.07,4,4,0,0,1-1.2,2,7.23,7.23,0,0,1-2.19,1,26.28,26.28,0,0,1-3.38.78c-1.3.22-2.7.39-4.21.51s-3,.18-4.59.18a44.51,44.51,0,0,1-10.73-1.14,19.48,19.48,0,0,1-7.51-3.53,14,14,0,0,1-4.38-6,23.52,23.52,0,0,1-1.4-8.56V679H660.7a2.61,2.61,0,0,1-2.39-1.42,9.92,9.92,0,0,1-.83-4.73,17.67,17.67,0,0,1,.21-3,5.57,5.57,0,0,1,.62-1.9,2.53,2.53,0,0,1,1-1,3.25,3.25,0,0,1,1.44-.3h8.76v-12a1.55,1.55,0,0,1,.45-1.09,3.69,3.69,0,0,1,1.65-.82,17.46,17.46,0,0,1,3.22-.48c1.35-.1,3-.15,5-.15s3.73.05,5.08.15a16.56,16.56,0,0,1,3.17.48,4.11,4.11,0,0,1,1.66.82,1.47,1.47,0,0,1,.49,1.09v12h16a3.25,3.25,0,0,1,1.44.3,2.55,2.55,0,0,1,1,1,5.79,5.79,0,0,1,.62,1.9,18.93,18.93,0,0,1,.2,3,9.94,9.94,0,0,1-.82,4.73,2.63,2.63,0,0,1-2.4,1.42h-16.1V704.3q0,4.41,1.9,6.61c1.27,1.47,3.52,2.2,6.77,2.2a19,19,0,0,0,3-.21c.88-.14,1.67-.3,2.36-.48l1.73-.48a4.54,4.54,0,0,1,1.28-.21,2.23,2.23,0,0,1,1,.21,1.43,1.43,0,0,1,.7.84,9.8,9.8,0,0,1,.46,1.72A16.2,16.2,0,0,1,709.58,717.28Z"/><path class="cls-1" d="M797.43,695.13A31,31,0,0,1,795,707.68a25.87,25.87,0,0,1-7.52,9.78,35.83,35.83,0,0,1-12.63,6.33A63.11,63.11,0,0,1,757.06,726,64.93,64.93,0,0,1,740,724a33.13,33.13,0,0,1-12.06-5.79,23.1,23.1,0,0,1-7.1-9.35,32.72,32.72,0,0,1-2.31-12.67A30.76,30.76,0,0,1,721,683.64a25.94,25.94,0,0,1,7.55-9.78,36.19,36.19,0,0,1,12.59-6.3,62.81,62.81,0,0,1,17.72-2.23,66.33,66.33,0,0,1,17.17,2,32.31,32.31,0,0,1,12,5.76,23.19,23.19,0,0,1,7.06,9.35A32.92,32.92,0,0,1,797.43,695.13Zm-47-36.44a5.8,5.8,0,0,1-1.19.78,5.69,5.69,0,0,1-1.49.45,15.6,15.6,0,0,1-2.11.22q-1.23.06-3,.06-2.57,0-4.17-.12a8.93,8.93,0,0,1-2.39-.43c-.53-.2-.79-.46-.79-.78a2.18,2.18,0,0,1,.58-1.21L748.39,643a6.35,6.35,0,0,1,1.32-1.15,6.07,6.07,0,0,1,1.9-.75,20.87,20.87,0,0,1,2.85-.42c1.12-.1,2.54-.15,4.25-.15,2.59,0,4.66.08,6.23.24a10.93,10.93,0,0,1,3.35.72c.66.32.91.72.74,1.18a4.78,4.78,0,0,1-1.48,1.72Zm25.6,37a29.2,29.2,0,0,0-.87-7.34,14.69,14.69,0,0,0-2.93-5.82,13.76,13.76,0,0,0-5.49-3.86,23.23,23.23,0,0,0-8.63-1.39,23.92,23.92,0,0,0-8.09,1.24,14.14,14.14,0,0,0-5.7,3.62,15.42,15.42,0,0,0-3.34,5.73,24.21,24.21,0,0,0-1.12,7.63,28.27,28.27,0,0,0,.91,7.34,15.52,15.52,0,0,0,2.93,5.82,13,13,0,0,0,5.49,3.83,23.63,23.63,0,0,0,8.59,1.36,24.27,24.27,0,0,0,8.18-1.24,14.19,14.19,0,0,0,5.69-3.59,14.7,14.7,0,0,0,3.31-5.7A25.16,25.16,0,0,0,776.05,695.74Zm5.12-37.11a5.37,5.37,0,0,1-1.41.84,7.63,7.63,0,0,1-1.73.45,19.65,19.65,0,0,1-2.27.22q-1.28.06-3.18.06a28,28,0,0,1-6.56-.49c-1.13-.32-1.26-.94-.37-1.87l14.86-15.32a4.34,4.34,0,0,1,1.32-1,8.08,8.08,0,0,1,2-.6,23,23,0,0,1,3.18-.33c1.29-.06,3-.09,5.08-.09a35.93,35.93,0,0,1,5.24.3,7.4,7.4,0,0,1,2.72.81c.53.34.71.75.54,1.21a3.51,3.51,0,0,1-1.32,1.48Z"/><path class="cls-1" d="M861.18,673.77a31,31,0,0,1-.17,3.56,8.25,8.25,0,0,1-.49,2.17,2.2,2.2,0,0,1-.87,1.09,2.77,2.77,0,0,1-1.36.3,6.06,6.06,0,0,1-1.49-.21l-1.86-.45c-.69-.16-1.44-.31-2.27-.45a16.25,16.25,0,0,0-2.72-.21,12.25,12.25,0,0,0-3.47.51,15.94,15.94,0,0,0-3.59,1.6,24,24,0,0,0-3.88,2.89,50.82,50.82,0,0,0-4.34,4.47v33.55a1.37,1.37,0,0,1-.49,1,4,4,0,0,1-1.7.76,19.43,19.43,0,0,1-3.18.45c-1.32.1-3,.15-5,.15s-3.72,0-5-.15a19.76,19.76,0,0,1-3.18-.45,4,4,0,0,1-1.69-.76,1.37,1.37,0,0,1-.49-1V668.76a1.48,1.48,0,0,1,.41-1,3.26,3.26,0,0,1,1.48-.76,15.82,15.82,0,0,1,2.77-.45c1.13-.1,2.55-.15,4.25-.15s3.22,0,4.38.15a13.11,13.11,0,0,1,2.68.45,3.18,3.18,0,0,1,1.36.76,1.49,1.49,0,0,1,.42,1v6.7a48.31,48.31,0,0,1,5.45-5,30,30,0,0,1,4.87-3.1,18,18,0,0,1,4.62-1.6,24.14,24.14,0,0,1,4.63-.45q1.06,0,2.31.09c.82.06,1.68.16,2.56.3a22,22,0,0,1,2.31.48,5.19,5.19,0,0,1,1.44.57,1.9,1.9,0,0,1,.66.67,4,4,0,0,1,.38,1,10.64,10.64,0,0,1,.24,1.9C861.15,671.18,861.18,672.32,861.18,673.77Z"/><path class="cls-1" d="M980.65,722.65a1.44,1.44,0,0,1-.45,1.05,3.54,3.54,0,0,1-1.65.73,23.28,23.28,0,0,1-3.27.42c-1.37.1-3.16.15-5.36.15s-4.09,0-5.49-.12a25.93,25.93,0,0,1-3.47-.39,6.17,6.17,0,0,1-2.11-.76,5.23,5.23,0,0,1-1.32-1.26L933,694.11v28.48a1.38,1.38,0,0,1-.5,1,4,4,0,0,1-1.69.76,19.76,19.76,0,0,1-3.18.45c-1.32.1-3,.15-5,.15s-3.72,0-5-.15a19.76,19.76,0,0,1-3.18-.45,4,4,0,0,1-1.69-.76,1.38,1.38,0,0,1-.5-1V643.24a1.52,1.52,0,0,1,.5-1.09,4,4,0,0,1,1.69-.81,18.87,18.87,0,0,1,3.18-.51q2-.18,5-.18c2,0,3.71.06,5,.18a18.87,18.87,0,0,1,3.18.51,4,4,0,0,1,1.69.81,1.52,1.52,0,0,1,.5,1.09v47.25l21.8-21.42a7.48,7.48,0,0,1,1.48-1.27,6.81,6.81,0,0,1,2.19-.85,24.64,24.64,0,0,1,3.39-.45q2-.15,5.16-.15t5.16.15a22.29,22.29,0,0,1,3.38.45,4.22,4.22,0,0,1,1.78.76,1.44,1.44,0,0,1,.49,1.11,3.8,3.8,0,0,1-.61,1.94,11.07,11.07,0,0,1-1.86,2.17l-21.55,17.86L978.75,719a12.71,12.71,0,0,1,1.45,2.08A3.51,3.51,0,0,1,980.65,722.65Z"/><path class="cls-1" d="M1014.18,722.59a1.38,1.38,0,0,1-.5,1,4,4,0,0,1-1.69.76,19.94,19.94,0,0,1-3.18.45c-1.33.1-3,.15-5,.15s-3.71,0-5-.15a19.76,19.76,0,0,1-3.18-.45,4,4,0,0,1-1.69-.76,1.38,1.38,0,0,1-.5-1V643.24a1.52,1.52,0,0,1,.5-1.09,4,4,0,0,1,1.69-.81,18.87,18.87,0,0,1,3.18-.51c1.33-.12,3-.18,5-.18s3.71.06,5,.18a19,19,0,0,1,3.18.51,4,4,0,0,1,1.69.81,1.52,1.52,0,0,1,.5,1.09Z"/><path class="cls-1" d="M1104.75,722.59a1.53,1.53,0,0,1-.41,1,3.19,3.19,0,0,1-1.45.76,14.85,14.85,0,0,1-2.72.45c-1.13.1-2.55.15-4.25.15s-3.29,0-4.42-.15a13.77,13.77,0,0,1-2.68-.45,3.12,3.12,0,0,1-1.41-.76,1.48,1.48,0,0,1-.41-1v-6.22a47.56,47.56,0,0,1-12.43,7.24,36.32,36.32,0,0,1-13.08,2.42,39.06,39.06,0,0,1-12.76-1.81,22.13,22.13,0,0,1-8.34-5,18.05,18.05,0,0,1-4.54-7.27,33.27,33.27,0,0,1-1.36-10.29v-33a1.44,1.44,0,0,1,.45-1,3.73,3.73,0,0,1,1.65-.76,19.85,19.85,0,0,1,3.22-.45c1.35-.1,3-.15,5-.15s3.72,0,5,.15a19.76,19.76,0,0,1,3.18.45,4.11,4.11,0,0,1,1.69.76,1.35,1.35,0,0,1,.5,1v30.42a21.71,21.71,0,0,0,.74,6.45,10,10,0,0,0,2.27,3.83,10.25,10.25,0,0,0,3.89,2.48,15.74,15.74,0,0,0,5.49.87,16.91,16.91,0,0,0,8-2.11,44.52,44.52,0,0,0,8.55-6.15V668.76a1.44,1.44,0,0,1,.45-1,3.84,3.84,0,0,1,1.65-.76,19.76,19.76,0,0,1,3.18-.45q2-.15,5-.15c2,0,3.71,0,5,.15a18.85,18.85,0,0,1,3.14.45,4.11,4.11,0,0,1,1.64.76,1.38,1.38,0,0,1,.5,1Z"/><path class="cls-1" d="M1199.79,695a36.6,36.6,0,0,1-2.15,12.91,26.26,26.26,0,0,1-16.14,16,38.67,38.67,0,0,1-13.42,2.18,44.41,44.41,0,0,1-6.94-.52,29.36,29.36,0,0,1-6.15-1.66,36.68,36.68,0,0,1-5.78-2.89,50.56,50.56,0,0,1-5.82-4.23v5.86a1.51,1.51,0,0,1-.45,1.11,3.55,3.55,0,0,1-1.49.76,13.67,13.67,0,0,1-2.77.42q-1.73.12-4.2.12t-4.26-.12a13.34,13.34,0,0,1-2.72-.42,3.19,3.19,0,0,1-1.45-.76,1.6,1.6,0,0,1-.41-1.11V643.24a1.5,1.5,0,0,1,.49-1.09,4.07,4.07,0,0,1,1.7-.81,18.73,18.73,0,0,1,3.17-.51q2-.18,5-.18t5,.18a18.87,18.87,0,0,1,3.18.51,4,4,0,0,1,1.69.81,1.52,1.52,0,0,1,.5,1.09V673a41.94,41.94,0,0,1,5.61-3.5,38.47,38.47,0,0,1,5.61-2.38,32.39,32.39,0,0,1,5.78-1.36,45,45,0,0,1,6.28-.42,35.92,35.92,0,0,1,13.87,2.38,24.24,24.24,0,0,1,14.53,15.87A38.37,38.37,0,0,1,1199.79,695ZM1178.23,696a30.71,30.71,0,0,0-.7-6.64,15.73,15.73,0,0,0-2.43-5.67,12.73,12.73,0,0,0-4.5-4,14.67,14.67,0,0,0-7-1.48,19.53,19.53,0,0,0-4,.42,17.43,17.43,0,0,0-4.08,1.45,28.77,28.77,0,0,0-4.34,2.65,45.25,45.25,0,0,0-4.7,4v17.86a40.43,40.43,0,0,0,8.38,6.24,17.5,17.5,0,0,0,8.38,2.14,13.75,13.75,0,0,0,11.52-5.43,15.45,15.45,0,0,0,2.68-5.49A23.64,23.64,0,0,0,1178.23,696Z"/><path class="cls-2" d="M300.14,552.84a27.12,27.12,0,1,1,27.11-27.12A27.15,27.15,0,0,1,300.14,552.84Zm0-40.41a13.29,13.29,0,1,0,13.28,13.29A13.3,13.3,0,0,0,300.14,512.43Z"/><path class="cls-2" d="M524.73,290a10.26,10.26,0,0,1-7.34-3.08C458.84,227.35,382,194.57,300.92,194.57S143,227.35,84.45,286.88a10.3,10.3,0,1,1-14.68-14.44C132.22,208.94,214.31,174,300.92,174s168.7,35,231.15,98.47A10.3,10.3,0,0,1,524.73,290Z"/><path class="cls-2" d="M485,328.49a10.27,10.27,0,0,1-7.25-3c-48.15-47.74-110.94-74-176.8-74s-128.65,26.29-176.8,74a10.3,10.3,0,0,1-14.5-14.63c52-51.59,120-80,191.3-80s139.27,28.41,191.3,80A10.3,10.3,0,0,1,485,328.49Z"/><path class="cls-2" d="M485,328.49a10.27,10.27,0,0,1-7.25-3c-48.15-47.74-110.94-74-176.8-74s-128.65,26.29-176.8,74a10.3,10.3,0,0,1-14.5-14.63c52-51.59,120-80,191.3-80s139.27,28.41,191.3,80A10.3,10.3,0,0,1,485,328.49Z"/><path class="cls-2" d="M445.82,366.44a10.31,10.31,0,0,1-7.12-2.85c-37.86-36.18-86.79-56.1-137.78-56.1S201,327.41,163.14,363.59a10.3,10.3,0,1,1-14.23-14.89c41.71-39.86,95.69-61.81,152-61.81s110.3,21.95,152,61.81a10.3,10.3,0,0,1-7.11,17.74Z"/></svg>