<?xml version="1.0" encoding="utf-8"?>
<!-- Generator: Adobe Illustrator 23.0.3, SVG Export Plug-In . SVG Version: 6.00 Build 0)  -->
<svg version="1.1" id="Layer_1_xA0_Image_1_" xmlns="http://www.w3.org/2000/svg" xmlns:xlink="http://www.w3.org/1999/xlink"
	 x="0px" y="0px" viewBox="0 0 2834.65 2834.65" style="enable-background:new 0 0 2834.65 2834.65;" xml:space="preserve">
<style type="text/css">
	.st0{fill:#FF0000;}
</style>
<g>
	<path d="M2610.65,2142.43c0.16-36.39,38.07-72.89,60.31-108.84c30.17-48.75,61.13-97.02,96.35-152.8h-190.43
		c6.02-19.05,10.71-33.37,15.09-47.79c129.85-427.4,79.9-831.26-188.73-1190.46C2099.1,235.85,1684.7,66.55,1182.99,158.81
		C547.84,275.61,87.44,902.32,189.9,1609.32c13.11,90.47,39.33,179.05,60.51,273.09H67.34c50.02,79.4,94.82,152.9,142.34,224.61
		c15.68,23.66,17.88,40.39,0.84,64.99c-43.66,63.05-83.86,128.5-125.28,193.11c-5.35,8.36-9.68,17.38-17.55,31.65h418.84v139.54
		c95.33,0,187.3-1.26,279.19,0.84c24.64,0.56,49.94,9.02,73.41,17.87c94.7,35.73,187.37,77.49,283.61,108.17
		c63.4,20.22,131.62,25.32,197.67,37.19h198.52c10.2-2.2,20.3-5.32,30.63-6.48c136.11-15.27,268.15-47.99,388.79-112.75
		c66.38-35.63,132.24-49.43,205.84-45.58c66.8,3.49,133.93,0.74,205.38,0.74v-142.49h416.95c-33.56-52.28-63.97-99.52-94.24-146.85
		C2650.03,2212.18,2610.5,2177.19,2610.65,2142.43z M1175.97,194.86c505.8-101.92,920.34,75.74,1218.73,492.59
		c253.53,354.18,293.26,748.32,157.95,1160.98c-7.87,24.02-17.35,42.17-43.58,29.78c21.22-86.83,47.86-171.52,62.19-258.24
		c109.06-660.42-316.45-1265.82-929.2-1391.87c-473.84-97.47-971.05,124.68-1222.27,553.86
		c-197.97,338.2-225.97,694.41-99.61,1064.04c3.37,9.83,6.38,19.79,9.74,30.24c-24.54,9.93-37.47,4.25-46.44-20.66
		C24.48,1135.94,442.34,342.68,1175.97,194.86z M1956.91,1908.96c31.94-13.57,60.36-26.41,89.35-37.8
		c74.2-29.17,88.79-95.12,33.87-153.81c-23.36-24.97-46.38-50.28-68.79-76.1c-4.98-5.74-6.74-14.28-12.38-26.91
		c29.62-7.66,56.39-14.97,83.34-21.48c31.93-7.71,43.42-22.76,35.96-58.73c-4.75-22.91,8.4-49.53,14.16-77.61
		c-3.48-0.57-14.84-2.07-26.04-4.38c-31.33-6.48-62.05-7.4-89.46-33.53c-17.47-16.65-52.89-14.31-80.18-20.87
		c-17.69-4.26-35.2-9.23-54.25-14.27c3.85-6.32,4.67-9.27,5.9-9.45c15.41-2.3,30.89-4.2,46.35-6.2
		c-5.68-15.86-7.56-34.88-17.67-47.08c-58.47-70.55-62.44-161.46-94.52-241.6c-36.81-91.93-18.63-189.43-39.93-282.34
		c-2.28-9.96,7.64-28.51,17.05-33.66c8.49-4.64,27.99-0.47,35.74,6.99c23.37,22.5,48.67,28.26,77.92,17.58
		c53.26-19.44,108.74-36.96,118.63-109.11c31.43,31.62,64.22,59.08,90.4,91.83c264.47,330.81,309.32,690.89,141.72,1078.93
		c-10.51,24.33-24.33,33.64-50.74,32c-36.18-2.24-72.6-0.56-112.11-0.56v144.8C2029.57,2012.16,1999.15,1957.56,1956.91,1908.96z
		 M2034.84,2015.19c-44.04,13.54-48.88,10.8-62.39-37.86C1995.89,1991.55,2014.55,2002.87,2034.84,2015.19z M610.46,1879.82
		c-12.22-0.81-29.53-10.27-34.65-20.63c-269.2-545.48,7.81-1209.31,584.93-1380.99c7.61-2.26,15.62-3.17,15.68-3.17
		c26.18,38.55,48.23,73.87,73.33,106.88c14.82,19.49,12.98,35.4,7.1,58.23c-18.95,73.52-77.62,100.4-138.71,122.4
		c-22.71,8.18-50.83,1.32-76.08,1.32c-20.99,76.77,42.31,169.7,119.48,164.22c59.93-4.26,91.04,10.13,109.69,68.76
		c13.67,42.99,33.07,46.78,78.21,37.84c9.01-1.78,18.1-3.11,33.33-5.69c-26.1,84.36-37.52,169.08-83.87,241.9
		c-28.86,45.33-74.76,63.1-125.96,69.32c-38.65,4.7-77.4,8.49-115.99,13.59c-5.25,0.7-9.85,6.39-14.74,9.9
		c33.47-3.23,66.9-8.18,100.45-9.18c44.66-1.34,57.26,13.63,55.39,59.63c10.07-11,20.14-22,29.92-32.69
		c24.72,10.57,33.94,25.84,23.68,48.7c-13.44,29.96-38.06,34.5-68.12,28.88c3.84-13.94,7.22-26.15,10.59-38.36
		c-19.31,15.39-38.61,30.77-61.3,48.85c6.78,2.79,14.81,5.54,14.66,6.11c-8.8,32.96-9.63,72.66-29.31,97.22
		c-58.49,73.02-115.25,146.13-156.96,230.56c-18.92,38.29-76.71,40.94-109.69,7.77c-11.13-11.2-19.84-24.81-31.29-39.4
		c-3.61,47.84,14.63,64.88,93.92,89.08c-28.01,50.99-55,101.62-84.01,151.06c-3.84,6.55-17.89,9.25-27.46,9.86
		c-22.16,1.42-44.46,0.45-69.84,0.45v-141.45C689.97,1880.79,650.07,1882.42,610.46,1879.82z M1538.13,563.26
		c-8.21,23.87-15.54,45.2-24.01,69.83c23.25,14.01,49.14,29.62,75.04,45.23c2.77-2.56,5.54-5.12,8.32-7.69
		c-9.6-9.93-17.7-22.3-29.1-29.3c-22.52-13.83-26.38-25.86-7.25-46.97c10.42-11.51,13.56-29.62,21.93-49.32
		c51.98-11.96,105.47-4.4,155.84,31.96c-52.87,13.66-103.4,26.71-163.47,42.23c30.88,15.73,54.53,27.78,88.7,45.19
		c-7.16-22.03-11-33.83-16.44-50.57c38.59,4.12,76.33,4.41,111.72,13.69c15.13,3.96,36.11,27.13,35.51,40.75
		c-1.18,27.18-15.02,53.94-24.46,80.58c-4.58,12.93-15.83,25.22-15.81,37.78c0.11,74.04,2.47,148.07,4.58,222.09
		c0.26,9.14,2.59,18.52,5.57,27.24c29.95,87.62,61.29,174.79,88.8,263.16c2.69,8.63-15.68,26.75-27.65,36.15
		c-10.77,8.46-26.24,10.84-39.51,16.22c-4.31,1.74-10.14,7.55-12,6.36c-43.17-27.56-64.97,18.06-97.29,27.45
		c-19.38-31.57-69.42-44.41-125.06-26.8c-30.95,9.79-59.59,26.91-93.95,42.91c-2.52-45.54-28.57-63.02-72.04-67.14
		c-17.88-1.7-33.71-22.75-50.98-34.24c-6.14-4.08-13.76-5.92-21.29-9.03c21.11-38.37,46.41-77.02,64.1-118.88
		c13.59-32.13,17.68-68.29,25.81-102.7c6.68-28.33,23.71-43.25,52.88-49.53c39.28-8.45,57.52-43.89,42.87-81.6
		c-8.46-21.76-21.85-41.63-33.37-62.17c-4.03-7.18-12.38-13.47-13.07-20.71c-2.35-24.71-7.68-51.45-0.48-73.73
		c3.24-10.03,33.43-11.34,58.39-18.67c0.18-1.1,3.56-10.96,3.04-20.62c-2.76-50.98-79.21-117.51-130.28-114.53
		c-34.57,2.02-68.93,3.39-88.48,39.56c-7.78,14.39-17.57,27.69-26.44,41.49c-4.05-2.53-8.09-5.05-12.13-7.58
		c4.08-6.82,7.59-14.08,12.33-20.41c29.62-39.59,29.46-66.03-1-105.29c-13.75-17.72-27.42-35.49-41.08-53.27
		c-2.87-3.74-7.15-7.27-8.09-11.5c-11.39-51.22-33.6-92.13-97.24-96.22c73.63-58.9,151.35-80.08,238.2-64.71
		c23.13,4.09,45.85,11.04,68.38,17.94c52.28,16,63.36,28.38,60.53,83.77c-1.7,33.36-12.39,66.25-19.79,103.09
		C1486.94,556.97,1509.6,559.75,1538.13,563.26z M1971.89,506.73c13.87-16.36,29.56-33.74,48.24-42.78
		c20.23-9.79,34.47-0.46,28.14,26.29c-2.58,10.91-4.9,23.77-1.59,33.85c13.31,40.55,6.11,59.35-34.61,75.43
		c-38.35,15.13-77.35,28.61-115.98,43.03c-5.25,1.96-10.02,5.19-15.6,8.14c13.21,63.44,68.69,39.73,105.75,51.82
		c-17.43,41.67-60.73,70.31-99.79,67.55c-22.45-1.58-57.49-48.67-56.02-77.26c2.57-49.8-26.06-87.95-53.77-122.06
		c-18.54-22.81-25.48-39.82-15.89-65.38c6.59-17.55,13.34-35.04,22.29-58.54c-12.2,5.01-19.66,8.06-30.19,12.38
		c-16.73-22.61-34.8-45.7-51.33-69.84c-11.89-17.35-4.21-30.8,14.43-34.11c49.59-8.79,99.72-22.3,141.82,23.27
		c39.1,42.33,44.27,88.9,26.63,141.05c-5.17,15.27-8.73,31.08-14.01,50.2C1924.24,574.44,1945.7,537.64,1971.89,506.73z
		 M1719.55,489.59c1.14,4.65,2.28,9.3,3.42,13.95c-11.42,8.63-22.54,24.23-34.31,24.73c-59.91,2.54-120,1.17-184.39,1.17
		c5.57-29.57,10.1-53.58,16.09-85.38C1586.77,459.24,1653.16,474.41,1719.55,489.59z M1343.17,1013.54
		c-33.36-8.62-68.73-74.32-58.52-101.39c1.2-3.2,2.68-6.89,5.2-8.88c12.71-10.01,26.83-18.46,38.47-29.55
		c10.59-10.08,18.63-22.83,32.13-39.87c20.02,32.89,36.82,60.5,57.04,93.73c2.9-15.88,4.54-24.85,7.16-39.2
		c13.81,10.55,24.95,18.36,35.32,27.09c38.37,32.3,37.76,47.07-2.57,75.68c-32.58,23.11-44.92,19.49-61.38-16.77
		c-4.78-10.54-9.93-22.37-18.42-29.32c-7.1-5.8-19.32-5.33-29.27-7.63c-1.72,9.41-4.43,18.76-4.93,28.23
		C1342.57,981.18,1343.17,996.77,1343.17,1013.54z M1317.34,845.05c1.24,4.66-5.35,12.94-10.26,17.47
		c-37.24,34.4-82.71,51.98-132.17,49.74c-58.13-2.63-114.59-71.43-114.35-137.1c13.7,8.22,28.28,12.62,36.07,22.42
		c25.96,32.68,60.53,37.47,95.77,27.67c49.57-13.78,97.82-32.59,146.18-50.47c44.35-16.39,87.23-38.76,147.44-27.66
		c-54.18,24.95-99.55,45.93-145.01,66.73C1327.51,820.02,1311.47,823.08,1317.34,845.05z M1304.66,1423.75
		c-2.95,58.88-74.16,101.5-155.62,89.28c20.4-14.6,33.34-30.34,48.96-33.72c33.37-7.24,63.32-16.71,84.65-45.46
		C1286.27,1428.96,1295.09,1427.93,1304.66,1423.75z M951.03,1849.82c2.92-4.59,7.4-8.19,15.44-16.87
		c-3.01,22.24-5.18,38.2-7.34,54.16c3.47,1.31,6.94,2.62,10.41,3.93c11.25-30.31,22.71-60.55,33.64-90.97
		c4.58-12.75,5.4-27.59,12.45-38.59c40.12-62.59,78.79-126.49,124.01-185.27c18.48-24.02,51.42-37.65,79.15-53.63
		c28.11-16.2,61.6-24.94,86.16-45c43.68-35.68,39.2-53.07-17.52-78.59c13.99-19.84,26.3-37.31,40.81-57.89
		c8.38,11.17,14.3,16.03,16.21,22.14c7.78,24.82,21.15,32.99,44.55,17.8c18.73-12.15,31.67-6.69,44.27,11.25
		c24.56,35.02,50.59,40.65,83.77,15.98c46.97-34.93,91.42-44.47,138.84-0.94c6.01,5.52,22.09,1.86,33.04-0.13
		c28.27-5.14,56.4-11.23,84.35-17.9c19.23-4.59,38.07-10.79,64.85-9.84c-8.27,9.52-15.23,20.78-25.09,28.18
		c-15.94,11.96-38.31,17.95-49.59,32.81c-12.01,15.83-23.71,41.99-18.59,58.32c7.35,23.45,2.28,35.85-11.78,51.77
		c-26.56,30.07-53.25,60.3-76.78,92.72c-50.48,69.57-36.47,154.22,32.08,206.81c55.68,42.72,121.34,56.55,188.8,62.6
		c28.95,2.6,44.11,12.26,50.01,42.28c4.34,22.11,17.53,42.49,27.45,65.16H842.84C880.56,1960.65,915.68,1905.16,951.03,1849.82z
		 M1704.13,1847.37c-59.66-45.72-72.54-139.92-26.81-199.58c17.22-22.46,35.11-44.45,53.58-65.89
		c22.73-26.39,40.5-52.23,36.27-91.48c-1.82-16.87,12.98-45.84,27.69-52.29c48.88-21.41,100.67-44.62,155.72-22.36
		c22.99,9.29,42.79,26.44,65.71,41.08c-9.08,10.69-13.67,16.09-21.59,25.41c32.4-2.74,59.15-5,89.86-7.6
		c5.14,25.12,13.09,49.91,13.87,74.92c0.3,9.67-14.19,26.22-24.47,28.58c-29.44,6.76-60.11,9.18-90.43,10.79
		c-31.17,1.67-62.5,0.37-97.22,4.45c38.22,1.05,45.46,24.99,49.29,53.89c1,7.59,12.66,13.37,18.3,20.84
		c16.47,21.83,32.37,44.09,47.76,65.19c17.09-19.1,15.27-39.76-16.11-59.96c-26.82-17.26-45.62-36.87-38.96-77.27
		c9.84,5.73,20.34,8.45,25.2,15.21c34.95,48.63,69.06,97.87,102.81,147.35c21.17,31.03,15.35,65.87-15.07,86.57
		c-6.74,4.58-17.87,2.35-26.79,4.15c-8.03,1.63-17.01,2.7-23.51,7.07C1920.67,1915.88,1788.72,1912.2,1704.13,1847.37z
		 M482.91,2130.7c8.95,72.1,1.56,146.23,1.27,219.46c-0.01,2.17-1.29,4.34-2.79,9.05H127.26c43.24-67.28,83.18-131.08,125.07-193.57
		c12.39-18.49,12.57-31.66,0.31-50.35c-42.44-64.69-82.9-130.68-126.63-200.17h556.38c0.99,1.78,1.98,3.56,2.97,5.34
		c-35.49,18.72-69.35,42.08-106.81,55.18C502.58,2002.21,472.64,2047.93,482.91,2130.7z M893.64,2546.4
		c0.37-4.63,0.73-9.26,1.1-13.89c33.3,5.24,68.72,4.89,99.57,16.59c277.95,105.43,555.39,106.78,834.33,4.03
		c35.16-12.95,74.19-15.39,111.43-22.71c0.57,5.07,1.15,10.14,1.72,15.21C1592.28,2709.43,1242.9,2709.81,893.64,2546.4z
		 M2313.84,2501.02H519.47v-443.37h1794.38V2501.02z M2348.53,2359.29v-141.06c0-54.34-1.63-108.74,0.72-162.97
		c1.11-25.57-8.86-37.58-30.3-47.99c-57.09-27.72-113.2-57.47-169.7-86.4c0.56-1.87,1.11-3.73,1.67-5.59h556.47
		c-41.38,65.74-78.44,128.34-119.49,188.19c-18.94,27.61-18.21,47.36,0.69,74.39c40.32,57.67,76.9,117.95,117.76,181.43H2348.53z"/>
	<path class="st0" d="M2034.84,2015.19c-44.04,13.54-48.88,10.8-62.39-37.86C1995.89,1991.55,2014.55,2002.87,2034.84,2015.19z"/>
	<path class="st0" d="M1941.79,2545.63c-349.51,163.8-698.89,164.18-1048.15,0.77c0.37-4.63,0.73-9.26,1.1-13.89
		c33.3,5.24,68.72,4.89,99.57,16.59c277.95,105.43,555.39,106.78,834.33,4.03c35.16-12.95,74.19-15.39,111.43-22.71
		C1940.64,2535.49,1941.22,2540.56,1941.79,2545.63z"/>
	<path class="st0" d="M1983.53,1588.95c-31.17,1.67-62.5,0.37-97.22,4.45c38.22,1.05,45.46,24.99,49.29,53.89
		c1,7.59,12.66,13.37,18.3,20.84c16.47,21.83,32.37,44.09,47.76,65.19c17.09-19.1,15.27-39.76-16.11-59.96
		c-26.82-17.26-45.62-36.87-38.96-77.27c9.84,5.73,20.34,8.45,25.2,15.21c34.95,48.63,69.06,97.87,102.81,147.35
		c21.17,31.03,15.35,65.87-15.07,86.57c-6.74,4.58-17.87,2.35-26.79,4.15c-8.03,1.63-17.01,2.7-23.51,7.07
		c-88.56,59.44-220.51,55.76-305.1-9.07c-59.66-45.72-72.54-139.92-26.81-199.58c17.22-22.46,35.11-44.45,53.58-65.89
		c22.73-26.39,40.5-52.23,36.27-91.48c-1.82-16.87,12.98-45.84,27.69-52.29c48.88-21.41,100.67-44.62,155.72-22.36
		c22.99,9.29,42.79,26.44,65.71,41.08c-9.08,10.69-13.67,16.09-21.59,25.41c32.4-2.74,59.15-5,89.86-7.6
		c5.14,25.12,13.09,49.91,13.87,74.92c0.3,9.67-14.19,26.22-24.47,28.58C2044.52,1584.92,2013.84,1587.34,1983.53,1588.95z"/>
	<path class="st0" d="M1304.66,1423.75c-2.95,58.88-74.16,101.5-155.62,89.28c20.4-14.6,33.34-30.34,48.96-33.72
		c33.37-7.24,63.32-16.71,84.65-45.46C1286.27,1428.96,1295.09,1427.93,1304.66,1423.75z"/>
	<path class="st0" d="M1927.18,1954.95c-5.9-30.02-21.06-39.68-50.01-42.28c-67.46-6.05-133.12-19.88-188.8-62.6
		c-68.55-52.59-82.56-137.24-32.08-206.81c23.53-32.42,50.22-62.65,76.78-92.72c14.06-15.92,19.13-28.32,11.78-51.77
		c-5.12-16.33,6.58-42.49,18.59-58.32c11.28-14.86,33.65-20.85,49.59-32.81c9.86-7.4,16.82-18.66,25.09-28.18
		c-26.78-0.95-45.62,5.25-64.85,9.84c-27.95,6.67-56.08,12.76-84.35,17.9c-10.95,1.99-27.03,5.65-33.04,0.13
		c-47.42-43.53-91.87-33.99-138.84,0.94c-33.18,24.67-59.21,19.04-83.77-15.98c-12.6-17.94-25.54-23.4-44.27-11.25
		c-23.4,15.19-36.77,7.02-44.55-17.8c-1.91-6.11-7.83-10.97-16.21-22.14c-14.51,20.58-26.82,38.05-40.81,57.89
		c56.72,25.52,61.2,42.91,17.52,78.59c-24.56,20.06-58.05,28.8-86.16,45c-27.73,15.98-60.67,29.61-79.15,53.63
		c-45.22,58.78-83.89,122.68-124.01,185.27c-7.05,11-7.87,25.84-12.45,38.59c-10.93,30.42-22.39,60.66-33.64,90.97
		c-3.47-1.31-6.94-2.62-10.41-3.93c2.16-15.96,4.33-31.92,7.34-54.16c-8.04,8.68-12.52,12.28-15.44,16.87
		c-35.35,55.34-70.47,110.83-108.19,170.29h1111.79C1944.71,1997.44,1931.52,1977.06,1927.18,1954.95z M1337.44,1735.72
		c-3.09-1.23-6.17-2.46-9.25-3.69c-0.23-47.77,31.86-83.06,48.34-124.37c5.02,1.89,10.05,3.78,15.07,5.67
		C1373.55,1654.12,1355.48,1694.92,1337.44,1735.72z"/>
	<path class="st0" d="M2012.07,599.52c-38.35,15.13-77.35,28.61-115.98,43.03c-5.25,1.96-10.02,5.19-15.6,8.14
		c13.21,63.44,68.69,39.73,105.75,51.82c-17.43,41.67-60.73,70.31-99.79,67.55c-22.45-1.58-57.49-48.67-56.02-77.26
		c2.57-49.8-26.06-87.95-53.77-122.06c-18.54-22.81-25.48-39.82-15.89-65.38c6.59-17.55,13.34-35.04,22.29-58.54
		c-12.2,5.01-19.66,8.06-30.19,12.38c-16.73-22.61-34.8-45.7-51.33-69.84c-11.89-17.35-4.21-30.8,14.43-34.11
		c49.59-8.79,99.72-22.3,141.82,23.27c39.1,42.33,44.27,88.9,26.63,141.05c-5.17,15.27-8.73,31.08-14.01,50.2
		c53.84,4.67,75.29-32.13,101.48-63.04c13.87-16.36,29.56-33.74,48.24-42.78c20.23-9.79,34.47-0.46,28.14,26.29
		c-2.58,10.91-4.9,23.77-1.59,33.85C2059.99,564.64,2052.78,583.44,2012.07,599.52z"/>
	<path class="st0" d="M1722.97,503.54c-11.42,8.63-22.54,24.23-34.31,24.73c-59.91,2.54-120,1.17-184.39,1.17
		c5.57-29.57,10.1-53.58,16.09-85.38c66.41,15.18,132.8,30.35,199.19,45.53C1720.69,494.24,1721.83,498.89,1722.97,503.54z"/>
	<path class="st0" d="M1486.02,747.12c-54.18,24.95-99.55,45.93-145.01,66.73c-13.5,6.17-29.54,9.23-23.67,31.2
		c1.24,4.66-5.35,12.94-10.26,17.47c-37.24,34.4-82.71,51.98-132.17,49.74c-58.13-2.63-114.59-71.43-114.35-137.1
		c13.7,8.22,28.28,12.62,36.07,22.42c25.96,32.68,60.53,37.47,95.77,27.67c49.57-13.78,97.82-32.59,146.18-50.47
		C1382.93,758.39,1425.81,736.02,1486.02,747.12z"/>
	<path class="st0" d="M1457.4,991.15c-32.58,23.11-44.92,19.49-61.38-16.77c-4.78-10.54-9.93-22.37-18.42-29.32
		c-7.1-5.8-19.32-5.33-29.27-7.63c-1.72,9.41-4.43,18.76-4.93,28.23c-0.83,15.52-0.23,31.11-0.23,47.88
		c-33.36-8.62-68.73-74.32-58.52-101.39c1.2-3.2,2.68-6.89,5.2-8.88c12.71-10.01,26.83-18.46,38.47-29.55
		c10.59-10.08,18.63-22.83,32.13-39.87c20.02,32.89,36.82,60.5,57.04,93.73c2.9-15.88,4.54-24.85,7.16-39.2
		c13.81,10.55,24.95,18.36,35.32,27.09C1498.34,947.77,1497.72,962.54,1457.4,991.15z"/>
	<path class="st0" d="M1853.59,1299.14c-27.51-88.37-58.85-175.54-88.8-263.16c-2.98-8.72-5.31-18.1-5.57-27.24
		c-2.11-74.02-4.47-148.05-4.58-222.09c-0.02-12.56,11.23-24.85,15.81-37.78c9.44-26.64,23.28-53.4,24.46-80.58
		c0.6-13.62-20.38-36.79-35.51-40.75c-35.39-9.28-73.13-9.57-111.72-13.69c5.44,16.74,9.28,28.54,16.44,50.57
		c-34.17-17.41-57.82-29.46-88.7-45.19c60.07-15.52,110.6-28.57,163.47-42.23c-50.37-36.36-103.86-43.92-155.84-31.96
		c-8.37,19.7-11.51,37.81-21.93,49.32c-19.13,21.11-15.27,33.14,7.25,46.97c11.4,7,19.5,19.37,29.1,29.3
		c-2.78,2.57-5.55,5.13-8.32,7.69c-25.9-15.61-51.79-31.22-75.04-45.23c8.47-24.63,15.8-45.96,24.01-69.83
		c-28.52-3.51-51.19-6.29-69.22-8.51c7.4-36.84,18.09-69.73,19.79-103.09c2.83-55.39-8.25-67.77-60.53-83.77
		c-22.53-6.9-45.25-13.85-68.38-17.94c-86.85-15.37-164.57,5.81-238.2,64.71c63.64,4.09,85.85,45,97.24,96.22
		c0.94,4.23,5.22,7.76,8.09,11.5c13.66,17.78,27.33,35.55,41.08,53.27c30.46,39.26,30.62,65.7,1,105.29
		c-4.74,6.33-8.25,13.59-12.33,20.41c4.04,2.53,8.08,5.05,12.13,7.58c8.87-13.8,18.66-27.1,26.44-41.49
		c19.55-36.17,53.91-37.54,88.48-39.56c51.07-2.98,127.52,63.55,130.28,114.53c0.52,9.66-2.86,19.52-3.04,20.62
		c-24.96,7.33-55.15,8.64-58.39,18.67c-7.2,22.28-1.87,49.02,0.48,73.73c0.69,7.24,9.04,13.53,13.07,20.71
		c11.52,20.54,24.91,40.41,33.37,62.17c14.65,37.71-3.59,73.15-42.87,81.6c-29.17,6.28-46.2,21.2-52.88,49.53
		c-8.13,34.41-12.22,70.57-25.81,102.7c-17.69,41.86-42.99,80.51-64.1,118.88c7.53,3.11,15.15,4.95,21.29,9.03
		c17.27,11.49,33.1,32.54,50.98,34.24c43.47,4.12,69.52,21.6,72.04,67.14c34.36-16,63-33.12,93.95-42.91
		c55.64-17.61,105.68-4.77,125.06,26.8c32.32-9.39,54.12-55.01,97.29-27.45c1.86,1.19,7.69-4.62,12-6.36
		c13.27-5.38,28.74-7.76,39.51-16.22C1837.92,1325.89,1856.29,1307.77,1853.59,1299.14z M1486.08,875.71
		c-4.01-24.25-7.19-43.43-10.68-64.49C1509.1,826.06,1513.22,845.46,1486.08,875.71z"/>
	<path class="st0" d="M1349.44,1034.68c-45.14,8.94-64.54,5.15-78.21-37.84c-18.65-58.63-49.76-73.02-109.69-68.76
		c-77.17,5.48-140.47-87.45-119.48-164.22c25.25,0,53.37,6.86,76.08-1.32c61.09-22,119.76-48.88,138.71-122.4
		c5.88-22.83,7.72-38.74-7.1-58.23c-25.1-33.01-47.15-68.33-73.33-106.88c-0.06,0-8.07,0.91-15.68,3.17
		c-577.12,171.68-854.13,835.51-584.93,1380.99c5.12,10.36,22.43,19.82,34.65,20.63c39.61,2.6,79.51,0.97,122.38,0.97v141.45
		c25.38,0,47.68,0.97,69.84-0.45c9.57-0.61,23.62-3.31,27.46-9.86c29.01-49.44,56-100.07,84.01-151.06
		c-79.29-24.2-97.53-41.24-93.92-89.08c11.45,14.59,20.16,28.2,31.29,39.4c32.98,33.17,90.77,30.52,109.69-7.77
		c41.71-84.43,98.47-157.54,156.96-230.56c19.68-24.56,20.51-64.26,29.31-97.22c0.15-0.57-7.88-3.32-14.66-6.11
		c22.69-18.08,41.99-33.46,61.3-48.85c-3.37,12.21-6.75,24.42-10.59,38.36c30.06,5.62,54.68,1.08,68.12-28.88
		c10.26-22.86,1.04-38.13-23.68-48.7c-9.78,10.69-19.85,21.69-29.92,32.69c1.87-46-10.73-60.97-55.39-59.63
		c-33.55,1-66.98,5.95-100.45,9.18c4.89-3.51,9.49-9.2,14.74-9.9c38.59-5.1,77.34-8.89,115.99-13.59
		c51.2-6.22,97.1-23.99,125.96-69.32c46.35-72.82,57.77-157.54,83.87-241.9C1367.54,1031.57,1358.45,1032.9,1349.44,1034.68z
		 M1041.35,1363.79c-61.88,8.9-80.4,36.27-66.16,97.73c17.68,76.33,17.9,76.92-55.27,103.47c-49.8,18.07-101.04,32.32-150.28,51.74
		c-50.27,19.82-71.42,62.03-58.52,114.05c3.16,12.76,18.11,33.13,26.13,32.44c47.76-4.13,53.11,38.77,74.81,63.66
		c-46.9-15.48-89.92-39.97-118.57-79.57c-26.01-35.97-9.69-99.98,31.87-120.58c63.86-31.66,130.88-57.62,198.15-81.52
		c41.25-14.65,45.31-15.25,37.84-59.2c-2.17-12.77-3.55-25.68-5.09-38.55C948.41,1382.1,974.75,1356.14,1041.35,1363.79
		c0.03,0,0.05-0.01,0.08-0.01c0,0,0.04,0.01,0.1,0.03C1041.47,1363.8,1041.42,1363.8,1041.35,1363.79z M1041.66,1363.83
		c0.04,0,0.08,0.01,0.12,0.01c0.01,0,0.01,0.01,0.02,0.02C1041.78,1363.86,1041.72,1363.85,1041.66,1363.83z"/>
	<path class="st0" d="M2264.07,1849.36c-10.51,24.33-24.33,33.64-50.74,32c-36.18-2.24-72.6-0.56-112.11-0.56v144.8
		c-71.66-13.44-102.08-68.04-144.32-116.64c31.94-13.57,60.36-26.41,89.35-37.8c74.2-29.17,88.79-95.12,33.87-153.81
		c-23.36-24.97-46.38-50.28-68.79-76.1c-4.98-5.74-6.74-14.28-12.38-26.91c29.62-7.66,56.39-14.97,83.34-21.48
		c31.93-7.71,43.42-22.76,35.96-58.73c-4.75-22.91,8.4-49.53,14.16-77.61c-3.48-0.57-14.84-2.07-26.04-4.38
		c-31.33-6.48-62.05-7.4-89.46-33.53c-17.47-16.65-52.89-14.31-80.18-20.87c-17.69-4.26-35.2-9.23-54.25-14.27
		c3.85-6.32,4.67-9.27,5.9-9.45c15.41-2.3,30.89-4.2,46.35-6.2c-5.68-15.86-7.56-34.88-17.67-47.08
		c-58.47-70.55-62.44-161.46-94.52-241.6c-36.81-91.93-18.63-189.43-39.93-282.34c-2.28-9.96,7.64-28.51,17.05-33.66
		c8.49-4.64,27.99-0.47,35.74,6.99c23.37,22.5,48.67,28.26,77.92,17.58c53.26-19.44,108.74-36.96,118.63-109.11
		c31.43,31.62,64.22,59.08,90.4,91.83C2386.82,1101.24,2431.68,1461.32,2264.07,1849.36z"/>
	<path class="st0" d="M2552.65,1848.43c-7.87,24.02-17.35,42.17-43.58,29.78c21.22-86.83,47.86-171.52,62.19-258.24
		c109.06-660.42-316.45-1265.82-929.2-1391.87c-473.84-97.47-971.05,124.68-1222.27,553.86
		c-197.97,338.2-225.97,694.41-99.61,1064.04c3.37,9.83,6.38,19.79,9.74,30.24c-24.54,9.93-37.47,4.25-46.44-20.66
		c-259-719.64,158.86-1512.9,892.49-1660.72c505.8-101.92,920.34,75.74,1218.73,492.59
		C2648.23,1041.63,2687.96,1435.77,2552.65,1848.43z"/>
	<path class="st0" d="M2588.59,2177.86c40.32,57.67,76.9,117.95,117.76,181.43h-357.82v-141.06c0-54.34-1.63-108.74,0.72-162.97
		c1.11-25.57-8.86-37.58-30.3-47.99c-57.09-27.72-113.2-57.47-169.7-86.4c0.56-1.87,1.11-3.73,1.67-5.59h556.47
		c-41.38,65.74-78.44,128.34-119.49,188.19C2568.97,2131.08,2569.7,2150.83,2588.59,2177.86z"/>
	<rect x="519.47" y="2057.65" class="st0" width="1794.38" height="443.37"/>
	<path class="st0" d="M685.36,1920.46c-35.49,18.72-69.35,42.08-106.81,55.18c-75.97,26.57-105.91,72.29-95.64,155.06
		c8.95,72.1,1.56,146.23,1.27,219.46c-0.01,2.17-1.29,4.34-2.79,9.05H127.26c43.24-67.28,83.18-131.08,125.07-193.57
		c12.39-18.49,12.57-31.66,0.31-50.35c-42.44-64.69-82.9-130.68-126.63-200.17h556.38C683.38,1916.9,684.37,1918.68,685.36,1920.46z
		"/>
	<path d="M975.2,1461.52c17.68,76.33,17.9,76.92-55.27,103.47c-49.8,18.07-101.04,32.32-150.28,51.74
		c-50.27,19.82-71.42,62.03-58.52,114.05c3.16,12.76,18.11,33.13,26.13,32.44c47.76-4.13,53.11,38.77,74.81,63.66
		c-46.9-15.48-89.92-39.97-118.57-79.57c-26.01-35.97-9.69-99.98,31.87-120.58c63.86-31.66,130.88-57.62,198.15-81.52
		c41.25-14.65,45.31-15.25,37.84-59.2c-2.17-12.77-3.55-25.68-5.09-38.55c-7.86-65.36,18.48-91.32,85.09-83.67
		C979.48,1372.69,960.96,1400.06,975.2,1461.52z"/>
	<path d="M1041.54,1363.81c-0.06-0.01-0.12-0.01-0.18-0.02c0.03,0,0.05-0.01,0.08-0.01
		C1041.44,1363.78,1041.47,1363.79,1041.54,1363.81z"/>
	<path d="M1041.8,1363.86c-0.02,0-0.08-0.01-0.14-0.03c0.04,0,0.08,0.01,0.12,0.01C1041.79,1363.84,1041.79,1363.85,1041.8,1363.86z
		"/>
	<path d="M1391.59,1613.33c-18.05,40.79-36.11,81.59-54.16,122.39c-3.09-1.23-6.17-2.46-9.25-3.69
		c-0.23-47.77,31.86-83.06,48.34-124.37C1381.55,1609.55,1386.58,1611.44,1391.59,1613.33z"/>
	<path d="M1486.08,875.71c-4.01-24.25-7.19-43.43-10.68-64.49C1509.1,826.06,1513.22,845.46,1486.08,875.71z"/>
	<path class="st0" d="M1237.4,2261.41l-24.26,114.24c-6.06,29.31-27.28,44.48-41.95,44.48c-9.11,0-25.28-0.5-25.28-39.43
		c0-47.51,27.8-138.51,70.76-138.51C1232.84,2242.19,1237.4,2255.35,1237.4,2261.41z"/>
	<path class="st0" d="M1764.98,2261.41l-24.27,114.24c-6.05,29.31-27.28,44.48-41.94,44.48c-9.11,0-25.28-0.5-25.28-39.43
		c0-47.51,27.8-138.51,70.76-138.51C1760.44,2242.19,1764.98,2255.35,1764.98,2261.41z"/>
	<path class="st0" d="M1956.5,2382.21c0,35.39-21.74,47.02-43.98,47.02c-19.86,0-28.85-9.28-30.54-28.22
		c0.66-1.38,1.32-2.78,1.97-4.21c3.02,2.72,7.51,3.61,11.38,3.61c13.13,0,22.24-12.64,22.24-24.76c0-8.6-5.05-14.66-11.63-17.71
		c16.7-32.35,30.84-62.67,40.96-95.52C1951.95,2340.26,1956.5,2355.94,1956.5,2382.21z"/>
	<g>
		<path d="M940.85,2243.16c31.78-43.38,114.49-153.33,114.49-152.83h52.96l-140.22,161.4c6.56,0,12.1-0.5,17.65-0.5
			c48.92,0,62.54,23.2,62.54,53.97c0,41.36-24.71,95.83-24.71,127.61c0,15.13,7.57,28.75,19.67,33.29
			c-21.18,6.05-37.83,8.57-49.93,8.57c-32.78,0-39.34-17.15-39.34-33.79c0-33.29,26.73-94.32,26.73-132.65
			c0-20.17-7.57-34.3-30.26-34.3c-4.54,0-10.59,1.01-16.64,2.02l-40.35,190.15H820.8l73.14-342.98
			c-44.39,18.66-70.61,56.99-70.61,110.46c0,25.72,6.56,29.76,7.06,34.3c-34.8,0-53.97-12.61-53.97-48.92
			c0-67.08,92.81-131.14,177.04-131.14c7.06,0,13.62,0.5,20.18,1.01L940.85,2243.16z"/>
		<path d="M1318.62,2213.91l-36.32,171.49c-1.51,6.56-2.02,11.6-2.02,16.14c0,14.12,6.56,21.69,20.68,21.69
			c19.67,0,33.29-22.19,40.85-47.41h21.18c-28.75,82.21-74.14,93.31-101.38,93.31c-28.25,0-46.4-16.14-49.43-46.4
			c-15.64,23.2-39.34,46.4-75.15,46.4c-34.3,0-67.08-21.18-67.08-81.21c0-68.09,41.86-176.53,129.63-176.53
			c28.75,0,40.85,11.1,40.85,25.72v3.53l5.55-26.73H1318.62z M1144.61,2380.86c0,38.84,16.14,39.34,25.22,39.34
			c14.63,0,35.81-15.13,41.86-44.39l24.21-113.99c0-6.05-4.54-19.17-20.68-19.17C1172.35,2242.66,1144.61,2333.45,1144.61,2380.86z"
			/>
		<path d="M1579.88,2213.91l-100.88,70.11c5.55-1.01,11.1-2.02,16.64-2.02c37.32,0,55.48,26.73,55.48,59.01
			c0,6.05-0.5,12.61-2.02,19.17l-5.55,25.22c-1.01,5.04-2.52,10.59-2.52,16.14c0,10.09,4.04,18.66,19.67,18.66
			c22.19,0,31.27-18.16,42.37-44.39h21.18c-28.75,84.74-69.6,93.31-92.81,93.31c-41.36,0-63.55-20.68-63.55-57.5
			c0-8.07,1.01-16.64,3.03-26.23l4.04-19.67c1.51-6.56,2.02-13.11,2.02-18.66c0-14.63-5.04-24.21-18.16-24.21
			c-11.6,0-23.2,7.06-37.32,18.66l-26.23,124.58h-72.63l73.13-342.98l74.65-10.09l-37.83,177.54l97.35-76.67H1579.88z"/>
		<path d="M1845.18,2213.91l-36.32,171.49c-1.51,6.56-2.02,11.6-2.02,16.14c0,14.12,6.56,21.69,20.68,21.69
			c19.67,0,33.29-22.19,40.85-47.41h21.18c-28.75,82.21-74.14,93.31-101.38,93.31c-28.25,0-46.4-16.14-49.43-46.4
			c-15.64,23.2-39.34,46.4-75.15,46.4c-34.3,0-67.08-21.18-67.08-81.21c0-68.09,41.86-176.53,129.63-176.53
			c28.75,0,40.85,11.1,40.85,25.72v3.53l5.55-26.73H1845.18z M1671.17,2380.86c0,38.84,16.14,39.34,25.22,39.34
			c14.63,0,35.81-15.13,41.86-44.39l24.21-113.99c0-6.05-4.54-19.17-20.68-19.17C1698.91,2242.66,1671.17,2333.45,1671.17,2380.86z"
			/>
		<path d="M2082.22,2375.81c-26.23,30.26-53.97,49.43-77.17,63.05c-21.18,22.19-53.46,30.26-79.19,30.26
			c-51.45,0-73.64-33.79-73.64-64.56c0-23.2,13.11-40.35,26.73-46.91c28.25-49.93,46.4-99.87,62.04-149.3l74.65-10.09
			c6.05,130.63,11.1,150.3,11.1,183.59c0,7.06-0.5,13.11-2.02,19.17c13.62-8.07,26.73-17.15,36.32-25.22H2082.22z M1892.58,2400.53
			c-5.04,0-11.1-1.51-13.62-6.56c0,23.71,8.57,35.31,30.77,35.31c22.19,0,43.88-11.6,43.88-46.91c0-26.23-4.54-41.86-9.58-119.54
			c-10.09,32.78-24.21,63.05-40.86,95.33c6.56,3.03,11.6,9.08,11.6,17.65C1914.77,2387.92,1905.69,2400.53,1892.58,2400.53z"/>
	</g>
</g>
</svg>
