<svg xmlns="http://www.w3.org/2000/svg" viewBox="0 0 371.15 78.73"><defs><style>.cls-1,.cls-4{fill:#5c9eff;}.cls-2,.cls-3{fill:#ffe247;}.cls-3{stroke:#000;}.cls-3,.cls-4{stroke-miterlimit:10;}.cls-4{stroke:#5c9eff;}</style></defs><title>langosch</title><g id="Layer_2" data-name="Layer 2"><g id="Layer_1-2" data-name="Layer 1"><path class="cls-1" d="M365,33a1,1,0,0,1-.45-.09,3.41,3.41,0,0,1-1.22-1.19,14.81,14.81,0,0,1-1.05-2,6.07,6.07,0,0,1-.33-1.11c0-.14-.06-.28-.1-.42l-.14-.56.57-.06.47-.06a8.76,8.76,0,0,1,1-.1c.87,0,1.76,0,2.8,0H369l-1,1.89c-.59,1.11-1.15,2.15-1.78,3.19A1.61,1.61,0,0,1,365,33Z"/><path d="M368.16,27.93c-.82,1.51-1.54,2.93-2.37,4.31a1.23,1.23,0,0,1-.82.28.47.47,0,0,1-.23,0,2.93,2.93,0,0,1-1-1,13.79,13.79,0,0,1-1-1.89,9.16,9.16,0,0,1-.4-1.45,13.68,13.68,0,0,1,1.45-.16c1.29,0,2.61,0,4.4,0m1.69-1h-3.29c-1.05,0-1.94,0-2.83,0-.38,0-.74.06-1.08.1a3.47,3.47,0,0,1-.45.06l-1.15.13.29,1.12.09.4a7.28,7.28,0,0,0,.36,1.2,15.63,15.63,0,0,0,1.08,2,4,4,0,0,0,1.4,1.37,1.52,1.52,0,0,0,.7.15,2.14,2.14,0,0,0,1.66-.75c.64-1.06,1.21-2.11,1.8-3.22L369,28.4l.81-1.48Z"/><path class="cls-1" d="M361.71,46.6a4,4,0,0,1-2.18-.69,2.42,2.42,0,0,1-.82-1.18,3.25,3.25,0,0,0-.22-.46l-.29-.53.57-.19.44-.16a6.53,6.53,0,0,1,1.25-.38c.91-.15,1.84-.27,2.83-.4l2-.25-.08.64C364.9,45.16,363.51,46.6,361.71,46.6Z"/><path d="M364.67,42.94c-.24,2-1.47,3.16-3,3.16a3.54,3.54,0,0,1-1.91-.61c-.44-.28-.59-1-.87-1.47a10.81,10.81,0,0,1,1.61-.52c1.3-.22,2.65-.36,4.13-.56m1.15-1.17-1.28.18-1.33.17c-1,.12-1.92.24-2.84.4a6.62,6.62,0,0,0-1.34.4l-.42.15-1.14.39.59,1a4.08,4.08,0,0,1,.19.42,2.89,2.89,0,0,0,1,1.4,4.55,4.55,0,0,0,2.45.77c2.07,0,3.66-1.62,4-4l.16-1.29Z"/><path class="cls-1" d="M355.54,27.72c-.08-.24-.18-.48-.27-.72a5.09,5.09,0,0,1-.52-2.11c0-.57.63-.9,1.29-1.26.22-.12.44-.23.62-.35l.43-.3.33.53c.38.6.77,1.22,1.34,2.1L359,26l-3.26,2.36Z"/><path d="M356.94,23.69l1.4,2.19L356,27.56a7.9,7.9,0,0,1-.77-2.65c0-.42,1.09-.81,1.69-1.22m.29-1.41-.85.58c-.15.1-.37.22-.58.33-.71.39-1.53.83-1.55,1.69a5.48,5.48,0,0,0,.55,2.3c.1.23.19.47.27.7l.43,1.28,1.1-.79,2.33-1.68.76-.56-.51-.8c-.6-.92-1-1.55-1.39-2.18l-.56-.87Z"/><path class="cls-1" d="M351.82,35.29l.46-.22c.3-.15.61-.32.88-.48a3.25,3.25,0,0,1,1.39-.59.79.79,0,0,1,.37.1c.72.43,1.6,1.62,1.34,2.41a4.72,4.72,0,0,1-1.33,1.79c-.19.19-.39.38-.57.58l-.49.56Z"/><path d="M354.55,34.5a.24.24,0,0,1,.12,0c.59.35,1.27,1.35,1.12,1.82-.28.84-1.17,1.49-1.8,2.2-.46-.91-.9-1.82-1.5-3a10.69,10.69,0,0,1,2.06-1m0-1h0a3.55,3.55,0,0,0-1.64.65c-.28.17-.57.33-.85.47l-.91.44.45.91.93,1.89.56,1.13.66,1.34,1-1.12c.16-.19.35-.37.54-.56a5.08,5.08,0,0,0,1.46-2c.37-1.13-.82-2.55-1.56-3a1.29,1.29,0,0,0-.63-.17Z"/><path class="cls-1" d="M354.34,22.37c-.09-.25-.2-.5-.29-.75a8.17,8.17,0,0,1-.67-2.24c-.05-.54.52-.84,1.24-1.22.22-.12.43-.23.6-.34l.43-.28,1.77,2.87-2.82,2.67Z"/><path d="M355.49,18.24c.39.63.79,1.26,1.29,2.08-.86.81-1.42,1.35-2,1.88a12.56,12.56,0,0,1-.93-2.86c0-.31,1-.73,1.61-1.1m.31-1.39-.85.55c-.16.1-.36.21-.56.31-.78.42-1.59.85-1.5,1.73a8.54,8.54,0,0,0,.69,2.37c.1.24.2.48.29.73l.52,1.43,1.1-1,.68-.63,1.3-1.24.59-.56-.42-.69c-.28-.46-.53-.85-.76-1.22l-.54-.86-.54-.87Z"/><path class="cls-1" d="M352.08,32.78c-.09-.28-.2-.55-.3-.83a6.91,6.91,0,0,1-.58-2.27,1,1,0,0,1,.33-.68,3.07,3.07,0,0,1,1.84-.88c.64.05,1,.55,1.43,1.12.16.22.34.45.53.67l.31.35-.33.34L352.91,33l-.58.57Z"/><path d="M353.37,28.62h0c.49,0,.92.93,1.54,1.62-1,1-1.68,1.68-2.39,2.39a11.42,11.42,0,0,1-.86-3c0-.36,1.08-1.05,1.67-1.05m0-1h0a3.55,3.55,0,0,0-2.2,1,1.44,1.44,0,0,0-.47,1.05,7.36,7.36,0,0,0,.61,2.43c.1.26.21.53.29.8l.5,1.55,1.16-1.14L355.65,31l.67-.67-.62-.71c-.17-.2-.34-.42-.49-.63-.46-.62-.93-1.26-1.72-1.32h-.12Z"/><path class="cls-1" d="M350.6,26.8c-.08-.24-.18-.47-.27-.71A5.16,5.16,0,0,1,349.8,24c0-.75,1.36-1.59,2.06-1.59s1,.54,1.45,1.11c.17.23.36.48.57.72l.35.39-3.39,2.83Z"/><path d="M351.86,22.93h0c.51,0,.92.9,1.61,1.66l-2.44,2a8.27,8.27,0,0,1-.78-2.59c0-.39,1-1.11,1.57-1.11m0-1h0c-.94,0-2.54,1-2.56,2.08a5.63,5.63,0,0,0,.56,2.27c.1.23.19.45.27.68l.47,1.38,1.12-.94,2.43-2,.8-.66-.7-.78c-.19-.22-.37-.45-.55-.68-.45-.61-.93-1.24-1.71-1.3h-.13Z"/><path class="cls-1" d="M351.71,49.81c-.16,0-.63,0-1.22-1.41a2.27,2.27,0,0,1-.07-1.41l.05-.16a5.44,5.44,0,0,1,.93-2,.87.87,0,0,1,.68-.25,2.19,2.19,0,0,1,1.6.62,3.3,3.3,0,0,1,.46,1.5,1.59,1.59,0,0,0,0,.26l0,.15,0,.15c-.11.27-.19.51-.26.71a2.26,2.26,0,0,1-.5,1,2.72,2.72,0,0,1-1.67.81Z"/><path d="M352.08,45.12a1.83,1.83,0,0,1,1.18.39,4,4,0,0,1,.43,1.6,5.74,5.74,0,0,1-.64,1.54,2.22,2.22,0,0,1-1.34.66h0c-.22,0-.59-.7-.75-1.1a1.75,1.75,0,0,1-.07-1.08,5.69,5.69,0,0,1,.89-1.93.41.41,0,0,1,.3-.08m0-1h0a1.32,1.32,0,0,0-1.07.44,5.85,5.85,0,0,0-1,2.12l-.05.15a2.66,2.66,0,0,0,.1,1.76c.7,1.72,1.4,1.72,1.67,1.72h.05a3.25,3.25,0,0,0,2-.94,2.82,2.82,0,0,0,.63-1.21c.06-.19.13-.41.24-.67l.12-.3-.07-.3a1.18,1.18,0,0,1,0-.21,3.81,3.81,0,0,0-.55-1.73c-.54-.82-2-.83-2-.83Z"/><path class="cls-1" d="M349.48,21.61c-.08-.25-.17-.49-.27-.74a5.88,5.88,0,0,1-.51-2.1c0-.77,1.38-1.63,2.1-1.63s1,.54,1.34,1.09a7.76,7.76,0,0,0,.5.67l.31.36-3.22,3.11Z"/><path d="M350.8,17.64h0c.47,0,.85.91,1.44,1.59L350,21.46a9,9,0,0,1-.76-2.68c0-.4,1.06-1.14,1.6-1.14m0-1h0c-.94,0-2.57,1-2.6,2.11a6.22,6.22,0,0,0,.55,2.29c.09.24.18.48.26.72l.48,1.54,1.16-1.12L353,20l.68-.66-.62-.71c-.16-.19-.32-.42-.47-.63-.41-.6-.87-1.27-1.68-1.31h-.07Z"/><path class="cls-1" d="M349.75,43.05c-.09-.26-.19-.51-.29-.77a5.28,5.28,0,0,1-.52-2.08c0-.77,1.45-1.4,2.16-1.4h.19c.54.08.87.63,1.25,1.27.15.25.3.52.49.78l.28.4L350,43.71Z"/><path d="M351.1,39.3h.12c.45.06.82,1,1.4,1.84l-2.4,1.74a8.66,8.66,0,0,1-.78-2.68c0-.34,1.05-.91,1.66-.91m0-1h0c-.89,0-2.62.73-2.66,1.88a5.64,5.64,0,0,0,.56,2.29c.09.25.19.49.27.73l.43,1.32,1.11-.82.89-.65L353.21,42l.8-.59-.58-.8c-.16-.23-.32-.49-.46-.74-.43-.72-.83-1.4-1.61-1.51l-.26,0Z"/><path class="cls-1" d="M348.88,59.94c-.2-.45-.41-.91-.57-1.39a1.66,1.66,0,0,1,0-1.26,5.13,5.13,0,0,1,1.08-1.78.83.83,0,0,1,.57-.18,2.19,2.19,0,0,1,1.45.57,5,5,0,0,1,.74,1.42c.05.13.1.24.15.34l.09.22-.1.21-.25.57a2.13,2.13,0,0,1-.5.85,10.38,10.38,0,0,1-1.2.87l-.5.33-.5.35Z"/><path d="M350,55.83a1.73,1.73,0,0,1,1.06.39,6.79,6.79,0,0,1,.82,1.65,4.93,4.93,0,0,1-.64,1.27,15.65,15.65,0,0,1-1.64,1.16c-.27-.64-.58-1.26-.8-1.91a1.19,1.19,0,0,1,0-.89,4.73,4.73,0,0,1,1-1.62.34.34,0,0,1,.23-.05m0-1h0a1.3,1.3,0,0,0-.92.33A5.24,5.24,0,0,0,347.89,57l0,.07a2.23,2.23,0,0,0,0,1.65,13.71,13.71,0,0,0,.57,1.4l.24.54.48,1.13,1-.7.48-.32a11.18,11.18,0,0,0,1.25-.9,2.69,2.69,0,0,0,.64-1c.07-.15.14-.33.24-.54l.21-.43-.2-.43-.13-.32a5.34,5.34,0,0,0-.83-1.54,2.58,2.58,0,0,0-1.83-.76Z"/><path class="cls-1" d="M347,33.8l3.09-1.17.18.45c.08.18.18.37.28.55.31.56.63,1.13.41,1.67A5.25,5.25,0,0,1,349.67,37c-.19.18-.38.37-.55.56l-.56.62Z"/><path d="M349.81,33.27c.25.62.87,1.38.68,1.84a8.07,8.07,0,0,1-1.74,2.09c-.34-.93-.66-1.86-1.12-3.11l2.18-.82m.56-1.28-.92.35-1,.39-1.13.43-.92.35.33.92c.27.74.49,1.37.7,2l.42,1.16.57,1.58,1.11-1.25.53-.54a5.56,5.56,0,0,0,1.4-1.85,2.43,2.43,0,0,0-.43-2.09,3.86,3.86,0,0,1-.25-.5l-.37-.9Z"/><path class="cls-1" d="M347,31.67c-.06-.27-.14-.53-.22-.8a5.91,5.91,0,0,1-.36-2.16c0-.76,1.42-1.41,2.12-1.46h0c.54,0,.85.45,1.24,1,.14.21.3.45.47.66l.29.35-3.34,3.24Z"/><path d="M348.6,27.75c.34,0,.75.86,1.27,1.5l-2.37,2.31a10,10,0,0,1-.57-2.81c0-.39,1.05-1,1.65-1h0m0-1h-.11c-.82.06-2.5.8-2.56,1.94a6.46,6.46,0,0,0,.38,2.32c.08.26.15.52.21.77l.4,1.73,1.27-1.24.21-.2,2.17-2.1.66-.64-.58-.71c-.15-.19-.3-.41-.45-.62-.42-.62-.85-1.25-1.6-1.25Z"/><path class="cls-1" d="M347.38,53.92l-.21-.89a11.67,11.67,0,0,1-.4-2.56c0-.71,1.38-1.25,1.94-1.25a.93.93,0,0,1,.42.09,3.69,3.69,0,0,1,1.24,1.4c.15.24.31.49.5.74l.28.39-3.61,2.88Z"/><path d="M348.71,49.72a.5.5,0,0,1,.19,0c.61.33,1,1.17,1.56,2l-2.59,2.07a17.36,17.36,0,0,1-.6-3.35c0-.27,1-.75,1.44-.75m0-1h0c-.71,0-2.44.61-2.44,1.75a11.19,11.19,0,0,0,.42,2.67c.07.3.14.59.2.88l.32,1.6,1.28-1,2.6-2.08.75-.6-.57-.77c-.18-.24-.33-.48-.47-.71a4.19,4.19,0,0,0-1.43-1.58,1.45,1.45,0,0,0-.66-.15Z"/><path class="cls-1" d="M346,26c-.07-.26-.16-.51-.24-.76a6.5,6.5,0,0,1-.44-2.09c0-.7,1.29-1.47,2-1.47h.15c.54.08.89.56,1.27,1.06.16.21.33.44.52.66l.34.37-3.29,2.94Z"/><path d="M347.31,22.17h.07c.51.08.87.87,1.51,1.56l-2.38,2.13a10.48,10.48,0,0,1-.66-2.72c0-.33,1-1,1.46-1m0-1h0c-.81,0-2.43.88-2.46,1.94a7,7,0,0,0,.46,2.28c.08.24.17.49.23.73l.43,1.56,1.2-1.08,2.38-2.12.75-.67-.67-.75c-.18-.2-.34-.41-.5-.62a2.56,2.56,0,0,0-1.6-1.25l-.22,0Z"/><path class="cls-1" d="M345.88,47.81c-.19-.55-.37-1.1-.58-1.72l-.65-2,.45-.17a7.39,7.39,0,0,0,.75-.34,3.12,3.12,0,0,1,1.28-.43,1,1,0,0,1,.38.07,3,3,0,0,1,1.31,1.55,1,1,0,0,1,0,.8,7.37,7.37,0,0,1-1.5,1.79l-.61.6-.57.61Z"/><path d="M347.13,43.69a.45.45,0,0,1,.2,0c.51.21,1.22,1.33,1.05,1.65a11.7,11.7,0,0,1-2,2.28c-.31-1-.64-1.93-1.07-3.23a8.67,8.67,0,0,1,1.85-.74m0-1h0a3.61,3.61,0,0,0-1.5.48,5.43,5.43,0,0,1-.7.32l-.9.34.3.91c.19.57.36,1.08.51,1.55L345.4,48l.52,1.6,1.16-1.22c.19-.2.39-.4.59-.59a8,8,0,0,0,1.59-1.91,1.44,1.44,0,0,0,0-1.21,3.46,3.46,0,0,0-1.58-1.84,1.66,1.66,0,0,0-.58-.11Z"/><path class="cls-1" d="M343.71,17.67l2.47-1.27.45-.24.23.46a5.51,5.51,0,0,0,.3.5c.32.5.69,1.07.46,1.61a4.94,4.94,0,0,1-1.24,1.62c-.19.18-.37.36-.54.55l-.52.59Z"/><path d="M346.41,16.84c.29.58.93,1.26.75,1.7a8.12,8.12,0,0,1-1.69,2c-.34-.79-.67-1.59-1.12-2.67.85-.44,1.46-.74,2.06-1.06m.45-1.36L346,16l-1,.53-1,.53-.82.42.36.85c.21.49.38.92.55,1.32l.57,1.35.62,1.45,1-1.18c.16-.18.34-.35.52-.52a5.34,5.34,0,0,0,1.36-1.82,2.23,2.23,0,0,0-.51-2,4.85,4.85,0,0,1-.27-.45l-.45-.92Z"/><path class="cls-1" d="M345.09,64.76c-.06-.31-.14-.63-.23-1a9.84,9.84,0,0,1-.41-2.56c0-.77,1.36-1.49,1.94-1.49a.72.72,0,0,1,.37.09,4.19,4.19,0,0,1,1.38,1.47c.19.27.39.57.63.87l.32.4-3.83,3Z"/><path d="M346.39,60.26a.29.29,0,0,1,.14,0c.65.34,1.07,1.22,1.85,2.21l-2.8,2.16a15.61,15.61,0,0,1-.63-3.39c0-.39,1-1,1.44-1m0-1h0c-.78,0-2.38.85-2.44,2a10.17,10.17,0,0,0,.43,2.71c.08.31.16.62.22.93l.34,1.56,1.26-1L348,64l.95-.73.8-.61-.62-.8c-.24-.3-.44-.58-.62-.85A4.79,4.79,0,0,0,347,59.4a1.3,1.3,0,0,0-.6-.14Z"/><path class="cls-1" d="M343.34,38.32l.44-.17c.25-.1.5-.22.74-.34a3.31,3.31,0,0,1,1.2-.42.68.68,0,0,1,.45.15c.48.38,1.51,1.62,1.16,2.4a4.36,4.36,0,0,1-1.45,1.54c-.21.16-.42.32-.61.48l-.56.51Z"/><path d="M345.72,37.89a.21.21,0,0,1,.14,0c.53.42,1.2,1.41,1,1.81-.35.76-1.27,1.25-1.94,1.85l-1-3a10.32,10.32,0,0,1,1.76-.72m0-1h0a3.52,3.52,0,0,0-1.42.47c-.23.11-.47.23-.7.32l-.88.35.29.9c.39,1.18.69,2.08,1,3l.48,1.45,1.14-1c.18-.16.38-.31.57-.47a4.74,4.74,0,0,0,1.61-1.71c.49-1.1-.7-2.53-1.32-3a1.21,1.21,0,0,0-.75-.25Z"/><path class="cls-1" d="M343.46,36.11c-.07-.25-.14-.51-.22-.77a7.7,7.7,0,0,1-.4-2.18c0-.72,1.38-1.42,1.89-1.42h.11l.2.07a3.33,3.33,0,0,1,1.21,1.28q.22.34.51.72l.3.39-3.42,2.66Z"/><path d="M344.73,32.24l.1,0c.57.27.9,1,1.53,1.85L343.94,36a11.67,11.67,0,0,1-.6-2.82c0-.32,1-.94,1.39-.94m0-1h0c-.69,0-2.39.84-2.39,1.94a7.79,7.79,0,0,0,.42,2.3q.12.38.21.75l.37,1.5,1.22-.94L347,34.9l.78-.61-.61-.79c-.18-.24-.33-.47-.48-.68a3.63,3.63,0,0,0-1.42-1.46,1.14,1.14,0,0,0-.52-.12Z"/><path class="cls-1" d="M344.42,59.08l-1-.35-.33-.11v-.35c0-.33,0-.66,0-1a16.12,16.12,0,0,1,.08-2.86c.1-.69,1.33-1,1.8-1a1.25,1.25,0,0,1,.45.07c.6.25,1.49,1.45,1.27,2.14A11.63,11.63,0,0,1,345.51,58c-.17.29-.34.58-.5.87l-.19.37Z"/><path d="M344.93,53.93a.68.68,0,0,1,.26,0c.47.19,1.1,1.16,1,1.53a19.78,19.78,0,0,1-1.6,3.1l-1-.34a24.76,24.76,0,0,1,.06-3.76c0-.26.8-.57,1.3-.57m0-1h0c-.56,0-2.14.34-2.29,1.43a16,16,0,0,0-.09,2.93c0,.33,0,.65,0,1V59l.66.23,1,.35.79.25.39-.73c.16-.29.33-.58.5-.86a12.23,12.23,0,0,0,1.17-2.41c.32-1-.74-2.43-1.55-2.76a1.91,1.91,0,0,0-.64-.11Z"/><path class="cls-1" d="M342.3,30.53a7.43,7.43,0,0,0-.17-.79,7.56,7.56,0,0,1-.26-2.12c0-.68,1.31-1.32,1.87-1.32a.66.66,0,0,1,.32.07,2.58,2.58,0,0,1,1.1,1.25c.12.21.25.43.4.66l.27.38-.6.48-2.12,1.69-.66.52Z"/><path d="M343.74,26.8l.12,0c.51.21.78,1,1.29,1.74l-2.35,1.88a11.83,11.83,0,0,1-.44-2.79c0-.29,1-.85,1.38-.85m0-1h0c-.75,0-2.31.78-2.37,1.79a7.34,7.34,0,0,0,.28,2.26c.06.25.12.51.16.77l.3,1.64,1.31-1,2.19-1.75.17-.14.72-.58L346,28c-.15-.22-.27-.43-.38-.63a3,3,0,0,0-1.36-1.47,1.24,1.24,0,0,0-.5-.1Z"/><path class="cls-1" d="M341,48.6l3.06-1.38.21.42c.1.19.23.39.36.6.41.62.79,1.21.53,1.73a6.75,6.75,0,0,1-1.46,1.78l-.61.62-.56.62Z"/><path d="M343.85,47.87c.32.64,1.07,1.49.88,1.87a10.47,10.47,0,0,1-2,2.29l-1.1-3.16,2.21-1m.46-1.3-.87.39.41.91-.43-.91-2.19,1-.84.38.3.86.56,1.59c.19.56.37,1.06.55,1.58l.55,1.57,1.13-1.23.59-.6a7.3,7.3,0,0,0,1.56-1.93c.38-.76-.12-1.53-.56-2.21-.12-.2-.25-.4-.33-.55l-.43-.85Z"/><path class="cls-1" d="M341.35,25.11c-.05-.24-.12-.48-.18-.72a5.22,5.22,0,0,1-.27-2c.09-.7,1.28-1.49,2-1.49s.94.54,1.31,1.12c.15.22.3.47.48.7l.31.38-.38.31-2.49,2-.64.52Z"/><path d="M342.92,21.36h0c.45,0,.79.88,1.37,1.61-1,.84-1.75,1.44-2.48,2a8,8,0,0,1-.44-2.59c.05-.41,1-1.06,1.52-1.06m0-1h0a2.87,2.87,0,0,0-2.52,1.93,5.83,5.83,0,0,0,.28,2.23c.07.23.13.46.18.7l.33,1.61,1.28-1,2.49-2,.75-.62-.6-.77c-.16-.21-.31-.44-.46-.66-.39-.61-.84-1.31-1.65-1.34h-.08Z"/><path class="cls-1" d="M340.37,20.08c-.05-.24-.11-.47-.18-.71a4.21,4.21,0,0,1-.23-2c.11-.55.71-.89,1.3-1.22.19-.11.39-.22.56-.34l.41-.29.28.42c.36.53.72,1,1.35,1.94l.28.41-3.62,2.52Z"/><path d="M342.1,16.23c.36.53.72,1,1.35,1.95L340.86,20a6.56,6.56,0,0,1-.41-2.5c.09-.47,1.06-.84,1.65-1.25m.26-1.4-.83.58a5.1,5.1,0,0,1-.52.31c-.65.37-1.38.79-1.54,1.57a4.55,4.55,0,0,0,.24,2.22c.06.22.13.45.17.67l.3,1.49,1.25-.87,1.49-1L344,19l.82-.57-.57-.82c-.63-.9-1-1.42-1.34-1.94l-.57-.84Z"/><path class="cls-1" d="M341,46.13c-.31-.93-.61-1.86-1-3.12l-.15-.45.45-.17A8,8,0,0,0,341,42a3.07,3.07,0,0,1,1.24-.43.91.91,0,0,1,.41.09c.63.33,1.44,1.65,1.11,2.37a5.88,5.88,0,0,1-1.39,1.71c-.2.18-.39.37-.57.56l-.58.61Z"/><path d="M342.28,42.09a.34.34,0,0,1,.18,0c.49.25,1.06,1.32.88,1.71A9.37,9.37,0,0,1,341.47,46c-.3-.94-.61-1.87-1-3.13a8.87,8.87,0,0,1,1.84-.76m0-1h0a3.32,3.32,0,0,0-1.47.49,8,8,0,0,1-.73.34l-.89.35.3.9c.42,1.26.73,2.18,1,3.12l.52,1.6,1.16-1.23c.17-.18.36-.36.55-.54a6.17,6.17,0,0,0,1.5-1.86c.46-1-.5-2.6-1.34-3a1.3,1.3,0,0,0-.63-.15Z"/><path class="cls-1" d="M339.25,40.53v-.32c0-.25,0-.5-.06-.76a4.89,4.89,0,0,1,.09-2c.17-.53.76-.78,1.32-1a5.44,5.44,0,0,0,.54-.25l.46-.25.23.46a5.7,5.7,0,0,0,.31.5c.34.51.69,1,.48,1.54a6.71,6.71,0,0,1-1.22,1.78l-.5.6-.24.32Z"/><path d="M341.39,36.65c.27.54.92,1.24.76,1.62a10.33,10.33,0,0,1-1.65,2.27l-.75-.34a7.63,7.63,0,0,1,0-2.57c.14-.46,1.06-.67,1.63-1m.42-1.38-.91.5-.49.23a2.43,2.43,0,0,0-1.6,1.32,5.07,5.07,0,0,0-.11,2.18c0,.24,0,.49.05.73v.62l.57.26.39.18.37.16.72.33.48-.63.49-.59a7,7,0,0,0,1.3-1.92,2.14,2.14,0,0,0-.52-2,4.36,4.36,0,0,1-.28-.45l-.47-.93Z"/><path class="cls-1" d="M339.94,62.39c-.35-1.06-.71-2.15-1.17-3.56l-.17-.49.5-.15a8.81,8.81,0,0,0,.87-.31,3.58,3.58,0,0,1,1.16-.32.84.84,0,0,1,.53.17c.56.42,1.45,1.72,1.15,2.51a6,6,0,0,1-1.38,1.87c-.2.21-.4.42-.58.63l-.58.68Z"/><path d="M341.13,58.06a.36.36,0,0,1,.22.06c.54.4,1.16,1.5,1,1.94a9.67,9.67,0,0,1-1.87,2.36l-1.23-3.75a13.84,13.84,0,0,1,1.89-.61m0-1h0a3.9,3.9,0,0,0-1.34.36c-.27.1-.55.21-.83.29L338,58l.33,1c.5,1.49.86,2.61,1.23,3.74l.56,1.7,1.15-1.37.56-.6a6.46,6.46,0,0,0,1.48-2c.42-1.09-.64-2.6-1.32-3.11a1.36,1.36,0,0,0-.82-.26Z"/><path class="cls-1" d="M338.82,34.65c-.26-.76-.52-1.55-.88-2.59l-.16-.45.44-.18a7.56,7.56,0,0,0,.7-.34,3,3,0,0,1,1.29-.45,1,1,0,0,1,.3,0c.51.12.94.8,1.11,1.18a1.14,1.14,0,0,1,.07,1,7,7,0,0,1-1.37,1.64l-.58.58-.57.62Z"/><path d="M340.21,31.14a.5.5,0,0,1,.17,0c.42.1,1,1.15.87,1.45a11.29,11.29,0,0,1-1.87,2.12c-.29-.84-.57-1.68-1-2.84a6.92,6.92,0,0,1,1.8-.75m0-1h0a3.43,3.43,0,0,0-1.53.51c-.21.11-.43.23-.65.32l-.87.36.3.89c.4,1.15.69,2,1,2.83l.54,1.6,1.14-1.24.56-.56a7.46,7.46,0,0,0,1.46-1.77,1.59,1.59,0,0,0-.05-1.42c-.1-.21-.6-1.26-1.46-1.47a1.64,1.64,0,0,0-.41-.05Z"/><path class="cls-1" d="M336,47.16l.42-.19a8,8,0,0,0,.72-.37,3.12,3.12,0,0,1,1.39-.51,1.36,1.36,0,0,1,.29,0c.63.17,1.08,1.14,1.13,1.25a1.32,1.32,0,0,1,.13,1.13,6.7,6.7,0,0,1-1.39,1.74c-.21.2-.41.4-.6.61l-.56.63Z"/><path d="M338.57,46.59a.52.52,0,0,1,.17,0c.43.11,1.1,1.32.93,1.67a11.14,11.14,0,0,1-1.91,2.24c-.33-.93-.65-1.84-1.1-3.09a6.94,6.94,0,0,1,1.91-.84m0-1h0a3.44,3.44,0,0,0-1.63.57,6.24,6.24,0,0,1-.68.35l-.85.38.31.87.58,1.64.51,1.45.56,1.59,1.13-1.25c.18-.2.38-.4.58-.59a7.11,7.11,0,0,0,1.49-1.88,1.76,1.76,0,0,0-.12-1.56c-.14-.3-.65-1.3-1.46-1.52a1.51,1.51,0,0,0-.42,0Z"/><path class="cls-1" d="M338,29.85c-.37-.84-.72-1.67-1.21-2.82l-.18-.43.42-.21c.26-.13.5-.28.73-.42a3.05,3.05,0,0,1,1.49-.6h.16a1.54,1.54,0,0,1,.95.82,1.88,1.88,0,0,1,.29,1.43,6.18,6.18,0,0,1-1.27,1.74l-.53.6-.52.63Z"/><path d="M339.22,25.87h.09c.39.05,1,1.16.85,1.56a10.2,10.2,0,0,1-1.73,2.21c-.37-.84-.73-1.67-1.21-2.82.82-.41,1.46-1,2-1m0-1h0a3.48,3.48,0,0,0-1.75.67c-.22.13-.45.28-.7.4l-.83.42.36.86c.49,1.15.84,2,1.21,2.83l.66,1.49,1-1.25c.17-.2.34-.39.52-.58a6.81,6.81,0,0,0,1.36-1.88,2.28,2.28,0,0,0-.32-1.88,2,2,0,0,0-1.31-1.06l-.23,0Z"/><path class="cls-1" d="M338.59,56.49c-.06-.3-.13-.6-.2-.91a8.76,8.76,0,0,1-.35-2.43c0-.71,1.25-1.46,1.88-1.46a.72.72,0,0,1,.33.07,3.05,3.05,0,0,1,1.2,1.34c.14.23.29.48.47.73l.25.35-.31.3c-1,.93-1.71,1.61-2.44,2.29l-.66.61Z"/><path d="M339.92,52.19l.13,0c.56.25.89,1.12,1.46,1.91-1,.92-1.7,1.61-2.43,2.28a14.35,14.35,0,0,1-.54-3.23c0-.37.94-1,1.38-1m0-1h0c-.86,0-2.33.9-2.38,1.93a9.24,9.24,0,0,0,.36,2.58c.07.29.14.59.2.89l.34,1.77,1.32-1.23c.73-.67,1.46-1.36,2.44-2.29l.63-.6-.51-.71c-.15-.22-.3-.46-.44-.69a3.45,3.45,0,0,0-1.43-1.54,1.32,1.32,0,0,0-.53-.11Z"/><path class="cls-1" d="M336.32,44.74c-.05-.28-.1-.56-.16-.84a8.2,8.2,0,0,1-.25-2.21c0-.7,1.34-1.28,1.81-1.28a.69.69,0,0,1,.36.09,3.44,3.44,0,0,1,1.09,1.31,7.22,7.22,0,0,0,.41.68l.26.38-3.39,2.72Z"/><path d="M337.72,40.91a.18.18,0,0,1,.11,0c.54.32.82,1.08,1.34,1.84l-2.36,1.89a13.75,13.75,0,0,1-.4-2.93c0-.3.94-.82,1.31-.82m0-1h0c-.63,0-2.24.7-2.31,1.76a9,9,0,0,0,.26,2.33c.05.27.11.55.15.82l.27,1.7,1.35-1.08L338,45l1.78-1.43.72-.58-.52-.76c-.14-.22-.27-.44-.39-.65a4.08,4.08,0,0,0-1.25-1.49,1.26,1.26,0,0,0-.63-.16Z"/><path class="cls-1" d="M335.13,61.66a6.33,6.33,0,0,1-.55-5.21c.21-.6,1.23-.79,1.57-.79a.9.9,0,0,1,.59.18c.39.34,1.46,1.49,1.22,2.29a10.17,10.17,0,0,1-1.24,2.4c-.22.36-.46.74-.71,1.16l-.46.8Z"/><path d="M336.15,56.16a.43.43,0,0,1,.26.06c.52.44,1.2,1.35,1.07,1.77a19.25,19.25,0,0,1-1.9,3.45,5.81,5.81,0,0,1-.53-4.83c.09-.24.72-.45,1.1-.45m0-1h0c-.43,0-1.72.21-2,1.12a6.79,6.79,0,0,0,.58,5.61l.83,1.65.93-1.6c.24-.42.47-.8.7-1.15a11,11,0,0,0,1.29-2.5c.39-1.3-1.31-2.77-1.38-2.83a1.35,1.35,0,0,0-.91-.3Z"/><path class="cls-1" d="M334.36,35.71l.41-.16a7.5,7.5,0,0,0,.7-.33,2.77,2.77,0,0,1,1.21-.43.9.9,0,0,1,.37.07,2.74,2.74,0,0,1,1.15,1.48,1,1,0,0,1,0,.83,7.85,7.85,0,0,1-1.51,1.69c-.21.19-.42.38-.61.57l-.63.63Z"/><path d="M336.68,35.29a.47.47,0,0,1,.17,0c.48.21,1.07,1.31.9,1.6a12.56,12.56,0,0,1-2,2.16c-.23-.93-.46-1.84-.76-3.06a7.64,7.64,0,0,1,1.73-.73m0-1h0a3.16,3.16,0,0,0-1.44.48,6.65,6.65,0,0,1-.66.32l-.81.32.21.85.43,1.74c.11.46.22.89.33,1.32l.42,1.71,1.25-1.25c.19-.19.4-.37.6-.55a7.76,7.76,0,0,0,1.6-1.81,1.46,1.46,0,0,0,.06-1.24,3.19,3.19,0,0,0-1.41-1.77,1.47,1.47,0,0,0-.58-.12Z"/><path class="cls-1" d="M332.76,51l.43-.17c.27-.11.54-.24.79-.36a3,3,0,0,1,1.19-.41.77.77,0,0,1,.45.13c.6.4,1.55,1.76,1.19,2.48a6.08,6.08,0,0,1-1.5,1.69c-.21.18-.42.36-.61.55l-.59.59Z"/><path d="M335.17,50.51a.33.33,0,0,1,.17,0c.53.36,1.2,1.48,1,1.84a9.8,9.8,0,0,1-2,2.12c-.29-1-.59-2-1-3.26a9.78,9.78,0,0,1,1.8-.74m0-1h0a3.32,3.32,0,0,0-1.42.46,7,7,0,0,1-.74.34l-.86.33.26.89.09.3c.35,1.15.62,2.05.89,3l.48,1.6,1.18-1.17.59-.53a6.57,6.57,0,0,0,1.61-1.84c.54-1.09-.72-2.71-1.36-3.13a1.29,1.29,0,0,0-.72-.21Z"/><path class="cls-1" d="M333.1,49.71a3.64,3.64,0,0,1-.49-4.44,2.08,2.08,0,0,1,1.64-.77.88.88,0,0,1,.61.2,2.51,2.51,0,0,1,.82,2.24,8.11,8.11,0,0,1-1.19,1.93c-.19.25-.4.52-.59.8l-.37.54Z"/><path d="M334.26,45a.46.46,0,0,1,.27.07,2.1,2.1,0,0,1,.68,1.7,13.16,13.16,0,0,1-1.72,2.61,3.14,3.14,0,0,1-.43-3.89,1.67,1.67,0,0,1,1.2-.49m0-1h0a2.57,2.57,0,0,0-2.09,1,4.14,4.14,0,0,0,.55,5l.85,1,.74-1.08c.19-.27.39-.53.58-.78a8.37,8.37,0,0,0,1.26-2.05,3,3,0,0,0-.95-2.79,1.35,1.35,0,0,0-.94-.33Z"/><path class="cls-1" d="M351.61,78.23a6.21,6.21,0,0,1-2.77-.66c-4-2.06-8-4.11-11.74-6.1-2.62-1.37-5.18-2.71-7.68-4-1.39-.72-2.81-1.37-4.19-2l-2.34-1.1a2.21,2.21,0,0,1-1.28-1.25,2.29,2.29,0,0,1,.43-1.79,13.85,13.85,0,0,0,1.56-3.65c1.07-3.61,2.11-7.24,3.16-10.87.85-3,1.7-6,2.58-8.94q1.91-6.52,3.86-13.06c.82-2.75,1.64-5.49,2.45-8.25.31-1,.57-2.11.82-3.15l.27-1.1c.16-.72.41-1.8,1.83-1.8h.28a2.29,2.29,0,0,0,.62-.8C340.56,7,341.34,5,342,3A3.36,3.36,0,0,1,345.42.5h.41l3.31.23c4.12.27,8.37.55,12.76.92a21.46,21.46,0,0,1,3.45.68c.56.13,1.13.28,1.72.4l.86.19s-1.4,1.49-1.54,1.65v1.1c0,1.24,0,2.49-.06,3.74a5,5,0,0,1-.1.76,3,3,0,0,0-.08.51c-.22,2.47-.22,2.47,2.57,4.05l1.09.61-1.2.32a7,7,0,0,0-.84.25,4.53,4.53,0,0,1-1.32.28h-.54c-.92,0-1.31.38-1.56,1.52l-.62,2.89c-.7,3.24-1.42,6.58-2.09,9.88-.35,1.73-.67,3.47-1,5.21-.35,1.93-.72,3.92-1.13,5.89-.47,2.32-1,4.64-1.5,7s-1.06,4.76-1.55,7.16a3.48,3.48,0,0,0,.14,1.3l.06.29.18,0a9.06,9.06,0,0,1,1.5-.17h.49c.55,0,1.13,0,1.75,0l1.18.05.49,0v.49c-.06,5.87-1.35,11.15-2.93,16.91l1.28.82-.51.44a2.71,2.71,0,0,0-.24.23,1.25,1.25,0,0,1-.58.41l-1.65.45a53.63,53.63,0,0,1-5.26,1.23A4.59,4.59,0,0,1,351.61,78.23ZM348.9,66.32c.1.19.22.38.33.58a5.45,5.45,0,0,1,.74,1.56,1.78,1.78,0,0,1-.41,1.35,3.31,3.31,0,0,0-.18.29c-.75,1.4-.8,1.94.77,3.23l0-.1c.14-.56.28-1.09.41-1.63L353,60.81q4.31-19.15,8.54-38.21a28.94,28.94,0,0,0,.49-3.17c.09-.78.19-1.56.32-2.33s0-1.12-1.21-1.33q-5.85-1-11.35-2c-3.3-.58-6.51-1.14-9.65-1.67a2.77,2.77,0,0,0-.49,0,1.8,1.8,0,0,0-1.46.63,2.27,2.27,0,0,0-.32,2,13.13,13.13,0,0,1,.22,2.33c0,.55,0,1.12.11,1.65a2,2,0,0,0,.52,1.24c.62.35,1.28.8,1.4,1.48a2.53,2.53,0,0,1-.82,1.94l-.49.56a20.88,20.88,0,0,0-2.15,2.77,5.31,5.31,0,0,0-.5,1.68c0,.25-.1.51-.16.78.16.1.32.2.47.31,1.45,1,1,2.24.46,3.06a63.83,63.83,0,0,0-3,5.76,1.56,1.56,0,0,0,.29,1,2.17,2.17,0,0,1,.13,3,14.79,14.79,0,0,0-1.48,3,20.92,20.92,0,0,0-.71,2.6l-.21.93c.91,1.24.33,2.42-.14,3.39a6.72,6.72,0,0,0-.45,1.06c1.19.92,1.91,1.52,2,2.37.1,1-.78,2.09-2.89,4.49l.37.25a3,3,0,0,1,1.77-.87c1,0,1.54,1,2.09,2.12.24.48.47.72.67.72a1.53,1.53,0,0,0,.75-.35,2.27,2.27,0,0,1,1.27-.42,2.05,2.05,0,0,1,2,2.14,1.84,1.84,0,0,1-.3.94,1.27,1.27,0,0,0-.18.45,6.11,6.11,0,0,0,.45,2,2.16,2.16,0,0,0,.4.18,6.46,6.46,0,0,0,.65-1.16l.09-.17s0-.05,0-.1a.81.81,0,0,1,.26-.76l.36-.34a2.54,2.54,0,0,1,1.57-.91h.18a1.88,1.88,0,0,1,1.32.87,2.41,2.41,0,0,1,.14,2,4.6,4.6,0,0,1-.33.76,2.7,2.7,0,0,0-.31.77c-.24,1.35,1.07,2,1.65,2.2a1.15,1.15,0,0,0,.34.08c.22,0,.3-.37.38-1.1l0-.23c0-.15,0-.32,0-.5a2,2,0,0,1,.27-1.35,3.53,3.53,0,0,1,1.33-.87c.18-.09.36-.17.52-.26l.45-.24ZM364,14.21s1-7.13,1.37-9.56l-.51-.24a5.15,5.15,0,0,0-1.68-.62c-4-.4-7.9-.73-11.68-1l-2.4-.2c-.39,0-.73,0-1,0-1.24,0-1.52.28-2.15,2.15l-2.16,6.48Z"/><path d="M345.42,1h.37c5.14.35,10.5.68,16.06,1.15A44.29,44.29,0,0,1,367,3.23l-1.06,1.13h0a10.35,10.35,0,0,0-2.69-1c-4.85-.5-9.55-.87-14.08-1.25-.42,0-.77,0-1.08,0-1.56,0-2,.53-2.63,2.49-.77,2.34-1.55,4.67-2.34,7l21.32,3.25c.52-3.64,1-7,1.5-10.43,0,1.67,0,3.36-.07,5.06,0,.41-.15.83-.18,1.24-.24,2.8-.23,2.8,2.84,4.53a11.25,11.25,0,0,1-2,.52h-.15a2.68,2.68,0,0,0-.39,0c-1.39,0-1.82.84-2,1.91-.91,4.26-1.85,8.51-2.71,12.78-.75,3.69-1.34,7.4-2.11,11.09-1,4.72-2.08,9.4-3,14.13a8,8,0,0,0,.28,2.26,18.55,18.55,0,0,1,2.1-.27h.47c.89,0,1.81.07,2.93.1-.06,6.08-1.47,11.54-3,17.14l1,.66c-.28.24-.42.48-.63.55-2.3.59-4.54,1.28-6.85,1.66a4.83,4.83,0,0,1-.68,0,5.75,5.75,0,0,1-2.54-.6c-6.85-3.49-13.29-6.94-19.42-10.11-2.2-1.12-4.41-2.08-6.54-3.1-1.16-.56-1.35-1.2-.65-2.32a14.63,14.63,0,0,0,1.62-3.78c1.95-6.57,3.8-13.2,5.74-19.81,2.07-7.08,4.2-14.18,6.31-21.3.39-1.32.69-2.64,1-4,.21-.83.25-1.73,1.42-1.73a1.67,1.67,0,0,1,.31,0h0c.28,0,.86-.69,1-1.12.9-2.22,1.77-4.47,2.54-6.73A2.84,2.84,0,0,1,345.42,1m-4,9.25c.89-2.23,1.8-4.46,2.7-6.7-.29-.07-.6-.13-.89-.18-.72,2.28-1.42,4.56-2.14,6.84l.33,0M330.89,60.93c.76-.66,1.29-1,1.74-1s1,.58,1.65,1.84c.34.7.7,1,1.11,1a1.89,1.89,0,0,0,1-.44,1.67,1.67,0,0,1,1-.33,1.56,1.56,0,0,1,1.5,1.65c0,.48-.49.91-.48,1.4a6.25,6.25,0,0,0,.52,2.21c.08.21.72.47,1,.47l.09,0a6.93,6.93,0,0,0,1-1.62c.09-.19-.05-.58.09-.69.51-.41,1.09-1.14,1.63-1.14h.1a1.53,1.53,0,0,1,1.07,2.18,13.51,13.51,0,0,0-.66,1.6,2.56,2.56,0,0,0,2,2.76,1.62,1.62,0,0,0,.52.11c.79,0,.81-1,.9-1.77.05-.54-.1-1.25.17-1.59a5.94,5.94,0,0,1,1.7-1,9.25,9.25,0,0,1,1,2c.11.4-.31.86-.54,1.28-1,1.85-.78,2.6,1.5,4.34.22-.89.43-1.68.62-2.49q5.51-24.57,11-49c.41-1.83.5-3.69.81-5.52.2-1.2-.36-1.69-1.62-1.91-7.39-1.26-14.37-2.51-21-3.63a2.9,2.9,0,0,0-.58-.05c-1.71,0-2.68,1.4-2.27,3.21.28,1.26.15,2.63.32,3.94a2.44,2.44,0,0,0,.77,1.61c1.4.77,1.55,1.35.44,2.66a27,27,0,0,0-2.68,3.39,11.86,11.86,0,0,0-.8,3,7.73,7.73,0,0,1,.75.46c.95.68.94,1.39.33,2.4a60.15,60.15,0,0,0-3,5.81,1.85,1.85,0,0,0,.36,1.55A1.72,1.72,0,0,1,334,42a15,15,0,0,0-1.53,3,33.67,33.67,0,0,0-1,3.82c1.37,1.59-.36,3-.6,4.53,2.89,2.23,2.89,2.23-1.1,6.74l1.15.8m1.58,6c0-.12.08-.22.11-.34l-8.42-4.23c-.05.17-.12.35-.18.52,2.77,1.31,5.59,2.67,8.49,4M345.42,0a3.83,3.83,0,0,0-3.9,2.86c-.83,2.45-1.78,4.86-2.51,6.68a1.74,1.74,0,0,1-.34.47h-.1a2.32,2.32,0,0,0-2.32,2.19c0,.1-.05.19-.07.29l-.19.79c-.26,1-.52,2.11-.82,3.14q-1.21,4.13-2.45,8.25-2,6.54-3.86,13.06c-.88,3-1.73,6-2.59,9-1,3.57-2.08,7.25-3.14,10.86a14,14,0,0,1-1.51,3.52,2.32,2.32,0,0,0,1.05,3.76L325,65.91c1.37.64,2.79,1.29,4.18,2q3.76,1.95,7.69,4c3.78,2,7.69,4,11.74,6.09a6.72,6.72,0,0,0,3,.71,4.53,4.53,0,0,0,.84-.07,50.67,50.67,0,0,0,5.31-1.24l1.63-.44a1.86,1.86,0,0,0,.84-.56,1.13,1.13,0,0,1,.19-.19l1-.87-1.13-.73L360,74.4l-.06,0c1.54-5.66,2.79-10.88,2.85-16.69v-1l-1,0-1.17,0c-.63,0-1.21-.06-1.79-.06h-.5a7.49,7.49,0,0,0-1.27.13,2.45,2.45,0,0,1-.09-.92c.48-2.39,1-4.82,1.54-7.16s1-4.64,1.5-7c.41-2,.78-4,1.13-5.91.31-1.71.63-3.47,1-5.19.66-3.29,1.38-6.62,2.08-9.84l.63-2.93c.22-1,.48-1.12,1.07-1.12h.54a4.83,4.83,0,0,0,1.47-.31l.81-.24,2.43-.61L369,14.31a8.45,8.45,0,0,1-2.31-1.53c-.17-.28-.13-.86,0-2a3.4,3.4,0,0,1,.07-.46,5,5,0,0,0,.11-.84c0-1.27,0-2.53.06-3.79V4.78c.1-.12.21-.23.32-.35l.49-.52,1.19-1.28-1.71-.38c-.59-.12-1.16-.26-1.7-.4a23.28,23.28,0,0,0-3.54-.69c-4.39-.37-8.65-.65-12.76-.92L345.86,0l-.44,0Zm-1,10.72,2-5.91C347,3,347.13,3,348,3c.26,0,.57,0,1,0l2.42.2c3.77.31,7.66.63,11.65,1a4.9,4.9,0,0,1,1.51.57l.19.09c-.35,2.45-.71,4.92-1.08,7.49l-.18,1.2-18.48-2.82-.67-.1ZM339,19.5a2.25,2.25,0,0,1-.3-.9c-.06-.5-.08-1-.1-1.58a12.74,12.74,0,0,0-.24-2.43,1.88,1.88,0,0,1,.23-1.55,1.33,1.33,0,0,1,1.07-.44l.41,0c3.13.53,6.33,1.09,9.62,1.67q5.52,1,11.38,2c.9.16.88.29.8.77-.14.78-.23,1.57-.33,2.34a30.79,30.79,0,0,1-.47,3.12c-2.81,12.62-5.69,25.5-8.49,38l-2.47,11c-.07.31-.15.61-.23.92-.74-.76-.53-1.15,0-2.08l.16-.25a2.22,2.22,0,0,0,.47-1.76,6.33,6.33,0,0,0-.79-1.68c-.11-.19-.22-.37-.32-.56l-.48-.9-.89.49a4.44,4.44,0,0,1-.49.24,4,4,0,0,0-1.5,1,2.42,2.42,0,0,0-.39,1.69c0,.16,0,.33,0,.44l0,.22a4.17,4.17,0,0,1-.08.59c-.57-.21-1.46-.71-1.3-1.63a2.46,2.46,0,0,1,.27-.64,5.43,5.43,0,0,0,.36-.83,2.94,2.94,0,0,0-.19-2.38,2.41,2.41,0,0,0-1.66-1.1l-.27,0a2.93,2.93,0,0,0-1.91,1.05c-.12.11-.24.23-.36.32a1.33,1.33,0,0,0-.42,1.16h0l0,0c-.1.2-.19.4-.29.58a5.51,5.51,0,0,1-.26-1.35,2.67,2.67,0,0,1,.12-.24,2.25,2.25,0,0,0,.36-1.2,2.54,2.54,0,0,0-2.5-2.62,2.7,2.7,0,0,0-1.56.52,2.11,2.11,0,0,1-.41.24,2.36,2.36,0,0,1-.27-.43c-.63-1.27-1.29-2.4-2.54-2.4a2.25,2.25,0,0,0-.58.08c1.39-1.63,1.92-2.5,1.83-3.5S333.11,53.9,332,53c.09-.22.2-.44.31-.68a3.57,3.57,0,0,0,.23-3.7c.05-.25.11-.49.16-.72a22.76,22.76,0,0,1,.68-2.54,15,15,0,0,1,1.44-2.85,2.69,2.69,0,0,0-.17-3.58,1.12,1.12,0,0,1-.18-.55,59.08,59.08,0,0,1,2.91-5.65c.92-1.52.71-2.78-.61-3.72l-.19-.14c0-.16.06-.31.08-.45a4.67,4.67,0,0,1,.43-1.5,20.59,20.59,0,0,1,2.1-2.71l.49-.56a3,3,0,0,0,.95-2.36A2.84,2.84,0,0,0,339,19.5Z"/><path class="cls-2" d="M346.53,60.29c-.34-.18-1.56.55-1.58,1a15.61,15.61,0,0,0,.63,3.39l2.8-2.16C347.6,61.51,347.18,60.63,346.53,60.29Zm-.17-26.18c-.63-.82-1-1.58-1.53-1.85-.3-.14-1.49.57-1.49.92a11.67,11.67,0,0,0,.6,2.82ZM344.57,58.6a19.78,19.78,0,0,0,1.6-3.1c.12-.37-.51-1.34-1-1.53s-1.52.22-1.56.53a24.76,24.76,0,0,0-.06,3.76Zm2.59-40.06c.18-.44-.46-1.12-.75-1.7-.6.32-1.21.62-2.06,1.06.45,1.08.78,1.88,1.12,2.67A8.12,8.12,0,0,0,347.16,18.54Zm-1.3,19.39c-.24-.19-1.1.37-1.9.68l1,3c.67-.6,1.59-1.09,1.94-1.85C347.06,39.34,346.39,38.35,345.86,37.93Zm-4.39,8a9.37,9.37,0,0,0,1.87-2.14c.18-.39-.39-1.46-.88-1.71s-1.16.39-2,.72C340.86,44.11,341.17,45,341.47,46ZM342.74,52a10.47,10.47,0,0,0,2-2.29c.19-.38-.56-1.23-.88-1.87l-2.21,1Zm-.38-24.38a11.83,11.83,0,0,0,.44,2.79l2.35-1.88c-.51-.76-.78-1.53-1.29-1.74C343.53,26.68,342.39,27.33,342.36,27.65Zm.59-6.28c-.51,0-1.5.63-1.55,1.05a8,8,0,0,0,.44,2.59c.73-.59,1.47-1.19,2.48-2C343.74,22.25,343.4,21.39,343,21.37Zm-3.71,37.3,1.23,3.75a9.67,9.67,0,0,0,1.87-2.36c.17-.44-.45-1.54-1-1.94C341,57.88,340.19,58.4,339.24,58.67Zm.51-18.47.75.34a10.33,10.33,0,0,0,1.65-2.27c.16-.38-.49-1.08-.76-1.62-.57.31-1.49.52-1.63,1A7.63,7.63,0,0,0,339.75,40.2Zm1.76,13.92c-.57-.79-.9-1.66-1.46-1.91-.36-.15-1.49.55-1.51,1a14.35,14.35,0,0,0,.54,3.23C339.81,55.73,340.53,55,341.51,54.12Zm-1.06-36.64a6.56,6.56,0,0,0,.41,2.5l2.59-1.8c-.63-.91-1-1.42-1.35-1.95C341.51,16.64,340.54,17,340.45,17.48Zm-2,14.41c.4,1.16.68,2,1,2.84a11.29,11.29,0,0,0,1.87-2.12c.16-.3-.45-1.35-.87-1.45S339.22,31.56,338.41,31.89Zm.76,10.88c-.52-.76-.8-1.52-1.34-1.84-.25-.15-1.4.46-1.42.8a13.75,13.75,0,0,0,.4,2.93Zm-.43,3.84c-.54-.14-1.22.44-2.08.82.45,1.25.77,2.16,1.1,3.09a11.14,11.14,0,0,0,1.91-2.24C339.84,47.93,339.17,46.72,338.74,46.61Zm.57-20.73c-.55-.08-1.22.51-2.09.95.48,1.15.84,2,1.21,2.82a10.2,10.2,0,0,0,1.73-2.21C340.31,27,339.7,25.93,339.31,25.88Zm-3.6,13.2a12.56,12.56,0,0,0,2-2.16c.17-.29-.42-1.39-.9-1.6s-1.12.39-1.9.7C335.25,37.24,335.48,38.15,335.71,39.08Zm-.37,11.47c-.32-.21-1.12.37-2,.7.39,1.29.69,2.27,1,3.26a9.8,9.8,0,0,0,2-2.12C336.54,52,335.87,50.91,335.34,50.55Zm.24,10.89a19.25,19.25,0,0,0,1.9-3.45c.13-.42-.55-1.33-1.07-1.77a1.42,1.42,0,0,0-1.36.39A5.81,5.81,0,0,0,335.58,61.44Zm20.2-25.09c.16-.47-.52-1.47-1.11-1.82-.32-.18-1.22.53-2.18,1,.6,1.21,1,2.12,1.5,3C354.62,37.84,355.51,37.19,355.78,36.35Zm-1-14.15c.55-.53,1.11-1.07,2-1.88-.5-.82-.9-1.45-1.29-2.08-.57.37-1.64.79-1.61,1.1A12.56,12.56,0,0,0,354.81,22.2Zm.44,2.71a7.9,7.9,0,0,0,.77,2.65l2.32-1.68-1.4-2.19C356.34,24.1,355.26,24.49,355.25,24.91Zm-6.36-1.18c-.64-.69-1-1.48-1.51-1.56s-1.52.63-1.53,1a10.48,10.48,0,0,0,.66,2.72Zm-.51,21.65c.17-.32-.54-1.44-1.05-1.65s-1.21.38-2.05.7c.43,1.3.76,2.26,1.07,3.23A11.7,11.7,0,0,0,348.38,45.38Zm-.51,8.44,2.59-2.07c-.61-.83-.95-1.67-1.56-2-.36-.19-1.63.41-1.63.72A17.36,17.36,0,0,0,347.87,53.82Zm3-6.69a1.75,1.75,0,0,0,.07,1.08c.17.41.53,1.11.75,1.1a2.22,2.22,0,0,0,1.34-.66,5.74,5.74,0,0,0,.64-1.54,4,4,0,0,0-.43-1.6c-.2-.3-1.32-.5-1.48-.31A5.69,5.69,0,0,0,350.89,47.13Zm-1-17.88c-.53-.65-.94-1.53-1.29-1.5-.6,0-1.63.61-1.65,1a10,10,0,0,0,.57,2.81Zm-.29,31.05a15.65,15.65,0,0,0,1.64-1.16,4.93,4.93,0,0,0,.64-1.27,6.79,6.79,0,0,0-.82-1.65c-.23-.28-1.11-.5-1.29-.34a4.73,4.73,0,0,0-1,1.62,1.19,1.19,0,0,0,0,.89C349,59,349.31,59.66,349.58,60.3Zm3.83-31.68c-.58,0-1.72.69-1.71,1.05a11.42,11.42,0,0,0,.86,3c.71-.71,1.43-1.42,2.39-2.39C354.33,29.55,353.9,28.66,353.41,28.62Zm-2.92,6.49c.19-.46-.43-1.22-.68-1.84l-2.18.82c.46,1.25.78,2.18,1.12,3.11A8.07,8.07,0,0,0,350.49,35.11ZM350,21.46l2.3-2.23c-.59-.68-1-1.57-1.44-1.59s-1.61.74-1.62,1.14A9,9,0,0,0,350,21.46Zm1.94,1.47c-.51,0-1.59.71-1.61,1.11a8.27,8.27,0,0,0,.78,2.59l2.44-2C352.82,23.83,352.41,23,351.9,22.93Zm-1.68,20,2.4-1.74c-.58-.81-.95-1.78-1.4-1.84s-1.77.53-1.78.9A8.66,8.66,0,0,0,350.22,42.89Zm-17.16,2.6a3.14,3.14,0,0,0,.43,3.89,13.16,13.16,0,0,0,1.72-2.61,2.1,2.1,0,0,0-.68-1.7C334.31,44.87,333.23,45.15,333.06,45.49Zm-2.22,7.9c.24-1.54,2-2.94.6-4.53a33.67,33.67,0,0,1,1-3.82A15,15,0,0,1,334,42a1.72,1.72,0,0,0-.09-2.39,1.85,1.85,0,0,1-.36-1.55,60.15,60.15,0,0,1,3-5.81c.61-1,.62-1.72-.33-2.4a7.73,7.73,0,0,0-.75-.46,11.86,11.86,0,0,1,.8-3A27,27,0,0,1,338.9,23c1.11-1.31,1-1.89-.44-2.66a2.44,2.44,0,0,1-.77-1.61c-.17-1.31,0-2.68-.32-3.94-.45-2,.79-3.51,2.85-3.16,6.62,1.12,13.6,2.37,21,3.63,1.26.22,1.82.71,1.62,1.91-.31,1.83-.4,3.69-.81,5.52q-5.43,24.42-11,49c-.19.81-.4,1.6-.62,2.49-2.28-1.74-2.49-2.49-1.5-4.34.23-.42.65-.88.54-1.28a9.25,9.25,0,0,0-1-2,5.94,5.94,0,0,0-1.7,1c-.27.34-.12,1-.17,1.59-.1.9-.11,2.14-1.42,1.66a2.56,2.56,0,0,1-2-2.76,13.51,13.51,0,0,1,.66-1.6,1.53,1.53,0,0,0-1.07-2.18c-.57-.1-1.19.69-1.73,1.13-.14.11,0,.5-.09.69a6.93,6.93,0,0,1-1,1.62c-.1.11-1-.2-1.06-.45a6.25,6.25,0,0,1-.52-2.21c0-.49.5-.92.48-1.4a1.53,1.53,0,0,0-2.48-1.32c-.93.66-1.55.65-2.15-.56-1.11-2.23-1.63-2.35-3.39-.84l-1.15-.8C333.73,55.62,333.73,55.62,330.84,53.39Z"/><path class="cls-1" d="M196.77,32.83a15.4,15.4,0,0,1,0,11.87,15.45,15.45,0,0,1-3.3,4.85,15,15,0,0,1-4.83,3.28,15.33,15.33,0,0,1-11.89,0,15.18,15.18,0,0,1-4.85-3.28,15.39,15.39,0,0,1-3.28-4.85,15.28,15.28,0,0,1,0-11.87,15.5,15.5,0,0,1,8.13-8.14,15.45,15.45,0,0,1,11.89,0,15.69,15.69,0,0,1,8.13,8.14ZM192,38.76a9.21,9.21,0,0,0-.72-3.62,9.84,9.84,0,0,0-2-2.94,9.49,9.49,0,0,0-3-2,9.32,9.32,0,0,0-7.23,0,9.37,9.37,0,0,0-3,2,9.49,9.49,0,0,0-2,2.94,9,9,0,0,0-.73,3.62,8.94,8.94,0,0,0,.73,3.62,9.36,9.36,0,0,0,5,4.95,9.32,9.32,0,0,0,7.23,0,9.32,9.32,0,0,0,3-2,9.64,9.64,0,0,0,2-2.95A9.1,9.1,0,0,0,192,38.76Z"/><path d="M182.69,48.59a9.62,9.62,0,0,1-3.82-.77,10.23,10.23,0,0,1-3.12-2.11,9.8,9.8,0,0,1-2.1-3.12,9.79,9.79,0,0,1,0-7.66,9.83,9.83,0,0,1,12.87-5.21,10,10,0,0,1,3.12,2.11,10.23,10.23,0,0,1,2.1,3.1,9.91,9.91,0,0,1,0,7.66,10.15,10.15,0,0,1-2.1,3.11,10,10,0,0,1-3.12,2.11A9.54,9.54,0,0,1,182.69,48.59Zm0-18.59a8.69,8.69,0,0,0-3.41.68,9,9,0,0,0-2.79,1.89,8.84,8.84,0,0,0-1.87,2.78,8.33,8.33,0,0,0-.7,3.41,8.41,8.41,0,0,0,.69,3.41A8.69,8.69,0,0,0,176.49,45a8.92,8.92,0,0,0,2.8,1.89,8.89,8.89,0,0,0,6.82,0A9.17,9.17,0,0,0,188.9,45a8.94,8.94,0,0,0,1.87-2.79,8.45,8.45,0,0,0,.69-3.41,8.55,8.55,0,0,0-.69-3.41,8.89,8.89,0,0,0-4.67-4.67A8.48,8.48,0,0,0,182.69,30Z"/><path class="cls-1" d="M37.65,51.15l11.08-29L59.82,51.15ZM51,46.63l-2.26-5.88-2.26,5.88Z"/><path d="M48.73,23.5,59.09,50.65H38.38L48.73,23.5m-3,23.63h6l-3-7.77-3,7.77m3-26.44-.93,2.45L37.45,50.29l-.52,1.36H60.54L60,50.29,49.66,23.14l-.93-2.45ZM47.2,46.13l1.53-4,1.53,4Z"/><path class="cls-1" d="M.5,61.37V16.09H16.25V48.76H28.46v8.71L27,61.37Zm23.23-6.31v-.59H8.87V22.4H8.15V55.06Z"/><path d="M15.75,16.59V49.26H28v8.12l-1.33,3.49H1V16.59H15.75m-8.1,39H24.23V54H9.37V21.9H7.65V55.56m9.1-40H0V61.87H27.32l.25-.65,1.32-3.49.07-.17v-9.3H16.75V15.59Z"/><path class="cls-1" d="M56.55,61.37l-1.46-4H42.38l-1.46,4h-15L43.07,16.09H54.39L71.56,61.37Zm5.53-6.31L49.65,22.4H47.81L35.38,55.06h.79l1.27-3.32H60l1.27,3.32Z"/><path d="M54,16.59l16.8,44.28H56.9l-1.46-4H42l-1.46,4H26.63L28,57.38,43.42,16.59H54m-19.38,39h1.86l1.26-3.31H59.69L61,55.56H62.8L50,21.9H47.47L34.66,55.56m20.07-40h-12l-.25.65L27,57,25.7,60.51l-.52,1.36H41.27l.24-.66,1.22-3.33h12L56,61.21l.24.66H72.29l-.52-1.35L55,16.24l-.25-.65ZM48.16,22.9H49.3L60.09,51.25H37.37L48.16,22.9Z"/><path class="cls-1" d="M182.69,62.49a23.17,23.17,0,0,1-9.23-1.86A23.74,23.74,0,0,1,160.82,48a23.81,23.81,0,0,1,0-18.45A23.74,23.74,0,0,1,173.46,16.9a23.71,23.71,0,0,1,18.46,0,23.65,23.65,0,0,1,12.64,12.64,23.69,23.69,0,0,1,0,18.45,23.65,23.65,0,0,1-12.64,12.64A23.1,23.1,0,0,1,182.69,62.49Zm0-40.21a16.11,16.11,0,0,0-6.4,1.28,16.53,16.53,0,0,0-8.81,8.79,16.69,16.69,0,0,0,0,12.82A16.83,16.83,0,0,0,171,50.43,16.53,16.53,0,0,0,176.29,54a16.55,16.55,0,0,0,12.81,0,16.48,16.48,0,0,0,5.25-3.54,16.83,16.83,0,0,0,3.55-5.26,16.69,16.69,0,0,0,0-12.82,16.64,16.64,0,0,0-8.8-8.79A16.2,16.2,0,0,0,182.69,22.28Z"/><path d="M182.69,15.53a22.57,22.57,0,0,1,9,1.83A23.16,23.16,0,0,1,204.1,29.74a23.19,23.19,0,0,1,0,18.06,23.36,23.36,0,0,1-5,7.4,23.69,23.69,0,0,1-7.4,5,23.31,23.31,0,0,1-18.06,0A23.34,23.34,0,0,1,161.28,47.8a23.31,23.31,0,0,1,0-18.06,23.25,23.25,0,0,1,12.38-12.38,22.64,22.64,0,0,1,9-1.83m0,40.23a16.47,16.47,0,0,0,6.61-1.33,17.11,17.11,0,0,0,9.06-9.06,17.19,17.19,0,0,0,0-13.21,17.5,17.5,0,0,0-3.65-5.41,17.16,17.16,0,0,0-5.41-3.65,17.19,17.19,0,0,0-13.21,0,17.2,17.2,0,0,0-5.42,3.65A17.5,17.5,0,0,0,167,32.16a17.19,17.19,0,0,0,0,13.21,17.08,17.08,0,0,0,9.07,9.06,16.42,16.42,0,0,0,6.6,1.33m0-41.23a23.76,23.76,0,0,0-9.43,1.91,24.33,24.33,0,0,0-12.9,12.9,24.33,24.33,0,0,0,0,18.85,24.71,24.71,0,0,0,5.2,7.72,24.45,24.45,0,0,0,7.7,5.18,24.21,24.21,0,0,0,18.85,0A24.12,24.12,0,0,0,205,48.19a24.21,24.21,0,0,0,0-18.85,24.21,24.21,0,0,0-12.91-12.9,23.61,23.61,0,0,0-9.42-1.91Zm0,40.23a15.55,15.55,0,0,1-6.21-1.25,16.39,16.39,0,0,1-5.1-3.44,16.16,16.16,0,0,1-3.44-5.1,16.17,16.17,0,0,1,0-12.42,16.22,16.22,0,0,1,3.44-5.09,16.39,16.39,0,0,1,5.1-3.44,16.2,16.2,0,0,1,12.43,0,16.17,16.17,0,0,1,8.53,8.53,16.17,16.17,0,0,1,0,12.42,16,16,0,0,1-8.54,8.54,15.55,15.55,0,0,1-6.21,1.25Z"/><path class="cls-1" d="M136.43,62.49a23.54,23.54,0,0,1-23.74-23.73,24.21,24.21,0,0,1,1.77-9.21A23.82,23.82,0,0,1,119.3,22a23.07,23.07,0,0,1,7.33-5.09A22.53,22.53,0,0,1,135.76,15a25.82,25.82,0,0,1,6.57.75,25.22,25.22,0,0,1,4.67,1.7,16.93,16.93,0,0,1,3.75,2.39l.34.3-8.6,12.24-.42-.37a7.67,7.67,0,0,0-2.81-1.53,11.33,11.33,0,0,0-3.37-.54,8.08,8.08,0,0,0-3.31.66,7.72,7.72,0,0,0-2.59,1.8,8.44,8.44,0,0,0-1.73,2.8,9.71,9.71,0,0,0-.63,3.53,8.89,8.89,0,0,0,.69,3.53A8.41,8.41,0,0,0,133,46.9a8.88,8.88,0,0,0,3.43.66,8.31,8.31,0,0,0,3.88-.9,9,9,0,0,0,2.3-1.69h-3.37V34.69H157.3V50.05l-.07.12a25.09,25.09,0,0,1-3.72,5,23.46,23.46,0,0,1-4.84,3.9,22.93,22.93,0,0,1-5.81,2.5A23.27,23.27,0,0,1,136.43,62.49Zm-.28-40.21a16.61,16.61,0,0,0-6.37,1.22,16,16,0,0,0-5.15,3.37,15.45,15.45,0,0,0-3.44,5.18,17.32,17.32,0,0,0-1.26,6.71,17,17,0,0,0,1.29,6.72,15.24,15.24,0,0,0,3.53,5.17,16.85,16.85,0,0,0,11.68,4.61,15.73,15.73,0,0,0,8-2.09,17.3,17.3,0,0,0,5.79-5.46V39.66h-6v.6h5.31v7.29l-.09.13a15.63,15.63,0,0,1-5.52,5,15.46,15.46,0,0,1-7.5,1.85,16.53,16.53,0,0,1-6.13-1.13,15.07,15.07,0,0,1-8.41-8.23,16.32,16.32,0,0,1-1.24-6.41,16.61,16.61,0,0,1,1.21-6.39,15.15,15.15,0,0,1,3.29-5,14.51,14.51,0,0,1,4.92-3.23A16.23,16.23,0,0,1,136.15,23a12.33,12.33,0,0,1,2.36.21c.66.12,1.3.25,1.89.41s1,.27,1.4.41l.5-.71c-.4-.15-.83-.28-1.28-.4a17.37,17.37,0,0,0-2.14-.45A17.19,17.19,0,0,0,136.15,22.28Z"/><path d="M135.76,15.53a25.38,25.38,0,0,1,6.44.73,24.88,24.88,0,0,1,4.58,1.67,16.38,16.38,0,0,1,3.65,2.32l-8,11.41a8.34,8.34,0,0,0-3-1.63,11.85,11.85,0,0,0-3.52-.56,8.73,8.73,0,0,0-3.51.7,8.26,8.26,0,0,0-2.76,1.92,8.81,8.81,0,0,0-1.83,3,10.31,10.31,0,0,0-.66,3.71,9.15,9.15,0,0,0,.74,3.72,8.85,8.85,0,0,0,2,3,9,9,0,0,0,3,1.92,9.27,9.27,0,0,0,3.62.7,8.83,8.83,0,0,0,4.11-1,9.84,9.84,0,0,0,3.19-2.63h-4V35.19H156.8V49.92a24.38,24.38,0,0,1-3.65,4.94,23.33,23.33,0,0,1-25.76,5.35,23,23,0,0,1-14.2-21.45,23.59,23.59,0,0,1,1.73-9,23.22,23.22,0,0,1,4.74-7.41,22.53,22.53,0,0,1,7.17-5,21.92,21.92,0,0,1,8.93-1.83m.67,40.23a16.26,16.26,0,0,0,8.3-2.16,17.63,17.63,0,0,0,6-5.74v-8.7h-7v1.6H149V47.4A15,15,0,0,1,136.43,54a15.94,15.94,0,0,1-6-1.09,14.57,14.57,0,0,1-8.13-8,15.78,15.78,0,0,1-1.2-6.22,16,16,0,0,1,1.17-6.2,14.45,14.45,0,0,1,3.18-4.84,14,14,0,0,1,4.75-3.13,15.87,15.87,0,0,1,5.9-1.09,11.59,11.59,0,0,1,2.26.2c.71.13,1.33.26,1.87.4s1.18.35,1.72.53l1.06-1.53a12,12,0,0,0-1.92-.66A16.33,16.33,0,0,0,139,22a17.22,17.22,0,0,0-2.8-.2A17,17,0,0,0,129.59,23a16.32,16.32,0,0,0-5.31,3.48,16,16,0,0,0-3.56,5.34,17.93,17.93,0,0,0-1.29,6.9,17.38,17.38,0,0,0,1.33,6.91A15.92,15.92,0,0,0,124.4,51a17.27,17.27,0,0,0,12,4.75m-.67-41.23a23,23,0,0,0-9.33,1.91,23.48,23.48,0,0,0-7.49,5.2,24.38,24.38,0,0,0-5,7.72,24.77,24.77,0,0,0-1.8,9.4A24,24,0,0,0,119.29,56,24.5,24.5,0,0,0,127,61.13a24.49,24.49,0,0,0,16,1,23.51,23.51,0,0,0,5.93-2.55,24.2,24.2,0,0,0,4.94-4,25.44,25.44,0,0,0,3.8-5.14l.13-.23v-16H138.74V45.47h2.53a8.14,8.14,0,0,1-1.19.74,7.76,7.76,0,0,1-3.65.85,8.5,8.5,0,0,1-3.24-.62,7.9,7.9,0,0,1-4.4-4.34,8.37,8.37,0,0,1-.66-3.34,9.36,9.36,0,0,1,.59-3.35,8,8,0,0,1,1.63-2.63,7.26,7.26,0,0,1,2.43-1.69,7.48,7.48,0,0,1,3.11-.62,10.77,10.77,0,0,1,3.23.52,7.32,7.32,0,0,1,2.62,1.42l.84.74.64-.91,8-11.41.52-.74-.68-.59A17.44,17.44,0,0,0,147.21,17a25.85,25.85,0,0,0-4.75-1.72,26.37,26.37,0,0,0-6.7-.77Z"/><path class="cls-1" d="M97.6,61.37,86.21,45.43V61.37H71.34V16.09H83.71l11.46,16v-16H110V61.37Zm5.27-6.31V22.4h-.73V54.13L79.48,22.4h-1V55.06h.73V23.33L101.9,55.06Z"/><path d="M109.54,16.59V60.87H97.86l-12.15-17v17H71.84V16.59H83.45L95.67,33.65V16.59h13.87m-7.9,36L79.74,21.9H78V55.56h1.73V24.89l21.9,30.67h1.73V21.9h-1.73V52.57m8.9-37H94.67v15L84.26,16l-.3-.42H70.84V61.87H86.71V47L97,61.45l.3.42h13.2V15.59Z"/><path class="cls-1" d="M44.78,14.5l6-11.28h10L53.32,14.5Zm6.47-3.65,2.6-4h-.77l-2.12,4Z"/><path d="M59.89,3.72,53.05,14H45.62L51.13,3.72h8.76M54.78,6.37h-2l-2.65,5h1.39l3.26-5m7-3.65H50.53l-.28.52L44.73,13.53,44,15h9.64l.3-.44L60.72,4.27l1-1.55Z"/><polygon class="cls-2" points="24.23 53.97 24.23 55.56 7.65 55.56 7.65 21.9 9.37 21.9 9.37 53.97 24.23 53.97"/><polygon class="cls-2" points="54.78 6.37 51.52 11.35 50.13 11.35 52.78 6.37 54.78 6.37"/><path class="cls-2" d="M47.47,21.9H50L62.8,55.56H61l-1.26-3.31H37.78l-1.26,3.31H34.66ZM59.09,50.65,48.73,23.5,38.38,50.65Z"/><polygon class="cls-2" points="101.64 52.57 101.64 21.9 103.37 21.9 103.37 55.56 101.64 55.56 79.74 24.89 79.74 55.56 78.01 55.56 78.01 21.9 79.74 21.9 101.64 52.57"/><path class="cls-2" d="M130.25,24.59a14,14,0,0,0-4.75,3.13,14.45,14.45,0,0,0-3.18,4.84,16,16,0,0,0-1.17,6.2,15.78,15.78,0,0,0,1.2,6.22,14.57,14.57,0,0,0,8.13,8,15.94,15.94,0,0,0,6,1.09A15,15,0,0,0,149,47.4V40.76h-5.31v-1.6h7v8.7a17.63,17.63,0,0,1-6,5.74,16.26,16.26,0,0,1-8.3,2.16,17.27,17.27,0,0,1-12-4.75,15.92,15.92,0,0,1-3.64-5.34,17.38,17.38,0,0,1-1.33-6.91,17.93,17.93,0,0,1,1.29-6.9,16,16,0,0,1,3.56-5.34A16.32,16.32,0,0,1,129.59,23a17,17,0,0,1,6.56-1.26,17.22,17.22,0,0,1,2.8.2,16.33,16.33,0,0,1,2.19.46,12,12,0,0,1,1.92.66L142,24.63c-.54-.18-1.1-.36-1.72-.53s-1.16-.27-1.87-.4a11.59,11.59,0,0,0-2.26-.2A15.87,15.87,0,0,0,130.25,24.59Z"/><path class="cls-2" d="M182.69,21.78a16.64,16.64,0,0,1,6.61,1.32,17.16,17.16,0,0,1,5.41,3.65,17.5,17.5,0,0,1,3.65,5.41,17.19,17.19,0,0,1,0,13.21,17.11,17.11,0,0,1-9.06,9.06,17.07,17.07,0,0,1-13.21,0A17.08,17.08,0,0,1,167,45.37a17.19,17.19,0,0,1,0-13.21,17.5,17.5,0,0,1,3.65-5.41,17.2,17.2,0,0,1,5.42-3.65A16.59,16.59,0,0,1,182.69,21.78Zm5.95,2.91a15.45,15.45,0,0,0-11.89,0,15.5,15.5,0,0,0-8.13,8.14,15.28,15.28,0,0,0,0,11.87,15.39,15.39,0,0,0,3.28,4.85,15.18,15.18,0,0,0,4.85,3.28,15.33,15.33,0,0,0,11.89,0,15,15,0,0,0,4.83-3.28,15.45,15.45,0,0,0,3.3-4.85,15.4,15.4,0,0,0,0-11.87,15.69,15.69,0,0,0-8.13-8.14Z"/><path class="cls-3" d="M207.05,47.13a22.41,22.41,0,0,0,3.06.73,23.72,23.72,0,0,0,3,.53,29.9,29.9,0,0,0,3.42.2c2,0,3-.75,3-2.26a2.54,2.54,0,0,0-.93-1.76,28.14,28.14,0,0,0-2.36-2c-.95-.73-2-1.53-3.05-2.42a22,22,0,0,1-3-3,15.72,15.72,0,0,1-2.36-3.89,12.33,12.33,0,0,1-.93-4.94,12.79,12.79,0,0,1,1.13-5.51,10.94,10.94,0,0,1,3.12-4,14.06,14.06,0,0,1,4.68-2.43,19.48,19.48,0,0,1,5.74-.83,31,31,0,0,1,3.19.17l2.85.3,2.86.4V28.81l-1.2-.13-1.19-.14c-.45,0-.91-.06-1.4-.06l-1,0a5.69,5.69,0,0,0-1.13.17,2.26,2.26,0,0,0-.93.46,1.13,1.13,0,0,0-.4.93c0,.35.3.8.9,1.33s1.32,1.15,2.19,1.86,1.81,1.52,2.85,2.45a20,20,0,0,1,2.86,3.19A18.61,18.61,0,0,1,234.24,43a13.67,13.67,0,0,1,.89,5,15.89,15.89,0,0,1-.93,5.48,11.72,11.72,0,0,1-2.88,4.45,13.84,13.84,0,0,1-5,3,21.14,21.14,0,0,1-7.23,1.1,45.26,45.26,0,0,1-4.68-.23c-1.44-.16-2.71-.35-3.82-.57a32.4,32.4,0,0,1-3.52-.79Zm5.58,8c.62.13,1.28.24,2,.33s1.27.16,2,.23a20.6,20.6,0,0,0,2.09.1,15,15,0,0,0,3.62-.43,9,9,0,0,0,3.15-1.43,7.33,7.33,0,0,0,2.23-2.55,8.11,8.11,0,0,0,.83-3.82,7.41,7.41,0,0,0-1-3.65,17,17,0,0,0-2.45-3.32,44.12,44.12,0,0,0-3.19-3.06q-1.69-1.45-3.19-3a18,18,0,0,1-2.45-3,5.62,5.62,0,0,1-1-3.08,4.57,4.57,0,0,1,1.53-3.69q1.53-1.29,4.91-1.29l1.1,0c.37,0,.74.06,1.09.1a7.69,7.69,0,0,0,1.07.07V22a8.91,8.91,0,0,1-1-.06,9.73,9.73,0,0,0-1-.1c-.37,0-.76,0-1.16,0a10,10,0,0,0-5.91,1.63,5.76,5.76,0,0,0-2.32,5.08,6.71,6.71,0,0,0,1,3.48A17.18,17.18,0,0,0,217,35.15c1,1,2.06,2.05,3.18,3s2.2,2,3.19,2.95a16.75,16.75,0,0,1,2.46,3.09,6.34,6.34,0,0,1,1,3.32,5.72,5.72,0,0,1-2.16,4.84A9.51,9.51,0,0,1,218.67,54a23.72,23.72,0,0,1-4.12-.33q-1-.14-1.92-.33Z"/><path class="cls-3" d="M236.13,38.77a23.89,23.89,0,0,1,1.86-9.6,22.39,22.39,0,0,1,5-7.33,21.85,21.85,0,0,1,7.44-4.68,24.9,24.9,0,0,1,9-1.63,28.49,28.49,0,0,1,6.73.73,31.9,31.9,0,0,1,5.08,1.66,23.71,23.71,0,0,1,4.25,2.33l-7,12.28A24.53,24.53,0,0,0,266.27,31a23.2,23.2,0,0,0-2.69-1,11.75,11.75,0,0,0-3.55-.5,9.74,9.74,0,0,0-3.79.73,9.85,9.85,0,0,0-3,2,9.16,9.16,0,0,0-2,3,9,9,0,0,0-.73,3.62,8.63,8.63,0,0,0,.76,3.61,9.41,9.41,0,0,0,2.09,3,10.09,10.09,0,0,0,3.12,2,10.25,10.25,0,0,0,3.92.73,12.5,12.5,0,0,0,3.78-.53,13.11,13.11,0,0,0,2.79-1.2,9.92,9.92,0,0,0,2.32-1.72l7,12.28A19.78,19.78,0,0,1,272,59.48a35.88,35.88,0,0,1-5.12,1.72A26.63,26.63,0,0,1,260,62a26.24,26.24,0,0,1-9.56-1.69,22.48,22.48,0,0,1-7.57-4.75,21.65,21.65,0,0,1-5-7.33A24.38,24.38,0,0,1,236.13,38.77Zm8.36,0a16.21,16.21,0,0,1,1.1-6A14.43,14.43,0,0,1,248.68,28a14.24,14.24,0,0,1,4.84-3.26,16.47,16.47,0,0,1,6.37-1.19,19.09,19.09,0,0,1,3.09.23,14.49,14.49,0,0,1,2.29.56,9.19,9.19,0,0,1,1.93.8l.93-1.59c-.71-.31-1.46-.6-2.26-.86a23.89,23.89,0,0,0-2.59-.6,18.77,18.77,0,0,0-3.39-.27,17.73,17.73,0,0,0-6.47,1.2A16.29,16.29,0,0,0,248,26.39a16.67,16.67,0,0,0-5.21,12.38,17.36,17.36,0,0,0,1.36,7,15.91,15.91,0,0,0,3.75,5.35,16.78,16.78,0,0,0,5.57,3.42,19.34,19.34,0,0,0,6.78,1.19,17.74,17.74,0,0,0,3.58-.33,22.11,22.11,0,0,0,2.72-.73,14,14,0,0,0,2.26-1.06l-.93-1.6a8.62,8.62,0,0,1-2,1,15.77,15.77,0,0,1-2.39.7,16.41,16.41,0,0,1-3.25.29,17.18,17.18,0,0,1-6.58-1.19,14.7,14.7,0,0,1-4.94-3.25,14.24,14.24,0,0,1-3.12-4.85A16.2,16.2,0,0,1,244.49,38.77Z"/><path class="cls-3" d="M277.88,16.59H292V31.66h7.9V16.59h14.21V60.87H299.92V44.48H292V60.87H277.88Zm8.37,39V38.77h19.51V55.56h1.73V21.91h-1.73V37.17H286.25V21.91h-1.73V55.56Z"/><path class="cls-4" d="M225.08,40.56a42,42,0,0,0-3.19-3.05c-1.13-1-2.19-2-3.19-3a18,18,0,0,1-2.45-3,5.54,5.54,0,0,1-1-3.08,4.57,4.57,0,0,1,1.53-3.69q1.53-1.29,4.91-1.29l1.1,0c.37,0,.74.06,1.09.1a7.69,7.69,0,0,0,1.07.07V22a8.78,8.78,0,0,1-1-.06,9.73,9.73,0,0,0-1-.1c-.38,0-.76,0-1.16,0a10.11,10.11,0,0,0-5.91,1.63,5.76,5.76,0,0,0-2.32,5.08,6.71,6.71,0,0,0,1,3.48A17.18,17.18,0,0,0,217,35.15a43.59,43.59,0,0,0,3.18,3c1.13,1,2.19,2,3.19,2.95a17.18,17.18,0,0,1,2.46,3.09,6.34,6.34,0,0,1,1,3.32,5.72,5.72,0,0,1-2.16,4.84A9.51,9.51,0,0,1,218.67,54a23.64,23.64,0,0,1-4.12-.33q-1-.14-1.92-.33V55.1c.62.13,1.28.24,2,.33s1.27.16,2,.23a20.46,20.46,0,0,0,2.09.1,15.07,15.07,0,0,0,3.62-.43,9,9,0,0,0,3.15-1.43,7.21,7.21,0,0,0,2.22-2.55,8,8,0,0,0,.83-3.82,7.4,7.4,0,0,0-1-3.65A17,17,0,0,0,225.08,40.56Z"/><polygon class="cls-4" points="286.25 21.91 284.52 21.91 284.52 55.56 286.25 55.56 286.25 38.77 305.76 38.77 305.76 55.56 307.49 55.56 307.49 21.91 305.76 21.91 305.76 37.17 286.25 37.17 286.25 21.91"/><path class="cls-4" d="M265.87,53a15.77,15.77,0,0,1-2.39.7,16.44,16.44,0,0,1-3.26.29,17.17,17.17,0,0,1-6.57-1.19,14.7,14.7,0,0,1-4.94-3.25,14.24,14.24,0,0,1-3.12-4.85,16.78,16.78,0,0,1,0-12,14.15,14.15,0,0,1,7.93-8.1,16.47,16.47,0,0,1,6.37-1.19,19.09,19.09,0,0,1,3.09.23,13.39,13.39,0,0,1,2.29.57,8.61,8.61,0,0,1,1.92.79l.93-1.59c-.7-.31-1.46-.6-2.25-.86a24.46,24.46,0,0,0-2.59-.6,18.85,18.85,0,0,0-3.39-.27,17.73,17.73,0,0,0-6.47,1.2A16.29,16.29,0,0,0,248,26.39a16.67,16.67,0,0,0-5.21,12.38,17.36,17.36,0,0,0,1.36,7,15.77,15.77,0,0,0,3.75,5.35,16.78,16.78,0,0,0,5.57,3.42,19.33,19.33,0,0,0,6.77,1.19,17.77,17.77,0,0,0,3.59-.33,22.11,22.11,0,0,0,2.72-.73,14.37,14.37,0,0,0,2.26-1.06l-.93-1.6A8.62,8.62,0,0,1,265.87,53Z"/></g></g></svg>