<svg xmlns="http://www.w3.org/2000/svg" viewBox="0 0 507.68 192.21"><defs><style>.cls-1,.cls-2{fill:#77c043;}.cls-2{stroke:#77c043;stroke-miterlimit:10;stroke-width:25px;}.cls-3{fill:#3d5829;}</style></defs><title>levelup</title><g id="Layer_2" data-name="Layer 2"><g id="Layer_1-2" data-name="Layer 1"><polygon class="cls-1" points="253.84 152.19 233.86 192.21 273.82 192.21 253.84 152.19"/><path class="cls-2" d="M253.84,28l75.77,151.73H295.12L253.84,97.07l-41.28,82.64h-34.5Z"/><path class="cls-3" d="M19.53,153H83l-9.77,19.54H0V84.64H19.53Z"/><path class="cls-3" d="M206.43,84.64H228L253.84,140l25.83-55.38h21.58L253.84,186.31Z"/><path class="cls-3" d="M444.2,153h63.48l-9.77,19.54H424.67V84.64H444.2Z"/><polygon class="cls-3" points="144.72 153 115.42 153 115.42 138.36 174.01 138.36 183.78 118.83 115.42 118.83 115.42 104.18 144.72 104.18 183.78 104.18 193.54 84.64 144.72 84.64 95.89 84.64 95.89 172.54 144.72 172.54 183.78 172.54 188.66 162.77 193.54 153 188.66 153 144.72 153"/><polygon class="cls-3" points="362.96 153 333.66 153 333.66 138.36 392.26 138.36 402.02 118.83 333.66 118.83 333.66 104.18 362.96 104.18 402.02 104.18 411.79 84.64 362.96 84.64 314.13 84.64 314.13 172.54 362.96 172.54 402.02 172.54 406.9 162.77 411.79 153 406.9 153 362.96 153"/></g></g></svg>