<svg xmlns="http://www.w3.org/2000/svg" viewBox="0 0 1093.63 900"><title>MMMK</title><g id="Layer_2"><g id="Réteg_3"><path d="M962,681,596.1,47.13c-36.28-62.84-127-62.84-163.26,0L68.12,678.85l.15.42L93,736.54q30.12-74.65,32.69-79c3.14,1.52,4.72,2.58,4.72,3.18l7.7-5h2.15l7.7,5q0-2,9.43-3.63h2.14q5.88,0,8.13,3.18v.45c0,.28-.54.61-1.42,1l4.81,3c0-.55.55-1.07,1.64-1.57l.73-1.27a12.27,12.27,0,0,0-2.54-.29v-1.81a8.55,8.55,0,0,1,5.18-2.46L506.14,85.6a9.62,9.62,0,0,1,16.66,0L892.07,725.2a9.62,9.62,0,0,1-8.33,14.43H625a16.44,16.44,0,0,1,7.9,3.65v.88c0,.66-1.28,1.25-3.85,1.77a5.43,5.43,0,0,0-1.71,3.53v1.32q0,3.42,15.84,27.37,16.38,27.92,20.56,32.66.65.78,10.7,2.21a8,8,0,0,1,1.72,4.85v2.65c0,.12,0,.22,0,.34a6.15,6.15,0,0,1,3.1,1.4.6.6,0,0,0,.08.08h15.53c.57-1.57,1.28-3.47,2.12-5.73,1-2.72,1.91-4.9,2.62-6.59s1.32-3,1.74-3.79l.61-1h0a2.64,2.64,0,0,0,.12-.38,36.68,36.68,0,0,1,2-5.26c.69-1.48,1.42-2.9,2.15-4.23a6,6,0,0,1,1.88-2.06,5.34,5.34,0,0,1,2.95-.91,7.24,7.24,0,0,1,6.36,3.42,12.52,12.52,0,0,1,1.61,6.79c0,2.8-.81,6.4-2.48,11-.94,2.59-2.22,5.55-3.75,8.78h3a5.47,5.47,0,0,1,4.05-2.18,5.7,5.7,0,0,1,4.65,2.18h8.75a8.14,8.14,0,0,1-.44-.94,12,12,0,0,1-.63-4.17c0-2,.9-4,2.75-6.35a11.24,11.24,0,0,1,4.12-3.45l1.72-2,.41-.28a8.48,8.48,0,0,1,2.52-1.15,11,11,0,0,1,3-.37,6.55,6.55,0,0,1,4.43,1.46,5.75,5.75,0,0,1,1.93,4.42v.4l-.63,3,0,.12q-.54,2-1,3.24c-.29.91-.52,1.56-.68,2a10.49,10.49,0,0,1-2.05,3.21,11.32,11.32,0,0,1-1.08,1h71.38l1.34-1.52a15.33,15.33,0,0,1,4.58-4.49,11.7,11.7,0,0,1,6.08-1.7,6.29,6.29,0,0,1,5.55,3.23,10.42,10.42,0,0,1,1.21,4.48h42.71C953,822.34,998.32,743.8,962,681Z"/><path d="M443.46,500.36c-2.06,9.79-.39,20.16-3.07,29.8a67.68,67.68,0,0,1-5.17,12.2l-33.35,66.31a55.92,55.92,0,0,0-4.06,9.54c-1,3.44-1.32,7.16-3.28,10.15-3.19,4.88-9.89,6.63-11.47,13.13a2.33,2.33,0,0,0-.05.79c.48,5.11,3.47,5.54,6.22,5.88L404.38,650a4,4,0,0,0,1.73-.15c7.53-2.47,4.75-7.26,5.51-11.39,1.5-8.1,14.53-8.91,17.18-16.71a28.09,28.09,0,0,0,.78-5.44c.61-4.77,3-9.11,5.35-13.31l11.68-20.9a130.76,130.76,0,0,1,7.68-12.63c3.13-4.37,6.78-8.35,9.8-12.8,7-10.24,10.31-22.45,15.41-33.74a115.77,115.77,0,0,1,12.87-21.77c4.09-5.46,9.51-10.9,15.85-12.5a12.16,12.16,0,0,1,5.63,3.21c2.11,2.25,3,5.32,4.19,8.18a46.73,46.73,0,0,0,15.43,20c4.11,3.05,9,5.75,10.85,10.51,1.41,3.65.71,7.84,2,11.51,1.66,4.55,6.1,7.48,8.6,11.62,1.94,3.23,2.63,7,3.41,10.71a156.73,156.73,0,0,0,21.74,52.47c3.49,5.37,7.45,10.93,7.73,17.33.18,3.95-1.09,8,2.55,11.62a1.12,1.12,0,0,0,.63.27c9.89.58,19.82.71,29.72.65h.07a3.26,3.26,0,0,0,2.61-5.4c-3.39-3.91-7.58-7.25-11.14-11.05A52.51,52.51,0,0,1,598.58,601c-.46-3.8-.51-7.67-1.39-11.4-1.08-4.59-3.37-8.81-4.65-13.34-1.2-4.23-1.5-8.66-2-13C587,533,572.19,503.14,550.88,481.45c-2.68-2.73-5.55-5.45-7.07-9a14,14,0,0,1-.94-7.19c2.31-2,5.72-1.56,8.45-.38,2.51,1.08,4.82,2.69,7.48,3.35,4.71,1.17,9.75-.93,13.32-4.22s5.94-7.64,8.25-11.91l59.41-.28a11.28,11.28,0,0,0,9,5.62c1.4.09,2.82-.09,4.22,0,1.85.11,3.65.66,5.49.85a14.34,14.34,0,0,0,13.62-7c1.78-3.14,2.37-7.05-2.41-11a1.69,1.69,0,0,0-.31-.21c-2.06-1.11-4.44-1.12-6.74-1.12L653,439a16.59,16.59,0,0,0-13.28,4.26l-90-1c-3.56.51-7.36,1-10.61-.56s-5.38-5.95-3.28-8.86c1.42-2,4.49-4,3-5.89a4.39,4.39,0,0,0-2.24-1.07c-3.5-1.1-5.88-4.5-6.79-8.05s-.57-7.29-.24-10.95q.76-8.47,1.54-17a28.54,28.54,0,0,0,.06-6.91c-.68-4.39-3.37-8.23-6.5-11.39a26.11,26.11,0,0,1-4.52-5.18c-1.13-2-1.47-4.65-.15-6.53,1.52-2.15,4.49-2.51,6.9-3.58,5.49-2.44,8.84-9.16,14.81-9.79,3.9-.42,8.69,1.78,10.52-3.44.27-4.51-2.9-6.92-4.83-10.11-3.83-6.32-2.34-14.84-6.22-21.14a20.67,20.67,0,0,0-6.7-6.35c-6.72-4.27-15.27-6.31-22.79-3.68-6.25,2.19-11.12,7.36-14.16,13.24s-4.46,12.46-5.51,19c-.34,2.14-.79,4.5-2.35,5.92-2.3-2.08-4.72-4.11-6.05-6.85-1.49-3.09-1.38-6.69-1.47-10.13-.56-19.84-9.09-39-8.34-58.82.16-4.19.78-8.48,2.87-12.12,2.45-4.24,6.65-7.16,9.55-11.1s4.82-8.9,9.34-10.3c3.58-1.11,7.83.54,9.72-7.33a2.76,2.76,0,0,0,.05-1c-1.28-9-12.3-7.91-14.91-1.84-.89,2.07-1,4.54-2.41,6.27-3.11,3.75-9.12,1.16-14,1.65-6.42.65-10.59,6.85-13.82,12.43a5.37,5.37,0,0,0-1,2.82c.05,1.42,1.18,2.53,1.88,3.76,2.28,4,0,9-1.56,13.33-2.86,8.18-2.8,17.05-2.71,25.72l.36,34.76c0,4,.1,8.15,1.33,12,.88,2.75,2.34,5.28,3.25,8,2.94,8.88-.23,18.5-.25,27.86,0,12.12,5.24,23.57,7.34,35.51a8.38,8.38,0,0,1-2.67,9.23c-7,7-15.9,12.63-19.81,21.69a33.86,33.86,0,0,0-2.36,13.72,58,58,0,0,0,5.8,24.67l0,.05c0,1.25-.05,2.5-.17,3.75C449,485.49,445.07,492.67,443.46,500.36Z"/><path d="M117.05,815.21a12.17,12.17,0,0,1,4.86-1.24c.59-.05,1.2-.08,1.86-.08,2.07,0,3.5-.52,4.32-1.55a4.11,4.11,0,0,0,.82-2.67,2.31,2.31,0,0,1,1.71,1.69q6.4-.15,10.47-.53c.72-.07,1.38-.14,2-.22,3.38-.43,5.09-1,5.09-1.78h5.14a65.93,65.93,0,0,0,7.5-2.39c.87-.38,1.35-.68,1.45-.93,0,0,0,0,0-.06v-.85l-.86-.84.43-2.11v-5.07l-1.63.2-1.79.22-.86-.85v-1.69L158,794c2.57-.49,3.85-1.06,3.85-1.69V757.29a15.49,15.49,0,0,1,5.14-8.87c3.43-.7,5.14-1.41,5.14-2.11v-.85a9,9,0,0,0-6.85-3.38h-3.43V678.3a16.8,16.8,0,0,1,3.43-5.07l1.84-.48c4.07-1.1,6.17-1.92,6.29-2.48v-.42a6.83,6.83,0,0,0-3.31-2.27,15.07,15.07,0,0,0-4.82-.69h-2.14q-9.42,1.49-9.43,3.38l-7.7-4.64h-2.15l-7.7,4.64q0-.84-4.71-3-3,4.76-43.69,98.85h-.43L83.08,755.6c.86-4,1.71-6.4,2.57-7.18,2.14-.77,3.28-1.48,3.43-2.11v-.85a11,11,0,0,0-7.71-3.38H77.09L58.32,700.5,51,684.21q-2.33-6-4.09-9.9c-.2-.45-.4-.87-.59-1.28-1.8-3.8-3.1-5.72-3.88-5.72l-5.14,2.54h-.43c-3.71-2.82-6.14-4.22-7.28-4.22h-.86l-5.09,3.22-.08.06-.82.52q-5.35-2.53-9-2.54H12a20.59,20.59,0,0,0-4.15.38,8.34,8.34,0,0,0-4.41,2.16v1.68a12.46,12.46,0,0,1,5.36,1.15,13.11,13.11,0,0,1,5.77,5.61v64.64q-6.83,0-9,3.35l0,0v.43a2.84,2.84,0,0,0,1.77,1.58,3,3,0,0,0,.8.11q6.42,1.47,6.42,9.29v45.2q0,8.43-3.84,8.45h0c-1.42,0-2.65.06-3.78.16l-.49,0a14.59,14.59,0,0,0-4.17.94c-1.49.63-2.27,1.5-2.27,2.66v6.34c.21.84,1.07,1.26,2.57,1.26H43.68l1.72-1.69v-.42H45l-1.72,1.69-2.14-1.69a2.37,2.37,0,0,1-2.57-2.11c.43-1.69,1.29-2.54,2.57-2.54V816a1.51,1.51,0,0,1,1.72,1.69l.85-.85h.43l.43.42h.86q0-5.91-4.29-5.91H36.4l-2.57-.42h0c-.81,0-1.48-.76-2-2.22-.93-2.61-1.39-7.49-1.39-14.67V715.47h.43l12,27a10.06,10.06,0,0,0-7.71,3l.42,1.69c4.72,1.06,8.28,2.89,10.71,5.49Q49.64,756.09,66.4,796l.41,1h.43l8.61-1.58,3-.53c3,0,4.9,1.58,5.73,4.72a9.53,9.53,0,0,1,.26,1.19,3.19,3.19,0,0,1-1.09.93,3.25,3.25,0,0,1-1.47.34H80.08a16.91,16.91,0,0,1-1.94-.13,8.78,8.78,0,0,1-5.76-2.41l-1.29.42-2.57-1.26-.43.42,1,2.37c2,4.7,3.69,8.46,5,11.32l0,.11c1,2.12,1.76,3.74,2.34,4.83a9.25,9.25,0,0,0,1,1.65h3c2.14-3.94,3.43-5.92,3.86-5.92l3.47-8.23L90,800.07l1.83-4.34,11.68-27.64,23.65-56h.43v30.42h-.86a11.48,11.48,0,0,0-8.56,3.37l.86,1.27q8.56,2.75,8.56,8.87v37.6l.43.42.95-1.25.33-.44.48.12,2.95.73h1.71l3.43-1.27,3,.85c.85,0,1.28-.29,1.28-.85l-.27-.45-1-1.66.43-.43,1.71.43q1.28,2.11,5.57,2.11h3.85a3.58,3.58,0,0,1,1.62.38,3.5,3.5,0,0,1,1.81,2.15,2.78,2.78,0,0,1-.45,1.51c-.75,1.2-2.44,2.11-5.12,2.72L147.75,797h-2.14l-.43.42a6.31,6.31,0,0,0-.25-.58c-.54-1.28-1-2-1.46-2H140.9v1.26h-.43a10.76,10.76,0,0,0-2.69-1.38l-.12,0a5.16,5.16,0,0,0-1.47-.27c-1.54,0-2.85.11-4,.21-3.06.27-4.6.76-4.6,1.48v9.72a5.28,5.28,0,0,1-3.43,5.07h-.39l-.69,0c-1.25,0-2.4.09-3.42.2a15.67,15.67,0,0,0-4,.91c-1.72.71-2.6,1.73-2.6,3.08v2.11l.43.43,1.28-.43A6.09,6.09,0,0,1,117.05,815.21Zm-83.22-1.74h1.29v.42H33.83Zm-4.71-130.1v.42l-.43.42-1.28-1.27v-.84h1.28ZM21.41,797.84v.42l.43.43v.84c0,1.41-.43,2.26-1.28,2.54H19.7l-.43-.42C19.27,799.11,20,797.84,21.41,797.84Zm-4.71,2.54h.86l1.28,1.27v.84c-.14.56-.85,1.13-2.14,1.69l-.85-.84Zm-2.57,10.56v-1.69L15.42,808c1.57,0,2.57.57,3,1.69v.85c0,.49-.85,1.05-2.56,1.69C14.7,812.21,14.13,811.78,14.13,810.94Zm9,5.07-5.57-2.12,2.14-2.11c1.71,0,2.57,1,2.57,3h.43l.43-.42.42,1.26Zm8.13,0-.42-.43q0-.63,1.71-1.26H33l.42.42C33.4,815.23,32.69,815.66,31.26,816Zm0-136.45-.85-.84.85-.85H33.4C33.26,678.44,32.55,679,31.26,679.56Zm3.86,1.69h-.43L34.26,680v-.43h.43l.43.43ZM78.8,805.45v.42h-.86l-.85-.85v-.84l.42-.42Zm4.71,4.22-.43,2.11H81.8c0-1.4.43-2.25,1.28-2.53h.43Zm75.37-38.44-1.28.42-2.57-.42V770l1.28-.42V770C158,770,158.88,770.39,158.88,771.23Zm2.57,11h-.85l-.86-.84v-.85Zm-1.71-4.64-.86.84h-.42V778l1.28-1.27Zm-4.28-4.23h.43l.42-.42h.43c.5,0,1.07.84,1.72,2.54v.42C157.1,775.88,156.1,775,155.46,773.34Zm4.71,29.57a2.74,2.74,0,0,1-2.57,1.69l-2.14-.42v-1.69l1.71-1.27C159.17,801.58,160.17,802.14,160.17,802.91Zm-.86-11-.43.42-1.28-1.27v-.84h1.28l.43,1.27Zm-22.7-8H137l.43-.42.86.85v1.26h-.43C137.47,785.59,137,785,136.61,783.9ZM134,698.15c0-.49,1-.91,3-1.27l2.14.85c0,1.13-.85,2-2.57,2.53-1.71-.56-2.57-1.12-2.57-1.69Zm5.14,90-.85-.85v-.42l2.14-.84v.42l.43.42C140.9,787.28,140.32,787.7,139.18,788.13ZM146,737.86h-.43l-.43-1.27v-.42h.43l.43,1.27Zm1.28,48.58v-1.69l.86-.85H149A2.72,2.72,0,0,1,147.32,786.44Zm4.71-5.92a3.85,3.85,0,0,1-3.42-2.11V778l.85-.84h.43a3.36,3.36,0,0,1,3.43,2.53ZM145.61,805h1.28c.86.22,1.29,1.06,1.29,2.54h-2.57l-.43-.42Zm-6.43-7.18a2.79,2.79,0,0,1,2.15,3c0,.42-.58.85-1.72,1.27-1.43,0-2.28-.42-2.57-1.27v-1.27C137.18,799,137.9,798.41,139.18,797.84Z"/><path d="M290.28,815.21a12.17,12.17,0,0,1,4.86-1.24c.59-.05,1.2-.08,1.86-.08,2.07,0,3.5-.52,4.32-1.55a4.11,4.11,0,0,0,.82-2.67,2.31,2.31,0,0,1,1.71,1.69q6.4-.15,10.47-.53c.72-.07,1.39-.14,2-.22,3.38-.43,5.09-1,5.09-1.78h5.14a65.93,65.93,0,0,0,7.5-2.39c.87-.38,1.35-.68,1.45-.93,0,0,0,0,0-.06v-.85l-.86-.84.43-2.11v-5.07l-1.63.2-1.79.22-.86-.85v-1.69l.43-.42c2.57-.49,3.85-1.06,3.85-1.69V757.29a15.49,15.49,0,0,1,5.14-8.87c3.43-.7,5.14-1.41,5.14-2.11v-.85a9,9,0,0,0-6.85-3.38h-3.43V678.3a16.8,16.8,0,0,1,3.43-5.07c5.28-1.34,8-2.32,8.14-3v-.42c-1.5-2-4.22-3-8.14-3H336.4q-9.42,1.49-9.43,3.38l-7.7-4.64h-2.15l-7.7,4.64q0-.84-4.71-3-3,4.76-43.69,98.85h-.43l-4.28-10.56q1.29-6,2.57-7.18c2.14-.77,3.28-1.48,3.43-2.11v-.85a11,11,0,0,0-7.71-3.38h-4.28l-26.13-57.87q-2.33-6-4.09-9.9c-.2-.45-.4-.87-.59-1.28-1.8-3.8-3.09-5.72-3.88-5.72l-5.14,2.54h-.43c-3.71-2.82-6.14-4.22-7.28-4.22h-.86l-5.09,3.22-.08.06-.82.52q-5.35-2.53-9-2.54h-1.71q-6.1,0-8.56,2.54v1.68a13.53,13.53,0,0,1,1.58.1,11.86,11.86,0,0,1,9.55,6.66v64.64q-6.85,0-9,3.37v.43a2.73,2.73,0,0,0,2.57,1.69q6.42,1.47,6.42,9.29v45.2q0,8.43-3.84,8.45h0c-1.42,0-2.65.06-3.78.16l-.49,0a14.59,14.59,0,0,0-4.17.94c-1.49.63-2.27,1.5-2.27,2.66V817c-.4-2.34-1-3.53-1.93-3.53-1.37,0-2.63.81-3.79,2.32-.16.21-.33.4-.49.64H167q-5.08.31-5.09,2.53h-.43a21.72,21.72,0,0,0-1.69-1.46,7.65,7.65,0,0,0-2.59-1.5h-.43l-.43.42-10.7-.42a7.25,7.25,0,0,0-4.92,1.48,4.31,4.31,0,0,0-.65.63v.42l.43.43-1.29.84-2.5-1.85-.92-.69h-3.43c-.61,0-1.27,0-2,.09-4.08.32-9.55,1.55-16.45,3.72h0v.41l.64.64.21.2h4.71c.29-1.69,1-2.53,2.15-2.53l1.71,2.53H163.6l2.14-1.69H167c0,1.13.29,1.69.86,1.69h49l1.72-1.69v-.42h-.43l-1.72,1.69-2.14-1.69a2.37,2.37,0,0,1-2.57-2.11c.43-1.69,1.29-2.54,2.57-2.54V816a1.51,1.51,0,0,1,1.72,1.69l.85-.85h.43l.43.42h.86q0-5.91-4.29-5.91h-4.71l-2.57-.42h0c-.81,0-1.48-.76-2-2.22-.93-2.61-1.39-7.49-1.39-14.67V715.47h.43l12,27a10.06,10.06,0,0,0-7.71,3l.43,1.69q7.07,1.59,10.7,5.49,3.39,3.45,20.15,43.39l.41,1h.43l8.61-1.58,2.95-.53c3,0,4.9,1.58,5.73,4.72a11.67,11.67,0,0,1,.27,1.19,3.32,3.32,0,0,1-1.1.93,3.25,3.25,0,0,1-1.47.34h-2.15a16.91,16.91,0,0,1-1.94-.13,8.78,8.78,0,0,1-5.76-2.41l-1.29.42-2.57-1.26-.43.42,1,2.37c2,4.7,3.69,8.46,5,11.32l0,.11c1,2.12,1.76,3.74,2.34,4.83a9.25,9.25,0,0,0,1,1.65h3c2.14-3.94,3.43-5.92,3.86-5.92l3.47-8.23,2.19-5.17,1.83-4.34,35.33-83.64h.43v30.42H300a11.48,11.48,0,0,0-8.56,3.37l.86,1.27q8.56,2.75,8.56,8.87v37.6l.43.42,1-1.25.33-.44.48.12,2.95.73h1.71l3.43-1.27,3,.85c.85,0,1.28-.29,1.28-.85l-.27-.45-1-1.66.43-.43,1.71.43q1.28,2.11,5.57,2.11h3.85a3.58,3.58,0,0,1,1.62.38,3.5,3.5,0,0,1,1.81,2.15,2.78,2.78,0,0,1-.45,1.51c-.75,1.2-2.44,2.11-5.12,2.72L321,797h-2.14l-.43.42a6.31,6.31,0,0,0-.25-.58c-.54-1.28-1-2-1.46-2h-2.57v1.26h-.43a10.76,10.76,0,0,0-2.69-1.38l-.12,0a5.16,5.16,0,0,0-1.47-.27c-1.54,0-2.85.11-4,.21-3.06.27-4.6.76-4.6,1.48v9.72a5.29,5.29,0,0,1-3.42,5.07H297l-.69,0c-1.25,0-2.4.09-3.42.2a15.67,15.67,0,0,0-4,.91c-1.72.71-2.6,1.73-2.6,3.08v2.11l.43.43,1.28-.43A6.09,6.09,0,0,1,290.28,815.21Zm-146,5.44h-2.14c0-.63,1.14-1.33,3.43-2.11l1.28.85C146.68,820.23,145.82,820.65,144.32,820.65Zm8.57-.84-2.14.42h-.86l-.86-.84V819l3-.85.86.85Zm54.17-6.34h1.29v.42h-1.29Zm-4.71-130.1v.42l-.43.42-1.28-1.27v-.84h1.28Zm-7.71,114.47v.42l.43.43v.84c0,1.41-.43,2.26-1.28,2.54h-.86l-.43-.42C192.5,799.11,193.22,797.84,194.64,797.84Zm-4.71,2.54h.86l1.28,1.27v.84c-.14.56-.85,1.13-2.14,1.69l-.85-.84Zm-2.57,10.56v-1.69l1.29-1.27c1.57,0,2.57.57,3,1.69v.85c0,.49-.86,1.05-2.57,1.69C187.93,812.21,187.36,811.78,187.36,810.94Zm9,5.07-5.57-2.12,2.14-2.11c1.71,0,2.57,1,2.57,3h.43l.43-.42.43,1.26Zm8.13,0-.42-.43q0-.63,1.71-1.26h.43l.42.42C206.63,815.23,205.92,815.66,204.49,816Zm0-136.45-.85-.84.85-.85h2.14C206.49,678.44,205.78,679,204.49,679.56Zm3.86,1.69h-.43l-.43-1.26v-.43h.43l.43.43ZM252,805.45v.42h-.86l-.85-.85v-.84l.42-.42Zm4.71,4.22-.43,2.11H255c0-1.4.43-2.25,1.28-2.53h.43Zm50.54-111.52c0-.49,1-.91,3-1.27l2.14.85c0,1.13-.85,2-2.57,2.53-1.71-.56-2.56-1.12-2.56-1.69Zm2.56,85.75h.43l.43-.42.86.85v1.26h-.43C310.7,785.59,310.27,785,309.84,783.9Zm2.57,4.23-.85-.85v-.42l2.14-.84v.42l.43.42C314.13,787.28,313.55,787.7,312.41,788.13Zm6.86-50.27h-.43l-.43-1.27v-.42h.43l.43,1.27Zm1.28,48.58v-1.69l.86-.85h.85A2.72,2.72,0,0,1,320.55,786.44Zm4.71-5.92a3.85,3.85,0,0,1-3.42-2.11V778l.85-.84h.43a3.35,3.35,0,0,1,3.43,2.53Zm3.43-7.18h.43l.42-.42H330c.5,0,1.07.84,1.72,2.54v.42C330.33,775.88,329.33,775,328.69,773.34Zm4.71,29.57a2.74,2.74,0,0,1-2.57,1.69l-2.14-.42v-1.69l1.71-1.27C332.4,801.58,333.4,802.14,333.4,802.91Zm-.86-11-.43.42-1.28-1.27v-.84h1.28l.43,1.27Zm1.29-9.72-.86-.84v-.85l1.71,1.69Zm-.86-4.64-.86.84h-.42V778l1.28-1.27ZM328.26,770l1.28-.42V770c1.72,0,2.57.43,2.57,1.27l-1.28.42-2.57-.42ZM318.84,805h1.28c.86.22,1.29,1.06,1.29,2.54h-2.57l-.43-.42Zm-6.43-7.18a2.79,2.79,0,0,1,2.15,3c0,.42-.58.85-1.72,1.27-1.43,0-2.28-.42-2.57-1.27v-1.27C310.41,799,311.13,798.41,312.41,797.84Z"/><path d="M335.38,818.07a1.64,1.64,0,0,0-.27.9h-.43a21.72,21.72,0,0,0-1.69-1.46,7.65,7.65,0,0,0-2.59-1.5H330l-.43.42-10.7-.42a7.25,7.25,0,0,0-4.92,1.48,4.31,4.31,0,0,0-.65.63v.42l.43.43-1.29.84-2.5-1.85-.92-.69h-3.43c-.61,0-1.27,0-2,.09-4.08.32-9.55,1.55-16.45,3.72h0v.41l.64.64.21.2h4.71c.29-1.69,1-2.53,2.15-2.53l1.71,2.53H335.8c-.09-.45-.17-.94-.24-1.5C335.46,820,335.41,819.09,335.38,818.07Zm-17.83,2.58h-2.14c0-.63,1.14-1.33,3.43-2.11l1.28.85C319.91,820.23,319.05,820.65,317.55,820.65Zm8.57-.84-2.14.42h-.86l-.86-.84V819l3-.85.86.85Z"/><path d="M383.58,822.16l.2-.53c.53-1.44,1.05-3,1.55-4.54s1.09-3.4,1.68-5.19c.06-.16.11-.37.17-.54h-4.1c-.09.48-.19,1-.29,1.49l-.15.74c-.19.94-.4,1.92-.62,2.95,0,.83-.14,1.81-.29,3l-.36,2.85h2.2Z"/><path d="M474.08,712.09v30.42h-.85a11.49,11.49,0,0,0-8.57,3.37l.86,1.27q8.57,2.75,8.56,8.87v37.6l.43.42.95-1.25.33-.44.48.12,3,.73h1.71l3.43-1.27,3,.85c.85,0,1.28-.29,1.28-.85l-.27-.45-1-1.66.43-.43,1.71.43c.86,1.41,2.71,2.11,5.57,2.11h3.85a3.58,3.58,0,0,1,1.62.38,3.5,3.5,0,0,1,1.81,2.15,2.78,2.78,0,0,1-.45,1.51c-.75,1.2-2.44,2.11-5.12,2.72L494.21,797h-2.14l-.43.42a6.31,6.31,0,0,0-.25-.58c-.54-1.28-1-2-1.46-2h-2.57v1.26h-.43a10.76,10.76,0,0,0-2.69-1.38l-.12,0a5.16,5.16,0,0,0-1.47-.27c-1.54,0-2.85.11-4,.21-3.05.27-4.6.76-4.6,1.48v9.72a5.29,5.29,0,0,1-3.42,5.07h-.4l-.69,0c-1.25,0-2.4.09-3.42.2a15.67,15.67,0,0,0-4,.91c-1.72.71-2.6,1.73-2.6,3.08v2.11l.43.43,1.28-.43a6.09,6.09,0,0,1,2.28-2.06,12.18,12.18,0,0,1,4.87-1.24c.58-.05,1.2-.08,1.85-.08,2.07,0,3.5-.52,4.32-1.55a4.11,4.11,0,0,0,.82-2.67,2.31,2.31,0,0,1,1.71,1.69q6.41-.15,10.47-.53c.72-.07,1.39-.14,2-.22,3.38-.43,5.09-1,5.09-1.78h5.14a65.93,65.93,0,0,0,7.5-2.39c.87-.38,1.35-.68,1.45-.93,0,0,0,0,0-.06v-.85l-.86-.84.43-2.11v-5.07l-1.63.2-1.79.22-.86-.85v-1.69l.43-.42c2.57-.49,3.85-1.06,3.85-1.69V757.29a15.49,15.49,0,0,1,5.14-8.87c3.43-.7,5.14-1.41,5.14-2.11v-.85a9,9,0,0,0-6.85-3.38h-3.43V678.3a16.8,16.8,0,0,1,3.43-5.07c5.28-1.34,8-2.32,8.14-3v-.42c-1.5-2-4.22-3-8.14-3h-2.14q-9.42,1.49-9.42,3.38l-7.71-4.64h-2.14l-7.71,4.64q0-.84-4.71-3-3,4.76-43.69,98.85h-.42l-4.29-10.56q1.29-6,2.57-7.18c2.14-.77,3.28-1.48,3.43-2.11v-.85a11,11,0,0,0-7.71-3.38h-4.28l-26.13-57.87q-2.32-6-4.09-9.9c-.2-.45-.4-.87-.59-1.28-1.8-3.8-3.09-5.72-3.88-5.72l-5.14,2.54h-.43c-3.71-2.82-6.14-4.22-7.28-4.22h-.86l-5.09,3.22-.08.06-.82.52q-5.36-2.53-9-2.54h-1.71q-6.1,0-8.56,2.54v1.68a13.53,13.53,0,0,1,1.58.1,11.86,11.86,0,0,1,9.55,6.66v64.64q-6.86,0-9,3.37v.43A2.73,2.73,0,0,0,354.6,748q6.42,1.47,6.42,9.29v45.2q0,8.43-3.84,8.45h0c-.76,0-1.46,0-2.14,0,.06.71.1,1.42.13,2.13,0,.16,0,.32,0,.48.08.85.11,1.8.11,2.82s0,2.18-.11,3.48c0,.89,0,1.71-.06,2.44h7.2c.7-2.51,1.38-5.3,2-8.31l-.35-.14.47-.46c.51-2.35,1-4.8,1.47-7.42a24,24,0,0,1,1.21-4c-.06,0-.1.07-.15.09h-.86l-.43-.42c0-2.54.72-3.81,2.14-3.81v.42l.43.43v.84c0,.1,0,.18,0,.27a10.22,10.22,0,0,1,1-1.3,7.12,7.12,0,0,1,3.19-2.19l4-1.43.46-.16V715.47h.43l12,27a10.06,10.06,0,0,0-7.71,3l.43,1.69q7.07,1.59,10.7,5.49,3.39,3.45,20.15,43.39l.41,1h.43l8.61-1.58,2.95-.53c3,0,4.9,1.58,5.73,4.72a11.67,11.67,0,0,1,.27,1.19,3.14,3.14,0,0,1-2.57,1.27h-2.15a16.91,16.91,0,0,1-1.94-.13,8.78,8.78,0,0,1-5.76-2.41l-1.29.42L415,798.69l-.43.42,1,2.37q3,7,5,11.32l.05.11c1,2.12,1.76,3.74,2.34,4.83a8.52,8.52,0,0,0,1,1.65h3c2.14-3.94,3.43-5.92,3.86-5.92l3.48-8.23,2.18-5.17,1.83-4.34,35.33-83.64Zm12,90c-1.43,0-2.28-.42-2.57-1.27v-1.27c.15-.56.86-1.12,2.14-1.69a2.79,2.79,0,0,1,2.15,3C487.79,801.22,487.21,801.65,486.07,802.07Zm6,5.49-.43-.42.43-2.12h1.28c.86.22,1.29,1.06,1.29,2.54Zm9.85-34.22h.43l.42-.42h.43c.5,0,1.07.84,1.72,2.54v.42C503.56,775.88,502.56,775,501.92,773.34Zm4.71,29.57a2.74,2.74,0,0,1-2.57,1.69l-2.14-.42v-1.69l1.71-1.27C505.63,801.58,506.63,802.14,506.63,802.91Zm-.86-11-.42.42-1.29-1.27v-.84h1.29l.42,1.27Zm1.29-9.72-.86-.84v-.85l1.71,1.69Zm-.86-4.64-.85.84h-.43V778l1.28-1.27ZM501.49,770l1.28-.42V770c1.72,0,2.58.43,2.58,1.27l-1.29.42-2.57-.42Zm-6.42,8,.85-.84h.43a3.35,3.35,0,0,1,3.43,2.53l-1.29.84a3.85,3.85,0,0,1-3.42-2.11Zm-1.29,6.76.86-.85h.85a2.72,2.72,0,0,1-1.71,2.54Zm-2.14-48.58h.43l.43,1.27v.42h-.43l-.43-1.27ZM364.88,810.52c0,.49-.86,1.05-2.57,1.69-1.15,0-1.72-.43-1.72-1.27v-1.69l1.29-1.27c1.57,0,2.57.57,3,1.69Zm.42-8c-.14.56-.85,1.13-2.14,1.69l-.85-.84.85-3H364l1.28,1.27Zm10.28-119.12v.42l-.43.42-1.28-1.27v-.84h1.28Zm2.14-3.81-.85-.84.85-.85h2.15C379.72,678.44,379,679,377.72,679.56Zm3.86,1.69h-.43l-.43-1.26v-.43h.43l.43.43Zm43.68,124.2v.42h-.86l-.85-.85v-.84l.43-.42Zm4.71,4.22-.43,2.11h-1.28c0-1.4.43-2.25,1.28-2.53H430Zm54.82-25.34v1.26h-.43c-.43,0-.86-.56-1.29-1.69h.43l.43-.42Zm.85,3.8-.85-.85v-.42l2.14-.84v.42l.43.42C487.36,787.28,486.79,787.7,485.64,788.13Zm-5.13-90c0-.49,1-.91,3-1.27l2.14.85c0,1.13-.85,2-2.57,2.53-1.71-.56-2.56-1.12-2.56-1.69Z"/><path d="M640.36,671.87l.1.51h.86c.24,0,.57-.45,1-1.33a29.82,29.82,0,0,0,1.16-2.89,4.91,4.91,0,0,0,1.44-.17c.45-.14.7-.36.7-.68v-.42H643a10.85,10.85,0,0,0-6.17,1.55,6.29,6.29,0,0,0-1.54,1.41q-1.8,0-5.43-3.3c-.32-.29-.65-.59-1-.92h-2.14l-.43.42c-.29.4-.55.72-.81,1.05a8.22,8.22,0,0,1-2.21,2.18,1.08,1.08,0,0,1-.41.15v.42l.43.42-3.85,2.11c0,.22.29.51.88.86a21.25,21.25,0,0,0,2.54,1.26c.15,0,.33,0,.5,0s.5,0,.79-.08a27.06,27.06,0,0,0,5.14-1.56v.42l.42.42v1.27c0,.56-.42.84-1.28.84q-8.57,3.06-8.57,5.07v1.27c0,.49.72.91,2.15,1.27l-.43,1.26.85.85h.43l1.29-.85h2.14l2.14,1.69h.43l3.42-3.8v-3l-2.14-2.11v-.84l.43-2.11a13.35,13.35,0,0,0,4.79.82l.78,0,2-2.41.11-.12-.86-2.54a5,5,0,0,1,3-1.27l-.43,1.27ZM625,682.1h-.43l-.85-.85v-1.69H625l.43,1.27Zm6.43-.85v1.27l-.86,1.27c-1.43,0-2.29-.56-2.57-1.69,0-.85.28-1.27.86-1.27h.43Z"/><path d="M614.31,698.74l-.83-.17-.86.85v1.27l1.21,1.18.08.08h.43l1.07-1.14,1.66-1.76,2.83-3v-.42a5.92,5.92,0,0,0-2.66.51,2.81,2.81,0,0,0-1.58,2.35c0,.17,0,.33,0,.52Z"/><polygon points="614.76 667.74 615.19 668.16 616.05 667.31 614.76 667.31 614.76 667.74"/><path d="M613.48,669.43l-2.57.84-1.29-3c-2.85.71-4.28,1.41-4.28,2.12v.84l1.29,1.27,2.14-1.69v.42c0,1.48,1,2.47,3,3,.17-.05.28-.11.44-.16,2-.65,3-1.3,3-2v-.42l-1.17-.86Z"/><path d="M604.49,693.08h-.43l-3,3,.86.84h.85a6.11,6.11,0,0,0,4.29-1.69l-.54-.43-1.37-1.13Z"/><path d="M579.65,670.27l-.43-.42-3.43,1.26V672c2.57-.28,3.86-.7,3.86-1.27Z"/><path d="M604.49,810.94a68.54,68.54,0,0,0-7.42.82c-.57.11-1.08.22-1.52.34-1.44.39-2.2.85-2.2,1.37v7.61c.22.84,1.07,1.26,2.57,1.26h61.24a2.89,2.89,0,0,0,1.71-3v-2.54a7.47,7.47,0,0,0-1.71-4.64q-10.06-1.38-10.7-2.12-4.19-4.53-20.56-31.26-15.84-22.91-15.85-26.19v-1.26a5.09,5.09,0,0,1,1.72-3.38c2.57-.5,3.85-1.06,3.85-1.69v-.85a17.83,17.83,0,0,0-11.56-3.8h-2.14l-1.34-2-6.06-9.25-.34-.51-1.69-2.57,15-16.9c0-.56-.85-1-2.56-1.27a8.5,8.5,0,0,0-.87.07,9.77,9.77,0,0,0-4.27,1.62c0,2-.43,3-1.29,3h-.43l.53,1.8.33,1.16v.42l-.43.42c-.37,0-.65-.3-.88-.86a6.48,6.48,0,0,1-.4-1.67v-1.27h-1.29l-3,3h-1.71l-.07-.07-.36-.35,1-6,.33-2.06.4-.14c2.29-.8,3.45-1.6,3.45-2.4A5.79,5.79,0,0,1,599.1,707a12.81,12.81,0,0,1,1.1.86h.86l5.14-1.27-.43-1.69,1.29-1.27c0-.35-1.29-.91-3.86-1.69v-.42l.43-.42v-.85l-.43-.42-5.57.85-2.74,3.06-.91,1-2.55,2.84-22.92,25.6V718.85h-.85v1.69l-1.29-.42-.43-.43c-1.07-1.68-2.92-2.53-5.56-2.53v-1.27h.85v-.84c-.85,0-1.43-.56-1.71-1.69,0-1.2,1.14-1.9,3.43-2.11q4.71.74,4.71,1.69l.85-.85v-8.45l-.43-.42-2.49,2.16-.93.8.43,2.11v2.11h-.43c-.64,0-1.07-.84-1.29-2.53h-3l-1-2-.28-.56v-.42a4.11,4.11,0,0,1,3-4.22h1.28a1.44,1.44,0,0,0,.31,1,.74.74,0,0,0,.55.23h.86l3.42-2.11V678.3l-.21-.27-1.5-1.84v-1.27l1.28-1.27v-.42l-.42-.42c-2,0-3.43-.43-4.29-1.27,0-1.41.43-2.26,1.29-2.54h1.28l.86.85a9.48,9.48,0,0,0,5.14-2.11l-.86-.85h-1.71q-5.79,0-9,3.38l-7.71-4.64h-2.14l-7.28,4.22a18,18,0,0,0-9.43-3h-1.71a15,15,0,0,0-9,2.54l.43,1.68,1.07.27,1.94.51c4.24,1.2,6.68,2.49,7.26,3.87v.43l2-.4.14,0,.43,1.25v.44l-.43.42-1.28-.84h-.43v14.79h2.57l.86.84v.84l-.86,1.27-2.14-.42h-.43l.43,1.69-.43,4.65v5.49L539,710a14.26,14.26,0,0,1,6-1.27h.43l.85.85V710l-.85,2.53-3.43-.84c-2.43,2.68-4.14,4.08-5.14,4.22l-1.71-2.11-.86.84v27h-2.57a11.33,11.33,0,0,0-9,3.8v.42l.86,1.27q10.69,2.64,10.7,9.29v46.47a15,15,0,0,1-2.14,7.61c-2.13.16-4,.35-5.55.56a29.73,29.73,0,0,0-4.77.94c-1.38.43-2.1.91-2.1,1.45V817c-.4-2.34-1-3.53-1.93-3.53-1.39,0-2.67.83-3.84,2.39a6.59,6.59,0,0,0-.44.57h-.05q-5.08.31-5.09,2.53h-.43a21.72,21.72,0,0,0-1.69-1.46,7.65,7.65,0,0,0-2.59-1.5h-.43l-.43.42-10.7-.42a7.25,7.25,0,0,0-4.92,1.48,4.31,4.31,0,0,0-.65.63v.42l.43.43-1.29.84-2.5-1.85-.92-.69h-3.43c-.61,0-1.27,0-2,.09-4.08.32-9.55,1.55-16.45,3.72h0v.41l.64.64.21.2h4.71c.29-1.69,1-2.53,2.15-2.53l1.71,2.53h5.33a15.66,15.66,0,0,1,4-1.41,10.46,10.46,0,0,1,1.9-.19h0a8.2,8.2,0,0,1,2.1.28c.15,0,.31.06.45.11a5.76,5.76,0,0,1,2,1.13l.08.08h24.41l2.14-1.69h1.28c0,1.13.29,1.69.86,1.69H535c.28-.32.55-.65.82-1l.25-.3.29-.24a16.22,16.22,0,0,1,1.67-1.18c.34-.21.68-.45,1-.71l.52-.4.61-.2a13.62,13.62,0,0,1,1.89-.49,12.54,12.54,0,0,1,2.46-.23,10.7,10.7,0,0,1,3.29.44,6.6,6.6,0,0,1,3.1,2.08,7.85,7.85,0,0,1,1.29,2.21h29.6a2.89,2.89,0,0,0,1.71-3v-2.12q0-5.91-4.28-5.91h-4.71q-6,0-6-8V754.76q0-2.43,3.86-5.5l27.41,42.67q7.71,10.77,7.7,14.78A7.29,7.29,0,0,1,604.49,810.94Zm-5.14-108.56c2,.35,3,.91,3,1.68v.85l-.42.42a4.05,4.05,0,0,1-1.26-.21,2.72,2.72,0,0,1-1.74-1.9v-.42l.3-.3ZM490.78,820.65h-2.14c0-.63,1.14-1.33,3.43-2.11l1.28.85C493.14,820.23,492.28,820.65,490.78,820.65Zm8.57-.84-2.14.42h-.86l-.86-.84V819l3-.85.86.85Zm45.18-94.2-.86,1.69h-.85l-.43-.42a2.8,2.8,0,0,1,1.71-2.54h.43Zm16.27-31.26.43-1.27h.43l1.29,1.27v.84h-.86Zm4.29,5.49-.17-.05-2.83-.79.86-.85h2.14l.85.85Zm-6-29.15h2.14c-.14.57-.85,1.13-2.14,1.69l-.86-.84Zm-3.85,5.07c.43,0,.85.57,1.28,1.69v.42h-1.28l-.43-2.11Zm.43,10.14v.42l-1.29,1.27H553.1L551,685.48l.86-2.54Q555.67,682.94,555.67,685.9Zm-5.14-12.67h.85v1.69l-.85-.85Zm1.71,16q-.54,3.38-3,3.38-1.8-.31-5.88-8.65l-.11-.22a2,2,0,0,1,1-1.32,3.09,3.09,0,0,1,1.59-.37q.63,0,3,4.22Q552.25,686.32,552.24,689.28Zm-14.56,16.05h-.43v-1.27h.43Zm.86-20.27v1.69h-.43v-1.69Zm.85,17.74-.85-1.27v-.42l1.71-1.27.22.08,1.06.34v.85a1.18,1.18,0,0,1-.21.42A5.09,5.09,0,0,1,539.39,702.8ZM551,731.94l-1.71-1.69v-.42h.43l1.28,1.69Zm.86-22.38q-2.79,0-3.85-3.38l1.71-2.54v-.42l-.43-3h.43l.43-.42h1.28c.22,2.54,1.36,3.8,3.43,3.8v1.27c0,.43-.11.81-.19,1.18a5.69,5.69,0,0,1-1.17,2.74A2.16,2.16,0,0,1,551.81,709.56Zm5.14,8-.43.43c-.43,0-.85-.57-1.28-1.69v-.43h.85l.86.85Zm31.26-2.53,1.29.84-.86,1.27c-1.78-.56-2.78-1.27-3-2.11Zm-6.85,18.59-1.28.42-1.29-1.27v-1.27l.43-.42,2.14.42Z"/><path d="M397.89,811.74c0-.11.08-.23.12-.31l-.54-2-.14-.52.42-1.07.2-.44c.13-.31.26-.61.43-.94a9.7,9.7,0,0,0,.34-2.27c.08-1.16.13-2.81.13-4.93,0-.31,0-.56,0-.8a4.55,4.55,0,0,0-.17-.95.75.75,0,0,0-.73-.54q-.68,0-1.8,1.14a16.2,16.2,0,0,0-1.79,2.27c-.24.35-.49.72-.74,1.12a17.22,17.22,0,0,1-.46,1.85c0,.13-.07.28-.11.4-.21.62-.37,1.14-.47,1.56l.14.44.54,1.75c-.56,2.16-1,4-1.43,5.58-.12.45-.23.83-.34,1.24-.27,1-.53,1.92-.78,2.67h0c-.52,1.57-1,3.07-1.47,4.55l-.19.58c0,.09-.06.17-.08.25l-.42,1.27c-.37,1.1-.74,2.18-1.12,3.2a12.12,12.12,0,0,1-.41,2.66,4.11,4.11,0,0,1-.84,1.62c-.55,1.81-1.19,3.74-1.9,5.79s-1.5,4.23-2.37,6.52a66.84,66.84,0,0,1-2.73,6.78c-.75,1.5-1.3,2.25-1.64,2.25s-.38-.6-.5-1.8-.2-3-.24-5.3v-2.5c0-1.18,0-2.66-.1-4.44,0-1.46-.07-2.77-.1-3.93s-.06-2.2-.06-3.11a3.41,3.41,0,0,1,.06-.47c0-.23.1-.52.18-.88.16-.73.37-1.73.65-3,.13-1,.24-1.91.35-2.75.07-.49.13-1,.18-1.42,0-.18,0-.33.06-.51.11-.94.19-1.79.22-2.46.35-1.57.64-3,.91-4.35.08-.41.16-.82.23-1.21.17-.84.31-1.63.43-2.37.07-.36.13-.73.18-1.07a.36.36,0,0,0,0-.11c.05-.26.08-.49.11-.74a33.35,33.35,0,0,0,.47-4.5,4.53,4.53,0,0,0-.2-1.33,2.2,2.2,0,0,0-.22-.52,2,2,0,0,0-.11-.26,3.4,3.4,0,0,0-1.72-1.28l-.17.06-.95.35-.76.27-2.75,1a4.17,4.17,0,0,0-2.27,2.09,12.86,12.86,0,0,0-1.11,2.64,18.64,18.64,0,0,0-.53,2c-.26,1.45-.53,2.84-.8,4.2-.06.32-.13.64-.19,1-.47,2.36-1,4.56-1.47,6.65-.16.64-.31,1.31-.46,1.93-.33,1.31-.67,2.57-1,3.77a67.6,67.6,0,0,1-4.45,12q-.67,1.83-1.17,3.21l-.81,2.27-4.07,7.3c-.17.07-.38.18-.62.31-.25-.34-.78-2.92-1.6-7.72a88.13,88.13,0,0,1-1.27-9.18v-3.28a18.63,18.63,0,0,1-.36-1.83,5.8,5.8,0,0,1-.21-1,6.62,6.62,0,0,1-.06-.84c0-.34,0-1,.06-2,0-.27,0-.61,0-.92,0-.6,0-1.29.05-2.07,0-.26,0-.47,0-.74s0-.8,0-1.19c0-.74.06-1.44.06-2.07s0-1.21-.06-1.76c0-.28,0-.57,0-.83,0-1-.09-1.94-.18-2.92s-.2-1.88-.34-2.75h0c0-.21.09-.38.13-.58s.11-.53.18-.78c0-.08,0-.18.05-.26.19-1.19.33-2.36.45-3.52.09-.83.17-1.66.23-2.48.17-1.51.36-3.09.55-4.72.05-.36.09-.7.13-1.07a1.73,1.73,0,0,0-.13-.48c-.05-.15-.12-.32-.21-.52l0-.07-.38-.75c-.22-.45-.48-.95-.82-1.57s-.66-1.07-.93-1.51l-.2-.34a5.61,5.61,0,0,0-.91-1.22,3.68,3.68,0,0,0-1-.7,1.82,1.82,0,0,0-.31-.16,4.67,4.67,0,0,0-1.38-.3,5.27,5.27,0,0,0-.57,0,3.2,3.2,0,0,0-2.35.93c-.14.15-.27.31-.4.48a6.1,6.1,0,0,0-.91,2.29c-.23,1.19-.41,2.32-.62,3.48-.61,3.46-1.14,6.83-1.49,10,0,.46-.07.89-.11,1.35-.19,1.85-.34,3.69-.43,5.48,0,.53,0,1-.05,1.55,0,.74-.05,1.48-.06,2.21,0,.57-.05,1.16-.05,1.72v.2a32.35,32.35,0,0,0,.18,3.58.06.06,0,0,0,0,0,8.53,8.53,0,0,0,.49,2.23l1.41,1a2.43,2.43,0,0,1,.78,1.53,16.08,16.08,0,0,1,.32,2.95q.11,2.19.18,3.42a8.1,8.1,0,0,0,.18,1.54,11.11,11.11,0,0,1,.71,1.56,6,6,0,0,1,.29,1.25c0,.49.06,1,.1,1.49s.07,1,.1,1.49c.21,1.56.4,2.92.58,4.07l.42,2.81c.31,1.18.6,2.19.86,3a13.18,13.18,0,0,0,.76,2,10,10,0,0,1-.37,1.2c.32,1.15.62,2.27.92,3.36s.6,2.19.91,3.26a17.82,17.82,0,0,0,1.57,4c.52.87,1.06,1.3,1.62,1.3.29,0,.56,0,.84-.06a5.09,5.09,0,0,0,2.26-1,9.82,9.82,0,0,0,2.59-3q1.66-3.44,3.13-6.83c.93-2.16,1.67-3.84,2.19-5.06a7,7,0,0,0,.73-2.29c.83-1.64,1.64-3.19,2.42-4.67s1.54-2.91,2.27-4.31c.42,1.78.72,3.3.92,4.57s.32,2.28.39,3c.13,1.56.27,3.1.39,4.62s.23,3,.34,4.51a10.71,10.71,0,0,0,1.72,4.8,3.78,3.78,0,0,0,2.21,1.45,7.78,7.78,0,0,0,1,.11,2.93,2.93,0,0,0,1.12-.31,14.81,14.81,0,0,0,1.64-.89,4.91,4.91,0,0,0,1.62-.13,2,2,0,0,0,1-.7l1.26-.73a5,5,0,0,0,1.09-1.57,43.35,43.35,0,0,0,1.88-4c.7-1.66,1.28-3,1.75-4.09a23.24,23.24,0,0,0,1-2.43,17.25,17.25,0,0,1,.92-2.86,8.41,8.41,0,0,1,1-1.83c.49-1.56.92-2.89,1.31-4s.69-2,.94-2.84c.34-1.32.64-2.46.88-3.42a13.47,13.47,0,0,1,.68-2.11c.49-1.29.9-2.4,1.25-3.34a12.53,12.53,0,0,0,.68-2.4,8.94,8.94,0,0,0,.78-2.3.19.19,0,0,0,0-.07c.27-1.14.58-2.66.92-4.57s.66-3.71.94-5A22.29,22.29,0,0,1,397.89,811.74Z"/><path d="M424.13,854.45c-.27-.62-.57-1.29-.9-2a5.94,5.94,0,0,1-1.15.75c-.38.19-.66.34-.83.45a16.27,16.27,0,0,1-3,1.25,17,17,0,0,1-3.71.68,19.31,19.31,0,0,1-2.16-.58,5.05,5.05,0,0,1-1.33-.62A2.71,2.71,0,0,1,410,853.1a4.48,4.48,0,0,1-.39-1.92,2.64,2.64,0,0,1,.26-1.18,3.08,3.08,0,0,1,.31-.46,3.94,3.94,0,0,1,.31-.45,77.46,77.46,0,0,0,6.89-7.51,18.23,18.23,0,0,0,3.28-5.79l.47-1.67c.25-.84.43-1.45.55-1.83s.14-.39.17-.36c-.13-.79-.25-1.53-.35-2.19,0-.13-.07-.24-.1-.36a16.63,16.63,0,0,0-.55-1.68,4.81,4.81,0,0,0-.71-1.25,2.85,2.85,0,0,0-1.33-.89,7.16,7.16,0,0,0-2.11-.26,8.32,8.32,0,0,0-1.72.16,11.11,11.11,0,0,0-1.41.36,15.83,15.83,0,0,1-1.36.94,12.08,12.08,0,0,0-1.25.89c-.8,1-1.6,1.94-2.4,2.89s-1.56,1.84-2.29,2.64a40.44,40.44,0,0,0-2.12,3.86c-.54,1.15-1,2.1-1.27,2.87s-.53,1.48-.76,2.14a15.69,15.69,0,0,0-.5,1.72,20.23,20.23,0,0,1-.2,2.06c-.11.68-.21,1.36-.32,2.06a19.21,19.21,0,0,0-2.5,2.32c-.2.22-.36.44-.53.66a12.28,12.28,0,0,0-1.09,1.56c.56,1.14,1,2.1,1.36,2.86a12.66,12.66,0,0,1,.73,1.94,6.49,6.49,0,0,1,1.15-1.18,1.61,1.61,0,0,1,.94-.39,1.17,1.17,0,0,1,.93.55,7.48,7.48,0,0,1,.89,1.69c.38.94.75,1.75,1.1,2.43a5.93,5.93,0,0,0,1,1.54,6.47,6.47,0,0,0,2.48,1.67,9,9,0,0,0,1.55.42,16.09,16.09,0,0,0,1.86.15c.49,0,.94,0,1.39-.06a11.49,11.49,0,0,0,1.14-.17,6,6,0,0,0,1.91-.76,8.73,8.73,0,0,0,4.46-1.49,32,32,0,0,0,5.4-4.4c-.21-.6-.49-1.29-.84-2.09C424.34,854.92,424.23,854.68,424.13,854.45ZM410.22,839c.11-.19.21-.37.34-.57,0,0,.05-.06.07-.1.15-.24.29-.43.44-.63a6.85,6.85,0,0,1,2-2.1,1.4,1.4,0,0,1,.57-.17.61.61,0,0,1,.55.29,1.4,1.4,0,0,1,.18.76,3.69,3.69,0,0,1-.31,1.46,5.71,5.71,0,0,1-.94,1.46L412,840.61a14.79,14.79,0,0,1-1.12,1.12c-.21.35-.43.73-.68,1.13a1.06,1.06,0,0,1-.94.59.77.77,0,0,1-.54-.13.58.58,0,0,1-.13-.44A8.82,8.82,0,0,1,410.22,839Z"/><path d="M552,854.45c-.27-.62-.57-1.29-.9-2a6.2,6.2,0,0,1-1.14.75c-.39.19-.66.34-.84.45a16.27,16.27,0,0,1-3,1.25,16.89,16.89,0,0,1-3.71.68,19.31,19.31,0,0,1-2.16-.58,5.05,5.05,0,0,1-1.33-.62,2.71,2.71,0,0,1-1.12-1.26,4.48,4.48,0,0,1-.39-1.92,2.64,2.64,0,0,1,.26-1.18,4.1,4.1,0,0,1,.31-.46,3.94,3.94,0,0,1,.31-.45,76.19,76.19,0,0,0,6.89-7.51,18.49,18.49,0,0,0,3.29-5.79l.46-1.67c.25-.84.43-1.45.55-1.83s.15-.39.17-.36c-.13-.79-.25-1.53-.35-2.19,0-.13-.07-.24-.1-.36a16.63,16.63,0,0,0-.55-1.68,4.54,4.54,0,0,0-.71-1.25,2.81,2.81,0,0,0-1.33-.89,7.16,7.16,0,0,0-2.11-.26,8.38,8.38,0,0,0-1.72.16,11.11,11.11,0,0,0-1.41.36,15.71,15.71,0,0,1-1.35.94,12.23,12.23,0,0,0-1.26.89c-.8,1-1.6,1.94-2.4,2.89s-1.56,1.84-2.29,2.64A40.15,40.15,0,0,0,532,837c-.54,1.15-1,2.1-1.28,2.87s-.53,1.48-.76,2.14a15.4,15.4,0,0,0-.49,1.72c0,.69-.11,1.38-.21,2.06s-.21,1.36-.32,2.06a19.88,19.88,0,0,0-2.5,2.32c-.19.22-.36.44-.53.66l0,0a14.28,14.28,0,0,0-1.07,1.54l0,0a8.25,8.25,0,0,1-1.37.94,25.48,25.48,0,0,0-3.34,3,12.72,12.72,0,0,1-2,1.64,3.13,3.13,0,0,1-1.61.6.76.76,0,0,1-.5-.15.54.54,0,0,1-.18-.42,11.85,11.85,0,0,1,.66-3.28c.26-.78.56-1.63,1-2.59a17.29,17.29,0,0,0,1.61-6c0-.9,0-1.73-.13-2.54a16.81,16.81,0,0,0-.91-4.19,9.44,9.44,0,0,0-3.13-4.33,8.17,8.17,0,0,0-.84-.57q-1.14-1.15-2.37-2.19a4.44,4.44,0,0,0-3-1,8.63,8.63,0,0,0-4.35,1.78,10.23,10.23,0,0,0-3.37,3.07l.52,2.51a22.91,22.91,0,0,1-3.52,5.4,46.36,46.36,0,0,1-6.23,6c-.18.26-.36.49-.53.74l0,0c-.36.51-.73,1-1.1,1.52l0,.06a4.92,4.92,0,0,1-.68.56,5.26,5.26,0,0,1-.6.37c-.24.28-.48.55-.7.83l-.71.89a6.31,6.31,0,0,1-.91.68,1.83,1.83,0,0,1-.91.26,3,3,0,0,1-2.53-1.33,4.73,4.73,0,0,1-.92-3c0-.93,0-1.94.06-2.92,0-.7,0-1.37.05-2.09,0-.18-.05-.31-.07-.48a4.89,4.89,0,0,0-.61-2.1,1.87,1.87,0,0,0-1.67-.86,7.13,7.13,0,0,0-3.86,1.38,22.06,22.06,0,0,0-4.49,4.25c-.31.21-.59.39-.83.52l-.73.42a17.35,17.35,0,0,0-1.59,1.33l-2.9,2.64a25,25,0,0,1-2.76,2.34,8.94,8.94,0,0,1-2.4,1.25l-.37-.47c1-1.42,1.83-2.57,2.46-3.44a17.24,17.24,0,0,1,1.3-1.67c1.95-1.7,3.5-3.16,4.67-4.38.2-.21.37-.4.54-.6a10.47,10.47,0,0,0,1.73-2.37,23.49,23.49,0,0,0,1.93-1.57l1-.94c.24-.34.54-.74.88-1.2a23.3,23.3,0,0,0,2.82-2.42,26.28,26.28,0,0,0,2-2.32c1-.77,1.94-1.46,2.81-2.09a3.45,3.45,0,0,0,1.23-1.41,4.49,4.49,0,0,0,.39-1.93,2,2,0,0,0-.62-1.57l0,0a3,3,0,0,0-2-.57c-1.64,0-3.64.75-6,2.24a56.62,56.62,0,0,0-8.33,6.73,14.49,14.49,0,0,1-1.93,1.59c-.59.4-1.07.71-1.46.92-.8.69-1.46,1.3-2,1.82a16.69,16.69,0,0,0-1.2,1.31,7.11,7.11,0,0,0-1.38.83,3.84,3.84,0,0,0-1,1.15,9.24,9.24,0,0,1-.83,1.28,8.21,8.21,0,0,1-.63.7l-4.74,3.13c-.17.29-.33.56-.48.8s-.3.49-.44.69a5.57,5.57,0,0,1-.6.81c.32.69.6,1.35.87,2,.14.33.25.6.38.89s.22.53.32.76.25.46.34.65a1.42,1.42,0,0,1,.13.55,7.64,7.64,0,0,1-.11,1.09,9.12,9.12,0,0,0-1.8,2.48,6.63,6.63,0,0,0-.32,1,6.33,6.33,0,0,0-.28,1.74,5.27,5.27,0,0,0,1.2,3.78,4.35,4.35,0,0,0,2.45,1.13c.41,0,.82.09,1.26.09a3.33,3.33,0,0,0,1.15-.34c.52-.22,1.14-.53,1.87-.91,1.15-.63,2.19-1.23,3.11-1.83a22,22,0,0,0,2.42-1.77c.35-.35.94-.92,1.78-1.72s1.86-1.83,3.07-3.08c.91-.73,1.7-1.35,2.38-1.88l1.69-1.3c.28-.31.52-.56.73-.76l.58-.54a2.57,2.57,0,0,1,.54,1,3.73,3.73,0,0,1,.14,1,9.35,9.35,0,0,0,2.13,5.84,6.1,6.1,0,0,0,3.56,1.79,12.66,12.66,0,0,0,1.66.14,7.63,7.63,0,0,0,2.92-.6,13.67,13.67,0,0,0,3-1.8,28.84,28.84,0,0,0,2.47-2.21c.79-.79,1.58-1.55,2.38-2.27h0a4.9,4.9,0,0,0,.68-.94l.31-.63a19.92,19.92,0,0,0,2.76-2.14,9.13,9.13,0,0,0,1.52-1.77,9.49,9.49,0,0,0,2-1.62,39.91,39.91,0,0,0,2.71-3.08,21.74,21.74,0,0,1,2.77-2.86,14.92,14.92,0,0,1,2.5-1.78,3.3,3.3,0,0,1,2.58,1.67,6.35,6.35,0,0,1,.73,2.4,12.66,12.66,0,0,1,.13,1.82,24.61,24.61,0,0,1-.6,5.07,50.13,50.13,0,0,1-1.75,6.1,11.23,11.23,0,0,1-.62,1.43c-.25.47-.47.93-.68,1.38-.14.29-.21.54-.32.8s-.25.59-.33.85a4.47,4.47,0,0,0-.24,1.33,2.27,2.27,0,0,0,1.1,2.11,5.24,5.24,0,0,0,2.17.6c.37,0,.72,0,1.12,0a9.2,9.2,0,0,0,2.39-1.09q4-2.4,6.81-4.25t4.62-3.16c.55-.49,1-.92,1.43-1.3s.76-.72,1.07-1c0,0,0,0,0,0a6.74,6.74,0,0,1,1.11-1.14,1.64,1.64,0,0,1,.94-.39,1.19,1.19,0,0,1,.94.55,8,8,0,0,1,.88,1.69c.38.94.75,1.75,1.1,2.43a6.19,6.19,0,0,0,1,1.54,6.47,6.47,0,0,0,2.48,1.67A9,9,0,0,0,537,864a16.09,16.09,0,0,0,1.87.15c.49,0,.93,0,1.38-.06s.8-.1,1.15-.17a6.05,6.05,0,0,0,1.9-.76,8.7,8.7,0,0,0,4.46-1.49,31.58,31.58,0,0,0,5.4-4.4c-.21-.6-.49-1.29-.84-2.09C552.19,854.92,552.08,854.68,552,854.45ZM538.07,839c.12-.19.21-.37.34-.57,0,0,.05-.06.07-.1.16-.24.3-.43.44-.63a6.85,6.85,0,0,1,2-2.1,1.32,1.32,0,0,1,.57-.17.6.6,0,0,1,.54.29,1.32,1.32,0,0,1,.19.76,3.7,3.7,0,0,1-.32,1.46,5.45,5.45,0,0,1-.94,1.46l-1.06,1.17a14.89,14.89,0,0,1-1.13,1.12c-.21.35-.43.73-.68,1.13a1.05,1.05,0,0,1-.93.59.8.8,0,0,1-.55-.13.58.58,0,0,1-.13-.44A8.82,8.82,0,0,1,538.07,839Zm-12.23,15.63a1.76,1.76,0,0,1-.09-.2l-.3-.68.31.67.39.83c.24.54.42,1,.56,1.41C526.43,856,526.14,855.31,525.84,854.67Z"/><path d="M645.66,857.23c-.23-.61-.49-1.24-.75-1.89l-.47-1.08c-.26-.6-.52-1.2-.82-1.83a3.08,3.08,0,0,1-.52.34,1.25,1.25,0,0,1-.52.13c-.8,0-1.73-.69-2.79-2.06a37.73,37.73,0,0,1-3.62-6.24,7.48,7.48,0,0,0-1.09-1.49,24.94,24.94,0,0,0-2-1.9,4.14,4.14,0,0,0-.53-.36.93.93,0,0,0-.52-.16,8,8,0,0,0-3,.6,12.09,12.09,0,0,0-3,1.75c-.93.69-1.8,1.37-2.6,2l-2.4,2c-.48.7-.91,1.27-1.28,1.72a8.08,8.08,0,0,1-1,1.05c-.42-.21-.63-.44-.63-.68a4.18,4.18,0,0,1,.06-.68,3.61,3.61,0,0,1,.26-.88c.27-.65.48-1.32.7-2a25.23,25.23,0,0,0,.91-3.67,38.17,38.17,0,0,0,.47-6.13,11.08,11.08,0,0,0-.09-1.36,5,5,0,0,0-.61-2,2.44,2.44,0,0,0-2.21-1.12,7.23,7.23,0,0,0-3.76,1.7,37.38,37.38,0,0,0-5.48,5.14q-3.65,4-5.89,6.26a15.72,15.72,0,0,1-3,2.6.65.65,0,0,1-.52-.18.79.79,0,0,1-.16-.55c.21-.86.47-1.77.78-2.71.05-.18.06-.35.1-.53.22-1,.42-2,.56-2.94a24.09,24.09,0,0,0,.23-3.15,6,6,0,0,0-.16-1.42,3.15,3.15,0,0,0-.52-1.22,2.41,2.41,0,0,0-2.08-.91c-1.5.63-2.88,1.18-4.13,1.67q-1.87,1.92-3.29,3.42c-.94,1-1.74,1.79-2.4,2.42q-1.93,1.77-4.1,4t-4.47,5.14l-.56.79c-.12.18-.26.38-.38.54-.28.4-.52.72-.73,1,.56,1.14,1,2.1,1.36,2.86a13.81,13.81,0,0,1,.73,1.94c.2-.25.4-.5.57-.76a3.47,3.47,0,0,0,.42-.81c1-1,1.87-1.82,2.56-2.56s1.29-1.37,1.78-1.92a12.54,12.54,0,0,1,2-2.22,2.58,2.58,0,0,1,1.5-.71.78.78,0,0,1,.35.08.82.82,0,0,1,.25.16.83.83,0,0,1,.23.6c0,1.49-.62,4.06-1.86,7.69-.57,1.68-1,3.08-1.31,4.22a13,13,0,0,0-.54,3,1.17,1.17,0,0,0,.81,1.1,6.09,6.09,0,0,0,2.38.36q.52,0,2.37-1.74t5-5.4c1.33-1.46,2.62-2.91,3.89-4.36l3.73-4.25c1.11-.83,1.92-1.48,2.43-1.93s1-.9,1.38-1.35a5.12,5.12,0,0,1,1-.76,1.69,1.69,0,0,1,.8-.24,1,1,0,0,1,.63.25l.1.07a1.19,1.19,0,0,1,.32.88q-.48,3.28-.76,5.27c-.19,1.32-.34,2.21-.44,2.66a11,11,0,0,1-.47,1.83c-.28.87-.65,2-1.1,3.49-.31,1-.55,1.9-.75,2.68l-.08.32a9.19,9.19,0,0,0-.32,2.06,3.23,3.23,0,0,0,.21,1.18,1.12,1.12,0,0,0,.63.65,19.75,19.75,0,0,0,2.09.16q1.56,0,7.87-8t9-8c1.35,0,3.31,1.56,5.86,4.67q3.31,4,6.45,4.58l.52,0a3.57,3.57,0,0,0,.46,0,5.63,5.63,0,0,0,2.55-.76c.32-.16.68-.39,1-.61A26.61,26.61,0,0,0,645.66,857.23Z"/><path d="M737.46,825.3c.41,0,.82,0,1.23.06l.37,0,1.69.18a2.46,2.46,0,0,0,1.12-.28,11.68,11.68,0,0,0,2-1.18,8.51,8.51,0,0,0,2-1.54c.06-.06.11-.15.17-.22a6.33,6.33,0,0,0,1.1-1.78c.14-.35.34-.93.61-1.73s.56-1.82.91-3.07c.14-.66.31-1.48.52-2.46a1.94,1.94,0,0,0-.52-1.4s0-.08-.08-.11a2.87,2.87,0,0,0-1.91-.52,7.38,7.38,0,0,0-1.92.23,4.66,4.66,0,0,0-1.36.6c-.8.94-1.5,1.78-2.09,2.51-1,.1-2.09.95-3.36,2.53a10.06,10.06,0,0,0-1.59,2.59,3.82,3.82,0,0,0-.32,1.35,11.79,11.79,0,0,0,.08,1.26,6.11,6.11,0,0,0,.32,1.55A2.48,2.48,0,0,0,737.46,825.3Z"/><path d="M833.34,852.43q-3.81,4.53-6.05,7a13.06,13.06,0,0,1-3,2.79,9.76,9.76,0,0,1-1.2-1,8.1,8.1,0,0,1-.89-1c-1-1.36-1.75-2.46-2.32-3.32l-1.12-1.64a9.31,9.31,0,0,1-.79-2.53,21,21,0,0,1-.26-3.52c.07-.27.14-.51.21-.76.16-.6.32-1.18.47-1.69.66-.7,1.28-1.33,1.85-1.91s1.12-1.1,1.64-1.59q1.73-2,3.5-3.88t3.39-3.84a50.08,50.08,0,0,0,3.89-5.06,6.51,6.51,0,0,0,1.28-2.92,10.73,10.73,0,0,0-.31-2.68,5.09,5.09,0,0,0-.45-1.18,2.41,2.41,0,0,0-2.09-1.29h-.35a7.75,7.75,0,0,0-3.87,1.14,11.4,11.4,0,0,0-3.52,3.54q-3.14,3.6-6,6.78a30.65,30.65,0,0,0-3.18,4.05,10.34,10.34,0,0,0-1.47,3.21q-.78,1.46-1.38,2.52c-.4.72-.74,1.37-1,2-.74,1-1.4,1.78-2,2.43a20,20,0,0,1-1.56,1.54c-.42.53-.77,1-1.08,1.42l0,0-.21.28a12.41,12.41,0,0,1-.88,1.18v0a3.25,3.25,0,0,1-1,.75,2.84,2.84,0,0,1-1.22.26,2.07,2.07,0,0,1-1.59-.78,7.15,7.15,0,0,1-1.28-2.4q-.94-2.76-2-6a6.26,6.26,0,0,0-2.13-2.45,5.26,5.26,0,0,0-2.87-.78,5.68,5.68,0,0,0-2,.41,22.78,22.78,0,0,0-2.53,1.15c-.83.52-1.56,1-2.19,1.51a17.43,17.43,0,0,0-1.62,1.41q-.47.53-.81,1a5.9,5.9,0,0,1-.54.68,12.29,12.29,0,0,0-1.7,1.59,10,10,0,0,0-1.23,1.75c-.8.69-1.48,1.33-2.06,1.9a7,7,0,0,0-1.27,1.65c-.21.24-.39.45-.55.62a2.15,2.15,0,0,1-.5.42,1.39,1.39,0,0,1-.36-.78,4.28,4.28,0,0,1,.1-.79,5.79,5.79,0,0,1,.42-1.2c.28-.62.57-1.28.89-2l.09-.28c1.2-3.59,2.1-6.49,2.67-8.69a22.76,22.76,0,0,0,.89-4.59,7.61,7.61,0,0,0-.24-2,4,4,0,0,0-.65-1.4,3.24,3.24,0,0,0-2.76-1.17,7.91,7.91,0,0,0-3.55.83,10.07,10.07,0,0,0-3.13,2.56l-3,3.31c-.84.92-1.53,1.68-2.09,2.27l-3.29,3.73c-.9,1-1.67,1.89-2.29,2.58s-1.32,1.31-1.88,1.83-1,.92-1.36,1.2c-.1.13-.16.22-.26.34l0,0-.52.7a6.13,6.13,0,0,0-.55.81v0L753,853.81q-.87.71-1.65,1.38a6.83,6.83,0,0,1-2,1.18,6.12,6.12,0,0,1-1.93.33,3.34,3.34,0,0,1-1.31-.23,1.64,1.64,0,0,1-.78-.76,9.63,9.63,0,0,1-.78-2.42c-.35-1.41-.64-2.46-.89-3.16-.14-1.11-.31-2.22-.52-3.31s-.44-2.18-.68-3.26a4.45,4.45,0,0,0-1.67-2.74,5.05,5.05,0,0,0-3.07-.91,2.85,2.85,0,0,0-1.36.36,3.43,3.43,0,0,0-1.2,1.2,31.91,31.91,0,0,1-4.9,5,38.78,38.78,0,0,0-4.36,4.29h0c-.21.25-.42.5-.59.73l-.16.52-.31.37a.1.1,0,0,1,0,.05,12.22,12.22,0,0,0-1.37,1.07c-.43.4-.88.77-1.33,1.12a9.08,9.08,0,0,1-1.54,1.07,2.51,2.51,0,0,1-1.17.34c-1,0-2.37-.93-4-2.79s-2.39-3.25-2.39-4.15a5.16,5.16,0,0,1,.64-2.06,40.76,40.76,0,0,1,3.84-6q4.49-6.11,4.49-10.12a4.92,4.92,0,0,0-.28-1.73,3,3,0,0,0-.24-.62,1.94,1.94,0,0,0-1.73-.78c-.34,0-.87.46-1.56,1.38a37.84,37.84,0,0,0-2.61,4.15q-2.82,5.21-4.51,7.87a11,11,0,0,1-2.11,2.82,8.59,8.59,0,0,0-4.49,2.14q-1.2,1.35-1.56,4.8l-.16,1.51c-.7,1.53-1.38,2.93-2.06,4.2a37.19,37.19,0,0,1-2.06,3.42,1.92,1.92,0,0,1-.6.88,1.43,1.43,0,0,1-.92.32.5.5,0,0,1-.39-.16.86.86,0,0,1-.13-.52,10.6,10.6,0,0,1,.42-2.11l.3-1.09c.25-.91.57-2,1-3.27.59-1.91,1.17-3.86,1.72-5.84s1.13-3.93,1.73-5.84q1.1-3.71,2.19-6.58c.73-1.91,1.4-3.53,2-4.85,1.68-3.18,3.1-6.08,4.3-8.75,1-2.26,1.9-4.36,2.59-6.25q2.24-6.18,2.24-9.67a14.59,14.59,0,0,0-.14-2,7.06,7.06,0,0,0-.88-2.78,3.41,3.41,0,0,0-3.1-1.62,1.4,1.4,0,0,0-.81.27,2,2,0,0,0-.65.72q-1,1.89-2,4a33,33,0,0,0-1.72,4.56,5.46,5.46,0,0,1-.54,1.41c-.23.38-.41.7-.55.94-.35.62-.87,1.76-1.57,3.41s-1.55,3.8-2.55,6.45c-.08.18-.14.35-.21.53-.94,2.53-1.71,4.63-2.3,6.25s-1,3-1.25,3.81a20.19,20.19,0,0,0-2.3,3.49q-1.24,2.29-2.76,5.58a39.75,39.75,0,0,1-2.32,4.15,12.91,12.91,0,0,1-2.64,3c-.52.49-1,.93-1.35,1.33a6.53,6.53,0,0,0-.68.82l0,0-.18.26a4.33,4.33,0,0,1-.47.91,2.31,2.31,0,0,1-.42.45l.05.05a5.15,5.15,0,0,1-.7.57,5.26,5.26,0,0,1-.6.37c-.24.28-.48.55-.7.83l-.71.89a5.81,5.81,0,0,1-.91.68,1.8,1.8,0,0,1-.91.26,3,3,0,0,1-2.53-1.33,4.79,4.79,0,0,1-.92-3c0-.94,0-1.94.07-2.93,0-.7,0-1.36,0-2.08,0-.18-.05-.31-.07-.48a4.89,4.89,0,0,0-.61-2.1,1.87,1.87,0,0,0-1.67-.86,7.13,7.13,0,0,0-3.86,1.38,22,22,0,0,0-4.48,4.25c-.32.21-.6.39-.84.52l-.73.42A17.35,17.35,0,0,0,662,851.2l-2.9,2.64a23.32,23.32,0,0,1-2.76,2.34,8.66,8.66,0,0,1-2.4,1.25l-.36-.47c1-1.42,1.82-2.57,2.45-3.44a17.24,17.24,0,0,1,1.3-1.67c1.95-1.7,3.5-3.16,4.67-4.38l.54-.59a10.7,10.7,0,0,0,1.73-2.38,23.49,23.49,0,0,0,1.93-1.57c.49-.45.82-.76,1-.94.24-.34.54-.74.89-1.2a24,24,0,0,0,2.81-2.42,26.28,26.28,0,0,0,2-2.32c1-.77,1.95-1.46,2.81-2.09a3.45,3.45,0,0,0,1.23-1.41,4.49,4.49,0,0,0,.39-1.93,2,2,0,0,0-.62-1.57s0,0,0,0a3,3,0,0,0-2-.57q-2.44,0-6,2.24a56.61,56.61,0,0,0-8.32,6.73,15.88,15.88,0,0,1-1.93,1.59c-.6.4-1.08.71-1.46.92-.8.69-1.46,1.3-2,1.82a15.3,15.3,0,0,0-1.21,1.31,7.11,7.11,0,0,0-1.38.83,3.67,3.67,0,0,0-1,1.15,10.16,10.16,0,0,1-.84,1.28c-.24.29-.45.53-.62.7l-4.75,3.13-.48.8,0,.08c-.14.22-.26.43-.38.61a5.57,5.57,0,0,1-.6.81c.28.63.54,1.22.78,1.78a1.3,1.3,0,0,1,.08.17c.14.33.25.6.38.89s.23.53.32.76.25.46.34.65a1.26,1.26,0,0,1,.13.55,7.39,7.39,0,0,1-.1,1.09,8.91,8.91,0,0,0-1.8,2.48,5.63,5.63,0,0,0-.33,1,6.32,6.32,0,0,0-.27,1.74,5.23,5.23,0,0,0,1.2,3.78,4.29,4.29,0,0,0,2.44,1.13c.41,0,.82.09,1.26.09a3.28,3.28,0,0,0,1.15-.34c.52-.22,1.15-.53,1.88-.91,1.14-.63,2.18-1.23,3.1-1.83a23.24,23.24,0,0,0,2.43-1.77c.34-.35.94-.92,1.77-1.72s1.86-1.83,3.08-3.08c.9-.73,1.69-1.35,2.37-1.88l1.7-1.3c.27-.31.52-.56.73-.76l.57-.54a2.74,2.74,0,0,1,.55,1,4.18,4.18,0,0,1,.13,1,9.36,9.36,0,0,0,2.14,5.84,6.08,6.08,0,0,0,3.55,1.79,12.66,12.66,0,0,0,1.66.14,7.59,7.59,0,0,0,2.92-.6,13.24,13.24,0,0,0,3-1.8,29,29,0,0,0,2.48-2.21c.78-.79,1.57-1.55,2.37-2.27.56-.77.91-1.28,1.07-1.54a1.94,1.94,0,0,1,.44-.55c.94-1.11,1.76-2,2.45-2.82s1.12-1.25,1.55-1.77c.05-.06.12-.15.18-.21l.36.52a10.84,10.84,0,0,1-.21,2q-.21,1.13-.57,2.58a42.08,42.08,0,0,0-1.38,5.89c-.16,1-.27,1.92-.34,2.83s-.11,1.69-.11,2.49a5.44,5.44,0,0,0,1,3.66,3.92,3.92,0,0,0,3.13,1.2c.22,0,.44-.05.66-.07a3,3,0,0,0,1.61-.9,18.24,18.24,0,0,0,1.64-2l1.3-1.2a5.86,5.86,0,0,0,.84-.88c.62-.77,1.24-1.51,1.85-2.22s1.23-1.45,1.85-2.22a37,37,0,0,1,3.39-3.55,31.77,31.77,0,0,1,4,3.21c2.49,2.14,4.25,3.21,5.3,3.21a7.08,7.08,0,0,0,3-.7,11.2,11.2,0,0,0,3-2.17c.9-.76,1.76-1.54,2.58-2.35s1.68-1.59,2.58-2.39l0-.08a30.91,30.91,0,0,1,3.37-3.29,4.14,4.14,0,0,1,2.24-1.12c.21,0,.47.2.79.6a12.81,12.81,0,0,1,1.09,1.8c.35.52.66,1,.94,1.36a7.06,7.06,0,0,1,.63,1c1.14,3.34,2.19,5.37,3.13,6.1a7.75,7.75,0,0,0,4,1h0c.64,0,1.36.07,2.14.07a5.93,5.93,0,0,0,2.3-.76,26.76,26.76,0,0,0,3.65-2.32c1.29-.94,2.39-1.77,3.31-2.48a25.08,25.08,0,0,0,2.22-1.9l0-.05a4.47,4.47,0,0,0,.64-.89c.14-.28.24-.49.32-.63.59-.55,1.12-1.06,1.59-1.51a11.67,11.67,0,0,1,1.22-1,6.38,6.38,0,0,0,1.2-1c.59-.59,1.38-1.41,2.35-2.45a13.83,13.83,0,0,1,2.06-2,2.61,2.61,0,0,1,1.38-.63,1.75,1.75,0,0,1,.24,0,1.12,1.12,0,0,1,.6.18.7.7,0,0,1,.26.57,4.21,4.21,0,0,1-.11.86,6.9,6.9,0,0,1-.36,1.18c-.17.49-.32.88-.44,1.17a2,2,0,0,0-.18.71q-1.29,4.38-2.28,7.66c-.52,1.74-1,3.23-1.43,4.51-.12.34-.23.67-.34,1,.1,1,.22,1.94.34,2.9s.88,1.43,2.27,1.43c.34,0,.68,0,1-.06a7.8,7.8,0,0,0,.89-.17,4.07,4.07,0,0,0,1.54-.81c.45-.42.9-.84,1.35-1.28s.9-.88,1.36-1.33q2.65-2.71,4.42-4.69a22.93,22.93,0,0,0,2.51-3.24,3.11,3.11,0,0,1,1.4-1.2,19.36,19.36,0,0,0,3.39-2.61,15.39,15.39,0,0,1,2.06-1.61,7.58,7.58,0,0,1,2-.94l.47.15q1.14,1.51,2,2.64a17.86,17.86,0,0,0,1.54,1.8c.55,1.11,1,2,1.46,2.79a7.18,7.18,0,0,0,1,1.54,5.1,5.1,0,0,0,1.88,1.56,5.25,5.25,0,0,0,4.38.08,8.26,8.26,0,0,0,2.24-1.54l1.83-1.51,1.82-1.51v0q1.13-1.19,2.31-2.31a4.1,4.1,0,0,1,.42,1,15.72,15.72,0,0,0,1.54,4.8,26.52,26.52,0,0,0,3,4.69c.81,1,1.62,2.1,2.44,3.2l1.11,1.5a3.13,3.13,0,0,1-.55,1.56,10.91,10.91,0,0,1-1.54,1.88l-3,3.23c-.46.7-.93,1.39-1.44,2.09s-1,1.41-1.49,2.14-.94,1.68-1.38,2.43a12.23,12.23,0,0,0-1,2.16,24.46,24.46,0,0,0-1,2.48c-.11.36-.18.62-.23.84a2.8,2.8,0,0,0-.06.38c0,2.2.06,4,.16,5.27a10.68,10.68,0,0,0,.42,2.66,4.33,4.33,0,0,0,2.32,2.12,9.75,9.75,0,0,0,3,.65c.44,0,.89,0,1.37,0q6,0,12.75-6t7.38-12c0-.48.08-.92.13-1.3s.1-.66.13-.84c-.08-.56-.17-1.11-.27-1.63a26.07,26.07,0,0,0-1.21-4.47,13.78,13.78,0,0,0-2.33-4.07c-.48-.55-.89-1.06-1.22-1.51a2.13,2.13,0,0,1-.5-1.2c.41-.6.82-1.16,1.22-1.73.73-1,1.46-2,2.17-3,1-1.39,1.8-2.51,2.48-3.36s1.14-1.42,1.38-1.69l-1.05-2.56Zm-108.13.41a3.4,3.4,0,0,1,.26.58c.12.38.25.73.37,1.07l-.79-1.83C725.1,852.73,725.16,852.77,725.21,852.84Zm-41.16,0a3.4,3.4,0,0,1,.26.58c.08.24.16.45.24.68-.2-.45-.41-.92-.65-1.42A.77.77,0,0,1,684.05,852.84Zm71.56,1.62-.36-.83c.14.29.27.55.39.81s.28.6.39.85c.25.56.43,1,.57,1.44Zm49.85-.06-.36-.81c.14.28.26.54.38.79l.42.91a12.88,12.88,0,0,1,.58,1.46Zm5.89,35.8c0-.12.09-.23.14-.37a14.06,14.06,0,0,1,1.19-2.71c.8-1.15,1.57-2.32,2.3-3.5s1.46-2.35,2.19-3.49c1.29-1.92,2.3-3.36,3.05-4.33s1.23-1.46,1.44-1.46a1.76,1.76,0,0,1,1.3.72,9.81,9.81,0,0,1,1.31,2.25c.34.9.62,1.73.83,2.48,0,.06,0,.11,0,.17a7.48,7.48,0,0,1,.27,1.78q0,4-4.22,8.38T813,894.47a2.59,2.59,0,0,1-1.7-.47,1.8,1.8,0,0,1-.55-1.46A10.22,10.22,0,0,1,811.35,890.2Z"/><path d="M1014.45,825.3c.4,0,.82,0,1.23.06l.36,0,1.7.18a2.46,2.46,0,0,0,1.12-.28,11.68,11.68,0,0,0,2-1.18,8.67,8.67,0,0,0,2-1.54,6.4,6.4,0,0,0,1.28-2c.14-.35.34-.93.6-1.73s.57-1.82.92-3.07c.13-.66.31-1.48.52-2.46a1.94,1.94,0,0,0-.52-1.4s0-.08-.08-.11a2.87,2.87,0,0,0-1.91-.52,7.46,7.46,0,0,0-1.93.23,4.59,4.59,0,0,0-1.35.6c-.8.94-1.5,1.78-2.09,2.51-1,.1-2.1.95-3.37,2.53a10.28,10.28,0,0,0-1.58,2.59,3.82,3.82,0,0,0-.32,1.35,8.2,8.2,0,0,0,.39,2.81A2.49,2.49,0,0,0,1014.45,825.3Z"/><path d="M1064.63,852.43c-.87.76-1.61,1.44-2.21,2A14.47,14.47,0,0,0,1061,856a3.36,3.36,0,0,1-.81.54l-.65.34c-1.22.8-2.44,1.59-3.68,2.35s-2.44,1.5-3.62,2.19c-1,.31-2,.57-2.84.76a13.28,13.28,0,0,0-2.06.6,22.85,22.85,0,0,1-2.27-.73,7.92,7.92,0,0,1-1.44-.73,3.13,3.13,0,0,1-1.09-1.39,5.13,5.13,0,0,1-.37-2.06,12.38,12.38,0,0,1,.21-2.31c0-.15,0-.31.08-.45a9.18,9.18,0,0,1,.81-2.19,9.29,9.29,0,0,1,1.3-1.38c.63-.58,1.41-1.23,2.35-2l4.88-3.83a17.46,17.46,0,0,0,2.21-2c.77-.35,1.53-.73,2.3-1.15s1.53-.8,2.29-1.15a8.16,8.16,0,0,0,2.58-2.16,4.39,4.39,0,0,0,.86-2.69V833.8a1.06,1.06,0,0,0-.1-.3,1.8,1.8,0,0,0-.44-.74,1.65,1.65,0,0,0-1.18-.42,15.86,15.86,0,0,0-9,4.33,26,26,0,0,0-3.34,1.8,28.56,28.56,0,0,0-3.54,2.69q-3.09,2.61-6.37,5.42a15.56,15.56,0,0,1-1.64,1.15c-.57.35-1.12.72-1.64,1.1a16.12,16.12,0,0,0-1.93,1.82,1.53,1.53,0,0,0-.11.16l0,.06a2.42,2.42,0,0,0-.57,1.14l-.47.42v0l-1.66,1.35c-.57.47-1.12.93-1.64,1.38a6.87,6.87,0,0,1-2,1.18,6.07,6.07,0,0,1-1.93.33,3.29,3.29,0,0,1-1.3-.23,1.56,1.56,0,0,1-.78-.76,8.8,8.8,0,0,1-.78-2.42c-.35-1.41-.65-2.46-.89-3.16-.14-1.11-.31-2.22-.52-3.31s-.44-2.18-.68-3.26a4.45,4.45,0,0,0-1.67-2.74,5.06,5.06,0,0,0-3.08-.91,2.85,2.85,0,0,0-1.35.36,3.28,3.28,0,0,0-1.2,1.2,32.08,32.08,0,0,1-4.91,5,40.52,40.52,0,0,0-4.36,4.3h0c-.21.25-.42.5-.58.72l-.16.52-.31.37s0,0,0,0a16,16,0,0,0-1.27,1c-.7.59-1.66,1.44-2.87,2.56-1.05.93-1.88,1.64-2.51,2.11a2.91,2.91,0,0,1-1.3.7,1.06,1.06,0,0,1-.52-.42c.41-1.39.77-2.57,1.07-3.54l0-.11a23.33,23.33,0,0,1,.83-2.34q1.88-6.06,2.19-7.2c.21-.77.55-2.9,1-6.42.14-1.21.27-2.22.39-3a13.38,13.38,0,0,0,.18-1.72,5.7,5.7,0,0,0-.24-1.67,3.65,3.65,0,0,0-.93-1.54,4.9,4.9,0,0,0-3.52-1.12,4.06,4.06,0,0,0-1.17.18,11,11,0,0,0-1.28.49c-1.36,1.22-2.58,2.4-3.68,3.52s-2.08,2.17-2.94,3.11c-.77.76-1.44,1.39-2,1.88s-1.09.88-1.54,1.2a14.7,14.7,0,0,1-.84,1.3,3.74,3.74,0,0,1-.78.83c-.7.7-1.32,1.29-1.88,1.78s-1,.87-1.41,1.15a5.5,5.5,0,0,1-.62.88,5.14,5.14,0,0,1-1.18,1c-.64.46-1.53,1.05-2.68,1.78a8.63,8.63,0,0,0-2,1.67c-.08.09-.12.17-.19.26a.35.35,0,0,0-.05.08,3.93,3.93,0,0,0-.67,1.22l-.32.37h0q-.57.21-1.14.36a3.73,3.73,0,0,1-1,.16,2.37,2.37,0,0,1-2.09-1,5.05,5.05,0,0,1-.68-2.89,9.09,9.09,0,0,0-.23-1.62,8.52,8.52,0,0,1-.24-1.67,21.25,21.25,0,0,0-.1-2.35,5.33,5.33,0,0,0-.26-1.25,2,2,0,0,0-1.13-1,5.58,5.58,0,0,0-2.16-.34,3.78,3.78,0,0,0-2.74,1.22,11,11,0,0,0-2.22,3.73c-.27.38-.58.77-.91,1.15l-.86,1c-.66.94-1.3,1.9-1.93,2.87q-1.66,2-2.84,3.44c-.79,1-1.49,1.79-2.12,2.45l-1.82,1c-.52.3-1,.55-1.3.76s-.62-.31-.81-1.25a23.83,23.83,0,0,1-.29-4.33c0-.47,0-1,.06-1.47s.12-1.28.23-2c.19-1.25.46-2.62.81-4.12.34-1.18.71-2.38,1.09-3.6s.71-2.43,1-3.65c.31-.73.59-1.44.84-2.14.14-.45.26-.87.36-1.25a3.42,3.42,0,0,0,.16-.89,2.16,2.16,0,0,0-.42-1.43,1,1,0,0,0-.16-.12,1.54,1.54,0,0,0-1-.38,5.64,5.64,0,0,0-1.56.42q-1.15.42-3.24,1.41c-.83,1.08-1.62,2.18-2.37,3.31s-1.51,2.22-2.27,3.26c-.94,1-1.82,2.09-2.63,3.13s-1.61,2.09-2.38,3.13c-.94,1.15-1.78,2.15-2.53,3-.49.56-.93,1-1.35,1.41h0c-.22.21-.45.42-.65.59a.93.93,0,0,1-.13.52,1.32,1.32,0,0,1-.34.37l0,0a3.08,3.08,0,0,1-.48.32,1.29,1.29,0,0,1-.52.13c-.8,0-1.73-.69-2.79-2.06a37.73,37.73,0,0,1-3.62-6.24,7.6,7.6,0,0,0-1.1-1.49,24.94,24.94,0,0,0-2-1.9,4.06,4.06,0,0,0-.52-.36,1,1,0,0,0-.52-.16,8,8,0,0,0-3,.6,11.73,11.73,0,0,0-3,1.75c-.94.69-1.81,1.37-2.61,2l-2.39,2c-.49.7-.92,1.27-1.28,1.72a8.82,8.82,0,0,1-1,1.05c-.41-.21-.62-.44-.62-.68a5.59,5.59,0,0,1,0-.68,4.12,4.12,0,0,1,.26-.88,20.43,20.43,0,0,0,.7-2,24,24,0,0,0,.92-3.67,39.35,39.35,0,0,0,.47-6.13,9.57,9.57,0,0,0-.1-1.37,4.87,4.87,0,0,0-.61-1.95,2.43,2.43,0,0,0-2.21-1.12,7.26,7.26,0,0,0-3.76,1.7,37.39,37.39,0,0,0-5.47,5.14q-3.66,4-5.9,6.26a15.12,15.12,0,0,1-3,2.6.67.67,0,0,1-.52-.18.84.84,0,0,1-.15-.55c.2-.86.47-1.77.78-2.71,0-.18.06-.35.1-.53.22-1,.42-2,.55-2.94a22.56,22.56,0,0,0,.24-3.15,5.89,5.89,0,0,0-.16-1.41,3.36,3.36,0,0,0-.52-1.23,2.43,2.43,0,0,0-2.09-.91c-1.5.63-2.87,1.18-4.12,1.67q-1.89,1.92-3.3,3.42c-.94,1-1.74,1.79-2.4,2.42-1.29,1.18-2.65,2.53-4.1,4s-2.93,3.23-4.46,5.14l-.56.79-.38.54c-.28.4-.53.72-.74,1,.56,1.14,1,2.1,1.36,2.86a12.66,12.66,0,0,1,.73,1.94c.21-.25.4-.5.58-.76a4.45,4.45,0,0,0,.42-.81c1-1,1.86-1.82,2.56-2.56s1.29-1.37,1.78-1.92a11.79,11.79,0,0,1,2-2.22,2.54,2.54,0,0,1,1.49-.71.86.86,0,0,1,.36.08.78.78,0,0,1,.24.16.8.8,0,0,1,.24.6c0,1.49-.62,4.06-1.86,7.69-.57,1.68-1,3.08-1.31,4.22a13.16,13.16,0,0,0-.55,3,1.17,1.17,0,0,0,.81,1.1,6.12,6.12,0,0,0,2.38.36c.35,0,1.14-.58,2.38-1.74s2.89-3,5-5.4q2-2.19,3.89-4.36l3.72-4.25c1.12-.83,1.93-1.48,2.43-1.93s1-.9,1.38-1.35a5.42,5.42,0,0,1,1-.76,1.72,1.72,0,0,1,.81-.24,1,1,0,0,1,.63.25l.1.07a1.18,1.18,0,0,1,.31.88q-.46,3.28-.75,5.27c-.2,1.32-.34,2.21-.45,2.66a10,10,0,0,1-.47,1.83c-.28.87-.64,2-1.09,3.49-.31,1-.55,1.9-.75,2.68,0,.11-.06.23-.09.32a9.08,9.08,0,0,0-.31,2.06,3,3,0,0,0,.21,1.18,1.14,1.14,0,0,0,.62.65,19.75,19.75,0,0,0,2.09.16q1.56,0,7.87-8t9-8c1.35,0,3.31,1.56,5.86,4.67s5,4.67,7.43,4.67a5.7,5.7,0,0,0,2.56-.76,22.34,22.34,0,0,0,3.33-2.21h0q.63-.78,1-1.32a5.85,5.85,0,0,0,.52-.92l3-3.08.31-.15c.24,0,.42.26.55.78a16.06,16.06,0,0,1,.28,2.3,6.44,6.44,0,0,0,.06,1.82c.1,1,.31,2.42.62,4.23a7.34,7.34,0,0,0,1.88,4.25,5,5,0,0,0,2.67,1.33,11.45,11.45,0,0,0,1.19.1,7.6,7.6,0,0,0,3.47-1,12.89,12.89,0,0,0,3.68-3.11q1.46-1.61,2.87-3.26t2.81-3.36c.45-.49.88-1,1.28-1.46s.76-.91,1.07-1.25a7.35,7.35,0,0,1,.86,1.25,3.9,3.9,0,0,1,.44,1.25,8,8,0,0,0,2.45,4,6.06,6.06,0,0,0,3,1.26c.42,0,.84.09,1.28.09a8,8,0,0,0,3-1q2-1,5.14-2.84l-1.33-3.07-.74-1.69c.3.61.56,1.16.8,1.66l.54,1.16a12.66,12.66,0,0,1,.73,1.94c.35-.53.65-1,.91-1.31a8.72,8.72,0,0,0,.6-.89q6.63-6.19,10.33-9.33t4.38-3.13a1.2,1.2,0,0,1,1,.34,1.3,1.3,0,0,1,.15.29,1.89,1.89,0,0,1,.13.72c0,.63,0,1.54-.1,2.72s-.23,2.57-.47,4.17a31.9,31.9,0,0,1-.76,4.2c-.26,1-.51,1.43-.75,1.43s-.48-.27-.71-.81a1.15,1.15,0,0,0-1.12-.8,4.11,4.11,0,0,0-2.71,1,3.3,3.3,0,0,0-.94,1.29,3.27,3.27,0,0,0-.26,1.29,9.64,9.64,0,0,0,.31,1.43l.06.19a.68.68,0,0,0,0,.14c0,.21-.06.44-.09.7s0,.61,0,.88a16.43,16.43,0,0,0,.47,4.07,13.58,13.58,0,0,0,1.25,3.24,2.72,2.72,0,0,0,.21,1.35,1.24,1.24,0,0,0,.83.68l1.78-.6,1.67-.6a4.83,4.83,0,0,0,1.17-.73,7.73,7.73,0,0,0,1.38-1.51l1-.21,3-2.53c.89-.75,1.59-1.38,2.12-1.9,1.14-.74,2.2-1.41,3.15-2s1.8-1.18,2.53-1.67a8.62,8.62,0,0,1,1-1.14,6.7,6.7,0,0,1,1.22-.94,31.42,31.42,0,0,1,3.45-3.37,4.11,4.11,0,0,1,2.24-1.12q.31,0,.78.6a11.82,11.82,0,0,1,1.1,1.8c.34.52.66,1,.94,1.36a7.9,7.9,0,0,1,.62,1q1.73,5,3.13,6.1a7.79,7.79,0,0,0,4,1h0c.65,0,1.36.07,2.15.07a5.9,5.9,0,0,0,2.29-.76,26.78,26.78,0,0,0,3.66-2.32c1.28-.94,2.38-1.77,3.31-2.48.68-.53,1.23-1,1.72-1.45.14-.13.31-.27.44-.4a6,6,0,0,1-.26,1.25,1.29,1.29,0,0,0,0,.19,5.13,5.13,0,0,0-.22,1.17,15.3,15.3,0,0,0,.18,2.55,4.82,4.82,0,0,0,.66,1.78,5.93,5.93,0,0,0,1.14,1.43,19.54,19.54,0,0,0,1.93,1.59c.73.52,1.62,1.13,2.66,1.83a5.33,5.33,0,0,0,1.31.41,8.62,8.62,0,0,0,1.77.16c.75,0,1.47,0,2.19-.09a20.23,20.23,0,0,0,5.71-1.24,17.2,17.2,0,0,0,6.08-3.94,17.58,17.58,0,0,1,1.41-1.25,17.35,17.35,0,0,0,4.54-2.69q2-1.63,3.91-3.2a24.72,24.72,0,0,0-1.2-2.87Zm-138,1.83,0-.11,0,.11.48,1a13.41,13.41,0,0,1,.72,1.91C927.5,856.27,927.09,855.28,926.65,854.26ZM1003,855l-.32-.71c-.24-.55-.5-1.13-.78-1.75a1.2,1.2,0,0,1,.26.29,2.34,2.34,0,0,1,.26.58c.11.3.2.57.3.85s.2.55.3.8Zm30.21.93-.64-1.48-.47-1.08c.18.35.36.7.51,1,.07.15.16.31.23.46.15.34.25.67.38,1,.06.15.11.3.17.44Z"/><path d="M1093.43,794c0-.1,0-.22-.08-.3a1,1,0,0,0-1-.66,4.43,4.43,0,0,0-1.9.53,18.11,18.11,0,0,0-2.37,1.4,19.25,19.25,0,0,1-1.62,1.44l-1.88,1.49c-.21.07-.43.14-.65.23a3.36,3.36,0,0,0-.6.29,2.42,2.42,0,0,0-1.15.91,7.39,7.39,0,0,0-.94,1.85,8.84,8.84,0,0,0-.6,1.85l0,.25a4.6,4.6,0,0,0-.05,1.32v.08l.06,2.76a9.27,9.27,0,0,1-.66,3.39l-.19.64a10.64,10.64,0,0,0-.56,2.86l.16.73.88.57a2.15,2.15,0,0,0,.68-.1c0,1.18,0,2.06.1,2.71,0,.39,0,.72.08.91a7.34,7.34,0,0,1,.13,1.23,9.6,9.6,0,0,1-.31,2.19c-.21.87-.5,1.88-.89,3a9.21,9.21,0,0,1,0,2.82,18.3,18.3,0,0,1-.81,3.08v1a4.27,4.27,0,0,1-.11.92c0,.83-.06,1.44-.07,1.82s0,.49,0,.32c0,.8,0,1.65,0,2.55a5.28,5.28,0,0,1-.1.94c-.07.38-.16.75-.26,1.1a13.68,13.68,0,0,0-.63,1.93c0,.53-.1,1.08-.14,1.64,0,.17,0,.33,0,.5-.05.72-.08,1.49-.08,2.29,0,.33.08.69.12,1,.1.87.2,1.72.3,2.62l-.15.59-.37,1.55c0,.24,0,.61,0,1.1s0,.81,0,1a.9.9,0,0,0,.73.31c.59,0,1.75-.76,3.47-2.27s2.63-2.6,2.74-3.26q.32-3.5.57-5.4c.18-1.27.3-2,.37-2.27a5.14,5.14,0,0,0,.41-.81c.11-.26.19-.49.26-.7.11-.77.2-1.41.29-1.93a8,8,0,0,0,.13-1.36q1.1-6.36,1.93-11.19t1.41-8c.56-3.13,1-5.69,1.25-7.7s.44-3.38.47-4.14a15.8,15.8,0,0,1,.32-2c.17-.83.39-1.82.67-3a28.13,28.13,0,0,0,.6-2.95,15.47,15.47,0,0,0,.18-2.06A6,6,0,0,0,1093.43,794Z"/><path d="M1083.67,858.56a6.6,6.6,0,0,0-2.55-.39,6.94,6.94,0,0,0-4.52,2,7.13,7.13,0,0,0-2,2.75,4.19,4.19,0,0,0-.28,1.37,7,7,0,0,0,.6,3.31,2,2,0,0,0,1.22,1,5.73,5.73,0,0,0,.58.07,9.77,9.77,0,0,0,2.27-.39,10.59,10.59,0,0,1,2.18-.38h.14a8.7,8.7,0,0,0,1-.1,2.93,2.93,0,0,0,.67-.21,1.76,1.76,0,0,0,.89-1,12,12,0,0,0,.21-1.48,9.22,9.22,0,0,1,.21-1.49l.52-4a1.46,1.46,0,0,0-.42-.62A2.44,2.44,0,0,0,1083.67,858.56Z"/></g></g></svg>