<svg xmlns="http://www.w3.org/2000/svg" xmlns:xlink="http://www.w3.org/1999/xlink" viewBox="0 0 1081.05 1080"><defs><style>.cls-1{fill:#3854a2;}.cls-2{fill:url(#Névtelen_színátmenet_2);}</style><linearGradient id="Névtelen_színátmenet_2" x1="269.89" y1="340.64" x2="906.35" y2="842.1" gradientTransform="matrix(1, 0, 0, -1, 0, 1126.1)" gradientUnits="userSpaceOnUse"><stop offset="0" stop-color="#2ea2dc"/><stop offset="1" stop-color="#41aae1"/></linearGradient></defs><title>neteam</title><g id="Layer_2"><g id="Réteg_1"><path id="path4568" class="cls-1" d="M540.09,0C324.85,0,125.18,129.24,40.68,334.4-57.43,572.59,26.73,847.5,241.34,990s499.52,113.35,680.88-69.47l-54.77-54.34C711.58,1023.3,468.4,1048.11,284,925.7A462.88,462.88,0,0,1,629.86,86c217.31,43,388,233.93,373.13,451.45-2.93,42.92-19.36,67.66-46,85.47s-66.39,27-112.51,24.33c-68.89-4-149.6-34.86-214.7-88.11-6.62,12.09-13.28,25.37-20.28,39.92-4.79,10-9.69,20.45-14.87,31.27,74.62,57.07,163.27,89.15,245.35,93.94,58.54,3.42,114.86-7.15,159.84-37.18s75.86-81.19,80.18-144.39C1097.72,282.47,897.26,60.25,644.84,10.3A540,540,0,0,0,550.35.1Q545.2,0,540.09,0ZM275.25,323.23c-33.63,0-55.24,6.4-55.24,6.4l22.84,73.69s27.3-9.28,76.53,2C362.3,415.17,419.53,441,481,510.37c11.22-22.64,24-46.61,40.13-69.86-65.67-67-131.31-98.18-184.52-110.38A272.79,272.79,0,0,0,275.25,323.23Z"/><path id="path841" class="cls-2" d="M773.26,304.82l11.45,42.73c-10,.76-21.63,1.86-34.27,3.5-36,4.69-79.46,12.29-116.06,33.76-68.21,40-101,105.42-129.19,164s-52.9,111.29-94.93,144.06c-4.08,3.18-35.8,17.75-62.16,26.49s-49.33,14.79-49.33,14.79l19.62,74.62s25-6.57,54-16.18,60-19.13,85.32-38.89c61.07-47.63,89.46-114.21,117-171.43s53.18-104.24,98.72-131c18-10.56,55.6-19.72,87-23.8,18.48-2.41,34.49-3.5,44.68-4L816,464.25,922.82,364.6Z"/></g></g></svg>