<?xml version="1.0" encoding="UTF-8" standalone="no"?>
<svg width="100%" height="100%" viewBox="0 0 2486 775" version="1.1" xmlns="http://www.w3.org/2000/svg" xmlns:xlink="http://www.w3.org/1999/xlink" xml:space="preserve"  style="fill-rule:evenodd;clip-rule:evenodd;stroke-linejoin:round;stroke-miterlimit:2;">
    <g id="Parkett" transform="matrix(4.16667,0,0,4.16667,6,-28)">
        <g transform="matrix(1,0,0,1,8.2549,43.4305)">
            <path d="M0,82.178C0.142,82.178 0.289,82.173 0.442,82.161C1.242,82.102 1.873,82.054 9.169,74.062C14.802,67.891 18.84,63.679 21.185,61.532C31.451,51.92 39.339,44.49 44.627,39.454C55.771,28.934 57.135,25.618 56.998,23.762C56.704,19.776 54.181,19.346 53.11,19.346C52.996,19.346 52.879,19.35 52.76,19.359C51.893,19.423 50.771,19.874 45.792,24.773C41.828,28.732 38.824,31.468 36.865,32.903C34.829,34.393 32.826,35.883 30.911,37.328C28.405,39.064 27.115,39.39 26.568,39.43C25.625,39.504 24.641,39.326 23.667,38.924C22.57,38.449 22.609,38.065 22.63,37.859C22.75,36.268 23.907,33.25 28.734,27.909C32.531,23.721 36.875,19.935 41.645,16.657C49.194,11.457 55.896,8.61 61.563,8.193C62.273,8.141 62.945,8.146 63.756,8.22C67.304,8.432 69.159,9.31 69.271,10.829C69.638,15.816 66.706,21.957 60.558,29.081C59.079,30.794 55.41,34.111 49.655,38.935C41.372,45.84 41.402,46.255 41.476,47.26C41.688,50.14 43.614,50.364 44.199,50.364L44.414,50.356C45.432,50.282 47.26,49.558 53.696,44.807C58.692,41.06 62.6,37.678 65.317,34.748C74.691,24.564 79.003,16.289 78.5,9.45C78.245,5.982 75.672,3.349 70.851,1.624C67.642,0.481 65.194,0 63.376,0.132C56.232,0.657 47.821,3.936 38.381,9.875C32.084,13.803 26.346,18.595 21.326,24.12C15.836,30.172 13.292,34.806 13.548,38.287C13.841,42.263 15.984,46.959 24.309,47.478C19.966,51.938 16.554,55.393 14.142,57.773L2.549,69.259C-3.705,75.53 -4.153,77.009 -4.075,78.078C-3.885,80.646 -2.362,82.178 0,82.178" style="fill-rule:nonzero;"/>
        </g>
        <g transform="matrix(1,0,0,1,228.447,87.7151)">
            <path d="M0,-2.839C0.002,-2.777 0.002,-2.715 0.007,-2.654C0.073,-1.765 0.628,0.304 4.359,0.304C4.664,0.304 4.99,0.291 5.343,0.265C5.749,0.234 6.796,0.125 8.504,-0.069C9.609,-0.208 10.501,-0.278 11.155,-0.278L11.351,-0.277C11.789,-0.277 12.79,-0.31 16.223,-0.545C12.127,3.852 9.923,6.237 9.533,6.689C8.936,7.327 8.348,7.972 7.754,8.614C7.113,8.018 6.197,7.712 5.097,7.794C4.661,7.825 4.398,7.844 -3.485,11.645C-8.349,13.991 -12.187,15.281 -14.894,15.48C-15.504,15.525 -16.069,15.548 -16.588,15.548L-16.589,15.548C-18.937,15.548 -19.732,15.07 -19.749,14.84C-19.75,14.816 -19.745,14.782 -19.739,14.748C-18.157,13.726 -17.989,13.227 -18.007,12.649C-17.937,12.59 -17.876,12.534 -17.8,12.473C-15.07,10.835 -11.519,8.223 -7.245,4.71C-3.721,1.832 -1.337,-0.647 0,-2.839M-105.399,13.263C-105.387,13.249 -105.372,13.232 -105.36,13.22C-105.184,13.272 -104.94,13.353 -104.605,13.479C-104.725,13.632 -104.868,13.815 -105.015,14.001C-105.102,13.744 -105.226,13.493 -105.399,13.263M-160.189,25.773C-160.319,23.999 -157.943,21.711 -153.507,19.335C-149.156,17.043 -145.453,15.77 -142.5,15.553C-142.391,15.544 -142.286,15.539 -142.187,15.535C-143.017,17.791 -145.626,20.112 -149.96,22.446C-154.27,24.741 -157.539,25.904 -159.677,25.904C-159.83,25.904 -159.979,25.897 -160.161,25.881C-160.167,25.881 -160.172,25.88 -160.177,25.88C-160.182,25.851 -160.186,25.815 -160.189,25.773M-169.071,26.425C-168.915,28.555 -167.965,30.306 -166.249,31.627C-164.803,32.741 -162.977,33.307 -160.824,33.307C-160.505,33.307 -160.178,33.294 -159.842,33.269C-153.928,32.835 -147.719,30.161 -141.364,25.315L-140.266,27.065L-140.126,27.255C-138.782,28.825 -136.945,29.576 -134.763,29.42C-129.113,29.005 -123.292,27.214 -117.466,24.101C-113.704,22.109 -111.053,20.584 -109.186,19.382C-111.188,22.275 -111.438,23.592 -111.373,24.486C-111.216,26.608 -109.814,28.352 -107.16,29.69C-105.35,30.535 -103.852,30.946 -102.58,30.946C-102.44,30.946 -102.304,30.94 -102.173,30.931C-98.601,30.668 -95.44,30.082 -92.787,29.19C-91.426,28.74 -88.77,27.645 -84.647,25.833C-83.262,25.202 -81.861,24.518 -80.455,23.798C-79.875,25.745 -78.727,26.22 -77.756,26.22L-77.56,26.213C-75.766,26.08 -73.753,25.355 -71.407,23.995L-71.295,23.924C-69.585,22.734 -67.842,21.54 -66.104,20.369C-63.731,18.868 -61.791,17.644 -60.283,16.701C-59.886,18.849 -59.195,20.732 -58.216,22.326C-56.435,25.186 -53.995,26.637 -50.965,26.637C-50.735,26.637 -50.5,26.628 -50.262,26.611C-45.371,26.25 -39.068,24.244 -30.99,20.475C-29.523,19.784 -28.229,19.166 -27.072,18.607C-26.377,19.465 -25.405,20.217 -24.147,20.851C-22.234,21.816 -19.887,22.306 -17.172,22.306C-16.569,22.306 -15.944,22.283 -15.299,22.235C-11.152,21.93 -6.05,20.315 -0.15,17.447C-1.528,19.213 -1.642,19.897 -1.596,20.52C-1.321,24.262 1.283,24.553 2.075,24.553C2.184,24.553 2.297,24.549 2.413,24.54C3.298,24.474 3.742,24.441 17.264,9.888C23.873,2.808 26.282,0.216 27.159,-0.738L41.108,-1.765C45.616,-2.182 46.53,-2.317 46.884,-2.424C47.565,-2.589 48.115,-2.808 48.566,-3.059C49.097,-3.106 49.563,-3.132 49.94,-3.132L50.136,-3.13C50.574,-3.13 51.575,-3.164 55.008,-3.399C50.913,0.999 48.708,3.383 48.319,3.836C45.946,6.368 43.596,8.946 41.358,11.469C37.388,15.735 37.124,16.764 37.189,17.666C37.465,21.409 40.069,21.699 40.86,21.699C40.97,21.699 41.083,21.695 41.198,21.687C42.083,21.621 42.527,21.588 56.049,7.035C62.668,-0.055 65.071,-2.641 65.944,-3.591L79.895,-4.618C84.416,-5.037 85.319,-5.171 85.67,-5.278C89.101,-6.104 89.321,-8.305 89.253,-9.221C89.061,-11.822 85.497,-11.822 84.326,-11.822C83.348,-11.822 82.165,-11.751 80.747,-11.602C80.312,-11.541 79.382,-11.468 77.411,-11.468C76.749,-11.468 76.01,-11.476 75.185,-11.493C73.978,-11.508 72.899,-11.512 71.948,-11.506C74.926,-15.107 77.509,-18.207 79.674,-20.778C87.64,-31.145 87.61,-31.548 87.551,-32.353C87.375,-34.759 85.926,-36.146 83.671,-35.98C82.331,-35.882 80.467,-34.873 72.574,-23.839C67.961,-18.224 64.343,-14.049 61.81,-11.414L50.752,-10.601C46.813,-10.312 44.489,-10.107 43.566,-9.959C42.07,-9.643 41.023,-9.176 40.294,-8.637C39.842,-8.624 39.298,-8.615 38.626,-8.615L38.625,-8.615C37.964,-8.615 37.226,-8.623 36.4,-8.639C35.191,-8.654 34.11,-8.659 33.162,-8.653C36.134,-12.247 38.718,-15.347 40.888,-17.925C48.854,-28.292 48.825,-28.695 48.766,-29.499C48.589,-31.906 47.152,-33.295 44.885,-33.127C43.546,-33.028 41.687,-32.023 33.755,-20.943C29.156,-15.349 25.55,-11.188 23.024,-8.561L11.967,-7.748C8.031,-7.458 5.708,-7.254 4.78,-7.106C3.012,-6.732 1.868,-6.148 1.141,-5.483C1.275,-6.061 1.329,-6.62 1.289,-7.16C1.11,-9.578 -0.562,-11.022 -3.183,-11.022C-3.384,-11.022 -3.593,-11.014 -3.81,-10.999C-4.613,-10.94 -5.88,-10.572 -10.795,-6.922C-14.38,-4.227 -17.642,-1.411 -20.489,1.448C-24.611,5.591 -27.083,9.182 -27.973,12.33C-29.412,12.938 -31.191,13.688 -33.411,14.62C-41.32,17.941 -46.75,19.728 -49.592,19.936C-49.981,19.936 -50.555,19.547 -51.167,18.869C-51.947,18.006 -52.366,17.049 -52.447,15.941C-52.493,15.321 -52.434,14.678 -52.27,14.03C-52.096,13.342 -51.998,12.667 -51.978,12.017C-47.814,8.293 -42.18,3.743 -35.205,-1.531C-35.033,-1.664 -33.794,-2.558 -26.05,-7.96C-21.111,-11.256 -20.255,-12.509 -20.349,-13.789C-20.447,-15.109 -21.375,-16.526 -23.85,-16.341C-24.745,-16.276 -26.303,-15.84 -30.457,-13.014C-33.056,-11.155 -35.686,-9.293 -38.362,-7.423C-47.142,-1.182 -53.387,3.36 -57.396,6.418C-53.191,1.47 -52.816,0.021 -52.889,-0.967C-52.953,-1.845 -53.375,-2.654 -54.15,-3.377C-55.063,-4.221 -55.989,-4.399 -56.606,-4.399C-56.688,-4.399 -56.77,-4.396 -56.853,-4.39C-57.805,-4.32 -58.704,-4.254 -73.625,12.704C-73.724,12.81 -73.817,12.908 -73.916,13.013C-74.521,13.102 -75.606,13.486 -79.1,15.427C-82.253,17.101 -84.644,18.269 -86.199,18.896C-93.414,21.771 -98.499,23.334 -101.313,23.541C-101.597,23.562 -101.855,23.556 -102.003,23.537C-102.041,20.801 -99.5,18.026 -94.492,15.308C-91.971,14.053 -89.412,12.825 -86.886,11.659L-86.786,11.609C-85.729,11.028 -82.51,9.261 -82.71,6.538C-82.937,3.465 -84.724,1.702 -87.613,1.702C-87.796,1.702 -87.986,1.709 -88.182,1.723C-89.924,1.852 -91.918,2.829 -94.281,4.707C-96.754,6.673 -97.861,6.947 -98.221,6.974L-98.337,6.978C-98.432,6.979 -98.486,6.969 -98.5,6.972C-98.52,6.936 -98.566,6.836 -98.6,6.625C-98.787,5.417 -98.958,4.224 -99.11,3.047L-99.211,2.658C-99.638,1.588 -100.912,-0.243 -104.448,0.014C-105.852,0.119 -107.907,1.082 -112.5,7.445C-117.227,13.995 -117.556,15.378 -117.488,16.315C-117.479,16.436 -117.46,16.543 -117.447,16.658C-118.376,17.176 -119.392,17.748 -120.526,18.395C-124.299,20.544 -128.345,21.801 -132.574,22.131C-132.633,21.99 -132.721,21.696 -132.761,21.148C-132.762,21.14 -132.795,20.216 -130.034,17.764C-126.647,14.762 -126.087,13.753 -126.162,12.744C-126.434,9.033 -128.336,8.479 -129.446,8.479C-129.524,8.479 -129.605,8.482 -129.686,8.488C-130.975,8.583 -132.173,8.931 -133.262,9.527C-135.245,7.829 -137.801,7.076 -140.901,7.307C-149.344,7.928 -156.373,10.247 -161.806,14.209C-166.942,18.027 -169.387,22.137 -169.071,26.425" style="fill-rule:nonzero;"/>
        </g>
        <g transform="matrix(1,0,0,1,586.491,93.541)">
            <path d="M0,-78.473C-0.852,-77.333 -2.424,-75.482 -5.326,-72.528C-9.851,-67.923 -14.414,-63.856 -18.894,-60.439C-22.48,-57.693 -26.53,-55.11 -30.944,-52.754C-31.591,-52.4 -32.397,-51.979 -33.362,-51.493C-28.178,-56.496 -24.465,-59.933 -22.286,-61.746C-8.958,-72.828 -2.821,-76.974 0,-78.473M8.78,-80.578C8.658,-82.232 7.963,-83.699 6.711,-84.94C5.402,-86.236 3.923,-86.84 2.309,-86.723C-0.306,-86.531 -4.455,-84.368 -10.787,-79.891C-12.382,-78.696 -17.634,-74.666 -26.838,-67.571C-32.043,-63.568 -38.107,-58.229 -44.864,-51.701C-48.945,-47.758 -53.103,-43.705 -57.264,-39.612C-57.447,-39.429 -58.629,-38.375 -64.487,-33.379C-67.131,-31.131 -69.46,-28.768 -71.417,-26.349C-75.444,-21.318 -77.615,-18.589 -78.101,-17.941C-78.166,-17.845 -78.22,-17.752 -78.283,-17.657C-78.392,-17.603 -78.485,-17.558 -78.6,-17.501C-81.336,-16.18 -83.224,-15.313 -84.198,-14.93C-89.897,-12.743 -92.158,-12.206 -93.052,-12.14C-93.354,-12.118 -93.64,-12.106 -93.91,-12.106C-95.875,-12.107 -96.159,-12.643 -96.213,-12.978C-96.117,-13.15 -95.738,-13.69 -94.378,-14.694C-91.818,-16.611 -90.237,-17.895 -89.552,-18.61C-87.551,-20.672 -86.627,-22.965 -86.807,-25.428C-87.046,-28.652 -89.243,-28.902 -89.911,-28.902C-89.996,-28.902 -90.084,-28.899 -90.172,-28.893C-91.192,-28.819 -92.569,-28.09 -96.286,-24.678C-100.115,-21.097 -102.669,-18.817 -103.896,-17.885C-109.99,-13.095 -116.238,-10.434 -122.466,-9.976C-122.748,-9.956 -123.014,-9.945 -123.259,-9.945C-123.946,-9.945 -124.319,-10.028 -124.503,-10.092C-124.252,-10.667 -123.172,-12.423 -118.532,-17.007C-111.368,-24.08 -111.424,-24.84 -111.49,-25.717C-111.712,-28.736 -113.433,-29.062 -114.163,-29.062C-114.437,-29.062 -114.717,-29.017 -114.975,-28.937C-116.32,-28.544 -118.896,-27.239 -125.699,-20.467C-126.373,-19.784 -126.974,-19.157 -127.538,-18.556C-127.915,-18.743 -128.32,-18.831 -128.7,-18.831C-128.774,-18.831 -128.852,-18.829 -128.93,-18.823C-129.646,-18.77 -130.87,-18.448 -134.531,-16.465C-137.757,-14.714 -140.021,-13.553 -141.246,-13.022C-152.056,-8.484 -156.082,-7.401 -157.555,-7.293C-157.642,-7.286 -157.727,-7.284 -157.807,-7.284C-158.452,-7.284 -158.459,-7.376 -158.491,-7.824C-158.561,-8.751 -157.802,-11.713 -149.313,-19.191C-144.151,-22.768 -140.112,-25.311 -137.268,-26.767C-133.559,-28.802 -129.822,-30.903 -126.167,-33.013C-121.888,-35.48 -119.829,-38.244 -120.048,-41.226C-120.19,-43.163 -121.534,-44.366 -123.556,-44.366C-123.695,-44.366 -123.84,-44.36 -123.991,-44.349C-129.021,-43.979 -136.487,-39.762 -146.812,-31.459C-149.693,-29.144 -153.809,-25.189 -159.044,-19.703C-160.979,-17.681 -162.522,-15.983 -163.78,-14.524C-164.101,-14.61 -164.441,-14.665 -164.816,-14.665C-164.943,-14.665 -165.075,-14.661 -165.214,-14.651C-165.859,-14.603 -167.183,-14.32 -172.11,-12.58C-176.453,-11.014 -179.671,-9.944 -181.678,-9.398C-192.269,-6.491 -195.874,-5.779 -197.034,-5.693C-197.096,-5.688 -197.157,-5.686 -197.222,-5.686C-198.472,-5.686 -200.802,-6.549 -204.777,-10.65C-207.243,-13.243 -209.382,-15.962 -211.148,-18.749C-207.004,-21.149 -201.951,-24.327 -196.104,-28.211C-188.332,-33.325 -180.99,-38.612 -174.286,-43.923C-150.305,-62.807 -150.396,-64.043 -150.493,-65.352L-150.552,-65.679C-151.312,-68.309 -153.247,-68.593 -154.044,-68.593C-154.142,-68.593 -154.241,-68.589 -154.347,-68.581C-155.042,-68.53 -155.761,-68.475 -163.979,-61.563C-170.811,-55.942 -175.692,-52.059 -178.493,-50.019C-189.199,-42.161 -197.38,-36.421 -202.954,-32.85C-199.582,-37.139 -196.879,-40.414 -194.863,-42.65C-194.342,-43.306 -192.404,-45.648 -186.15,-53.071C-181.803,-58.108 -180.976,-60.003 -181.071,-61.298C-181.177,-62.739 -181.54,-63.708 -182.219,-64.353C-182.934,-65.028 -183.95,-65.301 -185.474,-65.188L-186.168,-65.136L-186.604,-64.594C-191.709,-58.249 -196.343,-52.734 -200.381,-48.2C-211.353,-35.843 -221.309,-25.357 -229.963,-17.044C-231.614,-15.481 -235.871,-11.886 -242.62,-6.356C-249.771,-0.47 -250.28,0.971 -250.195,2.132C-250.064,3.895 -249.272,5.417 -247.839,6.654C-246.521,7.791 -245.155,8.367 -243.777,8.367C-243.657,8.367 -243.537,8.363 -243.417,8.354C-242.61,8.295 -241.606,8.22 -227.021,-4.001C-225.01,-5.756 -223.013,-7.509 -221.033,-9.261C-218.937,-11.117 -217.917,-11.507 -217.579,-11.584C-217.375,-11.467 -216.765,-11.038 -215.565,-9.597C-213.375,-7 -211.904,-5.356 -211.032,-4.539C-205.035,0.773 -200.864,3.115 -197.905,2.9C-194.745,2.667 -188.475,0.909 -178.742,-2.473C-174.452,-3.954 -171.229,-5.178 -168.8,-6.213C-168.799,-6.162 -168.8,-6.109 -168.797,-6.061C-168.647,-4.04 -167.849,-2.374 -166.427,-1.109C-165.135,0.044 -163.6,0.629 -161.863,0.629C-161.673,0.629 -161.479,0.621 -161.283,0.607C-158.817,0.425 -155.542,-0.287 -151.274,-1.57C-146.156,-3.1 -141.692,-4.916 -138.027,-6.958C-136.525,-7.766 -134.996,-8.572 -133.452,-9.378L-133.452,-9.364C-133.294,-7.226 -132.322,-5.473 -130.563,-4.155C-129.061,-3.025 -127.357,-2.452 -125.503,-2.452C-125.277,-2.452 -125.05,-2.46 -124.82,-2.477C-119.439,-2.873 -115.383,-3.584 -112.461,-4.637C-110.654,-5.231 -107.978,-6.587 -104.296,-8.774C-102.423,-7.336 -101.601,-6.894 -101.108,-6.704C-99.065,-5.738 -96.452,-5.367 -93.272,-5.6C-90.473,-5.806 -86.526,-7.042 -81.208,-9.378C-81.204,-9.285 -81.21,-9.19 -81.204,-9.098C-81.117,-7.914 -80.421,-6.774 -79.073,-5.612C-77.614,-4.351 -75.982,-3.712 -74.227,-3.712C-74.048,-3.712 -73.868,-3.719 -73.688,-3.732C-70.533,-3.964 -66.916,-5.264 -62.873,-7.635C-59.995,-9.508 -57.09,-11.384 -54.154,-13.262C-50.011,-11.359 -46.684,-10.532 -44.026,-10.726C-41.145,-10.938 -37.028,-11.912 -31.427,-13.706C-23.105,-16.447 -22.441,-17.154 -22.55,-18.627C-22.784,-21.781 -24.625,-22.122 -25.405,-22.122L-25.618,-22.114C-26.266,-22.065 -27.644,-21.799 -32.588,-20.147C-36.021,-18.997 -39.31,-18.3 -42.362,-18.076C-43.33,-18.004 -44.206,-18.032 -44.971,-18.16C-41.054,-21.697 -39.242,-24.769 -39.444,-27.508C-39.609,-29.759 -41.063,-31.102 -43.31,-30.936C-45.469,-30.777 -48.304,-28.955 -52.22,-25.213C-54.44,-23.134 -55.98,-21.505 -56.913,-20.244C-59.894,-18.128 -62.841,-16.017 -65.715,-13.937C-69.428,-11.427 -71.356,-10.738 -72.345,-10.576C-72.184,-11.234 -71.149,-13.694 -64.809,-21.635C-63.031,-23.834 -60.833,-26.133 -58.336,-28.413C-56.187,-30.181 -54.588,-31.507 -53.548,-32.388C-53.014,-32.84 -49.757,-34.856 -33.94,-43.285C-25.22,-47.955 -18.657,-51.991 -14.434,-55.278C-7.94,-60.332 -2.279,-65.494 2.397,-70.624C8.181,-77.017 8.883,-79.187 8.78,-80.578" style="fill-rule:nonzero;"/>
        </g>
        <g transform="matrix(1,0,0,1,-0.3447,193.107)">
            <path d="M0,-1.24C-0.801,-1.225 -1.011,-0.728 -1.047,-0.195C1.515,-0.926 -1.803,0 0,-1.24" style="fill-rule:nonzero;"/>
        </g>
        <g transform="matrix(1,0,0,1,297.651,132.359)">
            <path d="M0,-0.109C0.031,-0.075 0.062,-0.041 0.106,0C0.083,-0.046 0.045,-0.081 0,-0.109" style="fill-rule:nonzero;"/>
        </g>
        <g transform="matrix(1,0,0,1,75.23,172.664)">
            <path d="M0,0.281C0.15,0.287 0.387,0.21 0.776,-0.006C0.428,0.047 0.184,0.15 0,0.281" style="fill-rule:nonzero;"/>
        </g>
        <g transform="matrix(1,0,0,1,334.731,129.109)">
            <path d="M0,-0.312C-0.095,-0.289 -0.189,-0.266 -0.285,-0.242C-0.284,0 -0.167,-0.101 0,-0.312" style="fill-rule:nonzero;"/>
        </g>
        <g transform="matrix(1,0,0,1,43.2378,180.886)">
            <path d="M0,0.142C0.647,0.144 1.409,0.675 1.966,-0.092C2.437,0.095 1.715,0.944 2.622,0.742C3.178,-0.171 1.626,-0.802 0.102,-0.655C0.05,-0.682 0.023,-0.707 -0.015,-0.733C0.155,-0.455 0.219,-0.174 0,0.142" style="fill-rule:nonzero;"/>
        </g>
        <g transform="matrix(1,0,0,1,9.0937,187.281)">
            <path d="M0,0.305C0.077,0.192 0.169,0.101 0.253,0C0.085,0.066 -0.027,0.153 0,0.305" style="fill-rule:nonzero;"/>
        </g>
        <g transform="matrix(1,0,0,1,172.219,139.873)">
            <path d="M0,-0.127C-0.053,-0.062 -0.091,0.009 -0.122,0.082C0.214,-0.009 0.564,-0.105 0.942,-0.209L0,-0.127Z" style="fill-rule:nonzero;"/>
        </g>
        <g transform="matrix(1,0,0,1,4.7837,191.619)">
            <path d="M0,0.44L0.313,0C0.187,0.125 0.073,0.265 0,0.44" style="fill-rule:nonzero;"/>
        </g>
        <g transform="matrix(1,0,0,1,42.3574,181.028)">
            <path d="M0,0.7C0.46,0.444 0.732,0.214 0.88,0.001C0.541,0 0.231,0.142 0,0.7" style="fill-rule:nonzero;"/>
        </g>
        <g transform="matrix(1,0,0,1,266.912,124.597)">
            <path d="M0,0.284C0.047,0.29 0.092,0.288 0.139,0.294C0.375,0.205 0.607,0.106 0.833,-0.01C0.517,-0.01 0.344,0.082 0,0.284" style="fill-rule:nonzero;"/>
        </g>
        <g transform="matrix(1,0,0,1,43.2231,179.892)">
            <path d="M0,0.261C-0.053,0.174 -0.114,0.087 -0.183,0C-0.191,0.083 -0.133,0.17 0,0.261" style="fill-rule:nonzero;"/>
        </g>
        <g transform="matrix(1,0,0,1,18.7935,187.653)">
            <path d="M0,-0.375C-0.02,-0.257 -0.026,-0.132 -0.016,0L0,-0.375Z" style="fill-rule:nonzero;"/>
        </g>
        <g transform="matrix(1,0,0,1,309.602,174.522)">
            <path d="M0,-44.5C-0.233,-44.443 -0.516,-44.371 -0.822,-44.292C-0.517,-44.433 -0.226,-44.526 0,-44.5M231.677,-57.517C227.267,-57.497 221.493,-57.338 217.478,-58.075C200.443,-58.551 183.399,-61.678 165.944,-60.992C166.856,-60.559 165.873,-59.971 164.978,-59.79L164.762,-60.146L163.386,-59.36C162.082,-59.294 162.649,-60.316 163.749,-60.437C156.814,-60.522 150.604,-60.26 143.868,-60.583C143.412,-59.385 140.352,-60.569 140.111,-59.309C139.799,-59.546 140.092,-59.603 140.285,-59.848C135.592,-59.234 135.275,-59.179 131.007,-60.713C112.77,-61.749 95.186,-60.647 77.227,-60.405C59.063,-59.614 41.265,-57.72 22.711,-56.05C20,-53.95 16.033,-54.567 12.792,-52.687L12.963,-53.286C10.156,-52.25 9.353,-53.206 5.66,-53.597C5.677,-52.919 4.279,-53.289 4.889,-52.225C3.711,-51.171 2.49,-53.604 0.716,-52.939C0.622,-53.309 0.816,-52.28 0.402,-52.596C-4.171,-50.838 1.244,-53.288 -4.798,-53.848C-13.074,-52.768 -21.456,-50.767 -29.483,-50.578C-28.995,-50.683 -28.67,-49.818 -29.474,-49.717C-30.435,-51.437 -32.112,-48.937 -33.594,-49.505C-33.526,-49.89 -32.867,-50.078 -32.516,-50.277C-36.187,-50.631 -39.073,-49.232 -42.55,-49.631C-45.723,-48.438 -49.737,-49.561 -51.816,-48.352C-51.387,-49.138 -53.335,-48.701 -54.079,-48.967C-56.167,-46.524 -60.52,-48.901 -63.292,-47.102L-63.242,-47.487C-72.055,-46.24 -81.708,-45.158 -90.757,-42.87C-95.888,-41.9 -101.998,-42.72 -107.521,-40.848C-108.515,-40.39 -107.607,-40.063 -108.417,-39.728C-109.852,-39.538 -108.515,-40.39 -109.113,-40.547C-111.755,-39.214 -115.614,-39.619 -119.113,-39.001C-119.462,-38.595 -120.423,-38.324 -120.003,-37.879C-124.134,-38.569 -129.068,-35.62 -133.241,-35.919C-131.503,-34.347 -135.381,-34.473 -136.686,-33.777C-137.484,-33.71 -137.67,-34.17 -137.504,-34.567C-140.424,-33.772 -141.959,-33.421 -145.603,-33.26C-147.183,-32.728 -147.418,-31.646 -149.426,-31.538C-150.894,-32.559 -153.503,-30.77 -155.508,-30.859C-154.805,-29.863 -157.076,-28.507 -159.08,-28.609L-158.793,-30.263C-164.685,-28.076 -173.82,-28.136 -180.604,-24.805L-181.312,-25.601C-188.484,-23.108 -195.977,-22.785 -202.712,-19.545C-204.73,-19.618 -207.862,-19.304 -209.747,-18.877C-212.161,-17.536 -213.101,-17.42 -214.583,-15.799C-215.53,-15.501 -216.275,-16.087 -216.717,-16.321C-220.012,-15.861 -223.405,-16.329 -225.667,-14.304L-225.948,-15.041C-228.341,-13.679 -231.815,-11.827 -234.915,-11.93C-235.547,-11.051 -238.364,-10.054 -236.828,-9.51C-237.922,-9.057 -237.894,-10.6 -238.842,-9.497L-238.039,-10.873C-244.578,-9.426 -249.9,-7.419 -255.891,-4.917C-258.077,-5.641 -261.758,-3.029 -265.448,-2.526C-267.254,-1.137 -271.14,-0.944 -272.098,1.145L-272.458,0.449C-275.189,1.364 -278.822,2.72 -282.499,3.685C-284.622,4.32 -284.189,5.403 -285.63,6.433L-286.023,5.749C-287.603,6.929 -287.596,8.238 -287.937,9.235C-289.489,9.304 -289.417,9.881 -290.97,9.954C-289.844,9.021 -289.069,7.777 -288.607,6.436C-290.901,7.03 -292.264,9.731 -294.041,9.268C-295.883,9.823 -297.109,10.708 -296.958,11.649C-297.169,11.446 -298.234,11.663 -297.56,10.914C-298.845,11.544 -299.648,12.023 -300.255,12.759C-299.999,12.658 -299.608,12.605 -299.349,12.452C-299.649,13.468 -300.966,14.035 -300.161,14.968C-299.634,14.382 -299.676,14.194 -298.782,13.879C-298.783,14.795 -300.906,16.016 -301.758,15.677C-302.773,15.26 -300.884,13.669 -302.124,13.753L-304.504,17.097C-303.905,16.508 -302.865,16.491 -302.837,17.249L-301.674,16.057L-301.363,16.857C-299.152,15.365 -297.088,15.442 -294.92,13.646L-296.22,13.291C-294.792,12.577 -293.803,10.815 -292.05,11.116C-292.578,11.711 -291.93,11.89 -291.717,12.322C-291.448,12.027 -291.219,11.528 -290.752,11.484L-290.808,12.756C-290.508,11.006 -287.075,10.761 -286.575,10.223L-286.682,10.561C-284.248,10.222 -287.387,9.967 -285.912,9.324C-284.557,9.015 -284.825,10.601 -283.435,10.681C-281.272,9.669 -277.793,7.193 -274.871,7.323C-272.951,6.349 -270.935,4.967 -269.309,3.752C-267.486,3.139 -268.903,5.234 -267.287,3.977C-267.318,4.529 -266.885,4.958 -266.562,5.371C-266.503,4.75 -263.136,4.313 -265.01,3.56C-262.276,2.928 -259.267,2.055 -256.525,0.965C-257.435,1.336 -257.402,2.309 -256.476,2.514C-255.451,1.243 -253.322,0.044 -250.887,-0.43C-251.204,-1.347 -251.971,-1.098 -251.988,-2.079C-251.68,-2.334 -251.227,-2.916 -250.615,-3.028C-249.994,-2.173 -249.671,-0.675 -247.528,-1.232C-247.668,0.421 -251.203,-0.396 -249.804,0.819C-250.387,2.302 -254.152,3.527 -255.238,3.056C-256.712,4.904 -253.722,2.76 -253.689,4.117C-252.034,3.503 -251.448,2.607 -248.878,1.615C-249.034,0.965 -249.954,1.129 -248.89,0.262C-246.913,-1.73 -245.673,0.391 -245.067,0.285C-245.366,0.532 -245.828,0.707 -246.13,0.95C-244.452,0.964 -244.15,-0.063 -242.48,-0.453C-241.551,1.15 -245.061,0.474 -245.366,1.702L-243.833,2.603C-241.263,2.068 -243.538,1 -240.801,0.723L-240.946,1.434L-239.427,0.59C-239.573,-0.063 -240.185,-0.934 -241.555,-0.41C-241.087,-2.33 -240.329,-1.016 -238.186,-1.946C-237.719,-3.085 -239.112,-1.609 -239.405,-2.528C-239.861,-3.331 -238.328,-3.777 -237.236,-4.213C-235.386,-4.685 -236.017,-3.43 -235.11,-2.986C-235.419,-2.744 -236.805,-2.251 -236.798,-2.835C-238.812,-1.274 -235.292,-1.117 -236.685,-0.04C-234.822,0.074 -235.163,-1.013 -234.372,-1.577C-234.877,-1.596 -234.336,-2.605 -234.803,-2.839C-232.436,-6.189 -232.384,-1.454 -229.609,-2.644C-230.64,-4.139 -226.304,-5.937 -228.873,-7.214C-228.242,-7.689 -227.446,-8.273 -226.673,-8.273C-227.181,-6.956 -225.157,-7.705 -226.279,-6.304L-225.211,-6.544L-226.49,-4.826C-225.124,-4.33 -222.988,-4.03 -222.236,-3.644C-220.822,-4.503 -222.972,-4.614 -221.26,-5.312C-221.744,-4.579 -220.531,-4.348 -219.752,-4.548C-221.428,-4.615 -220.149,-6.138 -219.212,-6.653C-217.653,-7.049 -216.161,-6.271 -216.33,-5.952L-217.618,-4.635C-216.655,-5.728 -217.016,-4.33 -215.922,-4.94C-215.731,-5.637 -215.222,-6.762 -215.014,-7.651C-214.074,-8.148 -213.178,-7.479 -212.862,-7.704L-214.296,-6.67C-212.268,-7.388 -213.459,-5.039 -211.417,-5.952L-211.058,-6.956C-210.609,-6.909 -210.31,-6.559 -210.643,-6.138C-210.451,-6.839 -209.208,-6.979 -208.73,-7.323L-208.458,-6.775C-207.657,-7.35 -206.811,-8.901 -205.476,-7.987C-206.635,-9.209 -206.564,-7.761 -208.235,-8.057C-209.414,-8.882 -206.929,-9.362 -206.615,-9.593C-206.393,-8.079 -204.271,-9.943 -203.182,-10.153C-202.437,-9.749 -201.835,-9.621 -201.38,-9.378L-201.166,-10.46C-200.357,-8.617 -199.095,-11.358 -197.739,-11.016C-198.243,-10.289 -197.992,-9.542 -197.074,-9.443C-198.535,-10.642 -195.543,-11.633 -196.092,-12.532C-193.781,-12.479 -196.231,-10.599 -195.37,-9.723C-194.506,-11.058 -192.769,-9.495 -192.334,-11.079C-194.022,-11.2 -192.27,-12.046 -192.067,-12.746C-190.032,-13.036 -192.27,-12.046 -190.747,-11.812C-189.947,-12.183 -189.072,-13.513 -190.455,-13.664C-189.222,-13.59 -188.175,-15.234 -186.683,-14.614C-185.965,-13.818 -189.06,-13.707 -188.169,-13.215C-185.359,-13.682 -187.216,-15.721 -184.674,-16.54C-185.884,-16.809 -185.132,-18.61 -183.986,-19.397C-181.022,-19.568 -185.131,-18.61 -183.805,-17.675L-182.691,-18.073C-180.78,-16.804 -185.576,-14.816 -183.798,-13.831L-182.659,-14.609C-182.847,-14.109 -183.086,-13.224 -182.49,-12.893C-182.39,-14.053 -179.636,-13.734 -179.46,-14.037C-179.383,-15.009 -180.418,-13.569 -180.359,-14.336C-179.084,-14.846 -178.797,-16.503 -176.645,-16.319C-177.637,-15.455 -175.972,-15.137 -176.328,-14.52C-175.261,-14.33 -176.233,-15.68 -174.707,-15.442L-174.759,-14.857C-169.419,-15.728 -162.801,-17.101 -158.667,-20.272C-157.642,-19.504 -155.917,-19.756 -153.131,-19.628C-154.364,-19.708 -153.37,-20.575 -152.729,-20.828L-151.24,-20.007C-149.557,-19.693 -147.735,-21.125 -146.424,-22.016C-146.129,-21.857 -145.99,-21.582 -145.858,-21.309C-144.338,-20.878 -144.549,-22.2 -144.065,-22.543L-143.007,-21.964L-142.964,-22.738C-141.672,-23.431 -139.811,-23.602 -139.745,-22.355C-139.253,-22.688 -138.767,-23.022 -139.522,-23.24C-138.01,-22.797 -134.255,-23.52 -131.863,-24.406C-133.088,-24.487 -133.062,-24.875 -133.308,-25.617C-133.205,-26.977 -132.704,-25.48 -131.857,-26.424C-131.74,-25.949 -130.526,-25.678 -131.657,-25.092C-128.042,-24.075 -123.693,-26.291 -119.488,-26.756C-118.687,-27.117 -118.983,-27.282 -118.638,-27.701C-115.78,-26.863 -112.805,-28.767 -109.872,-28.684C-110.6,-29.117 -109.969,-30.787 -108.396,-31.085C-106.855,-32.44 -107.45,-29.713 -105.79,-29.338C-105.101,-29.967 -103.669,-30.347 -103.044,-30.384L-103.062,-30.19C-102.212,-30.922 -100.768,-31.503 -99.558,-31.198L-99.724,-31.093C-98.786,-31.153 -97.606,-30.659 -96.657,-30.913C-96.386,-31.987 -93.936,-31.771 -93.506,-32.759C-93.372,-32.667 -93.539,-32.562 -93.246,-32.391L-93.298,-33.252L-91.3,-33.064C-91.667,-32.667 -91.708,-32.282 -92.208,-31.972C-90.068,-31.688 -91.641,-32.862 -90.634,-33.481C-89.291,-34.307 -89.24,-33.456 -88.494,-33.198C-89.02,-32.687 -89.577,-33.243 -89.91,-33.034C-90.622,-32.237 -89,-32.887 -88.897,-32.408C-88.588,-32.424 -88.612,-33.476 -87.532,-33.431C-86.605,-33.469 -84.51,-34.052 -84.628,-33.084C-83.923,-33.691 -82.992,-33.729 -82.469,-34.232C-83.234,-34.294 -84.628,-34.332 -84.881,-34.894C-84.223,-35.113 -82.926,-35.559 -82.656,-35.185L-83.162,-34.875C-82.656,-35.185 -80.643,-35.19 -81.793,-35.897L-80.218,-34.915C-79.798,-35.699 -78.383,-35.862 -77.255,-36.196C-77.065,-35.255 -77.839,-34.065 -75.656,-34.161L-73.946,-35.393C-72.984,-35.626 -72.702,-35.452 -72.772,-34.867C-69.37,-34.829 -69.724,-37.991 -66.988,-37.529C-67.946,-36.25 -67.005,-36.285 -65.785,-36.121C-65.757,-36.314 -65.703,-36.7 -65.22,-36.803C-65.627,-37.273 -65.81,-35.933 -66.816,-36.573C-67.19,-37.235 -65.799,-37.176 -65.285,-37.472C-62.628,-35.335 -57.439,-37.864 -53.499,-37.197C-53.927,-38.521 -51.854,-37.807 -51.143,-38.405C-51.203,-36.958 -49.04,-38.929 -47.904,-38.198L-48.64,-39.518C-46.235,-39.004 -45.124,-42.104 -43.491,-40.61C-42.134,-40.354 -43.811,-39.539 -44.327,-39.238C-42.357,-37.962 -39.678,-41.058 -38.047,-39.52C-37.952,-40.097 -38.598,-40.958 -37.084,-41.633C-35.755,-41.167 -33.176,-40.689 -33.38,-40.411C-32.375,-40.797 -32.145,-41.275 -30.958,-40.896C-31.021,-40.518 -31.505,-40.417 -31.848,-40.218C-30.006,-40.044 -28.631,-40.811 -27.104,-41.495C-26.021,-40.537 -22.909,-41.413 -20.793,-41.041C-19.759,-42.482 -17.393,-40.867 -17.403,-42.589C-17.435,-42.404 -17.156,-42.208 -17.015,-42.121C-16.294,-42.693 -15.774,-43.856 -14.797,-44.018L-15.007,-42.875C-15.099,-41.538 -12.573,-42.664 -11.95,-42.272C-12.586,-42.969 -10.731,-42.285 -10.736,-43.105L-9.612,-43.565C-7.793,-44.018 -9.445,-44.138 -7.184,-44.494C-5.897,-44.67 -6.632,-43.236 -7.085,-43.34C-5.948,-42.853 -4.882,-43.275 -3.787,-43.624C-4.192,-43.584 -4.344,-43.651 -3.977,-43.928C-3.938,-43.784 -3.821,-43.709 -3.675,-43.66C-3.266,-43.787 -2.852,-43.9 -2.429,-43.946C-2.437,-43.92 -2.437,-43.905 -2.442,-43.883C-2.895,-43.775 -3.312,-43.686 -3.625,-43.641C-3.328,-43.563 -2.895,-43.6 -2.445,-43.632C-2.395,-43.554 -2.262,-43.575 -2.08,-43.649C-1.709,-43.662 -1.358,-43.642 -1.118,-43.498L-1.354,-42.595C-0.556,-42.624 1.553,-43.814 1.453,-44.183C4.623,-43.708 9.709,-44.804 11.782,-45.427C11.382,-45.2 11.361,-44.912 11.746,-45.238C12.81,-45.484 13.964,-46.317 14.112,-45.759C15.133,-46.186 15.131,-45.214 16.743,-45.242C16.776,-45.101 16.86,-45.686 16.705,-45.914C19.479,-44.98 22.718,-47.203 25.971,-46.636C25.711,-46.553 25.369,-46.027 25.13,-45.726C27.597,-46.333 29.945,-46.86 32.124,-48.077C31.912,-47.663 32.007,-47.292 31.43,-47.027C33.163,-47.16 35.163,-47.529 35.922,-48.396C34.716,-48.727 35.87,-47.911 35.07,-47.902C33.779,-48.591 35.962,-49.563 37.122,-49.397L37.167,-49.212C38.905,-49.323 38.955,-49.807 40.69,-49.91C41.762,-49.46 39.796,-49.617 40.246,-49.09C40.733,-47.708 44.26,-48.406 44.624,-48.259C45.021,-48.587 45.601,-48.85 45.512,-49.226C46.853,-49.667 46.179,-48.436 47.114,-48.551L50.712,-51.322C50.581,-50.937 51.98,-50.193 50.865,-49.66C53.684,-49.984 55.211,-51.699 56.924,-52.663C57.777,-52.473 60.505,-53.176 61.446,-53.284C61.932,-52.571 60.645,-53.289 60.457,-52.696L61.918,-51.896C60.04,-51.689 62.212,-50.589 61.217,-49.998C62.704,-50.552 66.313,-50.123 68.586,-49.97C66.962,-51.533 71.593,-50.847 71.444,-52.271C74.09,-52.624 72.808,-51.159 73.821,-50.877C76.559,-51.534 79.193,-51.22 81.695,-51.467C81.695,-51.467 81.737,-51.272 81.604,-51.17C83.891,-51.677 87.631,-51.411 89.907,-52.719C89.809,-52.428 90.024,-52.153 89.437,-51.917C91.922,-51.449 89.849,-53.767 92.731,-52.952L92.084,-52.23C93.846,-52.949 95.543,-51.659 97.551,-52.784C97.627,-52.398 97.183,-52.267 96.899,-52.055C98.748,-52.399 100.848,-52.281 102.398,-53.271C102.653,-52.816 102.41,-52.414 101.684,-52.074C103.53,-51.554 103.659,-53.375 105.34,-52.938C105.828,-52.887 106.741,-52.297 106.431,-52.266C107.258,-52.912 109.805,-52.934 110.721,-53.198C110.961,-52.736 111.628,-52.597 112.678,-52.119C121.884,-52.183 131.308,-51.946 140.462,-53.215C141.984,-51.764 138.317,-52.338 139.288,-51.338C139.227,-52.58 140.837,-51.676 143.618,-52.053L143.73,-51.871C144.921,-52.122 145.578,-51.32 146.86,-51.687L146.82,-52.01C148.187,-52.796 149.816,-50.376 150.553,-51.945L151.586,-51.052C152.936,-52.439 153.704,-50.58 155.362,-51.731L155.168,-51.485C157.379,-50.839 159.81,-52.95 160.646,-51.818C162.543,-52.007 164.73,-52.252 165.104,-53.337C165.508,-52.918 165.235,-52.257 164.946,-51.896C172.027,-52.268 179.926,-51.756 186.299,-53.08C186.604,-52.838 186.207,-52.662 186.009,-52.427C189.994,-53.606 194.023,-50.822 197.001,-53.149L198.078,-54.139C198.988,-53.702 198.893,-52.983 199.595,-52.601C200.391,-53.245 203.195,-52.639 203.689,-53.529C204.092,-53.099 203.491,-52.996 203.492,-52.694C205.297,-52.409 207.454,-53.824 209.151,-53.426L208.588,-52.995C217.509,-50.927 229.026,-48.849 236.532,-50.742C238.563,-51.019 237.341,-49.35 238.241,-49.425C245.964,-50.908 254.899,-47.241 262.038,-49.73C267.531,-50.112 269.495,-53.25 269.495,-53.25C256.207,-52.942 244.608,-55.191 231.677,-57.517" style="fill-rule:nonzero;"/>
        </g>
        <g transform="matrix(1,0,0,1,305.814,130.862)">
            <path d="M0,0.036C0.053,0.031 0.102,0.027 0.162,0.018C0.145,0.014 0.13,0.006 0.112,0C0.075,0.012 0.038,0.024 0,0.036" style="fill-rule:nonzero;"/>
        </g>
        <g transform="matrix(1,0,0,1,1.9146,191.71)">
            <path d="M0,-1.18C0.127,-0.61 1.13,-0.391 1.541,0.064C2.216,-1.244 0.714,-0.843 0,-1.18" style="fill-rule:nonzero;"/>
        </g>
        <g transform="matrix(1,0,0,1,41.3677,181.348)">
            <path d="M0,-0.77C-0.127,-0.45 0.045,-0.19 -0.414,0.012C0.064,0.195 0.326,-0.452 0.775,-0.654C0.623,-0.71 -0.012,-0.965 0,-0.77" style="fill-rule:nonzero;"/>
        </g>
        <g transform="matrix(1,0,0,1,51.1523,179.862)">
            <path d="M0,-2.139L-3.106,0C-1.921,-0.488 0.014,-1.575 0,-2.139" style="fill-rule:nonzero;"/>
        </g>
        <g transform="matrix(1,0,0,1,60.8877,178.015)">
            <path d="M0,-0.837C-0.139,-0.512 -0.443,-0.262 -0.284,0C0.768,-0.305 0.92,-0.597 0,-0.837" style="fill-rule:nonzero;"/>
        </g>
        <g transform="matrix(1,0,0,1,62.6436,175.959)">
            <path d="M0,-0.088C0.073,-0.057 0.147,-0.026 0.219,0.006C0.189,-0.079 0.104,-0.094 0,-0.088" style="fill-rule:nonzero;"/>
        </g>
        <g transform="matrix(1,0,0,1,61.1802,176.373)">
            <path d="M0,-0.604C0.006,0.189 1.004,-0.474 1.463,-0.501C1.068,-0.669 0.637,-0.793 0,-0.604" style="fill-rule:nonzero;"/>
        </g>
        <g transform="matrix(1,0,0,1,81.5103,172.06)">
            <path d="M0,-0.017C-0.177,0.87 1.388,-0.7 1.999,-0.387C1.402,-0.887 0.466,-0.189 0,-0.017" style="fill-rule:nonzero;"/>
        </g>
        <g transform="matrix(1,0,0,1,91.4224,169.617)">
            <path d="M0,-0.817C-0.315,-0.585 -0.462,-0.654 -0.772,-0.619L-0.336,0C0.118,-0.162 0.612,-0.699 0,-0.817" style="fill-rule:nonzero;"/>
        </g>
        <g transform="matrix(1,0,0,1,262.344,135.545)">
            <path d="M0,0.572L1.002,0.164L0.085,0L0,0.572Z" style="fill-rule:nonzero;"/>
        </g>
        <g transform="matrix(1,0,0,1,340.117,128.919)">
            <path d="M0,-0.245C1.239,-0.413 -0.002,0.425 0.935,0.301C0.755,0.23 1.018,-0.67 0,-0.245" style="fill-rule:nonzero;"/>
        </g>
        <g transform="matrix(1,0,0,1,381.232,122.709)">
            <path d="M0,1.153L0.317,1.127L0.065,0L0,1.153Z" style="fill-rule:nonzero;"/>
        </g>
    </g>
</svg>
