<?xml version="1.0" encoding="utf-8"?>
<!-- Generator: Adobe Illustrator 21.0.0, SVG Export Plug-In . SVG Version: 6.00 Build 0)  -->
<svg version="1.1" id="Réteg_2" xmlns="http://www.w3.org/2000/svg" xmlns:xlink="http://www.w3.org/1999/xlink" x="0px" y="0px"
	 viewBox="0 0 1132.4 634.6" enable-background="new 0 0 1132.4 634.6" xml:space="preserve">
<g>
	<path d="M208.5,296.4c-5.1-3.1-10.9-4.9-16.9-5.4c-4.3,4.8-6.8,11.2-6.9,17.5c-0.1,5.5,1.7,11,4.9,15.6
		c11.4-2.9,21.8-9.6,29.1-18.6C215.8,301.8,212.3,298.8,208.5,296.4z M191.2,319.6c-1.9-3.4-2.8-7.3-2.8-11.1
		c0.1-4.8,1.8-9.6,4.8-13.5c4.7,0.6,9.3,2.2,13.3,4.7c2.6,1.6,5,3.5,7.1,5.7C207.6,312,199.8,316.9,191.2,319.6z"/>
	<path d="M249.9,285.3l-0.2-0.5c-3.5-6.8-8.6-13-14.9-17.9c-2-1.6-4-3-6-4.2c-11-6.5-24.1-9.9-39.1-9.9c-2,0-3.9,0.1-5.9,0.2
		c-6.8,0.4-13.8,1.4-22.1,3.2l-3.6,0.8l-2.5,2.7c-6.6,7.1-11.3,16.8-14.6,29.7c-7.1,27.7-6.8,58.4,0.9,91.3c1.4,5.9,3,11.8,4.8,17.6
		l2.2,7.1l7.4,0.9c4.1,0.5,8.3,0.7,12.5,0.7c8.6,0,17.2-1,25.6-3l5.2-1.2l2.4-4.8c6.1-12.5,10-26.3,11.1-40.2
		c8.1-3.2,15.2-7.5,21.2-12.8c12.3-10.8,19.6-26.1,19.6-41C253.9,297.6,252.5,291.3,249.9,285.3z M231.7,342
		c-6.2,5.5-13.7,9.8-22.3,13c-0.9,14.2-4.6,28.4-10.9,41.2l-1.6,3.2l-3.5,0.8c-8.1,1.9-16.4,2.9-24.7,2.9c-4,0-8.1-0.2-12.1-0.7
		l-4.9-0.6l-1.5-4.7c-1.8-5.7-3.3-11.5-4.7-17.3c-7.5-32.3-7.8-62.4-0.9-89.5c3.1-12.2,7.6-21.4,13.7-28l1.6-1.8l2.4-0.5
		c8.1-1.7,15-2.7,21.6-3.1c1.9-0.1,3.8-0.2,5.6-0.2c14.3,0,26.8,3.1,37.2,9.3c1.9,1.1,3.8,2.4,5.6,3.9c5.8,4.6,10.6,10.3,13.9,16.7
		l0.1,0.2l0.1,0.2c2.3,5.3,3.5,11.1,3.5,16.8C250,317.6,243.2,331.9,231.7,342z"/>
	<path d="M283.6,271c-6.6,1.8-9.8,8.7-12.7,14.8c-3,6.2-4.4,13-5.4,19.8c-4.1,29.4,1.7,60.1,16.3,85.9c2.2,0.4,4-0.8,6-1.7
		c3.2-1.6,6.4-3.1,9.7-4.7c2.6-1.2,5.2-2.5,7.4-4.3c2.2-1.8,4.8-3.8,4.9-6.7c1.2-35-1.3-70.3-7.5-104.8
		C296.1,268.8,289.7,269.3,283.6,271z"/>
	<path d="M227.8,275.9c-1.5-1.2-3.1-2.3-4.8-3.3c-11.4-6.8-25.2-8.9-38.5-8.1c-6.9,0.4-13.7,1.5-20.4,2.9c-6.1,6.7-9.7,15.8-12,24.8
		c-7.1,28-5.6,57.7,1,85.9c1.3,5.7,2.8,11.3,4.5,16.8c11.4,1.3,23,0.6,34.2-2.1c6.6-13.5,10.2-28.4,10.4-43.4
		c9-2.7,17.6-6.9,24.6-13.1c9.3-8.2,15.7-20.1,15.8-32.5c0-4.7-1-9.4-2.9-13.7C236.8,284.6,232.7,279.7,227.8,275.9z M186.6,332.4
		c-6.1-6.4-9.6-15.2-9.5-24c0.1-9.5,4.5-18.8,11.5-25.1c8.3,0,16.7,2.3,23.8,6.6c6.3,3.8,11.7,9.2,15.5,15.6
		C218.6,319.6,203.2,329.6,186.6,332.4z"/>
	<path d="M429.8,352.4c-4.9,0-9.7,1-14.6,0.7c-2.1-0.1-4.3-0.6-6.3-1.5c2.7-5.5,6.6-10.4,10.8-14.9c6.8-7.1,14.4-13.5,20.1-21.5
		c3-4.2,5.4-9,6.6-14c-1.3-5.6-3.2-11-5.9-16.2c-2.3-4.5-5.3-9-9.8-11.4c-10.6-5.8-24.4-2.1-35.6-1.8c-14,0.5-27.9,0.9-41.7-1.3
		c-2.9-0.4-6-1-8.8-2.1c-3.6-1.4-7.6,0-9.5,3.3c-2,3.3-3.5,6.8-4.4,10.6c-1.3,5.2-1.5,10.7-0.6,15.9c0,0,0,0,0,0
		c3.1,1.7,6.7,1.7,10.2,1.6c18.3-0.2,36.5-0.3,54.8-0.5c4.9,0,10,0,14.3,2.1c3.8,1.9,6.9,6.1,6.5,10.2c-26.6,7.4-52,19.2-74.8,34.9
		c-5.9,4.1-11.8,8.6-15,14.9c-3.8,7.5-3.3,16.9,0.4,24.5c1.1,2.3,2.5,4.5,4.1,6.5c0,0,0.1,0,0.1,0.1c4.4,1,9,0.8,13.5,0.6
		c18.7-0.8,37.5-1.7,56.2-2.5c8.7-0.4,17.5-0.8,25.8-3.4c0.7-0.2,1.5-0.5,2.2-0.8c3-3.2,5.4-6.9,7-11c2.8-7,3.1-14.9,1.1-22.2
		C434.6,352.8,432.1,352.5,429.8,352.4z"/>
	<path d="M631.4,334.3l12.8,0.9c1,0.1,2,0.1,3,0.1c2.2,0,2.9-0.4,3.1-0.5c0.4-0.3,1.3-1.4,1.7-6.2c0.7-8,0.3-16-1-23.9
		C640.7,311.2,633.4,322.3,631.4,334.3z M648.2,328.4c-0.1,1.6-0.3,2.6-0.5,3.2c-0.2,0-0.4,0-0.6,0c-0.9,0-1.8-0.1-2.7-0.1l-8.4-0.6
		c2.1-7.4,6.4-14.1,12.1-19.2C648.6,317.2,648.7,322.8,648.2,328.4z"/>
	<path d="M682.2,307.2c-2.4-11.4-7-22.6-14.6-31.4c-9.1-0.4-18.2,0.7-26.9,3.3c-14.9,10.9-29,22.9-40.7,37.1
		c-11,13.4-19.7,29-23.7,45.8c-24.4,2.7-49.2,2-73.5-2c5-5.7,11.4-10.4,17.7-14.9c13.2-9.3,26.4-18.7,39.6-28
		c7.4-5.2,15.1-11,18.1-19.5c2.1-6,1.5-12.9-1.7-18.4c-3-5.2-8.3-9-14.2-10.3c-29.9-0.2-59.9,1.6-89.5,5.4c-3.6,3.7-6.5,8.1-7.8,13
		c-1.1,3.9-1,8.2,0.3,12c0.4,0.2,0.8,0.4,1.3,0.6c3.6,1.5,7.6,1.7,11.5,1.8c16.1,0.5,32.1,1,48.2,1.5c1.6,0.1,3.3,0.1,4.8,0.8
		c0.2,0.1,0.3,0.2,0.5,0.3c-1.7,1.7-3.6,3.2-5.5,4.6c-13.1,9.4-27.5,16.7-40.9,25.6c-9.4,6.2-18.3,13.3-25.6,21.8
		c-0.2,7.6,1.3,15.2,4.7,22c2.9,5.8,7,11,11.9,15.2c16.2,2.2,32.8,2,49.2,1.6c22.8-0.5,45.6-0.9,68.4-2.5
		c12.1-9.8,22.2-22.1,29.1-36.1c10.1,0,20.2-1,30.1-3c-0.7,11.5,1.6,23.2,6.6,33.6c3.9,0.4,7.7,0.6,11.6,0.2
		c3.4-0.4,6.8-1.3,9.8-2.7c4.1-11.8,4.2-25.2,4.2-37.9C685,333.5,684.9,320.1,682.2,307.2z M659.5,329.3c-0.4,4.3-1.3,9.1-4.8,11.7
		c-3.1,2.3-7.3,2.1-11.2,1.8c-4.6-0.3-9.1-0.7-13.7-1c-2.2-0.2-4.8-0.5-5.9-2.5c-0.7-1.2-0.6-2.7-0.5-4.1
		c1.8-15.5,11.3-29.9,24.8-37.7c2.2-1.3,5-2.4,7.2-1c1.7,1.1,2.3,3.3,2.7,5.3C659.9,310.8,660.3,320.1,659.5,329.3z"/>
	<path d="M674.9,256.7c2.3,0.6,4.7,1.2,6.9,0.6c2.5-0.7,4.4-2.8,5.9-4.9c2.1-2.8,4.1-5.7,5.9-8.7c0.5-0.8,1-1.8,0.6-2.7
		c-0.5-1.1-1.9-1.4-3.2-1.5c-4.5-0.3-9-0.4-13.6-0.2c-1.5,0.1-3.1,0.2-4.4,0.9c-1.7,0.9-2.7,2.7-3.6,4.4c-1.4,2.6-2.8,5.7-1.4,8.3
		C669.3,255.1,672.3,256,674.9,256.7z"/>
	<path d="M996.4,271.9l-2.3-0.8c-6.3-2.2-12.7-4.4-19.7-5c-1.1-0.1-2.3-0.2-3.4-0.2c-6.8,0-12.7,1.8-17.3,5.2
		c-6,4.4-9.9,11.8-11.1,20.7c-0.8,6.4-0.2,12.8,0.6,18.9l-14.3,0.6c3.6-7.6,6.5-15.5,8.6-23.6c1-3.7,1.6-7.5-0.6-11
		c-2.5-3.9-7.2-4.9-10.5-5.2c-9.3-1-18.8,0.3-27.5,3.6c-2.3,0.9-5.1,2.1-7.6,4.1c-2.4-5.2-5.5-8.8-9.4-10.9
		c-3.1-1.7-6.7-2.5-11.4-2.5c-1,0-1.9,0-2.8,0.1c-18.5,1-36.3,8.4-50.1,20.8c-9.1,8.1-16.2,18.4-20.9,29.7c-0.6-0.8-1.2-1.5-1.9-2.2
		c-1.9-1.8-4.2-3.2-6.8-4.1c0.4-0.2,0.7-0.5,1-0.7c5.7-4.2,7.7-11.5,8.8-17.4c2-11.2,0.6-19.1-4.4-24.3c-4.3-4.4-10.3-5.9-16.2-6.8
		c-15.2-2.3-29.3-1.9-41.7,1c-14.6,3.5-27.6,10.9-36.5,20.8c-3.9,4.3-6.5,8.6-7.9,12.9c-3.3-10.5-8.2-19.8-14.5-27.1
		c1,0.1,2.1,0.3,3.2,0.3c1.8,0,3.5-0.2,5.1-0.7c6.5-1.8,10.3-6.8,11.9-9c2.4-3.1,4.6-6.4,6.6-9.8c3.3-5.5,2.5-10,1.4-12.9
		c-1-2.3-4.1-7.8-12.8-8.5c-3.2-0.2-6.4-0.4-9.6-0.4c-1.8,0-3.5,0-5.3,0.1c-1.8,0.1-5.6,0.2-9.3,2.3c-4.8,2.6-7,6.8-8.2,9
		c-1.6,2.9-5.7,10.8-1.4,18.9c1.5,2.9,3.6,4.9,5.8,6.3c0,0,0,0,0,0c-9,0-17.9,1.3-26.4,3.8l-1.9,0.6l-1.6,1.2
		c-18.5,13.6-32.1,26-42.8,39c-10.8,13.2-19,27.8-23.7,42.4c-6.8,0.5-13.7,0.8-20.6,0.8c-5.3,0-10.7-0.2-16-0.5l35.8-25.3
		c7.6-5.4,18-12.7,22.3-25c3.2-9.1,2.2-19.5-2.6-27.9c-4.6-7.9-12.4-13.7-21.5-15.7l-1.2-0.3l-5.5,0c-29,0-58.2,1.9-86.9,5.5l-4,0.5
		l-2.8,2.9c-5.3,5.5-8.9,11.6-10.6,18c-0.2,0.6-0.3,1.3-0.4,2c-0.9-2.2-1.8-4.3-2.9-6.4c-2.5-4.9-6.8-12-14.4-16.2
		c-5.7-3.1-12.4-4.7-20.5-4.7c-4.5,0-8.7,0.4-12.9,0.9c-2.9,0.3-5.6,0.6-8,0.7c-5.7,0.2-11.2,0.4-16.6,0.4c-9,0-16.3-0.5-23-1.5
		c-2.1-0.3-4.5-0.8-6.4-1.5c-2.2-0.9-4.5-1.3-6.9-1.3c-6.7,0-13,3.6-16.4,9.3c-2.6,4.3-4.5,8.9-5.7,13.7c-1.7,6.6-1.9,13.7-0.8,20.6
		l0.4,2.6l1.3,1.8l1.5,2.3l2.6,1.4c4.9,2.7,10,3,14.4,3l44.4-0.4c-17.2,7.1-33.5,15.9-48.7,26.4c-4.5,3.1-9.4,6.7-13.5,11.4
		c-0.4-27.3-3.1-54.6-7.9-81.5l-1.5-8.5l-8.6-0.8c-2-0.2-4-0.3-6-0.3c-5.7,0-11.3,0.8-16.8,2.3c-11.5,3.2-16.5,13.6-19.8,20.5
		l-0.2,0.4c-4,8.4-5.6,17.2-6.4,23.1c-4.4,31.9,1.8,65,17.6,93.1l2.5,4.5l5.1,1c1.1,0.2,2.1,0.3,3.2,0.3c4.2,0,7.3-1.6,9.3-2.6
		l0.7-0.4l9.7-4.7c2.8-1.4,6.4-3.1,9.7-5.7c0.8-0.6,1.7-1.4,2.7-2.3c0.5,1.3,1,2.6,1.6,3.8c1.4,3,3.2,5.8,5.5,8.7l1.2,1.5l1.7,1.1
		l1.8,1.1l1.8,0.4c3.2,0.7,6.5,1.1,10.5,1.1c2,0,4-0.1,6.1-0.2l56.2-2.5c8.9-0.4,19-0.8,28.8-3.9c0.9-0.3,1.8-0.6,2.8-1l2.5-0.9
		l1.8-1.9c4.1-4.3,7.2-9.3,9.3-14.6c1.4-3.5,2.3-7.1,2.8-10.8c1,5,2.5,9.8,4.7,14.3c3.5,7.2,8.6,13.7,14.8,18.9l2.5,2.1l3.3,0.4
		c9.9,1.4,20.3,2,33.8,2c5.8,0,11.6-0.1,17.1-0.2c22.4-0.4,45.6-0.9,68.9-2.5l3.6-0.2l2.8-2.2c11.5-9.3,21.5-20.9,28.9-33.7
		c4.1-0.2,8.2-0.5,12.3-1c1,8.8,3.5,17.2,7.3,25.2l2.7,5.6l6.2,0.7c3.1,0.4,5.9,0.5,8.5,0.5c2,0,3.9-0.1,5.7-0.3
		c4.8-0.5,9.5-1.8,13.6-3.8l4.2-2.1l1.5-4.4c0.7-2,1.3-4,1.8-6.1c1.9,3.8,4.5,7.2,7.8,9.8c8.7,7,19.1,8.6,26.4,8.8l1.2,0
		c9.2,0,18.1-2.1,25.6-4.2c12.3-3.4,27.5-9,36.2-21.4c1.4-2,2.7-4.3,3.8-6.8c1.8,5.2,4.3,10,7.3,14.2c9.1,12.6,23.8,20.5,38.4,20.5
		c2.2,0,4.4-0.2,6.5-0.5c8.8-1.5,17.7-6,25.5-13.1c3.9-3.5,7.7-7.8,11.6-13c-0.6,3-1.2,6-1.8,9l-3.7,17.8l3.4,0.4
		c9.1,1,19.8,1.1,30.7,0.1c4.6-0.4,9.3-1.2,12.9-4.4c4.9-4.3,5.6-11,5.7-17c0.2-11.3-1.8-19.6-6.1-25.4c4.2-1.3,8.9-2,13.8-2
		c0.6,13.4-1.1,27.1-5.1,39.9l-0.1,0.4c-0.5,3.1,1.5,5.7,3.7,6.9c1.9,1,4,1.2,5.6,1.3c5.3,0.4,10.5,0.8,15.8,1.1
		c2.1,0.1,4.2,0.2,6.2,0.2c4.3,0,7.7-0.5,10.7-1.6c8.8-3.1,15.7-11.6,18.4-22.7c2.1-8.7,1.5-17.7,1-26.3l-0.1-1.8
		c-1.5-22.9-1-47.1,1.6-78.3L996.4,271.9z M696.4,347.3c0.3,2.5,0.3,5,0,7.6C696.4,352.2,696.4,349.7,696.4,347.3z M696.4,343.2
		c0-4.4-0.1-8.8-0.3-13.2c0.7,1.2,1.6,2.3,2.6,3.3c1.5,1.5,3.3,2.8,5.4,3.7C701.2,338.5,698.6,340.6,696.4,343.2z M661.4,256.3
		c-3.3-6.4,0-12.7,1.4-15.4c1.1-2,2.9-5.4,6.6-7.5c2.9-1.6,6-1.7,7.7-1.8c1.7-0.1,3.4-0.1,5.2-0.1c3.1,0,6.2,0.1,9.3,0.3
		c6.4,0.5,8.7,4.1,9.6,6.1c1.2,3,0.9,6.2-1.1,9.5c-1.9,3.2-4.1,6.4-6.4,9.5c-1.5,2-4.6,6.1-9.9,7.6c-1.3,0.4-2.7,0.5-4.1,0.5
		c-2.7,0-5.1-0.6-6.8-1.1C670.1,263.3,664.3,261.7,661.4,256.3z M442.8,378.5c-1.9,4.9-4.8,9.4-8.5,13.4l-1.2,1.3l-1.7,0.6
		c-1,0.4-1.8,0.7-2.6,0.9c-9.3,2.9-19.1,3.4-27.8,3.8l-56.2,2.5c-2,0.1-3.9,0.2-5.9,0.2c-3.7,0-6.8-0.3-9.7-1l-1.2-0.3l-1.3-0.8
		l-1.1-0.7l-0.8-1c-2.1-2.6-3.7-5.2-5-7.9c-1.7-3.5-2.8-7.2-3.3-11c-1.5,3.9-4.7,6.4-6.8,8.1c-3,2.4-6.2,3.9-9,5.3l-9.7,4.7
		l-0.8,0.4c-1.8,0.9-4.3,2.2-7.6,2.2c-0.8,0-1.7-0.1-2.5-0.2l-3.4-0.7l-1.7-3c-15.4-27.4-21.5-59.6-17.2-90.7c0.8-5.7,2.3-14.1,6-22
		l0.2-0.4c3.2-6.7,7.6-15.8,17.4-18.5c5.1-1.4,10.4-2.1,15.8-2.1c1.9,0,3.8,0.1,5.6,0.3l5.7,0.5l1,5.7c5.6,31.5,8.2,63.4,7.8,95.2
		c0.5-1.7,1.1-3.3,1.9-4.9c4.1-8.1,11.2-13.4,17.5-17.7c20.5-14.2,43-25.2,66.8-32.9c-1.9-0.4-4.1-0.5-6.7-0.5l-58,0.5
		c-4,0-8.3-0.3-12.5-2.6l-1.7-0.9l-0.9-1.5l-0.9-1.3l-0.3-1.8c-1.1-6.3-0.8-12.9,0.7-19c1.1-4.4,2.9-8.7,5.3-12.6
		c2.8-4.6,7.9-7.5,13.2-7.5c1.9,0,3.8,0.3,5.6,1c2.2,0.8,4.9,1.3,7.2,1.7c6.9,1.1,14.4,1.6,23.6,1.6c5.5,0,11-0.2,16.7-0.4
		c2.5-0.1,5.3-0.4,8.3-0.7c4.1-0.4,8.2-0.8,12.5-0.8c7.4,0,13.6,1.4,18.7,4.2c6.7,3.7,10.6,10.1,12.9,14.6
		c2.9,5.6,5.1,11.6,6.5,17.9l0.4,1.8l-0.4,1.8c-1.4,5.6-4.1,11.3-7.8,16.6c-4.3,6-9.4,11-14.3,15.8c-2.3,2.2-4.4,4.3-6.5,6.5
		c-1.1,1.1-2,2.2-2.9,3.3c0.2,0,0.3,0,0.5,0c2.2-0.2,4.5-0.4,7-0.4c3.5,0,6.7,0.5,9.6,1.5l3.8,1.3l1.1,3.9
		C446.6,360.4,446.2,370,442.8,378.5z M448.2,352L448.2,352c-0.1-0.5-0.2-1-0.4-1.5l-1.6-5.8l-5.7-1.9c-2.8-0.9-5.9-1.5-9.1-1.6
		c0.9-0.9,1.9-1.9,2.9-2.9c5.1-4.9,10.3-10.1,14.8-16.3c3.3-4.6,5.7-9.5,7.4-14.5l3.3,1.8c0.8,0.4,1.6,0.8,2.4,1.2
		c5.6,2.4,11.4,2.6,15.6,2.7l19.5,0.6c-0.1,0.1-0.2,0.1-0.3,0.2c-5.9,3.5-12.1,7.2-18,11.1c-11.7,7.7-20.8,15.5-28,23.9L448.2,352z
		 M688,387.2l-1,3l-2.8,1.4c-3.7,1.8-8,3-12.3,3.5c-1.7,0.2-3.4,0.3-5.2,0.3c-2.4,0-5.1-0.2-8-0.5l-4.2-0.5l-1.8-3.8
		c-4.2-8.7-6.7-18.2-7.3-27.8c-5.9,0.9-11.9,1.4-17.9,1.5c-7.2,13.1-17.2,25-29,34.5l-1.9,1.5l-2.4,0.2c-23.2,1.6-46.3,2-68.7,2.5
		c-5.8,0.1-11.4,0.2-17,0.2c-13.4,0-23.7-0.6-33.3-1.9l-2.2-0.3l-1.7-1.4c-5.8-4.9-10.6-11-13.9-17.7c-3.8-7.8-5.7-16.7-5.4-25.5
		l0.1-2.7l1.7-2c6.9-8.1,15.8-15.7,27.2-23.2c5.9-3.9,12-7.5,17.9-11c3.9-2.3,7.6-4.5,11.3-6.8l-32.4-1c-4.1-0.1-9.3-0.3-14.2-2.4
		c-0.7-0.3-1.3-0.6-2-1l-2.5-1.4l-0.9-2.7c0,0,0-0.1,0-0.1l0.1-0.3l-0.6-2.6c-0.2-0.9-0.5-1.8-0.7-2.7c-0.4-3.5-0.1-7.2,0.8-10.7
		c1.6-5.8,4.8-11.3,9.7-16.3l1.8-1.9l2.6-0.3c28.5-3.6,57.5-5.5,86.4-5.5c1.4,0,5,0,5,0l0.8,0.2c8,1.8,14.9,6.9,19,13.9
		c4.3,7.4,5.2,16.6,2.3,24.7c-3.9,11.1-13.7,18.1-20.9,23.1l-39.6,28c-1.6,1.1-3.1,2.2-4.6,3.3c8.9,0.9,17.8,1.3,26.7,1.3
		c7.8,0,15.7-0.3,23.4-1c4.5-15,12.6-30,23.8-43.6c10.5-12.8,23.9-25,42.1-38.4l1.1-0.8l1.3-0.4c8.1-2.4,16.6-3.7,25.3-3.7
		c1.4,0,2.8,0,4.2,0.1l3.3,0.1l2.1,2.5c7.8,9,13.4,21,16.2,34.8c2.9,13.8,2.9,27.7,3,41.1C692.7,358,692.7,373.6,688,387.2z
		 M791.5,334.4c-1.2,7.8-1.3,15.5-0.1,23c-1.5,6-3.5,10.6-6.2,14.4c-7.6,10.8-21.5,15.8-32.8,18.9c-7,2-15.4,4-23.9,4l-1.1,0
		c-8.9-0.2-16.9-2.8-22.6-7.4c-5.3-4.3-8.5-11-9.5-18.2c0.4-4.2,0.6-8.2,0.7-12.1c0.8-2.9,1.9-5.7,3.6-8.1c3.1-4.6,8.2-7.6,13-7.6
		c0.5,0,1.1,0,1.6,0.1c2.8,0.4,5.5,2.1,7.2,4.5c1.5,2,2.1,4.3,1.7,6.4c-0.2,0.9-0.5,1.9-0.9,2.9c-0.7,2.1-1.6,4.5-1.2,7.2
		c0.4,3.4,2.8,6.5,6.2,8.3c2.4,1.3,5.3,1.8,9,1.9c10.7,0,21.2-4.9,28.1-13c3.8-4.5,5.3-9.1,4.4-13.4c-0.9-4.3-4.3-7.9-10-10.6
		c-7-3.3-14.8-4.9-22.5-4.5c-3.3,0.1-6.5,0.6-9.6,1.1c-2.9,0.4-5.9,0.9-8.9,1c-0.5,0-1,0-1.6,0c-4,0-9.6-0.8-13.3-4.4
		c-3-3-4.4-7.7-5.4-11.8c-1.5-6.1-2.7-12.6-1.1-18.4c1-3.7,3.3-7.5,6.9-11.5c8.1-9,19.9-15.7,33.3-18.9c11.6-2.8,25-3.1,39.3-0.9
		c4.8,0.7,9.7,1.8,12.6,4.9c3.5,3.6,4.4,9.7,2.7,18.7c-0.9,5-2.4,10.5-6.3,13.4c-3.1,2.3-8.5,2.7-12.9,0.9c-2.6-1-4.7-2.9-7-5
		c-3.4-3-7-6.1-12.3-6.8c-7.6-0.9-15.6,1.7-20.9,6.9c-5,4.8-8,13-3.9,19.3c2.5,3.9,7.1,6.1,13,6.1c1.8,0,3.7-0.2,5.6-0.6
		c4.9-1.1,9.4-3,13.9-4.9c3.1-1.3,6.3-2.7,9.5-3.7c3.1-0.9,6.2-1.4,9-1.4c3.3,0,7.8,0.7,11.2,3.8c1.4,1.4,2.6,3.3,3.4,5.6
		C792.8,327.7,792.1,331.1,791.5,334.4z M726.9,342.2c-0.9-1.2-1.9-2.3-3-3.2c1.3-0.2,2.7-0.4,4-0.6c2.9-0.4,6-0.9,8.9-1
		c6.7-0.3,13.5,1.1,19.5,3.9c3.8,1.8,6.1,3.9,6.6,6.2c0.6,2.8-1.3,5.9-3.1,7.9c-5.7,6.8-14.4,10.8-23.3,10.8c-2.6,0-4.5-0.4-6-1.2
		c-1.5-0.8-2.6-2.2-2.8-3.5c-0.2-1.2,0.4-2.7,0.9-4.4c0.4-1.2,0.8-2.4,1.1-3.8C730.3,349.7,729.4,345.7,726.9,342.2z M768.4,310.4
		c-0.1,0-0.1,0-0.2,0c-3.5,1.1-6.9,2.5-10.2,3.9c-4.3,1.8-8.4,3.6-12.7,4.5c-1.4,0.3-2.9,0.5-4.2,0.5c-2.1,0-5.9-0.4-7.7-3.2
		c-2.1-3.3-0.1-8.3,3-11.3c3.5-3.4,8.4-5.3,13.5-5.3c0.8,0,1.5,0,2.3,0.1c3.4,0.4,6,2.8,8.9,5.2C763.3,307,765.6,308.9,768.4,310.4z
		 M888.5,343.3c-2.4-1.5-5.1-2.3-7.5-2.9c-3.9-1-7.8-1.9-11.8-2.7c-1.4-0.3-2.9-0.5-4.4-0.5c-1.8,0-3.4,0.4-4.7,1.1
		c-2.8,1.5-4.8,4.6-5.3,8.3c-0.3,2.4-0.1,4.7,0.2,6.9l0.1,1.1c0.6,5.9,0,9.9-2.1,12.7c-1.8,2.5-5,3.9-8.7,3.9
		c-2.3,0-4.7-0.6-6.7-1.7c-4.8-2.6-8.6-8-10.7-15.1c-2.7-8.9-2.4-18.7,0.8-27.4c1.6-4.5,3.7-7.8,6.3-10c2.2-1.8,4.8-2.9,7.4-2.9
		c0.8,0,1.6,0.1,2.3,0.3c2.8,0.9,5.1,3.2,7.5,5.7c1.8,1.9,3.6,3.8,5.9,5.3c3.5,2.4,7.7,3.6,12.2,3.6c4.3,0,8.5-1.1,12.2-3.3
		c2.8-1.6,5.4-3.9,7.5-6.6C889.2,327.1,889.1,335.3,888.5,343.3z M867.8,384.9c-7,6.3-14.7,10.3-22.3,11.5c-1.8,0.3-3.6,0.4-5.5,0.4
		c-12.6,0-25.4-6.8-33.3-17.9c-8.3-11.6-11.6-27.5-9-43.7c2.7-16.9,11.2-32.5,23.9-43.9c12.7-11.4,29.1-18.2,46.2-19.2
		c0.8,0,1.7-0.1,2.5-0.1c3.6,0,6.3,0.5,8.4,1.7c3.2,1.7,5.7,5.2,7.8,10.6c0.1,0.2,0.1,0.4,0.2,0.6c-1.4,3.2-1.9,7-1.3,10.9
		c0.3,2.1,0.8,3.9,1.3,5.7c0.5,1.8,1,3.6,1.2,5.5l0,0.1c-1.8,5.6-5.4,10.4-9.9,13c-2.7,1.6-5.9,2.4-9,2.4c-3.2,0-6.2-0.9-8.6-2.5
		c-1.7-1.2-3.3-2.8-4.9-4.5c-2.9-3-5.9-6.1-10.2-7.4c-4.9-1.5-11.2,0-15.6,3.7c-3.5,2.9-6.2,7.1-8.2,12.7c-3.6,10-3.9,21.1-0.9,31.3
		c2.6,8.7,7.5,15.4,13.8,18.8c2.9,1.6,6.3,2.4,9.7,2.4c5.7,0,10.7-2.3,13.8-6.4c3.1-4.1,4.2-9.6,3.4-17.2l-0.1-1.1
		c-0.2-1.9-0.4-3.7-0.2-5.3c0.2-1.7,1-3,2-3.5c0.5-0.3,2.3-0.5,5,0c3.8,0.8,7.7,1.6,11.4,2.6c3.2,0.8,6.7,2,8.3,4.4
		c0.1,0.1,0.1,0.2,0.2,0.3c-0.2,1.9-0.5,3.9-0.7,5.8c-0.1,1.1-0.3,2.1-0.5,3.2l-0.1,0.9c-0.7,1.2-1.4,2.4-2,3.3
		C880.1,371.1,874.8,378.7,867.8,384.9z M988.3,353l0.1,1.8c0.5,8.2,1.1,16.6-0.8,24.4c-1.7,6.9-6.3,15.4-14.3,18.2
		c-2.4,0.8-5.1,1.2-8.6,1.2c-1.9,0-3.9-0.1-5.8-0.2c-5.2-0.3-10.4-0.7-15.7-1.1c-1.1-0.1-2.3-0.2-3.1-0.6c-0.2-0.1-0.4-0.3-0.5-0.4
		c4.6-15.1,6.3-31.4,4.8-47.1l-0.1-1.2l-6.2,0.3l0,0.5c-7.3,0-14.3,1.5-20.3,4.1l-4.6,2.1l3.9,3.2c5.2,4.3,7.6,12.2,7.4,24.1
		c-0.1,4.6-0.6,9.7-3.6,12.4c-2.3,2.1-6,2.6-9.3,2.9c-9.1,0.8-18,0.9-25.9,0.3l2.3-11c2-9.4,4-19.2,5.4-29c2.4-17,2.7-34.3,1-51.4
		c-0.2-2.4-0.8-4.5-1.4-6.6c-0.5-1.6-0.9-3.2-1.2-4.9c-0.3-2.1-0.5-6.2,1.8-9.2c1.8-2.4,5-3.8,7.5-4.8c7.8-3,16.3-4.1,24.6-3.2
		c3.1,0.3,5,1.1,5.7,2.3c0.9,1.4,0.4,3.8-0.2,6c-2.5,9.4-6,18.6-10.5,27.2l-2.5,4.8l32-1.3l-0.5-3.4c-0.9-6.8-1.9-13.9-1-20.7
		c0.9-7.1,4.1-13.1,8.6-16.5c4.4-3.3,9.8-4,13.6-4c1,0,1.9,0,2.9,0.1c5.3,0.5,10.5,2.1,15.8,3.9C987.3,306.6,986.8,330.3,988.3,353z
		"/>
</g>
</svg>
