<?xml version="1.0" encoding="UTF-8" standalone="no"?>
<!DOCTYPE svg PUBLIC "-//W3C//DTD SVG 1.1//EN" "http://www.w3.org/Graphics/SVG/1.1/DTD/svg11.dtd">
<svg width="100%" height="100%" viewBox="0 0 500 694" version="1.1" xmlns="http://www.w3.org/2000/svg" xmlns:xlink="http://www.w3.org/1999/xlink" xml:space="preserve" xmlns:serif="http://www.serif.com/" style="fill-rule:evenodd;clip-rule:evenodd;stroke-linejoin:round;stroke-miterlimit:2;">
    <g id="SchönherzAirsoftTeam" transform="matrix(1,0,0,1,-47,-73)">
        <g transform="matrix(1,0,0,1,302.388,77.8549)">
            <path d="M0,678.452L132.319,615.081L187.742,568.073L222.955,493.437L236.107,416.598L236.107,292.8L229.756,152.097L238.101,37.988L191.865,23.118L79.981,5.181L-18.984,0L-130.188,9.566L-247.77,37.988L-244.581,309.299L-247.77,439.635L-217.876,535.03L-182.004,587.614L-122.615,626.171L0,678.452Z" style="fill-rule:nonzero;"/>
        </g>
        <g transform="matrix(1,0,0,1,198.7,398.083)">
            <path d="M0,33.987C-8.333,32.797 -14.94,29.225 -18.393,24.047C-20.178,21.368 -20.297,20.833 -20,17.559C-19.821,15.594 -19.523,13.154 -19.345,12.142C-18.928,10.357 -19.047,10.237 -23.63,7.916C-26.19,6.607 -31.13,4.524 -34.642,3.274C-38.213,2.083 -41.07,0.774 -41.07,0.357C-41.07,-0.893 -26.13,0.298 -18.75,2.143C-10,4.285 -0.298,9.166 7.5,15.297C14.285,20.654 19.106,23.57 26.309,26.844C33.928,30.297 33.928,30.952 26.368,32.737C20,34.166 6.19,34.88 0,33.987" style="fill:rgb(150,4,4);fill-rule:nonzero;"/>
        </g>
        <g transform="matrix(1,0,0,1,419.944,272.107)">
            <path d="M0,98.548L0,85.622L-0.666,0L-32.171,1.474L-33.507,98.353L-15.021,98.548L0,98.548Z" style="fill:rgb(20,59,101);"/>
        </g>
        <g transform="matrix(1,0,0,1,449.77,307.95)">
            <path d="M0,90.46L-15.37,73.953L-17.136,-30.081L-25.773,-30.032L-26.387,-30.01L-25.888,68.12L-67.536,67.953L-66.041,-28.542L-66.528,-28.524L-75.909,-28.178L-78.038,70.591L-93.408,87.098L-94.668,120.541L1.193,120.479L0,90.46Z" style="fill:rgb(20,59,101);"/>
        </g>
        <g transform="matrix(1,0,0,1,96.6191,610.875)">
            <path d="M0,-381.538C54.939,-395.466 105.294,-403.085 163.983,-406.299C180.412,-407.251 227.791,-407.251 244.339,-406.299C297.611,-403.383 345.229,-396.597 395.168,-384.811C406.656,-382.074 426.179,-377.014 428.382,-376.181C429.155,-375.883 429.334,-377.312 429.69,-386.419C429.929,-392.252 430.524,-402.906 431.06,-410.108C431.536,-417.31 431.953,-423.858 431.953,-424.691C431.477,-446.715 433.024,-479.392 435.167,-491.416L435.524,-493.499L424.334,-496.594C365.169,-512.725 305.11,-522.129 240.946,-525.284C215.173,-526.534 169.579,-525.998 142.258,-524.034C84.521,-519.987 20.059,-508.796 -29.106,-494.273L-33.213,-493.023L-32.797,-483.738C-32.559,-478.559 -32.142,-471.357 -31.845,-467.607C-30.773,-455.643 -29.464,-429.394 -29.464,-420.525C-29.464,-415.763 -29.047,-407.192 -28.571,-401.478C-28.095,-395.764 -27.559,-387.311 -27.321,-382.669L-26.904,-374.276L-22.083,-375.705C-19.404,-376.478 -9.464,-379.098 0,-381.538M216.065,133.984C239.16,129.937 269.159,116.485 302.968,95.116C332.907,76.129 364.633,51.189 383.025,32.083C390.228,24.642 393.204,20.833 398.68,12.38C424.453,-27.261 435.762,-81.368 435.346,-162.793C435.227,-183.032 433.5,-232.851 432.071,-255.648C430.881,-275.529 429.453,-318.504 428.679,-357.669L428.56,-364.812L416.953,-367.967C290.706,-402.192 155.055,-405.168 25.892,-376.419C11.666,-373.264 -13.333,-366.895 -22.619,-364.098L-26.19,-363.026L-26.606,-327.313C-26.785,-307.73 -27.559,-278.803 -28.214,-263.089C-28.928,-247.375 -29.583,-230.232 -29.821,-224.995C-30,-219.756 -30.237,-213.983 -30.416,-212.197C-30.535,-210.412 -30.833,-191.781 -31.071,-170.83C-31.487,-125.354 -30.714,-106.664 -27.321,-80.355C-26.488,-73.808 -26.071,-71.308 -24.047,-59.939C-23.69,-57.915 -23.214,-56.248 -22.916,-56.248C-22.678,-56.248 -20.773,-57.558 -18.69,-59.106C-15.178,-61.725 -3.988,-69.462 -1.607,-70.831C14.642,-80.355 26.606,-86.01 39.106,-89.938C42.796,-91.07 46.368,-92.26 47.022,-92.557C47.677,-92.795 51.01,-93.569 54.463,-94.284C57.915,-94.997 61.665,-95.831 62.796,-96.128C67.677,-97.378 78.331,-99.284 78.629,-98.926C79.045,-98.509 76.129,-93.153 71.605,-85.831C70.058,-83.272 68.748,-80.891 68.748,-80.593C68.748,-80.355 69.462,-80.237 70.415,-80.355C93.45,-84.403 103.807,-85.176 119.937,-84.284C133.508,-83.51 149.043,-81.486 166.662,-78.272C168.626,-77.914 171.722,-77.379 173.507,-77.081C175.293,-76.784 181.364,-75.534 186.899,-74.403C198.685,-71.903 212.137,-71.07 219.935,-72.26C224.815,-73.034 234.339,-77.26 238.684,-80.593C239.993,-81.605 242.255,-83.272 243.684,-84.343C247.434,-87.201 254.755,-95.712 257.553,-100.474L259.934,-104.58L258.564,-107.08C257.851,-108.39 255.826,-111.367 254.16,-113.688C249.636,-119.759 249.22,-120.533 248.505,-123.806L247.851,-126.783L228.981,-136.068C218.625,-141.246 206.78,-147.377 202.673,-149.758C198.566,-152.08 194.697,-154.341 194.042,-154.699C193.388,-155.056 192.019,-155.889 191.066,-156.543C190.054,-157.199 188.804,-157.972 188.269,-158.33C183.983,-160.889 170.531,-170.532 165.293,-174.638C155.472,-182.555 151.663,-186.365 149.282,-190.709C142.615,-202.912 139.639,-207.554 134.877,-213.388C128.925,-220.59 124.758,-224.935 119.044,-229.934C113.509,-234.815 102.854,-242.851 100.95,-243.625C100.533,-243.803 98.866,-244.815 97.319,-245.827C91.426,-249.815 75.593,-257.315 67.855,-259.874C65.891,-260.529 63.867,-261.303 63.391,-261.541C62.082,-262.255 50.772,-265.47 45.416,-266.72L40.772,-267.791L40.772,-270.35C40.772,-281.064 45.892,-305.766 50.534,-317.849C51.308,-319.813 53.094,-324.337 54.463,-327.968C55.891,-331.539 58.332,-337.313 59.938,-340.705C61.486,-344.099 62.677,-347.075 62.498,-347.253C62.32,-347.432 60.475,-347.075 58.451,-346.539C56.427,-345.944 53.153,-345.11 51.249,-344.575C49.284,-344.099 47.379,-343.503 47.082,-343.205C46.725,-342.908 44.999,-342.372 43.272,-341.955C41.606,-341.599 39.999,-341.003 39.82,-340.705C39.642,-340.408 39.046,-340.17 38.511,-340.17C35.475,-340.17 10.654,-328.861 1.19,-323.146C-2.024,-321.182 -5.476,-319.159 -6.488,-318.563C-7.5,-317.909 -8.869,-316.956 -9.583,-316.302C-10.238,-315.706 -11.012,-315.17 -11.25,-315.17C-11.488,-315.17 -13.155,-314.039 -15,-312.611C-16.845,-311.242 -19.047,-309.576 -19.88,-308.98C-20.714,-308.326 -22.143,-307.195 -22.976,-306.361C-25,-304.576 -25.833,-305.587 -24.226,-307.909C-22.262,-310.587 -6.369,-325.944 -0.298,-330.944C5,-335.349 15.356,-343.325 17.5,-344.634C18.035,-344.991 20.892,-346.896 23.809,-348.86C39.225,-359.276 59.641,-369.098 77.676,-374.693C81.128,-375.764 84.462,-376.895 85.117,-377.133C87.14,-377.848 102.735,-381.419 102.973,-381.181C103.092,-381.061 99.878,-375.05 95.771,-367.907C91.724,-360.765 88.39,-354.693 88.39,-354.455C88.39,-354.217 86.843,-351.241 84.998,-347.848C81.367,-341.182 74.521,-326.599 72.379,-320.825C71.605,-318.861 70.653,-316.42 70.177,-315.468C69.284,-313.385 66.724,-305.647 65.415,-300.885C64.938,-299.1 64.284,-296.778 63.986,-295.826C62.974,-292.552 61.188,-282.374 61.546,-282.136C61.784,-282.017 66.129,-280.41 71.248,-278.624C87.378,-272.91 100.414,-266.541 112.616,-258.565C123.449,-251.422 135.532,-241.304 142.615,-233.506C147.139,-228.447 156.365,-216.601 158.21,-213.447C158.865,-212.257 161.007,-208.507 162.912,-205.055C164.876,-201.602 167.674,-197.495 169.222,-195.948C172.376,-192.733 183.805,-183.626 184.697,-183.626C184.995,-183.626 185.59,-183.209 186.007,-182.734C186.602,-182.019 193.745,-177.079 198.209,-174.282C198.864,-173.865 201.661,-172.08 204.459,-170.353C221.542,-159.58 250.945,-145.175 283.028,-131.842C286.48,-130.413 289.516,-129.044 289.754,-128.806C290.29,-128.39 289.338,-122.497 288.385,-120.235C288.088,-119.58 287.313,-117.14 286.54,-114.878C283.088,-103.807 274.159,-87.32 266.719,-78.093C254.279,-62.737 241.541,-53.63 224.398,-47.975C215.411,-44.999 210.113,-43.869 202.673,-43.392C195.888,-42.915 195.59,-43.035 193.388,-47.44C190.59,-52.975 183.09,-56.368 167.853,-59.106C138.091,-64.463 113.925,-66.546 97.795,-65.237C89.045,-64.523 77.974,-62.737 72.438,-61.248C70.593,-60.713 67.141,-59.82 64.819,-59.225C62.498,-58.629 58.867,-57.618 56.784,-56.904C44.046,-52.677 40.475,-51.665 40.296,-52.142C40.058,-52.677 42.856,-66.487 43.749,-69.462C44.046,-70.356 44.046,-71.248 43.808,-71.368C42.261,-72.32 16.785,-61.606 9.583,-56.963C8.214,-56.071 6.25,-54.879 5.119,-54.285C1.964,-52.558 -2.917,-48.809 -8.333,-43.987C-13.095,-39.761 -13.393,-39.582 -16.309,-39.582C-19.88,-39.582 -19.88,-40.356 -16.547,-29.761C-12.976,-18.572 -9.94,-11.072 -4.762,-0.595C8.452,26.249 20.118,39.344 50.653,62.022C97.378,96.664 156.722,127.02 189.876,133.27C192.495,133.747 195.173,134.282 195.828,134.401C198.685,135.055 211.721,134.758 216.065,133.984M201.185,154.996C198.269,153.686 186.84,148.984 175.888,144.52C157.436,137.08 152.496,135.055 133.627,127.378C79.581,105.295 43.987,83.629 16.845,56.129C-0.477,38.629 -9.643,26.011 -19.643,5.952C-27.023,-8.81 -31.011,-19.643 -35.713,-37.44C-42.083,-61.248 -45.594,-86.664 -47.678,-122.913C-49.225,-149.818 -48.332,-207.197 -45.535,-265.172C-44.225,-292.433 -43.57,-332.075 -43.928,-361.955C-44.285,-390.168 -44.583,-398.502 -46.13,-422.906C-46.428,-427.31 -47.023,-439.75 -47.559,-450.583C-48.035,-461.357 -48.749,-474.928 -49.106,-480.702C-49.82,-491.952 -49.463,-495.344 -47.261,-498.856C-46.606,-499.928 -45.654,-500.939 -45.059,-501.178C-42.499,-502.249 -23.928,-507.309 -6.786,-511.594C27.32,-520.165 58.748,-526.058 95.831,-530.939C143.687,-537.248 209.161,-538.974 261.303,-535.403C319.812,-531.355 380.823,-520.701 436.536,-504.809C450.226,-500.88 451.476,-500.404 451.476,-498.797C451.476,-498.142 451.06,-491.178 450.583,-483.321C450.107,-475.464 449.571,-462.071 449.393,-453.56C449.214,-445.048 448.56,-430.048 448.023,-420.227C446.595,-395.526 446.654,-322.968 448.083,-287.79C451.179,-212.554 451.298,-209.221 451.357,-168.151C451.535,-106.188 448.619,-74.641 439.274,-38.094C437.131,-29.821 430.822,-10.833 428.56,-5.953C421.001,10.357 416.715,18.333 410.524,27.379C397.132,46.962 377.728,66.248 356.776,80.652C335.943,95.116 318.385,104.342 272.136,125.353C248.922,135.889 226.244,146.901 215.113,152.972C210.649,155.413 206.899,157.436 206.78,157.377C206.661,157.377 204.161,156.305 201.185,154.996" style="fill:rgb(85,107,47);fill-rule:nonzero;"/>
        </g>
        <g transform="matrix(1,0,0,1,76.9766,229.635)">
            <path d="M0,340.942C-0.536,339.276 -2.619,329.931 -2.976,327.669C-3.393,325.347 -3.273,325.228 -0.476,323.205C25.416,304.515 44.939,294.694 69.343,288.146C75.474,286.479 98.033,282.015 98.39,282.432C98.688,282.671 94.104,291.004 90.355,296.896C87.855,300.825 87.855,301.42 90.355,300.944C91.367,300.706 96.426,299.872 101.485,299.098C129.877,294.575 154.043,296.36 205.947,306.896C214.756,308.681 218.387,309.098 226.423,309.337C239.279,309.753 242.494,309.158 251.124,304.812C262.553,299.039 271.243,290.944 277.434,280.409L279.636,276.54L278.207,273.921C277.493,272.492 275.409,269.516 273.684,267.313C269.934,262.671 268.147,259.218 268.147,256.718C268.147,254.874 267.969,254.754 249.577,245.647C220.53,231.243 205.888,222.433 186.602,207.732C175.353,199.22 170.948,194.459 166.722,186.601C156.722,167.792 142.199,151.9 124.044,139.757C107.378,128.627 87.081,119.817 67.201,115.056L60.296,113.389L60.713,107.794C61.368,98.449 63.689,85.771 66.427,75.89C69.403,65.474 77.082,45.117 81.069,37.319C81.843,35.713 82.379,34.224 82.141,34.046C81.426,33.332 68.391,37.082 57.142,41.189C34.106,49.7 13.154,61.129 -1.667,73.39C-3.214,74.699 -4.643,75.592 -4.821,75.414C-5.714,74.521 -3.69,72.021 4.643,63.926C18.452,50.355 37.023,35.95 52.082,26.963C64.165,19.76 74.701,14.88 92.736,8.094C100.712,5.058 123.39,-0.715 122.735,0.475C107.616,26.13 94.521,52.617 87.915,70.831C84.581,80.116 80.177,97.973 81.069,98.865C81.308,99.104 84.76,100.473 88.688,101.841C108.152,108.627 123.271,116.305 139.58,127.793C149.341,134.638 162.198,147.019 169.757,156.721C174.162,162.376 181.186,173.209 183.448,177.852C186.126,183.149 190.709,187.672 202.078,196.184C224.696,213.029 252.255,227.91 293.742,245.647C301.777,249.099 308.623,252.135 308.98,252.433C309.694,253.028 309.456,255.051 308.087,260.111C304.516,273.384 298.504,285.884 289.338,298.681C275.23,318.562 258.624,330.049 235.827,335.705C229.339,337.311 217.256,338.561 215.887,337.728C215.352,337.371 214.102,335.705 213.208,334.038C210.649,329.276 205.292,326.062 196.602,323.92C181.305,320.17 152.02,316.3 134.223,315.705C115.116,314.991 94.402,318.145 75.593,324.514C71.665,325.883 66.486,327.55 64.046,328.324L59.701,329.693L60.058,327.193C60.296,325.824 61.249,321.42 62.26,317.372C63.272,313.324 63.986,309.872 63.808,309.693C63.094,308.979 45.118,315.943 36.547,320.289C26.25,325.407 17.143,331.657 10.059,338.264C6.607,341.478 6.25,341.657 3.333,341.657C1.369,341.657 0.179,341.359 0,340.942" style="fill:rgb(110,107,107);fill-rule:nonzero;"/>
        </g>
        <g transform="matrix(1,0,0,1,279.769,645.576)">
            <path d="M0,31.904C-1.25,31.071 -1.31,30.594 -1.31,22.142L-1.31,13.273L-3.453,13.095C-7.679,12.738 -7.5,9.048 -3.333,9.048C-1.31,9.048 -1.31,9.048 -1.31,6.309C-1.31,1.309 3.273,-1.25 10.357,-0.178C13.214,0.238 14.226,1.369 13.154,3.036C12.738,3.69 11.845,3.928 10.357,3.809C7.202,3.571 5.833,4.524 5.833,6.965C5.833,8.869 6.012,9.048 7.559,9.048C10.178,9.048 11.19,9.642 11.19,11.131C11.19,12.619 10.178,13.214 7.559,13.214L5.833,13.214L5.833,21.844C5.833,29.702 5.714,30.594 4.643,31.666C3.214,33.094 1.786,33.154 0,31.904" style="fill:rgb(254,189,7);fill-rule:nonzero;"/>
        </g>
        <g transform="matrix(1,0,0,1,260.96,659.207)">
            <path d="M0,12.738C3.333,10.714 4.226,4.167 1.607,1.25C-0.774,-1.429 -5.595,-2.202 -8.095,-0.239C-11.309,2.202 -12.202,8.154 -9.821,11.131C-7.56,14.048 -3.274,14.702 0,12.738M-7.5,18.094C-10.833,17.381 -13.869,15.714 -15.833,13.511C-18.035,11.011 -18.452,9.464 -18.095,4.94C-17.797,0.774 -15.714,-2.381 -11.905,-4.285C-8.512,-6.012 0.179,-5.952 3.512,-4.166C6.488,-2.619 8.273,-0.714 9.464,2.083C11.845,7.917 9.583,13.869 3.75,16.844C1.31,18.094 -4.464,18.75 -7.5,18.094" style="fill:rgb(254,189,7);fill-rule:nonzero;"/>
        </g>
        <g transform="matrix(1,0,0,1,299.888,647.717)">
            <path d="M0,29.108C-2.798,27.679 -3.512,25.358 -3.512,17.501C-3.572,11.131 -3.572,11.072 -5,11.072C-8.036,11.072 -8.75,7.382 -5.774,7.025C-4.227,6.846 -4.167,6.668 -4.167,3.394C-4.167,-0.475 -3.095,-2.023 -0.417,-2.023C1.726,-2.023 2.976,0.002 2.976,3.454L2.976,6.251L5.416,6.429C10.059,6.787 9.821,10.477 5.178,10.477L3.393,10.477L3.69,17.025C3.869,20.893 4.226,23.87 4.643,24.287C5.06,24.703 6.904,25.001 8.749,25.001C11.845,25.06 12.202,25.179 12.38,26.37C12.797,29.168 3.928,31.131 0,29.108" style="fill:rgb(254,189,7);fill-rule:nonzero;"/>
        </g>
        <g transform="matrix(1,0,0,1,220.723,652.242)">
            <path d="M0,21.666C-5.476,20.178 -9.643,15.714 -7.738,13.393C-6.309,11.666 -3.988,12.321 -1.428,15.237C0.774,17.797 1.19,18.035 4.286,18.333C9.226,18.749 11.547,16.964 9.047,14.702C8.512,14.166 5.774,12.916 3.036,11.845C-3.393,9.404 -5.952,7.202 -5.952,4.166C-5.952,2.381 -5.595,1.548 -4.167,0.357C-1.904,-1.548 0.833,-2.023 5.833,-1.548C12.5,-0.952 18.095,2.976 16.309,5.773C15.059,7.738 12.619,7.44 10.476,5.06C7.202,1.548 0.893,0.952 0.893,4.226C0.893,5.714 1.25,5.893 10.417,9.226C13.631,10.416 17.262,13.571 17.262,15.118C17.262,15.654 16.845,17.023 16.369,18.214C14.702,22.202 7.679,23.689 0,21.666" style="fill:rgb(254,189,7);fill-rule:nonzero;"/>
        </g>
        <g transform="matrix(1,0,0,1,339.231,640.219)">
            <path d="M0,32.618C-0.416,32.141 -1.429,26.487 -2.262,19.939C-3.095,13.452 -3.988,7.916 -4.226,7.679C-4.464,7.381 -6.726,7.44 -9.226,7.797C-14.464,8.512 -16.13,8.035 -16.13,5.833C-16.13,3.75 -15.118,3.273 -9.583,2.559C-6.785,2.202 -0.833,1.309 3.631,0.654C13.095,-0.833 14.821,-0.655 14.821,1.845C14.821,3.869 13.571,4.523 7.56,5.535C5.298,5.892 3.512,6.309 3.512,6.429C3.512,6.606 4.346,12.083 5.298,18.689C6.904,29.582 7.023,30.772 6.19,32.082C5.477,33.094 4.702,33.451 2.977,33.451C1.727,33.451 0.357,33.094 0,32.618" style="fill:rgb(254,189,7);fill-rule:nonzero;"/>
        </g>
        <g transform="matrix(1,0,0,1,193.224,645.992)">
            <path d="M0,23.453C-0.893,23.096 -1.786,22.322 -1.964,21.667C-2.381,20.476 1.012,3.215 1.964,1.37C3.095,-0.773 7.857,-0.416 7.857,1.787C7.857,3.155 8.928,3.393 10.535,2.322C13.75,0.18 20.059,2.62 20.059,6.013C20.059,8.215 18.452,8.513 14.643,7.084C9.821,5.239 8.036,7.203 6.012,16.548C5.178,20.357 4.464,22.322 3.631,23.096C2.202,24.226 2.202,24.226 0,23.453" style="fill:rgb(254,189,7);fill-rule:nonzero;"/>
        </g>
        <g transform="matrix(1,0,0,1,372.684,657.957)">
            <path d="M0,-3.691C2.202,-4.226 3.987,-4.822 3.987,-5.12C3.987,-6.428 1.131,-8.751 -0.834,-9.047C-4.703,-9.703 -7.679,-7.62 -8.869,-3.393C-9.227,-2.024 -9.167,-1.964 -6.667,-2.381C-5.238,-2.62 -2.263,-3.214 0,-3.691M-8.81,10.119C-15.179,7.738 -18.036,-1.37 -14.227,-7.203C-10.655,-12.678 -0.357,-15.238 5.773,-12.084C8.749,-10.595 10.356,-8.631 10.892,-5.893C11.487,-2.917 9.345,-2.024 -4.465,0.832C-8.334,1.607 -8.69,2.261 -6.369,4.582C-3.096,7.857 1.964,7.142 6.13,2.857C8.154,0.714 9.047,0.178 10.356,0.357C14.404,0.832 11.845,5.773 6.189,8.571C1.547,10.832 -4.94,11.547 -8.81,10.119" style="fill:rgb(254,189,7);fill-rule:nonzero;"/>
        </g>
        <g transform="matrix(1,0,0,1,177.986,642.541)">
            <path d="M0,23.57C-1.964,22.797 -1.964,21.13 0.238,11.964C1.429,6.964 2.679,2.381 2.976,1.844C4.286,-0.774 9.404,0.417 9.404,3.333C9.404,5.594 5.714,21.249 4.881,22.677C4.047,23.927 1.905,24.344 0,23.57" style="fill:rgb(254,189,7);fill-rule:nonzero;"/>
        </g>
        <g transform="matrix(1,0,0,1,161.141,644.505)">
            <path d="M0,2.261C0,1.488 -0.357,-1.607 -0.714,-4.703L-1.429,-10.238L-5,-6.191C-6.905,-3.928 -8.988,-1.488 -9.643,-0.774L-10.773,0.535L-6.131,2.024C-0.238,3.868 0.06,3.868 0,2.261M3.69,17.915C2.738,16.963 1.25,12.201 1.25,9.94C1.25,9.523 -2.202,8.214 -6.488,6.905L-14.226,4.583L-17.44,7.678C-20.952,10.951 -21.309,11.071 -23.333,10.059C-24.94,9.166 -25.535,8.392 -25.535,6.905C-25.535,5.595 -6.428,-14.821 -3.69,-16.369C-2.083,-17.321 -1.488,-17.381 0.595,-16.726C3.393,-15.893 4.464,-14.286 5.119,-9.822C5.357,-8.155 6.547,-1.667 7.857,4.701C9.464,12.678 10,16.547 9.583,17.261C8.512,19.284 5.417,19.642 3.69,17.915" style="fill:rgb(254,189,7);fill-rule:nonzero;"/>
        </g>
        <g transform="matrix(1,0,0,1,404.052,642.957)">
            <path d="M0,13.451C3.512,11.666 4.881,8.035 3.154,4.999C3.035,4.762 0.833,5.654 -1.727,6.964C-7.144,9.762 -8.452,11.547 -6.548,13.451C-5.06,14.939 -2.977,14.939 0,13.451M-11.012,18.511C-13.452,17.201 -14.286,15.951 -14.286,13.392C-14.286,10.118 -12.5,8.392 -5.357,4.821C-1.786,3.035 1.25,1.309 1.487,1.012C1.666,0.654 1.547,-0.179 1.19,-0.834C-0.298,-3.631 -8.155,-1.369 -9.94,2.44C-11.727,6.249 -15.893,5.952 -15.654,2.083C-15.477,-2.084 -8.215,-6.131 0.118,-6.667C4.702,-6.965 4.762,-6.905 6.487,-5.06C7.678,-3.81 8.809,-1.429 9.761,1.725C10.595,4.404 11.964,7.618 12.856,8.868C14.583,11.428 14.464,12.32 12.201,13.808C10.773,14.761 10.535,14.761 8.333,13.749L6.012,12.678L3.214,15.178C-1.072,18.987 -7.262,20.416 -11.012,18.511" style="fill:rgb(254,189,7);fill-rule:nonzero;"/>
        </g>
        <g transform="matrix(1,0,0,1,424.349,620.338)">
            <path d="M0,31.964C-1.25,30.714 -6.607,15.179 -6.607,12.798C-6.607,11.964 -6.31,11.012 -5.893,10.596C-4.821,9.524 -1.429,9.702 -0.715,10.893C-0.238,11.846 -0.06,11.786 1.071,10.477C1.726,9.643 2.262,8.81 2.321,8.631C2.321,8.452 3.69,7.56 5.356,6.608C8.035,5.179 8.868,5 12.083,5.238C15.714,5.536 15.714,5.536 17.261,3.334C19.226,0.596 23.392,-1.429 27.082,-1.429C29.463,-1.429 30.118,-1.131 31.726,0.596C34.284,3.334 39.463,15.298 38.987,17.262C38.511,19.107 36.784,20.119 34.582,19.881C33.213,19.702 32.618,18.988 30.713,14.941C26.011,4.821 26.011,4.821 23.868,4.643C22.38,4.465 21.547,4.821 20.178,6.25C19.166,7.202 18.393,8.571 18.393,9.286C18.393,10 19.523,13.393 20.833,16.845C23.511,23.691 23.451,25.535 20.535,26.31C16.964,27.202 16.547,26.726 13.333,18.869C11.726,14.821 9.881,11.31 9.285,10.952C7.797,10.179 4.285,11.429 3.095,13.214C1.904,15.06 2.262,17.202 4.702,23.929C6.785,29.583 6.726,31.309 4.404,32.381C2.262,33.393 1.31,33.274 0,31.964" style="fill:rgb(254,189,7);fill-rule:nonzero;"/>
        </g>
        <g transform="matrix(1,0,0,1,183.938,634.683)">
            <path d="M0,4.703C-1.845,3.453 -1.726,1.072 0.179,0.179C3.452,-1.309 6.726,1.726 4.881,4.405C3.81,5.893 1.845,6.012 0,4.703" style="fill:rgb(254,189,7);fill-rule:nonzero;"/>
        </g>
        <g transform="matrix(1,0,0,1,282.388,618.254)">
            <path d="M0,11.489C2.619,9.405 3.393,5.358 1.964,1.37C0.595,-2.559 -5,-3.69 -8.035,-0.654C-11.13,2.382 -10.893,8.81 -7.678,11.31C-5.773,12.857 -1.786,12.976 0,11.489M-7.976,16.726C-14.226,15.238 -17.976,8.87 -16.428,2.322C-14.94,-3.809 -9.166,-7.618 -2.44,-6.904C4.345,-6.19 8.393,-2.321 8.988,4.108C9.821,13.274 2.024,19.107 -7.976,16.726" style="fill:rgb(254,189,7);fill-rule:nonzero;"/>
        </g>
        <g transform="matrix(1,0,0,1,254.591,600.935)">
            <path d="M0,32.796C-1.012,31.784 -1.19,31.07 -0.893,29.106C-0.714,27.736 -0.476,24.225 -0.476,21.249C-0.417,16.428 -0.536,15.832 -1.726,14.88C-4.107,12.976 -7.917,13.868 -9.464,16.784C-9.762,17.38 -10.357,20.653 -10.714,24.046C-11.547,31.486 -11.845,32.261 -14.464,32.261C-18.035,32.261 -18.154,31.844 -16.666,17.797C-15.952,10.832 -15.178,4.285 -15,3.214C-14.404,-0.238 -11.845,-1.548 -9.762,0.535C-8.869,1.368 -8.809,2.32 -9.167,6.845L-9.583,12.201L-7.619,10.773C-5.238,9.047 -0.595,8.928 2.262,10.416C5.655,12.201 6.19,14.107 5.893,23.511C5.714,31.308 5.595,31.844 4.286,32.915C2.5,34.344 1.548,34.344 0,32.796" style="fill:rgb(254,189,7);fill-rule:nonzero;"/>
        </g>
        <g transform="matrix(1,0,0,1,298.102,610.042)">
            <path d="M0,24.344C-1.012,23.689 -1.667,17.617 -1.726,8.154C-1.786,2.321 -1.667,1.725 -0.595,1.13C1.071,0.238 2.917,0.892 3.69,2.678L4.346,4.046L6.31,2.321C10,-0.893 16.25,-0.596 19.285,2.915C20.952,4.94 21.131,5.713 22.023,14.701C22.678,20.832 22.618,21.546 21.666,22.617C20.476,23.987 18.273,24.106 17.083,22.856C16.19,21.963 15.833,20.117 15.119,11.904C14.821,8.332 14.464,7.201 13.273,6.011C11.488,4.225 8.81,4.523 6.548,6.844C5.119,8.273 5.06,8.511 5.238,15.654C5.357,21.784 5.238,23.213 4.464,23.987C3.393,25.058 1.369,25.237 0,24.344" style="fill:rgb(254,189,7);fill-rule:nonzero;"/>
        </g>
        <g transform="matrix(1,0,0,1,328.577,600.518)">
            <path d="M0,31.07C-1.071,30.118 -1.429,28.272 -2.738,17.023C-4.643,0.833 -4.643,0.833 -2.798,-0.417C-1.429,-1.31 -1.19,-1.31 0.119,-0.477C1.31,0.356 1.667,1.309 2.262,5.594L2.977,10.773L4.881,8.987C7.321,6.606 11.012,5.654 14.106,6.487C17.916,7.499 19.166,9.583 20.654,17.38C22.559,27.618 22.262,29.284 18.512,29.284C16.309,29.284 15.654,28.093 14.821,22.439C13.452,13.035 12.56,11.249 9.345,11.249C8.154,11.249 6.964,11.844 5.773,12.975C3.75,14.999 3.69,16.249 4.762,24.522C5.476,29.76 5.476,29.88 4.107,30.951C2.381,32.38 1.548,32.38 0,31.07" style="fill:rgb(254,189,7);fill-rule:nonzero;"/>
        </g>
        <g transform="matrix(1,0,0,1,216.914,606.351)">
            <path d="M0,23.57C-5.417,21.666 -8.095,18.214 -8.095,13.154C-8.095,8.392 -5.893,4.106 -2.381,2.083C3.095,-1.131 12.678,0.773 15.654,5.654C17.261,8.214 17.202,9.344 15.476,10.475C13.63,11.725 12.143,11.011 10.357,8.094C8.393,4.881 3.988,4.166 1.19,6.547C-0.595,8.094 -1.548,10.535 -1.548,13.452C-1.548,15.714 -1.25,16.547 0.178,17.975C1.667,19.404 2.44,19.702 4.881,19.702C7.083,19.702 8.095,19.404 8.928,18.452C11.845,15.177 15.714,15.177 15.714,18.392C15.714,20.475 13.154,23.035 10.297,23.868C7.44,24.701 2.738,24.583 0,23.57" style="fill:rgb(254,189,7);fill-rule:nonzero;"/>
        </g>
        <g transform="matrix(1,0,0,1,365.778,615.815)">
            <path d="M0,-3.75C5.773,-5.06 6.131,-5.238 6.131,-6.131C6.131,-7.381 2.619,-10 1.012,-10C-2.381,-10 -5.179,-7.321 -5.179,-3.988C-5.179,-2.619 -5.119,-2.619 0,-3.75M-4.285,9.345C-11.19,6.904 -13.868,-3.154 -9.226,-9.464C-7.262,-12.143 -2.619,-14.166 1.429,-14.166C5.477,-14.166 7.619,-13.452 9.821,-11.369C13.035,-8.333 13.452,-4.285 10.773,-3.035C10,-2.679 6.25,-1.667 2.44,-0.773L-4.583,0.833L-3.631,2.619C-1.369,6.964 4.346,6.785 8.393,2.202C12.143,-2.083 15.654,-1.131 13.452,3.512C12.262,6.131 8.273,8.75 4.286,9.583C0.417,10.416 -1.369,10.356 -4.285,9.345" style="fill:rgb(254,189,7);fill-rule:nonzero;"/>
        </g>
        <g transform="matrix(1,0,0,1,187.39,592.482)">
            <path d="M0,32.083C-6.428,30.297 -10.714,25.952 -10.714,21.31C-10.714,19.285 -10.416,18.571 -9.464,18.095C-7.083,16.785 -5.535,17.798 -4.345,21.488C-3.154,25.237 -1.488,26.845 2.143,27.618C5.298,28.333 7.679,27.618 9.167,25.654C10.297,24.106 10.297,23.869 9.524,22.381C8.929,21.369 6.667,19.762 3.333,17.976C-2.381,14.94 -4.404,13.333 -5.714,10.833C-7.5,7.44 -6.012,3.155 -2.262,0.834C0.119,-0.595 5.595,-0.773 9.762,0.477C16.428,2.5 20.654,8.81 17.262,11.846C15.357,13.571 13.393,12.619 12.143,9.405C10.833,6.012 8.512,4.405 4.703,4.405C1.905,4.405 0,5.655 0,7.44C0,8.929 2.977,11.31 8.095,13.81C13.095,16.31 16.607,19.583 16.786,21.845C17.202,28.631 13.869,32.262 6.607,32.737C4.703,32.856 1.845,32.559 0,32.083" style="fill:rgb(254,189,7);fill-rule:nonzero;"/>
        </g>
        <g transform="matrix(1,0,0,1,386.85,594.566)">
            <path d="M0,24.463C-0.596,23.332 -5.417,5.952 -5.417,4.881C-5.417,2.5 -1.31,1.487 0.119,3.512C0.893,4.643 0.952,4.583 1.904,2.618C2.619,1.131 3.452,0.416 5.237,-0.119C8.452,-1.071 11.487,-0.238 11.726,1.607C12.023,3.631 10.773,4.702 8.154,4.702C6.487,4.702 5.416,5.118 4.285,6.249C2.916,7.618 2.797,8.095 3.154,10.714C3.393,12.32 4.106,15.357 4.702,17.38C6.666,23.63 6.131,25.534 2.5,25.534C1.25,25.534 0.356,25.178 0,24.463" style="fill:rgb(254,189,7);fill-rule:nonzero;"/>
        </g>
        <g transform="matrix(1,0,0,1,405.36,586.709)">
            <path d="M0,26.725C-1.249,25.475 -0.833,24.046 3.572,15.296C5.953,10.535 7.738,6.488 7.56,6.369C7.381,6.19 4.763,6.844 1.786,7.857C-4.285,9.88 -5.654,9.821 -5.356,7.44C-5.178,5.952 -4.523,5.594 3.75,2.619C14.167,-1.131 15.655,-1.131 15.179,2.321C15.06,3.511 13.155,8.213 11.012,12.738C8.869,17.202 7.203,20.892 7.321,20.892C7.5,20.892 10.357,19.821 13.69,18.511C20.654,15.832 22.857,15.535 23.393,17.321C24.107,19.642 23.273,20.118 11.31,24.404C2.322,27.618 1.132,27.856 0,26.725" style="fill:rgb(254,189,7);fill-rule:nonzero;"/>
        </g>
        <g transform="matrix(1,0,0,1,271.495,603.671)">
            <path d="M0,4.168C-1.071,3.691 -0.952,1.251 0.119,0.358C0.655,-0.059 1.607,-0.237 2.5,0.001C3.81,0.358 4.048,0.656 3.869,2.322C3.75,3.87 3.393,4.228 2.203,4.346C1.369,4.405 0.357,4.287 0,4.168" style="fill:rgb(254,189,7);fill-rule:nonzero;"/>
        </g>
        <g transform="matrix(0.0927879,0.995686,0.995686,-0.0927879,279.972,603.026)">
            <path d="M4.056,-0.642C3.188,-0.98 2.542,-0.859 1.713,-0.125C-0.616,1.825 1.158,4.828 4.056,3.841C5.214,3.435 5.465,2.933 5.338,1.57C5.239,0.503 4.742,-0.347 4.056,-0.642" style="fill:rgb(254,189,7);fill-rule:nonzero;"/>
        </g>
        <g transform="matrix(1,0,0,1,464.942,178.505)">
            <path d="M0,11.607C-6.012,10.297 -10.893,8.988 -10.893,8.69C-10.893,7.44 -6.31,-2.44 -5.714,-2.44C-5.06,-2.44 15.238,2.084 17.202,2.679C18.095,2.917 17.856,3.69 15.535,8.452C13.81,12.024 12.56,13.928 11.845,13.988C11.31,14.047 5.952,12.976 0,11.607" style="fill:rgb(254,189,7);fill-rule:nonzero;"/>
        </g>
        <g transform="matrix(1,0,0,1,118.642,123.327)">
            <path d="M0,63.689C-5.773,62.439 -9.88,60.475 -13.393,57.142C-15,55.594 -16.369,54.166 -16.369,53.868C-16.369,53.273 -14.345,52.737 -2.5,49.999L6.845,47.856L8.928,49.701C14.583,54.642 30,54.761 46.546,49.999C53.094,48.154 56.606,46.07 57.856,43.571C58.689,41.785 58.689,41.428 57.737,39.702C55.534,35.416 49.522,34.88 24.523,36.606C-6.786,38.809 -16.488,37.976 -22.44,32.619C-27.142,28.333 -28.273,23.571 -25.535,18.988C-18.869,7.619 13.928,-2.262 41.844,-1.309C54.106,-0.833 62.558,1.31 67.975,5.477C69.879,6.964 73.332,11.488 72.855,11.905C72.736,12.024 66.962,12.798 59.999,13.75L47.38,15.357L45.535,13.571C44.582,12.56 42.38,11.31 40.654,10.714C30.654,7.381 1.667,12.976 -1.488,18.81C-2.381,20.536 -2.202,22.678 -1.012,23.75C1.786,26.25 6.488,26.369 38.035,24.762C50.118,24.167 64.344,24.702 69.82,25.952C77.915,27.857 83.034,33.214 83.034,39.821C83.034,47.32 72.32,54.463 54.106,59.285C36.666,63.868 10.773,65.951 0,63.689" style="fill:rgb(254,189,7);fill-rule:nonzero;"/>
        </g>
        <g transform="matrix(1,0,0,1,416.016,117.912)">
            <path d="M0,62.855C-5.655,61.962 -10.417,61.069 -10.536,60.95C-10.655,60.831 -7.679,50.058 -3.929,37.022C-0.179,23.927 2.678,13.035 2.44,12.856C2.083,12.499 -15.119,10.297 -29.821,8.749C-33.273,8.333 -36.189,7.975 -36.309,7.797C-36.547,7.559 -35.237,-0.417 -34.762,-1.727C-34.523,-2.381 -32.976,-2.263 -12.262,0.118C3.154,1.904 23.154,4.939 41.011,8.154C54.225,10.535 73.152,14.523 73.688,14.999C73.927,15.296 70.354,23.511 69.641,24.344C69.402,24.642 65.652,24.046 61.248,23.035C50.355,20.653 30.772,17.022 30.475,17.261C30.356,17.439 26.903,27.022 22.856,38.57C18.749,50.177 14.999,60.772 14.464,62.2C13.333,65.236 14.166,65.176 0,62.855" style="fill:rgb(254,189,7);fill-rule:nonzero;"/>
        </g>
        <g transform="matrix(1,0,0,1,209.175,162.254)">
            <path d="M0,13.096C-0.833,10.596 -2.262,2.441 -1.964,2.084C-1.428,1.608 22.202,-0.714 22.619,-0.297C23.035,0.12 24.761,10.893 24.464,11.251C24.285,11.369 20.059,11.906 15.06,12.322C10,12.798 4.643,13.334 3.095,13.572C0.953,13.81 0.179,13.691 0,13.096" style="fill:rgb(254,189,7);fill-rule:nonzero;"/>
        </g>
        <g transform="matrix(1,0,0,1,371.611,162.375)">
            <path d="M0,12.797C-3.928,12.38 -9.166,11.844 -11.666,11.607L-16.189,11.249L-15.297,5.476C-14.82,2.321 -14.345,-0.417 -14.226,-0.536C-13.868,-0.893 10.417,1.309 10.715,1.726C11.131,2.5 8.393,13.69 7.798,13.63C7.44,13.571 3.929,13.214 0,12.797" style="fill:rgb(254,189,7);fill-rule:nonzero;"/>
        </g>
        <g transform="matrix(1,0,0,1,309.471,137.673)">
            <path d="M0,9.999C-0.298,9.404 -3.81,3.987 -7.738,-1.965L-15,-12.917L-16.667,-10.596C-18.69,-7.798 -25.893,2.976 -28.809,7.618L-31.011,11.011L-15.238,11.011C-0.357,11.011 0.535,10.952 0,9.999M-70.891,35.653C-70.891,35.058 -66.308,26.903 -60.653,17.38C-54.344,6.785 -45.475,-6.488 -37.38,-17.679L-31.428,-25.893L2.023,-25.893L6.31,-20.06C12.678,-11.369 22.38,3.095 27.797,11.963C34.284,22.559 41.13,34.879 40.772,35.237C40.355,35.713 14.583,34.225 14.345,33.749C14.226,33.511 12.737,30.772 11.012,27.677L7.856,22.023L-2.143,21.487C-7.679,21.249 -17.917,21.189 -24.88,21.428L-37.559,21.844L-41.189,27.975L-44.82,34.106L-49.701,34.463C-52.32,34.642 -57.618,34.939 -61.368,35.118C-65.118,35.296 -68.808,35.594 -69.522,35.772C-70.296,35.892 -70.891,35.832 -70.891,35.653" style="fill:rgb(254,189,7);fill-rule:nonzero;"/>
        </g>
        <g transform="matrix(1,0,0,1,374.386,342.971)">
            <path d="M0,9.645L1.822,7.833C3.491,7.549 7.06,7.493 14.845,7.493L28.476,7.493L28.476,11.421C28.476,14.755 28.297,15.529 27.166,16.481L25.797,17.612L27.166,18.743C28.416,19.814 28.476,20.291 28.476,29.04C28.476,37.492 28.416,38.207 27.284,38.921C26.035,39.695 26.272,41.421 27.642,41.421C28.297,41.421 28.476,43.207 28.476,50.944C28.476,58.682 28.297,60.468 27.642,60.468C26.689,60.468 26.153,61.599 26.511,62.73C26.689,63.087 27.166,63.444 27.642,63.444C28.618,63.444 28.832,82.755 28.283,91.699L26.045,93.789L25.26,105.097L22.345,105.05C17.701,104.991 9.368,103.681 3.237,102.074C-36.464,91.836 -65.808,58.563 -71.284,17.612C-71.673,14.388 -72.062,11.322 -72.112,10.494L0,9.645ZM19.606,-95.302L24.726,-95.659L25.142,-85.897C25.182,-84.695 25.237,-82.949 25.303,-80.809L26.045,-22.247L28.279,-20.16C28.424,-17.909 28.476,-14.263 28.476,-8.399L28.476,5.707L15.202,5.707C5.891,5.707 3.021,5.637 1.706,5.148L0,3.452L-8.709,3.35C-11.558,3.265 -15.317,3.186 -20.333,3.088C-31.285,2.91 -47.416,2.731 -56.165,2.731L-61.241,2.731L-72.117,2.603L-72.117,0.351C-72.117,-0.899 -71.701,-4.947 -71.165,-8.637C-66.522,-41.97 -46.403,-70.064 -16.464,-85.064C-4.619,-90.957 7.999,-94.528 19.606,-95.302M93.949,3.327C93.207,3.34 92.488,3.354 91.774,3.368L56.577,3.795L54.883,5.533C52.772,5.662 49.416,5.707 44.07,5.707L30.856,5.707L30.856,-8.399C30.856,-15.018 30.891,-18.629 31.061,-20.703L32.714,-22.247L33.645,-95.639L38.237,-95.242C53.058,-93.992 70.081,-88.04 83.176,-79.409C109.247,-62.327 125.734,-34.648 128.413,-3.756C128.711,-0.364 128.89,2.493 128.83,2.553C128.771,2.612 113.057,2.969 93.949,3.327M31.028,92.214C30.886,89.916 30.856,86.017 30.856,79.098C30.856,64.099 30.915,63.563 32.047,63.266C32.701,63.087 33.237,62.492 33.237,61.956C33.237,61.42 32.701,60.825 32.047,60.646C30.915,60.349 30.856,59.813 30.856,50.944C30.856,42.076 30.915,41.54 32.047,41.242C32.701,41.063 33.237,40.468 33.237,39.933C33.237,39.397 32.701,38.802 32.047,38.624C30.915,38.326 30.856,37.79 30.856,28.98C30.856,20.35 30.915,19.636 32.047,18.921C32.701,18.505 33.237,17.791 33.237,17.374C33.237,16.897 32.701,16.302 32.047,16.124C31.034,15.767 30.856,15.231 30.856,11.6L30.856,7.493L43.772,7.493C48.962,7.493 52.092,7.504 54.066,7.606L56.577,10.181L118.163,10.928L128.473,11.184L128.473,13.148C128.473,17.314 125.973,29.457 123.711,36.183C119.306,49.397 112.58,61.123 103.592,71.42C89.783,87.194 69.188,99.098 48.415,103.264C45.142,103.919 40.439,104.633 37.939,104.872L33.512,105.274L32.714,93.789L32.715,93.789L31.028,92.214ZM28.492,-99.785C-29.188,-99.785 -76.115,-52.858 -76.115,4.823C-76.115,62.503 -29.188,109.43 28.492,109.43C86.173,109.43 133.1,62.503 133.1,4.823C133.1,-52.858 86.173,-99.785 28.492,-99.785" style="fill:rgb(252,254,254);fill-rule:nonzero;"/>
        </g>
    </g>
</svg>
