<?xml version="1.0" encoding="UTF-8" standalone="no"?>
<!DOCTYPE svg PUBLIC "-//W3C//DTD SVG 1.1//EN" "http://www.w3.org/Graphics/SVG/1.1/DTD/svg11.dtd">
<svg width="100%" height="100%" viewBox="0 0 1259 337" version="1.1" xmlns="http://www.w3.org/2000/svg" xmlns:xlink="http://www.w3.org/1999/xlink" xml:space="preserve" xmlns:serif="http://www.serif.com/" style="fill-rule:evenodd;clip-rule:evenodd;stroke-linejoin:round;stroke-miterlimit:2;">
    <g id="schdesign-szürke-rózsaszín" transform="matrix(1,0,0,1,-330.244,-371.296)">
        <g transform="matrix(1,0,0,1,849.755,397.945)">
            <path d="M0,164.773C-11.963,164.773 -22.797,159.931 -30.645,152.098C-33.008,149.741 -35.1,147.111 -36.872,144.262C-40.999,137.621 -43.384,129.784 -43.384,121.39C-43.384,113.023 -41.015,105.209 -36.912,98.583C-35.137,95.717 -33.039,93.073 -30.667,90.703C-22.817,82.858 -11.975,78.006 0,78.006C11.968,78.006 22.803,82.852 30.652,90.689C33.039,93.071 35.148,95.729 36.929,98.612C40.778,104.837 43.095,112.107 43.358,119.898C43.375,120.393 43.383,120.891 43.383,121.39C43.383,121.889 43.375,122.386 43.358,122.881C43.094,130.716 40.751,138.025 36.864,144.273C35.096,147.116 33.007,149.74 30.65,152.093C22.801,159.928 11.966,164.773 0,164.773M43.443,-26.649L43.443,66.584C43.415,66.562 43.387,66.539 43.358,66.517C31.433,57.103 16.372,51.484 0,51.484C-19.295,51.484 -36.769,59.289 -49.435,71.911C-53.26,75.723 -56.647,79.975 -59.514,84.585C-65.779,94.659 -69.557,106.439 -69.99,119.069L-69.99,123.836C-69.557,136.45 -65.788,148.217 -59.538,158.283C-56.676,162.892 -53.293,167.145 -49.472,170.959C-36.802,183.604 -19.314,191.422 0,191.422C16.372,191.422 31.433,185.803 43.358,176.389C43.387,176.367 43.415,176.345 43.443,176.322C45.559,174.647 47.575,172.853 49.482,170.948C53.292,167.144 56.667,162.902 59.523,158.306C66.066,147.779 69.894,135.389 70.028,122.114L70.028,104.782L69.99,104.782L69.99,51.315L69.955,51.315L69.964,51.306L70.134,51.306L70.134,-26.649L43.443,-26.649Z" style="fill:rgb(248,72,94);fill-rule:nonzero;"/>
        </g>
        <g transform="matrix(1,0,0,1,0,-40.772)">
            <rect x="1249.91" y="490.601" width="26.486" height="139.57" style="fill:rgb(248,72,94);"/>
        </g>
        <g transform="matrix(1,0,0,1,1579.33,556.071)">
            <path d="M0,-73.629C-2.874,-78.273 -6.275,-82.555 -10.119,-86.392C-12.05,-88.321 -14.094,-90.137 -16.239,-91.831C-28.165,-101.244 -43.226,-106.863 -59.598,-106.863C-75.955,-106.863 -91.002,-101.256 -102.921,-91.857C-105.087,-90.15 -107.148,-88.318 -109.095,-86.373C-112.92,-82.551 -116.305,-78.291 -119.168,-73.671C-125.399,-63.617 -129.155,-51.87 -129.587,-39.278L-129.587,-34.29C-128.956,-15.9 -121.234,0.691 -109.069,12.832C-107.13,14.768 -105.077,16.591 -102.921,18.289L-102.921,-34.549C-102.961,-35.305 -102.981,-36.066 -102.981,-36.831C-102.981,-37.596 -102.961,-38.357 -102.921,-39.113C-102.533,-46.618 -100.238,-53.618 -96.509,-59.638C-94.735,-62.504 -92.636,-65.147 -90.264,-67.518C-82.415,-75.363 -71.572,-80.214 -59.598,-80.214C-47.63,-80.214 -36.794,-75.369 -28.945,-67.532C-26.559,-65.15 -24.449,-62.492 -22.668,-59.608C-18.819,-53.383 -16.502,-46.114 -16.239,-38.323C-16.223,-37.828 -16.214,-37.33 -16.214,-36.831C-16.214,-36.332 -16.223,-35.835 -16.239,-35.34L-16.239,33.234L10.43,33.234L10.43,-37.555C10.297,-50.78 6.497,-63.127 0,-73.629" style="fill:rgb(248,72,94);fill-rule:nonzero;"/>
        </g>
        <g transform="matrix(1,0,0,1,965.279,532.808)">
            <path d="M0,-26.88C2.141,-33.46 5.812,-39.348 10.594,-44.128C18.444,-51.972 29.286,-56.824 41.261,-56.824C60.53,-56.824 76.865,-44.261 82.522,-26.88L0,-26.88ZM110.004,-26.88C103.736,-59.128 75.341,-83.472 41.261,-83.472C21.933,-83.472 4.434,-75.643 -8.237,-62.982C-17.91,-53.318 -24.77,-40.839 -27.482,-26.88C-28.177,-23.305 -28.601,-19.633 -28.729,-15.887L-28.729,-10.993C-28.601,-7.253 -28.179,-3.588 -27.486,-0.019C-21.226,32.239 7.173,56.592 41.261,56.592C60.58,56.592 78.072,48.769 90.743,36.118L71.911,17.263C64.062,25.098 53.227,29.943 41.261,29.943C21.985,29.943 5.645,17.372 -0.006,-0.019L110.008,-0.019C110.807,-4.134 111.246,-8.378 111.289,-12.716L111.289,-14.164C111.246,-18.509 110.806,-22.758 110.004,-26.88" style="fill:rgb(248,72,94);fill-rule:nonzero;"/>
        </g>
        <g transform="matrix(1,0,0,1,1363.04,475.813)">
            <path d="M0,86.768C-11.963,86.768 -22.796,81.925 -30.645,74.093C-33.008,71.735 -35.1,69.106 -36.872,66.257C-40.623,60.222 -42.935,53.198 -43.324,45.666C-43.364,44.911 -43.383,44.149 -43.383,43.384C-43.383,42.619 -43.364,41.858 -43.324,41.102C-42.935,33.598 -40.64,26.598 -36.912,20.578C-35.137,17.712 -33.039,15.068 -30.667,12.697C-22.817,4.853 -11.975,0.001 0,0.001C11.968,0.001 22.804,4.847 30.652,12.684C33.039,15.066 35.148,17.724 36.93,20.607C40.778,26.832 43.096,34.102 43.358,41.893C43.375,42.388 43.384,42.885 43.384,43.384C43.384,43.884 43.375,44.381 43.358,44.876C43.094,52.711 40.751,60.02 36.864,66.268C35.096,69.111 33.007,71.734 30.65,74.088C22.801,81.923 11.966,86.768 0,86.768M59.597,6.586C56.724,1.943 53.323,-2.339 49.479,-6.176C47.547,-8.106 45.503,-9.921 43.358,-11.615C31.433,-21.029 16.372,-26.648 0,-26.648C-16.357,-26.648 -31.405,-21.04 -43.324,-11.642C-45.489,-9.935 -47.551,-8.103 -49.498,-6.157C-53.323,-2.336 -56.708,1.925 -59.571,6.545C-64.894,15.135 -68.412,24.962 -69.592,35.495C-69.794,37.289 -69.927,39.104 -69.99,40.937L-69.99,45.831C-69.557,58.445 -65.788,70.212 -59.538,80.277C-56.676,84.887 -53.293,89.14 -49.472,92.954C-47.532,94.89 -45.479,96.712 -43.324,98.411C-31.405,107.809 -16.357,113.416 0,113.416C16.372,113.416 31.433,107.798 43.358,98.384C45.504,96.69 47.549,94.872 49.482,92.942C53.292,89.139 56.667,84.897 59.523,80.301C66.066,69.774 69.894,57.384 70.028,44.109L70.028,42.661C69.895,29.435 66.095,17.088 59.597,6.586" style="fill:rgb(248,72,94);fill-rule:nonzero;"/>
        </g>
        <g transform="matrix(1,0,0,1,1433.08,659.143)">
            <path d="M0,-20.471C0,-6.922 -3.847,5.728 -10.509,16.446C-13.366,21.041 -16.74,25.283 -20.55,29.087C-22.483,31.017 -24.528,32.835 -26.674,34.529C-38.6,43.942 -53.66,49.561 -70.032,49.561C-86.389,49.561 -101.437,43.953 -113.356,34.555C-115.511,32.857 -117.564,31.034 -119.504,29.098L-113.356,22.94L-100.677,10.237C-92.829,18.07 -81.996,22.912 -70.032,22.912C-58.066,22.912 -47.231,18.067 -39.382,10.232C-37.025,7.879 -34.937,5.256 -33.168,2.413C-29.281,-3.836 -26.938,-11.145 -26.674,-18.98C-26.657,-19.475 -26.648,-19.972 -26.648,-20.471C-26.648,-20.971 -26.657,-21.468 -26.674,-21.963C-26.937,-29.754 -29.254,-37.024 -33.103,-43.248C-34.884,-46.132 -36.994,-48.79 -39.38,-51.172L-26.674,-63.901L-20.554,-70.032C-16.709,-66.195 -13.308,-61.913 -10.435,-57.269C-3.819,-46.576 0,-33.97 0,-20.471" style="fill:rgb(248,72,94);fill-rule:nonzero;"/>
        </g>
        <g transform="matrix(1,0,0,1,606.396,469.809)">
            <path d="M0,99.116C-12.67,111.768 -30.163,119.59 -49.482,119.59C-68.796,119.59 -86.284,111.772 -98.954,99.127C-111.119,86.986 -118.84,70.396 -119.472,52.005L-119.472,47.111C-118.841,28.734 -111.13,12.154 -98.98,0.016C-86.309,-12.645 -68.81,-20.474 -49.482,-20.474C-30.165,-20.474 -12.673,-12.652 -0.003,-0.003L-18.83,18.858C-26.679,11.02 -37.514,6.175 -49.482,6.175C-61.457,6.175 -72.299,11.027 -80.149,18.871C-88.005,26.723 -92.866,37.573 -92.866,49.558C-92.866,61.554 -87.997,72.413 -80.126,80.266C-72.279,88.099 -61.445,92.942 -49.482,92.942C-37.516,92.942 -26.681,88.096 -18.832,80.262L0,99.116Z" style="fill:rgb(61,61,61);fill-rule:nonzero;"/>
        </g>
        <g transform="matrix(1,0,0,1,742.551,490.922)">
            <path d="M0,-21.148C-1.937,-23.083 -3.986,-24.903 -6.138,-26.601C-18.06,-36.006 -33.114,-41.62 -49.479,-41.62C-65.835,-41.62 -80.884,-36.012 -92.803,-26.613L-92.803,-119.626L-119.494,-119.626L-119.494,-32.986L-119.469,-32.961L-119.469,30.86C-118.837,49.25 -111.115,65.84 -98.95,77.981C-97.011,79.917 -94.958,81.74 -92.803,83.438L-92.803,30.694C-92.842,29.938 -92.862,29.178 -92.862,28.413C-92.862,27.647 -92.842,26.887 -92.803,26.131C-92.414,18.626 -90.119,11.626 -86.39,5.605C-84.616,2.74 -82.517,0.096 -80.145,-2.274C-72.295,-10.119 -61.453,-14.971 -49.479,-14.971C-37.511,-14.971 -26.675,-10.125 -18.826,-2.288C-11.386,5.14 -6.63,15.256 -6.138,26.479C-6.109,27.12 -6.095,27.764 -6.095,28.413C-6.095,29.06 -6.109,29.706 -6.138,30.346L-6.138,98.478L20.553,98.478L20.553,28.413C20.553,9.053 12.698,-8.472 0,-21.148" style="fill:rgb(61,61,61);fill-rule:nonzero;"/>
        </g>
        <g transform="matrix(1,0,0,1,400.244,519.309)">
            <path d="M0,0.118L-0.161,0.218L-0.038,0.094L-0.015,0.071L0.021,0.105L0.087,0.173L0,0.118ZM68.733,-13.381L-41.271,-13.381C-40.192,-16.696 -38.725,-19.837 -36.922,-22.748C-35.147,-25.614 -33.049,-28.257 -30.677,-30.629C-22.827,-38.473 -11.985,-43.325 -0.01,-43.325C11.958,-43.325 22.793,-38.479 30.642,-30.642L49.468,-49.502C36.799,-62.152 19.307,-69.973 -0.01,-69.973C-16.367,-69.973 -31.415,-64.366 -43.334,-54.967C-45.5,-53.26 -47.561,-51.429 -49.508,-49.483C-53.333,-45.662 -56.718,-41.401 -59.581,-36.781C-63.958,-29.718 -67.114,-21.82 -68.753,-13.381C-69.448,-9.806 -69.872,-6.134 -70,-2.388L-70,2.506C-69.872,6.246 -69.45,9.911 -68.757,13.48L41.257,13.48C40.168,16.832 38.682,20.004 36.854,22.943C35.085,25.785 32.997,28.409 30.64,30.762C22.791,38.597 11.956,43.442 -0.01,43.442C-11.974,43.442 -22.807,38.6 -30.655,30.767L-43.334,43.47L-49.482,49.628C-47.542,51.564 -45.489,53.387 -43.334,55.085C-31.415,64.483 -16.367,70.091 -0.01,70.091C19.309,70.091 36.801,62.268 49.472,49.617C53.282,45.813 56.656,41.571 59.513,36.975C63.918,29.888 67.092,21.957 68.737,13.48C69.536,9.365 69.975,5.121 70.018,0.783L70.018,-0.665C69.975,-5.01 69.535,-9.259 68.733,-13.381" style="fill:rgb(61,61,61);fill-rule:nonzero;"/>
        </g>
        <g transform="matrix(0,-1,-1,0,1262.59,371.296)">
            <path d="M-13.329,-13.329C-20.69,-13.329 -26.658,-7.361 -26.658,0C-26.658,7.361 -20.69,13.329 -13.329,13.329C-5.968,13.329 0,7.361 0,0C0,-7.361 -5.968,-13.329 -13.329,-13.329" style="fill:rgb(248,72,94);fill-rule:nonzero;"/>
        </g>
        <g transform="matrix(1,0,0,1,1163.23,519.309)">
            <path d="M0,0.118L-0.161,0.218L-0.038,0.094L-0.014,0.071L0.021,0.105L0.087,0.173L0,0.118ZM68.733,-13.381L-41.271,-13.381C-40.192,-16.696 -38.725,-19.837 -36.921,-22.748C-35.147,-25.614 -33.048,-28.257 -30.677,-30.629C-22.827,-38.473 -11.984,-43.325 -0.01,-43.325C11.958,-43.325 22.793,-38.479 30.643,-30.642L49.468,-49.502C36.799,-62.152 19.308,-69.973 -0.01,-69.973C-16.367,-69.973 -31.415,-64.366 -43.334,-54.967C-45.499,-53.26 -47.561,-51.429 -49.508,-49.483C-53.333,-45.662 -56.718,-41.401 -59.581,-36.781C-63.958,-29.718 -67.114,-21.82 -68.753,-13.381C-69.448,-9.806 -69.872,-6.134 -70,-2.388L-70,2.506C-69.872,6.246 -69.45,9.911 -68.757,13.48L41.257,13.48C40.168,16.832 38.682,20.004 36.854,22.943C35.086,25.785 32.997,28.409 30.64,30.762C22.791,38.597 11.956,43.442 -0.01,43.442C-11.974,43.442 -22.807,38.6 -30.655,30.767L-43.334,43.47L-49.481,49.628C-47.542,51.564 -45.489,53.387 -43.334,55.085C-31.415,64.483 -16.367,70.091 -0.01,70.091C19.309,70.091 36.802,62.268 49.472,49.617C53.282,45.813 56.656,41.571 59.514,36.975C63.918,29.888 67.092,21.957 68.737,13.48C69.536,9.365 69.975,5.121 70.018,0.783L70.018,-0.665C69.975,-5.01 69.535,-9.259 68.733,-13.381" style="fill:rgb(248,72,94);fill-rule:nonzero;"/>
        </g>
    </g>
</svg>
