<svg xmlns="http://www.w3.org/2000/svg" xmlns:xlink="http://www.w3.org/1999/xlink" viewBox="0 0 1024 1024"><defs><style>.cls-1{fill:#3051bf;}.cls-2{fill:url(#radial-gradient);}.cls-3{fill:#930000;}.cls-4{fill:#ffe1e1;}.cls-5{fill:#050505;}</style><radialGradient id="radial-gradient" cx="-899.42" cy="1281.62" r="38.7" gradientTransform="matrix(3.78, 0, 0, -3.78, 3910.78, 5355.29)" gradientUnits="userSpaceOnUse"><stop offset="0" stop-color="#be0000"/><stop offset="0.72" stop-color="#b80000"/><stop offset="1" stop-color="#a00"/></radialGradient></defs><title>securiteam</title><g id="Layer_2"><path class="cls-1" d="M511.4,1024A512,512,0,0,1,433.84,6,510.14,510.14,0,0,1,611.4,9.8C724.5,32.18,829.52,94.37,907.11,184.93c36.64,42.77,65.45,89.68,85.62,139.41,20.72,51.09,31.23,102.51,31.23,152.84,0,55.64-19.41,103.69-57.69,142.79-31.4,32.08-69.8,53.18-103.67,71.8-2.9,1.59-5.78,3.17-8.61,4.74-51.77,28.64-107.9,47.74-171.6,58.4-55.78,9.34-111.95,11.5-169.38,13-2.1.06-4.22.08-6.37.08-123,0-329.61-90.68-338.5-94.6l29.57-66.9c57.42,25.36,225.66,90.67,313.34,88.31,116-3.11,212.36-9.68,307.54-62.33q4.33-2.4,8.79-4.83c60.69-33.36,123.45-67.85,123.45-150.5,0-156.62-135.2-352.42-353.63-395.64C392.29,41,185.84,151.75,106.29,344.89s-11,417.16,163,532.69C443,992.87,675.62,969.14,822.42,821.15l51.92,51.5A510.67,510.67,0,0,1,511.4,1024Z"/><path id="path837" class="cls-2" d="M658.29,512a146.27,146.27,0,0,1-292.53,0h0a146.27,146.27,0,1,1,292.53,0Z"/><path class="cls-1" d="M822.27,415.34a601.53,601.53,0,0,0-620.49,0l-37.71-62.66a675.84,675.84,0,0,1,695.92,0Z"/><path id="path835" class="cls-3" d="M534.06,548.21c-11.19,6.6,50.82,85.5,39,91s-34.35-91.78-46.63-87.46,32.91,93.63,20.26,96.75-15.51-96.62-28.41-94.74,13.73,98.15.7,98.78,3.93-97.74-9.09-98.37-6,98.9-18.89,97,23.22-95.11,10.57-98.23-25.46,95.85-37.73,91.53,41.61-88.83,29.82-94.32-44,89.12-55.14,82.52S497,553.55,486.49,545.9s-60.78,79-70.44,70.33,73-66.38,64.21-75.89-75.25,65.77-83,55.45,84.71-51.08,78-62.1-86.84,50-92.41,38.44,93.21-33.83,88.82-45.92-95.08,32.41-98.25,19.95,98.12-15.27,96.2-28-99.67,13.52-100.3.69,99.25,3.87,99.89-8.95S368.78,504,370.7,491.32s96.58,22.87,99.75,10.41-97.34-25.07-92.94-37.16,90.19,41,95.77,29.37-90.5-43.29-83.79-54.3,80.34,57.52,88.11,47.2S397.42,427,406.18,417.49s67.4,71.85,77.07,63.22-66.79-74.1-56.32-81.74,51.88,83.42,63.07,76.82-50.83-85.51-39-91,34.35,91.78,46.63,87.46-32.9-93.63-20.25-96.75,15.51,96.62,28.41,94.74S492,372.09,505,371.46s-3.93,97.74,9.1,98.38,6-98.91,18.88-97-23.22,95.11-10.57,98.23,25.46-95.85,37.74-91.52-41.62,88.82-29.83,94.31,44-89.12,55.15-82.52-58.41,79.13-47.94,86.78,60.77-79,70.43-70.34-73,66.38-64.21,75.89,75.25-65.77,83-55.45-84.71,51.09-78,62.1,86.83-50.05,92.4-38.44-93.2,33.83-88.81,45.92,95.08-32.4,98.24-19.95-98.11,15.28-96.2,28,99.67-13.52,100.31-.69-99.26-3.87-99.9,9,100.43,5.89,98.52,18.59-96.58-22.87-99.76-10.41,97.34,25.07,92.95,37.16-90.2-41-95.78-29.37,90.5,43.29,83.8,54.31-80.35-57.53-88.12-47.21,80.19,59.84,71.43,69.36-67.41-71.85-77.07-63.23,66.79,74.1,56.31,81.75-51.88-83.42-63.06-76.82Z"/><g id="g826"><path id="path869" class="cls-4" d="M542.64,429.34l-8.21,22.55a65.68,65.68,0,0,1,39.28,39.27L596.26,483A89.77,89.77,0,0,0,542.64,429.34Z"/><path id="path861" class="cls-4" d="M558.86,384.77l-12.51,34.37a100.51,100.51,0,0,1,60.1,60.1l34.37-12.51A137.19,137.19,0,0,0,558.86,384.77Z"/></g><circle id="path859" class="cls-5" cx="512.03" cy="512" r="54.85"/><path class="cls-4" d="M512,569.13A57.14,57.14,0,1,1,569.16,512,57.2,57.2,0,0,1,512,569.13Zm0-109.7A52.57,52.57,0,1,0,564.59,512,52.63,52.63,0,0,0,512,459.43Z"/></g></svg>