<svg id="Layer_1" data-name="Layer 1" xmlns="http://www.w3.org/2000/svg" viewBox="0 0 1600 900"><defs><style>.cls-1{fill:#1d1d1b;fill-rule:evenodd;}</style></defs><title>spot</title><path class="cls-1" d="M.13,720.43V180.74H793.31c.43,2.95,1.06,56.31,1.69,63.27,1.06,2.53,1.06,2.53,1.69,3,12.23.21,21.3-.42,42.39-.42,2.53.42,5.06.84,7.8,1.26a22.93,22.93,0,0,1,6.54,3.8l.63,4.43c-.84,1.48-.84,1.48-3.79,3.16-2.74.64-2.74.64-21.09,1.27H805.34c-3-.21-5.91-.63-8.86-1.06a11.63,11.63,0,0,0-1.48-1.89l-1.26-5.07c-.85-.84-1.69-1.68-2.53-2.53H780.66c-2.53.64-5.06,1.27-7.59,2.11-.63.42-1.48,1.06-2.32,1.69V256c3.58,1.69,3.58,1.69,9.28,3.16,3.37.43,7,.85,10.54,1.27.85.63,1.9,1.47,3,2.32q.32,187.59.84,375.61a32.52,32.52,0,0,0,1,3.58c18.14,0,36.49-.21,54.84-.42.63.21,1.26.42,2.11.63.63.64,1.47,1.48,2.32,2.32a24.66,24.66,0,0,0,.84,3.8L853,651.46c-1.69.64-3.59,1.27-5.48,2.11H799c-2.53.85-2.53.85-3.8,2.32a53.3,53.3,0,0,1-.84,5.7c-.21,19.61-.63,39.22-1.06,58.84ZM984,674.24c-14.13-2.53-38.81-8-62.64-12.23-7.17-2.74-14.34-5.49-21.72-8.44-5.49-3.37-5.49-3.37-7.38-5.27-.43-.84-.85-1.69-1.48-2.74v-7.17c4.22-7,4.22-7,4.85-9.07v-4.85c-16.87-26.79-16.87-26.79-27.42-45.13-6.32-13.29-6.32-13.29-9.91-19.62-5.48-16.24-5.48-16.24-11.18-30.16-4.21-20.45-4.21-20.45-7-30.36-.84-6.33-1.89-12.66-3-19V449.42c.84-6.53,1.9-13.07,3-19.82,4.22-15.4,4.22-15.4,7-28.05.85-2.53,1.69-5.06,2.75-7.8.84-1.48,1.89-3.17,2.95-4.85,1.68-4.85,3.58-9.71,5.48-14.77,3.59-6.32,7.17-12.86,11-19.4,3.58-5.48,7.38-11.18,11.18-16.87,2.74-2.74,7.8-9.91,21.09-24.68,3.16-2.53,6.32-5.27,9.49-8l18.34-12.66c6.12-3.37,12.45-6.74,18.77-10.12,9.07-2.32,18.14-4.64,27.42-7.17,5.48-.63,5.48-.63,20.25-.63,11,2.11,21.93,4.22,33.11,6.33,7.8,2.74,7.8,2.74,13.28,5.69,5.28,1.69,10.76,3.59,16.24,5.48,9.92,5.06,23.41,11,27.63,13.71l5.7,5.7c3.58,5.69,6.32,11.38,12,20.45,5.9,12.24,5.9,12.24,10.54,19.62,1.69,4.21,3.59,8.43,5.49,12.65,1,1.9,2.31,3.8,3.58,5.7,3.58,9.49,7.38,19.19,11.18,28.89,1.9,8,3.79,16.24,5.69,24.46,2.74,6.33,2.74,6.33,5.7,16.24.63,7.17,1.26,14.34,2.11,21.72,0,24.68,0,24.68-1.48,67.49-.84,3.16-1.69,6.54-2.74,9.91-7.17,12.66-9.91,19-15.61,28-1.69,4.22-3.58,8.44-5.48,12.66-1.06,1.89-2.32,3.79-3.59,5.69q-6,12.66-12,25.31c-1.05,4.22-2.11,8.43-3.37,12.65v7.8a41.81,41.81,0,0,0,2.32,4.43c2.11,1.9,2.11,1.9,5.69,3.59l64.75,1.26h71.07a28.86,28.86,0,0,1,7.17,3.17c.42.63.84,1.47,1.48,2.32a11.19,11.19,0,0,1-.64,4.85c-.63.84-1.47,1.9-2.32,3-1,.63-2.32,1.48-3.58,2.32-13.5,5.48-13.5,5.48-20.46,7.59h-7c-7.17-2.74-7.17-2.74-13.5-6.32a132.46,132.46,0,0,0-16-4.22c-2.32-.21-4.64-.42-7.18-.63-34.37.63-50.61,1.47-66,1.47-9.91-.84-9.91-.84-26.78-.84-6.33.84-12.65,1.9-19,2.95-6.33,1.69-12.65,3.59-19,5.48-7,1.27-13.92,2.75-21.09,4.22-8.44,2.32-16.87,4.64-25.31,7.17-9.7,1.27-9.7,1.27-24.46,1.69Zm395-2.74c-3.8-2.11-7.59-4.22-11.6-6.54-4.85-4-4.85-4-5.69-5.48V656.1c3.58-7.8,3.58-7.8,4.85-12.65Q1370,509,1373.71,374.13v-40.7c-1.48-4.22-1.48-4.22-4.64-9.7a102.54,102.54,0,0,0-11.6-10.13c-6.54-3.16-6.54-3.16-22.78-8.85-4.85-.85-9.7-1.69-14.76-2.74-12-.64-12-.64-82.89-.64-4.21-2.11-4.21-2.11-5.9-3.79-3-6.33-3-6.33-5.91-15.61-2.74-5.48-5.48-11.18-8.43-16.87-1.27-4.22-1.27-4.22-1.27-7,.85-1.9.85-1.9,3-3.8,2.31-.84,4.64-1.9,7.17-3,2.95-.42,6.11-.84,9.27-1.48h13.29a31.58,31.58,0,0,1,3.8,1.69,20.18,20.18,0,0,1,1.9,2.11,23.06,23.06,0,0,0,.21,3.8c-1.27,1.89-2.53,3.79-4,5.9l-5.69,5.06a38.73,38.73,0,0,1-2.32,3.8,31.61,31.61,0,0,0,.42,4.43c2.74,2.53,2.74,2.53,5.06,3.58,1.27.21,2.74.43,4.22.64,238.94,0,238.94,0,259.4.63,3.8,1.69,3.8,1.69,6.33,3.8a42.67,42.67,0,0,0,2.32,4.42v4.85c-2.53,3.17-2.53,3.17-4.43,4.64l-5.7,1.27c-7.8.42-15.81.84-23.83,1.48-35.22,0-35.22,0-52.72.63-3.8.42-7.59.84-11.39,1.47a144.44,144.44,0,0,0-17.5,5.7c-1.27.63-2.53,1.48-4,2.32-1.69,2.53-1.69,2.53-3.37,6.54-.22,2.11-.43,4.21-.85,6.32q-.63,156-1.26,312.13l1.26,7.59c1.27,3.17,2.74,6.54,4.22,9.92v5.69c-.42.84-1.06,1.9-1.69,2.95-2.74,2.11-5.48,4.22-8.43,6.33-1.06.42-2.11.84-3.38,1.48-2.53,0-5.06.21-7.8.42Zm198.24-4.22c-12-2.53-12-2.53-20.45-5.27-.64-.42-1.48-1.06-2.32-1.69a27.1,27.1,0,0,1,.21-4c2.11-1.47,2.11-1.47,6.32-2.74a53.3,53.3,0,0,0,5.7-.84h19a54.15,54.15,0,0,1,5.69,1.48c1.06.84,2.32,1.89,3.59,2.95a16,16,0,0,0,.21,3.16c-1.69,2.11-1.69,2.11-5.27,4.43-4.85,1.48-4.85,1.48-12.66,2.53Zm-135-4.22a55.71,55.71,0,0,1-5.06-2.74v-2.53c1.26-1.27,1.26-1.27,3.58-2.11h7.17c2.32.84,2.32.84,3.59,2.32v2.32c-.85.42-1.9,1.06-3,1.69-2.1.21-4.21.63-6.32,1Zm-462.5-21.72c-10.55-2.53-10.55-2.53-28.89-8.22-2.32-.85-4.64-1.69-7-2.75-6.12-3.58-12.45-7.17-18.77-11-3.38-3-7-6.12-10.55-9.28-3.58-4.22-7.17-8.44-11-12.87-5.27-8-5.27-8-12.86-21.3-2.11-5.06-4.22-10.33-6.33-15.6-1.68-3-3.37-5.91-5.06-9.07-1.69-5.49-3.58-11.18-5.48-16.87-1.69-3.17-3.38-6.54-5.06-9.92-.85-3-1.69-5.9-2.74-9.07-.64-4-1.27-8-2.12-12v-35c1.48-34.58,1.48-34.58,2.75-52.09.84-4.64,1.89-9.28,2.95-14.13,3.16-8.43,6.33-16.87,9.7-25.31C883.16,371,887,365.06,891,359c6.33-7,12.65-13.92,19-21.09l9.49-8.86c7.38-5.69,15-11.6,22.57-17.5a92.48,92.48,0,0,1,13.07-5.91c3.38-.84,7-1.9,10.55-2.95,3.58-.42,7.38-.85,11.18-1.27h28.26c3.37.42,7,.85,10.54,1.27,16.87,5.69,16.87,5.69,30.79,11.39,13.71,8.64,13.71,8.64,20,13.49,8.43,7.81,8.43,7.81,17.08,17.3,3.16,4.22,6.54,8.43,9.91,12.65,3.59,5.7,7.17,11.39,11,17.3.84,2.31,1.69,4.64,2.74,7.17,2.32,4.21,4.64,8.43,7.17,12.65,2.74,7.38,5.49,14.76,8.44,22.35,1.26,4.86,2.74,9.71,4.21,14.77.64,5.27,1.27,10.75,2.12,16.24v28.89c-.64,13.71-1.27,27.42-2.12,41.34-.84,4.21-1.89,8.43-3,12.65-5.48,13.5-5.48,13.5-11.17,30.37-5.7,11.18-5.7,11.18-11.18,24.46-4.22,6.33-7.17,12-17.3,26.37-3.37,3.37-6.75,6.74-10.33,10.33-3.58,2.53-7.17,5.27-10.76,8-2.32.85-4.64,1.69-7,2.75-4,.84-8,1.68-12,2.74-8.64.84-17.29,1.9-25.94,2.95l-38.59,2.53Zm598.11-371.18c-2.75-.84-5.49-1.69-8.44-2.53l-13.29-5.7c-11.17-2.74-11.17-2.74-25.94-5.27a11,11,0,0,1,.42-2.32c2.32-.63,4.64-1.47,7.17-2.32,10.13-.84,20.25-1.68,30.37-2.74h23.2c3.8,1.69,3.8,1.69,6.54,3.8.63,1,1.27,2.32,2.11,3.58v3a19.65,19.65,0,0,1-4,6.53,12.13,12.13,0,0,0-1.9,1.48c-2.95.63-5.9,1.26-9.06,2.11-2.32,0-4.64.21-7.17.42Zm-454.07-9.91c-10.54-2.53-10.54-2.53-13.07-3.59l-1.27-1.26a19.44,19.44,0,0,1,.21-3.38c1.27-.63,2.74-1.26,4.22-2.11,4.22-.63,4.22-.63,19-.63a22.19,22.19,0,0,1,7.8,2.11c.64.42,1.27,1.05,2.11,1.69a26.91,26.91,0,0,1-.21,4c-3.37,2.11-3.37,2.11-6.11,2.75-4.22,0-8.44.21-12.66.42Zm-238.31-.63c-2.53-1.69-2.53-1.69-4.22-2.11-.84-1.9-.84-1.9-.84-4.64a11.63,11.63,0,0,1,4.42-3h6.33c3.8,1.69,3.8,1.69,4.22,2.32a27,27,0,0,1-.21,4c-1.27,1.27-1.27,1.27-5.48,2.95a30.19,30.19,0,0,0-4.22.43Zm525.77-1.48c-5.49-.21-11.18-.63-16.88-1.06-1.47-1.05-1.47-1.05-2.53-2.95,1.69-1.9,1.69-1.9,3.38-2.74,11.18-.63,11.18-.63,34.37-.63,2.32.84,2.32.84,3.59,2.32v3.58a33.5,33.5,0,0,0-3.59,1.06c-6.11,0-12.23.21-18.34.42Zm47.87-.63a36,36,0,0,1-3.8-2.11,7.91,7.91,0,0,0-.21-2.11l2.53-1.9h5.7c.63.42,1.26,1.05,2.11,1.69.21.84.42,1.9.63,2.95-2.32.42-4.64.84-7,1.48Zm-421.8-.85a10.24,10.24,0,0,0-1.47-.63,14.55,14.55,0,0,0-.42-2.74l2.53-1.9h1.47c.64.42,1.27,1.05,2.11,1.69V256c-1.26.21-2.74.42-4.22.63ZM962,256a24,24,0,0,0-2.32-1.27v-2.53c1.69-.84,1.69-.84,4.43-.84a12,12,0,0,1,1.48.84v2.53c-1.06.43-2.32.85-3.59,1.27ZM219.67,673l-19.61-2.54C172,662,172,662,155.77,656.31c-21.09-4.21-21.09-4.21-31-7C118.86,646,118.86,646,114,642c-3-6.32-3-6.32-5.69-15.39-.85-1.27-1.69-2.53-2.53-4-11-10.33-11-10.33-15.19-15a59.72,59.72,0,0,0-2.11-5.7V587.14c1.69-3.16,1.69-3.16,3.8-5.06a30.72,30.72,0,0,0,3.8-1.69h7c7,2.74,7,2.74,9.49,4.43l10.75,13.92c8.44,9.07,8.44,9.07,19.4,19.19,6.54,4,13.29,8.23,20,12.44,8.86,2.75,17.72,5.49,26.78,8.44,4.22.63,8.44,1.26,12.66,2.11h25.94c3.79-.42,7.59-.85,11.39-1.48,24.46-5.69,32.9-7,43.44-9.91,8.44-2.74,16.87-5.48,25.31-8.44,2.11-1.05,4.22-2.1,6.33-3.37,2.95-4,5.9-8,9.06-12,8.86-20,8.86-20,11.6-27.63,1.06-6.12,2.32-12.23,3.59-18.35V537.16c-1.48-9.07-1.48-9.07-2.74-12.66-1.48-2.11-3-4.43-4.64-6.75-1.9-1.68-3.8-3.58-5.7-5.48-6.74-4.64-13.49-9.28-20.24-14.13-5.06-2.74-10.12-5.48-15.4-8.43-15.6-5.7-15.6-5.7-24.67-9.92-7.17-1.68-14.34-3.58-21.73-5.48L226,468.62c-5.27-.85-10.55-1.69-16-2.75-4.85-1.26-9.7-2.74-14.76-4.22-2.32-1-4.64-2.31-7.17-3.58a126.23,126.23,0,0,1-15.4-5.69c-4.85-2.75-4.85-2.75-19-8.44-7.17-4-14.34-8-21.51-12.23-3.38-2.74-7-5.49-10.54-8.44q-4.44-5.06-8.86-10.12c-1.27-2.11-2.53-4.43-3.8-6.75q-2.85-7-5.69-13.92c-.85-3.37-1.69-7-2.75-10.54-.63-6.33-.63-6.33-.63-29.53.42-1.9.85-3.8,1.27-5.69,7.8-13.29,16.24-25.94,20-32.69,9.07-13.5,9.07-13.5,13.29-18.77,2.11-1.27,4.22-2.53,6.54-3.8,16.24-4.85,16.24-4.85,23.2-7.8,3.58-.85,7.38-1.69,11.17-2.74,11.81-1.9,23.83-3.8,35.86-5.7,9.91-.63,9.91-.63,22.56-.63,18.35,2.74,18.35,2.74,33.75,5.69,3.37.85,7,1.69,10.54,2.74,13.29,5.7,13.29,5.7,28.05,11.18,5.06,2.95,11.39,5.7,17.93,9.49,5.9,8.23,5.9,8.23,7.38,9.49,4.43,7.81,9.07,15.61,13.71,23.62,1.47,4.22,1.47,4.22,2.11,9.92-.85,2.11-1.9,4.21-3,6.32a48.33,48.33,0,0,0-4.43,2.32H335c-1.26-.42-2.53-1.05-4-1.68l-9.49-9.49c-3.17-4-6.54-8-9.92-12l-10.75-9.49c-4.85-3.16-9.7-6.53-14.76-9.91-8-3.37-16-6.75-24.26-10.12-14.76-2.74-14.76-2.74-27.41-4.22H209.13c-7.17.84-14.34,1.9-21.73,2.95-3,.85-5.9,1.69-9.06,2.74-6.12,3.17-14.13,6.33-20.88,10.13-4.64,3.58-9.28,7.38-14.13,11.18C136,335.75,136,335.75,132.15,342.5c-2.74,9.91-2.74,9.91-3.59,16.24V372c.43,3.59.85,7.39,1.48,11.18.84,2.95,1.69,6.12,2.74,9.28,2.11,3.8,4.43,7.59,6.75,11.39,1.48,1.9,3.16,3.8,4.85,5.69,2.32,1.48,4.64,3.17,7.17,4.85,6.12,3.17,12.23,6.54,18.35,9.92,6.54,2.74,13.08,5.48,19.61,8.43,7.39,2.32,15,4.64,22.57,7,2.11.85,4.22,1.9,6.33,2.95,7.17,1.69,14.34,3.59,21.72,5.49,5.27,1.9,10.76,3.79,16.24,5.69,11.81,2.74,11.81,2.74,25.94,7,6.33,2.95,15.39,5.7,22.78,8.86,5.27,3.59,10.75,7.38,16.24,11.18,5.48,5.69,11.17,10.54,15.18,14.76,2.95,3.8,5.9,7.59,8.86,11.6,3.37,7.38,6.75,14.76,10.33,22.35.42,2.32.84,4.64,1.48,7,.21,5.07.42,10.13.63,15.4-1.48,17.72-1.48,17.72-2.74,25.31-1.9,5.48-3.8,11.18-5.69,16.87-2.75,12.65-2.75,12.65-7,26.15,0,10.54.64,13.29.64,17.51a20.74,20.74,0,0,1-5.28,5.27c-6.95,1.68-13.91,3.58-21.08,5.48-7,3-16.88,5.7-38.6,14.13-11.6,2.74-23.41,5.48-35.22,8.44l-23.2,1.9Zm270,0c-1.47-.85-2.95-1.9-4.64-3-3-3.58-5.9-7.17-8.86-11-2.95-1.48-5.9-3.17-8.85-4.85-12.66-2.75-12.66-2.75-23.2-5.91a6.19,6.19,0,0,0-.42-1.9,15.74,15.74,0,0,1,1.47-2.53c12.87-5.9,20.67-8.65,25.52-11.39,3.59-3.79,3.59-3.79,5.27-6.75.42-3.16.85-6.32,1.48-9.7,2.11-124.43,2.11-124.43,3.37-258.77-.42-2.74-.84-5.48-1.26-8.43-1.06-3.59-2.32-7.39-3.59-11.18v-7.81c2.32-13.28,4.64-26.57,7-40.07.43-1.26,1.06-2.53,1.69-4a31,31,0,0,1,2.74-2.53,31.58,31.58,0,0,0,3.8-1.69c14.76-1.27,14.76-1.27,54.83-2.74l68.12-.64c19,1.27,19,1.27,31.64,2.75,3.79.84,7.59,1.68,11.39,2.74,6.95,2.95,6.95,2.95,23.19,8.43,5.91,3.17,5.91,3.17,19.19,11.6,2.75,2.32,5.49,4.64,8.44,7,3.59,3.59,7.17,7.38,11,11.18,4,5.69,8,11.39,12.23,17.08,2.74,5.7,7,12.66,9.91,19.83a123.21,123.21,0,0,1,2.11,16v26.78c-.42,5.06-.84,10.12-1.47,15.39-.85,4-1.69,8-2.75,12L730,446.05c-1.89,2.53-3.79,5.06-5.69,7.8-3.16,3.38-6.54,7-9.91,10.55-3.59,3-7.17,5.9-11,9.07-6.54,4.42-13.07,8.85-19.82,13.49-5.49,2.75-13.29,7.6-20.25,10.55-5.06,1.26-5.06,1.26-16.87,2.74-41.13,1.05-82.46,2.32-123.8,3.59-1.05.42-2.32.84-3.58,1.26L516,507.63c-1.05,1.9-2.32,3.8-3.58,5.7-1.27,5.69-1.27,5.69-2.74,17.5-.42,6.75-.85,13.5-1.48,20.46.63,16.87,1.27,33.74,2.11,50.61v29.53q-.63,9.5-1.27,19c-1.26,4.85-2.74,9.7-4.21,14.76-1.9,3.17-1.9,3.17-3.8,5.06-1.27.64-2.74,1.48-4.22,2.32-2.32,0-4.64.21-7.17.43Zm192.76-17.72c-8.86-.42-17.71-1-26.78-1.69-1.9-.84-4-1.68-6.12-2.53a5.57,5.57,0,0,0-1.05-1.26V646.4c1.9-.84,3.79-1.69,5.69-2.74,5.06-.63,5.06-.63,30.37-1.48h52.73a39.76,39.76,0,0,1,4.21.85h11.81a27.34,27.34,0,0,0,3.59-.85H771c2.11.43,4.22.85,6.33,1.48,4.85.21,9.7.63,14.76,1.05.21,1.69.21,1.69-.42,4.22-.42.42-1.06.85-1.69,1.48-4,0-8,0-12,.21-7,1.48-7,1.48-16.24,2.11-9.7-1.27-9.7-1.27-18.14-1.27-18.35,2.75-18.35,2.75-26.15,3.38-11.6,0-23.2.21-35,.42ZM603.51,654c-1.48-1-3-2.32-4.43-3.58-.85-2.11-.85-2.11-.63-5.27,1.68-1.06,3.37-2.32,5.06-3.59,8.43-1.48,8.43-1.48,12.65-1.48a48.3,48.3,0,0,1,5.06,1.48c2.11,1.69,2.11,1.69,2.95,3.16a48.52,48.52,0,0,1-.42,5.28l-1.9,1.9a59.12,59.12,0,0,0-5.69,1.68c-4.22,0-8.43.21-12.65.42Zm-520.92-2.1c-1.48-1.06-3-2.32-4.43-3.59-.42-1-.84-2.32-1.48-3.59v-3.37c1.69-3.37,1.69-3.37,3.59-5.27a12.06,12.06,0,0,0,1.69-.85h6.32a24.4,24.4,0,0,1,3.17,1.69,23.14,23.14,0,0,1,1.26,2.32v5.48A22.18,22.18,0,0,1,91,647.88c-.84.63-1.68,1.26-2.74,2.11l-5.69,1.9ZM556.48,479c-11.39-.84-22.78-1.69-34.38-2.53-6.33-1.48-6.33-1.48-10.33-3.38-1.06-.84-2.11-1.68-3.38-2.53-2.95-6.32-2.95-6.32-4.43-12-1.26-10.75-2.74-21.51-4.22-32.27-.42-5.48-.84-11.17-1.26-16.87V383.2c1.26-14.76,1.26-14.76,4.22-35.85.84-4.85,1.68-9.7,2.74-14.76,2.74-7.17,5.69-14.35,8.65-21.52,1.26-1.47,2.74-2.95,4.21-4.64a41.81,41.81,0,0,0,4.43-2.32c1.06-.21,2.32-.42,3.59-.63,58.21.63,58.21.63,110.93,2.11l14.13,1.27c4.85,1.89,9.7,3.79,14.76,5.69l16.45,10.76c9.07,8.43,9.07,8.43,12,10.54,4.64,5.7,9.49,11.39,14.35,17.29,3.37,5.28,6.74,10.55,10.12,16,.84,2.32,1.9,4.64,2.95,7,.42,2.11.85,4.22,1.27,6.33v15.4c-.42,3.37-.85,6.95-1.27,10.54-.84,4-1.9,8-2.95,12-2.74,6.33-2.74,6.33-9.49,18.56-1.27,1.9-2.74,3.8-4.22,5.69-2.74,2.75-5.48,5.49-8.44,8.44l-20.24,12.65c-7,2.75-7,2.75-25.31,8.44-12,2.74-12,2.74-23.2,4.22L556.48,479ZM456.72,266.57c-2.53-.84-5.06-1.68-7.8-2.53-4.85-2.11-9.7-4.42-14.55-6.74a5.46,5.46,0,0,0-1.06-1.27V253.5c.85-.63,1.9-1.27,2.95-2.11,2.32-.42,4.64-.84,7-1.48,5.07-.42,10.34-.84,15.61-1.26h32.9l6.33,1.26c2.95,2.32,2.95,2.32,3.79,4-.42,1.27-.84,2.74-1.47,4.22a42.87,42.87,0,0,1-8.65,3.79c-7.8,1.27-15.82,2.75-23.83,4.22-3.59,0-7.38.21-11.18.42ZM94,260.25c-5.07-1.06-5.07-1.06-8.86-2.95l-1.9-1.9V252c.84-.63,1.9-1.26,3-2.11,2.11-.63,4.22-1.26,6.33-2.11h12.65c7.81,1.48,7.81,1.48,12.24,3.17a18.22,18.22,0,0,1,1.89,2.11,5.9,5.9,0,0,1-.21,1.9c-.84.63-1.68,1.26-2.74,2.1-4.85,1.27-4.85,1.27-22.35,3.17Zm624.89-.63c-7.81-1.27-7.81-1.27-12-2.54-.42-.21-.85-.63-1.48-1.05v-3.16c1.27-1.27,1.27-1.27,5.69-3h23.2c6.33,1.06,12.66,2.11,19,3.38a21.23,21.23,0,0,0,.85,2.74c-6.75,1.05-13.5,2.11-20.46,3.16-4.85,0-9.7.21-14.76.43ZM633,257.51a11.19,11.19,0,0,0-1.47-1.9v-2.74c.63-.43,1.47-.85,2.32-1.48H636c.64.42,1.27,1.05,2.11,1.69v3.58a40.8,40.8,0,0,0-5.06.85ZM588.74,256a14.55,14.55,0,0,0-.42-2.74c1.06-1.06,1.06-1.06,3.59-1.9,1.05.42,2.11,1.05,3.37,1.69a4.1,4.1,0,0,0,.21,1.47c-1,.85-1,.85-6.75,1.48Z"/></svg>