<?xml version="1.0" encoding="utf-8"?>
<!-- Generator: Adobe Illustrator 22.0.0, SVG Export Plug-In . SVG Version: 6.00 Build 0)  -->
<svg version="1.1" id="Layer_1" xmlns="http://www.w3.org/2000/svg" xmlns:xlink="http://www.w3.org/1999/xlink" x="0px" y="0px"
	 viewBox="0 0 519.7 549.3" style="enable-background:new 0 0 519.7 549.3;" xml:space="preserve">
<title>szakest</title>
<g id="Layer_2_1_">
	<g id="Réteg_1">
		<path d="M140.3,84.9l-2.9,2l-2.3,1.2l-3.5,0.9l-4.1,0.3l-3.5-0.9l-3.2-0.9l-1.4,1.4l1.4,2.3l2.9,0.9l3.2,0.3l4.6,0.3l3.8-0.3
			l3.2-1.4l2.9-2.6l2-2.3l0.9-2.3l0.3-3.2l-2.6,2L140.3,84.9z"/>
		<polygon points="119.4,78.2 122.9,77.6 127,75.6 132.2,75.6 136,75.9 140.3,76.2 145.3,76.2 148.2,75.3 151.7,74.7 151.4,71.8 
			148.8,69.2 145,65.4 141.5,61.9 139.4,58.7 136.3,56.4 131.9,54.3 129,53.5 125.5,52.9 122.3,53.8 119.7,53.5 117.4,54.6 
			117.4,57.3 121.4,60.7 124.3,63.7 128.4,66.6 129.3,69.5 125.8,72.4 121.7,73.5 117.4,75 114.2,77.6 115,80.8 		"/>
		<path d="M144.7,80.5L144.7,80.5v-0.3c0,0,0,0,0,0.1C144.7,80.3,144.7,80.4,144.7,80.5z"/>
		<path d="M437.2,158.7l57.4,8.7l1.2-11.6L412.7,17.4l-8.1-12.2L399.9,0l-7,2.3L390,9.9l27.9,98.2l-44.8-6.4l-22.7-3.5l-14.5-4.1
			l-18-2.9l-11.6-0.6l-3.5,5.2l4.6,5.8l7,8.7l8.1,4.7l5.8,7l-5.2,4.1l-8.1,0.6l-9.3-1.8l-9.9-5.2l-9.3-14.5l-8.7-10.5l-12.2-7
			l-10.5-6.4l-13.9-4.7l-16.3-3.5l-14-18l-7.6-3.5l-7-12.2l-13.4-7l-10.5-5.2L161,29.1l-12.8,1.2l-6.4-3.5h-12.2l-13.4-3.5
			l-10.5,2.9l-12.2,3.5l-13.4,4.1L72,41.3l-7,5.8L57.5,57L54,68l-2.3,9.3l0.6,26.2l-1.8,4.1L48.2,118l1.2,21.5l-0.6,9.3l-1.2,14
			v11.6l-10.5-5.2l-7-5.2l-5.8-6.4l-4.6,1.2l-1.7,5.8l5.2,7l5.8,9.3l4.6,8.1l8.7,8.7l12.2,9.9l11.6,4.6l9.3,4.6l18.6,2.3l4.7,4.1
			l-0.6,6.4l-4.7,7l-1.5,4.1c-0.5,1.4-1.8,2.5-3.3,2.8l-2.2,0.4c-0.8,0.2-1.6,0.1-2.3-0.2l-8.7-3.1l-8.1-1.2L55.8,239h-8
			c-1.3,0-2.5,0.2-3.7,0.7l-5.8,2.2l-8.4,3c-1,0.3-1.9,0.8-2.8,1.3l-4.8,2.9c-1,0.6-1.9,1.3-2.7,2.1l-6.6,6.6l-0.7,0.8l-6.3,7.3
			c-0.6,0.7-1.2,1.4-1.6,2.2l-3.2,5.5c-1.6,2.7-1.7,6-0.3,8.7L9.6,300c0.2,0.4,0.4,0.7,0.6,1l19.3,23.6c0.8,1,1.4,2.2,1.6,3.5l0.7,4
			c0.1,0.3,0.1,0.6,0.1,0.9l0.5,8c0,0.6,0,1.1-0.1,1.7l-2,12.2c-0.2,1-0.1,1.9,0.1,2.9l5,22.6c0.7,3.1,3.1,5.4,6.2,5.9h0.1
			c1.2,0.2,2.3,0.7,3.2,1.3l7,5.1c1.3,0.9,2.8,1.5,4.5,1.6l3.1,0.3c0.9,0.1,1.8,0.3,2.7,0.6l4.1,1.7c1.1,0.4,2.2,0.7,3.4,0.7h3.2
			c2.7,0,5.3,1.3,7,3.4l6.9,8.8c0.6,0.8,1.3,1.4,2.1,2l6.8,4.8c1.2,0.8,2.6,1.4,4,1.7l14.1,2.5l16.9,2.9l4.6,4.1l-0.6,11v23.8
			l4.1,14v16.9L127.2,519l-9.3,21.5l5.8,8.7h13.4l36.6-37.2l22.2-20c1.4-0.8,2.6-1.8,3.7-2.9l11.5-10.4c2.8-2.1,5.8-3.9,9-5.4
			c4.1-1.6,9.2-1.7,12.6,1.1c0.4,0.3,0.7,0.7,1,1l-4.3,5.4l-4.1,10.8l-3.4,8.8l-0.9,9l0.9,4.4l6.7,5.8l6.7,8.7l11.3,8.1l6.1,6.4
			l4.9,1.2l4.6-2l0.6-5.8l2-5.5l0.6-7.3l-1.2-7.3l-2.6-6.7l-1.5-5.8l1.2-5.8l4.4-6.4l6.7-5.8l7.9-7l1-0.3c0.9-0.2,1.8-0.5,2.7-0.8
			l2.7-0.9l0.6-0.4l1.1-1.3c0.7-0.5,1.4-1.1,2-1.7c4.1-3.7,7.6-8.3,12.8-10.3c2.1-0.7,4.3-1.2,6.5-1.7h0.5l4.1-0.3l0.7,0.3l1.1-0.6
			l7.3-7l11.6-8.4l10.8-12.5l7.9-14.2l7.5-22.7l4.9-20.4l2.9-14.8l1.5-22.4l-2.3-20.9l-3.5-16l-8.1-21.8l-1.5-5.2l1.9-4.1l29-32.6
			l7-20.9l25.1-4.6c4.1-0.5,8.1-1.5,12-2.8l85,74.7l4.6-8.1L437.2,158.7z M256.9,106.4L256.9,106.4l1.2-3.5l1.2-2l1.8-1.8l2-1.1h1.5
			l2-0.3l4.6,1.2l2.3,1.2l2.9,1.7l2.9,2.3l2,2.3l1.5,2.3l0.3,3.2l-0.6,3.5L281,118l-2,2l-3.5,0.9H272l-2.9-1.2l-2.6-1.7l-2.6-2
			l-3.2-2l-2.7-2.4l-1.2-2.3L256.9,106.4z M256.9,158.1l1.5,3.5l1.5,2.9l2.6,2.6l1.7,3.8l0.3,6.4l-2,4.9l-4.1,2l-6.7,0.3l-7,0.3
			l-4.1,1.4l-7.3,1.2l-4.3,1.5l-6.1,0.9l-5.2,2.9l-7.8,0.6l-8.1,2.6l-4.1,3.2l-5.2,1.8l-6.7,2l-6.4,3.5l-5.2,3.2h-6.4l-3.8-1.2
			l-3.8-1.7l-4.6-5.2l-0.3,1.4l2.3,3.2l1.8,3.5l2,6.4l5.8,13.4l1.2,7l0.9,7l1.4,7l3.2,7.3l4.9,9l6.4,7.8l4.4,4.6l5.2,3.8l3.2,3.2
			l3.5,3.2l4.4,3.5l5.2,3.5l6.4,2.9l8.4,3.5l8.7,1.4l7.3,0.9l5.2-0.3l4.1-2.6l4.4-1.7l0.9-2.6l-2.9-0.6l-4.4-0.6h-10.2l-5.2,0.3
			l-4.4-0.3l-4.6-0.6l-4.1-1.7l-5.6-1.4l-4.6-3.2l-5.2-4.6l-4.9-4.1l-1.8-10.5l-4.4-4.6l-5.5-3.5l-3.2-4.4l-5.2-3.8l-4.1-4.4l-2.3-7
			l-1.8-4.6l-0.9-4.9l3.5-0.9l3.8,0.3l1.4,2.9l1.8,4.1l3.8,2.3l3.8,2.9l2.9,4.6l6.1,3.8l8.1,4.7l7.3,2l8.4,0.9l8.1,0.6l4.9-1.7
			l-4.1-0.9l-6.1-2l-5.2-1.4l-5.5-1.2l-3.8-2.3l-4.7-1.7l-2-3.2l-0.6-4.4l2.3-4.1l3.2-2.9l3.5-1.4l2.3-0.9l4.6-0.6l2.3-1.2l2-3.8
			l2.3-3.2l4.4-0.6l3.2,0.6l2.7,2.9l3.5,2.3l4.4,4.1l2.6,2.9l2.3,4.4l1.7,4.9l-1.7,4.6l-2.6,5.5l2.9-1.4l4.4-3.2l0.3-5.8l-1.2-6.4
			l-2-4.9l-4.1-5.8l-3.8-5.5l-3.2-5.5l-4.6-3.8l-1.8-3.8l0.9-4.1l3.2-2h5.2c1.2,0,3.8,1.5,3.8,1.5l2.6,2.9l3.2,2.3l4.1,2.6l4.1,4.1
			l3.2,3.8l4.4,0.6l0.6-3.8l0.3-5.8v-5.8l0.6-2.2l0.8-2.7l0.8-2.3l1.2-1.7l0.6-1.6l-1.2-2.3l-1.5-2.7l-0.2-3.7l0.6-2.7V181l-1.4-2.7
			v-6.2l0.4-5l0.4-3.7l1.9-1.2l1.9-0.2l1.5,0.2l1.5,1.4l0.8,1.9l1.8,0.6l1.7-0.8l1.7-0.6l2.3,0.6l1.9,1.7l1.2,1.6l1,2.1l0.4,3.3
			l1.4,1.4l1-1.2l1.4-1.9l2.3-0.6l2.1-0.2l1.5,1.2l1.8,2.1l-0.4,2.9l-0.8,3.3l-0.5,3.3v10.5l-0.3,6.4v8.1l-0.6,5.2l-2.6,4.6L291,223
			l-4.5,6l-3.2,4.1v4.1l1.5,3.5l1.5,2.9l0.3,4.4l0.6,5.2l0.3,6.4l-0.9,8.4l-0.5,5.8l-2.6,4.4l-2.9,4.1l-1.2,4.6l1.7,4.1l0.6,3.5
			l-1.2,5.2l-3.8,3.2l-4.1,4.1l-4.6,3.2l-4.6,3.8l-4.6,2.6l-7.6,2l-5.2,1.7l-7,0.3l-6.4,0.6l-7.3-2.3l-9.6-2.9l-8.4-4.6l-6.1-2.9
			l-6.4-3.8l-4.4-3.5l-5.8-4.6l-4.6-4.4l-5.2-5.2l-3.5-4.9l-2.6-5l-4.1-4.9l-3.2-5.8l-2.3-4.6l-2.3-4.1l-2.6-4.6l-2.3-4.9l-2.3-4.4
			l-1.8-5.2l-2-4.4l-2-6.1l-2.9-3.2l-2.9-3.5l-2-3.8l-2.3-3.2l-2-4.4l1.4-3.5l2.3-2.9l1.7-3.2l2-2.6l1.2-3.5l2.6-2.3l3.5,0.6
			l2.6,1.2l2.3,2.3l2-1.7v-2.6l1.2-4.4l1.4-3.2l2-2.9l4.4-3.2l4.1-2.3l4.6-3.5l4.9-2.6l4.6-4.6l5.8-2.6l6.4-6.1l5.8-3.2l1.7-3.2
			l0.6-3.5l0.6-7l0.9-3.8l2.9-2.3l4.1-0.6h2l2.9,2l5.2,4.1l4.4,3.5l4.4,5.2l5.2,3.8l6.1,4.1l4.1,0.3h6.4l4.1,0.9L256.9,158.1z
			 M215.3,381.9l0.3,5.8v4.9l0.3,2.9l-0.6,2.6l-2.9,0.9l-2-1.7l-0.3-4.1l-0.6-6.1l-0.3-4.9l-0.9-3.8l-1.4-2l-1.5-2.3l-2.3,1.7
			l0.6,3.8l0.3,3.2l-0.6,3.8l-2.6,1.8l-1.8,2.3l-0.9,2.9l-0.3,3.8l-1.2,3.2l-3.2,3.2l-4.1,2.3l-4.6,2.3l-6.4,2.6l-4.9,1.2l-5.8-0.3
			l-5.5,0.6l-4.9,0.3l-4.9-0.3l-3.2-0.3l-3.5-2.3l-2.9-2.3l-2.6-3.8v-4.1l-0.6-4.9l0.6-4.9l2.9-4.6l3.2-7l5.2-4.9l4.1-5.2l3.2-4.4
			l3.8-3.8l0.9-3.2l2.9-2.3l3.2-2.3l4.4,0.3l2,2l1.4,2.3l-0.3,3.5l-0.6,3.5l-0.9,2.3l-0.6,3.2l2.6,1.5l2.3,2.3l0.6,3.2l-0.6,2
			l2.3-1.2l2.9,0.6l1.7,1.8l0.9,2.6l-0.6,2.9l-0.3,2.9l-1.7,2.6l-1.8,2l2.6-0.3l3.5-0.6l2.6-2.6l3.5-2l-0.3-2.9l-2.6-2.9l-1.5-3.5
			l-1.1-3.7l-0.6-3.8l2.3-1.8l2.9-1.7l3.2-1.7l1.7-2l-1.2-2.6l-3.5-0.9l-2.9-1.7l-2-1.5l-1.8-1.8l-1.7-2.6l-1.8-3.2l-1.4-4.1
			l-3.2-10.5l-0.9-2.6l-1.4-2.6l-1.4-2.9l-1.5-3.5l-0.6-3.8l0.6-3.8l2-2l2-2.6l2-0.9l3.2,0.3l3.5,0.9l2,2.3l1.7,1.2l4.1,0.9l2.9,1.2
			l2.6,3.2l2.6,4.4l1.4,5l2,4.1l0.9,4.6l2,5.2l1.5,4.9l0.9,4.4l1.2,5.2l1.2,4.4l0.3,4.6v10.2L215.3,381.9z M93.2,179.1l-1.8,1.2
			l-3.2,0.9l-3.8,0.6l-3.2,0.3l-3.5,1.5l-3.5,0.3l-4.1-0.9l-3.8-0.8l-2.9-2.3l-2-2.3l-1.2-2.3l-1.7-2.9l-1.7-2l-0.3-2.9l1.5-2.3
			l2.3-1.4l1.5-0.3h2l2.3-0.3l2.9,0.3l2.6,0.9l2.9,1.2l4.4,1.7l4.7,1.4l2.9,0.9l4.4,1.7l2,1.7l1.2,2l0.3,2.3L93.2,179.1z
			 M97.6,173.2l-2.3-2l-0.9-3.2l-3.5-2.3l-4.7-2.9l-3.8-2.3l-4.1-1.8l-6.1-1.4l-4.1-1.8l-4.4-1.7l-2-2.3l1.5-2.9L68,148l4.4-1.2
			l4.9,0.9l5.2-0.9l4.1,0.3l4.1,1.8l3.5,0.6l1.4-4.1l3.5-1.7l0.6-4.1l-1.2-2.6l-3.8-4.4l-3.2-6.4l-1.7-5l-0.9-6.4l0.3-9v-4.9
			l-2.6-2.6l-3.2,1.2l-2.6,3.8l-2.3,5.2l-1.2,4.1l1.2,2l1.2,7.6l-1.8,2.3l-2.6-0.6l-3.8-4.4l-3.4-6.3l-3.2-5.2l-0.9-6.1l-1.5-6.1
			l0.5-5.8v-7.3l0.3-5.2v-7l1.7-4.6l3.2-5.2l2.9-4.7l2.3-4.4l4.9-4.7l4.7-2.3l6.1-1.8l0.9,2.9l-2,6.7l-0.3,3.5l1.8,2.9l3.2,1.5
			l3.5-0.9l3.2-2.9l2.3-4.1l1.7-4.7l3.2-2.9l3.8-0.9l4.4-0.6l4.7,0.3l5.5,0.6l4.1-0.6l3.8-2.9L136,39l3.2-3.5l2,1.2l3.5,2l3.8,2.3
			l3.2,2.3l4.3,2.3l2.9-0.9l3.8-0.6H174l5.5,1.5l3.2,2.3l2.6,1.5l4.7,1.7l5.8,2l3.5,1.5l0.9,2.6l-2.9,1.5l-3.2-0.6l-2.9-2.3l-4.1-2
			l-2.6-1.8l-4.1-1.5h-7.3l-3.8,0.3l-2.9,0.9l-1.2,2.6l0.6,3.2h4.4l2.9,0.6l3.2,2.6l3.5,1.2l1.8,2l-2,2.9l-4.4,2l-4.1,0.9l-3.8,1.2
			l0.6,2l3.5,2.9l5.5,1.8h7.3l5.2,0.9l9.5,2.3h8.1l12.2-0.6h4.7l6.7,1.8l10.2,2.3l7,3.8l3.5,5.2l0.6,3.5l0.9,6.1l-2,2.6l-1.8,5.2
			l0.3,2.9l1.8,4.9l-2,2.9l-7-1.4l-7.3-0.3l-9.3,3.5l-14.2,0.3l-9.6,0.3l-9.9-0.9l-7.6-1.7l-6.1-2.3l-6.4-1.7l-7.3-2l-6.1,0.6
			l-6.1,0.3l-6.1,0.9l-7.3,3.5c-1.5,0-2.9,0.1-4.4,0.3c-1.2,0.3-2.3-2.3-2.3-2.3l-1.4-3.5l0.6-5.5l0.2-2.7c0-0.5-0.3-0.9-0.7-1
			l-2.1-0.5c-0.3-0.1-0.7,0-0.9,0.2l-2.5,2.5l-2.6,3.5l-2,4.4l-0.9,5.5l0.9,9v8.1l-0.3,6.7l-2.3,4.6l-2.6,5.8l-2.6,4.1l-5.5,8.1
			l-4.4,3.8L97.6,173.2z M50.2,282.9l-7.2,2c-0.6,0.2-1.2,0.3-1.9,0.3l-7.6,0.5h-0.8l-8.5-0.2c-1.2,0-2.4-0.3-3.6-0.8l-1.5-0.7
			c-1.7-0.8-3.1-2-4.1-3.6v-0.1c-1.4-2.3-1.8-5.1-1-7.7l0.4-1.2l0.2-0.5l1.8-3.8c0.1-0.2,0.2-0.5,0.4-0.7l0.9-1.6
			c0.8-1.6,2-3,3.3-4.2l2-1.7l0.7-0.6l4.6-3.5l4.2-2.9l0.8-0.5l3.5-2.1c1.3-0.8,2.7-1.3,4.2-1.7l2.4-0.6c1-0.2,1.9-0.6,2.8-1l0,0
			c1.9-0.9,4.1-1.4,6.2-1.4h2.2l1.8,0.1l8,1c0.2,0,0.5,0,0.7,0l6.3-0.3c0.4,0,0.8,0,1.1,0.1l6.7,1.5c0.4,0.1,0.7,0.2,1.1,0.4
			l5.4,2.9l0.3,0.2l3.1,2c0.9,0.5,1.6,1.4,1.9,2.4l0.5,1.5c0.3,1,0.2,2-0.2,3l-1.9,4.5l-0.2,0.4l-2.5,4.6c-0.2,0.3-0.4,0.6-0.7,0.9
			l-4.2,4.4c-0.4,0.5-0.9,0.8-1.5,1l-6.6,2.7c-0.2,0.1-0.5,0.2-0.8,0.2l-9.2,2l-13,2.5L50.2,282.9z M97.8,347.6l-0.3,0.1l-2.1,1.5
			l-0.3,0.1l-3,1.1l-2.6,0.6H86l-2.9,0.6l-1.9,0.9c-0.5,0.2-1,0.3-1.5,0.3h-3.2h-0.4l-2.7-0.3l-2.1-0.2c-0.5-0.1-1-0.2-1.4-0.5
			l-0.1-0.1c-0.8-0.5-1.4-1.2-1.7-2.1l0,0c-0.3-1-0.2-2,0.3-2.8l0.3-0.5c0.1-0.1,0.1-0.2,0.2-0.3l0.1-0.2c0.7-1,0.6-2.4-0.3-3.2l0,0
			c-0.3-0.3-0.8-0.6-1.2-0.7l-3.1-0.7l-0.5-0.1h-4.2c-1.1,0-2.2-0.3-3.2-0.9l-0.8-0.5c-0.6-0.4-1.2-0.9-1.6-1.5l-1.3-1.9
			c-0.2-0.3-0.4-0.6-0.5-0.9l-0.7-2.1l2.3-1.8l2-0.6l2.6-0.6l2.9-0.3l2.3,0.9l2.9,1.8l2,1.7l3,1.4l2.3,1.2h3.5l3.3,1.3
			c0.3,0.1,0.7,0.2,1,0.2h3.1l3.3,0.2c0.2,0,0.5,0,0.8,0l3.4-0.7c0.4-0.1,0.7-0.1,1.1,0l2.7,0.6c0.5,0.1,1.1,0.1,1.6-0.1l1.6-0.6
			c0.4-0.2,0.8-0.2,1.2-0.2l2.9,0.2c0.3,0,0.7,0.1,1,0.3l1,0.5c0.9,0.4,1.4,1.2,1.5,2.2l0.1,0.8c0.1,0.9-0.3,1.8-1.1,2.4l-0.8,0.6
			c-0.2,0.2-0.5,0.3-0.8,0.5l-2.7,1.1l-0.7,0.3L97.8,347.6z M136.4,321.4l-2.1,3.5l-0.1,0.1l0,0c-1.3,1.3-1.3,3.4,0,4.7
			c0.1,0.1,0.3,0.3,0.5,0.4l0.3,0.2c0.1,0.1,0.2,0.2,0.2,0.4l0.8,3.2v0.2l-0.3,5.9v0.2l-1.4,3.7l-1.7,3.2l-2.3,2.9l-2.2,2
			c-0.3,0.2-0.6,0.4-0.9,0.6l-3,1.5l-3.2,1.8l-3,1.7l-0.3,0.1l-4.9,2.2l-0.4,0.2l-3.9,1.2c-0.4,0.1-0.8,0.2-1.1,0.2l-2,0.1
			c-1,0.1-2-0.1-2.9-0.5l0,0c-0.9-0.4-1.5-1.2-1.6-2.2l-0.1-0.9c0-0.3,0.1-0.6,0.3-0.8l0,0c0.7-0.7,1.6-1.2,2.6-1.4l1.1-0.2
			c0.4-0.1,0.8-0.2,1.1-0.4l1.2-0.5c0.6-0.2,1.1-0.6,1.5-1l3.6-3.5l0.3-0.3l11.8-14.7c0.9-1.2,0.7-2.9-0.4-3.8
			c-0.2-0.2-0.4-0.3-0.7-0.4l0,0c-0.6-0.2-1.2-0.3-1.8-0.1l-3.5,1.1l-0.4,0.2l-2.3,1c-0.4,0.2-0.7,0.3-1.1,0.3l-7.7,0.3h-0.3
			l-9.2-0.8l-0.5-0.1l-4-1.1c-0.7-0.2-1.3-0.6-1.6-1.2l-0.3-0.6c-0.5-0.9-0.5-1.9,0-2.8l0.8-1.3c0.1-0.1,0.1-0.2,0.2-0.3l0,0
			c0.8-0.8,0.8-2,0-2.8c-0.3-0.3-0.7-0.5-1.1-0.6l-3.1-0.5l-5.5-1.7l-3.3-2c-1.1-0.6-2-1.4-2.8-2.4l-2.1-2.7l-0.4-0.5l-2.9-4.1
			c-0.3-0.4-0.6-0.9-0.8-1.3l-1.3-2.5c-0.3-0.6-0.5-1.1-0.7-1.7L67,301c-0.3-1.1-0.4-2.2-0.4-3.3l0.1-1.4c0.1-1.6,0.5-3.2,1.3-4.6
			l0.2-0.4c0.4-0.6,0.9-1.1,1.5-1.5l0,0c0.9-0.6,2-0.8,3-0.6l1.4,0.2c0.5,0.1,1,0.2,1.4,0.5l3.7,2l4.1,3.6c0.4,0.3,0.7,0.7,1.1,1.1
			l1.5,1.8c0.8,0.9,1.7,1.7,2.8,2.3l2.6,1.5c0.3,0.1,0.5,0.4,0.7,0.6l3.4,5l0.1,0.2l2.2,4.2l0.1,0.2l2,4.8v0.1l0.4,1.1
			c0.3,1.1,1.5,1.6,2.5,1.3c0.1,0,0.2-0.1,0.4-0.2l3.1-1.6c0.2-0.1,0.3-0.2,0.5-0.4l4.6-4.6l0.2-0.2l3.8-2.8
			c0.3-0.2,0.5-0.4,0.6-0.7l1.9-3.7c0.2-0.3,0.4-0.6,0.7-0.8l2-1.3c1.2-0.8,2.8-1,4.2-0.6l0,0c1,0.3,1.8,0.9,2.5,1.7l1.8,2.3
			l0.3,0.5l2.4,3.9l0.2,0.4l2.5,3.4c0.4,0.5,0.6,1.1,0.8,1.7l1.1,4.4C136.5,321.1,136.5,321.2,136.4,321.4L136.4,321.4z
			 M135.4,254.9l-2-4.1l-3.2-3.8l-3.2-5.5l-2.9-4.1l-2.3-4.1l-2.3-4.1l-2-4.1v-4.1l0.6-4.4l2.9-2l2.3-1.8h3.7l2.6,1.8l2.9,4.1l2,3.8
			l2,5.8l2.3,4.9l4.4,6.1l2.9,5.5l2.6,6.1l1.7,4.6l2,4.1l2.3,3.8l1.4,4.4l-0.9,2.9l-2.6,0.9l-3.8-2l-4.6-4.9l-5.5-5.2L135.4,254.9z
			 M179.9,493l-4.4,5.8l-5.5,5.5l-5,5.2l-5.2,3.8l-5.8,5l-5.8,4.3l-3.8,2.9l-4.6,5.2l-3.5,3.5l-3.2,1.7c0.7-1.2,1.4-2.4,2.3-3.5
			c1.5-1.8,2.6-4.4,3.8-5.5s3.5-3.2,3.5-3.2l3.5-2.9l0.9-3.2l1.7-4.4l2.3-4.9l2.9-5.2l2.6-5.2c0,0,2.3-5.5,3.5-7.9s2-5.2,3.5-6.1
			c1.4-0.7,2.8-1.2,4.4-1.5l3.2,0.3c0,0,2.9-0.3,4.1-0.3c0.8,0.1,1.6,0.4,2.3,0.9l2,0.4c0.7,0.8,1.4,1.5,2.1,2.2
			c0.3,0.3,0.5,0.6,0.8,0.9l-0.5,2.6L179.9,493z M206.5,472.9c-0.4,0.2-0.7,0.5-1.1,0.7l-0.8,0.3l-0.5,0.6c-2.9,2-5.6,4.5-6.8,7.6
			l-6.1,3.2l-4.4-0.3l-2.1-0.2c-0.9-1.2-1.9-2.4-3-3.4c-0.6-0.5-1.4-0.9-2.2-1l-1.2-0.6l-4.9-2.3l-2.6-3.2l-1.7-3.8v-3.2l2-2.9
			l3.8-1.7l4.4-1.7l4.4-2l6.7-3.2l11.6-5.2l4.4-1.5l3.8,0.3l3.2,1.8l2.3,1.7l2.3,3.2l0.9,3.2l0.1,0.9c-0.4,0.8-0.8,1.5-1,2.4
			C216,467.2,211,470.1,206.5,472.9L206.5,472.9z M339.7,391.6l-2.6,5.8l-3.5,5.8l-3.5,2.3l-4.4,2.9l-3.8,2.9l-2.6,2.6l-1.2,3.8
			l1.2,2.3l3.8-0.3l2.9-0.6l-2.3,3.8l-4.9,5.2l-1.2,3.5l-3.2,4.4l-4.1,2l-4.4,3.5l-3.5,1.8l-3.8,3.8l-1.5,2.9l2,2l-0.3,3.2l-0.4,0.9
			c-1.6,0.9-3.1,1.8-4.5,2.9c-2.3,1.7-4.4,3.5-6.5,5.5l-1.9,1.4l-3.5,2.9l-3.7,1.2l-3.8,2.3l-4.9-0.6l-3.8-1.5l-2.9-3.8l-0.9-4.6
			l0.9-2.9l2.6-0.3l3.2-0.9l2.6-0.9l2.9-2v-2.6l-3.2-1.7l-7.5,0.3l-12.5-0.6l-7.3,1.2l-16.3-0.6l-4.9-2l-3.8-2.3l-2.9-3.2l0.3-2.6
			c0,0,4.1-2.8,5.8-2.8c1.5-0.1,2.9-0.3,4.4-0.6l5.2-0.6l3.8,0.3l4.9-0.9l-8.4-2.6l-5.8-0.3l-4.9-1.5l-3.8-2.3l-0.3-3.8l2-5.5
			l0.9-4.6l1.4-6.7l0.3-7.5l1.2-7.9l-1.2-5.8l0.6-5.2l2-2l3.2,1.5l4.6,3.2l4.4,5.8l2.6,3.5l3.5,4.1l4.1,3.2l3.5,2.9
			c1.1-0.2,2.1-0.2,3.2-0.3c1.2,0,1.2-2.6,1.2-2.6l-4.1-3.2l-3.2-3.5l-2.9-3.8l-3.5-3.2l-2.9-2.6l-3.2-3.8c0,0-2-4.9-4.1-5.8
			c-1.2-0.5-2.4-1.2-3.5-2l-2-4.4l-1.7-5.2l-1.7-5.2l-1.7-5.8l-2.6-6.7l-2.4-7.3c0,0-1.8-5.2-1.8-6.4s-1.7-4.1-1.4-5.5
			c0.2-1.3,1.1-2.4,2.3-2.9c0.9-0.5,1.9-0.7,2.9-0.6c1.2,0,2.6,1.5,2.6,1.5l2.9,2c0,0,2.9,4.1,4.1,5.5s2.6,4.6,3.8,5.5
			c1.8,1.7,3.3,3.5,4.6,5.5c1.5,2,2.3,2,4.9,2c2.3,0.1,4.7,0.1,7,0c2.6-0.3,2.3-1.2,4.1-2s2.3-2,4.4-4.4s2-2.9,3.8-4.4
			c0.9-0.9,1.9-1.5,3.1-1.8c1.2-0.4,2.6-0.4,3.8,0c2.4,0.9,1.8,1.2,3,2.6c0.7,0.7,1.1,1.6,1.2,2.6c0.4,1.5,0.7,3.1,0.9,4.6
			c0.3,2.2,0.3,4.5,0,6.7c-0.1,1.7-0.1,3.5,0,5.2c0,2-0.3,5.8-0.3,8.7s-0.6,3.2-0.9,5.8s-0.9,3.2-1.2,5.2s-1.5,3.8-1.8,6.1
			s0.3,2.3,0.9,4.1s2.9,1.2,4.4,1.2h4.9c2,0,2.6,0.6,4.1,0.9s2.3,1.5,3.5,2.6c1.2,1.1,2.7,1.8,4.4,2c1.8,0.3,0.3-0.3,3.5-2.3
			s0.6-1.2,0.9-3.2s-0.6-1.5-1.2-3.8s-0.3-2.9-0.3-4.9s-0.3-2.3,0-3.8s-0.3-3.2,0-5.2c0.2-1.4,0.3-2.9,0.3-4.4
			c0-1.7-0.6-2.3-0.6-4.1s-1.2-2-1.7-3.2s-2.3-2.6-3.8-4.6s0.9-0.9,3.2-1.2s0.9-0.3,2.3,0.6c1.3,0.9,2.5,2,3.5,3.2
			c1,0.8,1.6,2,1.8,3.2c0.3,1.2,1.5,3.8,1.5,5.8s0.9,2.9,2,4.9s1.7,1.5,3.2,2s2.9-0.3,5.2-2.3s2.3-1.7,3.8-3.2s1.5-2,1.8-4.4
			c0.4-2,0.2-4-0.6-5.8c-0.7-1.8-1.7-3.5-2.9-4.9c-1.6-1.5-3.4-2.9-5.2-4.1c-1.7-1.2-1.7-2.3-3.8-4.1s-2.6-4.1-3.5-5.2
			s-1.7-4.1-2.6-5.8c-0.8-1.8-1.3-3.8-1.5-5.8c-0.3-2,0.9-1.5,2-2.3s3.2-0.3,4.9-0.6s4.6-0.6,4.6-0.6s1.5-2.9,1.5-4.1
			c-0.1-1.9-0.4-3.7-0.9-5.5c-0.6-2-1.7-4.9-1.7-4.9c-1.1-1.5-2.3-3-3.5-4.4c-1.2-1.2-2.9-2-5.8-2.9s-3.2-2.3-3.2-2.3L290,295
			l-0.9-5.2l0.6-5.2l1.5-3.5l1.7-4.1l2-2l2.3-0.6l3.8,2.9l2.6,3.5l3.2,4.1l5.2,6.4l4.6,7.9l3.2,5.2l6.4,12.2l3.8,6.7l3.5,10.5
			l0.6,17.7v11.9l-1.1,6.4l-2,2.6l-2.3,7.6l-3.5,6.7l-6.4,7.9l-4.1,3.5l-2.9,2.3l-2.9,3.5l2.3,2.6l3.8-0.6l3.8-2.3l3.5-2.6l3.2-3.5
			l3.2-4.1l2.9-4.4l3.2-5.5l2.6-2.3l1.7,0.3l1.5,1.7l0.3,4.1L339.7,391.6z M355.7,297.4l-0.3,6.4l0.3,16l0.3,24.1l-0.3,4.9l-2.6,1.7
			l-2.3-0.9l-2.6-2.9l-1.8-4.1l-2.6-5.8l-2.6-6.7l-2-5.5l-3.2-7.9l-3.2-7.9l-3.8-5.3l-3.2-5.8l-2.9-4.9l-3.8-4.4l-3.8-3.8l-2.9-3.5
			l-1.8-2.9v-3.2l0,0l2.3-1.2l32.3,0.3l1.7,1.2l1.5,3.2l1.7,4.1l0.9,3.8l2,2.6v4.4L355.7,297.4z M364.7,237.5l-1.2,2.9l-1.7,2
			l-2.9,3.5l-2.9,5.2l-2.3,2.3l-3.2,1.4l-2.9-0.6l-2-2.9l-2.9-3.2l-2.3-3.8l-2-4.9l-2.3-4.9l-2.6-3.8v-5.2l0,0l0.9-4.4l1.2-5.2
			l1.7-4.6v-3.2l0.3-2.6l2.3-2.6l2.3-1.2l2.9,0.3l2.9-0.9l2.6,0.9l2.6,1.7l2,2.6l1.5,3.5l0.3,4.4l1.5,4.1l2.6,4.1l2.6,5.5l1.7,5.8
			L364.7,237.5z M410.3,208.2l-2.3,0.2h-5.8l-5.5,0.3l-4.9-0.9l-2.9-0.3l-2.3-0.6l-2.6,1.7l-0.9,2.6l1.2,2l0.6,2.6l0.3,3.8l-0.3,4.6
			l-1.5,3.2l-2.6,0.9l-2.6-1.2l-2-2.3l-0.9-3.2l-0.9-2.6l-1.8-2.9l-1.5-3.8l-2.9-3.5l-3.5-3.5l-3.2-3.5l-3.2-3.2l-1.5-2.9l-1.2-3.8
			l0.6-4.1l3.2-2.9l1.5-2.3l-0.9-2.9h-3.8l-3.8,2l-2,2.3l-2.6,2.3l-3.2,1.2l-2.3,1.7l-2.9,2.3l-3.5,1.7h-4.1l-3.8,1.2l-3.5,1.2
			l-2.9,1.4l-3.5-0.6l-3.2-2.3l-2-2.6l-4.1-1.2l-2.3-1.7l-2-2.6l-2-3.8l-0.9-3.5l1.2-3.5l2.9-1.2l1.7-0.6l3.5,0.3h3.8l3.5-0.9
			l3.8-0.9l4.4-1.7l5.2-1.2l4.1-1.5l3.2-1.7l2.3-3.2l2.3-3.8l3.2-3.5l2.3-4.1l2.6-3.8l2-2l3.2,0.6l3.5,0.9l2.6,2.9l1.8,2.6l0.6,3.5
			l0.3,4.1v4.9l1.7,2.3l0.9,3.5l0.3,4.4l0.6,7.3c-0.2,1.9-0.2,3.9,0,5.8c0.5,1.5,1.3,2.9,2.3,4.1c0.9,1.2,2.3,3.2,2.3,3.2
			s2.3,0.9,3.5,1.2s3.5-0.6,3.5-0.6l3.5-1.2l3.2-2.6l1.8-2.9l-0.6-3.8l-1.8-2.6l-2.3-2.6l-2.6-2.9l-3.2-4.4l-2.4-3.6l-0.3-3.2
			c0.6-0.9,1.4-1.6,2.3-2c1-0.3,2.1-0.1,2.9,0.6l2.3,2l3.5,3.5l2.4,2.9l30.7,27C417.2,203.6,413.9,206.1,410.3,208.2L410.3,208.2z
			 M475.5,240.4l-11.3-9l-12.8-11.9l-12.5-11.9l-12.5-10.5l-14-13.1l-8.1-5.8l-15.7-11l-10.2-8.7l-8.1-7.9l-4.1-3.8l-4.9-4.9
			l-4.4-6.7l-2.9-3.8l-1.7-5.2l-2.4-6.2l-2-6.4V109l2.6-1.2l4.4-0.6l3.8-0.3l6.1,2l5.2,0.9l11.9,2.6l13.4,2.6l10.7,3.2l20.9,3.5
			l2.9,0.9l1.7-1.8v-3.5l-1.7-5.8l-1.2-4.4l-1.7-4.9l-0.9-5.8l-1.7-8.1l-1.7-6.1l-2.3-7.8l-2.9-6.4l-2-6.4l-1.7-6.4l-1.8-6.1
			l-1.5-7.3l-1.7-3.8l-1.2-4.4l-0.9-4.1l-0.9-4.4l4.4,5.5l7.9,15.4l9.3,16l7.6,11.3l11,17.4l37.8,61l1.7,3.5l0.3,4.1l-4.4-0.9
			l-9.9-1.7l-13.7-3.5l-24.1-4.9l-5.5-2.3L424,145l-4.4,1.4l-1.5,1.8l1.2,5.5l5.2,7.9l16,23.2l11.6,16.9l22.7,28.8l10.5,12.2
			l1.5,4.4L475.5,240.4z"/>
	</g>
</g>
</svg>
