<svg id="Réteg_3" data-name="Réteg 3" xmlns="http://www.w3.org/2000/svg" viewBox="0 0 1018 1019"><title>vodor</title><path d="M606.31,812.74c-.07,4.44,0,8.89,0,13.35,4.72,0,9.45.06,14.18-.17,1.86-.14,4-.32,5.37-1.72,3.36-3.1,2.31-10-2.46-11-5.64-.83-11.38-.27-17.06-.44m-10.66-8.91c8.27,0,16.53-.06,24.79,0,4.15.22,8.62.31,12.24,2.61,7.57,5,8.15,17.68,1,23.31-2.39,2-5.44,2.71-8.37,3.35,2.16,2.2,5,3.73,6.7,6.37,3.88,5.47,7.4,11.21,10.85,17-4.23,0-8.47,0-12.69-.05-4.27-6.31-8.25-12.84-13-18.83-2.54-3.41-7.1-3-10.86-3.17-.2,7.37.1,14.75-.16,22.11-3.52-.09-7-.07-10.54-.08,0-17.53,0-35.08,0-52.63m-99.72,8.93c0,11.6,0,23.21,0,34.83,5.38-.17,11,.67,16.16-1.07,5.05-2.1,6-8.29,6.25-13.11.14-6.14.55-13.52-4.41-18-5.13-3.81-12-2.23-18-2.6M485.25,804c5.81-.29,11.63-.05,17.46-.14,5.47,0,11.36-.11,16.2,2.87,6.12,3.74,9.42,10.84,10.12,17.81,1,8.54.25,18-5.36,25-4,5.11-10.78,7-17,7-7.15-.06-14.32.22-21.46-.15.21-17.44.1-34.9.06-52.34m-111.51-.13c3.83,0,7.66,0,11.49,0,4.32,12.84,8.88,25.6,13,38.5,1.67-2.71,2.24-5.9,3.33-8.85,3.34-9.8,6.34-19.73,9.88-29.45,3.69-.57,7.47-.08,11.19-.21q-9.36,26.32-18.83,52.61c-3.76,0-7.53,0-11.29,0q-9.49-26.29-18.81-52.67m184.38,8.6c-5.76,1.19-9.74,6.59-10.46,12.24-.91,6.4-.73,13.78,3.66,19,4.91,5.88,14.92,6.27,20.26.77,3.92-3.83,4.79-9.62,4.75-14.85-.07-5-1-10.47-4.86-14-3.49-3.36-8.75-4.13-13.35-3.13m-3.82-8.67c8.69-1.91,18.77-.68,25.37,5.75,6.18,5.78,8.05,14.7,7.6,22.86-.27,6.93-2.66,14.09-7.94,18.82-6.52,6-16.24,7.23-24.67,5.38a22.66,22.66,0,0,1-15.91-13c-2.84-6.58-2.94-14-1.76-21,1.54-8.88,8.34-16.93,17.31-18.82m-107,8.8c-5.43,1.38-9.18,6.5-9.92,11.9-.94,6.34-.81,13.61,3.37,18.86,4.75,6.07,14.76,6.67,20.27,1.33,3.86-3.59,5-9.12,5-14.17s-.77-10.85-4.57-14.65c-3.62-3.67-9.31-4.51-14.15-3.27m-3-8.88c8.45-1.75,18.16-.58,24.67,5.52,6,5.31,8.15,13.61,8,21.36.07,7.62-2.29,15.71-8.22,20.84-6.66,6-16.48,7-24.92,5.05a22.7,22.7,0,0,1-15.85-14c-2.47-6.61-2.51-14-1.14-20.8,1.81-8.64,8.66-16.31,17.48-18M564.57,792.2c2.87,0,5.75-.06,8.62-.05,0,2.89.06,5.77,0,8.67-2.9,0-5.81,0-8.7-.07.05-2.85.06-5.71.05-8.55m-15.4-.05h8.61c0,2.87,0,5.74,0,8.61-2.9.07-5.8.06-8.69,0,0-2.89,0-5.76,0-8.65m-95,.26a32.68,32.68,0,0,1,8.89,0c-.15,2.76-.15,5.54-.07,8.31-2.94.08-5.86.08-8.78,0,.07-2.79.07-5.58,0-8.35m-15.44,0a37.09,37.09,0,0,1,8.81-.09c-.09,2.8-.09,5.62,0,8.44-2.92.05-5.84.05-8.75,0,.09-2.77.1-5.54,0-8.3M538.4,722c13,.13,26.09-.27,39.12.2-.12,2.89-.12,5.79-.09,8.68q-14.19.06-28.37,0c-.06,3.88,0,7.75-.08,11.62q13.14.19,26.28,0a88.26,88.26,0,0,1,.18,8.91c-8.8,0-17.59,0-26.39,0,0,4.77,0,9.53,0,14.31,9.8.07,19.61,0,29.42.05q0,4.39,0,8.83c-13.36,0-26.73.11-40.09-.06.13-17.52,0-35,.06-52.55m-53.06,0c3.48,0,7,0,10.46,0,.33,6.88.12,13.79.11,20.69,6.95.18,13.9,0,20.85.06,0-6.91,0-13.8,0-20.71,3.51,0,7,0,10.51,0,.26,17.53.05,35.08.11,52.63-3.56,0-7.13.11-10.69-.07.14-7.63,0-15.27,0-22.9-6.95,0-13.89-.08-20.84,0,.08,7.64,0,15.29,0,22.94-3.56.06-7.12.06-10.67,0,.08-17.54,0-35.07,0-52.61m-48.85.21c13.9-.49,27.84,0,41.76-.25a83.63,83.63,0,0,1,.16,9H462.87c0,14.59,0,29.16,0,43.74-3.58,0-7.16.11-10.73-.16.27-14.49,0-29,.17-43.46-5.22-.24-10.45-.05-15.67-.12,0-2.9,0-5.81-.12-8.71m61.4-82.66c3.4.12,6.79.07,10.19.13,7.16,11.63,14.07,23.43,21.54,34.86-.13-11.64,0-23.27,0-34.9,3.31,0,6.63-.11,9.94.14-.19,17.5,0,35-.09,52.5-3.64,0-7.28.11-10.9-.18-5.19-8.9-10.79-17.56-16.16-26.35-1.58-2.36-2.72-5-4.72-7.06-.25,11.17-.07,22.36-.1,33.54q-4.94.09-9.86,0c.11-17.57-.33-35.16.21-52.7m-21.18.26a69.79,69.79,0,0,1,10.82,0c-.22,17.49,0,35-.1,52.48h-10.6c-.12-17.49.11-35-.12-52.47"/><path d="M850.35,418.93c0-150.89-153.14-273.22-342-273.22s-342,122.33-342,273.22q0,7.51.5,14.91h29.4c0,.87-.06,1.73-.06,2.6h0c0,16.23,4.5,31.9,12.83,46.7,26.31,96.13,83.95,308.56,83.95,325,0,62.58,96.45,113.31,215.42,113.31s215.42-50.73,215.42-113.31c0-14,57.93-228.87,84.15-325.39,8.21-14.7,12.63-30.25,12.63-46.34h0c0-.87,0-1.73-.06-2.6h29.4Q850.34,426.45,850.35,418.93ZM753.16,610.46c-49,183.83-49,192.86-49,197.71,0,10.71-4.24,21.42-12.6,31.81-9,11.23-22.86,21.93-40,30.95-18.25,9.6-39.64,17.17-63.6,22.5a379.49,379.49,0,0,1-159.18,0c-24-5.33-45.35-12.9-63.6-22.5-17.15-9-31-19.72-40-30.95-8.36-10.39-12.6-21.1-12.6-31.81,0-5.17,0-15.92-49.06-198.94C255.08,578,246.68,547,239.28,519.79c54.3,48.4,154.45,80.87,269,80.87,114.75,0,215-32.57,269.28-81.09C770.13,547.18,761.63,578.75,753.16,610.46Zm27.53-122.39c-14,17.45-34.47,33.31-60.75,47.13-27.14,14.27-58.89,25.51-94.37,33.41a558.87,558.87,0,0,1-234.52,0c-35.48-7.9-67.23-19.14-94.37-33.41-26.28-13.82-46.72-29.68-60.75-47.13-13.4-16.67-20.2-34-20.2-51.63s6.8-34.95,20.2-51.63c14-17.45,34.47-33.3,60.75-47.13,27.14-14.27,58.89-25.51,94.37-33.4a558.87,558.87,0,0,1,234.52,0c35.48,7.89,67.23,19.13,94.37,33.4,26.28,13.83,46.72,29.68,60.75,47.13,13.4,16.68,20.2,34.05,20.2,51.63S794.09,471.4,780.69,488.07Zm37.45-71.88c-19-81.14-150.45-144-309.83-144s-290.86,62.83-309.83,144H183.94c1.88-139.66,146.67-252.82,324.37-252.82S830.8,276.53,832.68,416.19Z"/><path d="M509,34.52A475.11,475.11,0,0,1,693.88,947.16,475.11,475.11,0,0,1,324.12,71.84,472.07,472.07,0,0,1,509,34.52M509,10C233.13,10,9.5,233.63,9.5,509.5S233.13,1009,509,1009s499.5-223.63,499.5-499.5S784.87,10,509,10Z"/></svg>